<?xml version="1.0" encoding="utf-8"?>
<!-- Generator: Adobe Illustrator 21.1.0, SVG Export Plug-In . SVG Version: 6.00 Build 0)  -->
<svg version="1.1" id="Capa_1" xmlns="http://www.w3.org/2000/svg" xmlns:xlink="http://www.w3.org/1999/xlink" x="0px" y="0px"
	 viewBox="0 0 1046 284.3" style="enable-background:new 0 0 1046 284.3;" xml:space="preserve">
<style type="text/css">
	.st0{fill:none;stroke:#283174;stroke-width:0.7357;stroke-miterlimit:10;}
	.st1{fill:none;stroke:#479644;stroke-width:0.7357;stroke-miterlimit:10;}
	.st2{fill:url(#SVGID_1_);}
	.st3{fill:url(#SVGID_2_);}
</style>
<g>
	<g>
		<g>
			<g>
				<g>
					
						<ellipse transform="matrix(0.6195 -0.785 0.785 0.6195 29.1534 111.114)" class="st0" cx="129.2" cy="25.5" rx="20.6" ry="20.5"/>
				</g>
				
					<ellipse transform="matrix(0.6195 -0.785 0.785 0.6195 -100.1478 104.2961)" class="st1" cx="57.5" cy="155.4" rx="20.6" ry="20.5"/>
				<g>
					<g>
						<path class="st0" d="M14.7,70.4c16.2-29.4,49.3-43.5,80.5-37c-0.3-1.3-0.5-2.5-0.7-3.8c-1.1-9.3,1.5-18.4,7.3-25.7
							c0.8-1,1.6-1.9,2.5-2.8c-36.4-4.5-73.5,13-92.3,47.1c-16.6,30.1-14.7,65.5,2.1,92.9C2.7,119.6,2.1,93.2,14.7,70.4z"/>
					</g>
				</g>
				<g>
					<g>
						<path class="st1" d="M30.1,133.8c3.9-4.9,8.8-8.5,14.2-10.8C29.6,106,26.2,81,37.7,60.1c9.2-16.7,25.7-26.7,43.4-28.4
							c-26.7-0.3-52.7,13.6-66.5,38.6c-15.3,27.7-11.1,60.9,8,83.9C22.8,146.8,25.4,139.7,30.1,133.8z"/>
					</g>
				</g>
			</g>
		</g>
		<g>
			<g>
				
					<ellipse transform="matrix(0.6195 -0.785 0.785 0.6195 145.7313 818.2176)" class="st1" cx="916.8" cy="258.8" rx="20.6" ry="20.5"/>
				<g>
					
						<ellipse transform="matrix(0.6195 -0.785 0.785 0.6195 275.0449 825.0522)" class="st0" cx="988.5" cy="128.8" rx="20.6" ry="20.5"/>
				</g>
				<g>
					<path class="st1" d="M1031.4,213.9c-16.2,29.4-49.3,43.5-80.5,37c0.3,1.3,0.5,2.5,0.7,3.8c1.1,9.3-1.5,18.4-7.3,25.7
						c-0.8,1-1.6,1.9-2.5,2.8c36.4,4.5,73.5-13,92.3-47.1c16.6-30.1,14.7-65.5-2.1-92.9C1043.3,164.6,1043.9,191.1,1031.4,213.9z"/>
				</g>
				<g>
					<g>
						<g>
							<path class="st0" d="M1015.9,150.5c-3.9,4.9-8.8,8.5-14.2,10.8c14.7,17,18.1,42.1,6.6,62.9c-9.2,16.7-25.7,26.7-43.4,28.4
								c26.7,0.3,52.7-13.6,66.5-38.6c15.3-27.7,11.1-60.9-8-83.9C1023.2,137.4,1020.6,144.5,1015.9,150.5z"/>
						</g>
					</g>
				</g>
			</g>
		</g>
	</g>
	<g>
		<radialGradient id="SVGID_1_" cx="116.6482" cy="110.8496" r="33.6409" gradientUnits="userSpaceOnUse">
			<stop  offset="0.4143" style="stop-color:#178943"/>
			<stop  offset="0.9772" style="stop-color:#0C6B37"/>
		</radialGradient>
		<path class="st2" d="M76.6,85.2h33v29.4H94.3v22c-11.8-7.8-17.7-17.8-17.7-29.9V85.2z M123.7,85.2h33v29.4h-15.3v22
			c-11.8-7.8-17.7-17.8-17.7-29.9V85.2z"/>
	</g>
	<g>
		<radialGradient id="SVGID_2_" cx="929.3886" cy="182.3341" r="33.6409" gradientUnits="userSpaceOnUse">
			<stop  offset="0.4143" style="stop-color:#178943"/>
			<stop  offset="0.9772" style="stop-color:#0C6B37"/>
		</radialGradient>
		<path class="st3" d="M922.4,178.1c0,12.1-5.9,22-17.7,29.9v-22h-15.3v-29.4h33V178.1z M969.4,178.1c0,12.1-5.9,22-17.7,29.9v-22
			h-15.3v-29.4h33V178.1z"/>
	</g>
</g>
</svg>
