<?xml version="1.0" encoding="utf-8"?>
<!-- Generator: Adobe Illustrator 21.1.0, SVG Export Plug-In . SVG Version: 6.00 Build 0)  -->
<svg version="1.1" id="Capa_1" xmlns="http://www.w3.org/2000/svg" xmlns:xlink="http://www.w3.org/1999/xlink" x="0px" y="0px"
	 viewBox="0 0 371.8 183.2" style="enable-background:new 0 0 371.8 183.2;" xml:space="preserve">
<style type="text/css">
	.st0{clip-path:url(#SVGID_2_);}
	.st1{fill:none;stroke:url(#SVGID_3_);stroke-miterlimit:10;}
	.st2{fill:url(#SVGID_4_);}
	.st3{fill:url(#SVGID_5_);}
	.st4{fill:#0A6E38;}
	.st5{fill:#FFFFFF;}
	.st6{fill:url(#SVGID_6_);}
	.st7{fill:url(#SVGID_7_);}
	.st8{fill:url(#SVGID_8_);}
	.st9{fill:url(#SVGID_9_);}
	.st10{fill:url(#SVGID_10_);}
	.st11{fill:url(#SVGID_11_);}
	.st12{fill:url(#SVGID_12_);}
	.st13{fill:url(#SVGID_13_);}
	.st14{fill:url(#SVGID_14_);}
	.st15{fill:url(#SVGID_15_);}
</style>
<g>
	<g>
		<defs>
			<rect id="SVGID_1_" width="371.8" height="183.2"/>
		</defs>
		<clipPath id="SVGID_2_">
			<use xlink:href="#SVGID_1_"  style="overflow:visible;"/>
		</clipPath>
		<g class="st0">
			<radialGradient id="SVGID_3_" cx="145.4572" cy="-19.8293" r="187.314" gradientUnits="userSpaceOnUse">
				<stop  offset="0" style="stop-color:#294B9B"/>
				<stop  offset="1" style="stop-color:#263470"/>
			</radialGradient>
			<path class="st1" d="M266.9,113.2c-8-1.8-15.5-5.8-22.3-10.7c-11.2-8.1-22.3-18.5-36.3-21.4c-15.8-3.3-32.4,2.1-45.7,10.5
				c-12.6,7.9-23.2,18.6-33.9,29c-10.7,10.3-21.9,20.6-35.2,27.2c-21.6,10.9-48.5,9.3-65.2-9.6c-9.5-10.8-14.1-25.7-12.2-40
				c2.6-19.3,15.8-35.7,16-55.5C32.2,24.6,21.9,6.6,5.8-1.9C-3-6.6-13-8.4-22.3-12c-15.6-6-25-18.9-28.8-34.9
				c-2.6-11.1-2.3-22.8-0.8-34c1.4-10.4,6-18.4,11.8-27.1c10.9-16.2,25.2-30.1,41.2-41.3c25.1-17.6,54.3-28.6,84.2-35.8
				c38.1-9.2,78.2-12.4,116.7-4.6c38.5,7.8,75.2,27.2,100.1,57.5c28.1,34.2,40.7,83.3,41.8,127c0.6,22.3-1.6,45.5-8,67
				c-6.9,23.3-29.7,48.2-54.4,52.1C276.5,114.5,271.6,114.3,266.9,113.2z"/>
			<g>
				<g>
					<radialGradient id="SVGID_4_" cx="140.7323" cy="146.5643" r="26.4826" gradientUnits="userSpaceOnUse">
						<stop  offset="0" style="stop-color:#294B9B"/>
						<stop  offset="1" style="stop-color:#263470"/>
					</radialGradient>
					<path class="st2" d="M140.7,173c-14.6,0-26.5-11.9-26.5-26.5c0-14.6,11.9-26.5,26.5-26.5c14.6,0,26.5,11.9,26.5,26.5
						C167.2,161.2,155.3,173,140.7,173z M140.7,127.1c-10.7,0-19.5,8.7-19.5,19.5c0,10.7,8.7,19.5,19.5,19.5
						c10.7,0,19.5-8.7,19.5-19.5C160.2,135.8,151.5,127.1,140.7,127.1z"/>
				</g>
				<g>
					<radialGradient id="SVGID_5_" cx="126.4744" cy="130.9613" r="22.9827" gradientUnits="userSpaceOnUse">
						<stop  offset="0.4143" style="stop-color:#178943"/>
						<stop  offset="0.9772" style="stop-color:#0C6B37"/>
					</radialGradient>
					<path class="st3" d="M126.5,153.9c-12.7,0-23-10.3-23-23c0-12.7,10.3-23,23-23c12.7,0,23,10.3,23,23
						C149.5,143.6,139.1,153.9,126.5,153.9z M126.5,114.1c-9.3,0-16.9,7.6-16.9,16.9c0,9.3,7.6,16.9,16.9,16.9
						c9.3,0,16.9-7.6,16.9-16.9C143.4,121.6,135.8,114.1,126.5,114.1z"/>
				</g>
			</g>
			<g>
				<polygon class="st4" points="73.4,132.9 71.2,113.3 88.7,115.2 86.8,97.7 104.3,99.6 102.4,82.1 119.9,84 118,66.5 135.5,68.5 
					133.5,51 151,52.9 149.1,35.4 168.7,37.6 168.3,41 153,39.3 154.9,56.8 137.4,54.9 139.3,72.3 121.8,70.4 123.8,87.9 106.3,86 
					108.2,103.5 90.7,101.6 92.6,119.1 75.1,117.1 76.8,132.5 				"/>
			</g>
			<g>
				<polygon class="st5" points="239.4,11 234,16.4 234,22.7 245.8,11 				"/>
				<polygon class="st5" points="249.5,11 234,26.5 234,32.9 255.9,11 				"/>
				<polygon class="st5" points="259.6,11 234,36.6 234,43 266,11 				"/>
				<polygon class="st5" points="269.7,11 234,46.7 234,53.1 276.1,11 				"/>
				<polygon class="st5" points="279.8,11 234,56.8 234,63.2 286.2,11 				"/>
				<polygon class="st5" points="293.1,11 289.9,11 234,66.9 234,70.1 237.2,70.1 293.1,14.2 				"/>
				<polygon class="st5" points="293.1,17.9 240.9,70.1 247.3,70.1 293.1,24.3 				"/>
				<polygon class="st5" points="293.1,28 251,70.1 257.4,70.1 293.1,34.4 				"/>
				<polygon class="st5" points="293.1,38.1 261.1,70.1 267.5,70.1 293.1,44.5 				"/>
				<polygon class="st5" points="293.1,48.2 271.2,70.1 277.6,70.1 293.1,54.6 				"/>
				<polygon class="st5" points="293.1,58.3 281.3,70.1 287.7,70.1 293.1,64.7 				"/>
			</g>
			<g>
				<g>
					<radialGradient id="SVGID_6_" cx="260.0963" cy="114.4757" r="60.7163" gradientUnits="userSpaceOnUse">
						<stop  offset="0" style="stop-color:#294B9B"/>
						<stop  offset="1" style="stop-color:#263470"/>
					</radialGradient>
					<path class="st6" d="M260.1,54.8c-32.9,0-59.7,26.8-59.7,59.7s26.8,59.7,59.7,59.7s59.7-26.8,59.7-59.7S293,54.8,260.1,54.8z
						 M260.1,175.2c-33.5,0-60.7-27.2-60.7-60.7c0-33.5,27.2-60.7,60.7-60.7c33.5,0,60.7,27.2,60.7,60.7
						C320.8,148,293.6,175.2,260.1,175.2z"/>
					<radialGradient id="SVGID_7_" cx="260.0962" cy="114.4758" r="54.5931" gradientUnits="userSpaceOnUse">
						<stop  offset="0" style="stop-color:#294B9B"/>
						<stop  offset="1" style="stop-color:#263470"/>
					</radialGradient>
					<path class="st7" d="M260.1,60.9c-29.6,0-53.6,24-53.6,53.6s24,53.6,53.6,53.6s53.6-24,53.6-53.6S289.6,60.9,260.1,60.9z
						 M260.1,169.1c-30.1,0-54.6-24.5-54.6-54.6c0-30.1,24.5-54.6,54.6-54.6c30.1,0,54.6,24.5,54.6,54.6
						C314.7,144.6,290.2,169.1,260.1,169.1z"/>
					<radialGradient id="SVGID_8_" cx="260.0961" cy="114.4758" r="48.4699" gradientUnits="userSpaceOnUse">
						<stop  offset="0" style="stop-color:#294B9B"/>
						<stop  offset="1" style="stop-color:#263470"/>
					</radialGradient>
					<path class="st8" d="M260.1,67c-26.2,0-47.5,21.3-47.5,47.5s21.3,47.5,47.5,47.5s47.5-21.3,47.5-47.5S286.3,67,260.1,67z
						 M260.1,162.9c-26.7,0-48.5-21.7-48.5-48.5c0-26.7,21.7-48.5,48.5-48.5c26.7,0,48.5,21.7,48.5,48.5
						C308.6,141.2,286.8,162.9,260.1,162.9z"/>
					<radialGradient id="SVGID_9_" cx="260.0961" cy="114.4759" r="42.3467" gradientUnits="userSpaceOnUse">
						<stop  offset="0" style="stop-color:#294B9B"/>
						<stop  offset="1" style="stop-color:#263470"/>
					</radialGradient>
					<path class="st9" d="M260.1,73.1c-22.8,0-41.3,18.5-41.3,41.3s18.5,41.3,41.3,41.3s41.3-18.5,41.3-41.3S282.9,73.1,260.1,73.1z
						 M260.1,156.8c-23.3,0-42.3-19-42.3-42.3c0-23.3,19-42.3,42.3-42.3c23.4,0,42.3,19,42.3,42.3
						C302.4,137.8,283.4,156.8,260.1,156.8z"/>
					<radialGradient id="SVGID_10_" cx="260.096" cy="114.4759" r="36.2235" gradientUnits="userSpaceOnUse">
						<stop  offset="0" style="stop-color:#294B9B"/>
						<stop  offset="1" style="stop-color:#263470"/>
					</radialGradient>
					<path class="st10" d="M260.1,79.3c-19.4,0-35.2,15.8-35.2,35.2s15.8,35.2,35.2,35.2s35.2-15.8,35.2-35.2S279.5,79.3,260.1,79.3
						z M260.1,150.7c-20,0-36.2-16.2-36.2-36.2c0-20,16.2-36.2,36.2-36.2c20,0,36.2,16.2,36.2,36.2
						C296.3,134.4,280.1,150.7,260.1,150.7z"/>
					<radialGradient id="SVGID_11_" cx="260.096" cy="114.476" r="30.1003" gradientUnits="userSpaceOnUse">
						<stop  offset="0" style="stop-color:#294B9B"/>
						<stop  offset="1" style="stop-color:#263470"/>
					</radialGradient>
					<path class="st11" d="M260.1,85.4c-16,0-29.1,13.1-29.1,29.1s13.1,29.1,29.1,29.1s29.1-13.1,29.1-29.1S276.1,85.4,260.1,85.4z
						 M260.1,144.6c-16.6,0-30.1-13.5-30.1-30.1c0-16.6,13.5-30.1,30.1-30.1c16.6,0,30.1,13.5,30.1,30.1
						C290.2,131.1,276.7,144.6,260.1,144.6z"/>
					<radialGradient id="SVGID_12_" cx="260.0959" cy="114.4761" r="23.9771" gradientUnits="userSpaceOnUse">
						<stop  offset="0" style="stop-color:#294B9B"/>
						<stop  offset="1" style="stop-color:#263470"/>
					</radialGradient>
					<path class="st12" d="M260.1,91.5c-12.7,0-23,10.3-23,23s10.3,23,23,23s23-10.3,23-23S272.8,91.5,260.1,91.5z M260.1,138.5
						c-13.2,0-24-10.8-24-24c0-13.2,10.8-24,24-24c13.2,0,24,10.8,24,24C284.1,127.7,273.3,138.5,260.1,138.5z"/>
					<radialGradient id="SVGID_13_" cx="260.0959" cy="114.4761" r="17.8538" gradientUnits="userSpaceOnUse">
						<stop  offset="0" style="stop-color:#294B9B"/>
						<stop  offset="1" style="stop-color:#263470"/>
					</radialGradient>
					<path class="st13" d="M260.1,97.6c-9.3,0-16.9,7.6-16.9,16.9s7.6,16.9,16.9,16.9c9.3,0,16.9-7.6,16.9-16.9
						S269.4,97.6,260.1,97.6z M260.1,132.3c-9.8,0-17.9-8-17.9-17.9c0-9.8,8-17.9,17.9-17.9c9.8,0,17.9,8,17.9,17.9
						C277.9,124.3,269.9,132.3,260.1,132.3z"/>
					<radialGradient id="SVGID_14_" cx="260.0958" cy="114.4762" r="11.7306" gradientUnits="userSpaceOnUse">
						<stop  offset="0" style="stop-color:#294B9B"/>
						<stop  offset="1" style="stop-color:#263470"/>
					</radialGradient>
					<path class="st14" d="M260.1,103.7c-5.9,0-10.7,4.8-10.7,10.7c0,5.9,4.8,10.7,10.7,10.7s10.7-4.8,10.7-10.7
						C270.8,108.6,266,103.7,260.1,103.7z M260.1,126.2c-6.5,0-11.7-5.3-11.7-11.7c0-6.5,5.3-11.7,11.7-11.7
						c6.5,0,11.7,5.3,11.7,11.7C271.8,120.9,266.6,126.2,260.1,126.2z"/>
					<radialGradient id="SVGID_15_" cx="260.0958" cy="114.4762" r="5.6074" gradientUnits="userSpaceOnUse">
						<stop  offset="0" style="stop-color:#294B9B"/>
						<stop  offset="1" style="stop-color:#263470"/>
					</radialGradient>
					<path class="st15" d="M260.1,109.9c-2.5,0-4.6,2.1-4.6,4.6s2.1,4.6,4.6,4.6s4.6-2.1,4.6-4.6S262.6,109.9,260.1,109.9z
						 M260.1,120.1c-3.1,0-5.6-2.5-5.6-5.6s2.5-5.6,5.6-5.6s5.6,2.5,5.6,5.6S263.2,120.1,260.1,120.1z"/>
				</g>
			</g>
		</g>
	</g>
</g>
</svg>
