<?xml version="1.0" encoding="utf-8"?>
<!-- Generator: Adobe Illustrator 21.1.0, SVG Export Plug-In . SVG Version: 6.00 Build 0)  -->
<svg version="1.1" id="Capa_1" xmlns="http://www.w3.org/2000/svg" xmlns:xlink="http://www.w3.org/1999/xlink" x="0px" y="0px"
	 viewBox="0 0 409.6 264.8" style="enable-background:new 0 0 409.6 264.8;" xml:space="preserve">
<style type="text/css">
	.st0{clip-path:url(#SVGID_2_);}
	.st1{clip-path:url(#SVGID_4_);}
	.st2{fill:none;stroke:url(#SVGID_5_);stroke-miterlimit:10;}
	.st3{fill:url(#SVGID_6_);}
	.st4{fill:url(#SVGID_7_);}
	.st5{fill:url(#SVGID_8_);}
	.st6{fill:url(#SVGID_9_);}
	.st7{fill:none;stroke:url(#SVGID_10_);stroke-miterlimit:10;}
	.st8{fill:none;stroke:url(#SVGID_11_);stroke-miterlimit:10;}
	.st9{fill:none;stroke:url(#SVGID_12_);stroke-miterlimit:10;}
	.st10{fill:url(#SVGID_13_);}
	.st11{fill:url(#SVGID_14_);}
	.st12{fill:url(#SVGID_15_);}
	.st13{fill:none;stroke:url(#SVGID_16_);stroke-miterlimit:10;}
	.st14{fill:url(#SVGID_17_);}
	.st15{fill:none;stroke:url(#SVGID_18_);stroke-miterlimit:10;}
	.st16{opacity:0.34;}
	.st17{fill:url(#SVGID_19_);}
	.st18{fill:url(#SVGID_20_);}
	.st19{fill:url(#SVGID_21_);}
	.st20{fill:url(#SVGID_22_);}
	.st21{fill:url(#SVGID_23_);}
	.st22{fill:url(#SVGID_24_);}
	.st23{fill:url(#SVGID_25_);}
	.st24{fill:url(#SVGID_26_);}
	.st25{fill:url(#SVGID_27_);}
	.st26{fill:url(#SVGID_28_);}
	.st27{fill:url(#SVGID_29_);}
	.st28{fill:url(#SVGID_30_);}
	.st29{fill:url(#SVGID_31_);}
	.st30{fill:url(#SVGID_32_);}
	.st31{fill:url(#SVGID_33_);}
	.st32{fill:url(#SVGID_34_);}
	.st33{fill:url(#SVGID_35_);}
	.st34{fill:url(#SVGID_36_);}
	.st35{fill:url(#SVGID_37_);}
	.st36{fill:url(#SVGID_38_);}
	.st37{fill:url(#SVGID_39_);}
	.st38{fill:url(#SVGID_40_);}
	.st39{fill:url(#SVGID_41_);}
	.st40{fill:url(#SVGID_42_);}
	.st41{fill:url(#SVGID_43_);}
	.st42{fill:url(#SVGID_44_);}
	.st43{fill:url(#SVGID_45_);}
	.st44{fill:url(#SVGID_46_);}
	.st45{fill:url(#SVGID_47_);}
	.st46{fill:url(#SVGID_48_);}
	.st47{fill:url(#SVGID_49_);}
	.st48{fill:url(#SVGID_50_);}
</style>
<g>
	<defs>
		<rect id="SVGID_1_" width="437.6" height="293.1"/>
	</defs>
	<clipPath id="SVGID_2_">
		<use xlink:href="#SVGID_1_"  style="overflow:visible;"/>
	</clipPath>
	<g class="st0">
		<defs>
			<rect id="SVGID_3_" x="-7.3" width="444.9" height="320.4"/>
		</defs>
		<clipPath id="SVGID_4_">
			<use xlink:href="#SVGID_3_"  style="overflow:visible;"/>
		</clipPath>
		<g class="st1">
			<g>
				<g>
					<radialGradient id="SVGID_5_" cx="204.7114" cy="69.8035" r="194.6785" gradientUnits="userSpaceOnUse">
						<stop  offset="0.4143" style="stop-color:#178943"/>
						<stop  offset="0.9772" style="stop-color:#0C6B37"/>
					</radialGradient>
					<path class="st2" d="M39.8,120.7c7.7,2.2,15.9,2.3,24,1.2c13.4-1.7,27.7-5.4,41.1-1.4c15,4.5,26.8,16.9,34.3,30.3
						c7.1,12.7,11.1,26.8,15.5,40.6c4.3,13.9,9.1,27.8,17.4,39.7c13.4,19.4,37.2,30.6,60.3,22.3c13.2-4.8,24.1-15.5,29.1-28.5
						c6.8-17.7,3.1-37.9,12.2-54.9c8.3-15.6,25.5-26.2,43.3-26c9.7,0.1,19.1,3.2,28.8,4.5c16.2,2.2,30.2-4.5,40.9-16.5
						c7.5-8.3,12.6-18.4,16.6-28.8c3.6-9.5,3.5-18.6,2.6-28.7c-1.8-19-7.5-37.5-15.9-54.6c-13.3-26.8-33.1-49.9-55.3-70
						c-28.3-25.7-61.2-47.1-97.7-58.4c-36.6-11.3-77.1-11.9-112.5,2.5c-40,16.2-73.7,52.3-95.1,89.1C18.3,2.1,8,22.7,4.7,44.3
						C-0.7,80.4,7.6,99.5,27,114.3C30.9,117.3,35.2,119.4,39.8,120.7z"/>
					
						<radialGradient id="SVGID_6_" cx="6181.3994" cy="-1287.0675" r="43.1183" gradientTransform="matrix(0.9767 0.2145 0.2145 -0.9767 -5478.7764 -2462.1794)" gradientUnits="userSpaceOnUse">
						<stop  offset="0" style="stop-color:#294B9B"/>
						<stop  offset="1" style="stop-color:#263470"/>
					</radialGradient>
					<path class="st3" d="M272.7,165.8c-8.6-2.6-16.5-8.5-21.6-15.4c-8.4-11.5-10.5-27.1-6.6-40.8c5.1-17.9,20.2-34.9,39.8-34.9
						c13.3,0,26,8.1,32.7,19.7c6.7,11.5,7.5,26,3.5,38.7c-4.5,14.2-14.1,27.2-28.3,32.6C285.9,167.9,279.1,167.7,272.7,165.8z"/>
					<g>
						
							<image style="overflow:visible;opacity:0.25;" width="331" height="480" xlink:href="3BF41EE4714406E5.png"  transform="matrix(0.24 0 0 0.24 72.4272 143.83)">
						</image>
						<g>
							
								<radialGradient id="SVGID_7_" cx="6054.0078" cy="-1362.3507" r="37.8191" gradientTransform="matrix(0.9701 0.213 0.219 -0.9973 -5461.5171 -2448.5476)" gradientUnits="userSpaceOnUse">
								<stop  offset="0" style="stop-color:#294B9B"/>
								<stop  offset="1" style="stop-color:#263470"/>
							</radialGradient>
							<polygon class="st4" points="102.8,148.4 135.2,216.5 78,241.3 							"/>
						</g>
					</g>
					<g>
						
							<image style="overflow:visible;opacity:0.25;" width="230" height="154" xlink:href="3BF41EE4714406E7.png"  transform="matrix(0.24 0 0 0.24 104.1938 225.7565)">
						</image>
						<g>
							
								<radialGradient id="SVGID_8_" cx="656.5635" cy="-4503.1826" r="18.2283" gradientTransform="matrix(0.1614 -0.9869 -0.9869 -0.1614 -4419.3179 159.8784)" gradientUnits="userSpaceOnUse">
								<stop  offset="0.4143" style="stop-color:#178943"/>
								<stop  offset="0.9772" style="stop-color:#0C6B37"/>
							</radialGradient>
							<polygon class="st5" points="106.9,243.4 138.7,228.1 151.4,254.4 							"/>
						</g>
					</g>
					<g>
						
							<image style="overflow:visible;opacity:0.25;" width="290" height="279" xlink:href="3BF41EE4714406E2.png"  transform="matrix(0.24 0 0 0.24 292.7472 155.59)">
						</image>
						<g>
							
								<radialGradient id="SVGID_9_" cx="1022.0087" cy="-5807.958" r="23.2835" gradientTransform="matrix(0.5198 -0.8543 -0.8543 -0.5198 -5168.582 -1968.7308)" gradientUnits="userSpaceOnUse">
								<stop  offset="0.4143" style="stop-color:#178943"/>
								<stop  offset="0.9772" style="stop-color:#0C6B37"/>
							</radialGradient>
							<path class="st6" d="M299.8,180.3c-0.1-0.2-0.2-0.4-0.3-0.7c-1.1-2.4-1.4-5.1-0.5-7.5c0.7-1.8,2.2-3.3,3.8-4.3
								c2.9-1.9,6.5-3,9.9-4.1c3.5-1.1,7.1-1.9,10.7-2.5c3-0.5,6-0.8,9.1-0.9c1.6-0.1,3.1-0.1,4.7,0c1.3,0,2.7,0.8,3.7,1.5
								c5,3.3,5.3,9.6,4.7,15.1c-0.5,3.9-1.2,7.9-2.3,11.8c-1,3.7-2,8.1-4,11.5c-0.5,0.8-1,1.6-1.7,2.2c-1.9,1.9-4.4,2.8-7.1,2.7
								c-3.4-0.2-6.5-2.2-9.3-3.9c-6.4-3.8-11.9-8.8-16.8-14.4C302.7,184.8,300.9,182.6,299.8,180.3z"/>
						</g>
					</g>
					<g>
						
							<image style="overflow:visible;opacity:0.25;" width="239" height="232" xlink:href="3BF41EE4714406E3.png"  transform="matrix(0.24 0 0 0.24 352.0272 40.63)">
						</image>
						<g>
							<radialGradient id="SVGID_10_" cx="375.1835" cy="62.0231" r="17.0949" gradientUnits="userSpaceOnUse">
								<stop  offset="0.4143" style="stop-color:#178943"/>
								<stop  offset="0.9772" style="stop-color:#0C6B37"/>
							</radialGradient>
							<path class="st7" d="M364.3,78c-0.2,0-0.3,0-0.5-0.1c-1.8-0.3-3.6-1.2-4.6-2.7c-0.8-1.1-1.1-2.6-1.1-3.9c0-2.5,0.8-5,1.5-7.4
								c0.7-2.5,1.6-4.9,2.7-7.3c0.9-2,1.9-3.9,3-5.7c0.6-0.9,1.2-1.9,1.8-2.8c0.5-0.7,1.5-1.3,2.3-1.6c3.9-1.7,7.8,0.6,10.7,3.1
								c2.1,1.8,4.2,3.8,6.1,5.9c1.8,2,4,4.4,5.2,6.9c0.3,0.6,0.5,1.2,0.7,1.9c0.4,1.9-0.1,3.7-1.2,5.2c-1.4,1.9-3.8,3-5.9,4
								c-4.7,2.3-9.9,3.6-15.1,4.3C368.1,78.1,366.2,78.2,364.3,78z"/>
						</g>
					</g>
					<radialGradient id="SVGID_11_" cx="239.7731" cy="25.9015" r="19.5154" gradientUnits="userSpaceOnUse">
						<stop  offset="0.4143" style="stop-color:#178943"/>
						<stop  offset="0.9772" style="stop-color:#0C6B37"/>
					</radialGradient>
					<path class="st8" d="M259.6,34.7c0.6,3.1,0.2,6.4-2.9,8.1c-1.6,0.9-3.5,1-5.3,1c-6.4,0-12.8-1-19-2.7c-3-0.8-6.1-1.8-8.5-3.8
						c-3.5-3-4.9-7.9-3.8-12.3c2-7.7,7.4-17.7,16.6-17c5.9,0.5,10.7,5.6,14.1,10c3.2,4.1,6.2,8.6,7.9,13.6
						C259.1,32.5,259.4,33.6,259.6,34.7z"/>
					<radialGradient id="SVGID_12_" cx="249.8136" cy="194.416" r="12.2999" gradientUnits="userSpaceOnUse">
						<stop  offset="0.4143" style="stop-color:#178943"/>
						<stop  offset="0.9772" style="stop-color:#0C6B37"/>
					</radialGradient>
					<path class="st9" d="M259.9,201.9c-1.6,1.9-3.9,3.2-6.2,3.7c-3.8,0.8-7.9-0.3-10.9-2.8c-3.9-3.2-6.5-8.9-4.3-13.7
						c1.5-3.3,4.9-5.6,8.5-6c3.6-0.4,7.3,1,10,3.4c3,2.7,5.2,6.5,5,10.6C261.8,198.9,261.1,200.5,259.9,201.9z"/>
					
						<radialGradient id="SVGID_13_" cx="5942.1123" cy="-1339.7698" r="16.4858" gradientTransform="matrix(0.9767 0.2145 0.2145 -0.9767 -5478.7764 -2462.1794)" gradientUnits="userSpaceOnUse">
						<stop  offset="0" style="stop-color:#294B9B"/>
						<stop  offset="1" style="stop-color:#263470"/>
					</radialGradient>
					<path class="st10" d="M50.2,130.3c-2.5,2.9-5.8,5.2-9,6.3c-5.3,1.8-10.7,0.7-14.4-2.5c-4.8-4.1-7.5-11.9-3.8-19.4
						c2.5-5.1,7.5-8.9,12.5-10c5-1.1,9.8,0.3,13.1,3.4c3.7,3.4,6.1,8.7,5.2,14.7C53.4,125.5,52,128.1,50.2,130.3z"/>
					
						<radialGradient id="SVGID_14_" cx="6209.3042" cy="-1357.7893" r="6.0664" gradientTransform="matrix(0.9767 0.2145 0.2145 -0.9767 -5478.7764 -2462.1794)" gradientUnits="userSpaceOnUse">
						<stop  offset="0.4143" style="stop-color:#178943"/>
						<stop  offset="0.9772" style="stop-color:#0C6B37"/>
					</radialGradient>
					<path class="st11" d="M299.4,199.3c-0.9,1.1-2.1,1.9-3.3,2.3c-1.9,0.6-3.9,0.3-5.3-0.9c-1.8-1.5-2.8-4.4-1.4-7.1
						c0.9-1.9,2.8-3.3,4.6-3.7c1.8-0.4,3.6,0.1,4.8,1.3c1.4,1.3,2.3,3.2,1.9,5.4C300.6,197.5,300.1,198.5,299.4,199.3z"/>
					
						<radialGradient id="SVGID_15_" cx="6230.2207" cy="-1379.9387" r="6.7871" gradientTransform="matrix(0.9767 0.2145 0.2145 -0.9767 -5478.7764 -2462.1794)" gradientUnits="userSpaceOnUse">
						<stop  offset="0.4143" style="stop-color:#178943"/>
						<stop  offset="0.9772" style="stop-color:#0C6B37"/>
					</radialGradient>
					<path class="st12" d="M315.6,225.8c-1,1.2-2.4,2.2-3.7,2.6c-2.2,0.7-4.4,0.3-5.9-1c-2-1.7-3.1-4.9-1.6-8c1-2.1,3.1-3.7,5.1-4.1
						s4,0.1,5.4,1.4c1.5,1.4,2.5,3.6,2.1,6.1C316.9,223.9,316.4,224.9,315.6,225.8z"/>
					<radialGradient id="SVGID_16_" cx="283.4359" cy="-7.6335" r="15.7662" gradientUnits="userSpaceOnUse">
						<stop  offset="0" style="stop-color:#294B9B"/>
						<stop  offset="1" style="stop-color:#263470"/>
					</radialGradient>
					<path class="st13" d="M295.1,1.1c-2.3,2.7-5.4,4.9-8.4,5.8c-4.9,1.6-9.9,0.6-13.3-2.3c-4.5-3.8-6.9-11.1-3.5-18
						c2.3-4.7,7-8.3,11.6-9.3c4.6-1,9.1,0.3,12.2,3.2c3.5,3.2,5.7,8.1,4.8,13.7C298-3.3,296.8-0.9,295.1,1.1z"/>
					<g id="ToNODb.tif_3_">
					</g>
				</g>
				
					<radialGradient id="SVGID_17_" cx="6100.1411" cy="-1324.3958" r="24.1542" gradientTransform="matrix(0.9767 0.2145 0.2145 -0.9767 -5478.7764 -2462.1794)" gradientUnits="userSpaceOnUse">
					<stop  offset="0" style="stop-color:#294B9B"/>
					<stop  offset="1" style="stop-color:#263470"/>
				</radialGradient>
				<circle class="st14" cx="195.3" cy="139.8" r="24.2"/>
				<radialGradient id="SVGID_18_" cx="78.0079" cy="66.6069" r="27.4849" gradientUnits="userSpaceOnUse">
					<stop  offset="0" style="stop-color:#294B9B"/>
					<stop  offset="1" style="stop-color:#263470"/>
				</radialGradient>
				<polygon class="st15" points="101.6,55.8 63.3,36.9 54.4,77.4 92.7,96.3 				"/>
			</g>
			<g>
				<g id="B0Bgo3.tif_4_" class="st16">
					<radialGradient id="SVGID_19_" cx="131.2874" cy="31.4837" r="16.807" gradientUnits="userSpaceOnUse">
						<stop  offset="0.4143" style="stop-color:#178943"/>
						<stop  offset="0.9772" style="stop-color:#0C6B37"/>
					</radialGradient>
					<path class="st17" d="M118.8,31.4c0.1-5.7,0.1-11.3,0.2-17c0-2.2,0.8-3,3-3.1c1.6,0,3.2,0,4.7,0c4.5,0,8.9,0,13.4,0
						c2.6,0,3.5,1.1,3.5,3.7c0,0.8,0,1.7,0,2.5c0.1,10.4,0.2,20.8,0.3,31.2c0,2.1-0.7,2.7-2.8,2.8c-3.7,0-7.4,0-11.1,0
						c-2.5,0-5.1,0.2-7.6,0.2c-2.4,0-3.3-0.8-3.3-3.2c0.1-5.7,0.1-11.4,0.2-17.1C119,31.4,118.9,31.4,118.8,31.4z M125.5,23.3
						c3.1,4.6,6.2,9.3,9.3,13.9c1.6,2.3,3.1,4.7,4.6,7c0.1,0.2,0.3,0.3,0.5,0.4c0.8,0,1.6,0,2.8,0c-0.3-0.9-0.4-1.7-0.7-2.2
						c-2.5-3.8-5.2-7.6-7.8-11.4c-3.3-4.8-6.5-9.5-9.8-14.2c-0.2-0.2-0.5-0.5-0.8-0.5c-0.9-0.1-1.8,0-2.8-0.1
						C122.5,18.8,124,21.1,125.5,23.3z M120.3,22.6c0.1,0.8,1,1.4,1.4,2.2c3.1,5.1,6.2,10.2,9.3,15.3c0.8,1.3,1.4,2.7,2.2,4
						c0.1,0.2,0.5,0.5,0.7,0.5c1.4,0.1,2.8,0.1,4.4,0.1c-6-9.2-11.9-18.1-17.8-27.1c-0.1,0-0.2,0-0.2,0.1
						C120.2,19.2,120.1,20.9,120.3,22.6z M121.1,45.7c-0.8,0-1.1,0.2-1,1c0.1,0.8,0.1,1.6,0.2,2.4c0.1,1,0.8,1.4,1.8,1.4
						c5.2-0.1,10.4-0.2,15.6-0.2c1.2,0,2.4,0,3.6,0c0.8,0,1.2-0.4,1.2-1.2c0.2-3,0.2-3-2.8-3c-2.8,0-5.7-0.1-8.5-0.1c0,0,0,0,0-0.1
						C127.9,45.8,124.5,45.8,121.1,45.7z M142.4,37.3c0-0.2-0.1-0.4-0.2-0.6c-2.2-3.6-4.4-7.2-6.6-10.8c-1.9-3.1-3.8-6.2-5.7-9.2
						c-0.1-0.2-0.4-0.3-0.6-0.3c-1.2,0-2.5,0-3.9-0.1c5.7,8.2,11.3,16.3,17.1,24.6C142.4,39.5,142.4,38.4,142.4,37.3z M142.1,15.1
						c0.4-1.6-0.1-2.4-1.8-2.5c-1.1-0.1-2.3-0.1-3.4-0.1c-5,0-9.9,0-14.9,0.1c-1.4,0-1.7,0.4-1.7,2.3
						C127.6,15,134.8,15.1,142.1,15.1z M142.3,34.6c0.1-2.7,0.4-5.3-1.2-7.5c-1.7-2.4-3.4-4.9-5-7.4c-0.6-0.9-1.1-1.9-1.6-2.8
						c-0.1-0.2-0.3-0.5-0.5-0.5c-1-0.1-1.9,0-3-0.1C134.8,22.5,138.5,28.5,142.3,34.6z M120.3,28.8c0.1,0.8,0.8,1.5,1.3,2.3
						c2.4,4,4.8,7.9,7.2,11.9c0,0.1,0.1,0.1,0.1,0.2c0.2,0.5,0.3,1.3,0.6,1.4c0.7,0.2,1.6,0.1,2.5,0.1c-3.5-6.9-7.4-13.5-11.8-19.8
						C120.2,26.1,120,27.4,120.3,28.8z M120.3,35.8c0.1,0.6,0.8,1.1,1.2,1.7c1.2,2.2,2.4,4.4,3.6,6.5c0.1,0.2,0.4,0.5,0.6,0.5
						c0.8,0.1,1.6,0,2.7,0.1c-2.7-4.6-5.2-9-7.8-13.4c-0.1,0-0.2,0.1-0.3,0.1C120.3,32.8,120.2,34.3,120.3,35.8z M142.4,26.7
						c-0.1-1.6,0-3-0.2-4.2c-0.2-0.9-0.9-1.6-1.4-2.4c-0.5-0.8-1.1-1.7-1.5-2.6c-0.4-0.8-1-1.1-1.9-1c-0.6,0.1-1.1,0-1.7,0
						c-0.1,0.1-0.2,0.2-0.3,0.3C137.6,20,139.9,23.2,142.4,26.7z M120.3,41.9c0,2.8,0,2.8,2.8,2.6c0.3,0,0.6,0,0.9-0.1
						c-1.2-2.3-2.4-4.6-3.7-7.1C120.3,39.1,120.3,40.5,120.3,41.9z M142.2,16.5c-0.8,0-1.5,0-2.4,0c0.8,1.3,1.5,2.4,2.2,3.5
						c0.1,0,0.1-0.1,0.2-0.1C142.2,18.8,142.2,17.7,142.2,16.5z"/>
					<radialGradient id="SVGID_20_" cx="179.7913" cy="42.6521" r="11.2875" gradientUnits="userSpaceOnUse">
						<stop  offset="0.4143" style="stop-color:#178943"/>
						<stop  offset="0.9772" style="stop-color:#0C6B37"/>
					</radialGradient>
					<path class="st18" d="M174.9,43.1c0,0.3,0.1,0.7,0.2,0.9c0.7,1.5,1.4,3,2.1,4.6c0.5,1,0.1,2.1-0.8,2.3
						c-0.8,0.2-1.7,0.4-2.5,0.6c-1.4,0.4-2.4,0.2-3-1c-0.9-1.8-1.7-3.6-2.3-5.5c-0.3-0.9,0.2-1.7,0.9-2.4c0.3-0.3,0.6-0.8,0.7-1.2
						c0.6-1.6,0.8-3.3,1.6-4.7c2.8-5,9.1-6.6,14-3.8c4.2,2.4,6.1,7,4.9,11.8c-0.1,0.3-0.1,0.6,0,0.9c0.5,1,0.6,2,0.3,3.1
						c-0.4,1.5-1.4,2.7-2.4,3.8c-0.8,0.8-1.6,1.3-2.8,1.3c-1.4,0-2.2-1.1-3.3-1.7c-1.2-0.7-1.3-1.4-0.6-2.6c0.3-0.5,0.8-0.9,1.2-1.4
						c0.9-1.1,1.7-2.1,2.6-3.2c0.4-0.5,0.6-1.1,1.1-1.4c0.5-0.3,1.2-0.1,1.8-0.2c0.9-3.3-2-8.6-7.3-9.3c-4.1-0.6-8.3,3.7-8.5,7
						C174.5,41.2,174.7,41.5,174.9,43.1z M183.6,51.7c1.5,1.7,2.9,1.8,4.5,0.2c1.1-1.2,2.2-2.4,2.3-4.2c0.1-1.2-0.3-2.1-1.3-2.7
						C187.2,47.2,185.4,49.5,183.6,51.7z M171.8,42.4c-2.1,0.2-3.1,1.8-2.2,3.5c0.6,1.1,0.9,2.4,1.5,3.5c0.7,1.5,1.6,1.6,3.7,0.7
						C173.7,47.6,172.8,45,171.8,42.4z M182.8,32.7c0,1.2,1.2,1,1.7,1.7C184.6,33.1,184.2,32.8,182.8,32.7z M187.1,35.3
						c0.5,1,0.9,2,1.4,3c0.1,0,0.2-0.1,0.3-0.1C188.5,37.1,188.5,35.9,187.1,35.3z M185.4,33.7c-0.5,1.2,0.6,1.4,1.2,2.1
						C186.7,34.6,186.3,34,185.4,33.7z M172.9,38c0.5-0.7,1.2-1.2,0.6-2.2C172.8,36.4,172.4,37,172.9,38z M173.1,43.2
						c-0.1,0.1-0.2,0.1-0.3,0.2c0.5,0.9,1.1,1.7,1.6,2.6c0.1-0.1,0.3-0.2,0.4-0.3C174.3,44.9,173.7,44.1,173.1,43.2z M174.5,47.3
						c0.2,0.4,0.4,0.8,0.7,1.2c0.3,0.4,0.7,0.6,1.1,1C176.4,48.3,175.4,47.9,174.5,47.3z M171.8,40.3c0.8-0.7,0.7-1.4,0.4-2.3
						C171.4,38.7,171.5,39.4,171.8,40.3z M174.1,35.9c0.8-0.3,1.5-0.6,0.5-1.8C174.4,34.9,174.3,35.4,174.1,35.9z M176.8,33.8
						c-0.2-0.1-0.4-0.3-0.6-0.3c-0.7,0.1-0.8,0.6-0.3,1.5C176.3,34.5,176.6,34.1,176.8,33.8z M178.4,33.6c0.1,0,0.1-0.4,0.2-0.6
						c-0.4-0.1-0.8-0.1-1.3-0.2C177.3,34,177.9,33.7,178.4,33.6z M180.8,32.4c-0.1,1.1,0.7,0.8,1.3,1
						C182.2,32.2,181.5,32.4,180.8,32.4z M185.7,47.7c0.2,0,0.3,0.1,0.5,0.1c0.1-0.6,0.3-1.2,0.4-1.8c-0.2,0-0.4-0.1-0.5-0.1
						C185.9,46.5,185.8,47.1,185.7,47.7z"/>
					<g>
						<radialGradient id="SVGID_21_" cx="118.8777" cy="86.9546" r="10.9121" gradientUnits="userSpaceOnUse">
							<stop  offset="0.4143" style="stop-color:#178943"/>
							<stop  offset="0.9772" style="stop-color:#0C6B37"/>
						</radialGradient>
						<path class="st19" d="M106.5,87.6c0-1.6,0-3.2,0.1-4.8c0-1.3,0.6-2.3,1.9-2.6c1.5-0.3,3.1-0.6,4.7-0.8c0.3,0,0.7,0.1,0.9,0.3
							c0.6,1,1.4,0.7,2.2,0.5c0.8-0.1,1.6-0.2,2.3-0.4c0.4-0.1,1.1-0.4,1.2-0.7c0.2-1.2,1.1-1.3,1.9-1.4c1.1-0.1,2.3,0,3.4-0.1
							c1.2,0,2,0.6,2.4,1.7c1.3,3,2.5,6,3.7,9c0.2,0.6,0.3,1.6,0,2.2c-1.1,2.5-4.8,3.6-6.8,1.4c-0.8-0.9-1.3-2-2-3
							c-0.6-0.9-1.3-1.2-2.4-1c-0.9,0.2-1.8,0.3-2.7,0.5c-2,0.4-2.3,0.8-2.5,2.9c0,0.5-0.2,1-0.3,1.5c-0.4,1.8-1.9,3.6-4.9,3.3
							c-1.9-0.2-2.7-1.2-2.8-3.6c-0.1-1.6,0-3.2,0-4.8C106.7,87.6,106.6,87.6,106.5,87.6z M107.7,92.5c0.1,1.9,0.4,2.3,1.6,2.5
							c1.7,0.4,3.3-0.1,3.9-1.5c0.4-0.8,0.6-1.8,0.7-2.8c0.1-1.7,0.6-2.6,2.2-3c1.3-0.4,2.7-0.6,4.1-0.7c1.9-0.2,2.8,0.5,3.4,2.3
							c0.8,2.2,2,3.1,4,3c2.1-0.2,3.4-2.2,2.7-4.1c-1.1-2.8-2.3-5.7-3.5-8.5c-0.4-0.9-1.1-1.2-2.1-1.2c-1,0-2.1,0.1-3.1,0.1
							c-0.7,0-0.9,0.3-1.2,0.9c-0.2,0.4-0.6,0.9-0.9,1c-1.5,0.3-3,0.5-4.5,0.7c-0.4,0-0.9-0.3-1.3-0.5c-0.3-0.1-0.7-0.4-0.9-0.4
							c-1.5,0.2-3,0.4-4.4,0.8c-0.4,0.1-0.8,0.8-0.9,1.3c-0.1,1.1-0.1,2.2-0.1,3.3c0,0-0.1,0-0.1,0
							C107.4,88.1,107.6,90.3,107.7,92.5z"/>
						<radialGradient id="SVGID_22_" cx="124.1468" cy="82.9933" r="2.7752" gradientUnits="userSpaceOnUse">
							<stop  offset="0.4143" style="stop-color:#178943"/>
							<stop  offset="0.9772" style="stop-color:#0C6B37"/>
						</radialGradient>
						<path class="st20" d="M124.1,80.4c0.9,0.5,1.9,1.1,2.5,1.9c0.6,0.7,0.2,1.3-0.9,1.9c0,1.2-0.2,1.5-1.8,1.6c-0.3,0-0.7-0.6-1-1
							c-0.5-0.2-1.2,0.2-1.5-0.9c-0.3-1.1,0.4-1.4,1.1-1.6C122.5,80.6,123.1,79.8,124.1,80.4z M123.4,81.3c-0.3,1.4,0.7,1.9,1.3,2.7
							c0.1-0.1,0.3-0.2,0.4-0.2C124.5,83,124,82.2,123.4,81.3z"/>
						<radialGradient id="SVGID_23_" cx="109.6924" cy="84.3412" r="1.3486" gradientUnits="userSpaceOnUse">
							<stop  offset="0.4143" style="stop-color:#178943"/>
							<stop  offset="0.9772" style="stop-color:#0C6B37"/>
						</radialGradient>
						<path class="st21" d="M108.3,84.8c0.3,0.2,0.8,0.7,1.3,0.9c0.6,0.2,1.5-0.7,1.4-1.4c-0.1-0.8-0.6-1.3-1.4-1.3
							C108.7,83,108.5,83.7,108.3,84.8z"/>
						<radialGradient id="SVGID_24_" cx="112.5201" cy="86.1392" r="1.2422" gradientUnits="userSpaceOnUse">
							<stop  offset="0.4143" style="stop-color:#178943"/>
							<stop  offset="0.9772" style="stop-color:#0C6B37"/>
						</radialGradient>
						<path class="st22" d="M111.2,86c0,0.9,0.5,1.3,1.2,1.3c0.8,0,1.3-0.4,1.3-1.2c0-0.8-0.6-1.2-1.4-1.2
							C111.8,85,111.2,85.3,111.2,86z"/>
						<radialGradient id="SVGID_25_" cx="118.1243" cy="86.2574" r="1.0537" gradientUnits="userSpaceOnUse">
							<stop  offset="0.4143" style="stop-color:#178943"/>
							<stop  offset="0.9772" style="stop-color:#0C6B37"/>
						</radialGradient>
						<path class="st23" d="M116.7,86.7c1-0.2,1.8-0.4,2.8-0.6C118.4,85.4,117,85.8,116.7,86.7z"/>
						<radialGradient id="SVGID_26_" cx="128.2333" cy="88.5633" r="1.4099" gradientUnits="userSpaceOnUse">
							<stop  offset="0.4143" style="stop-color:#178943"/>
							<stop  offset="0.9772" style="stop-color:#0C6B37"/>
						</radialGradient>
						<path class="st24" d="M129.8,89.5c-1-0.7-1.9-1.4-2.9-2.2c-0.1,0.1-0.2,0.2-0.2,0.3c0.9,0.7,1.9,1.5,2.8,2.2
							C129.6,89.7,129.7,89.6,129.8,89.5z"/>
						<radialGradient id="SVGID_27_" cx="128.152" cy="90.0417" r="1.0864" gradientUnits="userSpaceOnUse">
							<stop  offset="0.4143" style="stop-color:#178943"/>
							<stop  offset="0.9772" style="stop-color:#0C6B37"/>
						</radialGradient>
						<path class="st25" d="M129.3,90.7c-0.7-0.5-1.4-1.1-2.1-1.6c-0.1,0.1-0.2,0.2-0.2,0.3c0.7,0.5,1.4,1.1,2.1,1.6
							C129.2,90.9,129.3,90.8,129.3,90.7z"/>
						<radialGradient id="SVGID_28_" cx="127.9371" cy="87.1161" r="1.0603" gradientUnits="userSpaceOnUse">
							<stop  offset="0.4143" style="stop-color:#178943"/>
							<stop  offset="0.9772" style="stop-color:#0C6B37"/>
						</radialGradient>
						<path class="st26" d="M129.1,87.7c-0.7-0.5-1.4-1-2.1-1.5c-0.1,0.1-0.2,0.2-0.2,0.3c0.7,0.5,1.4,1.1,2.1,1.6
							C128.9,87.9,129,87.8,129.1,87.7z"/>
					</g>
					<radialGradient id="SVGID_29_" cx="355.0547" cy="106.8952" r="8.3237" gradientUnits="userSpaceOnUse">
						<stop  offset="0.4143" style="stop-color:#178943"/>
						<stop  offset="0.9772" style="stop-color:#0C6B37"/>
					</radialGradient>
					<path class="st27" d="M358.5,107.1c1.3,1.3,2.6,2.6,3.9,3.9c0.4,0.4,0.5,0.8-0.1,1.3c-0.7,0.6-1.3,1.2-1.9,1.9
						c-0.4,0.4-0.6,0.4-1,0c-1.2-1.3-2.4-2.7-3.7-4c-0.1-0.1-0.1-0.2-0.1-0.3c-0.1,0-0.1,0.1-0.2,0.1c-0.3,0.7-0.6,1.5-1,2.2
						c-0.4,0.9-0.9,1.7-1.4,2.6c-0.1,0.2-0.4,0.4-0.5,0.4c-0.2,0-0.4-0.3-0.5-0.5c-0.4-1.1-0.7-2.3-1.1-3.4c-0.8-2.5-1.7-5-2.6-7.5
						c-0.6-1.6-1.2-3.2-1.8-4.7c0-0.1,0-0.4,0-0.4c0.2-0.1,0.4-0.1,0.6,0c1.2,0.5,2.5,1,3.7,1.5c2.5,0.8,5,1.6,7.5,2.3
						c1.5,0.4,2.9,0.9,4.4,1.3c0.2,0.1,0.4,0.3,0.5,0.5c0,0.1-0.2,0.3-0.4,0.4c-1.3,0.7-2.6,1.4-3.9,2.1
						C358.9,106.9,358.7,107,358.5,107.1z M352.8,113.8c0.2-0.2,0.3-0.4,0.4-0.5c0.6-1.3,1.2-2.6,1.7-4c0.3-0.7,0.5-0.8,1-0.2
						c0.7,0.7,1.4,1.5,2.1,2.2c0.7,0.7,1.3,1.4,2,2.2c0.6-0.6,1.2-1.2,1.9-1.9c-1.4-1.3-2.8-2.6-4.2-3.8c-0.7-0.6-0.7-0.7,0-1.2
						c1-0.6,2-1.1,3-1.7c0.3-0.2,0.7-0.4,1-0.6c-4.8-1.5-9.4-3-14.1-4.5c0.3,0.9,0.7,1.9,1.2,3.1c0.3-0.6,0.4-1,0.6-1.5
						c0.1,0,0.2,0.1,0.3,0.1c-0.1,0.5-0.2,1-0.4,1.4c-0.3,0.7-0.2,1.2,0.3,1.9c0.3-0.9,0.5-1.7,0.7-2.4c0.1,0,0.2,0,0.2,0
						c0,0.2,0.1,0.5,0,0.7c-0.2,0.7-0.4,1.5-0.7,2.2c-0.2,0.6,0.1,1,0.4,1.7c0.3-0.7,0.5-1.2,0.7-1.7c0.5-1.2,0.5-1.2,1-1.1
						c-0.4,1-0.6,2-1.1,2.9c-0.5,0.9,0.1,1.5,0.4,2.4c0.7-1.4,1.2-2.5,1.8-3.7c0.1,0,0.2,0,0.3,0.1c0,0.2,0,0.5-0.1,0.7
						c-0.5,1-0.9,2.1-1.4,3.1c-0.4,0.8,0,1.4,0.4,2.3c0.6-1.3,1.2-2.5,1.7-3.7c0.1-0.1,0.2-0.2,0.3-0.4c0,0.2,0.1,0.4,0,0.5
						c-0.5,1.2-1,2.4-1.6,3.5C352.4,112.7,352.5,113.2,352.8,113.8z"/>
					<radialGradient id="SVGID_30_" cx="195.32" cy="210.0016" r="13.8169" gradientUnits="userSpaceOnUse">
						<stop  offset="0.4143" style="stop-color:#178943"/>
						<stop  offset="0.9772" style="stop-color:#0C6B37"/>
					</radialGradient>
					<path class="st28" d="M189.1,199.2c3.4,0.5,6.8,0.9,10.2,1.3c0.4,0,1.1-0.4,1.3-0.8c0.5-1.3,1.5-1.6,2.8-1.5
						c1.5,0.1,2.9,0.3,4.4,0.6c2.8,0.5,3.3,1.2,3,4c0,0.2-0.1,0.4-0.1,0.6c-0.7,5.3-1.5,10.6-2.2,15.9c-0.3,2.5-0.6,2.8-3.2,2.7
						c-1,0-1.9-0.2-2.9-0.3c-5.4-0.6-10.8-1.3-16.2-1.8c-2.7-0.3-3.1-0.5-3.6-3.1c-0.9-4.6-1.8-9.1-2.8-13.7c-0.2-1,0.2-1.3,1.2-1.2
						c1.1,0.1,2.3,0.2,3.5,0.3C185.6,198.6,185.6,198.6,189.1,199.2z M182.5,211.7c0.3,1.8,0.8,3.6,1.2,5.3c0.2,0.9,0.7,1.4,1.6,1.5
						c4.4,0.5,8.7,1,13.1,1.5c1.9,0.2,3.7,0.6,5.5,0.8c0.9,0.1,1.9,0.1,3.1,0.1c-0.1-0.8-0.1-1.4-0.2-2c-0.9-4-1.8-8-2.6-12
						c-0.2-1.1-0.8-1.7-1.9-1.8c-5.8-0.6-11.5-1.2-17.3-1.9c-1.2-0.1-2.4-0.3-3.5-0.4C181.7,205.9,182,208.8,182.5,211.7z
						 M208,208.1c-1.4-2.4-2.4-5-3.5-7.5c-0.7-1.6-1.3-1.8-2.6-0.9c2.1,4.1,4.2,8.3,6.4,12.6C208.8,210.7,208.8,209.5,208,208.1z
						 M208.9,208.3c0.4-1.5,1-2.8,0-4.2c-0.6-0.8-1-1.9-1.3-2.8c-0.4-1.3-1.2-1.9-2.9-1.8C206.1,202.5,207.4,205.3,208.9,208.3z
						 M205.8,209.4c0.4,2.4,0.4,4.8,2.1,7.2C208.8,213.4,206.5,211.6,205.8,209.4z M201.8,200.9c-0.5,0.3-1,0.6-1.5,0.9
						c0.5,1.3,1,2.6,3.2,2.4C202.8,203,202.3,201.9,201.8,200.9z M209.4,203.6c1.2-1.8,0.6-3.4-1.7-3.8
						C208.3,201.2,208.8,202.4,209.4,203.6z M197.4,201.5c0.7,2.2,1,2.4,3.1,2.3C199.7,202.4,199.3,201,197.4,201.5z M192,200.8
						c0.7,2.1,1.1,2.4,2.9,2.2C194.1,201.8,193.7,200.4,192,200.8z M191.8,202.8c-0.5-2-1-2.5-2.8-2.4
						C189.8,201.5,189.9,203.1,191.8,202.8z M189.1,202.5c-0.5-2-1.1-2.5-2.5-2.2C187.2,201.3,187.3,202.8,189.1,202.5z
						 M194.8,201.3c0.4,1.2,0.8,2.3,2.8,2.2C196.7,202.5,196.9,200.6,194.8,201.3z"/>
					<g>
						<radialGradient id="SVGID_31_" cx="365.1191" cy="20.469" r="7.4612" gradientUnits="userSpaceOnUse">
							<stop  offset="0.4143" style="stop-color:#178943"/>
							<stop  offset="0.9772" style="stop-color:#0C6B37"/>
						</radialGradient>
						<path class="st29" d="M373.7,20c1.9,1.3,1.9,1.7,0.4,3.2c-0.4,0.4-0.7,0.5-1.3,0c-4.4-3.9-10.5-4.1-14.9-0.4
							c-0.9,0.7-1.4,0.5-2-0.2c-1.1-1.1-1.1-1.3,0.1-2.3c2.6-2.2,5.7-3,8.7-3.1C367.7,17.3,371.2,18.4,373.7,20z M358.5,19.6
							c-0.5,0.4-1,0.7-1.3,1.1c-0.1,0.2,0.3,1,0.4,1c0.5-0.1,1-0.4,1.7-0.6C359.1,20.5,358.9,20.1,358.5,19.6z M359.3,19.6
							c-0.1,0.3,0.4,1,0.7,1c0.4,0,1-0.3,1.1-0.7c0.1-0.3-0.3-0.8-0.6-1.4C359.9,19,359.4,19.2,359.3,19.6z M369.3,20.3
							c0.3-1.4-0.2-2-1.7-1.9C367.6,19.5,368.1,20.2,369.3,20.3z M369.8,19c0.1,1.6,0.3,2,1.9,2.5C371,19.1,371,19.1,369.8,19z
							 M361.3,19c0.2,0.3,0.4,0.7,0.6,1.1c0.4-0.1,0.9-0.2,1.3-0.3c-0.4-1.6-0.6-1.7-2-1C361.2,18.8,361.2,18.9,361.3,19z
							 M365.4,18.1c0.4,1.6,0.4,1.6,1.8,1.6C366.9,18,366.8,17.9,365.4,18.1z M371.7,19.7c0.4,1.3,0.5,2.4,1.8,3.1
							C373.1,21.7,373.3,20.3,371.7,19.7z M365.2,19.5c-0.3-1.6-0.5-1.7-1.9-1.3C363.6,19.7,363.7,19.8,365.2,19.5z M357.5,22.2
							c-0.2-0.4-0.5-0.8-0.8-1.4c-0.3,0.3-0.9,0.6-0.9,0.8c0.1,0.4,0.5,0.8,0.8,1.2C357,22.6,357.2,22.4,357.5,22.2z"/>
						<radialGradient id="SVGID_32_" cx="365.006" cy="23.7434" r="5.6049" gradientUnits="userSpaceOnUse">
							<stop  offset="0.4143" style="stop-color:#178943"/>
							<stop  offset="0.9772" style="stop-color:#0C6B37"/>
						</radialGradient>
						<path class="st30" d="M359,23c2.4-1.5,4.9-2,7.7-1.7c2,0.2,3.8,1,5.3,2.3c0.7,0.6,0.7,1.1,0.1,1.7c-1,1.1-1.3,1.2-2.1,0.6
							c-2.8-2.1-6.4-2.3-9.4-0.4c-1.5,1-1.5,1-2.6-0.5c-0.1-0.2-0.3-0.4-0.5-0.8C358.1,23.7,358.5,23.3,359,23z M370.8,25.6
							c0.3-1.5-0.5-2.7-2.1-3.1C369,24.2,369.6,25.1,370.8,25.6z M366.5,21.9c-0.2,1.5,0.4,2.1,2.2,2.3
							C367.8,21.6,367.8,22.1,366.5,21.9z M366.4,23.6c-0.2-0.6-0.4-1.1-0.6-1.7c-0.5,0-0.9,0-1.4,0
							C364.8,23.7,364.8,23.7,366.4,23.6z M361,24c0,0.1,0.1,0.2,0.2,0.3c0.4-0.1,0.8-0.3,1.2-0.4c-0.4-1.8-0.5-1.8-1.9-0.8
							C360.7,23.4,360.8,23.7,361,24z M359.4,25.3c1.5-0.4,1.5-1.1,0.6-2C358.7,23.6,359,24.4,359.4,25.3z M363,23.7
							c0.4,0,0.8,0,1.2-0.1c-0.1-1.6-0.3-1.9-1.7-1.3C362.7,22.8,362.8,23.2,363,23.7z"/>
						<radialGradient id="SVGID_33_" cx="365.22" cy="27.1862" r="3.6141" gradientUnits="userSpaceOnUse">
							<stop  offset="0.4143" style="stop-color:#178943"/>
							<stop  offset="0.9772" style="stop-color:#0C6B37"/>
						</radialGradient>
						<path class="st31" d="M368.5,28.9c-0.2,0.2-0.8,0.3-1.1,0.1c-1.5-0.9-3-0.9-4.4,0c-0.5,0.3-0.8,0.3-1.2-0.1
							c-0.5-0.5-0.9-1.1-1.3-1.6c1.8-2.7,7.4-2.7,9.4,0.2C369.4,27.9,369,28.5,368.5,28.9z M367.6,28.4c0.1-1.8-0.3-2.3-2-2.4
							C366,27.6,366,27.6,367.6,28.4z M363.4,26.1c0.2,0.5,0.4,1,0.7,1.6c0.4,0,0.8,0,1.3-0.1C365.3,25.8,365.1,25.7,363.4,26.1z
							 M362.9,26.2c-0.3,0.1-0.5,0.3-0.9,0.4c0.2,0.6,0.3,1.1,0.5,1.8C363.7,27.8,363.8,27.5,362.9,26.2z M368.3,28.1
							c0.3-0.2,0.6-0.5,1-0.7c-0.5-0.3-0.9-0.6-1.3-0.9c-0.1,0-0.1,0.1-0.2,0.1C367.9,27.1,368.1,27.5,368.3,28.1z"/>
						<radialGradient id="SVGID_34_" cx="365.1457" cy="31.8587" r="2.6667" gradientUnits="userSpaceOnUse">
							<stop  offset="0.4143" style="stop-color:#178943"/>
							<stop  offset="0.9772" style="stop-color:#0C6B37"/>
						</radialGradient>
						<path class="st32" d="M367.8,31.9c0,1.4-1.1,2.5-2.5,2.6c-1.5,0.1-2.8-1.1-2.9-2.6c-0.1-1.5,0.9-2.6,2.4-2.7
							C366.4,29.2,367.8,30.4,367.8,31.9z M363.6,31.4c0.3,0.6,0.5,1.2,0.8,1.8c0.2,0.6,0.5,0.7,1.2,0.5c-0.4-1.2-0.9-2.4-1.3-3.6
							C363.5,30.4,363.2,30.7,363.6,31.4z M367,32.9c-0.8-1-0.5-2.7-2-3.1c-0.1,0.1-0.2,0.1-0.3,0.2c0.5,1.2,1,2.3,1.5,3.6
							C366.5,33.4,366.7,33.2,367,32.9z"/>
					</g>
					<g>
						<radialGradient id="SVGID_35_" cx="294.0977" cy="37.5226" r="14.2731" gradientUnits="userSpaceOnUse">
							<stop  offset="0.4143" style="stop-color:#178943"/>
							<stop  offset="0.9772" style="stop-color:#0C6B37"/>
						</radialGradient>
						<path class="st33" d="M287.7,27.6c-1.8-1.4-1.8-0.8-0.4-3c0.8-1.3,0.9-1.3,2.1-0.4c0.1,0.1,0.3,0.2,0.4,0.3
							c1.9,0.9,3.2,2.3,3.9,4.3c0.1,0.2,0.4,0.4,0.6,0.6c0.3,0.3,0.8,0.6,0.9,1c0.1,0.8,0.6,0.9,1.3,0.8c2.3-0.4,4.6-0.7,6.9-1.1
							c1.9-0.3,2.8,0.3,3.1,2.2c0.3,1.8,0.7,3.6,1.1,5.4c0.4,2.3,0.8,4.6,1.2,6.9c0.2,1.6-0.6,2.8-2.1,3.1c-2.6,0.5-5.2,1-7.7,1.4
							c-3.1,0.5-6.1,1.1-9.2,1.6c-1.9,0.3-3.9,0.6-5.8,0.8c-1.1,0.1-1.8-0.6-2-1.7c-0.5-3.2-1.1-6.5-1.6-9.7c-0.2-1.3-0.5-2.7-0.6-4
							c-0.1-1.3,0.6-2.3,1.8-2.5c1.3-0.3,2.5-0.5,3.8-0.8c1.2-0.2,2.5-0.4,3.8-0.6c-0.1-1-0.2-1.8,1-2.3
							C289.1,29,288.5,28.2,287.7,27.6z M307.1,40.2c-0.5-2.7-1.1-5.5-1.6-8.2c-0.2-1-0.6-1.3-1.5-1.2c-1.4,0.1-2.7,0.4-4.1,0.7
							c-2.9,0.5-5.8,0.9-8.8,1.4c-3,0.5-6,0.9-8.9,1.4c-1.6,0.3-1.9,0.9-1.6,2.6c0.5,2.7,0.9,5.4,1.3,8.2c0.2,1.4,0.4,2.9,0.7,4.3
							c0.2,1.1,0.7,1.5,1.8,1.3c2.9-0.5,5.8-0.9,8.7-1.4c4-0.7,8-1.4,12.1-2.1c0.3,0,0.5-0.1,0.8-0.2c1.6-0.3,1.8-0.6,1.9-2.6
							C307.6,43.1,307.3,41.7,307.1,40.2z M288.3,25c-0.7,0.6-0.6,0.6-0.2,1.1c0.8,1,1.7,2.1,2.5,3.2c0.5,0.6,0.9,0.3,1.4,0.1
							C290.7,27.8,289.5,26.4,288.3,25z M289.5,25.5c1.1,1.2,2.1,2.4,3.2,3.6C292.2,27.4,291.2,26.2,289.5,25.5z M293.4,31.5
							c-0.2-1.2-0.8-1.4-2-0.9C292.2,31.8,292.2,31.7,293.4,31.5z M290.9,30.8c-0.1-0.1-0.3-0.1-0.5-0.1c0,0.1-0.1,0.3,0,0.4
							c0.3,0.3,0.4,0.9,1.2,0.6C291.3,31.4,291.1,31.1,290.9,30.8z"/>
						<radialGradient id="SVGID_36_" cx="294.6315" cy="45.5838" r="5.3913" gradientUnits="userSpaceOnUse">
							<stop  offset="0.4143" style="stop-color:#178943"/>
							<stop  offset="0.9772" style="stop-color:#0C6B37"/>
						</radialGradient>
						<path class="st34" d="M301.5,43.8c0.1,0.6,0,1.2,0.1,1.7c0.1,0.8-0.3,1-1,1.1c-1.3,0.2-2.7,0.4-4,0.6
							c-2.4,0.4-4.9,0.8-7.3,1.2c-0.8,0.1-1.4-0.3-1.5-1.1c-0.1-0.6-0.1-1.1-0.2-1.7c0-0.6,0.2-1,0.7-1.1c0.8-0.2,1.5-0.3,2.3-0.4
							c1.7-0.2,3.4-0.4,5.2-0.7c1.4-0.2,2.9-0.5,4.3-0.8C301,42.6,301.4,43.1,301.5,43.8z M293.8,44.6c0.7,1.5,1.6,2,3,1.6
							C295.4,44.5,295,44.3,293.8,44.6z M297.7,46c0.3,0.2,0.8,0,1.2,0c-0.9-1.4-2-2-3.2-1.7C296.4,44.9,297,45.6,297.7,46z
							 M299.6,45.6c0.3,0.2,0.7,0.1,1.2,0.2c-0.8-1.5-1.9-2.1-2.9-1.7C298.5,44.5,299,45.1,299.6,45.6z M291,47.1
							c-0.7-1.4-1.6-2-2.7-1.5C289.4,46.1,289.6,47.6,291,47.1z M290,45.2c0.7,0.7,1.3,1.3,1.9,1.8c0.2,0.1,0.6-0.1,0.9-0.1
							c0-0.1,0-0.2,0-0.2C292,46.2,291.7,44.7,290,45.2z M294.4,46.5c-0.9-1.6-1.6-2-2.4-1.6C294.1,47.1,293.5,46.8,294.4,46.5z"/>
						<radialGradient id="SVGID_37_" cx="304.2593" cy="43.9217" r="2.2465" gradientUnits="userSpaceOnUse">
							<stop  offset="0.4143" style="stop-color:#178943"/>
							<stop  offset="0.9772" style="stop-color:#0C6B37"/>
						</radialGradient>
						<path class="st35" d="M306.2,42.7c0.1,0.7,0.2,1.5,0.3,2.2c0,0.5-0.2,0.8-0.7,0.9c-0.6,0.1-1.1,0.3-1.7,0.4
							c-1,0.2-1.6-0.2-1.7-1.2c-0.1-0.7-0.2-1.3-0.3-2c-0.1-0.5,0.1-0.8,0.6-0.9c0.8-0.1,1.5-0.3,2.3-0.4
							C305.8,41.5,306.1,41.9,306.2,42.7z M304,42.8c-0.2-0.2-0.7,0.1-1.1,0.3c0.9,0.7,1.4,1.9,2.6,2c0.1-0.1,0.2-0.3,0.3-0.4
							C305.2,44,304.6,43.4,304,42.8z"/>
						<radialGradient id="SVGID_38_" cx="303.3923" cy="39.0654" r="2.2019" gradientUnits="userSpaceOnUse">
							<stop  offset="0.4143" style="stop-color:#178943"/>
							<stop  offset="0.9772" style="stop-color:#0C6B37"/>
						</radialGradient>
						<path class="st36" d="M301.6,40.5c-0.2-0.8-0.3-1.7-0.4-2.5c0-0.2,0.2-0.7,0.5-0.7c0.7-0.2,1.5-0.3,2.3-0.4
							c0.7-0.1,1.2,0.2,1.3,0.9c0.1,0.6,0.3,1.3,0.3,1.9c0,0.3-0.2,0.9-0.5,1c-0.8,0.3-1.7,0.4-2.5,0.6
							C302,41.3,301.7,41,301.6,40.5z M303.5,38.2c-0.3-0.2-0.8-0.2-1.3-0.3c0.7,1.4,1.9,2.3,2.7,1.9
							C304.4,39.2,304,38.7,303.5,38.2z"/>
						<radialGradient id="SVGID_39_" cx="298.5394" cy="39.9027" r="2.1697" gradientUnits="userSpaceOnUse">
							<stop  offset="0.4143" style="stop-color:#178943"/>
							<stop  offset="0.9772" style="stop-color:#0C6B37"/>
						</radialGradient>
						<path class="st37" d="M297,38.2c0.9-0.2,1.8-0.2,2.7-0.4c0.4-0.1,0.6,0.1,0.7,0.6c0.1,0.8,0.2,1.5,0.4,2.3
							c0.1,0.5-0.1,0.8-0.6,0.9c-0.8,0.2-1.5,0.3-2.3,0.4c-0.3,0-0.9-0.3-1-0.6c-0.3-0.7-0.4-1.5-0.6-2.5
							C296.5,38.7,296.7,38.2,297,38.2z M297.6,39.2c0.6,0.6,1,1.1,1.6,1.6c0.1,0.1,0.3,0,0.5,0.1c0-0.2,0.1-0.5,0-0.6
							c-0.4-0.5-0.8-1-1.2-1.4C298.2,38.9,298,39,297.6,39.2z"/>
						<radialGradient id="SVGID_40_" cx="293.0417" cy="35.9759" r="2.1028" gradientUnits="userSpaceOnUse">
							<stop  offset="0.4143" style="stop-color:#178943"/>
							<stop  offset="0.9772" style="stop-color:#0C6B37"/>
						</radialGradient>
						<path class="st38" d="M294.9,34.6c0.2,0.7,0.3,1.4,0.3,2.1c0,0.3-0.3,0.8-0.5,0.8c-0.7,0.3-1.5,0.4-2.2,0.5
							c-0.6,0.1-1-0.1-1.1-0.8c-0.1-0.6-0.3-1.2-0.4-1.9c-0.2-0.8,0.1-1.2,1-1.3c0.6-0.1,1.3-0.1,2.2-0.2
							C294.3,34,294.8,34.2,294.9,34.6z M291.9,35.1c0.3,1.2,1.4,1.9,2.6,1.5C293.4,36.2,293.3,34.7,291.9,35.1z"/>
						<radialGradient id="SVGID_41_" cx="283.4543" cy="37.6441" r="2.1082" gradientUnits="userSpaceOnUse">
							<stop  offset="0.4143" style="stop-color:#178943"/>
							<stop  offset="0.9772" style="stop-color:#0C6B37"/>
						</radialGradient>
						<path class="st39" d="M282.4,35.8c0.6-0.1,1.2-0.2,1.8-0.3c0.6-0.1,1,0.1,1.1,0.8c0,0.5,0.1,1,0.2,1.6c0.2,0.9,0,1.3-0.9,1.5
							c-2.5,0.7-3.1,0.3-3.2-2.4C281.2,36.2,281.6,35.9,282.4,35.8z M282.4,36.8c0.2,1,1.5,1.9,2.5,1.6
							C283.7,36.9,283.2,36.6,282.4,36.8z"/>
						<radialGradient id="SVGID_42_" cx="293.8299" cy="40.6471" r="2.011" gradientUnits="userSpaceOnUse">
							<stop  offset="0.4143" style="stop-color:#178943"/>
							<stop  offset="0.9772" style="stop-color:#0C6B37"/>
						</radialGradient>
						<path class="st40" d="M294.6,42.6c-0.5,0.1-1.1,0.1-1.7,0.1c-0.5,0-0.8-0.3-0.9-0.8c-0.1-0.7-0.3-1.4-0.3-2.1
							c0-0.3,0.2-0.7,0.4-0.8c0.8-0.2,1.6-0.3,2.3-0.4c0.9-0.1,1.2,0.4,1.3,1.3c0,0.2,0,0.5,0,0.7C295.9,42.1,295.7,42.4,294.6,42.6
							z M294.3,41.4c0.2,0.1,0.5,0.1,0.7,0.1c0-0.2,0-0.5-0.1-0.6c-0.3-0.4-0.6-0.8-0.9-1c-0.3-0.2-0.7-0.1-1-0.1
							c0,0.1-0.1,0.2-0.1,0.3C293.3,40.5,293.8,41,294.3,41.4z"/>
						<radialGradient id="SVGID_43_" cx="284.2941" cy="42.2126" r="2.0445" gradientUnits="userSpaceOnUse">
							<stop  offset="0.4143" style="stop-color:#178943"/>
							<stop  offset="0.9772" style="stop-color:#0C6B37"/>
						</radialGradient>
						<path class="st41" d="M282.6,43.6c-0.1-0.6-0.3-1.2-0.3-1.8c0-0.3,0-0.6,0.2-0.8c0.3-0.5,2.7-1,3.2-0.7
							c0.1,0.1,0.3,0.2,0.3,0.3c0.1,1,0.5,2,0.3,3c-0.2,0.9-1.3,0.6-2.1,0.7c-0.1,0-0.1,0-0.2,0C282.9,44.3,282.7,44.2,282.6,43.6z
							 M284.3,41.6c-0.4-0.4-0.8-0.6-1.1,0c0.6,1.2,1.6,1.8,2.4,1.4C285.1,42.5,284.7,42.1,284.3,41.6z"/>
						<radialGradient id="SVGID_44_" cx="288.2731" cy="36.7793" r="2.1318" gradientUnits="userSpaceOnUse">
							<stop  offset="0.4143" style="stop-color:#178943"/>
							<stop  offset="0.9772" style="stop-color:#0C6B37"/>
						</radialGradient>
						<path class="st42" d="M286.9,35.1c0.5-0.2,1.1-0.2,1.7-0.4c1.1-0.2,1.4-0.1,1.6,1c0.1,0.5,0.1,1,0.2,1.6
							c0.1,0.7-0.3,1-0.9,1.2c-0.6,0.2-1.3,0.3-1.9,0.4c-0.6,0.1-1-0.1-1.1-0.7c-0.1-0.7-0.2-1.4-0.3-2.4
							C286.3,35.7,286.6,35.3,286.9,35.1z M287.4,36c0.8,0.5,1,1.5,2.1,1.6C289.2,36.1,288.3,35.5,287.4,36z M287.1,36.6
							c0.1,0.6,0.1,1,0.2,1.5c0.3-0.2,0.6-0.3,0.8-0.4C287.8,37.4,287.6,37.1,287.1,36.6z"/>
						<radialGradient id="SVGID_45_" cx="285.2057" cy="47.1735" r="2.0909" gradientUnits="userSpaceOnUse">
							<stop  offset="0.4143" style="stop-color:#178943"/>
							<stop  offset="0.9772" style="stop-color:#0C6B37"/>
						</radialGradient>
						<path class="st43" d="M286.6,49c-2.4,0.8-3.4,0.1-3.4-2.4c0-0.2,0.1-0.5,0.2-0.7c0.1-0.2,0.2-0.3,0.4-0.4
							c0.6-0.2,1.2-0.3,1.8-0.4c0.9-0.1,1.5,0.3,1.6,1.2c0.1,0.5,0.1,0.9,0.2,1.4C287.4,48.3,287.1,48.8,286.6,49z M285.8,48.1
							c0.1,0.1,0.3-0.1,0.5-0.2c-0.4-0.6-0.8-1.2-1.3-1.7c-0.1-0.1-0.7,0.1-1.2,0.2C284.6,47,285.2,47.6,285.8,48.1z"/>
						<radialGradient id="SVGID_46_" cx="297.752" cy="35.1075" r="2.0895" gradientUnits="userSpaceOnUse">
							<stop  offset="0.4143" style="stop-color:#178943"/>
							<stop  offset="0.9772" style="stop-color:#0C6B37"/>
						</radialGradient>
						<path class="st44" d="M299.9,35.9c0.1,0.4-0.1,0.8-0.6,0.8c-0.8,0.2-1.7,0.4-2.5,0.4c-0.3,0-0.7-0.4-0.8-0.7
							c-0.2-0.6-0.3-1.4-0.3-2c0-0.3,0.2-0.9,0.5-0.9c1-0.2,2.1-0.3,3.3-0.5C299.5,34.1,299.7,35,299.9,35.9z M298.5,36
							c0.1,0.1,0.3,0.1,0.4,0c0.1-0.1,0.2-0.3,0.1-0.4c-0.2-0.7-1.3-1.5-2.3-1.3C297.4,34.9,297.9,35.5,298.5,36z M296.8,36.4
							c0.3-0.1,0.6-0.2,1-0.2c-0.4-0.4-0.7-0.7-1.1-1c-0.1,0-0.1,0-0.2,0.1C296.7,35.6,296.7,35.9,296.8,36.4z"/>
						<radialGradient id="SVGID_47_" cx="288.9881" cy="41.443" r="2.1263" gradientUnits="userSpaceOnUse">
							<stop  offset="0.4143" style="stop-color:#178943"/>
							<stop  offset="0.9772" style="stop-color:#0C6B37"/>
						</radialGradient>
						<path class="st45" d="M289.1,43.6c-1.8,0.1-1.9,0.1-2.2-2.9c-0.1-0.8,1.2-1.4,2.8-1.4c0.9,0,1.4,0.9,1.4,2.8
							C291.1,43,290.5,43.5,289.1,43.6z M289.6,42.4c0.1,0.1,0.4,0,0.7,0c0-0.2,0.1-0.5-0.1-0.7c-0.3-0.4-0.5-0.9-0.9-1.1
							c-0.4-0.2-0.9-0.1-1.3-0.2c0,0.1-0.1,0.2-0.1,0.3C288.4,41.3,289,41.9,289.6,42.4z M289,42.7c-0.4-0.4-0.7-0.7-1.1-1.2
							C287.8,42.7,288,42.9,289,42.7z"/>
						<radialGradient id="SVGID_48_" cx="302.56" cy="34.1396" r="2.0776" gradientUnits="userSpaceOnUse">
							<stop  offset="0.4143" style="stop-color:#178943"/>
							<stop  offset="0.9772" style="stop-color:#0C6B37"/>
						</radialGradient>
						<path class="st46" d="M304.4,32.8c0.2,0.7,0.3,1.5,0.3,2.2c0,0.3-0.4,0.7-0.7,0.9c-0.6,0.2-1.2,0.3-1.9,0.3
							c-1,0.1-1.1-0.1-1.2-1.1c0-0.4-0.1-0.9-0.3-1.3c-0.3-0.6,0-1,0.5-1.2c0.8-0.2,1.5-0.4,2.5-0.6
							C303.9,32.3,304.3,32.5,304.4,32.8z M302.9,34.9c0.2,0.2,0.6,0.2,0.8,0.2c-0.1-0.2-0.1-0.5-0.2-0.7c-0.1-0.3-0.4-0.5-0.5-0.7
							c-0.3-0.7-0.8-0.6-1.3-0.2C302.1,34,302.5,34.5,302.9,34.9z"/>
					</g>
					<radialGradient id="SVGID_49_" cx="217.67" cy="96.039" r="14.4511" gradientUnits="userSpaceOnUse">
						<stop  offset="0.4143" style="stop-color:#178943"/>
						<stop  offset="0.9772" style="stop-color:#0C6B37"/>
					</radialGradient>
					<path class="st47" d="M204.2,102.2c0.3-4.7,0.4-9.4,0-14.1c0-0.5-0.1-0.9-0.1-1.4c0-0.7,0.4-1.1,1-1.3c0.5-0.1,0.9-0.2,1.4-0.2
						c4.7-0.1,9.5-0.2,14.2-0.1c3.5,0,6.9,0.2,10.4,0.3c0.9,0,1,0.2,1,1.1c0,3.5-0.1,7-0.1,10.5c0,1.8,0,3.6-0.1,5.4
						c0,0.2-0.1,0.5,0.3,0.5c0.6,0,1.3,0.1,1.9,0c0.5-0.1,0.7,0.1,0.7,0.6c0,0.9,0.1,1.8,0.2,2.7c0,0.6-0.1,0.8-0.7,0.7
						c-5.5-0.1-11-0.3-16.6-0.3c-5.3,0-10.6,0-15.9,0c-1.1,0-1.5-0.4-1.4-1.3c0-0.8,0.1-1.5,0.2-2.3c0-0.4,0.3-0.6,0.8-0.6
						c0.9,0,1.9,0,2.9,0C204.2,102.3,204.2,102.3,204.2,102.2z M234.1,103.8c-0.9,0-1.8,0-2.7,0c-2.4,0-4.7,0-7.1,0
						c-0.3,0-0.7,0.1-0.7-0.6c-0.2,0.2-0.3,0.4-0.5,0.4c-0.2,0-0.5,0-0.7,0c-0.1,0-0.2-0.3-0.1-0.3c0.2-0.1,0.4-0.3,0.6-0.3
						c2.5,0,5,0,7.4,0c1,0,0.8,0.1,0.8-0.8c0-5,0-10.1,0-15.1c0-0.2,0-0.3,0-0.6c-0.3,0-0.5,0-0.7,0c-7.6-0.1-15.2-0.1-22.8-0.2
						c-0.5,0-1,0-1.5,0c-0.9,0.1-1.1,0.3-1.1,1.2c0.1,3.1,0.3,6.3,0.3,9.4c0,1.9-0.1,3.7-0.2,5.7c4.9,0.1,9.9,0.2,14.9,0.4
						c0,0.1,0,0.3,0,0.5c0.3-0.2,0.5-0.4,0.7-0.5c0,0,0.1,0.1,0.1,0.1c-0.2,0.4-0.5,0.7-1.1,0.7c-5.9-0.2-11.9-0.3-17.8-0.5
						c-0.5,0-0.7,0.1-0.7,0.7c0,0.3-0.1,0.7-0.1,1c0,0.7,0.2,0.9,0.9,0.9c4.3-0.1,8.6-0.2,13-0.1c6.1,0.1,12.3,0.3,18.4,0.4
						c0.2,0,0.4,0,0.7,0C234.2,105.3,234.1,104.5,234.1,103.8z"/>
					<radialGradient id="SVGID_50_" cx="218.527" cy="94.2789" r="9.8712" gradientUnits="userSpaceOnUse">
						<stop  offset="0.4143" style="stop-color:#178943"/>
						<stop  offset="0.9772" style="stop-color:#0C6B37"/>
					</radialGradient>
					<path class="st48" d="M212.1,89.8c-0.3-0.6-0.6-1.1-1-1.7c-0.1-0.1-0.2-0.2-0.3-0.2c-0.5,0-1.1,0-1.8,0c0.3,0.5,0.5,1,0.8,1.4
						c1.6,2.8,3.1,5.5,4.7,8.3c0.3,0.5,0.7,0.9,0.9,1.4c0.2,0.4,0.3,0.9,0.5,1.5c0.6,0,1.3,0,2.1,0c-0.3,0.6-0.7,0.9-1.5,0.9
						c-2.9-0.1-5.8-0.4-8.8,0c-0.8,0.1-1.1-0.3-1.1-1.1c0-3.7,0-7.4,0-11.1c0-0.5,0-0.9,0-1.4c0-0.3,0.1-0.5,0.5-0.6
						c1.4-0.1,2.8-0.3,4.3-0.3c4.1,0,8.3,0.1,12.4,0.1c1.9,0,3.8,0.1,5.7,0.2c0.8,0,0.9,0.1,0.9,0.9c0,3.8-0.1,7.7-0.1,11.5
						c0,1.4-0.4,1.9-1.8,1.9c-2.2,0-4.3,0-6.5-0.1c-0.6,0-1.3,0.2-1.8-0.4c-0.1-0.1-0.4,0.1-0.6,0.1c-0.2,0.1-0.3,0.1-0.5,0.3
						c0.4-1.4,1.5-0.9,2.4-1c-0.2-0.3-0.4-0.6-0.5-0.8c-1.5-2.6-3-5.2-4.6-7.7c-0.6-1.1-1.3-2.2-2-3.3c-0.1-0.2,0-0.5,0-0.7
						c0.2,0.1,0.4,0.2,0.6,0.4c0.2,0.2,0.3,0.5,0.5,0.8c2.1,3.4,4.2,6.8,6.3,10.3c0.2,1.2,1.1,1.1,2,1.1c0,0,0.1,0,0.2-0.1
						c-0.2-0.4-0.3-0.9-0.5-1.2c-0.5-0.8-1-1.4-1.5-2.2c-1.6-2.6-3.2-5.1-4.6-7.8c-0.6-1.2-1.4-1.7-2.7-1.5c-0.9,0.1-1.9,0-3,0
						c0.4,0.7,0.7,1.2,1,1.7c1.9,3.3,3.8,6.6,5.6,9.8c0.4,0.7,0.4,0.7-0.3,1.2C216.1,96.9,214.1,93.4,212.1,89.8z M219.1,91.1
						c1.7,2.8,3.5,5.6,5.2,8.4c0.2,0.3,0.3,0.7,0.4,1.1c1.1,0,2.4,0,3.7,0c-0.4-0.5-0.8-1-1.2-1.5c-1.6-2.1-3.1-4.3-4.6-6.4
						c-1.1-1.5-2.1-3-3.1-4.6c-0.1-0.1-0.3-0.2-0.4-0.2c-0.6,0-1.2,0-1.9,0C217.9,89,218.4,90.1,219.1,91.1z M215.3,100.4
						c-0.4-0.8-0.8-1.6-1.2-2.3c-1.1-1.9-2.2-3.8-3.2-5.7c-0.8-1.4-1.6-2.9-2.4-4.4c-0.1-0.1-0.4-0.1-0.6-0.1
						c-0.1,0-0.3,0.2-0.3,0.4c0,0.8-0.1,1.6,0.1,2.4c0.1,0.5,0.4,0.9,0.6,1.3c1.2,2.2,2.5,4.4,3.7,6.7c0.3,0.5,0.4,1,0.7,1.7
						C213.3,100.4,214.2,100.4,215.3,100.4z M229.2,100.5c0.1,0,0.1-0.1,0.2-0.1c0-0.9,0-1.8,0-2.7c0-0.1-0.1-0.2-0.1-0.2
						c-2.4-3.1-4.8-6.2-7.2-9.3c-0.1-0.1-0.2-0.2-0.3-0.2c-0.5,0-1,0-1.5,0c-0.1,0.1-0.1,0.1-0.2,0.2
						C223.1,92.3,226.1,96.4,229.2,100.5z M229.2,96.3c0.1,0,0.1,0,0.2,0c-0.2-1,0.4-2.1-0.6-3.1c-1.4-1.5-2.5-3.3-3.8-4.9
						c-0.1-0.1-0.2-0.2-0.3-0.2c-0.7,0-1.4,0-2.2,0C224.9,90.9,227,93.6,229.2,96.3z M207.6,92.7c0,1.6,0,3.1,0.1,4.7
						c0,0.1,0,0.2,0,0.2c0.6,0.8,1.3,1.6,1.9,2.4c0.1,0.2,0.4,0.3,0.6,0.3c0.5,0,1.1,0,1.6,0c-1.4-2.7-2.8-5.3-4.2-7.9
						C207.6,92.6,207.6,92.7,207.6,92.7z M225.7,88.1c1.2,1.6,2.4,3.1,3.6,4.7c0.3-1.3,0.1-2.3-0.8-3.3c-0.4-0.4-0.8-0.9-1.2-1.4
						C226.9,88.1,226.3,88.1,225.7,88.1z M207.6,99.9c0,0.4,0.2,0.6,0.6,0.5c0.2,0,0.4,0,0.8-0.1c-0.4-0.6-0.8-1.2-1.2-1.8
						c0,0-0.1,0-0.1,0C207.6,99,207.6,99.5,207.6,99.9z M229.4,89.6c0-0.5,0-1,0-1.4c-0.4,0-0.8,0-1.3,0
						C228.5,88.6,228.9,89.1,229.4,89.6z"/>
				</g>
			</g>
		</g>
	</g>
</g>
</svg>
