<?xml version="1.0" encoding="utf-8"?>
<!-- Generator: Adobe Illustrator 21.1.0, SVG Export Plug-In . SVG Version: 6.00 Build 0)  -->
<svg version="1.1" id="Capa_1" xmlns="http://www.w3.org/2000/svg" xmlns:xlink="http://www.w3.org/1999/xlink" x="0px" y="0px"
	 viewBox="0 0 319 393" style="enable-background:new 0 0 319 393;" xml:space="preserve">
<style type="text/css">
	.st0{clip-path:url(#SVGID_2_);}
	.st1{fill:none;stroke:#FFFFFF;stroke-width:0.25;stroke-miterlimit:10;}
	.st2{fill:none;stroke:#FEF8FB;stroke-width:0.5;stroke-linecap:round;stroke-miterlimit:10;stroke-dasharray:6.4965,6.4965;}
	.st3{opacity:0.5;}
	.st4{fill:#FFFFFF;}
	.st5{opacity:0.12;}
	.st6{fill:none;stroke:#FFFFFF;stroke-width:1.0425;stroke-linecap:round;stroke-linejoin:round;}
</style>
<g>
	<defs>
		<polygon id="SVGID_1_" points="319,393 0,392.7 0,0 319,0.3 		"/>
	</defs>
	<clipPath id="SVGID_2_">
		<use xlink:href="#SVGID_1_"  style="overflow:visible;"/>
	</clipPath>
	<g class="st0">
		<g>
			<path class="st1" d="M231.6,78.5c-28,0-50.8-22.8-50.8-50.8c0-28,22.8-50.8,50.8-50.8c2.4,0,4.3,1.9,4.3,4.3
				c0,2.4-1.9,4.3-4.3,4.3c-23.3,0-42.2,18.9-42.2,42.2c0,23.3,18.9,42.2,42.2,42.2s42.2-18.9,42.2-42.2c0-2.4,1.9-4.3,4.3-4.3
				c2.4,0,4.3,1.9,4.3,4.3C282.4,55.7,259.6,78.5,231.6,78.5z"/>
		</g>
		<g>
			<circle class="st2" cx="143.1" cy="49.7" r="91"/>
		</g>
		<g class="st3">
			<g>
				<circle class="st4" cx="76.3" cy="50.2" r="1.7"/>
				<circle class="st4" cx="82" cy="50.2" r="1.7"/>
				<circle class="st4" cx="87.6" cy="50.2" r="1.7"/>
				<circle class="st4" cx="93.2" cy="50.2" r="1.7"/>
				<circle class="st4" cx="98.9" cy="50.2" r="1.7"/>
				<circle class="st4" cx="104.5" cy="50.2" r="1.7"/>
				<circle class="st4" cx="110.1" cy="50.2" r="1.7"/>
				<circle class="st4" cx="115.8" cy="50.2" r="1.7"/>
				<circle class="st4" cx="121.4" cy="50.2" r="1.7"/>
				<circle class="st4" cx="127.1" cy="50.2" r="1.7"/>
				<circle class="st4" cx="132.7" cy="50.2" r="1.7"/>
				<circle class="st4" cx="138.3" cy="50.2" r="1.7"/>
				<circle class="st4" cx="144" cy="50.2" r="1.7"/>
				<circle class="st4" cx="149.6" cy="50.2" r="1.7"/>
				<circle class="st4" cx="155.2" cy="50.2" r="1.7"/>
				<circle class="st4" cx="160.9" cy="50.2" r="1.7"/>
				<circle class="st4" cx="166.5" cy="50.2" r="1.7"/>
				<circle class="st4" cx="172.1" cy="50.2" r="1.7"/>
				<circle class="st4" cx="177.8" cy="50.2" r="1.7"/>
				<circle class="st4" cx="183.4" cy="50.2" r="1.7"/>
				<circle class="st4" cx="189.1" cy="50.2" r="1.7"/>
				<circle class="st4" cx="194.7" cy="50.2" r="1.7"/>
				<circle class="st4" cx="200.3" cy="50.2" r="1.7"/>
				<circle class="st4" cx="206" cy="50.2" r="1.7"/>
				<circle class="st4" cx="211.6" cy="50.2" r="1.7"/>
			</g>
			<g>
				<g>
					<circle class="st4" cx="82" cy="56.7" r="1.7"/>
					<circle class="st4" cx="87.6" cy="56.7" r="1.7"/>
					<circle class="st4" cx="93.2" cy="56.7" r="1.7"/>
					<circle class="st4" cx="98.9" cy="56.7" r="1.7"/>
					<circle class="st4" cx="104.5" cy="56.7" r="1.7"/>
					<circle class="st4" cx="110.1" cy="56.7" r="1.7"/>
					<circle class="st4" cx="115.8" cy="56.7" r="1.7"/>
					<circle class="st4" cx="121.4" cy="56.7" r="1.7"/>
					<circle class="st4" cx="127.1" cy="56.7" r="1.7"/>
					<circle class="st4" cx="132.7" cy="56.7" r="1.7"/>
					<circle class="st4" cx="138.3" cy="56.7" r="1.7"/>
					<circle class="st4" cx="144" cy="56.7" r="1.7"/>
					<circle class="st4" cx="149.6" cy="56.7" r="1.7"/>
					<circle class="st4" cx="155.2" cy="56.7" r="1.7"/>
					<circle class="st4" cx="160.9" cy="56.7" r="1.7"/>
					<circle class="st4" cx="166.5" cy="56.7" r="1.7"/>
					<circle class="st4" cx="172.1" cy="56.7" r="1.7"/>
					<circle class="st4" cx="177.8" cy="56.7" r="1.7"/>
					<circle class="st4" cx="183.4" cy="56.7" r="1.7"/>
					<circle class="st4" cx="189.1" cy="56.7" r="1.7"/>
					<circle class="st4" cx="194.7" cy="56.7" r="1.7"/>
					<circle class="st4" cx="200.3" cy="56.7" r="1.7"/>
					<circle class="st4" cx="206" cy="56.7" r="1.7"/>
				</g>
				<g>
					<circle class="st4" cx="82" cy="63.2" r="1.7"/>
					<circle class="st4" cx="87.6" cy="63.2" r="1.7"/>
					<circle class="st4" cx="93.2" cy="63.2" r="1.7"/>
					<circle class="st4" cx="98.9" cy="63.2" r="1.7"/>
					<circle class="st4" cx="104.5" cy="63.2" r="1.7"/>
					<circle class="st4" cx="110.1" cy="63.2" r="1.7"/>
					<circle class="st4" cx="115.8" cy="63.2" r="1.7"/>
					<circle class="st4" cx="121.4" cy="63.2" r="1.7"/>
					<circle class="st4" cx="127.1" cy="63.2" r="1.7"/>
					<circle class="st4" cx="132.7" cy="63.2" r="1.7"/>
					<circle class="st4" cx="138.3" cy="63.2" r="1.7"/>
					<circle class="st4" cx="144" cy="63.2" r="1.7"/>
					<circle class="st4" cx="149.6" cy="63.2" r="1.7"/>
					<circle class="st4" cx="155.2" cy="63.2" r="1.7"/>
					<circle class="st4" cx="160.9" cy="63.2" r="1.7"/>
					<circle class="st4" cx="166.5" cy="63.2" r="1.7"/>
					<circle class="st4" cx="172.1" cy="63.2" r="1.7"/>
					<circle class="st4" cx="177.8" cy="63.2" r="1.7"/>
					<circle class="st4" cx="183.4" cy="63.2" r="1.7"/>
					<circle class="st4" cx="189.1" cy="63.2" r="1.7"/>
					<circle class="st4" cx="194.7" cy="63.2" r="1.7"/>
					<circle class="st4" cx="200.3" cy="63.2" r="1.7"/>
					<circle class="st4" cx="206" cy="63.2" r="1.7"/>
				</g>
				<g>
					<circle class="st4" cx="82" cy="69.7" r="1.7"/>
					<circle class="st4" cx="87.6" cy="69.7" r="1.7"/>
					<circle class="st4" cx="93.2" cy="69.7" r="1.7"/>
					<circle class="st4" cx="98.9" cy="69.7" r="1.7"/>
					<circle class="st4" cx="104.5" cy="69.7" r="1.7"/>
					<circle class="st4" cx="110.1" cy="69.7" r="1.7"/>
					<circle class="st4" cx="115.8" cy="69.7" r="1.7"/>
					<circle class="st4" cx="121.4" cy="69.7" r="1.7"/>
					<circle class="st4" cx="127.1" cy="69.7" r="1.7"/>
					<circle class="st4" cx="132.7" cy="69.7" r="1.7"/>
					<circle class="st4" cx="138.3" cy="69.7" r="1.7"/>
					<circle class="st4" cx="144" cy="69.7" r="1.7"/>
					<circle class="st4" cx="149.6" cy="69.7" r="1.7"/>
					<circle class="st4" cx="155.2" cy="69.7" r="1.7"/>
					<circle class="st4" cx="160.9" cy="69.7" r="1.7"/>
					<circle class="st4" cx="166.5" cy="69.7" r="1.7"/>
					<circle class="st4" cx="172.1" cy="69.7" r="1.7"/>
					<circle class="st4" cx="177.8" cy="69.7" r="1.7"/>
					<circle class="st4" cx="183.4" cy="69.7" r="1.7"/>
					<circle class="st4" cx="189.1" cy="69.7" r="1.7"/>
					<circle class="st4" cx="194.7" cy="69.7" r="1.7"/>
					<circle class="st4" cx="200.3" cy="69.7" r="1.7"/>
					<circle class="st4" cx="206" cy="69.7" r="1.7"/>
				</g>
				<g>
					<circle class="st4" cx="87.6" cy="76.2" r="1.7"/>
					<circle class="st4" cx="93.2" cy="76.2" r="1.7"/>
					<circle class="st4" cx="98.9" cy="76.2" r="1.7"/>
					<circle class="st4" cx="104.5" cy="76.2" r="1.7"/>
					<circle class="st4" cx="110.1" cy="76.2" r="1.7"/>
					<circle class="st4" cx="115.8" cy="76.2" r="1.7"/>
					<circle class="st4" cx="121.4" cy="76.2" r="1.7"/>
					<circle class="st4" cx="127.1" cy="76.2" r="1.7"/>
					<circle class="st4" cx="132.7" cy="76.2" r="1.7"/>
					<circle class="st4" cx="138.3" cy="76.2" r="1.7"/>
					<circle class="st4" cx="144" cy="76.2" r="1.7"/>
					<circle class="st4" cx="149.6" cy="76.2" r="1.7"/>
					<circle class="st4" cx="155.2" cy="76.2" r="1.7"/>
					<circle class="st4" cx="160.9" cy="76.2" r="1.7"/>
					<circle class="st4" cx="166.5" cy="76.2" r="1.7"/>
					<circle class="st4" cx="172.1" cy="76.2" r="1.7"/>
					<circle class="st4" cx="177.8" cy="76.2" r="1.7"/>
					<circle class="st4" cx="183.4" cy="76.2" r="1.7"/>
					<circle class="st4" cx="189.1" cy="76.2" r="1.7"/>
					<circle class="st4" cx="194.7" cy="76.2" r="1.7"/>
					<circle class="st4" cx="200.3" cy="76.2" r="1.7"/>
				</g>
				<g>
					<circle class="st4" cx="87.6" cy="82.7" r="1.7"/>
					<circle class="st4" cx="93.2" cy="82.7" r="1.7"/>
					<circle class="st4" cx="98.9" cy="82.7" r="1.7"/>
					<circle class="st4" cx="104.5" cy="82.7" r="1.7"/>
					<circle class="st4" cx="110.1" cy="82.7" r="1.7"/>
					<circle class="st4" cx="115.8" cy="82.7" r="1.7"/>
					<circle class="st4" cx="121.4" cy="82.7" r="1.7"/>
					<circle class="st4" cx="127.1" cy="82.7" r="1.7"/>
					<circle class="st4" cx="132.7" cy="82.7" r="1.7"/>
					<circle class="st4" cx="138.3" cy="82.7" r="1.7"/>
					<circle class="st4" cx="144" cy="82.7" r="1.7"/>
					<circle class="st4" cx="149.6" cy="82.7" r="1.7"/>
					<circle class="st4" cx="155.2" cy="82.7" r="1.7"/>
					<circle class="st4" cx="160.9" cy="82.7" r="1.7"/>
					<circle class="st4" cx="166.5" cy="82.7" r="1.7"/>
					<circle class="st4" cx="172.1" cy="82.7" r="1.7"/>
					<circle class="st4" cx="177.8" cy="82.7" r="1.7"/>
					<circle class="st4" cx="183.4" cy="82.7" r="1.7"/>
					<circle class="st4" cx="189.1" cy="82.7" r="1.7"/>
					<circle class="st4" cx="194.7" cy="82.7" r="1.7"/>
					<circle class="st4" cx="200.3" cy="82.7" r="1.7"/>
				</g>
				<g>
					<circle class="st4" cx="93.2" cy="89.2" r="1.7"/>
					<circle class="st4" cx="98.9" cy="89.2" r="1.7"/>
					<circle class="st4" cx="104.5" cy="89.2" r="1.7"/>
					<circle class="st4" cx="110.1" cy="89.2" r="1.7"/>
					<circle class="st4" cx="115.8" cy="89.2" r="1.7"/>
					<circle class="st4" cx="121.4" cy="89.2" r="1.7"/>
					<circle class="st4" cx="127.1" cy="89.2" r="1.7"/>
					<circle class="st4" cx="132.7" cy="89.2" r="1.7"/>
					<circle class="st4" cx="138.3" cy="89.2" r="1.7"/>
					<circle class="st4" cx="144" cy="89.2" r="1.7"/>
					<circle class="st4" cx="149.6" cy="89.2" r="1.7"/>
					<circle class="st4" cx="155.2" cy="89.2" r="1.7"/>
					<circle class="st4" cx="160.9" cy="89.2" r="1.7"/>
					<circle class="st4" cx="166.5" cy="89.2" r="1.7"/>
					<circle class="st4" cx="172.1" cy="89.2" r="1.7"/>
					<circle class="st4" cx="177.8" cy="89.2" r="1.7"/>
					<circle class="st4" cx="183.4" cy="89.2" r="1.7"/>
					<circle class="st4" cx="189.1" cy="89.2" r="1.7"/>
					<circle class="st4" cx="194.7" cy="89.2" r="1.7"/>
				</g>
				<g>
					<circle class="st4" cx="98.9" cy="95.7" r="1.7"/>
					<circle class="st4" cx="104.5" cy="95.7" r="1.7"/>
					<circle class="st4" cx="110.1" cy="95.7" r="1.7"/>
					<circle class="st4" cx="115.8" cy="95.7" r="1.7"/>
					<circle class="st4" cx="121.4" cy="95.7" r="1.7"/>
					<circle class="st4" cx="127.1" cy="95.7" r="1.7"/>
					<circle class="st4" cx="132.7" cy="95.7" r="1.7"/>
					<circle class="st4" cx="138.3" cy="95.7" r="1.7"/>
					<circle class="st4" cx="144" cy="95.7" r="1.7"/>
					<circle class="st4" cx="149.6" cy="95.7" r="1.7"/>
					<circle class="st4" cx="155.2" cy="95.7" r="1.7"/>
					<circle class="st4" cx="160.9" cy="95.7" r="1.7"/>
					<circle class="st4" cx="166.5" cy="95.7" r="1.7"/>
					<circle class="st4" cx="172.1" cy="95.7" r="1.7"/>
					<circle class="st4" cx="177.8" cy="95.7" r="1.7"/>
					<circle class="st4" cx="183.4" cy="95.7" r="1.7"/>
					<circle class="st4" cx="189.1" cy="95.7" r="1.7"/>
				</g>
				<g>
					<circle class="st4" cx="104.5" cy="102.2" r="1.7"/>
					<circle class="st4" cx="110.1" cy="102.2" r="1.7"/>
					<circle class="st4" cx="115.8" cy="102.2" r="1.7"/>
					<circle class="st4" cx="121.4" cy="102.2" r="1.7"/>
					<circle class="st4" cx="127.1" cy="102.2" r="1.7"/>
					<circle class="st4" cx="132.7" cy="102.2" r="1.7"/>
					<circle class="st4" cx="138.3" cy="102.2" r="1.7"/>
					<circle class="st4" cx="144" cy="102.2" r="1.7"/>
					<circle class="st4" cx="149.6" cy="102.2" r="1.7"/>
					<circle class="st4" cx="155.2" cy="102.2" r="1.7"/>
					<circle class="st4" cx="160.9" cy="102.2" r="1.7"/>
					<circle class="st4" cx="166.5" cy="102.2" r="1.7"/>
					<circle class="st4" cx="172.1" cy="102.2" r="1.7"/>
					<circle class="st4" cx="177.8" cy="102.2" r="1.7"/>
					<circle class="st4" cx="183.4" cy="102.2" r="1.7"/>
				</g>
				<g>
					<circle class="st4" cx="115.8" cy="108.7" r="1.7"/>
					<circle class="st4" cx="121.4" cy="108.7" r="1.7"/>
					<circle class="st4" cx="127.1" cy="108.7" r="1.7"/>
					<circle class="st4" cx="132.7" cy="108.7" r="1.7"/>
					<circle class="st4" cx="138.3" cy="108.7" r="1.7"/>
					<circle class="st4" cx="144" cy="108.7" r="1.7"/>
					<circle class="st4" cx="149.6" cy="108.7" r="1.7"/>
					<circle class="st4" cx="155.2" cy="108.7" r="1.7"/>
					<circle class="st4" cx="160.9" cy="108.7" r="1.7"/>
					<circle class="st4" cx="166.5" cy="108.7" r="1.7"/>
					<circle class="st4" cx="172.1" cy="108.7" r="1.7"/>
				</g>
				<g>
					<circle class="st4" cx="127.1" cy="115.2" r="1.7"/>
					<circle class="st4" cx="132.7" cy="115.2" r="1.7"/>
					<circle class="st4" cx="138.3" cy="115.2" r="1.7"/>
					<circle class="st4" cx="144" cy="115.2" r="1.7"/>
					<circle class="st4" cx="149.6" cy="115.2" r="1.7"/>
					<circle class="st4" cx="155.2" cy="115.2" r="1.7"/>
					<circle class="st4" cx="160.9" cy="115.2" r="1.7"/>
				</g>
			</g>
			<g>
				<g>
					<circle class="st4" cx="206" cy="43.8" r="1.7"/>
					<circle class="st4" cx="200.3" cy="43.8" r="1.7"/>
					<circle class="st4" cx="194.7" cy="43.8" r="1.7"/>
					<circle class="st4" cx="189.1" cy="43.8" r="1.7"/>
					<circle class="st4" cx="183.4" cy="43.8" r="1.7"/>
					<circle class="st4" cx="177.8" cy="43.8" r="1.7"/>
					<circle class="st4" cx="172.1" cy="43.8" r="1.7"/>
					<circle class="st4" cx="166.5" cy="43.8" r="1.7"/>
					<circle class="st4" cx="160.9" cy="43.8" r="1.7"/>
					<circle class="st4" cx="155.2" cy="43.8" r="1.7"/>
					<circle class="st4" cx="149.6" cy="43.8" r="1.7"/>
					<circle class="st4" cx="144" cy="43.8" r="1.7"/>
					<circle class="st4" cx="138.3" cy="43.8" r="1.7"/>
					<circle class="st4" cx="132.7" cy="43.8" r="1.7"/>
					<circle class="st4" cx="127.1" cy="43.8" r="1.7"/>
					<circle class="st4" cx="121.4" cy="43.8" r="1.7"/>
					<circle class="st4" cx="115.8" cy="43.8" r="1.7"/>
					<circle class="st4" cx="110.1" cy="43.8" r="1.7"/>
					<circle class="st4" cx="104.5" cy="43.8" r="1.7"/>
					<circle class="st4" cx="98.9" cy="43.8" r="1.7"/>
					<circle class="st4" cx="93.2" cy="43.8" r="1.7"/>
					<circle class="st4" cx="87.6" cy="43.8" r="1.7"/>
					<circle class="st4" cx="82" cy="43.8" r="1.7"/>
				</g>
				<g>
					<circle class="st4" cx="206" cy="37.3" r="1.7"/>
					<circle class="st4" cx="200.3" cy="37.3" r="1.7"/>
					<circle class="st4" cx="194.7" cy="37.3" r="1.7"/>
					<circle class="st4" cx="189.1" cy="37.3" r="1.7"/>
					<circle class="st4" cx="183.4" cy="37.3" r="1.7"/>
					<circle class="st4" cx="177.8" cy="37.3" r="1.7"/>
					<circle class="st4" cx="172.1" cy="37.3" r="1.7"/>
					<circle class="st4" cx="166.5" cy="37.3" r="1.7"/>
					<circle class="st4" cx="160.9" cy="37.3" r="1.7"/>
					<circle class="st4" cx="155.2" cy="37.3" r="1.7"/>
					<circle class="st4" cx="149.6" cy="37.3" r="1.7"/>
					<circle class="st4" cx="144" cy="37.3" r="1.7"/>
					<circle class="st4" cx="138.3" cy="37.3" r="1.7"/>
					<circle class="st4" cx="132.7" cy="37.3" r="1.7"/>
					<circle class="st4" cx="127.1" cy="37.3" r="1.7"/>
					<circle class="st4" cx="121.4" cy="37.3" r="1.7"/>
					<circle class="st4" cx="115.8" cy="37.3" r="1.7"/>
					<circle class="st4" cx="110.1" cy="37.3" r="1.7"/>
					<circle class="st4" cx="104.5" cy="37.3" r="1.7"/>
					<circle class="st4" cx="98.9" cy="37.3" r="1.7"/>
					<circle class="st4" cx="93.2" cy="37.3" r="1.7"/>
					<circle class="st4" cx="87.6" cy="37.3" r="1.7"/>
					<circle class="st4" cx="82" cy="37.3" r="1.7"/>
				</g>
				<g>
					<circle class="st4" cx="206" cy="30.8" r="1.7"/>
					<circle class="st4" cx="200.3" cy="30.8" r="1.7"/>
					<circle class="st4" cx="194.7" cy="30.8" r="1.7"/>
					<circle class="st4" cx="189.1" cy="30.8" r="1.7"/>
					<circle class="st4" cx="183.4" cy="30.8" r="1.7"/>
					<circle class="st4" cx="177.8" cy="30.8" r="1.7"/>
					<circle class="st4" cx="172.1" cy="30.8" r="1.7"/>
					<circle class="st4" cx="166.5" cy="30.8" r="1.7"/>
					<circle class="st4" cx="160.9" cy="30.8" r="1.7"/>
					<circle class="st4" cx="155.2" cy="30.8" r="1.7"/>
					<circle class="st4" cx="149.6" cy="30.8" r="1.7"/>
					<circle class="st4" cx="144" cy="30.8" r="1.7"/>
					<circle class="st4" cx="138.3" cy="30.8" r="1.7"/>
					<circle class="st4" cx="132.7" cy="30.8" r="1.7"/>
					<circle class="st4" cx="127.1" cy="30.8" r="1.7"/>
					<circle class="st4" cx="121.4" cy="30.8" r="1.7"/>
					<circle class="st4" cx="115.8" cy="30.8" r="1.7"/>
					<circle class="st4" cx="110.1" cy="30.8" r="1.7"/>
					<circle class="st4" cx="104.5" cy="30.8" r="1.7"/>
					<circle class="st4" cx="98.9" cy="30.8" r="1.7"/>
					<circle class="st4" cx="93.2" cy="30.8" r="1.7"/>
					<circle class="st4" cx="87.6" cy="30.8" r="1.7"/>
					<circle class="st4" cx="82" cy="30.8" r="1.7"/>
				</g>
				<g>
					<circle class="st4" cx="200.3" cy="24.3" r="1.7"/>
					<circle class="st4" cx="194.7" cy="24.3" r="1.7"/>
					<circle class="st4" cx="189.1" cy="24.3" r="1.7"/>
					<circle class="st4" cx="183.4" cy="24.3" r="1.7"/>
					<circle class="st4" cx="177.8" cy="24.3" r="1.7"/>
					<circle class="st4" cx="172.1" cy="24.3" r="1.7"/>
					<circle class="st4" cx="166.5" cy="24.3" r="1.7"/>
					<circle class="st4" cx="160.9" cy="24.3" r="1.7"/>
					<circle class="st4" cx="155.2" cy="24.3" r="1.7"/>
					<circle class="st4" cx="149.6" cy="24.3" r="1.7"/>
					<circle class="st4" cx="144" cy="24.3" r="1.7"/>
					<circle class="st4" cx="138.3" cy="24.3" r="1.7"/>
					<circle class="st4" cx="132.7" cy="24.3" r="1.7"/>
					<circle class="st4" cx="127.1" cy="24.3" r="1.7"/>
					<circle class="st4" cx="121.4" cy="24.3" r="1.7"/>
					<circle class="st4" cx="115.8" cy="24.3" r="1.7"/>
					<circle class="st4" cx="110.1" cy="24.3" r="1.7"/>
					<circle class="st4" cx="104.5" cy="24.3" r="1.7"/>
					<circle class="st4" cx="98.9" cy="24.3" r="1.7"/>
					<circle class="st4" cx="93.2" cy="24.3" r="1.7"/>
					<circle class="st4" cx="87.6" cy="24.3" r="1.7"/>
				</g>
				<g>
					<circle class="st4" cx="200.3" cy="17.8" r="1.7"/>
					<circle class="st4" cx="194.7" cy="17.8" r="1.7"/>
					<circle class="st4" cx="189.1" cy="17.8" r="1.7"/>
					<circle class="st4" cx="183.4" cy="17.8" r="1.7"/>
					<circle class="st4" cx="177.8" cy="17.8" r="1.7"/>
					<circle class="st4" cx="172.1" cy="17.8" r="1.7"/>
					<circle class="st4" cx="166.5" cy="17.8" r="1.7"/>
					<circle class="st4" cx="160.9" cy="17.8" r="1.7"/>
					<circle class="st4" cx="155.2" cy="17.8" r="1.7"/>
					<circle class="st4" cx="149.6" cy="17.8" r="1.7"/>
					<circle class="st4" cx="144" cy="17.8" r="1.7"/>
					<circle class="st4" cx="138.3" cy="17.8" r="1.7"/>
					<circle class="st4" cx="132.7" cy="17.8" r="1.7"/>
					<circle class="st4" cx="127.1" cy="17.8" r="1.7"/>
					<circle class="st4" cx="121.4" cy="17.8" r="1.7"/>
					<circle class="st4" cx="115.8" cy="17.8" r="1.7"/>
					<circle class="st4" cx="110.1" cy="17.8" r="1.7"/>
					<circle class="st4" cx="104.5" cy="17.8" r="1.7"/>
					<circle class="st4" cx="98.9" cy="17.8" r="1.7"/>
					<circle class="st4" cx="93.2" cy="17.8" r="1.7"/>
					<circle class="st4" cx="87.6" cy="17.8" r="1.7"/>
				</g>
				<g>
					<circle class="st4" cx="194.7" cy="11.3" r="1.7"/>
					<circle class="st4" cx="189.1" cy="11.3" r="1.7"/>
					<circle class="st4" cx="183.4" cy="11.3" r="1.7"/>
					<circle class="st4" cx="177.8" cy="11.3" r="1.7"/>
					<circle class="st4" cx="172.1" cy="11.3" r="1.7"/>
					<circle class="st4" cx="166.5" cy="11.3" r="1.7"/>
					<circle class="st4" cx="160.9" cy="11.3" r="1.7"/>
					<circle class="st4" cx="155.2" cy="11.3" r="1.7"/>
					<circle class="st4" cx="149.6" cy="11.3" r="1.7"/>
					<circle class="st4" cx="144" cy="11.3" r="1.7"/>
					<circle class="st4" cx="138.3" cy="11.3" r="1.7"/>
					<circle class="st4" cx="132.7" cy="11.3" r="1.7"/>
					<circle class="st4" cx="127.1" cy="11.3" r="1.7"/>
					<circle class="st4" cx="121.4" cy="11.3" r="1.7"/>
					<circle class="st4" cx="115.8" cy="11.3" r="1.7"/>
					<circle class="st4" cx="110.1" cy="11.3" r="1.7"/>
					<circle class="st4" cx="104.5" cy="11.3" r="1.7"/>
					<circle class="st4" cx="98.9" cy="11.3" r="1.7"/>
					<circle class="st4" cx="93.2" cy="11.3" r="1.7"/>
				</g>
				<g>
					<circle class="st4" cx="189.1" cy="4.8" r="1.7"/>
					<circle class="st4" cx="183.4" cy="4.8" r="1.7"/>
					<circle class="st4" cx="177.8" cy="4.8" r="1.7"/>
					<circle class="st4" cx="172.1" cy="4.8" r="1.7"/>
					<circle class="st4" cx="166.5" cy="4.8" r="1.7"/>
					<circle class="st4" cx="160.9" cy="4.8" r="1.7"/>
					<circle class="st4" cx="155.2" cy="4.8" r="1.7"/>
					<circle class="st4" cx="149.6" cy="4.8" r="1.7"/>
					<circle class="st4" cx="144" cy="4.8" r="1.7"/>
					<circle class="st4" cx="138.3" cy="4.8" r="1.7"/>
					<circle class="st4" cx="132.7" cy="4.8" r="1.7"/>
					<circle class="st4" cx="127.1" cy="4.8" r="1.7"/>
					<circle class="st4" cx="121.4" cy="4.8" r="1.7"/>
					<circle class="st4" cx="115.8" cy="4.8" r="1.7"/>
					<circle class="st4" cx="110.1" cy="4.8" r="1.7"/>
					<circle class="st4" cx="104.5" cy="4.8" r="1.7"/>
					<circle class="st4" cx="98.9" cy="4.8" r="1.7"/>
				</g>
				<g>
					<circle class="st4" cx="183.4" cy="-1.7" r="1.7"/>
					<circle class="st4" cx="177.8" cy="-1.7" r="1.7"/>
					<circle class="st4" cx="172.1" cy="-1.7" r="1.7"/>
					<circle class="st4" cx="166.5" cy="-1.7" r="1.7"/>
					<circle class="st4" cx="160.9" cy="-1.7" r="1.7"/>
					<circle class="st4" cx="155.2" cy="-1.7" r="1.7"/>
					<circle class="st4" cx="149.6" cy="-1.7" r="1.7"/>
					<circle class="st4" cx="144" cy="-1.7" r="1.7"/>
					<circle class="st4" cx="138.3" cy="-1.7" r="1.7"/>
					<circle class="st4" cx="132.7" cy="-1.7" r="1.7"/>
					<circle class="st4" cx="127.1" cy="-1.7" r="1.7"/>
					<circle class="st4" cx="121.4" cy="-1.7" r="1.7"/>
					<circle class="st4" cx="115.8" cy="-1.7" r="1.7"/>
					<circle class="st4" cx="110.1" cy="-1.7" r="1.7"/>
					<circle class="st4" cx="104.5" cy="-1.7" r="1.7"/>
				</g>
				<g>
					<circle class="st4" cx="172.1" cy="-8.2" r="1.7"/>
					<circle class="st4" cx="166.5" cy="-8.2" r="1.7"/>
					<circle class="st4" cx="160.9" cy="-8.2" r="1.7"/>
					<circle class="st4" cx="155.2" cy="-8.2" r="1.7"/>
					<circle class="st4" cx="149.6" cy="-8.2" r="1.7"/>
					<circle class="st4" cx="144" cy="-8.2" r="1.7"/>
					<circle class="st4" cx="138.3" cy="-8.2" r="1.7"/>
					<circle class="st4" cx="132.7" cy="-8.2" r="1.7"/>
					<circle class="st4" cx="127.1" cy="-8.2" r="1.7"/>
					<circle class="st4" cx="121.4" cy="-8.2" r="1.7"/>
					<circle class="st4" cx="115.8" cy="-8.2" r="1.7"/>
				</g>
				<g>
					<circle class="st4" cx="160.9" cy="-14.7" r="1.7"/>
					<circle class="st4" cx="155.2" cy="-14.7" r="1.7"/>
					<circle class="st4" cx="149.6" cy="-14.7" r="1.7"/>
					<circle class="st4" cx="144" cy="-14.7" r="1.7"/>
					<circle class="st4" cx="138.3" cy="-14.7" r="1.7"/>
					<circle class="st4" cx="132.7" cy="-14.7" r="1.7"/>
					<circle class="st4" cx="127.1" cy="-14.7" r="1.7"/>
				</g>
			</g>
		</g>
		<g class="st5">
			<g>
				<g>
					<g>
						<path class="st6" d="M86.4,188.4c0,0,4.3-2.5,4.3-2.5c0,0.1-10.7,8-10.2,8.8c0.8,1.4,19.3-12.7,20-11.5
							c0.1,0.1-24.6,21.2-23.1,23.7c0.7,1.3,32.7-18.9,32.7-18.9s-32.1,25.2-31.6,26c1.9,3.4,38.2-22,38.2-22
							c1.6,2.7-34.1,27.7-33.9,28c2,3.4,36.6-21.1,36.6-21.1S85.3,224,86.6,226.3c1.3,2.3,33.8-24.5,35.9-20.7
							c1,1.7-28.5,21.8-26.9,24.6c0.5,0.8,23.2-15.3,24-13.9c1.3,2.3-21.8,13.4-21.8,13.4c0.4,0.8,22.6-15.3,23.6-13.6
							c0.9,1.6-15.8,13-15.8,13s11.5-6.9,11.6-6.7c0,0-8.7,5.5-8.6,5.6c0.2,0.4,5.7-3.3,5.7-3.3"/>
						<path class="st6" d="M169.8,331.9c0,0,4.3-2.5,4.3-2.5c0,0.1-10.7,8-10.2,8.8c0.8,1.4,19.3-12.7,20-11.5
							c0.1,0.1-24.6,21.2-23.1,23.7c0.7,1.3,32.7-18.9,32.7-18.9s-32.1,25.2-31.6,26c1.9,3.4,38.2-22,38.2-22
							c1.6,2.7-34.1,27.7-33.9,28c2,3.4,36.6-21.1,36.6-21.1s-34.1,25.2-32.8,27.5c1.3,2.3,33.8-24.5,35.9-20.7
							c1,1.7-28.5,21.8-26.9,24.6c0.5,0.8,23.2-15.3,24-13.9c1.3,2.3-21.8,13.4-21.8,13.4c0.4,0.8,22.6-15.3,23.6-13.6
							c0.9,1.6-15.8,13-15.8,13s11.5-6.9,11.6-6.7c0,0-8.7,5.5-8.6,5.6c0.2,0.4,5.7-3.3,5.7-3.3"/>
						<g>
							<path class="st6" d="M61.6,217.4c0,0,0.5-0.3,0.5-0.3c0,0-4,4.7-3.8,5.1c0.2,0.4,5.9-3.8,6-3.5c0.1,0.1-15.4,16.9-14.4,18.7
								c0.4,0.7,15.6-9,15.6-9s-19.9,18.5-19.6,19.1c1.3,2.2,24.7-14.3,24.7-14.3c1.3,2.2-26.8,23.6-26.7,23.8
								c1.7,2.9,31.2-18,31.2-18s-36,26.2-34.6,28.5c1.6,2.7,40.6-29.5,43.2-25c1.5,2.7-46.9,30.5-44.5,34.7
								c0.7,1.3,38.2-25.2,39.6-22.8c2.3,4-38.5,23.1-38.5,23.1c0.8,1.3,38.2-25.9,39.9-23c2.2,3.7-40.3,27.1-40.3,27.1
								s36.7-22.3,37.2-21.5c0,0-36.8,26.2-36.5,26.6c1.2,2.1,32-18.5,32-18.5l-33.6,21.8c1.2,2.1,33-19,33-19
								c0.7,1.3-31.3,25.9-29.7,28.6c1.1,1.9,24.2-16.7,25.4-14.7c0.4,0.8-24.7,16.7-23.1,19.4L65,292.6
								c1.3,2.2-20.1,12.6-20.1,12.6c0.8,1.3,20.8-13.3,21.4-12.3c0.5,0.9-22.4,14.6-22.4,14.6s22.2-16,23.5-13.6
								c0.6,1-21,17.6-20.9,17.7c0.7,1.3,16.9-11.4,17.7-10.2c0,0-19.8,14.7-18.8,16.4c0.2,0.4,21.3-12.3,21.3-12.3
								c0.4,0.6-17.2,21.4-17.2,21.4c0.2,0.3,15.4-10.9,16.3-9.4c0,0-13,13.1-12.1,14.7c0.9,1.6,14.1-9.4,14.7-8.5
								c0,0-11.7,9.7-10.9,11.1c0,0,13.7-8.8,14.1-8.1c0.9,1.5-12.7,15-12,16.3c0.2,0.3,14.5-8.9,14.7-8.5
								c0.5,0.8-11.4,9.7-11.4,9.7c0.4,0.8,9.6-6.2,9.9-5.7c0.5,0.9-4.5,10.5-4.2,11.1c0,0,9.5-6.9,10.2-5.9
								c0.6,1-10.8,7.7-10.4,8.3c0,0,9.1-6.2,9.5-5.5c0.1,0.2-7.8,8.2-7.5,8.6c0,0,11.9-7,11.9-6.9c0.5,0.9-4.3,11.8-4.3,11.8
								s9.5-6.1,9.8-5.6c0.1,0.2-5.1,8.4-5.1,8.4c0,0,6.3-3.6,6.3-3.6c0,0.1-7.6,3.9-7.3,4.4c0.2,0.3,5.8-4.4,6.2-3.6
								c0.3,0.6-3.3,5.3-3.3,5.3l5.9-3.4l-4.6,3c0,0,6.3-4.6,6.7-3.9l-8.4,6c0,0,7.8-4.8,8-4.6c0.3,0.5-4.3,5.5-4.2,5.5
								c0.3,0.6,7.3-4.5,7.4-4.3l-5.3,4c0.3,0.5,5.7-3.3,5.7-3.3s-0.3,7.7,0.1,8.3c0,0,4.9-3.3,5.1-3c0.3,0.5-2.6,5-2.5,5.2
								c0,0,7.2-4.6,7.4-4.3c0.3,0.5-5.2,5.2-5.2,5.2c0.1,0.2,4.5-2.9,4.6-2.7c0,0.1-1.5,2.4-1.4,2.7l4.7-2.7
								c0.1,0.1,6.2,5.6,6.6,6.4c0.1,0.1,2.8-2,3-1.7c0.1,0.1-0.9,2.8-0.9,2.8c0.1,0.2,2.1-1.2,2.1-1.2c0.6,1,12.7,4.3,12.7,4.3
								l2.7-1.6c0,0-0.5,1.5-0.5,1.5c0,0,0.9-0.6,1-0.6c0,0,1.9,1.3,2,1.5c0,0,0.4-0.2,0.4-0.2c0,0,5.3-0.8,5.3-0.8c0,0,0,0,0,0
								c0,0-0.7,0.5-0.7,0.5c0,0,0.1-0.1,0.1-0.1c0,0,0.6,0.1,0.6,0.1s0,0,0.1,0"/>
						</g>
						<g>
							<path class="st6" d="M77.5,257.6C77.5,257.6,77.6,257.5,77.5,257.6c0.1,0-2.3,3.8-2.1,4.1c0,0.1,2-1.2,2-1.2
								c0,0.1-8.2,13.4-7.4,14.7c0.1,0.1,1.4-0.8,1.4-0.8s-3.9,9.8-3.8,10c0.2,0.4,4.2-2.4,4.2-2.4c0.4,0.7-4.6,10.9-4.6,11
								c0.3,0.5,3.6-2.1,3.6-2.1s-6.1,11.2-5.7,11.9c0.3,0.5,7.9-5.7,8.4-4.9c0.4,0.8-9,12.6-8.3,13.8c0.2,0.3,9.1-6,9.5-5.5
								c0.5,0.9-8.3,5.6-8.3,5.6c0.2,0.3,10.4-7,10.8-6.2c0.6,1.1-10.5,10-10.5,10s12.1-7.3,12.2-7.1c0,0-10.8,11.6-10.7,11.7
								c0.5,0.8,12-6.9,12-6.9L67,323.4c0.5,0.9,14.9-8.6,14.9-8.6c0.4,0.6-10.7,15.9-9.9,17.2c0.7,1.2,14.5-10,15.2-8.8
								c0.3,0.4-12.8,11.4-11.9,13l14.1-8.1c0.9,1.5-13.4,8.8-13.4,8.8c0.6,1,15-9.6,15.4-8.9c0.4,0.7-16.1,11-16.1,11
								s17.4-12.5,18.5-10.7c0.4,0.8-15,14.1-15,14.2c0.7,1.2,15.2-10.3,15.9-9.2c0,0-16.9,13.3-16,14.8
								c0.2,0.4,22.7-13.1,22.7-13.1c0.4,0.6-16.5,21-16.5,21c0.3,0.5,23.5-16.6,24.8-14.3c0,0-20.4,16.5-19.1,18.7
								c1.8,3.1,27.6-18.3,28.6-16.5c0,0-25.3,15.9-23.8,18.5c0,0,31.1-19.9,32-18.5c1.6,2.8-29,23.1-27.7,25.3
								c0.6,1,43-26.6,43.7-25.3c1.5,2.6-39.6,25.9-39.6,25.9c1.5,2.7,38-24.3,39-22.5c1.7,3-32,24.5-30.9,26.4
								c0,0,31.3-22.5,33.3-19.2c1.7,2.9-33.8,19.4-32.8,21.2c0,0,29.9-20.1,31.2-18c0.4,0.7-28.5,18.9-27.7,20.3
								c0,0,30.8-18.1,31-17.9c1.2,2.1-19.7,20.7-19.7,20.7s22.4-14.5,23-13.3c0.2,0.4-15.6,14.4-15.6,14.4c0,0,16-9.2,16-9.2
								c0.1,0.2-17.7,8.8-17,10c0.5,0.8,14.8-11.1,15.9-9.2c0.8,1.3-10.8,9.7-10.8,9.7l13-7.5l-11.5,7c0,0,12.7-9.4,13.6-7.9
								l-14.6,9.6c0,0,13.8-8.5,14.1-8.1c0.5,0.9-8.1,7.7-8,7.7c0.5,0.9,10.8-6.7,11-6.4l-8.3,5.7c0.4,0.7,8.7-5,8.7-5s4,4.6,4.3,5
								c0,0,0.1-0.1,0.1-0.1"/>
						</g>
					</g>
				</g>
			</g>
			<g>
				<path class="st4" d="M259.8,214.4c-1.1,0.6-2.3,1.2-3.5,1.7c-5.8,2.2-12.2,2-17.9-0.6c-5.7-2.6-10-7.2-12.2-13.1
					c-0.1-0.5-1.1-4.7,0.8-6c1.4-0.9,3.8,0,7.3,2.8c9.1,7.2,16.5,11.3,17.4,10.5c0,0,0.5-0.5-1.7-3.7c-2.5-3.5-5.7-9.2-8.3-14.4
					c-4.6-9.3-3.6-10-3.3-10.3c0.6-0.4,1.6-0.2,5.5,4.3c2.8,3.3,5.4,6.6,7.7,9.4c3.8,4.7,7.7,9.7,8.6,9.6c0.1-0.1,0.3-0.9-1.3-5.8
					c-1.5-4.5-3.2-9.2-4.7-13.3c-3.3-9-3.6-10-2.9-10.4c0.5-0.2,0.9-0.1,3.8,4.7c1.7,2.7,3.3,5.6,4.9,8.4c2.7,4.9,6.1,11,7.1,10.6
					c0.3-0.1,1-1.1,0-9.8c-0.4-3.4-0.9-6.3-1.4-8.9c-2.2-2.8-5.1-5.1-8.5-6.6c-5.5-2.5-11.6-2.7-17.2-0.5c-0.2,0.1-0.4,0-0.5-0.2
					c-0.1-0.2,0-0.4,0.2-0.5c5.8-2.2,12.2-2,17.9,0.6c3,1.4,5.7,3.3,7.8,5.7c-0.6-2.9-1.2-5.2-1.7-7c-0.8-2.9-1-3.7-0.4-4
					c0.6-0.3,1.2,0.4,4.4,4.1c0.9,1,1.9,2.2,3.1,3.6c0.1,0.2,0.1,0.4,0,0.6c-0.2,0.1-0.4,0.1-0.6,0c-1.2-1.4-2.2-2.6-3.1-3.6
					c-1.5-1.7-2.7-3.1-3.3-3.6c0.1,0.6,0.4,1.6,0.7,2.8c0.5,2,1.3,4.9,2,8.5c1.4,1.8,2.5,3.8,3.4,6c2.2,5.8,2,12.2-0.5,17.9
					C267.3,208.3,264,212,259.8,214.4z M227.5,197.1C227.5,197.1,227.5,197.1,227.5,197.1c-1.3,0.9-0.8,4-0.6,5.1
					c2.1,5.6,6.3,10.1,11.8,12.6c5.5,2.5,11.6,2.7,17.2,0.5c5.6-2.1,10.1-6.3,12.5-11.8c2.5-5.5,2.6-11.6,0.5-17.3
					c-0.6-1.6-1.4-3.1-2.3-4.4c0.4,2.2,0.8,4.6,1.1,7.3c1.1,8.9,0.4,10.4-0.5,10.7c-1.6,0.5-3.8-3.4-8.1-11
					c-1.6-2.8-3.2-5.7-4.8-8.4c-1.4-2.2-2.1-3.3-2.5-3.9c0.4,1.6,1.7,5.3,3.1,8.9c1.5,4.1,3.2,8.8,4.7,13.3c1.6,5.1,1.6,6.3,0.9,6.7
					c-1.1,0.6-3.3-1.9-9.5-9.8c-2.3-2.9-4.9-6.1-7.7-9.4c-3.3-3.9-4.2-4.2-4.4-4.2c-0.8,1.5,6.5,16.1,11.7,23.6
					c1.8,2.6,2.3,4.1,1.6,4.8c0,0-0.1,0.1-0.2,0.1c-2.8,1.6-17.7-10-18.3-10.5C230,196.8,228.3,196.7,227.5,197.1z"/>
				<path class="st4" d="M158.9,180.1c-2.3,1.3-4,2-4,2c-5.8,2.2-12.2,2-17.9-0.6c-5.7-2.6-10-7.2-12.2-13.1
					c-2.2-5.8-2-12.2,0.5-17.9c2.6-5.7,7.2-10,13-12.3c6.8-2.6,14.3-1.9,20.6,2c4.4,2.7,7.7,6.7,9.5,11.6c0.1,0.2,4.3,14-7.6,21.3
					c-3.3,2-4.1,2.2-4.5,1.7c-0.6-0.5-0.1-1.5,1-3.7c2.1-4.3,6.1-12.3,2.4-19.5c-1.4-2.7-2.2-4.2-2.6-4.5c-0.2,0.4-0.3,1.9-0.5,3.5
					c-0.4,4.5-0.9,12.1-4.9,18.8c-1.8,3-2.5,3.5-3.1,3.3c-1-0.3-0.8-2.6,0.2-9.3c1.1-7.5,2.6-17.9-0.1-20.4
					c-0.9-0.9-1.7-1.3-2.1-1.1c-1,0.4-1.3,3.3-1.6,6.8c-0.4,3.7-0.9,8.3-2.4,12.6c-1.1,3-1.7,3.6-2.3,3.5c-1.3-0.2-1.4-4.8-1.2-14.8
					c0-1.4,0.1-2.7,0.1-3.7c0-1.9-0.1-2.8-0.1-3.2c-0.3,0.6-0.9,2.4-2,6.5c-0.1,0.2-0.3,0.3-0.5,0.3c-0.2-0.1-0.3-0.3-0.3-0.5
					c1.9-7,2.4-7.5,3-7.4c0.6,0.1,0.8,0.7,0.8,4.3c0,1,0,2.3-0.1,3.7c-0.1,4.3-0.3,13.1,0.5,13.9c0.1-0.1,0.6-0.6,1.4-2.9
					c1.5-4.2,2-8.8,2.4-12.5c0.4-4.1,0.7-6.9,2.2-7.4c0.8-0.3,1.7,0.1,2.9,1.3c3,2.9,1.6,13,0.4,21.1c-0.5,3.6-1.1,7.7-0.7,8.4
					c0.2-0.1,0.8-0.6,2.1-2.9c3.9-6.6,4.4-14,4.8-18.5c0.2-2.8,0.3-4.1,1.1-4.2c0.7-0.1,1.3,0.5,3.5,5c3.8,7.6-0.3,15.8-2.4,20.2
					c-0.5,1.1-1.2,2.3-1.2,2.7c0.3,0,1.1-0.3,3.5-1.8c11.4-7,7.3-20.3,7.3-20.4c-1.8-4.7-5-8.6-9.2-11.2c-6-3.7-13.3-4.4-19.9-1.9
					c-5.6,2.1-10.1,6.3-12.5,11.8c-2.5,5.5-2.6,11.6-0.5,17.3c2.1,5.6,6.3,10.1,11.8,12.6c5.5,2.5,11.6,2.7,17.2,0.5
					c0.1,0,11.3-4.6,15.4-13.5c6.1-13.2,4.3-25,3.4-30.7c-0.4-2.6-0.6-3.7,0.1-4l0,0c0.5-0.3,1,0.1,1.5,0.6c0.2,0.1,0.2,0.4,0,0.6
					c-0.1,0.2-0.4,0.2-0.6,0c-0.3-0.3-0.5-0.4-0.6-0.4c-0.1,0.4,0.1,1.8,0.3,3.2c0.9,5.7,2.7,17.7-3.5,31.1
					C168.1,173.9,162.7,177.9,158.9,180.1z"/>
				<path class="st4" d="M250.7,307.5L250,307c8.6-11.5,8.4-20.8,5.6-25.3c-0.8-1.3-1.9-2.2-3-2.4c-0.2,2.6-0.9,5.2-2,7.7
					c-2.6,5.7-7.2,10-13,12.3c-9.8,3.7-19.2,1.4-25.4-6.2c-4.6-5.7-5.5-13.2-2.4-20.6c3.3-8,10.5-13.8,18.2-14.6
					c3.2-0.4,5.2,0.2,6.1,1.7c2.5,4-3.8,13.7-9.3,22.2c-3.3,5.1-7.1,11-6.2,12c0.1,0.2,0.7,0.4,2.8-0.4c8.8-3.5,13.9-15.6,16.9-22.8
					c1.9-4.4,2.6-6,3.5-5.8c0.7,0.1,1.1,1.1,1.4,3.8c1.6,13.6,1.7,21.7-12.8,29.1c-2.2,1.1-3,1.8-3.3,2.1c1,0,4.6-1,8.9-3.3
					c3.9-2.1,10.6-6.5,11.6-12.5c0.5-3,1.9-5,3.7-5.4c0.1,0,0.3,0,0.4-0.1c0.1-3.1-0.3-6.2-1.5-9.1c-2.1-5.6-6.3-10.1-11.8-12.6
					c-5.5-2.5-11.6-2.7-17.2-0.5l-0.3-0.7c5.8-2.2,12.2-2,17.9,0.6c5.7,2.6,10,7.2,12.3,13c1.2,3.1,1.7,6.3,1.5,9.4
					c1.3,0.2,2.6,1.2,3.6,2.8C259.3,286,259.6,295.7,250.7,307.5z M229,300.1c2.7,0,5.5-0.6,8.4-1.7c5.6-2.1,10.1-6.3,12.5-11.8
					c1.1-2.4,1.7-4.9,1.9-7.4c-0.1,0-0.1,0-0.2,0c-1.5,0.3-2.6,2-3.1,4.7c-0.9,5.3-5.9,9.4-9.9,11.8C235,298,231.3,299.5,229,300.1z
					 M220.6,261.1c-4.3,2.5-7.9,6.6-10,11.6c-2.9,7.1-2.1,14.3,2.3,19.8c3.5,4.4,8.2,6.9,13.4,7.5c0,0,0,0,0,0
					c-0.1-0.3-0.3-0.9,3.9-3.1c13.3-6.9,14-13.9,12.3-28.3c-0.3-2.7-0.7-3-0.7-3.1c-0.5,0.1-1.6,2.9-2.7,5.4
					c-3.1,7.3-8.3,19.6-17.4,23.3c-2,0.8-3.2,0.9-3.7,0.2c-1.2-1.5,1.4-5.7,6.1-13c5.1-7.9,11.5-17.8,9.3-21.4
					c-0.8-1.2-2.5-1.7-5.3-1.4C225.5,258.8,222.9,259.7,220.6,261.1z"/>
				<g>
					<path class="st4" d="M139.5,340.8c-0.2,0.1-0.4,0.1-0.5-0.1c-11.2-14.1-18.7-30.9-21.5-48.7c-2.9-18.3-0.8-37.2,6-54.5
						c6.8-17.2,17.9-32.1,32.4-43.4c-0.6,0.1-1.2,0.3-1.7,0.4c-11.9,3.1-22.9,10.3-32.9,21.4c-0.1,0.2-0.4,0.2-0.6,0
						c-0.2-0.1-0.2-0.4,0-0.6c10.1-11.2,21.3-18.4,33.3-21.6c1.1-0.3,2.3-0.6,3.4-0.8c1.6-1.2,3.2-2.3,4.8-3.4
						c17.1-11.5,37-17.5,57.5-17.6c0.2,0,0.3,0.1,0.4,0.2c0.1,0.1,0.1,0.3,0,0.4c-0.8,1.1-1.6,2.3-2.3,3.4c-1.5,2.4-2.6,5-3.5,7.6
						c0.5,6.3,1.5,14.6,4,21.6c0.5,1.4,0.8,1.9,0.9,2c0.3-0.4,0.7-2.3,1.1-4.1c1.7-8,5.1-24.5,19.6-30.7c0.2-0.1,0.4,0,0.5,0.2
						c0.1,0.2,0,0.4-0.2,0.5c-14.1,6-17.5,22.3-19.1,30.1c-0.7,3.4-1,4.8-1.8,4.8c-0.6,0-1-0.6-1.7-2.6c-2.2-6.3-3.3-13.7-3.9-19.8
						c-1.8,6.3-1.9,13.1-0.2,19.6c0,0.2,0,0.4-0.2,0.5c-0.2,0.1-0.4,0-0.5-0.1c-0.1-0.1-6.9-10.3-4-24.6c0.8-4.1,0.6-4.9,0.5-5.1
						c-1.2,0.3-5.5,9.1-5.6,11.6c-0.1,1.6-1.3,2.9-2.7,2.8c-1-0.1-2-0.7-2.6-2.3c-0.9,1.1-2,1.8-2.9,1.7c-1.2-0.1-1.9-1.4-2.4-3.8
						c-0.4-2.2-1.5-3.4-2.6-4.1c-0.4,0.7-0.7,1.4-0.6,2.2c0.1,3-2.2,5.4-4.4,5.7c-2,0.3-3.6-0.9-4.3-3.2c-0.5-1.5,0-3.1,1.2-4.3
						c1.7-1.7,4.8-2.4,7.2-1.7c0.2,0.1,0.5,0.2,0.7,0.3c0.6-0.8,1.4-1.5,2.2-1.9l0,0c1.7-1,3.3-1.1,4.5-0.4c0.9,0.5,1.8,1.8,1.7,4.7
						c-0.1,1.2,0,2.3,0.1,3.1c1.1-1.5,2.1-3.6,3-5.6c1-2.3,4.6-5.6,7.7-7.4c-16.5,1.8-32.4,7.5-46.4,16.9c-1.2,0.8-2.4,1.6-3.5,2.5
						c8.1-1.3,16.4-0.9,25,1.3c17.7,4.5,30.2,15.1,30.3,15.3c0.1,0.1,0.2,0.3,0.1,0.5c-0.1,0.2-0.2,0.3-0.4,0.2
						c-17.3-1.4-35.1,2.9-49.9,12c-15.4,9.4-27,23.3-33.7,40.1c-10.3,26-6.9,55.2,9.2,78.1C139.7,340.4,139.7,340.7,139.5,340.8
						C139.5,340.8,139.5,340.8,139.5,340.8z M157.6,193.8c-14.9,11.3-26.4,26.5-33.4,44.1c-6.8,17.2-8.9,35.9-6,54.1
						c2.3,14.2,7.5,27.8,15.3,39.8c-11.4-21.5-12.9-47-3.8-69.9c6.7-17,18.5-31,34-40.5c14.7-9,32.1-13.3,49.1-12.2
						c-3.3-2.5-14.3-10.6-29-14.3C174.9,192.5,166.1,192.1,157.6,193.8z M208.5,175.2c0,0,0.1,0,0.1-0.1c0.4-0.2,0.7,0,0.8,0.1
						c0.4,0.3,0.8,1.3-0.2,5.9c-2,10,0.8,17.9,2.6,21.7c-1.2-6.5-0.7-13.1,1.4-19.3c-0.4-4.9-0.4-8.6-0.3-9.4c0-0.7-0.3-0.9-0.6-1
						c-0.1,0-0.2,0-0.4,0c-0.1,0-0.1,0-0.2,0c-2.6,0.3-8.5,5-9.8,7.9c-0.2,0.6-1.7,3.9-3.5,6.3c0.5,1.4,1.3,2.2,2.1,2.2
						c0.9,0.1,1.8-0.7,1.9-2C202.7,185.2,206.6,176.3,208.5,175.2z M213.5,173c0.2,0.3,0.3,0.6,0.3,1.1c0,0.7,0,3.6,0.2,7.6
						c0.8-2.1,1.8-4.1,3-6c0.6-0.9,1.2-1.9,1.9-2.8C217,172.8,215.3,172.9,213.5,173z M190.5,181.2c1.5,0.9,2.5,2.5,2.9,4.6
						c0.4,2,1,3.1,1.7,3.2c0.7,0.1,1.6-0.7,2.5-1.8c-0.3-1-0.4-2.4-0.3-4c0.1-2-0.3-3.3-1.3-3.9c-0.9-0.6-2.3-0.4-3.7,0.4l0,0
						C191.7,180,191,180.5,190.5,181.2z M183.5,182c-0.4,0.2-0.8,0.5-1.1,0.8c-1,1-1.4,2.2-1,3.5c0.6,2,1.8,2.9,3.4,2.7
						c1.9-0.3,3.8-2.4,3.8-4.9c0-0.9,0.3-1.8,0.7-2.6c-0.2-0.1-0.3-0.1-0.5-0.2C187.1,180.8,185.1,181.1,183.5,182z"/>
				</g>
				<g>
					<path class="st4" d="M36.5,308c-0.2,0.1-0.4,0.1-0.5-0.1c-11.2-14.1-18.7-30.9-21.5-48.7c-2.9-18.3-0.8-37.2,6-54.5
						c7.8-19.7,21.2-36.3,38.7-48c17.1-11.5,37-17.5,57.5-17.6c0.2,0,0.3,0.1,0.4,0.2c0.1,0.1,0.1,0.3,0,0.4
						c-0.8,1.1-1.6,2.3-2.3,3.4c-5.3,8.9-6.9,19.3-4.4,29.3c0.3,1.3,0.8,2.7,1.3,4.1c0,0.1,0,0.3-0.1,0.4c-0.1,0.1-0.2,0.2-0.3,0.2
						c-0.2,0-20.8-1.3-31.8,20.1c-0.1,0.2-0.3,0.3-0.5,0.2c-0.2-0.1-0.3-0.3-0.2-0.5c5.9-11.4,14.4-16.4,20.5-18.6
						c5.4-1.9,9.8-2,11.4-2c-0.4-1.2-0.8-2.4-1.1-3.6c-2.5-10.2-0.9-20.8,4.5-29.9c0.6-0.9,1.2-1.9,1.9-2.8
						c-20.1,0.2-39.5,6.3-56.2,17.5c-17.4,11.6-30.6,28.1-38.4,47.6c-6.8,17.2-8.9,35.9-6,54.1c2.3,14.2,7.5,27.8,15.3,39.8
						c-11.4-21.5-12.9-47-3.8-69.9c4.9-12.5,12.9-23.7,22.9-32.4c9.7-8.4,21.5-14.6,34-17.9c0,0,0.1,0,0.1,0c0,0,4.4-0.1,6.5-2.3
						c0.7-0.8,1.1-1.8,1.1-2.9c0-0.9-0.8-1.4-1.5-1.6c-5.8-2.3-25.6,2.3-47.4,23.6c-8.5,8.3-9.5,7.9-9.9,7.7
						c-0.1-0.1-0.4-0.2-0.4-0.7c0.1-3.3,23.4-30.4,43.3-37.2c14.1-4.8,17.4-7.5,17.2-8.3c-0.2-0.8-5.2-1.4-19.3,1.8
						c-22,5-60.1,36.7-56.4,91.2c0.7-5.5,2.7-15.5,8.1-26.7c7.5-15.6,23.3-36.7,56-49c0.2-0.1,0.4,0,0.5,0.2c0.1,0.2,0,0.4-0.2,0.5
						c-32.5,12.2-48.2,33.1-55.6,48.5c-8,16.7-8.4,30.8-8.4,30.9c0,0.2-0.2,0.4-0.4,0.4c-0.2,0-0.4-0.1-0.4-0.4
						c-6.2-57.7,33.8-91.3,56.6-96.5c4.5-1,19.4-4.2,20.3-1.2c0.5,1.9-5.4,5-17.7,9.2c-11.3,3.9-23,14.2-29,20
						c-8.4,8.1-13.5,14.9-13.7,16.4c0.5-0.2,2.4-1.2,8.8-7.5c12.3-12,23.1-18,30.1-20.9c9.2-3.8,15.4-4,18.2-2.9
						c1.6,0.6,2,1.6,2,2.4c0,1.4-0.4,2.5-1.3,3.5c-2.2,2.3-6.5,2.5-7,2.5c-12.4,3.2-24,9.3-33.6,17.7c-10,8.6-17.8,19.7-22.7,32.1
						c-10.3,26-6.9,55.2,9.2,78.1C36.8,307.6,36.7,307.9,36.5,308C36.5,308,36.5,308,36.5,308z"/>
				</g>
				<g>
					<path class="st4" d="M199.9,163c-5.7,3.3-11.8,6.1-18.2,8.3c-0.1,0-0.3,0-0.4-0.1c-0.1-0.1-0.1-0.3-0.1-0.4
						c0.4-1.3,0.8-2.7,1.1-4c2.2-10.1,0.3-20.4-5.3-29.1c-0.8-1.2-1.6-2.3-2.5-3.5c-0.1-0.2-0.1-0.4,0.1-0.6
						c0.2-0.1,0.4-0.1,0.6,0.1c0.9,1.2,1.8,2.4,2.6,3.6c5.7,8.9,7.6,19.4,5.4,29.7c-0.2,1.1-0.5,2.2-0.9,3.3
						c18.9-6.7,35.3-18.7,47.6-34.7c12.7-16.6,19.9-36.5,20.9-57.5c0.9-18.5-3.2-36.8-11.8-53.1c-6.7-12.7-16.1-23.9-27.3-32.7
						c17.7,16.7,27.4,40.3,26.2,64.9c-0.7,14.1-4.8,27.9-11.9,39.7c-7,11.8-16.9,21.4-28.4,28c-10.1,5.7-10.2,7.2-10.2,7.2
						c1.4,1.1,22.2-7.4,36.5-25c7.6-9.3,8.8-9,9.2-8.9c0.1,0,0.4,0.2,0.5,0.6c0.4,3.1-12.9,21.8-28.5,30.9c-0.2,0.1-0.5,0.3-0.7,0.4
						c-12.4,6.9-15.7,10.9-15.6,12.1c0,0.1,0,0.3,0.3,0.4c1.9,0.9,10-1.9,20.4-9.7c20.5-15.2,34.3-38,31.3-51.8
						c-0.5-2.2-0.4-3.4,0.3-3.6c0.3-0.1,0.8,0,1.4,1.1c1.4,2.9,2.7,11.5-2.5,23.4c-6.5,14.8-20.9,29.8-41.7,43.5
						c-9.6,6.3-9.1,7.9-9.1,7.9c0.1,0.1,0.7,0.4,2.9-0.2c6.6-2,22-10.6,34.9-25.5c11-12.7,23.3-33.6,19.4-61.4
						c0-0.2,0.1-0.4,0.3-0.5c0.2,0,0.4,0.1,0.5,0.3c3.9,28.1-8.5,49.2-19.6,62c-13,15-28.5,23.7-35.3,25.7c-2.2,0.7-3.5,0.6-3.8-0.2
						c-0.6-1.4,2.5-4.4,9.3-8.9c44.8-29.4,45.8-54.7,45-61.7c-0.3-2.9-1.1-4.5-1.5-4.8c-0.1,0.3-0.1,1,0.2,2.6
						c3,14.1-10.9,37.2-31.7,52.6c-10.2,7.6-18.8,10.9-21.2,9.7c-0.5-0.2-0.7-0.6-0.7-1.1c-0.1-2.4,5.9-7.2,16.1-12.9
						c16.4-9.2,28.9-28.2,28.8-30.4c-0.4,0.1-2.2,1.1-8.2,8.6c-13.6,16.8-34.1,26.2-37.3,25.2c-0.5-0.1-0.6-0.5-0.6-0.7
						c-0.2-1.6,5.6-5.2,10.6-8c11.4-6.5,21.2-16,28.1-27.7c7-11.7,11.1-25.3,11.7-39.3c1.3-27.9-11.4-54.4-34-71
						c-0.2-0.1-0.2-0.4-0.1-0.5c0.1-0.2,0.4-0.2,0.5-0.1c15.2,9.7,27.7,23.2,36.1,39.1c8.7,16.4,12.8,34.9,11.9,53.5
						c-1,21.1-8.3,41.2-21.1,57.9C222.1,147.1,211.7,156.2,199.9,163z"/>
				</g>
				<g>
					<path class="st4" d="M204.2,359.1c-0.2,0.1-0.4,0-0.5-0.1c-16.5-26.8-25.2-50.9-25.9-71.7c-0.7-19.6,6-32.6,11.7-40
						c0.7-0.8,1.3-1.7,2-2.4c-16.8,11.5-18.5,25.3-19.4,32.5c-0.3,2.8-0.5,4.6-1.4,5.3c-0.3,0.2-0.7,0.3-1.2,0.3
						c-1.5-0.2-3.3-0.7-5-1.2c-2-0.5-4.7-1.2-5.1-0.9c0,0,0,0.5,2,2.2c2.1,1.9,4.3,2.9,6.1,3.8c1.9,0.9,3.3,1.6,3.6,2.8
						c0.2,1.1-0.7,2.5-2.8,4.7c-3.3,3.3-7.3,5.5-10.2,7.1c-1.9,1-3.8,2.1-3.8,2.6c0,0.1,0.1,0.2,0.5,0.4c1.3,0.6,4.1,0,6.3-0.5
						c2.3-0.5,3.2-0.7,3.5-0.1c0.2,0.5,0,1.1-4.5,4.4c-6.4,4.6-8.6,8.5-8.5,9.9c0,0.3,0.2,0.4,0.3,0.5c0.6,0.3,2.4-0.2,5.3-2.3
						c3.6-2.6,6.3-3.5,8.1-2.7c1.7,0.7,1.9,2.6,1.9,2.7c0,0.2-0.1,0.3-0.2,0.4l0,0c-7.3,4.1-12.9,10.2-16.4,17.7
						c-0.1,0.2-0.2,0.2-0.4,0.2c-0.2,0-0.3-0.1-0.4-0.3c-4.9-16-5-32.9-0.1-48.9c4.9-16.4,14.7-30.8,28.1-41.5
						c24.3-19.3,57.1-23.7,85.6-11.3c0.2,0.1,0.3,0.3,0.2,0.5c-0.1,0.2-0.3,0.3-0.5,0.2c-19.5-6.1-40.6-2.1-56.6,10.6
						c-20.1,16-28.2,43-20.1,67.4c0,0.2,4.5,15,16.2,29.3c0.1,0.2,0.1,0.4-0.1,0.6c-0.2,0.1-0.4,0.1-0.6-0.1
						c-11.8-14.4-16.3-29.4-16.3-29.6c-8.1-24.6,0.1-52.1,20.4-68.2c14.4-11.5,33-15.9,50.8-12.3c-26.7-9.1-56.3-4.1-78.6,13.6
						c-13.3,10.6-23,24.8-27.9,41.1c-4.7,15.6-4.7,32-0.2,47.5c3.5-7.2,9-13,16-17c-0.1-0.5-0.4-1.4-1.4-1.8
						c-1.1-0.5-3.2-0.4-7.3,2.6c-2.8,2.1-5,2.9-6.1,2.4c-0.4-0.2-0.7-0.6-0.8-1.1c-0.2-2,2.8-6.3,8.8-10.6c2.8-2,3.8-2.9,4.1-3.3
						c-0.5,0-1.6,0.3-2.5,0.4c-2.4,0.5-5.3,1.2-6.8,0.4c-0.2-0.1-0.9-0.5-0.9-1.1c0-1,1.6-1.9,4.2-3.4c2.9-1.6,6.8-3.8,10-7
						c1.9-1.9,2.8-3.2,2.6-4c-0.1-0.9-1.4-1.4-3.1-2.3c-1.8-0.9-4.1-2-6.3-3.9c-1.9-1.7-2.5-2.6-2.1-3.2c0.5-0.9,2.3-0.4,6,0.6
						c1.7,0.4,3.4,0.9,4.9,1.1c0.3,0,0.5,0,0.5-0.1c0.6-0.5,0.9-2.3,1.1-4.7c0.9-7.7,2.7-22.8,22.4-34.8c7.2-7.2,14.4-10.1,15.9-9.6
						c0.4,0.1,0.5,0.5,0.5,0.6c0.1,1.5-5.8,4.4-8.3,5.6c-2.8,1.3-5.3,2.7-7.6,4c-0.2,0.2-0.4,0.4-0.5,0.5
						c-6.6,6.9-14.6,19.3-15.1,38.9c-0.5,21.7,8.2,47.2,25.8,75.9C204.5,358.7,204.4,359,204.2,359.1L204.2,359.1z M196.6,240.8
						c1.5-0.8,3.1-1.6,4.8-2.4c5.8-2.7,7.6-4.3,7.8-4.7C208.2,233.4,202.8,235.4,196.6,240.8z"/>
				</g>
			</g>
			<path class="st4" d="M95.2,247.5c-0.6,0.4-0.8,0.2-1,0.1c-0.7-0.5-0.1-1.8,3.6-7.9c1.6-2.6,1.6-4.2,1-4.6
				c-1.2-0.8-5.5,1.6-10.8,9.2c-0.1,0.2-0.4,0.2-0.6,0.1c-0.2-0.1-0.2-0.4-0.1-0.6c4.1-5.9,9.5-11,11.9-9.4c1.2,0.8,0.9,2.9-0.8,5.7
				c-1.3,2.1-3.4,5.5-3.7,6.7c0.9-0.5,3.8-3,12.7-12.7c14.3-15.6,13.7-17.8,13.6-18c0,0-0.1,0-0.1,0c-0.2,0.1-0.4-0.1-0.5-0.3
				c-0.1-0.2,0.1-0.4,0.3-0.5c0.3-0.1,0.8,0,1,0.4c0.4,0.6,1.4,2.4-13.7,18.9C99.6,244,96.5,246.8,95.2,247.5z"/>
			<path class="st4" d="M162.5,382.3l-0.7-0.4c0,0,2-3.4,3.5-5.9c0.7-1.1,0.4-2.3-0.1-2.7c-0.6-0.4-1.9-0.2-3.5,1.7
				c-3.1,3.8-6.6,5-9.2,3.4c-3.2-2-4.7-8.3-0.6-17.5c6.4-14.6,11.3-21.9,11.3-22l0.7,0.4c0,0.1-4.8,7.3-11.2,21.9
				c-3.7,8.4-2.7,14.7,0.3,16.5c2.3,1.4,5.3,0.2,8.2-3.2c2.5-3,4.1-2.2,4.6-1.9c1,0.7,1.2,2.4,0.4,3.7
				C164.5,378.9,162.5,382.3,162.5,382.3z"/>
			<path class="st4" d="M204.3,359.1l-0.5-0.6c0,0,4.3-3.5,7.1-10.8c2.6-6.8,4.3-18.4-1.8-35c-6-16.3-7.9-28.7-5.6-37.9
				c2.2-8.9,7.9-13.6,13.2-17l4.4-2.2l0.4,0.7l-4.3,2.2c-5.1,3.3-10.7,7.9-12.8,16.5c-2.3,9.1-0.4,21.3,5.6,37.5
				c3.5,9.3,6.6,23.1,1.8,35.6C208.7,355.4,204.4,358.9,204.3,359.1z"/>
		</g>
		<g>
			<g class="st3">
				<path class="st4" d="M304.2,137.8l-10.4,5.3l-10.4-5.3l-10.4,5.3l-10.4-5.3l-10.4,5.3l-0.5-0.2c0.3,1.2,0.7,2.5,1.2,3.7l9.7-4.9
					l10.4,5.3l10.4-5.3l10.4,5.3l10.4-5.3l9.7,4.9c0.5-1.2,0.9-2.4,1.2-3.7l-0.5,0.2L304.2,137.8z"/>
				<path class="st4" d="M283.4,107.9l10.4,5.3l9.1-4.6c-1-0.8-2.1-1.5-3.2-2.1l-5.8,3l-10.4-5.3l-10.4,5.3l-5.8-3
					c-1.1,0.6-2.2,1.3-3.2,2.1l9.1,4.6L283.4,107.9z"/>
				<path class="st4" d="M281.3,102.2c-4,0.2-7.8,1.2-11.3,2.8l2.9,1.5L281.3,102.2z"/>
				<path class="st4" d="M304.2,131.1l-10.4,5.3l-10.4-5.3l-10.4,5.3l-10.4-5.3l-10.4,5.3l-1.5-0.7c0,1.3,0.1,2.6,0.3,3.9l1.1,0.6
					l10.4-5.3l10.4,5.3l10.4-5.3l10.4,5.3l10.4-5.3l10.4,5.3l1.1-0.6c0.2-1.3,0.3-2.6,0.3-3.9l-1.5,0.7L304.2,131.1z"/>
				<path class="st4" d="M293.8,163.4l-10.4-5.3l-10.4,5.3l-10.4-5.3l-1.4,0.7c3.8,3.5,8.3,6.1,13.4,7.5l8.8-4.5l8.8,4.5
					c5.1-1.4,9.7-4,13.4-7.5l-1.4-0.7L293.8,163.4z"/>
				<path class="st4" d="M293.8,149.9l-10.4-5.3l-10.4,5.3l-10.4-5.3l-8.7,4.4c0.5,1,1,2,1.6,2.9l7.1-3.6l10.4,5.3l10.4-5.3
					l10.4,5.3l10.4-5.3l7.1,3.6c0.6-1,1.1-1.9,1.6-2.9l-8.7-4.4L293.8,149.9z"/>
				<path class="st4" d="M278.7,167.2c1.5,0.2,3.1,0.3,4.7,0.3c1.6,0,3.2-0.1,4.7-0.3l-4.7-2.4L278.7,167.2z"/>
				<path class="st4" d="M304.2,110.9l-10.4,5.3l-10.4-5.3l-10.4,5.3l-10.4-5.3l-2.9,1.5c-1.7,1.8-3.3,3.9-4.5,6.1l7.5-3.8l10.4,5.3
					l10.4-5.3l10.4,5.3l10.4-5.3l7.5,3.8c-1.3-2.2-2.8-4.2-4.5-6.1L304.2,110.9z"/>
				<path class="st4" d="M293.8,122.9l-10.4-5.3l-10.4,5.3l-10.4-5.3l-9.4,4.8c-0.5,1.3-1,2.7-1.4,4.1l0.4,0.2l10.4-5.3l10.4,5.3
					l10.4-5.3l10.4,5.3l10.4-5.3l10.4,5.3l0.4-0.2c-0.4-1.4-0.8-2.7-1.4-4.1l-9.4-4.8L293.8,122.9z"/>
				<path class="st4" d="M296.7,105c-3.5-1.6-7.3-2.5-11.3-2.8l8.4,4.3L296.7,105z"/>
				<path class="st4" d="M304.2,124.3l-10.4,5.3l-10.4-5.3l-10.4,5.3l-10.4-5.3l-10.4,5.3l-1-0.5c-0.2,1.2-0.3,2.3-0.4,3.6l1.4,0.7
					l10.4-5.3l10.4,5.3l10.4-5.3l10.4,5.3l10.4-5.3l10.4,5.3l1.4-0.7c-0.1-1.2-0.2-2.4-0.4-3.6l-1,0.5L304.2,124.3z"/>
				<path class="st4" d="M293.8,156.6l-10.4-5.3l-10.4,5.3l-10.4-5.3l-5.6,2.8c0.7,0.9,1.4,1.8,2.2,2.7l3.4-1.7l10.4,5.3l10.4-5.3
					l10.4,5.3l10.4-5.3l3.4,1.7c0.8-0.8,1.5-1.7,2.2-2.7l-5.6-2.8L293.8,156.6z"/>
			</g>
		</g>
	</g>
</g>
</svg>
