<?xml version="1.0" encoding="utf-8"?>
<!-- Generator: Adobe Illustrator 21.1.0, SVG Export Plug-In . SVG Version: 6.00 Build 0)  -->
<svg version="1.1" id="Capa_1" xmlns="http://www.w3.org/2000/svg" xmlns:xlink="http://www.w3.org/1999/xlink" x="0px" y="0px"
	 viewBox="0 0 21.6 27.8" style="enable-background:new 0 0 21.6 27.8;" xml:space="preserve">
<style type="text/css">
	.st0{fill:#606161;}
</style>
<g>
	<path class="st0" d="M21.2,6.1l-6.3-5.8c-0.1-0.1-0.1-0.1-0.2-0.1c-0.1,0-0.1-0.1-0.2-0.1C14.4,0,14.2,0,14.1,0H4.7
		C2.1,0,0,2.1,0,4.7v18.4c0,2.6,2.1,4.7,4.7,4.7h12.1c2.6,0,4.7-2.1,4.7-4.7V7C21.6,6.6,21.4,6.3,21.2,6.1z M15.3,4l1.5,1.4h-1.5V4z
		 M16.8,25.4H4.7c-1.2,0-2.3-1-2.3-2.3V4.7c0-1.2,1-2.3,2.3-2.3h8.1v4.2c0,0.7,0.6,1.2,1.2,1.2h5v15.2
		C19.1,24.4,18.1,25.4,16.8,25.4z"/>
	<path class="st0" d="M16.7,10.3H5c-0.7,0-1.2,0.6-1.2,1.2s0.6,1.2,1.2,1.2h11.7c0.7,0,1.2-0.6,1.2-1.2S17.4,10.3,16.7,10.3z"/>
	<path class="st0" d="M16.7,14.5H5c-0.7,0-1.2,0.6-1.2,1.2s0.6,1.2,1.2,1.2h11.7c0.7,0,1.2-0.6,1.2-1.2S17.4,14.5,16.7,14.5z"/>
	<path class="st0" d="M16.7,18.7H5c-0.7,0-1.2,0.6-1.2,1.2s0.6,1.2,1.2,1.2h11.7c0.7,0,1.2-0.6,1.2-1.2S17.4,18.7,16.7,18.7z"/>
</g>
</svg>
