<?xml version="1.0" encoding="utf-8"?>
<!-- Generator: Adobe Illustrator 21.1.0, SVG Export Plug-In . SVG Version: 6.00 Build 0)  -->
<svg version="1.1" id="Capa_1" xmlns="http://www.w3.org/2000/svg" xmlns:xlink="http://www.w3.org/1999/xlink" x="0px" y="0px"
	 viewBox="0 0 30.8 30.8" style="enable-background:new 0 0 30.8 30.8;" xml:space="preserve">
<style type="text/css">
	.st0{fill:#606161;}
</style>
<g>
	<path class="st0" d="M15.4,30.8C6.9,30.8,0,23.9,0,15.4S6.9,0,15.4,0s15.4,6.9,15.4,15.4S23.9,30.8,15.4,30.8z M15.4,2.5
		C8.3,2.5,2.5,8.3,2.5,15.4s5.8,12.9,12.9,12.9s12.9-5.8,12.9-12.9S22.5,2.5,15.4,2.5z"/>
	<path class="st0" d="M14.5,23.1c-0.9,0-1.8-0.4-2.4-1c-0.2-0.2-0.4-0.5-0.4-0.9V9.6c0-0.3,0.1-0.6,0.4-0.9c1.3-1.3,3.6-1.3,4.9,0
		l4.2,4.2c1.3,1.3,1.3,3.5,0,4.9l-4.2,4.2C16.3,22.7,15.4,23.1,14.5,23.1z M14.2,20.6c0.3,0.1,0.8,0,1-0.2l4.2-4.2
		c0.4-0.4,0.4-1,0-1.4l-4.2-4.2c-0.3-0.3-0.7-0.3-1-0.2V20.6z"/>
</g>
</svg>
