<?xml version="1.0" encoding="utf-8"?>
<!-- Generator: Adobe Illustrator 21.1.0, SVG Export Plug-In . SVG Version: 6.00 Build 0)  -->
<svg version="1.1" id="Capa_1" xmlns="http://www.w3.org/2000/svg" xmlns:xlink="http://www.w3.org/1999/xlink" x="0px" y="0px"
	 viewBox="0 0 19.9 21.3" style="enable-background:new 0 0 19.9 21.3;" xml:space="preserve">
<style type="text/css">
	.st0{fill:#606161;}
</style>
<path class="st0" d="M19.5,18l-8.2-8.2c0.2,0,0.4-0.1,0.7-0.2c1-0.4,1.9-1.1,2.5-2c0.2-0.4,0.3-0.8,0.1-1.2
	c-0.2-0.4-0.5-0.6-0.9-0.7c-0.9-0.1-1.7-0.8-2-1.6c-0.3-0.7-0.2-1.5,0.3-2.2c0.2-0.4,0.3-0.8,0.1-1.2c-0.2-0.4-0.5-0.6-0.9-0.7
	c-0.8-0.1-1.7,0-2.4,0.2C7.3,0.7,6.3,1.7,5.7,2.9C5.2,4.1,5.1,5.4,5.6,6.7c0.2,0.6,0.6,1.2,1,1.7C6.1,8.6,5.7,8.8,5.3,9.2l-4.9,4.9
	c-0.5,0.5-0.5,1.3,0,1.7c0.5,0.5,1.3,0.5,1.7,0L7,11c0.5-0.5,1.4-0.5,1.9,0l2.5,2.5c-1.4-0.5-3.1-0.3-4.1,0.8l-4.9,4.9
	c-0.5,0.5-0.5,1.3,0,1.7c0.5,0.5,1.3,0.5,1.7,0L9,16c0.5-0.5,1.4-0.5,1.9,0l4.9,4.9c0.2,0.2,0.6,0.4,0.9,0.4s0.6-0.1,0.9-0.4
	c0.3-0.3,0.4-0.7,0.3-1.1c0.2,0.2,0.5,0.3,0.8,0.3c0.3,0,0.6-0.1,0.9-0.4C20,19.3,20,18.5,19.5,18z M8,3.9c0.2-0.5,0.6-0.9,1-1.1
	C8.9,3.5,9,4.3,9.3,5c0.3,1,1,1.8,1.8,2.4c-0.6,0.2-1.3,0.2-1.9-0.1C8.6,7,8.1,6.5,7.9,5.8C7.7,5.2,7.7,4.5,8,3.9z"/>
</svg>
