<?xml version="1.0" encoding="utf-8"?>
<!-- Generator: Adobe Illustrator 21.1.0, SVG Export Plug-In . SVG Version: 6.00 Build 0)  -->
<svg version="1.1" id="Capa_1" xmlns="http://www.w3.org/2000/svg" xmlns:xlink="http://www.w3.org/1999/xlink" x="0px" y="0px"
	 viewBox="0 0 120 120" style="enable-background:new 0 0 120 120;" xml:space="preserve">
<style type="text/css">
	.st0{fill:#178943;}
</style>
<g>
	<g>
		<path class="st0" d="M63.9,66.5c0.8-0.7,0.9-1.9,0.3-2.7c-0.6-0.9-2-1.1-2.9-0.5c-0.9,0.7-1.6,2.2-2.2,4.7
			c-0.1,0.2-0.1,0.4-0.2,0.8c-2.4,9.6-7.4,14.9-14.3,15.4c-8.5,0.4-14.5-7.5-17-10.9l-0.3-0.4c-0.8-1-1.6-1.7-2.1-2.1
			c-1.2-0.9-1.8-1.1-2.6-0.9c-0.8,0.2-1.4,0.8-1.6,1.6c-0.2,0.8,0.1,1.6,0.8,2.1c0.1,0.1,0.3,0.2,0.4,0.2c0.3,0.2,1.2,0.8,1.8,1.7
			l0.3,0.4c2.9,3.8,9.5,12.6,19.6,12.6c0.3,0,0.6,0,0.9,0l0.2,0c5.8-0.4,10.5-3.3,13.9-8.6c2.6-4,3.7-8.3,4.1-9.9l0.1-0.3
			c0.1-0.1,0.1-0.2,0.1-0.4C63.3,67.9,63.7,66.8,63.9,66.5z"/>
		<path class="st0" d="M22.4,60.5c3.8,1,7.5,3.2,7.5,3.3c4.8,2.9,9.4,7.7,9.9,8.2c3,3.4,6.2,5.2,9.1,5.2c0.7,0,1.3-0.1,2-0.3
			c2.3-0.7,4-2.1,5-4.1c1-2.2,1-4.9,0-7.5c-2-5.1-8.1-9.7-12.9-12.8c-3.2-2-11.1-7-16.8-9.4c-1-0.4-2.3,0.1-2.7,1.1
			c-0.4,1,0,2.3,1.1,2.7c5.4,2.3,13.1,7.1,16.2,9.1c6,3.8,10,7.7,11.3,10.8c0.6,1.6,0.7,3.1,0.2,4.2c-0.4,0.9-1.2,1.5-2.5,1.9
			c-2.1,0.6-4.9-1.6-6.8-3.7c0,0-5.2-5.5-10.9-9c-0.2-0.1-4.2-2.5-8.6-3.7c-0.5-0.1-1.1-0.1-1.6,0.2c-0.5,0.3-0.8,0.7-1,1.3
			C20.6,59,21.3,60.2,22.4,60.5z"/>
		<path class="st0" d="M45.4,78.6c-1.1-0.2-2-0.5-2.9-1c-0.9-0.5-1.9-1.1-2.7-1.7l-0.6-0.5c-0.2-0.2-0.4-0.3-0.6-0.5
			c-0.4-0.3-0.7-0.7-1.1-1c-0.7-0.7-1.3-1.3-1.8-2c-1.6-2-3.2-3.6-4.9-4.9c-0.8-0.6-1.7-1.1-2.5-1.6l-0.5-0.3
			c-1.2-0.7-2.5-1.4-3.9-1.8c-0.5-0.2-1.1-0.1-1.6,0.2c-0.5,0.3-0.9,0.7-1,1.3c-0.3,1.1,0.3,2.2,1.4,2.5c0.4,0.1,0.7,0.2,1,0.4
			c1.1,0.5,2.2,1.1,3.3,1.8c1,0.6,1.7,1.1,2.5,1.9c0.9,0.8,1.6,1.6,2.3,2.4c0.2,0.3,0.4,0.5,0.6,0.8c0.3,0.4,0.7,0.8,1.1,1.3
			c3.8,4.2,8,6.6,12.3,7.1c0.1,0,0.1,0,0.2,0c0.4,0,0.9-0.2,1.2-0.5c0.5-0.4,0.7-1,0.7-1.6c0-1.1-0.8-1.9-2-2.1
			C45.8,78.7,45.8,78.6,45.4,78.6z"/>
		<path class="st0" d="M23.1,53.6c2.6,0.9,16.2,6,23.7,16.5c0.4,0.6,1,0.9,1.7,0.9c0.4,0,0.8-0.1,1.2-0.4c0.9-0.7,1.1-2,0.5-2.9
			c-8.2-11.5-22.9-17-25.7-18l0,0c-1.1-0.4-2.2,0.2-2.6,1.2c-0.2,0.5-0.2,1.1,0,1.6C22,53,22.4,53.4,23.1,53.6z"/>
		<path class="st0" d="M27.7,40.8c1.5,0.4,5.2,2.8,8.3,4.9c5,3.3,7.5,4.9,9.2,5.2c0.2,0,0.5,0.1,0.7,0.1c2.3,0,4.9-1.8,7.8-3.9
			c2-1.4,4.2-3,5.9-3.6c1.1-0.4,1.7-1.5,1.3-2.6l0,0c-0.4-1.1-1.5-1.7-2.6-1.3c-2.3,0.8-4.7,2.5-7,4.1c-1.5,1.1-4.6,3.3-5.4,3.1
			c-1.1-0.2-5-2.8-7.7-4.5c-3.8-2.5-7.3-4.8-9.5-5.4c-1.1-0.3-2.2,0.4-2.5,1.5C26,39.4,26.6,40.5,27.7,40.8z"/>
		<path class="st0" d="M33.5,35.9c5.9,4.3,9.2,6.5,10.9,6.8c0.2,0,0.4,0,0.6,0c1.7,0,3.9-1.3,7.2-3.3c1.5-0.9,3.3-2,4.2-2.4
			c0.5-0.2,0.9-0.6,1.2-1.1c0.2-0.5,0.3-1.1,0.1-1.6l0,0c-0.2-0.5-0.6-0.9-1.1-1.2c-0.5-0.2-1.1-0.3-1.6-0.1
			c-1.3,0.5-3.1,1.5-4.9,2.7l0.4,0.7L50,36c-1.2,0.7-4.3,2.6-4.9,2.7c-0.5-0.1-2.5-1.2-9.2-6.1l-0.5-0.4c-0.5-0.4-0.9-0.7-1.3-0.9
			c-0.9-0.6-2.2-0.4-2.9,0.5c-0.7,0.9-0.4,2.2,0.5,2.9C32.2,35,32.8,35.4,33.5,35.9z"/>
		<path class="st0" d="M43.6,34.6c0.3,0,0.5,0.1,0.8,0.1c2,0,3.8-1.3,5.8-2.7l0.2-0.1c0.6-0.4,1.2-0.8,1.8-1.3
			c1-0.6,1.2-1.9,0.6-2.9l0,0c-0.6-1-1.9-1.2-2.9-0.6c-0.8,0.5-1.5,1-2.2,1.5c-1.3,0.9-2.8,2-3.4,1.9c-0.6-0.1-2.8-1.8-4.7-3.8
			c-0.8-0.8-2.1-0.8-2.9-0.1c-0.8,0.8-0.8,2.1,0,2.9C38,31,41.3,34.2,43.6,34.6z"/>
		<path class="st0" d="M55.1,60.7c-0.1,0.8,0.1,1.5,0.8,2c0.4,0.3,0.9,0.5,1.4,0.5c0.2,0,0.5,0,0.7-0.1c0.6-0.2,1-0.8,1.1-1.5
			c0.2-1.2,0.7-2.1,1.4-2.7c0.8-0.7,1.9-1.2,2.9-1.6c0.5-0.2,0.8-0.6,1-1.1c0.2-0.6,0.1-1.3-0.2-1.8l0,0c-0.6-0.9-1.6-1.2-2.7-0.8
			C59.1,54.8,55.8,56.6,55.1,60.7z"/>
		<path class="st0" d="M59.8,46.7L59.8,46.7c-4.4,1.3-7.9,4.5-9.5,8.3c-0.2,0.5-0.2,1,0.1,1.5c0.3,0.6,0.8,1,1.3,1.1
			c0.2,0.1,0.4,0.1,0.6,0.1c0.8,0,1.6-0.5,2-1.4c0.9-2.2,2.7-3.6,4.1-4.4c1-0.6,1.7-0.9,2.6-1.2c1.3-0.4,1.6-1.6,1.3-2.6
			C62,47.1,61,46.3,59.8,46.7z"/>
		<path class="st0" d="M98.1,48.3c-0.7-0.4-1.5-0.4-2.1,0.1L72.8,62.8l-0.2,0.1l-0.6,0.8l0.7,0.3l0,0L72,63.9l-2,13
			c-1.5,0.1-2.9,1-3.6,2.4c-0.6,1.1-0.8,2.4-0.4,3.6c0.1,0.5,0.4,1,0.6,1.4L63.3,90c-0.3,0.5-0.3,1-0.2,1.6c0.2,0.5,0.5,1,1,1.3
			l13.7,7.7c0.3,0.2,0.7,0.3,1,0.3c0.7,0,1.4-0.4,1.8-1.1l3.3-5.8c1.8,0.1,3.5-0.8,4.3-2.4c0.6-1.1,0.8-2.4,0.4-3.6
			c-0.1-0.3-0.2-0.5-0.3-0.8l9.8-8.2l0.3-0.3l-0.6-0.4h0l0.8,0.2l0.2-0.6c0-0.1,0-0.1,0-0.2l0.3-27.5C99.2,49.4,98.8,48.7,98.1,48.3
			z M74,78.1l1.6-10.3l1.9,1.1c1,0.6,2.3,0.2,2.8-0.8c0.3-0.5,0.3-1,0.2-1.6c-0.2-0.5-0.5-1-1-1.3L78,64.5l13.3-8.3l-5.7,10.1
			c-1.8-0.1-3.5,0.8-4.3,2.4c-0.6,1.1-0.8,2.4-0.4,3.6c0.3,1.2,1.1,2.2,2.2,2.8c1.1,0.6,2.4,0.8,3.6,0.4c1.2-0.3,2.2-1.1,2.8-2.2
			c0.9-1.6,0.8-3.5-0.2-5l5.7-10.1l-0.2,15.6L93.2,73c-1-0.6-2.3-0.2-2.8,0.8c-0.6,1-0.2,2.3,0.8,2.8l1.9,1.1l-7.9,6.7L74,78.1z
			 M84.7,89.1c0,0.1,0,0.3,0,0.4c-0.1,0.1-0.2,0.2-0.3,0.3c-0.1,0-0.3,0-0.4,0L70.2,82c-0.1-0.1-0.2-0.2-0.3-0.3l0,0
			c0-0.1,0-0.3,0-0.4c0.1-0.2,0.3-0.3,0.5-0.3c0.1,0,0.2,0,0.3,0.1l13.7,7.7C84.5,88.8,84.6,88.9,84.7,89.1z M80,92.3l-2,3.6
			L68,90.2l2-3.6L80,92.3z M72.8,63.9L72.8,63.9L72.8,63.9L72.8,63.9z"/>
	</g>
	<path class="st0" d="M60,120C26.9,120,0,93.1,0,60C0,26.9,26.9,0,60,0c33.1,0,60,26.9,60,60C120,93.1,93.1,120,60,120z M60,3.1
		C28.6,3.1,3.1,28.6,3.1,60s25.5,56.9,56.9,56.9s56.9-25.5,56.9-56.9S91.4,3.1,60,3.1z"/>
</g>
</svg>
