<?xml version="1.0" encoding="utf-8"?>
<!-- Generator: Adobe Illustrator 21.1.0, SVG Export Plug-In . SVG Version: 6.00 Build 0)  -->
<svg version="1.1" id="Capa_1" xmlns="http://www.w3.org/2000/svg" xmlns:xlink="http://www.w3.org/1999/xlink" x="0px" y="0px"
	 viewBox="0 0 30.8 30.8" style="enable-background:new 0 0 30.8 30.8;" xml:space="preserve">
<style type="text/css">
	.st0{fill:#606161;}
</style>
<path class="st0" d="M15.4,0C6.9,0,0,6.9,0,15.4s6.9,15.4,15.4,15.4s15.4-6.9,15.4-15.4S23.9,0,15.4,0z M15.4,27.6
	c-1.1,0-2.5-2.5-3.2-6.6c2.1-0.1,4.3-0.1,6.4,0C17.9,25.1,16.5,27.6,15.4,27.6z M11.9,18.6c-0.1-1-0.1-2-0.1-3.2
	c0-1.1,0.1-2.1,0.1-3.1c1.1,0.1,2.3,0.1,3.4,0.1c1.2,0,2.5,0,3.7-0.1c0.1,1,0.1,2,0.1,3.1c0,1.1-0.1,2.2-0.1,3.1
	C16.6,18.4,14.2,18.4,11.9,18.6z M2.5,15.4c0-1.5,0.3-3,0.8-4.4c2,0.5,4,0.8,6.2,1c-0.1,1.1-0.2,2.2-0.2,3.3c0,1.1,0.1,2.3,0.2,3.4
	c-2.1,0.2-4.2,0.6-6.1,1.1C2.8,18.5,2.5,17,2.5,15.4z M15.4,3.2c1.1,0,2.5,2.5,3.2,6.6c-2.1,0.1-4.3,0.1-6.4,0
	C12.9,5.7,14.4,3.2,15.4,3.2z M21.4,12c2.1-0.2,4.2-0.6,6.1-1.1c0.5,1.4,0.8,2.9,0.8,4.4c0,1.5-0.3,3-0.8,4.4c-2-0.5-4-0.8-6.2-1
	c0.1-1.1,0.2-2.2,0.2-3.4C21.6,14.3,21.5,13.1,21.4,12z M26.4,8.7c-1.7,0.4-3.5,0.7-5.3,0.9c-0.4-2.7-1.2-5-2.3-6.6
	C22,3.8,24.7,5.9,26.4,8.7z M12,2.9c-1.1,1.6-1.8,4-2.3,6.7C7.9,9.4,6.1,9.1,4.3,8.7C6,5.9,8.8,3.8,12,2.9z M4.4,22.1
	c1.7-0.4,3.5-0.7,5.3-0.9c0.4,2.7,1.2,5,2.3,6.6C8.8,27,6.1,24.9,4.4,22.1z M18.8,27.9c1.1-1.6,1.8-4,2.3-6.7
	c1.9,0.2,3.7,0.5,5.4,0.9C24.8,24.9,22,27,18.8,27.9z"/>
</svg>
