<?xml version="1.0" encoding="utf-8"?>
<!-- Generator: Adobe Illustrator 21.1.0, SVG Export Plug-In . SVG Version: 6.00 Build 0)  -->
<svg version="1.1" id="Capa_1" xmlns="http://www.w3.org/2000/svg" xmlns:xlink="http://www.w3.org/1999/xlink" x="0px" y="0px"
	 viewBox="0 0 27.7 20" style="enable-background:new 0 0 27.7 20;" xml:space="preserve">
<style type="text/css">
	.st0{fill:#606161;}
</style>
<g>
	<path class="st0" d="M23.1,0H4.6C2.1,0,0,2.1,0,4.6v10.8C0,17.9,2.1,20,4.6,20h18.5c2.5,0,4.6-2.1,4.6-4.6V4.6
		C27.7,2.1,25.7,0,23.1,0z M21.8,2.5l-7.8,7l-7.8-7H21.8z M25.3,15.4c0,1.2-1,2.1-2.1,2.1H4.6c-1.2,0-2.1-1-2.1-2.1V4.6
		C2.5,4,2.7,3.4,3.2,3c0.1,0.1,0.1,0.2,0.2,0.3l9.8,8.7c0.2,0.2,0.5,0.3,0.8,0.3c0.3,0,0.6-0.1,0.8-0.3l9.5-8.5
		c0.1-0.1,0.2-0.3,0.3-0.4C25,3.5,25.3,4,25.3,4.6V15.4z"/>
	<path class="st0" d="M8.2,10.3l-5.1,4.8c-0.5,0.5-0.5,1.2,0,1.7c0.2,0.3,0.6,0.4,0.9,0.4c0.3,0,0.6-0.1,0.9-0.3l5.1-4.8
		c0.5-0.5,0.5-1.2,0-1.7C9.5,9.8,8.7,9.8,8.2,10.3z"/>
	<path class="st0" d="M19.4,10.4c-0.5-0.5-1.3-0.4-1.7,0.1c-0.5,0.5-0.4,1.3,0.1,1.7l5.2,4.7c0.2,0.2,0.5,0.3,0.8,0.3
		c0.3,0,0.7-0.1,0.9-0.4c0.5-0.5,0.4-1.3-0.1-1.7L19.4,10.4z"/>
</g>
</svg>
