<?xml version="1.0" encoding="utf-8"?>
<!-- Generator: Adobe Illustrator 21.1.0, SVG Export Plug-In . SVG Version: 6.00 Build 0)  -->
<svg version="1.1" id="Capa_1" xmlns="http://www.w3.org/2000/svg" xmlns:xlink="http://www.w3.org/1999/xlink" x="0px" y="0px"
	 viewBox="0 0 120 120" style="enable-background:new 0 0 120 120;" xml:space="preserve">
<style type="text/css">
	.st0{fill:url(#SVGID_1_);}
	.st1{fill:url(#SVGID_2_);}
	.st2{fill:url(#SVGID_3_);}
</style>
<g>
	<radialGradient id="SVGID_1_" cx="57.0853" cy="73.1602" r="35.5975" gradientUnits="userSpaceOnUse">
		<stop  offset="0.2228" style="stop-color:#8F2F77"/>
		<stop  offset="1" style="stop-color:#62154A"/>
	</radialGradient>
	<path class="st0" d="M98.1,48.3c-0.7-0.4-1.5-0.4-2.1,0.1L72.8,62.8l-0.2,0.1l-0.6,0.8l0.7,0.3L72,63.9l-1.4,9.3L45.8,48.6
		c-4.1-4.1-10.7-4.1-14.8,0L15.7,63.9c-1,1-1,2.6,0,3.5c1,1,2.6,1,3.5,0l15.3-15.3c2.1-2.1,5.6-2.1,7.7,0l25.6,25.5
		c-0.5,0.3-0.9,0.8-1.3,1.3L51.9,64.1c-4.1-4.1-10.7-4.1-14.8,0L21.8,79.4c-1,1-1,2.6,0,3.5c1,1,2.6,1,3.5,0l15.3-15.3
		c1-1,2.4-1.6,3.9-1.6c1.5,0,2.8,0.6,3.9,1.6L66,85.3L63.3,90c-0.3,0.5-0.3,1-0.2,1.6c0.2,0.5,0.5,1,1,1.3l13.7,7.7
		c0.3,0.2,0.7,0.3,1,0.3c0.7,0,1.4-0.4,1.8-1.1l3.3-5.8c1.8,0.1,3.5-0.8,4.3-2.4c0.6-1.1,0.8-2.4,0.4-3.6c-0.1-0.3-0.2-0.5-0.3-0.8
		l9.8-8.2l0.3-0.3l-0.6-0.4h0l0.8,0.2l0.2-0.6c0-0.1,0-0.1,0-0.2l0.3-27.5C99.2,49.4,98.8,48.7,98.1,48.3z M78,95.9L68,90.2l2-3.6
		L80,92.3L78,95.9z M84.6,89.5c-0.1,0.1-0.2,0.2-0.3,0.3c-0.1,0-0.3,0-0.4,0L70.2,82c-0.1-0.1-0.2-0.2-0.3-0.3l0,0
		c0-0.1,0-0.3,0-0.4c0.1-0.2,0.3-0.3,0.5-0.3c0.1,0,0.2,0,0.3,0.1l13.7,7.7c0.1,0.1,0.2,0.2,0.3,0.3C84.7,89.2,84.7,89.4,84.6,89.5z
		 M94.7,73.9L93.2,73c-1-0.6-2.3-0.2-2.8,0.8c-0.6,1-0.2,2.3,0.8,2.8l1.9,1.1l-7.9,6.7L74,78.1l1.6-10.3l1.9,1.1
		c1,0.6,2.3,0.2,2.8-0.8c0.3-0.5,0.3-1,0.2-1.6c-0.2-0.5-0.5-1-1-1.3L78,64.5l13.3-8.3l-5.7,10.1c-1.8-0.1-3.5,0.8-4.3,2.4
		c-0.6,1.1-0.8,2.4-0.4,3.6c0.3,1.2,1.1,2.2,2.2,2.8c1.1,0.6,2.4,0.8,3.6,0.4c1.2-0.3,2.2-1.1,2.8-2.2c0.9-1.6,0.8-3.5-0.2-5
		l5.7-10.1L94.7,73.9z"/>
	<radialGradient id="SVGID_2_" cx="60" cy="60" r="60" gradientUnits="userSpaceOnUse">
		<stop  offset="0.2228" style="stop-color:#8F2F77"/>
		<stop  offset="1" style="stop-color:#62154A"/>
	</radialGradient>
	<path class="st1" d="M60,0C26.9,0,0,26.9,0,60c0,33.1,26.9,60,60,60c33.1,0,60-26.9,60-60C120,26.9,93.1,0,60,0z M60,116.9
		C28.6,116.9,3.1,91.4,3.1,60S28.6,3.1,60,3.1s56.9,25.5,56.9,56.9S91.4,116.9,60,116.9z"/>
	<radialGradient id="SVGID_3_" cx="55.9385" cy="33.173" r="13.6451" gradientUnits="userSpaceOnUse">
		<stop  offset="0.2228" style="stop-color:#8F2F77"/>
		<stop  offset="1" style="stop-color:#62154A"/>
	</radialGradient>
	<path class="st2" d="M50.9,45.9c1.9,0.9,3.9,1.3,6,1.3c1.6,0,3.2-0.3,4.8-0.9c2.9-1,5.3-3,7-5.6c0.5-0.7,0.5-1.6,0.2-2.4
		S67.8,37.1,67,37c-3.3-0.5-6.1-2.8-7.3-5.9c-1-2.7-0.6-5.6,1-8c0.5-0.7,0.5-1.6,0.2-2.4c-0.3-0.8-1.1-1.3-1.9-1.4
		c-2.4-0.4-4.7-0.1-6.9,0.6c-3.5,1.3-6.4,3.9-8,7.3s-1.8,7.2-0.5,10.8C44.9,41.5,47.5,44.3,50.9,45.9z M48.6,29.3
		c1-2.2,2.9-3.9,5.2-4.7c0.3-0.1,0.6-0.2,0.9-0.3C53.9,27.1,54,30,55,32.8c1.3,3.5,3.8,6.2,7.1,7.8c-0.6,0.5-1.4,0.8-2.1,1.1
		c-2.3,0.8-4.8,0.7-7-0.3c-2.2-1-3.9-2.9-4.7-5.2C47.5,34,47.6,31.5,48.6,29.3z"/>
</g>
</svg>
