<?xml version="1.0" encoding="utf-8"?>
<!-- Generator: Adobe Illustrator 21.1.0, SVG Export Plug-In . SVG Version: 6.00 Build 0)  -->
<svg version="1.1" id="Capa_1" xmlns="http://www.w3.org/2000/svg" xmlns:xlink="http://www.w3.org/1999/xlink" x="0px" y="0px"
	 viewBox="0 0 24.3 28.3" style="enable-background:new 0 0 24.3 28.3;" xml:space="preserve">
<style type="text/css">
	.st0{fill:#606161;}
</style>
<path class="st0" d="M19.6,4.1c-2.6,0-4.7,2.1-4.7,4.7c0,0.3,0,0.6,0.1,0.9l-4.8,1.9c-0.6-0.6-1.3-1.2-2.1-1.5l0.2-0.6
	c0.1,0,0.1,0,0.2,0c2.6,0,4.7-2.1,4.7-4.7S11,0,8.4,0S3.7,2.1,3.7,4.7c0,1.7,0.9,3.1,2.2,4l-0.3,1C2.5,9.8,0,12.4,0,15.5
	c0,3.2,2.6,5.9,5.9,5.9c1,0,2-0.3,2.8-0.7l1.6,1.4c-0.5,1.4-0.3,3.1,0.7,4.4c0.8,1,1.9,1.6,3.1,1.8c0.2,0,0.4,0,0.6,0
	c1,0,2-0.3,2.9-1c2.1-1.6,2.5-4.6,0.9-6.6c-1.6-2.1-4.6-2.5-6.6-0.9c-0.1,0.1-0.1,0.1-0.2,0.2l-1.1-1c0.7-1,1.2-2.2,1.2-3.5
	c0-0.6-0.1-1.2-0.3-1.8l4.6-1.9c0.9,1,2.1,1.6,3.5,1.6c2.6,0,4.7-2.1,4.7-4.7S22.2,4.1,19.6,4.1z M8.4,2.5c1.2,0,2.3,1,2.3,2.3
	S9.7,7,8.4,7S6.2,6,6.2,4.7S7.2,2.5,8.4,2.5z M2.5,15.5c0-1.9,1.5-3.4,3.4-3.4c0.1,0,0.2,0,0.2,0c0,0,0,0,0.1,0c0.1,0,0.2,0,0.3,0
	c0,0,0.1,0,0.1,0c1.5,0.3,2.6,1.7,2.6,3.3c0,1.9-1.5,3.4-3.4,3.4S2.5,17.4,2.5,15.5z M13.3,21.8c0.4-0.3,0.9-0.5,1.4-0.5
	c0.1,0,0.2,0,0.3,0c0.6,0.1,1.1,0.4,1.5,0.9c0.8,1,0.6,2.4-0.4,3.2c-0.5,0.4-1.1,0.5-1.7,0.5c-0.6-0.1-1.1-0.4-1.5-0.9
	C12.2,23.9,12.3,22.5,13.3,21.8z M19.6,11c-1.2,0-2.3-1-2.3-2.3s1-2.3,2.3-2.3s2.3,1,2.3,2.3S20.8,11,19.6,11z"/>
</svg>
