<?xml version="1.0" encoding="utf-8"?>
<!-- Generator: Adobe Illustrator 21.1.0, SVG Export Plug-In . SVG Version: 6.00 Build 0)  -->
<svg version="1.1" id="Capa_1" xmlns="http://www.w3.org/2000/svg" xmlns:xlink="http://www.w3.org/1999/xlink" x="0px" y="0px"
	 viewBox="0 0 71.7 153.9" style="enable-background:new 0 0 71.7 153.9;" xml:space="preserve">
<style type="text/css">
	.st0{fill:url(#SVGID_1_);}
	.st1{fill:#FFFFFF;}
</style>
<g>
	<radialGradient id="SVGID_1_" cx="35.8551" cy="76.941" r="60.0229" gradientUnits="userSpaceOnUse">
		<stop  offset="0.4143" style="stop-color:#178943"/>
		<stop  offset="0.9772" style="stop-color:#0C6B37"/>
	</radialGradient>
	<polyline class="st0" points="71.7,0 71.7,144 0,153.9 0,0 	"/>
	<g>
		<g>
			<path class="st1" d="M53.6,86.7c-0.2-0.3-0.6-0.4-0.9-0.4c0,0,0,0,0,0c-0.1,0-0.3,0-0.4,0.1l-0.8-4c-0.3-1.4-1.3-2.5-2.6-2.8
				l-13-3.3l-3.1,3.1l3.3,13c0.3,1.3,1.4,2.4,2.8,2.7l4,0.8c-0.1,0.1-0.1,0.3-0.1,0.4c0,0.4,0.2,0.7,0.4,0.9l4.5,4.2
				c0.2,0.2,0.6,0.3,0.9,0.3c0.3,0,0.7-0.1,0.9-0.4l8.2-8.2c0.5-0.5,0.5-1.3,0-1.8L53.6,86.7z M44.5,93.3l-5-0.9
				c-0.4-0.1-0.7-0.4-0.8-0.8L36,81.2l4.6,4.6c-0.2,0.8,0,1.7,0.6,2.3c1,1,2.5,1,3.5,0c1-1,1-2.5,0-3.5c-0.6-0.6-1.5-0.8-2.3-0.6
				l-4.6-4.6l10.4,2.7c0.4,0.1,0.7,0.4,0.8,0.8l0.9,5c0.1,0.3,0,0.7-0.3,0.9L45.4,93C45.2,93.3,44.8,93.4,44.5,93.3z"/>
			<path class="st1" d="M16.3,87.5l-0.8-2.1c0.1,0,7.8-3.2,15-9.8c7.2-6.5,9.7-13.2,9.7-13.2l2.1,0.8c-0.1,0.3-2.7,7.2-10.3,14.1
				C24.4,84.1,16.6,87.3,16.3,87.5z"/>
			<path class="st1" d="M17.8,88.5c-0.5,0.5-1.4,0.5-1.9,0L14,86.6c-0.5-0.5-0.5-1.4,0-1.9l1.9-1.9c0.5-0.5,1.4-0.5,1.9,0l1.9,1.9
				c0.5,0.5,0.5,1.4,0,1.9L17.8,88.5z"/>
			<path class="st1" d="M42.1,65.6c-0.5,0.5-1.4,0.5-1.9,0l-1.9-1.9c-0.5-0.5-0.5-1.4,0-1.9l1.9-1.9c0.5-0.5,1.4-0.5,1.9,0l1.9,1.9
				c0.5,0.5,0.5,1.4,0,1.9L42.1,65.6z"/>
		</g>
	</g>
</g>
</svg>
