<?xml version="1.0" encoding="utf-8"?>
<!-- Generator: Adobe Illustrator 22.1.0, SVG Export Plug-In . SVG Version: 6.00 Build 0)  -->
<svg version="1.1" id="Capa_1" xmlns="http://www.w3.org/2000/svg" xmlns:xlink="http://www.w3.org/1999/xlink" x="0px" y="0px"
	 viewBox="0 0 55 58.8" style="enable-background:new 0 0 55 58.8;" xml:space="preserve">
<style type="text/css">
	.st0{fill:#606161;}
	.st1{fill:none;stroke:#606161;stroke-width:2;stroke-miterlimit:10;}
</style>
<g>
	<path class="st0" d="M27.6,5.7L27.6,5.7L27.6,5.7L27.6,5.7L10.4,43.9h6.3l3.6-8.6c0.3,0,3.8,0,7.3,0c3.5,0,7,0,7.3,0l3.6,8.6h0h6.3
		L27.6,5.7z M31.9,30.1c-0.4,0-0.8,0-1.2,0c-0.3,0-0.5,0-0.8,0c-0.2,0-0.4,0-0.6,0c-0.3,0-0.6,0-0.9,0c0,0-0.1,0-0.1,0
		c-2.9,0-2.5,0-5.7,0l5.1-12.1v0l5.1,12.1C32.4,30.1,32.1,30.1,31.9,30.1z"/>
</g>
<polygon class="st1" points="27.6,1.1 53.9,10.4 49.9,44.6 27.6,57.7 5.1,45 1.1,10.4 "/>
</svg>
