<?xml version="1.0" encoding="utf-8"?>
<!-- Generator: Adobe Illustrator 21.1.0, SVG Export Plug-In . SVG Version: 6.00 Build 0)  -->
<svg version="1.1" id="Capa_1" xmlns="http://www.w3.org/2000/svg" xmlns:xlink="http://www.w3.org/1999/xlink" x="0px" y="0px"
	 viewBox="0 0 68.2 72.2" style="enable-background:new 0 0 68.2 72.2;" xml:space="preserve">
<style type="text/css">
	.st0{fill:#616262;}
</style>
<g>
	<path class="st0" d="M11.4,10.7h22.8c1.4,0,2.6,1.2,2.6,2.6v0.9h-28v-0.9C8.7,11.9,9.9,10.7,11.4,10.7L11.4,10.7z M8.7,16h28v1.8
		h1.8v-4.4c0-2.4-2-4.4-4.4-4.4H11.4C9,9,7,11,7,13.4v39.4h1.8V16L8.7,16z"/>
	<path class="st0" d="M8.7,56.3h28v2.6c0,1.4-1.2,2.6-2.6,2.6H11.4c-1.4,0-2.6-1.2-2.6-2.6V56.3L8.7,56.3z M7,58.9
		c0,2.4,2,4.4,4.4,4.4h22.8c2.4,0,4.4-2,4.4-4.4v-4.4H7V58.9L7,58.9z"/>
	<polygon class="st0" points="18.4,58 27.1,58 27.1,59.8 18.4,59.8 18.4,58 	"/>
	<path class="st0" d="M46.4,44.9c-1.9,0-3.5-1.6-3.5-3.5c0-1.9,1.6-3.5,3.5-3.5c1.9,0,3.5,1.6,3.5,3.5
		C49.9,43.3,48.3,44.9,46.4,44.9L46.4,44.9z M46.4,36.1c-2.9,0-5.3,2.4-5.3,5.3s2.4,5.3,5.3,5.3c2.9,0,5.3-2.4,5.3-5.3
		S49.3,36.1,46.4,36.1L46.4,36.1z"/>
	<path class="st0" d="M21.9,31.7c-1.4,0-2.6-1.2-2.6-2.6c0-1.4,1.2-2.6,2.6-2.6c1.4,0,2.6,1.2,2.6,2.6
		C24.5,30.6,23.3,31.7,21.9,31.7L21.9,31.7z M21.9,24.7c-2.4,0-4.4,2-4.4,4.4s2,4.4,4.4,4.4s4.4-2,4.4-4.4S24.3,24.7,21.9,24.7
		L21.9,24.7z"/>
	<path class="st0" d="M25,37.3c0.2-0.1,0.3-0.1,0.5-0.2l2.7,1.8l3.5-3.5l-1.8-2.7c0.1-0.2,0.1-0.3,0.2-0.5l3.2-0.6v-4.9L30.1,26
		c-0.1-0.3-0.3-0.6-0.4-1l-1.5,0.8c0.2,0.4,0.4,0.8,0.5,1.2l0.2,0.5l2.8,0.6v2.1l-2.8,0.6l-0.2,0.5c-0.1,0.4-0.3,0.8-0.5,1.2
		l-0.2,0.5l1.6,2.4l-1.5,1.5l-2.4-1.6l-0.5,0.2c-0.4,0.2-0.8,0.4-1.2,0.5L23.5,36l-0.6,2.8h-2.1L20.3,36l-0.5-0.2
		c-0.4-0.1-0.8-0.3-1.2-0.5l-0.5-0.2l-2.4,1.6l-2-2l-1.2,1.2l3,3l2.7-1.8c0.2,0.1,0.3,0.1,0.5,0.2l0.6,3.2h4.9L25,37.3L25,37.3z"/>
	<path class="st0" d="M10.5,26.7v4.9l3.2,0.6c0.1,0.3,0.3,0.6,0.4,1l1.5-0.8c-0.2-0.4-0.4-0.8-0.5-1.2L15,30.7l-2.8-0.6v-2.1
		l2.8-0.6l0.2-0.5c0.1-0.4,0.3-0.8,0.5-1.2l0.2-0.5L14.3,23l1.5-1.5l2.4,1.6l0.5-0.2c0.4-0.2,0.8-0.4,1.2-0.5l0.5-0.2l0.6-2.8h2.1
		l0.6,2.8l0.5,0.2c0.4,0.1,0.8,0.3,1.2,0.5l0.5,0.2l2.4-1.6l2,2l1.2-1.2l-3-3l-2.7,1.8c-0.2-0.1-0.3-0.1-0.5-0.2l-0.6-3.2h-4.9
		l-0.6,3.2c-0.2,0.1-0.3,0.1-0.5,0.2l-2.7-1.8l-3.5,3.5l1.8,2.7c-0.1,0.2-0.1,0.3-0.2,0.5L10.5,26.7L10.5,26.7z"/>
	<polygon class="st0" points="21,42.3 22.7,42.3 22.7,44 21,44 21,42.3 	"/>
	<polygon class="st0" points="21,45.8 22.7,45.8 22.7,47.5 21,47.5 21,45.8 	"/>
	<polygon class="st0" points="21,49.3 22.7,49.3 22.7,51 21,51 21,49.3 	"/>
	<polygon class="st0" points="45.5,23 47.3,23 47.3,24.7 45.5,24.7 45.5,23 	"/>
	<polygon class="st0" points="45.5,19.5 47.3,19.5 47.3,21.2 45.5,21.2 45.5,19.5 	"/>
	<polygon class="st0" points="45.5,16 47.3,16 47.3,17.7 45.5,17.7 45.5,16 	"/>
	<path class="st0" d="M61.3,44.7V38l-4.3-0.9c-0.1-0.3-0.2-0.5-0.3-0.8L55,37.2c0.2,0.3,0.3,0.7,0.4,1l0.2,0.5l3.9,0.8v3.8l-3.9,0.8
		l-0.2,0.5c-0.1,0.3-0.3,0.7-0.4,1L54.8,46l2.2,3.3L54.3,52L51,49.8L50.6,50c-0.3,0.2-0.7,0.3-1,0.4l-0.5,0.2l-0.8,3.9h-3.8
		l-0.8-3.9l-0.5-0.2c-0.3-0.1-0.7-0.3-1-0.4l-0.5-0.2L38.4,52l-3.2-3.2L34,50l4.2,4.2l3.7-2.4c0.1,0,0.2,0.1,0.3,0.1l0.9,4.3h6.7
		l0.9-4.3c0.1,0,0.2-0.1,0.3-0.1l3.7,2.4l4.7-4.7l-2.4-3.7c0-0.1,0.1-0.2,0.1-0.3L61.3,44.7L61.3,44.7z"/>
	<path class="st0" d="M33.5,33.2l2.4,3.7c0,0.1-0.1,0.2-0.1,0.3L31.5,38v6.7l4.3,0.9c0.1,0.3,0.2,0.5,0.3,0.7l1.6-0.8
		c-0.2-0.3-0.3-0.7-0.4-1l-0.2-0.5l-3.9-0.8v-3.8l3.9-0.8l0.2-0.5c0.1-0.3,0.3-0.7,0.4-1l0.2-0.5l-2.2-3.3l2.7-2.7l3.3,2.2l0.5-0.2
		c0.3-0.2,0.7-0.3,1-0.4l0.5-0.2l0.8-3.9h3.8l0.8,3.9l0.5,0.2c0.3,0.1,0.7,0.3,1,0.4l0.5,0.2l3.3-2.2l3.2,3.2l1.2-1.2l-4.2-4.2
		l-3.7,2.4c-0.1,0-0.2-0.1-0.3-0.1l-0.9-4.3H43l-0.9,4.3c-0.1,0-0.2,0.1-0.3,0.1l-3.7-2.4L33.5,33.2L33.5,33.2z"/>
</g>
</svg>
