<?xml version="1.0" encoding="utf-8"?>
<!-- Generator: Adobe Illustrator 21.1.0, SVG Export Plug-In . SVG Version: 6.00 Build 0)  -->
<svg version="1.1" id="Capa_1" xmlns="http://www.w3.org/2000/svg" xmlns:xlink="http://www.w3.org/1999/xlink" x="0px" y="0px"
	 viewBox="0 0 650.2 111" style="enable-background:new 0 0 650.2 111;" xml:space="preserve">
<style type="text/css">
	.st0{fill:#FFFFFF;}
	.st1{font-family:'Titillium-Regular';}
	.st2{font-size:16px;}
</style>
<g>
	<g>
		<text transform="matrix(1 0 0 1 0 106.4391)" class="st0 st1 st2">NODEJS</text>
		<text transform="matrix(1 0 0 1 177.5596 106.4391)" class="st0 st1 st2">ANGULARJS</text>
		<text transform="matrix(1 0 0 1 399.3545 106.4391)" class="st0 st1 st2">VUE.js</text>
		<text transform="matrix(1 0 0 1 590.9023 106.4391)" class="st0 st1 st2">REACtJS</text>
	</g>
	<g>
		<g>
			<g>
				<path class="st0" d="M425.1,55.3l-28.8-50h22.3l6.5,11.5l6.6-11.5h21.7L425.1,55.3z M399.7,7.3l25.4,44l24.9-44h-17.1l-7.8,13.5
					l-7.7-13.5H399.7z"/>
				<polygon class="st0" points="406.8,6.3 425.1,37.4 443.1,6.3 432.3,6.3 425.1,18.8 418,6.3 				"/>
			</g>
			<g>
				<circle class="st0" cx="620.2" cy="32.4" r="5.4"/>
				<path class="st0" d="M620.2,44.3c-16.8,0-30-5.4-30-12.2s13.2-12.2,30-12.2s30,5.4,30,12.2S637,44.3,620.2,44.3z M620.2,21.9
					c-16.7,0-28,5.3-28,10.2s11.3,10.2,28,10.2s28-5.3,28-10.2S636.9,21.9,620.2,21.9z"/>
				<path class="st0" d="M632.2,58.9c-2.6,0-5.8-1.4-9.3-4.2c-4.7-3.8-9.4-9.6-13.3-16.4c-8.4-14.6-10.4-28.7-4.4-32.1
					c3-1.7,7.3-0.5,12.2,3.5c4.7,3.8,9.4,9.6,13.3,16.4c8.4,14.6,10.4,28.7,4.4,32.1C634.3,58.6,633.3,58.9,632.2,58.9z M608.1,7.4
					c-0.7,0-1.4,0.2-2,0.5c-4.3,2.5-3.2,14.8,5.2,29.3c3.8,6.6,8.4,12.2,12.9,15.8c4.2,3.4,7.8,4.6,10,3.3
					c4.3-2.5,3.2-14.8-5.2-29.3c-3.8-6.6-8.4-12.2-12.9-15.8C613.1,8.7,610.3,7.4,608.1,7.4z"/>
				<path class="st0" d="M608.1,58.9c-1.1,0-2.1-0.2-3-0.8c-5.9-3.4-4-17.5,4.4-32.1c3.9-6.8,8.7-12.6,13.3-16.4
					c4.9-4,9.3-5.2,12.2-3.5c5.9,3.4,4,17.5-4.4,32.1c-3.9,6.8-8.7,12.6-13.3,16.4C613.9,57.4,610.7,58.9,608.1,58.9z M632.2,7.4
					c-2.1,0-4.9,1.3-8,3.8c-4.5,3.6-9,9.2-12.9,15.8c-8.4,14.5-9.4,26.9-5.2,29.3c2.2,1.3,5.8,0.1,10-3.3c4.5-3.6,9-9.2,12.9-15.8
					c8.4-14.5,9.4-26.9,5.2-29.3C633.6,7.6,632.9,7.4,632.2,7.4z"/>
			</g>
		</g>
		<g>
			<g>
				<g>
					<path class="st0" d="M219.2,5.7L219.2,5.7L219.2,5.7L219.2,5.7L202,43.9h6.3l3.6-8.6c0.3,0,3.8,0,7.3,0s7,0,7.3,0l3.6,8.6l0,0
						h6.3L219.2,5.7z M223.5,30.1c-0.4,0-0.8,0-1.2,0c-0.3,0-0.5,0-0.8,0c-0.2,0-0.4,0-0.6,0c-0.3,0-0.6,0-0.9,0h-0.1
						c-2.9,0-2.5,0-5.7,0l5.1-12.1l0,0l5.1,12.1C224,30.1,223.7,30.1,223.5,30.1z"/>
				</g>
				<path class="st0" d="M219.2,58.8l-23.4-13.2l-4.2-35.9L219.2,0l0.3,0.1l27.1,9.6l-4.2,35.5L219.2,58.8z M197.7,44.3l21.6,12.2
					L240.6,44l3.8-32.9l-25.2-8.9L193.8,11L197.7,44.3z"/>
			</g>
			<g>
				<path class="st0" d="M28.3,63.9c-0.8,0-1.6-0.2-2.5-0.7C24.9,62.6,24,62,23,61.5c-0.5-0.2-1-0.5-1.4-0.8
					c-0.3-0.2-0.5-0.3-0.8-0.5l1-1.7c0.3,0.2,0.6,0.3,0.8,0.5c0.4,0.3,0.9,0.5,1.3,0.8c1,0.6,2,1.2,2.9,1.8c0.5,0.3,1,0.4,1.4,0.4
					c0.4,0,1-0.1,1.5-0.4c7.9-4.7,15.2-8.9,23-13.3c1.3-0.7,1.8-1.6,1.8-3V18.7c0-1.2-0.5-2-1.5-2.6c-7.8-4.5-15.4-8.9-23.3-13.5
					c-0.6-0.3-1-0.5-1.4-0.5c-0.4,0-1,0.1-1.5,0.4c-6.5,3.8-13.1,7.6-19.4,11.2l-4,2.3c-1,0.6-1.5,1.5-1.5,2.6v26.7
					c0,1.2,0.5,2,1.5,2.6c1.1,0.6,2.2,1.2,3.2,1.9c0.4,0.2,0.9,0.5,1.3,0.7c0.4,0.2,0.8,0.5,1.3,0.7c1.1,0.7,2.2,1,3.3,1
					c0.2,0,0.5,0,0.7,0l0.1,0c2.2-0.4,3.6-2.1,3.7-4.5l0-26.2h2v26.2c-0.1,3.3-2.2,5.8-5.3,6.4c-0.4,0.1-0.9,0.1-1.2,0.1
					c-1.5,0-3-0.4-4.3-1.2c-0.4-0.2-0.9-0.5-1.3-0.7c-0.4-0.2-0.8-0.5-1.3-0.7l-0.1-0.1c-0.9-0.7-2-1.2-3.1-1.8
					C0.8,48.7,0,47.2,0,45.3V18.6c0-1.9,0.8-3.3,2.5-4.4l4-2.3c6.3-3.6,12.8-7.3,19.4-11.2c0.8-0.4,1.7-0.6,2.4-0.6
					c0.8,0,1.5,0.2,2.4,0.7c7.8,4.6,15.5,9,23.3,13.5c1.7,1,2.5,2.5,2.5,4.4v26.5c0,2.2-0.9,3.7-2.8,4.8c-7.7,4.4-15,8.6-23,13.3
					C29.9,63.7,29,63.9,28.3,63.9z"/>
				<path class="st0" d="M35.8,44.8c-1.7,0-3.2-0.1-4.6-0.4c-3.9-0.8-6.6-3.3-6.6-6.1h2c0,1.8,2.1,3.6,5,4.1
					c1.3,0.3,2.7,0.4,4.2,0.4c1.4,0,2.8-0.2,4.4-0.5c2.3-0.5,3.6-1.8,4-3.9c0.3-1.8-0.4-2.9-2-3.7c-1.8-0.8-3.5-1.1-5.6-1.3
					c-0.3-0.1-0.6-0.1-0.8-0.1c-0.3,0-0.6-0.1-0.9-0.1c-1.9-0.2-3.9-0.4-5.7-1c-3.6-1.1-4.2-3-4.3-4.6c-0.2-3,0.9-5,3.3-6.3
					c1.4-0.8,3.2-1.2,5.3-1.3l1.8,0c2.5,0,4.5,0.4,6.2,1.1c2.3,1,3.7,2.9,3.7,5.1h-2c0-1.9-1.6-2.9-2.5-3.3
					c-1.4-0.6-3.2-0.9-5.4-0.9h-1.7c-1.8,0.1-3.2,0.4-4.4,1.1c-1.8,0.9-2.5,2.2-2.3,4.3c0.1,0.8,0.1,2,2.9,2.8
					c1.6,0.6,3.4,0.8,5.3,1c0.3,0.1,0.6,0.1,0.8,0.1c0.3,0,0.6,0.1,0.9,0.1c2.2,0.2,4.1,0.6,6.1,1.5c3,1.5,3.3,4,3.1,5.9
					c-0.5,2.9-2.4,4.8-5.6,5.5C38.8,44.7,37.3,44.8,35.8,44.8z"/>
			</g>
		</g>
	</g>
</g>
</svg>
