<?xml version="1.0" encoding="utf-8"?>
<!-- Generator: Adobe Illustrator 21.1.0, SVG Export Plug-In . SVG Version: 6.00 Build 0)  -->
<svg version="1.1" id="Capa_1" xmlns="http://www.w3.org/2000/svg" xmlns:xlink="http://www.w3.org/1999/xlink" x="0px" y="0px"
	 viewBox="0 0 68.2 72.2" style="enable-background:new 0 0 68.2 72.2;" xml:space="preserve">
<style type="text/css">
	.st0{fill:#616262;}
</style>
<g>
	<path class="st0" d="M53.2,19.3c-0.6,0-1.1,0.5-1.1,1.1c0,0.6,0.5,1.1,1.1,1.1c0.6,0,1.1-0.5,1.1-1.1
		C54.2,19.7,53.8,19.3,53.2,19.3L53.2,19.3z"/>
	<path class="st0" d="M15.1,19.3c-0.6,0-1.1,0.5-1.1,1.1c0,0.6,0.5,1.1,1.1,1.1c0.6,0,1.1-0.5,1.1-1.1
		C16.2,19.7,15.7,19.3,15.1,19.3L15.1,19.3z"/>
	<path class="st0" d="M59.6,36.6h-2.2v-2.2h1c0,0,0,0,0,0c0,0,0,0,0,0h1.2V36.6L59.6,36.6z M60.7,32.2h-1.3
		c-0.4-3.1-1.4-6.1-2.9-8.8c-0.3-0.5-0.9-0.7-1.5-0.4c-0.5,0.3-0.7,0.9-0.4,1.5c1.4,2.4,2.2,5,2.6,7.8h-0.9c-0.6,0-1.1,0.5-1.1,1.1
		v4.3c0,0.6,0.5,1.1,1.1,1.1h4.3c0.6,0,1.1-0.5,1.1-1.1v-4.3C61.8,32.7,61.3,32.2,60.7,32.2L60.7,32.2z"/>
	<path class="st0" d="M41.4,54.5c-0.2,0.2-0.5,0.3-0.8,0.3h-13c-0.6,0-1.1-0.5-1.1-1.1c0-0.3,0.1-0.6,0.3-0.8
		c0.2-0.2,0.5-0.3,0.8-0.3h13c0,0,0,0,0,0c0,0,0,0,0,0c0.6,0,1.1,0.5,1.1,1.1C41.7,54,41.6,54.3,41.4,54.5L41.4,54.5z M28.7,61.6V57
		h10.8v4.7H28.7L28.7,61.6z M34.1,39c0.6,0,1.1,0.5,1.1,1.1s-0.5,1.1-1.1,1.1c-0.6,0-1.1-0.5-1.1-1.1S33.5,39,34.1,39L34.1,39z
		 M40.6,41.2h2.8l-3.5,9.3H28.4l-3.5-9.3h2.8c0.6,0,1.1-0.5,1.1-1.1S28.2,39,27.6,39h-2.5L33,24.6v12.5c-1.3,0.4-2.2,1.6-2.2,3.1
		c0,1.8,1.5,3.2,3.2,3.2c1.8,0,3.2-1.5,3.2-3.2c0-1.4-0.9-2.6-2.2-3.1V24.6L43.1,39h-2.5c-0.6,0-1.1,0.5-1.1,1.1S40,41.2,40.6,41.2
		L40.6,41.2z M46,40.1C46,40.1,46,40.1,46,40.1c0-0.1,0-0.1,0-0.1c0,0,0,0,0,0c0,0,0-0.1,0-0.1c0,0,0,0,0,0c0,0,0-0.1,0-0.1
		c0,0,0,0,0,0c0,0,0-0.1-0.1-0.1L35.1,19.8c-0.2-0.3-0.6-0.6-0.9-0.6c-0.4,0-0.8,0.2-0.9,0.6L22.4,39.6c0,0,0,0.1-0.1,0.1
		c0,0,0,0,0,0c0,0,0,0.1,0,0.1c0,0,0,0,0,0c0,0,0,0.1,0,0.1c0,0,0,0,0,0c0,0,0,0,0,0.1c0,0,0,0,0,0.1c0,0,0,0,0,0c0,0,0,0,0,0
		c0,0,0,0,0,0.1c0,0,0,0,0,0.1c0,0,0,0,0,0c0,0,0,0,0,0.1c0,0,0,0,0,0c0,0,0,0,0,0.1c0,0,0,0,0,0l3.9,10.3c-0.3,0.2-0.6,0.4-0.9,0.6
		c-0.6,0.6-1,1.4-1,2.3c0,1.4,0.9,2.6,2.2,3.1v5.9c0,0.6,0.5,1.1,1.1,1.1h13c0.6,0,1.1-0.5,1.1-1.1v-5.9c0.5-0.2,0.9-0.4,1.2-0.8
		c0.6-0.6,1-1.4,1-2.3c0-1.3-0.7-2.4-1.8-2.9L46,40.5c0,0,0,0,0,0c0,0,0,0,0-0.1c0,0,0,0,0,0c0,0,0,0,0-0.1c0,0,0,0,0,0
		c0,0,0,0,0-0.1C46,40.2,46,40.2,46,40.1C46,40.1,46,40.1,46,40.1C46,40.1,46,40.1,46,40.1L46,40.1z"/>
	<path class="st0" d="M10.8,36.6H8.6v-2.2h1.2c0,0,0,0,0,0c0,0,0,0,0,0h1V36.6L10.8,36.6z M13.2,23c-0.5-0.3-1.2-0.1-1.5,0.4
		c-1.5,2.8-2.5,5.7-2.9,8.8H7.5c-0.6,0-1.1,0.5-1.1,1.1v4.3c0,0.6,0.5,1.1,1.1,1.1h4.3c0.6,0,1.1-0.5,1.1-1.1v-4.3
		c0-0.6-0.5-1.1-1.1-1.1H11c0.4-2.7,1.3-5.4,2.6-7.8C13.9,23.9,13.7,23.3,13.2,23L13.2,23z"/>
	<path class="st0" d="M35.2,12.8H33v-1v-0.1v-1.1h2.2v1.1v0.1V12.8L35.2,12.8z M9.7,12.8c-0.6,0-1.1-0.5-1.1-1.1
		c0-0.6,0.5-1.1,1.1-1.1c0.6,0,1.1,0.5,1.1,1.1C10.8,12.3,10.3,12.8,9.7,12.8L9.7,12.8z M58.6,10.6c0.6,0,1.1,0.5,1.1,1.1
		c0,0.6-0.5,1.1-1.1,1.1c-0.6,0-1.1-0.5-1.1-1.1C57.5,11.1,58,10.6,58.6,10.6L58.6,10.6z M50.8,16.5c-1.7-1.5-3.9-2.7-6.2-3.7h10.9
		c0.4,1.3,1.6,2.2,3.1,2.2c1.8,0,3.2-1.5,3.2-3.2c0-1.8-1.5-3.2-3.2-3.2c-1.4,0-2.6,0.9-3.1,2.2H37.4V9.5c0-0.6-0.5-1.1-1.1-1.1H32
		c-0.6,0-1.1,0.5-1.1,1.1v1.1H12.7c-0.4-1.3-1.6-2.2-3.1-2.2c-1.8,0-3.2,1.5-3.2,3.2c0,1.8,1.5,3.2,3.2,3.2c1.4,0,2.6-0.9,3.1-2.2
		h10.9c-2.3,1-4.4,2.2-6.2,3.7c-0.5,0.4-0.5,1.1-0.1,1.5c0.2,0.3,0.5,0.4,0.8,0.4c0.2,0,0.5-0.1,0.7-0.3c3.1-2.6,7.5-4.5,12-5.1v0.9
		c0,0.6,0.5,1.1,1.1,1.1h4.3c0.6,0,1.1-0.5,1.1-1.1V13c4.5,0.6,8.9,2.5,12,5.1c0.2,0.2,0.5,0.3,0.7,0.3c0.3,0,0.6-0.1,0.8-0.4
		C51.3,17.5,51.3,16.8,50.8,16.5L50.8,16.5z"/>
</g>
</svg>
