<?xml version="1.0" encoding="utf-8"?>
<!-- Generator: Adobe Illustrator 22.1.0, SVG Export Plug-In . SVG Version: 6.00 Build 0)  -->
<svg version="1.1" id="Capa_1" xmlns="http://www.w3.org/2000/svg" xmlns:xlink="http://www.w3.org/1999/xlink" x="0px" y="0px"
	 viewBox="0 0 60 69.7" style="enable-background:new 0 0 60 69.7;" xml:space="preserve">
<style type="text/css">
	.st0{fill:none;stroke:#606161;stroke-width:2;stroke-miterlimit:10;}
</style>
<g>
	<path class="st0" d="M39.2,41.3c3.2,0,7.6-4.5,9.6-5.6c3.8-2.1,6.3,1.9,5.5,7c0,0-1.1,7-5,6.8s-7.8-6.7-10.5-6.2
		c0,0-2.3,0.3-5.6,2.6s-11.3,6.9-16.6,3.6s-5-14.7,6.2-14.7C30.1,34.8,36,41.3,39.2,41.3z"/>
	<path class="st0" d="M32.9,55.4c0,0,1.2-3.8,5.7-3.8s5.2,3.8,5.2,3.8"/>
	<path class="st0" d="M26.6,58.5c0,0,3.2,3.4,8.3,3.1c5.1-0.3,8.2-3.1,8.2-3.1"/>
	<path class="st0" d="M20.4,14.1C9.6,19.2,1,28.4,1,40.6c0,15.5,13,28.1,29,28.1s29-12.6,29-28.1c0-13.3-9.6-24.5-22.4-27.3
		c0,0-5.3-1-9.6-9.7C27,3.6,26.2,11.4,20.4,14.1z"/>
</g>
</svg>
