<?xml version="1.0" encoding="utf-8"?>
<!-- Generator: Adobe Illustrator 21.1.0, SVG Export Plug-In . SVG Version: 6.00 Build 0)  -->
<svg version="1.1" id="Capa_1" xmlns="http://www.w3.org/2000/svg" xmlns:xlink="http://www.w3.org/1999/xlink" x="0px" y="0px"
	 viewBox="0 0 68.2 72.2" style="enable-background:new 0 0 68.2 72.2;" xml:space="preserve">
<style type="text/css">
	.st0{fill:none;stroke:#616262;stroke-width:2;stroke-miterlimit:10;}
</style>
<g>
	<g>
		<path class="st0" d="M37.5,44.6c0,0-0.1,0-0.1,0c-1.1,0.4-2.2,0.6-3.3,0.6c-1.1,0-2.3-0.2-3.3-0.6c0,0,0,0-0.1,0
			c-3.5-1.4-5.8-4.7-5.8-8.5c0-2.8,1.3-5.4,3.4-7.1c0.7-0.5,1.6-0.1,1.6,0.8v5.8c0,0.2,0.1,0.4,0.3,0.4l3.6,2c0.1,0,0.2,0.1,0.3,0.1
			c0.1,0,0.2,0,0.3-0.1l3.6-2c0.2-0.1,0.3-0.3,0.3-0.4v-5.8c0-0.9,1-1.3,1.6-0.8c2.2,1.7,3.4,4.3,3.4,7.1
			C43.3,39.9,41,43.2,37.5,44.6L37.5,44.6z M37.2,56.4h-6.1v-8.5c1,0.3,2,0.4,3,0.4c1,0,2-0.1,3-0.4V56.4L37.2,56.4z M51.2,38.4
			c0.1-0.8,0.2-1.5,0.2-2.3s-0.1-1.5-0.2-2.3l4.8-4c0.6-0.5,0.7-1.3,0.4-1.9l-4.1-7c-0.4-0.6-1.2-0.9-1.9-0.7l-5.8,2.2
			c-1.2-0.9-2.5-1.7-3.9-2.3l-1-6.1c-0.1-0.7-0.8-1.3-1.5-1.3h-8.1c-0.7,0-1.4,0.5-1.5,1.3l-1,6.1c-1.4,0.6-2.7,1.3-3.9,2.3
			l-5.8-2.2c-0.7-0.3-1.5,0-1.9,0.7l-4.1,7c-0.4,0.6-0.2,1.5,0.4,1.9l4.8,4c-0.1,0.8-0.2,1.5-0.2,2.3s0.1,1.5,0.2,2.3l-4.8,4
			c-0.6,0.5-0.7,1.3-0.4,1.9l4.1,7c0.4,0.6,1.2,0.9,1.9,0.7l5.8-2.2c1.2,0.9,2.5,1.7,3.9,2.3l1,6.2c0.1,0.7,0.8,1.3,1.5,1.3
			c3,0,5.1,0,8.1,0c0.7,0,1.4-0.5,1.5-1.3l1-6.2c1.4-0.6,2.7-1.3,3.9-2.3l5.8,2.2c0.7,0.3,1.5,0,1.9-0.7l4.1-7
			c0.4-0.6,0.2-1.5-0.4-1.9L51.2,38.4L51.2,38.4z"/>
	</g>
</g>
</svg>
