<?xml version="1.0" encoding="utf-8"?>
<!-- Generator: Adobe Illustrator 21.1.0, SVG Export Plug-In . SVG Version: 6.00 Build 0)  -->
<svg version="1.1" id="Capa_1" xmlns="http://www.w3.org/2000/svg" xmlns:xlink="http://www.w3.org/1999/xlink" x="0px" y="0px"
	 viewBox="0 0 220.9 68.6" style="enable-background:new 0 0 220.9 68.6;" xml:space="preserve">
<style type="text/css">
	.st0{fill:#FFFFFF;}
</style>
<g>
	<g>
		<g>
			<ellipse transform="matrix(0.1633 -0.9866 0.9866 0.1633 20.4354 38.9759)" class="st0" cx="33.2" cy="7.4" rx="7.4" ry="7.4"/>
			<ellipse transform="matrix(0.1633 -0.9866 0.9866 0.1633 -32.542 83.9082)" class="st0" cx="33.2" cy="61.1" rx="7.4" ry="7.4"/>
			<g>
				<path class="st0" d="M4.8,41.7c0-12.1,8-22.4,19-25.8c-0.3-0.3-0.6-0.7-0.9-1.1c-2-2.7-2.7-6.1-2.2-9.4c0.1-0.4,0.2-0.9,0.3-1.3
					C8.7,9,0,21,0,35.1c0,12.4,6.8,23.3,16.9,29.1C9.6,59.4,4.8,51.1,4.8,41.7z"/>
			</g>
			<g>
				<path class="st0" d="M20.7,59.1c0.4-2.2,1.3-4.2,2.6-5.9C15.7,50.4,10.3,43,10.3,34.4c0-6.9,3.5-13,8.8-16.6
					C10.5,22.4,4.7,31.4,4.7,41.7c0,11.5,7.1,21.2,17.2,25.2C20.7,64.5,20.3,61.8,20.7,59.1z"/>
			</g>
		</g>
		<g>
			<g>
				<g>
					<path class="st0" d="M188.7,38c-3.3,3.3-7.3,5-12,5c-4.7,0-8.7-1.7-12.1-5c-3.3-3.3-4.9-7.3-4.9-12.1c0-4.7,1.7-8.8,4.9-12.1
						c3.4-3.3,7.4-5,12.1-5c4.7,0,8.7,1.7,12,5c3.3,3.3,5,7.4,5,12.1C193.7,30.6,192,34.7,188.7,38z M184.5,18.1
						c-2.2-2.2-4.8-3.3-7.8-3.3c-3.1,0-5.7,1.1-7.8,3.3c-2.2,2.2-3.3,4.8-3.3,7.8c0,3,1.1,5.7,3.3,7.8c2.2,2.2,4.8,3.3,7.8,3.3
						c3,0,5.6-1.1,7.8-3.3c2.2-2.1,3.3-4.8,3.3-7.8C187.7,22.9,186.6,20.3,184.5,18.1z"/>
					<g>
						<path class="st0" d="M214.9,24.5c-0.8-0.1-1.6-0.3-2.3-0.5c-0.8-0.2-1.5-0.3-2.3-0.5c-0.8-0.2-1.6-0.3-2.4-0.5
							c-0.8-0.2-1.6-0.3-2.3-0.5c-2.9-0.6-4.3-1.9-4.3-3.7c0-1.3,0.7-2.3,2.1-3c1.3-0.6,2.8-1,4.4-1c1.8,0,3.3,0.3,4.5,1
							c1.4,0.8,2.1,2.1,2.1,4.1c0,0,2.5,0,2.6,0c1.6,0,2.9-1.3,2.9-2.9c0-0.2-0.1-0.6-0.2-1.1c-0.6-2-1.8-3.5-3.6-4.7
							c-2.4-1.6-5.1-2.4-8.2-2.4c-3.1,0-5.8,0.8-8.2,2.4c-2.8,1.9-4.2,4.4-4.2,7.5c0,4.2,2,7,5.9,8.5c0.8,0.2,1.6,0.4,2.4,0.6
							c0.8,0.2,1.7,0.4,2.5,0.5l0,0c0.8,0.2,1.6,0.3,2.4,0.5c0.8,0.2,1.6,0.3,2.4,0.5v0c2.8,0.7,4.3,1.9,4.3,3.6
							c0,1.4-0.8,2.5-2.3,3.2c-1.3,0.6-2.9,0.9-4.9,0.9c-1.9,0-3.6-0.3-4.9-1l0,0c-1-0.5-1.6-1.2-2-2.1c0,0-0.1-0.2-0.1-0.2
							c0,0,0-0.1,0-0.1c-0.4-1.1-1.5-1.9-2.7-1.9c0,0,0,0,0,0h-3.4c0,4,1.5,6.9,4.6,8.8c2.4,1.5,5.3,2.3,8.6,2.3
							c3.3,0,6.1-0.8,8.6-2.3c3.1-1.9,4.6-4.5,4.6-7.8C220.9,28.9,218.9,26.1,214.9,24.5z"/>
						<path class="st0" d="M219.8,17C219.8,17,219.8,17,219.8,17c0,0.1,0,0.1,0,0.2V17z"/>
					</g>
					<path class="st0" d="M130.5,9.7C130.4,9.7,130.4,9.7,130.5,9.7L130.5,9.7h-3V31l-14.1-20c0,0-0.1-0.1-0.1-0.1l-0.1-0.1l0,0
						c-0.5-0.7-1.4-1.1-2.3-1.1c0,0,0,0,0,0l0,0H107v8.9v17.6v3.1c0,1.6,1.3,2.9,2.9,3l0,0h3v-3c0,0,0,0,0,0V20.9l14,19.8v0
						c0.5,0.9,1.5,1.5,2.6,1.5c0,0,0,0,0.1,0l0,0h3.8v-8.9V14.3v-1.6C133.4,11,132.1,9.7,130.5,9.7z"/>
					<path class="st0" d="M104.1,12.6c0-1.6-1.3-3-2.9-3H85.7h-5v15.7v13.4v0.5c0,1.6,1.3,3,2.9,3c0,0,0,0,0,0v0h20.4v-2.7l0,0
						c0-0.1,0-0.2,0-0.3c0-1.6-1.3-3-2.9-3l-14.5,0v-7.4h0.7h0h10c0,0,0,0,0,0h2.9V26c0,0,0,0,0-0.1c0-1.6-1.3-3-2.9-3h-0.7h-10
						v-7.4h17.5V12.6L104.1,12.6C104.1,12.6,104.1,12.6,104.1,12.6z"/>
					<path class="st0" d="M159.7,12.6c0-1.6-1.3-3-3-3h-15.4h-5v15.7v13.4v0.5c0,1.6,1.3,3,2.9,3l0,0v0h20.4v-2.7l0,0
						c0-0.1,0-0.2,0-0.3c0-1.6-1.3-3-3-3l-14.5,0v-7.4h0.7h0h10c0,0,0,0,0,0h2.9V26c0,0,0,0,0-0.1c0-1.6-1.3-3-3-3h-0.7h-10v-7.4
						h17.5V12.6L159.7,12.6C159.7,12.6,159.7,12.6,159.7,12.6z"/>
					<path class="st0" d="M74.9,23l-10.6,0c0,0,0,3,0,3c0,1.6,1.3,3,2.9,3h4.6v4.3c-2.2,2.6-5.1,3.9-8.6,3.9c-3.1,0-5.7-1.1-7.9-3.3
						c-2.2-2.2-3.3-4.8-3.3-7.8c0-3,1.1-5.6,3.3-7.8c2.2-2.2,4.8-3.3,7.9-3.3c1.8,0,3.5,0.5,5.2,1.4c0.9,0.5,1.8,1.1,2.6,1.8
						c0,0,0.1,0.1,0.2,0.1l0.3,0.3c0.9,0.8,2.1,0.9,3.2,0.4c0,0,0.1,0,0.1,0l0.5-0.3c0,0,0,0,0.1,0l2.6-1.8
						c-1.9-2.5-4.1-4.4-6.6-5.7c-2.6-1.4-5.2-2.1-7.9-2.1c-4.8,0-8.8,1.7-12.2,5.1c-3.3,3.3-5,7.3-5,12c0,4.7,1.7,8.7,5,12.1
						c3.4,3.3,7.5,5,12.2,5c1.4,0,2.8-0.2,4.2-0.5c1.4-0.3,2.7-0.9,3.9-1.5c1.2-0.7,2.4-1.5,3.5-2.4c1-0.9,1.9-1.9,2.7-3.1
						c0-0.1,0.3-0.7,0.3-0.7s0-8.7,0-8.8C77.9,24.3,76.6,23,74.9,23z"/>
				</g>
				<g>
					<path class="st0" d="M55.8,56.6c-0.5,0.1-1.3,0.2-2,0.2c-2.2,0-2.6-1.3-2.6-3.7c0-2.4,0.5-3.7,2.6-3.7c0.7,0,1.5,0.1,2,0.2
						l0,0.7c-0.5-0.1-1.3-0.2-1.9-0.2c-1.6,0-1.9,1-1.9,3c0,2,0.3,3,1.9,3c0.6,0,1.4-0.1,1.9-0.2L55.8,56.6z"/>
					<path class="st0" d="M57.1,53.1c0-2.4,0.6-3.8,2.8-3.8c2.2,0,2.9,1.3,2.9,3.8c0,2.5-0.6,3.7-2.9,3.7
						C57.7,56.8,57.1,55.6,57.1,53.1z M61.9,53.1c0-2-0.4-3-2-3c-1.7,0-2,1.1-2,3c0,2,0.4,3,2,3C61.6,56.1,61.9,55.2,61.9,53.1z"/>
					<path class="st0" d="M64.3,53.1c0-2.4,0.6-3.8,2.8-3.8s2.9,1.3,2.9,3.8c0,2.5-0.6,3.7-2.9,3.7C64.9,56.8,64.3,55.6,64.3,53.1z
						 M69.1,53.1c0-2-0.4-3-2-3c-1.7,0-2,1.1-2,3c0,2,0.4,3,2,3C68.8,56.1,69.1,55.2,69.1,53.1z"/>
					<path class="st0" d="M72.5,54.3v2.4h-0.8v-7.2h2.6c1.6,0,2.3,0.8,2.3,2.3c0,1.6-0.7,2.5-2.3,2.5H72.5z M74.4,53.6
						c1.1,0,1.5-0.6,1.5-1.8c0-1.1-0.4-1.6-1.5-1.6h-1.8v3.4H74.4z"/>
					<path class="st0" d="M78.2,49.5h4.4v0.7H79v2.5h3v0.7h-3V56h3.6v0.7h-4.4V49.5z"/>
					<path class="st0" d="M85.1,54v2.8h-0.8v-7.2H87c1.5,0,2.3,0.7,2.3,2.2c0,1.1-0.4,1.8-1.3,2.1l1.4,2.9h-0.9L87.2,54H85.1z
						 M87,50.2h-1.9v3H87c1.1,0,1.5-0.6,1.5-1.6C88.5,50.7,88,50.2,87,50.2z"/>
					<path class="st0" d="M92.3,49.5h1.8l2,7.2h-0.8l-0.5-1.9h-3.1l-0.5,1.9h-0.8L92.3,49.5z M91.8,54.1h2.7l-1.1-4h-0.5L91.8,54.1z
						"/>
					<path class="st0" d="M96.3,49.5h5.2v0.7h-2.2v6.5h-0.8v-6.5h-2.2V49.5z"/>
					<path class="st0" d="M102.8,49.5h0.8v7.2h-0.8V49.5z"/>
					<path class="st0" d="M110.6,49.5l-1.9,7.2h-1.8l-1.9-7.2h0.8l1.7,6.5h0.6l1.7-6.5H110.6z"/>
					<path class="st0" d="M113.1,49.5h1.8l2,7.2h-0.8l-0.5-1.9h-3.1l-0.5,1.9h-0.8L113.1,49.5z M112.6,54.1h2.7l-1.1-4h-0.5
						L112.6,54.1z"/>
					<path class="st0" d="M120.9,56.7v-7.2h2.6c2.1,0,2.7,1.5,2.7,3.5c0,2.1-0.5,3.7-2.7,3.7H120.9z M123.5,50.2h-1.8V56h1.8
						c1.5,0,1.8-1.4,1.8-3C125.3,51.4,125,50.2,123.5,50.2z"/>
					<path class="st0" d="M127.9,49.5h4.4v0.7h-3.6v2.5h3v0.7h-3V56h3.6v0.7h-4.4V49.5z"/>
					<path class="st0" d="M140.7,50.3c0,0-1.4-0.2-2.1-0.2c-1,0-1.6,0.4-1.6,1.2c0,0.9,0.5,1.1,1.8,1.4c1.4,0.3,2.1,0.7,2.1,1.9
						c0,1.6-0.9,2.2-2.3,2.2c-0.9,0-2.3-0.2-2.3-0.2l0.1-0.7c0,0,1.4,0.2,2.2,0.2c1,0,1.5-0.4,1.5-1.5c0-0.8-0.4-1-1.6-1.3
						c-1.5-0.3-2.2-0.7-2.2-2.1c0-1.4,0.9-1.9,2.3-1.9c0.9,0,2.2,0.2,2.2,0.2L140.7,50.3z"/>
					<path class="st0" d="M142.3,53.1c0-2.4,0.6-3.8,2.8-3.8s2.9,1.3,2.9,3.8c0,2.5-0.6,3.7-2.9,3.7
						C142.9,56.8,142.3,55.6,142.3,53.1z M147.2,53.1c0-2-0.4-3-2-3c-1.7,0-2,1.1-2,3c0,2,0.4,3,2,3
						C146.8,56.1,147.2,55.2,147.2,53.1z"/>
					<path class="st0" d="M149.8,49.5h4.3v0.7h-3.5V53h3v0.7h-3v3h-0.8V49.5z"/>
					<path class="st0" d="M154.8,49.5h5.2v0.7h-2.2v6.5H157v-6.5h-2.2V49.5z"/>
					<path class="st0" d="M161.6,49.5l1.2,6.5h0.3l1.5-6.5h0.9L167,56h0.3l1.2-6.5h0.8l-1.5,7.2h-1.5l-1.4-6.2l-1.4,6.2h-1.5
						l-1.5-7.2H161.6z"/>
					<path class="st0" d="M172,49.5h1.8l2,7.2H175l-0.5-1.9h-3.1l-0.5,1.9H170L172,49.5z M171.5,54.1h2.7l-1.1-4h-0.5L171.5,54.1z"
						/>
					<path class="st0" d="M178,54v2.8h-0.8v-7.2h2.7c1.5,0,2.3,0.7,2.3,2.2c0,1.1-0.4,1.8-1.3,2.1l1.4,2.9h-0.9l-1.3-2.8H178z
						 M179.9,50.2H178v3h1.9c1.1,0,1.5-0.6,1.5-1.6C181.4,50.7,180.9,50.2,179.9,50.2z"/>
					<path class="st0" d="M183.9,49.5h4.4v0.7h-3.6v2.5h3v0.7h-3V56h3.6v0.7h-4.4V49.5z"/>
					<path class="st0" d="M192.6,56.7v-7.2h0.8V56h3.2v0.7H192.6z"/>
					<path class="st0" d="M197.9,49.5h0.8v7.2h-0.8V49.5z"/>
					<path class="st0" d="M203.4,49.5c1.4,0,2.1,0.6,2.1,1.8c0,0.9-0.3,1.4-0.9,1.7c0.6,0.2,1.1,0.7,1.1,1.7c0,1.5-0.9,2-2.2,2h-2.8
						v-7.2H203.4z M201.6,50.2v2.5h1.9c0.9,0,1.3-0.4,1.3-1.3c0-0.8-0.4-1.2-1.4-1.2H201.6z M201.6,53.4V56h1.9
						c0.9,0,1.4-0.3,1.4-1.3c0-1.1-0.9-1.3-1.5-1.3H201.6z"/>
					<path class="st0" d="M208.3,54v2.8h-0.8v-7.2h2.7c1.5,0,2.3,0.7,2.3,2.2c0,1.1-0.4,1.8-1.3,2.1l1.4,2.9h-0.9l-1.3-2.8H208.3z
						 M210.2,50.2h-1.9v3h1.9c1.1,0,1.5-0.6,1.5-1.6C211.7,50.7,211.2,50.2,210.2,50.2z"/>
					<path class="st0" d="M214.3,49.5h4.4v0.7h-3.6v2.5h3v0.7h-3V56h3.6v0.7h-4.4V49.5z"/>
				</g>
			</g>
		</g>
	</g>
</g>
</svg>
