<?xml version="1.0" encoding="utf-8"?>
<!-- Generator: Adobe Illustrator 21.1.0, SVG Export Plug-In . SVG Version: 6.00 Build 0)  -->
<svg version="1.1" id="Capa_1" xmlns="http://www.w3.org/2000/svg" xmlns:xlink="http://www.w3.org/1999/xlink" x="0px" y="0px"
	 viewBox="0 0 221.4 69.6" style="enable-background:new 0 0 221.4 69.6;" xml:space="preserve">
<style type="text/css">
	.st0{fill:#FFFFFF;}
	.st1{font-family:'Titillium-Regular';}
	.st2{font-size:10.4593px;}
</style>
<g>
	<g>
		<g>
			<path class="st0" d="M33.7,15.9c-0.4,0-0.9,0-1.3-0.1c-2.1-0.3-3.9-1.5-5.1-3.2c-1.2-1.7-1.7-3.8-1.4-5.9
				c0.3-2.1,1.5-3.9,3.2-5.2c1.7-1.2,3.8-1.7,5.9-1.4c4.3,0.7,7.2,4.8,6.5,9.1l0,0C40.9,13.1,37.5,15.9,33.7,15.9z M33.7,1
				c-1.4,0-2.8,0.4-4,1.3c-1.5,1.1-2.5,2.7-2.8,4.5s0.1,3.7,1.2,5.2c1.1,1.5,2.7,2.5,4.5,2.8c3.8,0.6,7.3-1.9,8-5.7
				c0.6-3.8-1.9-7.4-5.7-8C34.4,1,34.1,1,33.7,1z"/>
			<path class="st0" d="M33.7,69.6c-0.4,0-0.9,0-1.3-0.1c-2.1-0.3-3.9-1.5-5.1-3.2c-1.2-1.7-1.7-3.8-1.4-5.9
				c0.7-4.3,4.8-7.3,9.1-6.5c4.3,0.7,7.2,4.8,6.5,9.1c-0.3,2.1-1.5,3.9-3.2,5.2C36.9,69.1,35.3,69.6,33.7,69.6z M33.7,54.7
				c-3.3,0-6.3,2.4-6.8,5.8c-0.3,1.8,0.1,3.7,1.2,5.2c1.1,1.5,2.7,2.5,4.5,2.8c1.8,0.3,3.7-0.1,5.2-1.2s2.5-2.7,2.8-4.5
				c0.6-3.8-1.9-7.4-5.7-8C34.4,54.7,34.1,54.7,33.7,54.7z"/>
			<g>
				<path class="st0" d="M17.1,65.1C6.6,59.1,0,47.8,0,35.6c0-14,8.4-26.3,21.3-31.5l0.9-0.4l-0.3,1c-0.1,0.4-0.2,0.9-0.3,1.3
					c-0.5,3.2,0.2,6.4,2.1,9.1c0.3,0.4,0.5,0.7,0.8,1.1l0.5,0.6l-0.7,0.2C13.3,20.3,5.8,30.5,5.8,42.2c0,8.9,4.4,17.2,11.9,22.1
					L17.1,65.1z M20.8,5.4C8.7,10.6,1,22.4,1,35.6C1,44,4.2,52,9.8,58c-3.2-4.6-5-10.1-5-15.8c0-11.9,7.5-22.3,18.7-26
					c-0.1-0.2-0.3-0.4-0.4-0.6c-2-2.9-2.8-6.3-2.3-9.8C20.8,5.7,20.8,5.5,20.8,5.4z"/>
			</g>
			<g>
				<g>
					<path class="st0" d="M23.5,68.3l-1.2-0.5C11.6,63.7,4.7,53.6,4.7,42.2c0-10.2,5.6-19.5,14.6-24.3l0.5,0.9
						c-5.4,3.6-8.6,9.7-8.6,16.1c0,8.1,5.1,15.5,12.8,18.3l0.7,0.2L24.3,54c-1.3,1.6-2.2,3.6-2.5,5.7c-0.4,2.6,0,5.2,1.1,7.5
						L23.5,68.3z M14.3,22.6c-5.4,5-8.6,12-8.6,19.6c0,10.6,6.1,20,15.7,24.2c-0.9-2.2-1.1-4.6-0.7-6.9l0,0c0.3-2,1.1-3.9,2.3-5.6
						c-7.7-3.1-12.8-10.7-12.8-19C10.3,30.4,11.7,26.1,14.3,22.6z"/>
				</g>
			</g>
		</g>
		<g>
			<g>
				<g>
					<path class="st0" d="M189.2,38.5c-3.3,3.3-7.3,5-12,5c-4.7,0-8.7-1.7-12.1-5c-3.3-3.3-4.9-7.3-4.9-12.1c0-4.7,1.7-8.8,4.9-12.1
						c3.4-3.3,7.4-5,12.1-5c4.7,0,8.7,1.7,12,5c3.3,3.3,5,7.4,5,12.1C194.2,31.1,192.5,35.2,189.2,38.5z M185,18.6
						c-2.2-2.2-4.8-3.3-7.8-3.3c-3.1,0-5.7,1.1-7.8,3.3c-2.2,2.2-3.3,4.8-3.3,7.8c0,3,1.1,5.7,3.3,7.8c2.2,2.2,4.8,3.3,7.8,3.3
						c3,0,5.6-1.1,7.8-3.3c2.2-2.1,3.3-4.8,3.3-7.8C188.2,23.4,187.1,20.8,185,18.6z"/>
					<g>
						<path class="st0" d="M215.4,25c-0.8-0.1-1.6-0.3-2.3-0.5c-0.8-0.2-1.5-0.3-2.3-0.5c-0.8-0.2-1.6-0.3-2.4-0.5
							c-0.8-0.2-1.6-0.3-2.3-0.5c-2.9-0.6-4.3-1.9-4.3-3.7c0-1.3,0.7-2.3,2.1-3c1.3-0.6,2.8-1,4.4-1c1.8,0,3.3,0.3,4.5,1
							c1.4,0.8,2.1,2.1,2.1,4.1c0,0,2.5,0,2.6,0c1.6,0,2.9-1.3,2.9-2.9c0-0.2-0.1-0.6-0.2-1.1c-0.6-2-1.8-3.5-3.6-4.7
							c-2.4-1.6-5.1-2.4-8.2-2.4c-3.1,0-5.8,0.8-8.2,2.4c-2.8,1.9-4.2,4.4-4.2,7.5c0,4.2,2,7,5.9,8.5c0.8,0.2,1.6,0.4,2.4,0.6
							c0.8,0.2,1.7,0.4,2.5,0.5l0,0c0.8,0.2,1.6,0.3,2.4,0.5c0.8,0.2,1.6,0.3,2.4,0.5v0c2.8,0.7,4.3,1.9,4.3,3.6
							c0,1.4-0.8,2.5-2.3,3.2c-1.3,0.6-2.9,0.9-4.9,0.9c-1.9,0-3.6-0.3-4.9-1l0,0c-1-0.5-1.6-1.2-2-2.1c0,0-0.1-0.2-0.1-0.2
							c0,0,0-0.1,0-0.1c-0.4-1.1-1.5-1.9-2.7-1.9c0,0,0,0,0,0H195c0,4,1.5,6.9,4.6,8.8c2.4,1.5,5.3,2.3,8.6,2.3
							c3.3,0,6.1-0.8,8.6-2.3c3.1-1.9,4.6-4.5,4.6-7.8C221.4,29.4,219.4,26.6,215.4,25z"/>
						<path class="st0" d="M220.3,17.5C220.3,17.5,220.3,17.5,220.3,17.5c0,0.1,0,0.1,0,0.2V17.5z"/>
					</g>
					<path class="st0" d="M131,10.2C130.9,10.2,130.9,10.2,131,10.2L131,10.2h-3v21.3l-14.1-20c0,0-0.1-0.1-0.1-0.1l-0.1-0.1l0,0
						c-0.5-0.7-1.4-1.1-2.3-1.1c0,0,0,0,0,0l0,0h-3.8v8.9v17.6v3.1c0,1.6,1.3,2.9,2.9,3l0,0h3v-3c0,0,0,0,0,0V21.4l14,19.8v0
						c0.5,0.9,1.5,1.5,2.6,1.5c0,0,0,0,0.1,0l0,0h3.8v-8.9V14.8v-1.6C133.9,11.5,132.6,10.2,131,10.2z"/>
					<path class="st0" d="M104.6,13.1c0-1.6-1.3-3-2.9-3H86.2h-5v15.7v13.4v0.5c0,1.6,1.3,3,2.9,3c0,0,0,0,0,0v0h20.4V40l0,0
						c0-0.1,0-0.2,0-0.3c0-1.6-1.3-3-2.9-3l-14.5,0v-7.4h0.7h0h10c0,0,0,0,0,0h2.9v-2.9c0,0,0,0,0-0.1c0-1.6-1.3-3-2.9-3h-0.7h-10
						v-7.4h17.5V13.1L104.6,13.1C104.6,13.1,104.6,13.1,104.6,13.1z"/>
					<path class="st0" d="M160.2,13.1c0-1.6-1.3-3-3-3h-15.4h-5v15.7v13.4v0.5c0,1.6,1.3,3,2.9,3l0,0v0h20.4V40l0,0
						c0-0.1,0-0.2,0-0.3c0-1.6-1.3-3-3-3l-14.5,0v-7.4h0.7h0h10c0,0,0,0,0,0h2.9v-2.9c0,0,0,0,0-0.1c0-1.6-1.3-3-3-3h-0.7h-10v-7.4
						h17.5V13.1L160.2,13.1C160.2,13.1,160.2,13.1,160.2,13.1z"/>
					<path class="st0" d="M75.4,23.5l-10.6,0c0,0,0,3,0,3c0,1.6,1.3,3,2.9,3h4.6v4.3c-2.2,2.6-5.1,3.9-8.6,3.9
						c-3.1,0-5.7-1.1-7.9-3.3c-2.2-2.2-3.3-4.8-3.3-7.8c0-3,1.1-5.6,3.3-7.8c2.2-2.2,4.8-3.3,7.9-3.3c1.8,0,3.5,0.5,5.2,1.4
						c0.9,0.5,1.8,1.1,2.6,1.8c0,0,0.1,0.1,0.2,0.1l0.3,0.3c0.9,0.8,2.1,0.9,3.2,0.4c0,0,0.1,0,0.1,0l0.5-0.3c0,0,0,0,0.1,0l2.6-1.8
						c-1.9-2.5-4.1-4.4-6.6-5.7c-2.6-1.4-5.2-2.1-7.9-2.1c-4.8,0-8.8,1.7-12.2,5.1c-3.3,3.3-5,7.3-5,12c0,4.7,1.7,8.7,5,12.1
						c3.4,3.3,7.5,5,12.2,5c1.4,0,2.8-0.2,4.2-0.5c1.4-0.3,2.7-0.9,3.9-1.5c1.2-0.7,2.4-1.5,3.5-2.4c1-0.9,1.9-1.9,2.7-3.1
						c0-0.1,0.3-0.7,0.3-0.7s0-8.7,0-8.8C78.4,24.8,77.1,23.5,75.4,23.5z"/>
				</g>
				<g>
					<text transform="matrix(0.9966 0 0 1 51.1021 57.2213)" class="st0 st1 st2">COOPERATIVA DE SOFTWARE LIBRE</text>
				</g>
			</g>
		</g>
	</g>
</g>
</svg>
