<?xml version="1.0" encoding="utf-8"?>
<!-- Generator: Adobe Illustrator 22.1.0, SVG Export Plug-In . SVG Version: 6.00 Build 0)  -->
<svg version="1.1" id="Capa_1" xmlns="http://www.w3.org/2000/svg" xmlns:xlink="http://www.w3.org/1999/xlink" x="0px" y="0px"
	 viewBox="0 0 77.8 53.1" style="enable-background:new 0 0 77.8 53.1;" xml:space="preserve">
<style type="text/css">
	.st0{fill:#606161;}
	.st1{fill:none;stroke:#606161;stroke-width:2;stroke-miterlimit:10;}
</style>
<g>
	<path class="st0" d="M52.6,0L24.3,2L0,16.2h6.1v18.6c-1.2,1-2,3.7-2,6.7c0,3.9,1.4,7.1,3,7.1l0,0c1.7,0,3-3.2,3-7.1
		c0-3-0.8-5.7-2-6.7V16.2h6.4c-0.2,1-0.3,2-0.3,3c0,1.1,0.1,2.1,0.3,3.1c0.6,0,1.1,0,1.7,0c7.3,0,13.3,1.6,16.2,4
		c1.2-3.6,4.8-8.2,9.4-12.3c0.4-0.4,0.9-0.8,1.3-1.1c-0.7-1.5-1.6-2.8-2.7-4L52.6,0z M38.8,5L29,12.1H15L25.5,6L38.8,5z"/>
	<path class="st1" d="M17,26.2c0,0-1.2,1.2-1.2,5.7s0,20.1,0,20.1h7.9c0,0,0-15.7,0-18.7c0-3,1.6-6.3,1.6-6.3S20.5,26,17,26.2z"/>
	<path class="st1" d="M38.8,23.5l5.6-6.3l2,2c0,0,3.5-5.2,14-5.2s16.4,8.5,16.4,15.9s0,22.1,0,22.1h-7.9c0,0,0-17.1,0-20.9
		s-3.2-9.1-9.3-9.1s-9.3,5-9.3,9.1s0,20.9,0,20.9h-7.7c0,0,0-14,0-18.7S42.4,25.8,38.8,23.5z"/>
</g>
</svg>
