<?xml version="1.0" encoding="utf-8"?>
<!-- Generator: Adobe Illustrator 22.1.0, SVG Export Plug-In . SVG Version: 6.00 Build 0)  -->
<svg version="1.1" id="Capa_1" xmlns="http://www.w3.org/2000/svg" xmlns:xlink="http://www.w3.org/1999/xlink" x="0px" y="0px"
	 viewBox="0 0 56.5 63.8" style="enable-background:new 0 0 56.5 63.8;" xml:space="preserve">
<style type="text/css">
	.st0{fill:none;stroke:#606161;stroke-width:2;stroke-miterlimit:10;}
</style>
<g>
	<path class="st0" d="M21.3,59.2c0.7,0.4,1.4,0.9,2.2,1.3c0.9,0.5,1.9,1.1,2.8,1.7c0.7,0.4,1.3,0.6,2,0.6c0.6,0,1.3-0.2,1.9-0.5
		C39,57.1,46.3,52.9,53.2,49c1.6-0.9,2.3-2.1,2.3-3.9c0-8.1,0-16.7,0-26.5c0-1.6-0.7-2.7-2-3.5c-7.3-4.2-14.9-8.6-23.3-13.5
		C29.5,1.2,28.9,1,28.3,1c-0.6,0-1.3,0.2-1.9,0.5C18.4,6.2,10.5,10.7,3,15c-1.3,0.8-2,1.9-2,3.5c0,8.8,0,17.8,0,26.7
		c0,1.6,0.7,2.7,2,3.5c1.1,0.6,2.2,1.2,3.2,1.9c0.9,0.5,1.7,1,2.6,1.5c1.3,0.8,2.6,1.1,3.8,1.1c0.3,0,0.7,0,1-0.1
		c2.7-0.5,4.4-2.6,4.5-5.4c0-3.6,0-7.2,0-10.9v-4.3c0-1,0-2.1,0-3.1c0-2.6,0-7.9,0-7.9"/>
	<path class="st0" d="M25.6,38.2c0,2.5,2.7,4.5,5.8,5.1c1.5,0.3,3,0.4,4.4,0.4c1.6,0,3.1-0.2,4.6-0.5c3.5-0.8,4.5-3,4.8-4.7
		c0.4-2.8-1.1-4.1-2.5-4.8c-2-0.9-3.9-1.2-5.9-1.4l0,0c-0.6-0.1-1.1-0.1-1.7-0.2c-1.9-0.2-3.8-0.4-5.5-1c-3-0.9-3.5-2.3-3.6-3.7
		c-0.2-2.5,0.6-4.2,2.8-5.3c1.3-0.7,2.9-1.1,4.9-1.2c0.6,0,1.1,0,1.7,0c2.3,0,4.2,0.3,5.8,1c1.9,0.8,3.1,2.3,3.1,4.2"/>
</g>
</svg>
