<?xml version="1.0" encoding="utf-8"?>
<!-- Generator: Adobe Illustrator 22.1.0, SVG Export Plug-In . SVG Version: 6.00 Build 0)  -->
<svg version="1.1" id="Capa_1" xmlns="http://www.w3.org/2000/svg" xmlns:xlink="http://www.w3.org/1999/xlink" x="0px" y="0px"
	 viewBox="0 0 85.9 27.1" style="enable-background:new 0 0 85.9 27.1;" xml:space="preserve">
<style type="text/css">
	.st0{fill:#606161;}
</style>
<g>
	<path class="st0" d="M75.5,27.1c-5.7,0-10.4-4.6-10.4-10.4S69.8,6.4,75.5,6.4c5.7,0,10.4,4.6,10.4,10.4S81.3,27.1,75.5,27.1z
		 M75.5,22.8c3.4,0,6.1-2.7,6.1-6.1s-2.7-6.1-6.1-6.1c-3.4,0-6.1,2.7-6.1,6.1S72.2,22.8,75.5,22.8z M53.8,27.1
		c-5.7,0-10.4-4.6-10.4-10.4S48.1,6.4,53.8,6.4S64.2,11,64.2,16.7S59.6,27.1,53.8,27.1z M53.8,22.8c3.4,0,6.1-2.7,6.1-6.1
		s-2.7-6.1-6.1-6.1c-3.4,0-6.1,2.7-6.1,6.1S50.5,22.8,53.8,22.8z M42.5,16.6c0,5.8-4.6,10.5-10.4,10.5c-5.7,0-10.4-4.7-10.4-10.5
		c0-5.8,4.2-10.2,10.4-10.2c2.3,0,4.4,0.5,6.1,1.7l0-6c0-1.2,1-2.1,2.1-2.1c1.1,0,2.1,0.9,2.1,2.1V16.6z M32.1,22.8
		c3.4,0,6.1-2.7,6.1-6.1s-2.7-6.1-6.1-6.1c-3.4,0-6.1,2.7-6.1,6.1S28.7,22.8,32.1,22.8z"/>
	<path class="st0" d="M10.4,27.1C4.6,27.1,0,22.5,0,16.7S4.6,6.4,10.4,6.4S20.8,11,20.8,16.7S16.1,27.1,10.4,27.1z M10.4,22.8
		c3.4,0,6.1-2.7,6.1-6.1s-2.7-6.1-6.1-6.1s-6.1,2.7-6.1,6.1S7,22.8,10.4,22.8z"/>
</g>
</svg>
