<?xml version="1.0" encoding="utf-8"?>
<!-- Generator: Adobe Illustrator 21.1.0, SVG Export Plug-In . SVG Version: 6.00 Build 0)  -->
<svg version="1.1" id="Capa_1" xmlns="http://www.w3.org/2000/svg" xmlns:xlink="http://www.w3.org/1999/xlink" x="0px" y="0px"
	 viewBox="0 0 68.2 72.2" style="enable-background:new 0 0 68.2 72.2;" xml:space="preserve">
<style type="text/css">
	.st0{fill:#616262;}
</style>
<g>
	<polygon class="st0" points="15.5,30.4 32.5,30.4 32.5,32.1 15.5,32.1 15.5,30.4 	"/>
	<path class="st0" d="M55.2,54.8H13c-1.3,0-2.4-1.1-2.4-2.4v-0.8h47.1v0.8C57.7,53.7,56.6,54.8,55.2,54.8L55.2,54.8z M46.3,59.7
		H21.9v-3.2h24.4V59.7L46.3,59.7z M50.4,36.9c2.2,0,4.1,1.8,4.1,4.1s-1.8,4.1-4.1,4.1s-4.1-1.8-4.1-4.1S48.1,36.9,50.4,36.9
		L50.4,36.9z M12.2,22.5v16.1h15.2c-0.4,0.7-0.6,1.6-0.6,2.4c0,3.1,2.5,5.7,5.7,5.7s5.7-2.5,5.7-5.7c0-0.9-0.2-1.7-0.6-2.4h7v-5.3
		l2.1,3.3c-1.3,1-2.1,2.6-2.1,4.4c0,3.1,2.5,5.7,5.7,5.7c3.1,0,5.7-2.5,5.7-5.7s-2.5-5.7-5.7-5.7c-0.8,0-1.5,0.2-2.2,0.4l-3.1-5
		c1.3-1,2.1-2.6,2.1-4.4c0-1.6-0.7-3-1.7-4.1h9.8c1.3,0,2.4,1.1,2.4,2.4v25.2H10.6V24.8C10.6,23.7,11.3,22.8,12.2,22.5L12.2,22.5z
		 M13.8,12.6h29.2v8.4c-0.5-0.2-1.1-0.2-1.6-0.2v-6.5h-26v14.6h20.8c0.2,0.4,0.4,0.8,0.7,1.2L34,35.5c-0.5-0.1-1-0.2-1.5-0.2
		c-1.5,0-2.9,0.6-4,1.6H13.8V12.6L13.8,12.6z M41.4,30.4c-2.2,0-4.1-1.8-4.1-4.1s1.8-4.1,4.1-4.1c2.2,0,4.1,1.8,4.1,4.1
		S43.7,30.4,41.4,30.4L41.4,30.4z M39.8,20.9c-2.3,0.7-4.1,2.9-4.1,5.4c0,0.3,0,0.5,0.1,0.8H17.1V15.8h22.7V20.9L39.8,20.9z
		 M36.5,36.9c-0.3-0.3-0.6-0.5-1-0.8l2.8-5.1c0.9,0.6,2,1,3.1,1c0.6,0,1.1-0.1,1.6-0.2v5.1H36.5L36.5,36.9z M32.5,36.9
		c2.2,0,4.1,1.8,4.1,4.1s-1.8,4.1-4.1,4.1c-2.2,0-4.1-1.8-4.1-4.1S30.3,36.9,32.5,36.9L32.5,36.9z M55.2,20.7H44.7V11H12.2v9.8
		c-1.8,0.4-3.2,2-3.2,4v27.6c0,2.2,1.8,4.1,4.1,4.1h7.3v3.2h-3.2v1.6h34.1v-1.6h-3.2v-3.2h7.3c2.2,0,4.1-1.8,4.1-4.1V24.8
		C59.3,22.5,57.5,20.7,55.2,20.7L55.2,20.7z"/>
	<polygon class="st0" points="30.9,33.7 32.5,33.7 32.5,35.3 30.9,35.3 30.9,33.7 	"/>
	<polygon class="st0" points="15.5,33.7 29.3,33.7 29.3,35.3 15.5,35.3 15.5,33.7 	"/>
</g>
</svg>
