<?xml version="1.0" encoding="utf-8"?>
<!-- Generator: Adobe Illustrator 21.1.0, SVG Export Plug-In . SVG Version: 6.00 Build 0)  -->
<svg version="1.1" id="Capa_1" xmlns="http://www.w3.org/2000/svg" xmlns:xlink="http://www.w3.org/1999/xlink" x="0px" y="0px"
	 viewBox="0 0 916.9 116" style="enable-background:new 0 0 916.9 116;" xml:space="preserve">
<style type="text/css">
	.st0{fill:#FFFFFF;}
	.st1{font-family:'Titillium-Regular';}
	.st2{font-size:16px;}
</style>
<g>
	<g>
		<path class="st0" d="M695.7,47.3c-5.7,0-10.4-4.6-10.4-10.4s4.6-10.4,10.4-10.4c5.7,0,10.4,4.6,10.4,10.4S701.5,47.3,695.7,47.3z
			 M695.7,43.1c3.4,0,6.1-2.7,6.1-6.1c0-3.4-2.7-6.1-6.1-6.1c-3.4,0-6.1,2.7-6.1,6.1C689.7,40.3,692.4,43.1,695.7,43.1z M674,47.3
			c-5.7,0-10.4-4.6-10.4-10.4s4.6-10.4,10.4-10.4c5.7,0,10.4,4.6,10.4,10.4S679.8,47.3,674,47.3z M674,43.1c3.4,0,6.1-2.7,6.1-6.1
			c0-3.4-2.7-6.1-6.1-6.1c-3.4,0-6.1,2.7-6.1,6.1C667.9,40.3,670.7,43.1,674,43.1z M662.7,36.8c0,5.8-4.6,10.5-10.4,10.5
			c-5.7,0-10.4-4.7-10.4-10.5c0-5.8,4.2-10.2,10.4-10.2c2.3,0,4.4,0.5,6.1,1.7l0-6c0-1.2,1-2.1,2.1-2.1c1.1,0,2.1,0.9,2.1,2.1V36.8z
			 M652.3,43.1c3.4,0,6.1-2.7,6.1-6.1c0-3.4-2.7-6.1-6.1-6.1s-6.1,2.7-6.1,6.1C646.2,40.3,648.9,43.1,652.3,43.1z"/>
		<path class="st0" d="M630.6,47.3c-5.7,0-10.4-4.6-10.4-10.4s4.6-10.4,10.4-10.4S641,31.2,641,37S636.3,47.3,630.6,47.3z
			 M630.6,43.1c3.4,0,6.1-2.7,6.1-6.1c0-3.4-2.7-6.1-6.1-6.1c-3.4,0-6.1,2.7-6.1,6.1C624.5,40.3,627.2,43.1,630.6,43.1z"/>
	</g>
	<g>
		<path class="st0" d="M231.6,51.6c-1.7,0-3.3-0.4-4.8-1.3c-3-1.9-4.5-6.1-3.4-9.9c1.2-4.1,5-6.6,10.1-6.6c4.7,0,8.7,2.4,11.9,4.3
			c1.8,1.1,3.5,2.1,4.5,2.1c1.9,0,4.6-2.1,6.6-3.6c1-0.8,1.9-1.4,2.6-1.8c1.7-0.9,3.4-0.9,4.7,0c1.9,1.4,2.8,4.4,2.2,8
			c0,0.3-1.3,7.9-6.1,7.6c-2.3-0.2-4.5-2.1-6.4-3.8c-1.4-1.2-3-2.6-3.8-2.5c-0.1,0-2.2,0.4-5.3,2.5
			C241.9,48.4,236.6,51.6,231.6,51.6z M233.6,35.8c-4.3,0-7.3,1.9-8.2,5.1c-0.8,2.9,0.3,6.3,2.6,7.7c4.8,3,12.4-1.5,15.5-3.6
			c3.5-2.4,6-2.8,6.1-2.8c0,0,0,0,0.1,0c-1.4-0.2-3.1-1.2-5.1-2.4C241.4,38,237.7,35.8,233.6,35.8z M250.4,42.2
			c1.4,0.3,2.9,1.5,4.5,3c1.7,1.5,3.6,3.2,5.3,3.3c0,0,0.1,0,0.1,0c2.8,0,3.8-5.9,3.8-5.9c0.4-2.7-0.1-5.1-1.4-6
			c-0.7-0.5-1.6-0.5-2.6,0.1c-0.5,0.3-1.4,0.9-2.3,1.6C255.6,39.9,252.9,42,250.4,42.2z"/>
		<path class="st0" d="M244.6,55.7l-1.9-0.6c0.5-1.5,2.5-4.5,6.6-4.5c4.2,0,5.9,3,6.2,4.6l-2,0.4c-0.1-0.3-0.8-3-4.3-3
			C245.7,52.6,244.6,55.6,244.6,55.7z"/>
		<path class="st0" d="M240.8,69.7c-16.5,0-30-13-30-29.1c0-11.5,7.3-21.4,20-27.4c5.2-2.5,6-9.7,6-9.7l0.3-3.5l1.5,3.1
			c4,8.1,8.8,9.1,8.9,9.2c13.7,3.1,23.2,14.7,23.2,28.3C270.8,56.6,257.3,69.7,240.8,69.7z M231.1,14.1l0.4,0.9
			c-11.9,5.6-18.8,14.9-18.8,25.6c0,14.9,12.6,27.1,28,27.1s28-12.1,28-27.1c0-12.7-8.9-23.5-21.7-26.4c-0.2,0-4.7-0.9-8.9-7.8
			c-0.8,2.7-2.6,6.7-6.6,8.6L231.1,14.1z"/>
	</g>
	<g>
		<path class="st0" d="M52.6,8.3l-28.3,2L0,24.5h6.1v18.6c-1.2,1-2,3.7-2,6.7c0,3.9,1.4,7.1,3,7.1l0,0c1.7,0,3-3.2,3-7.1
			c0-3-0.8-5.7-2-6.7V24.5h6.4c-0.2,1-0.3,2-0.3,3c0,1.1,0.1,2.1,0.3,3.1c0.6,0,1.1,0,1.7,0c7.3,0,13.3,1.6,16.2,4
			c1.2-3.6,4.8-8.2,9.4-12.3c0.4-0.4,0.9-0.8,1.3-1.1c-0.7-1.5-1.6-2.8-2.7-4L52.6,8.3z M38.8,13.3L29,20.4H15l10.5-6.1L38.8,13.3z"
			/>
		<path class="st0" d="M24.8,61.4h-9.9V40.2c0-4.7,1.2-6.2,1.5-6.4l0.3-0.3l0.4,0c3.6-0.2,8.4,0.8,8.6,0.9l1.3,0.3l-0.6,1.2
			c0,0-1.5,3.1-1.5,5.9V61.4z M16.8,59.4h5.9V41.7c0-2.1,0.7-4.3,1.2-5.6c-1.5-0.3-4.2-0.7-6.4-0.6c-0.3,0.6-0.7,1.9-0.7,4.7V59.4z"
			/>
		<path class="st0" d="M77.8,61.4h-9.9V39.5c0-3.4-2.9-8.1-8.3-8.1c-5.7,0-8.3,4.8-8.3,8.1v21.9h-9.7V41.7c0-4.7-0.3-7-3.4-9.1
			l-1-0.6l7-8l2,2c1.6-1.6,5.7-4.7,14.1-4.7c10.9,0,17.4,8.6,17.4,16.9V61.4z M69.9,59.4h5.9V38.2c0-7.3-5.8-14.9-15.4-14.9
			c-9.9,0-13.2,4.7-13.2,4.8l-0.7,1l-2.2-2.2l-4.2,4.7c3.1,2.5,3.4,5.7,3.4,10.1v17.7h5.7V39.5c0-5,3.8-10.1,10.3-10.1
			c6.7,0,10.3,5.9,10.3,10.1V59.4z"/>
	</g>
	<g>
		<path class="st0" d="M867.5,45.8c-1.1,1-2.6,1.7-4.3,1.7c-3.5,0-6.3-2.8-6.3-6.3c0-3.5,2.8-6.3,6.3-6.3c1.7,0,3.2,0.7,4.3,1.7
			l3-3.2c-1.9-1.8-4.5-3-7.4-3c-5.9,0-10.7,4.8-10.7,10.7s4.8,10.7,10.7,10.7c2.9,0,5.5-1.1,7.4-3L867.5,45.8z"/>
		<path class="st0" d="M882.4,43.3c1.6,0,4.3-2.2,4.3-5.6s-2.7-6.3-6.6-6.3c-3.9,0-8,0-8,0v19.7h4.6v-8l4.7,8h5.9L882.4,43.3z
			 M876.9,40.5v-5.6c0,0,5.5-0.7,5.5,2.9C882.3,41.3,876.9,40.5,876.9,40.5z"/>
		<path class="st0" d="M889.1,51.2c0,0,0-8,0-13.2s4.5-7,7.1-7s4.9,0.6,6.8,2.3c0,0,2-2.3,6-2.3c4,0,8,2.6,8,6.2c0,3.6,0,14,0,14
			h-4.5c0,0,0-8.7,0-11.7s-1.7-4.7-3.6-4.7s-3.5,1.4-3.5,4.7s0,11.7,0,11.7h-4.6c0,0,0-8.8,0-11.7s-1.7-4.7-3.7-4.7
			s-3.6,1.2-3.6,4.7s0,11.7,0,11.7H889.1z"/>
		<g>
			<path class="st0" d="M854.1,31.5h-47.2v19.7h47.2v-0.4c-2.5-2.4-4-5.8-4-9.5s1.5-7.1,4-9.5V31.5z M817,44.9
				c-0.2,1.3-1.3,2.2-2.8,2.3c-0.1,0-0.2,0-0.3,0c-1.3,0-2.1-0.5-2.5-0.9c-0.5-0.5-0.9-1.2-0.9-1.9h2.2c0,0,0,0.2,0.2,0.3
				c0.2,0.2,0.7,0.3,1.2,0.3c0.4,0,0.7-0.2,0.8-0.5c0-0.2-0.1-0.5-0.6-0.7c-0.2-0.1-0.4-0.1-0.6-0.2c-1.3-0.4-3.2-1.1-3.2-3.2
				c0-1.3,0.9-2.8,3.3-2.8c2.1,0,3.1,1.4,3.1,2.8h-2.2c0-0.4-0.3-0.6-0.9-0.6c-1.1,0-1.1,0.4-1.1,0.6c0,0.4,0.3,0.7,1.7,1.2
				c0.2,0.1,0.4,0.2,0.6,0.2C816.4,42.3,817.2,43.5,817,44.9z M825.9,43.3c0,2.3-1.8,4.1-4.1,4.1s-4.1-1.8-4.1-4.1V38h2.5v5.3
				c0,0.9,0.7,1.6,1.6,1.6s1.6-0.7,1.6-1.6V38h2.5V43.3z M829.6,46.8h-2.4v-9.1h2.4V46.8z M828.4,36.8c-0.8,0-1.4-0.6-1.4-1.4
				s0.6-1.4,1.4-1.4c0.8,0,1.4,0.6,1.4,1.4S829.2,36.8,828.4,36.8z M836.1,46.7c-0.3,0.1-0.6,0.1-0.9,0.2c-0.3,0-0.6,0.1-0.8,0.1
				c-0.3,0-0.6,0-0.9-0.1c-0.3-0.1-0.5-0.2-0.8-0.3c-0.2-0.2-0.4-0.4-0.5-0.6c-0.1-0.3-0.2-0.6-0.2-0.9v-5h-1.5v-2.2h1.5v-2.1h2.4
				v2.1h1.5V40h-1.5v4.5c0,0.2,0.1,0.3,0.2,0.4c0.1,0.1,0.3,0.1,0.4,0.1c0.1,0,0.3,0,0.4,0c0.2,0,0.4-0.1,0.7-0.1V46.7z M846.2,43.2
				h-6.9c0,0-0.2,1,1.2,1.8c1.7,1,3-0.9,3-0.9h2.4c-0.7,1.9-2.5,3.2-4.7,3.2c-2.7,0-5-2.1-5-4.8s2.2-4.8,5-4.8s5,2.1,5,4.8
				C846.3,42.7,846.2,43,846.2,43.2z"/>
			<path class="st0" d="M841.4,39.5c-2,0-2.2,2-2.2,2h4.5C843.7,41.5,843.4,39.5,841.4,39.5z"/>
		</g>
	</g>
	<path class="st0" d="M458.4,7.6c3.7,0,7.3,0.7,10.6,2.1c1.6,0.7,3.2,1.5,4.6,2.5c1.4,1,2.8,2.1,4,3.3c1.2,1.2,2.4,2.6,3.3,4
		c1,1.5,1.8,3,2.5,4.6c1.4,3.4,2.1,6.9,2.1,10.6s-0.7,7.3-2.1,10.6c-0.7,1.6-1.5,3.2-2.5,4.6c-1,1.4-2.1,2.8-3.3,4
		c-1.2,1.2-2.6,2.4-4,3.3c-1.5,1-3,1.8-4.6,2.5c-3.4,1.4-6.9,2.1-10.6,2.1s-7.3-0.7-10.6-2.1c-1.6-0.7-3.2-1.5-4.6-2.5
		c-1.4-1-2.8-2.1-4-3.3c-1.2-1.2-2.4-2.6-3.3-4c-1-1.5-1.8-3-2.5-4.6c-1.4-3.4-2.1-6.9-2.1-10.6s0.7-7.3,2.1-10.6
		c0.7-1.6,1.5-3.2,2.5-4.6c1-1.4,2.1-2.8,3.3-4c1.2-1.2,2.6-2.4,4-3.3c1.5-1,3-1.8,4.6-2.5C451.2,8.3,454.8,7.6,458.4,7.6
		 M458.4,5.8c-16,0-29,13-29,29c0,16,13,29,29,29c16,0,29-13,29-29C487.4,18.8,474.5,5.8,458.4,5.8L458.4,5.8z"/>
	<path class="st0" d="M434.3,34.8c0,9.6,5.6,17.8,13.6,21.7L436.4,25C435,28,434.3,31.3,434.3,34.8z M474.8,33.6c0-3-1.1-5.1-2-6.7
		c-1.2-2-2.4-3.7-2.4-5.7c0-2.2,1.7-4.3,4.1-4.3c0.1,0,0.2,0,0.3,0c-4.3-3.9-10-6.3-16.3-6.3c-8.4,0-15.9,4.3-20.2,10.9
		c0.6,0,1.1,0,1.6,0c2.5,0,6.4-0.3,6.4-0.3c1.3-0.1,1.5,1.8,0.2,2c0,0-1.3,0.2-2.8,0.2l8.8,26.2l5.3-15.9L454,23.5
		c-1.3-0.1-2.5-0.2-2.5-0.2c-1.3-0.1-1.2-2.1,0.2-2c0,0,4,0.3,6.4,0.3c2.5,0,6.4-0.3,6.4-0.3c1.3-0.1,1.5,1.8,0.2,2
		c0,0-1.3,0.2-2.8,0.2l8.7,26l2.5-7.9C474.1,38.1,474.8,35.7,474.8,33.6z M458.9,36.9L451.6,58c2.2,0.6,4.5,1,6.8,1
		c2.8,0,5.5-0.5,8-1.4c-0.1-0.1-0.1-0.2-0.2-0.3L458.9,36.9z M479.6,23.2c0.1,0.8,0.2,1.6,0.2,2.5c0,2.5-0.5,5.2-1.8,8.7l-7.4,21.3
		c7.2-4.2,12-12,12-20.9C482.6,30.6,481.5,26.7,479.6,23.2z"/>
	<text transform="matrix(1 0 0 1 12.5633 111.4161)" class="st0 st1 st2">MOODLE</text>
	<text transform="matrix(1 0 0 1 213.7473 111.4161)" class="st0 st1 st2">DRUPAL</text>
	<text transform="matrix(1 0 0 1 416.0784 111.4161)" class="st0 st1 st2">WORDPRESS</text>
	<text transform="matrix(1 0 0 1 637.5701 111.4161)" class="st0 st1 st2">ODOO</text>
	<text transform="matrix(1 0 0 1 828.1241 111.4161)" class="st0 st1 st2">SUITE CRM</text>
</g>
</svg>
