<?xml version="1.0" encoding="utf-8"?>
<!-- Generator: Adobe Illustrator 22.1.0, SVG Export Plug-In . SVG Version: 6.00 Build 0)  -->
<svg version="1.1" id="Capa_1" xmlns="http://www.w3.org/2000/svg" xmlns:xlink="http://www.w3.org/1999/xlink" x="0px" y="0px"
	 viewBox="0 0 110 21.3" style="enable-background:new 0 0 110 21.3;" xml:space="preserve">
<style type="text/css">
	.st0{fill:#606161;}
	.st1{fill:#FFFFFF;}
</style>
<g>
	<path class="st0" d="M43.3,10.7c0-3.7,1.5-7.1,4-9.5V0.9H0v19.7h47.2v-0.4C44.8,17.7,43.3,14.4,43.3,10.7z"/>
	<path class="st0" d="M60.6,15.2c-1.1,1-2.6,1.7-4.3,1.7c-3.5,0-6.3-2.8-6.3-6.3s2.8-6.3,6.3-6.3c1.7,0,3.2,0.7,4.3,1.7l3-3.2
		c-1.9-1.8-4.5-3-7.4-3c-5.9,0-10.7,4.8-10.7,10.7s4.8,10.7,10.7,10.7c2.9,0,5.5-1.1,7.4-3L60.6,15.2z"/>
	<path class="st0" d="M75.6,12.7c1.6,0,4.3-2.2,4.3-5.6s-2.7-6.3-6.6-6.3c-3.9,0-8,0-8,0v19.7h4.6v-8l4.7,8h5.9L75.6,12.7z M70,9.9
		V4.3c0,0,5.5-0.7,5.5,2.9C75.5,10.7,70,9.9,70,9.9z"/>
	<path class="st0" d="M82.2,20.6c0,0,0-8,0-13.2s4.5-7,7.1-7s4.9,0.6,6.8,2.3c0,0,2-2.3,6-2.3c4,0,8,2.6,8,6.2s0,14,0,14h-4.5
		c0,0,0-8.7,0-11.7s-1.7-4.7-3.6-4.7c-1.9,0-3.5,1.4-3.5,4.7s0,11.7,0,11.7h-4.6c0,0,0-8.8,0-11.7s-1.7-4.7-3.7-4.7
		c-2,0-3.6,1.2-3.6,4.7s0,11.7,0,11.7H82.2z"/>
	<g>
		<path class="st1" d="M22.7,7.2v9.1h-2.4V7.2H22.7z"/>
		<path class="st1" d="M27.5,5.1v2.1H29v2.2h-1.5v4.5c0,0.2,0.1,0.3,0.2,0.4c0.1,0.1,0.3,0.1,0.4,0.1c0.1,0,0.3,0,0.4,0
			c0.2,0,0.4-0.1,0.7-0.1v1.8c-0.3,0.1-0.6,0.1-0.9,0.2c-0.3,0-0.6,0.1-0.8,0.1c-0.3,0-0.6,0-0.9-0.1c-0.3-0.1-0.5-0.2-0.8-0.3
			c-0.2-0.2-0.4-0.4-0.5-0.6c-0.1-0.3-0.2-0.6-0.2-0.9v-5h-1.5V7.2h1.5V5.1H27.5z"/>
		<circle class="st1" cx="21.5" cy="4.7" r="1.4"/>
		<path class="st1" d="M15,16.8c-2.3,0-4.1-1.8-4.1-4.1V7.4h2.5v5.3c0,0.9,0.7,1.6,1.6,1.6s1.6-0.7,1.6-1.6V7.4h2.5v5.3
			C19.1,14.9,17.2,16.8,15,16.8z"/>
		<path class="st1" d="M6.9,16.6c-1.3,0-2.1-0.5-2.5-0.9c-0.5-0.5-0.8-1.2-0.8-1.9h2.2c0,0,0,0.2,0.2,0.3c0.2,0.2,0.7,0.3,1.2,0.3
			c0.4,0,0.7-0.2,0.8-0.5c0-0.2-0.1-0.5-0.6-0.7C7.1,13.1,6.9,13,6.7,13c-1.3-0.4-3.2-1.1-3.2-3.2c0-1.3,0.9-2.8,3.3-2.8
			c2.1,0,3.1,1.4,3.1,2.8H7.7c0-0.4-0.3-0.6-0.9-0.6c-1.1,0-1.1,0.4-1.1,0.6c0,0.4,0.3,0.7,1.7,1.2C7.7,11,7.9,11,8.1,11.1
			c1.4,0.5,2.2,1.8,2,3.2c-0.2,1.3-1.3,2.2-2.8,2.3C7.2,16.6,7.1,16.6,6.9,16.6z"/>
		<path class="st1" d="M39.3,12.6c0-0.2,0.1-0.4,0.1-0.6c0-2.6-2.2-4.8-5-4.8s-5,2.1-5,4.8c0,2.6,2.2,4.8,5,4.8c2.2,0,4-1.3,4.7-3.2
			h-2.4c0,0-1.3,1.8-3,0.9c-1.4-0.8-1.2-1.8-1.2-1.8H39.3z M32.3,10.9c0,0,0.3-2,2.2-2c1.9,0,2.2,2,2.2,2H32.3z"/>
	</g>
</g>
</svg>
