<?xml version="1.0" encoding="utf-8"?>
<!-- Generator: Adobe Illustrator 21.1.0, SVG Export Plug-In . SVG Version: 6.00 Build 0)  -->
<svg version="1.1" id="Capa_1" xmlns="http://www.w3.org/2000/svg" xmlns:xlink="http://www.w3.org/1999/xlink" x="0px" y="0px"
	 viewBox="0 0 68.2 72.2" style="enable-background:new 0 0 68.2 72.2;" xml:space="preserve">
<style type="text/css">
	.st0{fill:#616262;}
</style>
<g>
	<g>
		<path class="st0" d="M23.8,51H17c-2.5,0.1-4.5-1.9-4.6-4.3c0-0.1,0-0.2,0-0.3v-3.7c-0.7-0.5-1.5-0.8-2.3-0.9
			c-1.8,0.1-3.4-1.4-3.4-3.2c0-0.1,0-0.1,0-0.2c0-0.2,0-0.4,0.1-0.6l5.6-10.1v-1.9c0-9.5,7.7-17.1,17.1-17.1h4.6
			c1.8-0.1,3.4,1.4,3.4,3.2c0,0.1,0,0.1,0,0.2v5.7h-2.3v-5.7c0.1-0.6-0.4-1.1-0.9-1.1c-0.1,0-0.1,0-0.2,0h-4.6
			c-8.2,0-14.8,6.7-14.9,14.9v2.2c0,0.2,0,0.4-0.1,0.6L9,38.7c0.1,0.6,0.6,1,1.1,0.9c0,0,0,0,0,0c1.6,0.1,3,0.7,4.2,1.7
			c0.2,0.2,0.4,0.5,0.4,0.9v4.3c-0.1,1.2,0.8,2.2,2,2.3c0.1,0,0.2,0,0.3,0h6.9c0.6,0.1,1.1-0.4,1.1-0.9c0-0.1,0-0.1,0-0.2v-6.9h2.3
			v6.9c0.1,1.8-1.4,3.4-3.2,3.4C24,51,23.9,51,23.8,51L23.8,51z"/>
	</g>
	<path class="st0" d="M50.1,63.6h-24c-0.6,0-1.1-0.5-1.1-1.1v-4.6h2.3v3.4H49v-6.9c0-0.6,0.5-1.1,1.1-1.1c3.3,0,4.4-4,4.6-4.7v-2.2
		c0.1-0.6-0.4-1.1-0.9-1.1c-0.1,0-0.1,0-0.2,0H41V43h12.6c1.8-0.1,3.4,1.4,3.4,3.2c0,0.1,0,0.1,0,0.2v2.3c0,0.1,0,0.2,0,0.2
		c-0.4,2.1-2.1,5.9-5.7,6.5v7C51.3,63,50.8,63.6,50.1,63.6L50.1,63.6L50.1,63.6z"/>
	<path class="st0" d="M50.1,39.6h-4.6c-0.6,0-1.1-0.5-1.1-1.1v-2.9c-0.3-0.1-0.7-0.3-1-0.4l-2,2c-0.4,0.4-1.2,0.4-1.6,0l-3.2-3.2
		c-0.4-0.4-0.4-1.2,0-1.6l2-2c-0.2-0.3-0.3-0.7-0.4-1h-2.9V27H39c0.5,0,1,0.4,1.1,0.9c0.2,0.7,0.5,1.4,0.9,2.1
		c0.3,0.4,0.2,1-0.2,1.4l-1.8,1.8l1.6,1.6l1.8-1.8c0.4-0.4,0.9-0.4,1.4-0.2c0.6,0.4,1.3,0.7,2.1,0.9c0.5,0.1,0.9,0.6,0.9,1.1v2.6H49
		v-2.6c0-0.5,0.4-1,0.9-1.1c0.7-0.2,1.4-0.5,2.1-0.9c0.4-0.3,1-0.2,1.4,0.2l1.8,1.8l1.6-1.6l-1.8-1.8c-0.4-0.4-0.4-0.9-0.2-1.4
		c0.4-0.6,0.7-1.3,0.9-2.1c0.1-0.5,0.6-0.9,1.1-0.9h2.6v-2.3h-2.6c-0.5,0-1-0.4-1.1-0.9c-0.2-0.7-0.5-1.4-0.9-2.1
		c-0.3-0.4-0.2-1,0.2-1.4l1.8-1.8L55.1,17l-1.8,1.8c-0.4,0.4-0.9,0.4-1.4,0.2c-0.6-0.4-1.3-0.7-2.1-0.9C49.3,18,49,17.5,49,17v-2.6
		h-2.3V17c0,0.5-0.4,1-0.9,1.1c-0.7,0.2-1.4,0.5-2.1,0.9l-1.2-2c0.6-0.3,1.2-0.6,1.8-0.8v-2.9c0-0.6,0.5-1.1,1.1-1.1h4.6
		c0.6,0,1.1,0.5,1.1,1.1v2.9c0.3,0.1,0.7,0.3,1,0.4l2-2c0.4-0.4,1.2-0.4,1.6,0l3.2,3.2c0.4,0.4,0.4,1.2,0,1.6l-2,2
		c0.2,0.3,0.3,0.7,0.4,1h2.9c0.6,0,1.1,0.5,1.1,1.1v4.6c0,0.6-0.5,1.1-1.1,1.1h-2.9c-0.1,0.3-0.3,0.7-0.4,1l2,2
		c0.4,0.4,0.4,1.2,0,1.6l-3.2,3.2c-0.4,0.4-1.2,0.4-1.6,0l-2-2c-0.3,0.2-0.7,0.3-1,0.4v2.9C51.3,39,50.8,39.6,50.1,39.6L50.1,39.6
		L50.1,39.6z"/>
	<path class="st0" d="M47.8,23.6c-1.3,0-2.3,1-2.3,2.3c0,1.3,1,2.3,2.3,2.3s2.3-1,2.3-2.3C50.1,24.6,49.1,23.6,47.8,23.6L47.8,23.6z
		 M47.8,30.4c-2.5,0-4.6-2-4.6-4.6c0-2.5,2-4.6,4.6-4.6s4.6,2,4.6,4.6C52.4,28.4,50.4,30.4,47.8,30.4L47.8,30.4z"/>
	<path class="st0" d="M23.8,30.4h-3.4c-1.2,0-2.3-1-2.3-2.2c0,0,0-0.1,0-0.1V27h2.3v1.1h3.4V27h2.3v1.1
		C26.2,29.4,25.2,30.4,23.8,30.4C23.9,30.4,23.9,30.4,23.8,30.4L23.8,30.4z"/>
	<path class="st0" d="M38.7,43c-0.6,0-1.1,0.5-1.1,1.1s0.5,1.1,1.1,1.1c0.6,0,1.1-0.5,1.1-1.1S39.3,43,38.7,43L38.7,43z M38.7,47.6
		c-1.9,0-3.4-1.5-3.4-3.4c0-1.9,1.5-3.4,3.4-3.4c1.9,0,3.4,1.5,3.4,3.4C42.1,46,40.6,47.6,38.7,47.6L38.7,47.6z"/>
	<path class="st0" d="M26.1,37.3c-0.6,0-1.1,0.5-1.1,1.1s0.5,1.1,1.1,1.1s1.1-0.5,1.1-1.1S26.8,37.3,26.1,37.3L26.1,37.3z
		 M26.1,41.8c-1.9,0-3.4-1.5-3.4-3.4s1.5-3.4,3.4-3.4c1.9,0,3.4,1.5,3.4,3.4S28,41.8,26.1,41.8L26.1,41.8z"/>
	<path class="st0" d="M36.4,19c-0.6,0-1.1,0.5-1.1,1.1s0.5,1.1,1.1,1.1s1.1-0.5,1.1-1.1S37,19,36.4,19L36.4,19z M36.4,23.6
		c-1.9,0-3.4-1.5-3.4-3.4c0-1.9,1.5-3.4,3.4-3.4c1.9,0,3.4,1.5,3.4,3.4C39.8,22,38.3,23.6,36.4,23.6L36.4,23.6z"/>
	<polygon class="st0" points="30.7,27 33,27 33,29.3 30.7,29.3 30.7,27 	"/>
	<polygon class="st0" points="30.7,31.6 33,31.6 33,33.8 30.7,33.8 30.7,31.6 	"/>
	<polygon class="st0" points="25,53.3 27.3,53.3 27.3,55.6 25,55.6 25,53.3 	"/>
</g>
</svg>
