<?xml version="1.0" encoding="utf-8"?>
<!-- Generator: Adobe Illustrator 21.1.0, SVG Export Plug-In . SVG Version: 6.00 Build 0)  -->
<svg version="1.1" id="Capa_1" xmlns="http://www.w3.org/2000/svg" xmlns:xlink="http://www.w3.org/1999/xlink" x="0px" y="0px"
	 viewBox="0 0 68.2 72.2" style="enable-background:new 0 0 68.2 72.2;" xml:space="preserve">
<style type="text/css">
	.st0{fill:#616262;}
</style>
<g>
	<polygon class="st0" points="33.3,53.5 35,53.5 35,55.2 33.3,55.2 33.3,53.5 	"/>
	<path class="st0" d="M58.4,58.7c0,1-0.8,1.7-1.7,1.7H11.6c-1,0-1.7-0.8-1.7-1.7v-1.7H26l1.5,1.5c0.2,0.2,0.4,0.3,0.6,0.3h12.1
		c0.2,0,0.5-0.1,0.6-0.3l1.5-1.5h16.1V58.7L58.4,58.7z M11.6,24c0-1,0.8-1.7,1.7-1.7h5.2V24h-4.3c-0.5,0-0.9,0.4-0.9,0.9v26
		c0,0.5,0.4,0.9,0.9,0.9h39.9c0.5,0,0.9-0.4,0.9-0.9v-26c0-0.5-0.4-0.9-0.9-0.9h-4.3v-1.7h5.2c1,0,1.7,0.8,1.7,1.7v31.2H41.9
		c-0.2,0-0.5,0.1-0.6,0.3l-1.5,1.5H28.4l-1.5-1.5c-0.2-0.2-0.4-0.3-0.6-0.3H11.6V24L11.6,24z M22,11.8h24.3c1,0,1.7,0.8,1.7,1.7V17
		H20.2v-3.5C20.2,12.6,21,11.8,22,11.8L22,11.8z M20.2,18.8H48v25.2c0,1-0.8,1.7-1.7,1.7H22c-1,0-1.7-0.8-1.7-1.7V18.8L20.2,18.8z
		 M22,47.4h24.3c1.9,0,3.5-1.6,3.5-3.5V25.7h3.5V50H15V25.7h3.5v18.2C18.5,45.9,20.1,47.4,22,47.4L22,47.4z M59.3,55.2h-0.9V24
		c0-1.9-1.6-3.5-3.5-3.5h-5.2v-6.9c0-1.9-1.6-3.5-3.5-3.5H22c-1.9,0-3.5,1.6-3.5,3.5v6.9h-5.2c-1.9,0-3.5,1.6-3.5,3.5v31.2H9
		c-0.5,0-0.9,0.4-0.9,0.9v2.6c0,1.9,1.6,3.5,3.5,3.5h45.1c1.9,0,3.5-1.6,3.5-3.5v-2.6C60.2,55.6,59.8,55.2,59.3,55.2L59.3,55.2z"/>
	<polygon class="st0" points="22.8,37.9 45.4,37.9 45.4,39.6 22.8,39.6 22.8,37.9 	"/>
	<polygon class="st0" points="22.8,41.3 43.7,41.3 43.7,43.1 22.8,43.1 22.8,41.3 	"/>
	<polygon class="st0" points="28.1,34.4 45.4,34.4 45.4,36.1 28.1,36.1 28.1,34.4 	"/>
	<polygon class="st0" points="22,13.6 23.7,13.6 23.7,15.3 22,15.3 22,13.6 	"/>
	<polygon class="st0" points="25.4,13.6 27.2,13.6 27.2,15.3 25.4,15.3 25.4,13.6 	"/>
	<polygon class="st0" points="28.9,13.6 30.7,13.6 30.7,15.3 28.9,15.3 28.9,13.6 	"/>
	<polygon class="st0" points="24.6,34.4 26.3,34.4 26.3,36.1 24.6,36.1 24.6,34.4 	"/>
	<path class="st0" d="M30.1,29.9l1-1.4l-2.5-1.9l2.5-1.9l-1-1.4l-3.5,2.6c-0.4,0.3-0.5,0.8-0.2,1.2c0,0.1,0.1,0.1,0.2,0.2L30.1,29.9
		L30.1,29.9z"/>
	<path class="st0" d="M38.1,29.9l3.5-2.6c0.4-0.3,0.5-0.8,0.2-1.2c0-0.1-0.1-0.1-0.2-0.2l-3.5-2.6l-1,1.4l2.5,1.9l-2.5,1.9
		L38.1,29.9L38.1,29.9z"/>
	<polygon class="st0" points="31.6,30.6 35.1,21.9 36.7,22.6 33.2,31.2 31.6,30.6 	"/>
</g>
</svg>
