<?xml version="1.0" encoding="utf-8"?>
<!-- Generator: Adobe Illustrator 22.1.0, SVG Export Plug-In . SVG Version: 6.00 Build 0)  -->
<svg version="1.1" id="Capa_1" xmlns="http://www.w3.org/2000/svg" xmlns:xlink="http://www.w3.org/1999/xlink" x="0px" y="0px"
	 viewBox="0 0 58 58" style="enable-background:new 0 0 58 58;" xml:space="preserve">
<style type="text/css">
	.st0{fill:#606161;}
</style>
<g id="W_Mark">
	<path class="st0" d="M29,1.7c3.7,0,7.3,0.7,10.6,2.1c1.6,0.7,3.2,1.5,4.6,2.5c1.4,1,2.8,2.1,4,3.3c1.2,1.2,2.4,2.6,3.3,4
		c1,1.5,1.8,3,2.5,4.6c1.4,3.4,2.1,6.9,2.1,10.6s-0.7,7.3-2.1,10.6c-0.7,1.6-1.5,3.2-2.5,4.6c-1,1.4-2.1,2.8-3.3,4
		c-1.2,1.2-2.6,2.4-4,3.3c-1.5,1-3,1.8-4.6,2.5c-3.4,1.4-6.9,2.1-10.6,2.1c-3.7,0-7.3-0.7-10.6-2.1c-1.6-0.7-3.2-1.5-4.6-2.5
		c-1.4-1-2.8-2.1-4-3.3c-1.2-1.2-2.4-2.6-3.3-4c-1-1.5-1.8-3-2.5-4.6C2.5,36.3,1.7,32.7,1.7,29s0.7-7.3,2.1-10.6
		c0.7-1.6,1.5-3.2,2.5-4.6c1-1.4,2.1-2.8,3.3-4c1.2-1.2,2.6-2.4,4-3.3c1.5-1,3-1.8,4.6-2.5C21.7,2.5,25.3,1.7,29,1.7 M29,0
		C13,0,0,13,0,29c0,16,13,29,29,29c16,0,29-13,29-29C58,13,45,0,29,0L29,0z"/>
	<path class="st0" d="M4.8,29c0,9.6,5.6,17.8,13.6,21.7L6.9,19.2C5.6,22.2,4.8,25.5,4.8,29z M45.3,27.8c0-3-1.1-5.1-2-6.7
		c-1.2-2-2.4-3.7-2.4-5.7c0-2.2,1.7-4.3,4.1-4.3c0.1,0,0.2,0,0.3,0C41,7.2,35.3,4.8,29,4.8c-8.4,0-15.9,4.3-20.2,10.9
		c0.6,0,1.1,0,1.6,0c2.5,0,6.4-0.3,6.4-0.3c1.3-0.1,1.5,1.8,0.2,2c0,0-1.3,0.2-2.8,0.2L23,43.8L28.3,28l-3.8-10.3
		c-1.3-0.1-2.5-0.2-2.5-0.2c-1.3-0.1-1.2-2.1,0.2-2c0,0,4,0.3,6.4,0.3c2.5,0,6.4-0.3,6.4-0.3c1.3-0.1,1.5,1.8,0.2,2
		c0,0-1.3,0.2-2.8,0.2l8.7,26l2.5-7.9C44.7,32.3,45.3,29.8,45.3,27.8z M29.4,31.1l-7.3,21.1c2.2,0.6,4.5,1,6.8,1
		c2.8,0,5.5-0.5,8-1.4c-0.1-0.1-0.1-0.2-0.2-0.3L29.4,31.1z M50.2,17.4c0.1,0.8,0.2,1.6,0.2,2.5c0,2.5-0.5,5.2-1.8,8.7l-7.4,21.3
		c7.2-4.2,12-12,12-20.9C53.2,24.8,52.1,20.8,50.2,17.4z"/>
</g>
</svg>
