<?xml version="1.0" encoding="utf-8"?>
<!-- Generator: Adobe Illustrator 21.1.0, SVG Export Plug-In . SVG Version: 6.00 Build 0)  -->
<svg version="1.1" xmlns="http://www.w3.org/2000/svg" xmlns:xlink="http://www.w3.org/1999/xlink" x="0px" y="0px"
	 viewBox="0 0 503.8 562.8" style="enable-background:new 0 0 503.8 562.8;" xml:space="preserve">
<style type="text/css">
	.st0{fill:url(#SVGID_1_);}
	.st1{fill:#FFFFFF;}
	.st2{fill:url(#SVGID_2_);}
	.st3{fill:url(#SVGID_3_);}
	.st4{fill:url(#SVGID_4_);}
	.st5{fill:url(#SVGID_5_);}
	.st6{fill:url(#SVGID_6_);}
	.st7{fill:url(#SVGID_7_);}
	.st8{fill:url(#SVGID_8_);}
	.st9{fill:url(#SVGID_9_);}
	.st10{fill:url(#SVGID_10_);}
	.st11{fill:url(#SVGID_11_);}
	.st12{fill:url(#SVGID_12_);}
	.st13{fill:url(#SVGID_13_);}
	.st14{fill:url(#SVGID_14_);}
	.st15{fill:url(#SVGID_15_);}
	.st16{fill:url(#SVGID_16_);}
	.st17{fill:url(#SVGID_17_);}
	.st18{fill:url(#SVGID_18_);}
	.st19{fill:url(#SVGID_19_);}
	.st20{fill:url(#SVGID_20_);}
	.st21{fill:url(#SVGID_21_);}
	.st22{fill:url(#SVGID_22_);}
	.st23{fill:url(#SVGID_23_);}
	.st24{fill:url(#SVGID_24_);}
	.st25{fill:url(#SVGID_25_);}
	.st26{fill:url(#SVGID_26_);}
	.st27{fill:url(#SVGID_27_);}
	.st28{fill:url(#SVGID_28_);}
	.st29{fill:url(#SVGID_29_);}
	.st30{fill:url(#SVGID_30_);}
	.st31{fill:url(#SVGID_31_);}
	.st32{fill:url(#SVGID_32_);}
	.st33{fill:url(#SVGID_33_);}
	.st34{fill:url(#SVGID_34_);}
	.st35{fill:url(#SVGID_35_);}
	.st36{fill:url(#SVGID_36_);}
	.st37{fill:url(#SVGID_37_);}
	.st38{fill:url(#SVGID_38_);}
	.st39{fill:url(#SVGID_39_);}
	.st40{fill:url(#SVGID_40_);}
	.st41{fill:url(#SVGID_41_);}
	.st42{fill:url(#SVGID_42_);}
	.st43{fill:url(#SVGID_43_);}
	.st44{fill:url(#SVGID_44_);}
	.st45{fill:url(#SVGID_45_);}
	.st46{fill:url(#SVGID_46_);}
	.st47{fill:url(#SVGID_47_);}
	.st48{fill:url(#SVGID_48_);}
	.st49{fill:url(#SVGID_49_);}
	.st50{fill:url(#SVGID_50_);}
	.st51{fill:url(#SVGID_51_);}
	.st52{fill:url(#SVGID_52_);}
	.st53{fill:url(#SVGID_53_);}
	.st54{fill:url(#SVGID_54_);}
	.st55{fill:url(#SVGID_55_);}
	.st56{fill:url(#SVGID_56_);}
	.st57{fill:url(#SVGID_57_);}
	.st58{fill:url(#SVGID_58_);}
	.st59{fill:url(#SVGID_59_);}
	.st60{fill:url(#SVGID_60_);}
	.st61{fill:url(#SVGID_61_);}
	.st62{fill:url(#SVGID_62_);}
	.st63{fill:url(#SVGID_63_);}
	.st64{fill:url(#SVGID_64_);}
	.st65{fill:url(#SVGID_65_);}
	.st66{fill:url(#SVGID_66_);}
	.st67{fill:url(#SVGID_67_);}
	.st68{fill:url(#SVGID_68_);}
	.st69{fill:url(#SVGID_69_);}
	.st70{fill:url(#SVGID_70_);}
	.st71{fill:url(#SVGID_71_);}
	.st72{fill:url(#SVGID_72_);}
	.st73{fill:url(#SVGID_73_);}
	.st74{fill:url(#SVGID_74_);}
	.st75{fill:url(#SVGID_75_);}
	.st76{fill:url(#SVGID_76_);}
	.st77{fill:url(#SVGID_77_);}
	.st78{fill:url(#SVGID_78_);}
	.st79{fill:url(#SVGID_79_);}
	.st80{fill:url(#SVGID_80_);}
	.st81{fill:url(#SVGID_81_);}
	.st82{fill:url(#SVGID_82_);}
	.st83{fill:url(#SVGID_83_);}
	.st84{fill:url(#SVGID_84_);}
	.st85{fill:url(#SVGID_85_);}
	.st86{fill:url(#SVGID_86_);}
	.st87{fill:url(#SVGID_87_);}
	.st88{fill:url(#SVGID_88_);}
	.st89{fill:url(#SVGID_89_);}
	.st90{fill:url(#SVGID_90_);}
	.st91{fill:url(#SVGID_91_);}
	.st92{fill:url(#SVGID_92_);}
	.st93{fill:url(#SVGID_93_);}
	.st94{fill:url(#SVGID_94_);}
	.st95{fill:url(#SVGID_95_);}
	.st96{fill:url(#SVGID_96_);}
	.st97{fill:url(#SVGID_97_);}
	.st98{fill:url(#SVGID_98_);}
	.st99{fill:url(#SVGID_99_);}
	.st100{fill:url(#SVGID_100_);}
	.st101{fill:url(#SVGID_101_);}
	.st102{fill:url(#SVGID_102_);}
	.st103{fill:url(#SVGID_103_);}
	.st104{fill:url(#SVGID_104_);}
	.st105{fill:url(#SVGID_105_);}
	.st106{fill:url(#SVGID_106_);}
	.st107{fill:url(#SVGID_107_);}
	.st108{fill:url(#SVGID_108_);}
	.st109{fill:url(#SVGID_109_);}
	.st110{fill:url(#SVGID_110_);}
	.st111{fill:url(#SVGID_111_);}
	.st112{fill:url(#SVGID_112_);}
	.st113{fill:url(#SVGID_113_);}
	.st114{fill:url(#SVGID_114_);}
	.st115{fill:url(#SVGID_115_);}
	.st116{fill:url(#SVGID_116_);}
	.st117{fill:url(#SVGID_117_);}
	.st118{fill:url(#SVGID_118_);}
	.st119{fill:url(#SVGID_119_);}
	.st120{fill:url(#SVGID_120_);}
	.st121{fill:url(#SVGID_121_);}
	.st122{fill:url(#SVGID_122_);}
	.st123{fill:url(#SVGID_123_);}
	.st124{fill:url(#SVGID_124_);}
	.st125{fill:url(#SVGID_125_);}
	.st126{fill:url(#SVGID_126_);}
	.st127{fill:url(#SVGID_127_);}
	.st128{fill:url(#SVGID_128_);}
	.st129{fill:url(#SVGID_129_);}
	.st130{fill:url(#SVGID_130_);}
	.st131{fill:url(#SVGID_131_);}
	.st132{fill:url(#SVGID_132_);}
	.st133{fill:url(#SVGID_133_);}
	.st134{fill:url(#SVGID_134_);}
	.st135{fill:url(#SVGID_135_);}
	.st136{fill:url(#SVGID_136_);}
	.st137{fill:url(#SVGID_137_);}
	.st138{fill:url(#SVGID_138_);}
	.st139{fill:url(#SVGID_139_);}
	.st140{fill:url(#SVGID_140_);}
	.st141{fill:url(#SVGID_141_);}
	.st142{fill:url(#SVGID_142_);}
	.st143{fill:url(#SVGID_143_);}
	.st144{fill:url(#SVGID_144_);}
	.st145{fill:url(#SVGID_145_);}
	.st146{fill:url(#SVGID_146_);}
	.st147{fill:url(#SVGID_147_);}
	.st148{fill:url(#SVGID_148_);}
	.st149{fill:url(#SVGID_149_);}
	.st150{fill:url(#SVGID_150_);}
	.st151{fill:url(#SVGID_151_);}
	.st152{fill:url(#SVGID_152_);}
	.st153{fill:url(#SVGID_153_);}
	.st154{fill:url(#SVGID_154_);}
	.st155{fill:url(#SVGID_155_);}
	.st156{fill:url(#SVGID_156_);}
	.st157{fill:url(#SVGID_157_);}
	.st158{fill:url(#SVGID_158_);}
	.st159{fill:url(#SVGID_159_);}
	.st160{fill:url(#SVGID_160_);}
	.st161{fill:url(#SVGID_161_);}
	.st162{fill:url(#SVGID_162_);}
	.st163{fill:url(#SVGID_163_);}
	.st164{fill:url(#SVGID_164_);}
	.st165{fill:url(#SVGID_165_);}
	.st166{fill:url(#SVGID_166_);}
	.st167{fill:url(#SVGID_167_);}
	.st168{fill:url(#SVGID_168_);}
	.st169{fill:url(#SVGID_169_);}
	.st170{fill:url(#SVGID_170_);}
	.st171{fill:url(#SVGID_171_);}
	.st172{fill:url(#SVGID_172_);}
	.st173{fill:url(#SVGID_173_);}
	.st174{fill:url(#SVGID_174_);}
	.st175{fill:url(#SVGID_175_);}
	.st176{fill:url(#SVGID_176_);}
	.st177{fill:url(#SVGID_177_);}
	.st178{fill:url(#SVGID_178_);}
	.st179{fill:url(#SVGID_179_);}
	.st180{fill:url(#SVGID_180_);}
	.st181{fill:url(#SVGID_181_);}
	.st182{fill:url(#SVGID_182_);}
	.st183{fill:url(#SVGID_183_);}
	.st184{fill:url(#SVGID_184_);}
	.st185{fill:url(#SVGID_185_);}
	.st186{fill:url(#SVGID_186_);}
	.st187{fill:url(#SVGID_187_);}
	.st188{fill:url(#SVGID_188_);}
	.st189{fill:url(#SVGID_189_);}
	.st190{fill:url(#SVGID_190_);}
	.st191{fill:url(#SVGID_191_);}
	.st192{fill:url(#SVGID_192_);}
	.st193{fill:url(#SVGID_193_);}
	.st194{fill:url(#SVGID_194_);}
	.st195{fill:url(#SVGID_195_);}
	.st196{fill:url(#SVGID_196_);}
	.st197{fill:url(#SVGID_197_);}
	.st198{fill:url(#SVGID_198_);}
	.st199{fill:url(#SVGID_199_);}
	.st200{fill:url(#SVGID_200_);}
	.st201{fill:url(#SVGID_201_);}
	.st202{fill:url(#SVGID_202_);}
	.st203{fill:url(#SVGID_203_);}
	.st204{fill:url(#SVGID_204_);}
	.st205{fill:url(#SVGID_205_);}
	.st206{fill:url(#SVGID_206_);}
	.st207{fill:url(#SVGID_207_);}
	.st208{fill:url(#SVGID_208_);}
	.st209{fill:url(#SVGID_209_);}
	.st210{fill:url(#SVGID_210_);}
	.st211{fill:url(#SVGID_211_);}
	.st212{fill:url(#SVGID_212_);}
	.st213{fill:url(#SVGID_213_);}
	.st214{fill:url(#SVGID_214_);}
	.st215{fill:url(#SVGID_215_);}
	.st216{fill:url(#SVGID_216_);}
	.st217{fill:url(#SVGID_217_);}
	.st218{fill:url(#SVGID_218_);}
	.st219{fill:url(#SVGID_219_);}
	.st220{fill:url(#SVGID_220_);}
	.st221{fill:url(#SVGID_221_);}
	.st222{fill:url(#SVGID_222_);}
	.st223{fill:url(#SVGID_223_);}
	.st224{fill:url(#SVGID_224_);}
	.st225{fill:url(#SVGID_225_);}
	.st226{fill:url(#SVGID_226_);}
	.st227{fill:url(#SVGID_227_);}
	.st228{fill:url(#SVGID_228_);}
	.st229{fill:url(#SVGID_229_);}
	.st230{fill:url(#SVGID_230_);}
	.st231{fill:url(#SVGID_231_);}
	.st232{fill:url(#SVGID_232_);}
	.st233{fill:url(#SVGID_233_);}
	.st234{fill:url(#SVGID_234_);}
	.st235{fill:url(#SVGID_235_);}
	.st236{fill:url(#SVGID_236_);}
	.st237{fill:url(#SVGID_237_);}
	.st238{fill:url(#SVGID_238_);}
	.st239{fill:url(#SVGID_239_);}
	.st240{fill:url(#SVGID_240_);}
	.st241{fill:url(#SVGID_241_);}
	.st242{fill:url(#SVGID_242_);}
	.st243{fill:url(#SVGID_243_);}
	.st244{fill:url(#SVGID_244_);}
	.st245{fill:url(#SVGID_245_);}
	.st246{fill:url(#SVGID_246_);}
	.st247{fill:url(#SVGID_247_);}
	.st248{fill:url(#SVGID_248_);}
	.st249{fill:url(#SVGID_249_);}
	.st250{fill:url(#SVGID_250_);}
	.st251{fill:url(#SVGID_251_);}
	.st252{fill:url(#SVGID_252_);}
	.st253{fill:url(#SVGID_253_);}
	.st254{fill:url(#SVGID_254_);}
	.st255{fill:url(#SVGID_255_);}
	.st256{fill:url(#SVGID_256_);}
	.st257{fill:url(#SVGID_257_);}
	.st258{fill:url(#SVGID_258_);}
	.st259{fill:url(#SVGID_259_);}
	.st260{fill:url(#SVGID_260_);}
	.st261{fill:url(#SVGID_261_);}
	.st262{fill:url(#SVGID_262_);}
	.st263{fill:url(#SVGID_263_);}
	.st264{fill:url(#SVGID_264_);}
	.st265{fill:url(#SVGID_265_);}
	.st266{fill:url(#SVGID_266_);}
	.st267{fill:url(#SVGID_267_);}
	.st268{fill:url(#SVGID_268_);}
	.st269{fill:url(#SVGID_269_);}
	.st270{fill:url(#SVGID_270_);}
	.st271{fill:url(#SVGID_271_);}
	.st272{fill:url(#SVGID_272_);}
	.st273{fill:url(#SVGID_273_);}
	.st274{fill:url(#SVGID_274_);}
	.st275{fill:url(#SVGID_275_);}
	.st276{fill:url(#SVGID_276_);}
	.st277{fill:url(#SVGID_277_);}
	.st278{fill:url(#SVGID_278_);}
	.st279{fill:url(#SVGID_279_);}
	.st280{fill:url(#SVGID_280_);}
	.st281{fill:url(#SVGID_281_);}
	.st282{fill:url(#SVGID_282_);}
	.st283{fill:url(#SVGID_283_);}
	.st284{fill:url(#SVGID_284_);}
	.st285{fill:url(#SVGID_285_);}
	.st286{fill:url(#SVGID_286_);}
	.st287{fill:url(#SVGID_287_);}
	.st288{fill:url(#SVGID_288_);}
	.st289{fill:url(#SVGID_289_);}
	.st290{fill:url(#SVGID_290_);}
	.st291{fill:url(#SVGID_291_);}
	.st292{fill:url(#SVGID_292_);}
	.st293{fill:url(#SVGID_293_);}
	.st294{fill:url(#SVGID_294_);}
	.st295{fill:url(#SVGID_295_);}
	.st296{fill:url(#SVGID_296_);}
	.st297{fill:url(#SVGID_297_);}
	.st298{fill:url(#SVGID_298_);}
	.st299{fill:url(#SVGID_299_);}
	.st300{fill:url(#SVGID_300_);}
	.st301{fill:url(#SVGID_301_);}
	.st302{fill:url(#SVGID_302_);}
	.st303{fill:url(#SVGID_303_);}
	.st304{fill:url(#SVGID_304_);}
	.st305{fill:url(#SVGID_305_);}
	.st306{fill:url(#SVGID_306_);}
	.st307{fill:url(#SVGID_307_);}
	.st308{fill:url(#SVGID_308_);}
	.st309{fill:url(#SVGID_309_);}
	.st310{fill:url(#SVGID_310_);}
	.st311{fill:url(#SVGID_311_);}
	.st312{fill:url(#SVGID_312_);}
	.st313{fill:url(#SVGID_313_);}
	.st314{fill:url(#SVGID_314_);}
	.st315{fill:url(#SVGID_315_);}
	.st316{fill:url(#SVGID_316_);}
	.st317{fill:url(#SVGID_317_);}
	.st318{fill:url(#SVGID_318_);}
	.st319{fill:url(#SVGID_319_);}
	.st320{fill:url(#SVGID_320_);}
	.st321{fill:url(#SVGID_321_);}
	.st322{fill:url(#SVGID_322_);}
	.st323{fill:url(#SVGID_323_);}
	.st324{fill:url(#SVGID_324_);}
	.st325{fill:url(#SVGID_325_);}
	.st326{fill:url(#SVGID_326_);}
	.st327{fill:url(#SVGID_327_);}
	.st328{fill:url(#SVGID_328_);}
	.st329{fill:url(#SVGID_329_);}
	.st330{fill:url(#SVGID_330_);}
	.st331{fill:url(#SVGID_331_);}
	.st332{fill:url(#SVGID_332_);}
	.st333{fill:url(#SVGID_333_);}
	.st334{fill:url(#SVGID_334_);}
	.st335{fill:url(#SVGID_335_);}
	.st336{fill:url(#SVGID_336_);}
	.st337{fill:url(#SVGID_337_);}
	.st338{fill:url(#SVGID_338_);}
	.st339{fill:url(#SVGID_339_);}
	.st340{fill:url(#SVGID_340_);}
	.st341{fill:url(#SVGID_341_);}
	.st342{fill:url(#SVGID_342_);}
	.st343{fill:url(#SVGID_343_);}
	.st344{fill:url(#SVGID_344_);}
	.st345{fill:url(#SVGID_345_);}
	.st346{fill:url(#SVGID_346_);}
	.st347{fill:url(#SVGID_347_);}
	.st348{fill:url(#SVGID_348_);}
	.st349{fill:url(#SVGID_349_);}
	.st350{fill:url(#SVGID_350_);}
	.st351{fill:url(#SVGID_351_);}
	.st352{fill:url(#SVGID_352_);}
	.st353{fill:url(#SVGID_353_);}
	.st354{fill:url(#SVGID_354_);}
	.st355{fill:url(#SVGID_355_);}
	.st356{fill:url(#SVGID_356_);}
	.st357{fill:url(#SVGID_357_);}
	.st358{fill:url(#SVGID_358_);}
	.st359{fill:url(#SVGID_359_);}
	.st360{fill:url(#SVGID_360_);}
	.st361{fill:url(#SVGID_361_);}
	.st362{fill:url(#SVGID_362_);}
	.st363{fill:url(#SVGID_363_);}
	.st364{fill:url(#SVGID_364_);}
	.st365{fill:url(#SVGID_365_);}
	.st366{fill:url(#SVGID_366_);}
	.st367{fill:url(#SVGID_367_);}
	.st368{fill:url(#SVGID_368_);}
	.st369{fill:url(#SVGID_369_);}
	.st370{fill:url(#SVGID_370_);}
	.st371{fill:url(#SVGID_371_);}
	.st372{fill:url(#SVGID_372_);}
	.st373{fill:url(#SVGID_373_);}
	.st374{fill:url(#SVGID_374_);}
	.st375{fill:url(#SVGID_375_);}
	.st376{fill:url(#SVGID_376_);}
	.st377{fill:url(#SVGID_377_);}
	.st378{fill:url(#SVGID_378_);}
	.st379{fill:url(#SVGID_379_);}
	.st380{fill:url(#SVGID_380_);}
	.st381{fill:url(#SVGID_381_);}
	.st382{fill:url(#SVGID_382_);}
	.st383{fill:url(#SVGID_383_);}
	.st384{fill:url(#SVGID_384_);}
	.st385{fill:url(#SVGID_385_);}
	.st386{fill:url(#SVGID_386_);}
	.st387{fill:url(#SVGID_387_);}
	.st388{fill:url(#SVGID_388_);}
	.st389{fill:url(#SVGID_389_);}
	.st390{fill:url(#SVGID_390_);}
	.st391{fill-rule:evenodd;clip-rule:evenodd;fill:#FFF8FF;}
	.st392{fill:url(#SVGID_391_);}
	.st393{fill:url(#SVGID_392_);}
	.st394{fill:url(#SVGID_393_);}
	.st395{fill:url(#SVGID_394_);}
	.st396{fill:url(#SVGID_395_);}
	.st397{fill:url(#SVGID_396_);}
	.st398{fill:url(#SVGID_397_);}
	.st399{fill:url(#SVGID_398_);}
	.st400{fill:url(#SVGID_399_);}
	.st401{fill:none;stroke:#0A227A;stroke-miterlimit:10;}
	.st402{fill:none;stroke:#479544;stroke-miterlimit:10;}
	.st403{fill:url(#SVGID_400_);}
	.st404{opacity:0.5;}
	.st405{fill:#231F20;}
	.st406{fill:url(#SVGID_401_);}
	.st407{fill:url(#SVGID_402_);}
	.st408{fill:url(#SVGID_403_);}
	.st409{fill:url(#SVGID_404_);}
	.st410{fill:url(#SVGID_405_);}
	.st411{fill:url(#SVGID_406_);}
	.st412{fill:url(#SVGID_407_);}
	.st413{fill:url(#SVGID_408_);}
	.st414{fill:url(#SVGID_409_);}
	.st415{fill:url(#SVGID_410_);}
	.st416{fill:url(#SVGID_411_);}
	.st417{fill:url(#SVGID_412_);}
	.st418{fill:url(#SVGID_413_);}
	.st419{fill:url(#SVGID_414_);}
	.st420{fill:url(#SVGID_415_);}
	.st421{fill:url(#SVGID_416_);}
	.st422{fill:url(#SVGID_417_);}
	.st423{fill:url(#SVGID_418_);}
	.st424{fill:url(#SVGID_419_);}
	.st425{fill:url(#SVGID_420_);}
	.st426{fill:url(#SVGID_421_);}
	.st427{fill:url(#SVGID_422_);}
	.st428{fill:url(#SVGID_423_);}
	.st429{fill:url(#SVGID_424_);}
	.st430{fill:url(#SVGID_425_);}
	.st431{fill:url(#SVGID_426_);}
	.st432{fill:#27499B;}
	.st433{fill:url(#SVGID_427_);}
	.st434{fill:none;stroke:#27499B;stroke-miterlimit:10;}
	.st435{clip-path:url(#SVGID_429_);}
	.st436{fill:url(#SVGID_430_);}
	.st437{fill:url(#SVGID_431_);}
	.st438{fill:url(#SVGID_432_);}
	.st439{fill:url(#SVGID_433_);}
	.st440{fill:url(#SVGID_434_);}
	.st441{fill:none;stroke:#FFFFFF;stroke-width:2.7931;stroke-miterlimit:10;}
	.st442{fill:none;stroke:#FFFFFF;stroke-width:2.9072;stroke-miterlimit:10;}
	.st443{fill:none;stroke:#F2DFCE;stroke-width:2.9072;stroke-miterlimit:10;}
	.st444{fill:url(#SVGID_435_);}
	.st445{fill:url(#SVGID_436_);}
	.st446{fill:url(#SVGID_437_);}
	.st447{fill:url(#SVGID_438_);}
	.st448{fill:url(#SVGID_439_);}
	.st449{fill:url(#SVGID_440_);}
	.st450{opacity:0.18;}
	.st451{clip-path:url(#SVGID_442_);}
	.st452{clip-path:url(#SVGID_444_);}
	.st453{fill:url(#SVGID_445_);}
	.st454{fill:url(#SVGID_446_);}
	.st455{fill:url(#SVGID_447_);}
	.st456{fill:url(#SVGID_448_);}
	.st457{fill:url(#SVGID_449_);}
	.st458{fill:none;stroke:#FFFFFF;stroke-width:3.0162;stroke-miterlimit:10;}
	.st459{fill:none;stroke:#FFFFFF;stroke-width:3.1394;stroke-miterlimit:10;}
	.st460{fill:none;stroke:#F2DFCE;stroke-width:3.1394;stroke-miterlimit:10;}
	.st461{fill:url(#SVGID_450_);}
	.st462{fill:url(#SVGID_451_);}
	.st463{fill:url(#SVGID_452_);}
	.st464{fill:url(#SVGID_453_);}
	.st465{fill:url(#SVGID_454_);}
	.st466{fill:url(#SVGID_455_);}
	.st467{opacity:0.34;}
	.st468{fill:url(#SVGID_458_);}
	.st469{fill:url(#SVGID_459_);}
	.st470{fill:url(#SVGID_460_);}
	.st471{fill:url(#SVGID_461_);}
	.st472{fill:url(#SVGID_462_);}
	.st473{fill:url(#SVGID_463_);}
	.st474{fill:url(#SVGID_464_);}
	.st475{fill:url(#SVGID_465_);}
	.st476{fill:url(#SVGID_466_);}
	.st477{fill:url(#SVGID_467_);}
	.st478{fill:url(#SVGID_468_);}
	.st479{fill:url(#SVGID_469_);}
	.st480{fill:url(#SVGID_470_);}
	.st481{fill:url(#SVGID_471_);}
	.st482{fill:url(#SVGID_472_);}
	.st483{fill:url(#SVGID_473_);}
	.st484{fill:url(#SVGID_474_);}
	.st485{fill:url(#SVGID_475_);}
	.st486{fill:url(#SVGID_476_);}
	.st487{fill:url(#SVGID_477_);}
	.st488{fill:url(#SVGID_478_);}
	.st489{fill:url(#SVGID_479_);}
	.st490{fill:url(#SVGID_480_);}
	.st491{fill:url(#SVGID_481_);}
	.st492{fill:url(#SVGID_482_);}
	.st493{fill:url(#SVGID_483_);}
	.st494{fill:url(#SVGID_484_);}
	.st495{fill:url(#SVGID_485_);}
	.st496{fill:url(#SVGID_486_);}
	.st497{fill:url(#SVGID_487_);}
	.st498{fill:url(#SVGID_488_);}
	.st499{fill:url(#SVGID_489_);}
	.st500{fill:url(#SVGID_490_);}
	.st501{fill:url(#SVGID_491_);}
	.st502{fill:url(#SVGID_492_);}
	.st503{fill:url(#SVGID_493_);}
	.st504{fill:url(#SVGID_494_);}
	.st505{fill:url(#SVGID_495_);}
	.st506{fill:url(#SVGID_496_);}
	.st507{fill:url(#SVGID_497_);}
	.st508{fill:url(#SVGID_498_);}
	.st509{fill:url(#SVGID_499_);}
	.st510{fill:url(#SVGID_500_);}
	.st511{fill:url(#SVGID_501_);}
	.st512{fill:url(#SVGID_502_);}
	.st513{fill:url(#SVGID_503_);}
	.st514{fill:url(#SVGID_504_);}
	.st515{fill:url(#SVGID_505_);}
	.st516{fill:url(#SVGID_506_);}
	.st517{fill:url(#SVGID_507_);}
	.st518{fill:url(#SVGID_508_);}
	.st519{fill:url(#SVGID_509_);}
	.st520{fill:url(#SVGID_510_);}
	.st521{fill:url(#SVGID_511_);}
	.st522{fill:url(#SVGID_512_);}
	.st523{fill:url(#SVGID_513_);}
	.st524{fill:url(#SVGID_514_);}
	.st525{fill:url(#SVGID_515_);}
	.st526{fill:url(#SVGID_516_);}
	.st527{fill:url(#SVGID_517_);}
	.st528{fill:url(#SVGID_518_);}
	.st529{fill:url(#SVGID_519_);}
	.st530{fill:url(#SVGID_520_);}
	.st531{fill:url(#SVGID_521_);}
	.st532{fill:url(#SVGID_522_);}
	.st533{fill:url(#SVGID_523_);}
	.st534{fill:url(#SVGID_524_);}
	.st535{fill:url(#SVGID_525_);}
	.st536{fill:url(#SVGID_526_);}
	.st537{fill:url(#SVGID_527_);}
	.st538{fill:url(#SVGID_528_);}
	.st539{fill:url(#SVGID_529_);}
	.st540{fill:url(#SVGID_530_);}
	.st541{fill:url(#SVGID_531_);}
	.st542{fill:url(#SVGID_532_);}
	.st543{fill:url(#SVGID_533_);}
	.st544{fill:url(#SVGID_534_);}
	.st545{fill:url(#SVGID_535_);}
	.st546{fill:url(#SVGID_536_);}
	.st547{fill:url(#SVGID_537_);}
	.st548{fill:url(#SVGID_538_);}
	.st549{fill:url(#SVGID_539_);}
	.st550{fill:url(#SVGID_540_);}
	.st551{fill:url(#SVGID_541_);}
	.st552{fill:url(#SVGID_542_);}
	.st553{fill:url(#SVGID_543_);}
	.st554{fill:url(#SVGID_544_);}
	.st555{fill:url(#SVGID_545_);}
	.st556{fill:url(#SVGID_546_);}
	.st557{fill:url(#SVGID_547_);}
	.st558{fill:url(#SVGID_548_);}
	.st559{fill:url(#SVGID_549_);}
	.st560{fill:url(#SVGID_550_);}
	.st561{fill:url(#SVGID_551_);}
	.st562{fill:url(#SVGID_552_);}
	.st563{fill:url(#SVGID_553_);}
	.st564{fill:url(#SVGID_554_);}
	.st565{fill:url(#SVGID_555_);}
	.st566{fill:url(#SVGID_556_);}
	.st567{fill:url(#SVGID_557_);}
	.st568{fill:url(#SVGID_558_);}
	.st569{fill:url(#SVGID_559_);}
	.st570{fill:url(#SVGID_560_);}
	.st571{fill:url(#SVGID_561_);}
	.st572{fill:url(#SVGID_562_);}
	.st573{fill:url(#SVGID_563_);}
	.st574{fill:#158843;}
	.st575{fill:#303030;}
	.st576{fill:url(#SVGID_564_);}
	.st577{fill:url(#SVGID_565_);}
	.st578{fill:url(#SVGID_566_);}
	.st579{fill:url(#SVGID_567_);}
	.st580{fill:url(#SVGID_568_);}
	.st581{fill:#FFFFFF;stroke:#303030;stroke-width:2.7802;stroke-miterlimit:10;}
	.st582{fill:none;stroke:#303030;stroke-width:2.7802;stroke-miterlimit:10;}
	.st583{fill:#F4CDAF;}
	.st584{fill:url(#SVGID_569_);}
	.st585{fill:url(#SVGID_570_);}
	.st586{opacity:0.12;}
	.st587{fill:url(#SVGID_571_);}
	.st588{fill:url(#SVGID_572_);}
	.st589{fill:url(#SVGID_573_);}
	.st590{fill:url(#SVGID_574_);}
	.st591{fill:url(#SVGID_575_);}
	.st592{fill:url(#SVGID_576_);}
	.st593{fill:#002D51;}
	.st594{fill:#A1CCDD;}
	.st595{fill:#C8E7F5;}
	.st596{fill:url(#SVGID_577_);}
	.st597{fill:#FFFFFF;stroke:#303030;stroke-width:1.8229;stroke-miterlimit:10;}
	.st598{fill:#00223B;}
	.st599{fill:none;stroke:#303030;stroke-width:1.8229;stroke-miterlimit:10;}
	.st600{fill:#ECD1BD;}
	.st601{fill:url(#SVGID_578_);}
	.st602{fill:url(#SVGID_579_);}
	.st603{fill:url(#SVGID_580_);}
	.st604{fill:url(#SVGID_581_);}
	.st605{fill:url(#SVGID_582_);}
	.st606{fill:url(#SVGID_583_);}
	.st607{fill:url(#SVGID_584_);}
	.st608{fill:#E8E8E8;}
	.st609{fill:#E7D852;}
	.st610{fill:#E58831;}
	.st611{fill:#113851;}
	.st612{opacity:0.38;clip-path:url(#SVGID_586_);}
	.st613{fill:none;stroke:#FFFFFF;stroke-width:1.609;stroke-linecap:round;stroke-linejoin:round;stroke-miterlimit:10;}
	.st614{fill:#153146;}
	.st615{fill:none;stroke:#113851;stroke-width:0.1341;stroke-miterlimit:10;}
	.st616{fill:url(#SVGID_587_);}
</style>
<g id="Capa_1">
</g>
<g id="Capa_2">
	<g>
		<g>
			<g>
				<defs>
					<rect id="SVGID_443_" y="109.6" width="442.8" height="453.2"/>
				</defs>
				<clipPath id="SVGID_1_">
					<use xlink:href="#SVGID_443_"  style="overflow:visible;"/>
				</clipPath>
				<g style="clip-path:url(#SVGID_1_);">
					<g>
						
							<radialGradient id="SVGID_2_" cx="3436.3599" cy="2805.3975" r="230.1105" gradientTransform="matrix(-0.9852 -0.1715 0.1715 -0.9852 3165.0234 3572.6235)" gradientUnits="userSpaceOnUse">
							<stop  offset="0.4143" style="stop-color:#138843"/>
							<stop  offset="0.9772" style="stop-color:#056A32"/>
						</radialGradient>
						<path class="st2" d="M339,444.6c-8.8-5.8-15.9-14-21.8-23c-9.7-14.9-18.3-32.4-33.8-42.3c-17.4-11.2-39.9-12.3-59.7-8.3
							c-18.8,3.8-36.3,11.8-53.9,19.3c-17.6,7.5-35.7,14.7-54.7,16.6c-30.9,3.1-62.5-11-73.9-41.3c-6.5-17.3-5.2-37.4,3.6-53.6
							c11.9-22,35.2-35.6,44.5-59.3c8.5-21.6,4.4-48-11.1-65.6c-8.5-9.6-19.6-16.4-29.1-24.9c-16-14.3-21.3-34-18.6-55.1
							c1.9-14.6,7.6-28.4,14.6-41.2c6.4-11.8,15.6-19.4,26.5-27.1c20.5-14.5,44-24.7,68.3-30.8c38.2-9.6,78.3-9.5,117.4-4.6
							c50,6.3,99.6,20.9,142.2,47.8c42.6,26.9,77.9,67,93.9,114.8c18.1,53.9,10.8,118.6-7.8,171.5c-9.5,27.1-22.7,53.9-40.1,76.8
							c-18.9,24.8-57.7,44.4-89.1,37.7C350,450.5,344.2,448,339,444.6z"/>
						
							<radialGradient id="SVGID_3_" cx="4084.1953" cy="1480.3983" r="56.8189" gradientTransform="matrix(-0.798 -0.6026 0.6026 -0.798 2497.9446 3844.071)" gradientUnits="userSpaceOnUse">
							<stop  offset="0" style="stop-color:#27499B"/>
							<stop  offset="1" style="stop-color:#283270"/>
						</radialGradient>
						<path class="st3" d="M94.3,250c10,6.4,22.6,9.3,34,8.4c18.7-1.5,36.1-12.6,46.5-28.3c13.5-20.5,17.6-50.1,0.9-69.8
							c-11.4-13.4-30.5-19.1-47.7-15.9c-17.3,3.2-32.5,14.7-41.7,29.7c-10.3,16.7-15.1,37.4-8.3,56.3
							C80.8,238.6,86.9,245.2,94.3,250z"/>
						<g>
							
								<image style="overflow:visible;opacity:0.25;" width="519" height="584" xlink:href="6F0FC8D731F91F41.png"  transform="matrix(0.24 0 0 0.24 153.9925 392.6167)">
							</image>
							<g>
								
									<radialGradient id="SVGID_4_" cx="3901.3088" cy="1338.8716" r="51.2778" gradientTransform="matrix(-0.7926 -0.5985 0.6153 -0.8148 2466.769 3863.2034)" gradientUnits="userSpaceOnUse">
									<stop  offset="0" style="stop-color:#27499B"/>
									<stop  offset="1" style="stop-color:#283270"/>
								</radialGradient>
								<polygon class="st4" points="256.6,398.8 161.4,431.1 185.5,509.6 								"/>
							</g>
						</g>
						<g>
							
								<image style="overflow:visible;opacity:0.25;" width="263" height="245" xlink:href="6F0FC8D731F91F43.png"  transform="matrix(0.24 0 0 0.24 6.6568 452.4009)">
							</image>
							<g>
								
									<radialGradient id="SVGID_5_" cx="1256.5641" cy="-2303.2395" r="24.0202" gradientTransform="matrix(0.6448 -0.7643 0.7643 0.6448 993.5299 2918.1174)" gradientUnits="userSpaceOnUse">
									<stop  offset="0.4143" style="stop-color:#138843"/>
									<stop  offset="0.9772" style="stop-color:#056A32"/>
								</radialGradient>
								<polygon class="st5" points="59.4,500.3 47.4,455.3 10.3,465.1 								"/>
							</g>
						</g>
						<g>
							
								<image style="overflow:visible;opacity:0.25;" width="392" height="366" xlink:href="6F0FC8D731F91F46.png"  transform="matrix(0.24 0 0 0.24 49.5925 230.3767)">
							</image>
							<g>
								
									<radialGradient id="SVGID_6_" cx="1176.527" cy="-2987.3909" r="30.6816" gradientTransform="matrix(0.3111 -0.9504 0.9504 0.3111 2566.6428 2314.4666)" gradientUnits="userSpaceOnUse">
									<stop  offset="0.4143" style="stop-color:#138843"/>
									<stop  offset="0.9772" style="stop-color:#056A32"/>
								</radialGradient>
								<path class="st6" d="M111.6,294.1c0.3-0.1,0.6-0.2,0.9-0.3c3.3-1,6.4-2.9,7.9-5.9c1.2-2.3,1.4-5,1.1-7.5
									c-0.6-4.6-2.6-9.1-4.4-13.4c-1.9-4.4-4.1-8.7-6.7-12.9c-2.1-3.4-4.4-6.7-6.9-9.9c-1.3-1.6-2.6-3.2-4-4.7
									c-1.1-1.2-3.1-2-4.6-2.5c-7.6-2.2-14.2,2.9-19.1,8.2c-3.5,3.8-6.8,7.9-9.9,12.4c-2.9,4.2-6.4,8.9-8.1,13.9
									c-0.4,1.2-0.7,2.4-0.8,3.6c-0.3,3.5,0.9,6.9,3.4,9.4c3.1,3.2,7.7,4.6,11.9,6c9.3,3.2,19,4.4,28.8,4.5
									C104.5,295.1,108.2,294.9,111.6,294.1z"/>
							</g>
						</g>
						<g>
							
								<image style="overflow:visible;opacity:0.25;" width="310" height="318" xlink:href="6F0FC8D731F91F47.png"  transform="matrix(0.24 0 0 0.24 80.3125 34.2967)">
							</image>
							<g>
								<path class="st458" d="M103.7,83.1c0.2,0.2,0.3,0.3,0.5,0.4c1.8,1.5,4.2,2.6,6.6,2.4c1.8-0.2,3.5-1.1,4.9-2.3
									c2.5-2.1,4.4-5.1,6.2-7.8c1.9-2.9,3.5-5.9,5-9c1.2-2.6,2.2-5.2,3.1-7.9c0.5-1.4,0.9-2.8,1.2-4.2c0.3-1.1,0-2.6-0.4-3.7
									c-1.7-5.4-7.3-7.2-12.3-8.1c-3.6-0.6-7.4-0.9-11.2-1c-3.6-0.1-7.8-0.3-11.4,0.7c-0.8,0.2-1.7,0.5-2.4,0.9
									c-2.2,1.2-3.7,3.2-4.2,5.7c-0.7,3.1,0.3,6.4,1.1,9.4c1.8,6.7,4.9,12.9,8.6,18.7C100.4,79.3,101.9,81.4,103.7,83.1z"/>
							</g>
						</g>
						<path class="st459" d="M236.8,150.8c-3.6,2.1-6.6,5.3-5.6,9.9c0.5,2.3,2,4.3,3.6,6.2c5.5,6.5,12,11.9,19,16.7
							c3.4,2.3,7,4.5,11.1,5.2c6,1,12.1-1.8,15.5-6.8c6-8.6,11.3-22.6,2.8-31.2c-5.5-5.5-14.8-5.9-22.1-5.6
							c-6.9,0.2-13.9,1.2-20.3,3.7C239.4,149.4,238.1,150,236.8,150.8z"/>
						<path class="st460" d="M69.1,293.8c-0.5,3.2,0.2,6.7,1.6,9.4c2.4,4.5,7.1,7.6,12.2,8.5c6.6,1.1,14.4-1.1,17.5-7.4
							c2.1-4.3,1.4-9.7-1.3-13.6c-2.7-3.9-7.2-6.5-12-7.1c-5.3-0.7-11,0.3-14.9,4.1C70.5,289.2,69.5,291.4,69.1,293.8z"/>
						
							<linearGradient id="SVGID_7_" gradientUnits="userSpaceOnUse" x1="3752.5896" y1="1428.3544" x2="3771.4741" y2="1428.3544" gradientTransform="matrix(-0.798 -0.6026 0.6026 -0.798 2497.9446 3844.071)">
							<stop  offset="5.953100e-03" style="stop-color:#124673"/>
							<stop  offset="1" style="stop-color:#0477BF"/>
						</linearGradient>
						<path class="st7" d="M347.6,435.1c-0.4,2.2-0.1,4.6,0.6,6.4c1.2,3,3.8,5,6.6,5.4c3.7,0.6,8.1-1.2,10.1-5.7
							c1.3-3,1.1-6.7-0.3-9.3c-1.4-2.6-3.9-4.2-6.5-4.5c-2.9-0.3-6.2,0.6-8.5,3.3C348.5,431.9,347.9,433.5,347.6,435.1z"/>
						
							<linearGradient id="SVGID_8_" gradientUnits="userSpaceOnUse" x1="4062.4634" y1="1457.795" x2="4081.3481" y2="1457.795" gradientTransform="matrix(-0.798 -0.6026 0.6026 -0.798 2497.9446 3844.071)">
							<stop  offset="5.953100e-03" style="stop-color:#124673"/>
							<stop  offset="1" style="stop-color:#0477BF"/>
						</linearGradient>
						<path class="st8" d="M118.1,224.9c-0.4,2.2-0.1,4.6,0.6,6.4c1.2,3,3.8,5,6.6,5.4c3.7,0.6,8.1-1.2,10.1-5.7
							c1.3-3,1.1-6.7-0.3-9.3c-1.4-2.6-3.9-4.2-6.5-4.5c-2.9-0.3-6.2,0.6-8.5,3.3C119,221.7,118.4,223.2,118.1,224.9z"/>
						
							<radialGradient id="SVGID_9_" cx="4083.9922" cy="1319.0485" r="7.9939" gradientTransform="matrix(-0.798 -0.6026 0.6026 -0.798 2497.9446 3844.071)" gradientUnits="userSpaceOnUse">
							<stop  offset="0.4143" style="stop-color:#138843"/>
							<stop  offset="0.9772" style="stop-color:#056A32"/>
						</radialGradient>
						<path class="st9" d="M26.3,328.6c-0.3,1.8-0.1,3.8,0.5,5.3c1,2.5,3.1,4.2,5.4,4.5c3,0.5,6.8-1,8.3-4.7
							c1.1-2.5,0.9-5.6-0.2-7.7c-1.2-2.2-3.2-3.5-5.4-3.8c-2.4-0.3-5.1,0.5-7.1,2.7C27.1,326,26.6,327.3,26.3,328.6z"/>
						
							<radialGradient id="SVGID_10_" cx="4038.696" cy="1246.8787" r="8.9436" gradientTransform="matrix(-0.798 -0.6026 0.6026 -0.798 2497.9446 3844.071)" gradientUnits="userSpaceOnUse">
							<stop  offset="0.4143" style="stop-color:#138843"/>
							<stop  offset="0.9772" style="stop-color:#056A32"/>
						</radialGradient>
						<path class="st10" d="M18.1,413.3c-0.3,2.1-0.1,4.2,0.6,5.9c1.1,2.8,3.5,4.7,6.1,5.1c3.4,0.5,7.6-1.1,9.3-5.3
							c1.2-2.8,1-6.2-0.3-8.7c-1.3-2.4-3.6-3.9-6-4.2c-2.7-0.3-5.7,0.5-7.9,3.1C18.9,410.4,18.4,411.8,18.1,413.3z"/>
						
							<linearGradient id="SVGID_11_" gradientUnits="userSpaceOnUse" x1="4029.1479" y1="1645.8336" x2="4068.6956" y2="1645.8336" gradientTransform="matrix(-0.798 -0.6026 0.6026 -0.798 2497.9446 3844.071)">
							<stop  offset="5.953100e-03" style="stop-color:#124673"/>
							<stop  offset="1" style="stop-color:#0477BF"/>
						</linearGradient>
						<path class="st11" d="M240,86.5c-0.8,4.6-0.2,9.6,1.3,13.4c2.6,6.3,7.9,10.5,13.7,11.4c7.7,1.2,17-2.5,21-11.9
							c2.7-6.3,2.3-14-0.6-19.5c-2.9-5.5-8.1-8.8-13.6-9.5c-6.2-0.7-12.9,1.2-17.8,6.9C241.9,79.7,240.6,83,240,86.5z"/>
					</g>
					
						<radialGradient id="SVGID_12_" cx="3977.1177" cy="1431.2091" r="31.829" gradientTransform="matrix(-0.798 -0.6026 0.6026 -0.798 2497.9446 3844.071)" gradientUnits="userSpaceOnUse">
						<stop  offset="0" style="stop-color:#27499B"/>
						<stop  offset="1" style="stop-color:#283270"/>
					</radialGradient>
					<circle class="st12" cx="186.6" cy="305.2" r="31.8"/>
					<polygon class="st458" points="387.3,370.7 439.1,392.9 406.1,436.5 354.4,414.3 					"/>
				</g>
			</g>
			<g>
				<g id="B0Bgo3.tif_3_" class="st467">
					<path class="st1" d="M117.5,356.7c0.1,6.9,0.1,13.9,0.2,20.8c0,2.8-1.1,3.9-4,3.9c-3.1,0-6.2-0.2-9.3-0.3
						c-4.5-0.1-9,0-13.5-0.1c-2.5,0-3.4-0.8-3.4-3.3c0.1-12.7,0.2-25.3,0.4-38c0-1,0-2,0-3c0-3.2,1.1-4.4,4.3-4.4
						c5.4-0.1,10.8,0,16.2,0c1.9,0,3.8,0,5.8,0c2.6,0.1,3.6,1.1,3.6,3.7c0.1,6.9,0.1,13.8,0.2,20.7
						C117.8,356.7,117.6,356.7,117.5,356.7z M115.4,338.3c-1.3,0-2.4,0-3.4,0.1c-0.4,0-0.8,0.3-1,0.6c-4,5.8-7.9,11.5-11.9,17.3
						c-3.1,4.6-6.3,9.2-9.4,13.8c-0.5,0.7-0.5,1.6-0.9,2.7c1.4,0,2.4,0,3.4-0.1c0.2,0,0.5-0.2,0.6-0.4c1.9-2.8,3.7-5.7,5.6-8.5
						c3.8-5.6,7.6-11.3,11.3-16.9C111.5,344.1,113.4,341.3,115.4,338.3z M116.1,339.9c-0.1,0-0.2,0-0.3-0.1
						c-7.2,10.9-14.3,21.8-21.6,33c1.9,0,3.6,0,5.3-0.1c0.3,0,0.7-0.3,0.9-0.6c0.9-1.6,1.7-3.3,2.7-4.9c3.8-6.2,7.5-12.4,11.3-18.6
						c0.6-0.9,1.6-1.7,1.7-2.6C116.4,344,116.2,341.9,116.1,339.9z M102.7,374.2C102.7,374.3,102.8,374.3,102.7,374.2
						c-3.4,0.1-6.9,0.2-10.3,0.2c-3.7,0-3.6,0-3.4,3.7c0.1,1,0.5,1.4,1.5,1.4c1.4,0,2.9,0,4.3,0c6.3,0.1,12.6,0.2,19,0.3
						c1.2,0,2-0.4,2.2-1.7c0.1-0.9,0.1-1.9,0.2-2.9c0.1-0.9-0.3-1.2-1.2-1.2C110.9,374.2,106.8,374.2,102.7,374.2z M89.2,368.3
						c7-10.1,13.8-19.9,20.7-29.9c-1.7,0-3.3,0-4.8,0.1c-0.3,0-0.6,0.1-0.7,0.3c-2.3,3.7-4.7,7.5-7,11.2c-2.7,4.4-5.4,8.8-8,13.1
						c-0.1,0.2-0.2,0.5-0.2,0.7C89.2,365.2,89.2,366.5,89.2,368.3z M116,336.7c0-2.3-0.3-2.8-2.1-2.8c-6,0-12-0.1-18-0.1
						c-1.4,0-2.8,0-4.2,0.1c-2,0.2-2.6,1.1-2.1,3C98.4,336.9,107.2,336.8,116,336.7z M103.1,338.4c-1.4,0-2.5,0-3.7,0.1
						c-0.2,0-0.5,0.4-0.6,0.6c-0.7,1.1-1.2,2.3-2,3.4c-2,3-4,6-6.1,9c-1.9,2.8-1.6,5.8-1.5,9.2C94,353.1,98.5,345.9,103.1,338.4z
						 M116.1,348.6c-5.3,7.7-10,15.7-14.3,24.1c1.2,0,2.2,0.1,3.1-0.1c0.4-0.1,0.5-1.1,0.8-1.7c0-0.1,0.1-0.2,0.1-0.2
						c2.9-4.8,5.8-9.6,8.7-14.4c0.6-0.9,1.4-1.8,1.6-2.8C116.4,351.9,116.2,350.2,116.1,348.6z M116,356.6c-0.1,0-0.3-0.1-0.4-0.1
						c-3.1,5.3-6.2,10.6-9.4,16.2c1.3,0,2.3,0,3.3-0.1c0.3,0,0.6-0.4,0.7-0.6c1.5-2.6,2.9-5.3,4.4-7.9c0.4-0.7,1.3-1.4,1.4-2.1
						C116.2,360.2,116.1,358.4,116,356.6z M97.8,338.9c-0.1-0.1-0.2-0.3-0.3-0.4c-0.7,0-1.4,0.1-2.1,0c-1.1-0.1-1.8,0.3-2.3,1.3
						c-0.5,1.1-1.2,2.1-1.9,3.1c-0.6,1-1.5,1.9-1.7,2.9c-0.3,1.6-0.2,3.2-0.3,5.2C92.2,346.8,95,342.8,97.8,338.9z M116,364
						c-1.6,3.1-3,5.8-4.5,8.6c0.4,0,0.8,0.1,1.1,0.1c3.4,0.1,3.4,0.1,3.4-3.2C116.1,367.7,116.1,366,116,364z M89.5,342.7
						c0.1,0,0.2,0.1,0.2,0.1c0.8-1.4,1.7-2.7,2.6-4.3c-1.1,0-2,0-2.9,0C89.5,340.1,89.5,341.4,89.5,342.7z"/>
					<path class="st1" d="M234.9,190.1c-0.2-3.9-5.2-9.2-10.3-8.4c-6.5,0.9-10,7.3-8.9,11.3c0.8,0.1,1.6-0.1,2.2,0.2
						c0.6,0.3,0.9,1.1,1.4,1.7c1,1.3,2.1,2.6,3.1,3.9c0.5,0.6,1.1,1,1.4,1.6c0.9,1.5,0.7,2.3-0.7,3.1c-1.3,0.7-2.2,2.1-4,2.1
						c-1.5,0-2.5-0.7-3.4-1.6c-1.3-1.3-2.4-2.8-3-4.6c-0.4-1.3-0.2-2.6,0.4-3.8c0.1-0.3,0.1-0.7,0-1.1c-1.4-5.8,0.9-11.4,6-14.3
						c6-3.5,13.6-1.5,17,4.6c1,1.7,1.3,3.8,2,5.7c0.2,0.5,0.5,1.1,0.9,1.5c0.8,0.8,1.5,1.8,1.1,2.9c-0.8,2.3-1.7,4.5-2.8,6.7
						c-0.8,1.5-2,1.8-3.7,1.3c-1-0.3-2-0.5-3-0.8c-1.1-0.3-1.5-1.6-1-2.8c0.8-1.8,1.7-3.7,2.5-5.5c0.2-0.3,0.2-0.8,0.2-1.1
						C232.6,190.6,232.9,190.3,234.9,190.1z M215.1,194.8c-1.2,0.8-1.7,1.9-1.6,3.3c0.1,2.2,1.4,3.7,2.8,5.1c1.9,2,3.6,1.8,5.4-0.2
						C219.6,200.3,217.4,197.6,215.1,194.8z M232.6,201.2c2.6,1.2,3.6,1,4.5-0.8c0.7-1.4,1.1-2.9,1.8-4.3c1.1-2.1-0.1-4-2.7-4.3
						C235,194.9,233.8,198,232.6,201.2z M220.7,182c0.6-0.9,2.2-0.5,2.1-2C221,180,220.6,180.4,220.7,182z M215.6,186.7
						c0.1,0.1,0.2,0.1,0.3,0.2c0.5-1.2,1.1-2.5,1.6-3.7C215.8,183.8,215.9,185.3,215.6,186.7z M218.2,183.7c0.7-0.9,2-1.1,1.4-2.6
						C218.5,181.5,218,182.3,218.2,183.7z M234.1,183.7c-0.8,1.2,0,1.8,0.7,2.7C235.5,185.2,234.9,184.4,234.1,183.7z M232.4,195.8
						c0.2,0.1,0.3,0.2,0.5,0.3c0.7-1,1.3-2.1,2-3.1c-0.1-0.1-0.2-0.2-0.4-0.3C233.8,193.8,233.1,194.8,232.4,195.8z M230.6,200.4
						c0.5-0.4,1-0.7,1.4-1.2c0.4-0.4,0.6-1,0.8-1.4C231.8,198.4,230.5,198.9,230.6,200.4z M235.7,186.4c-0.4,1.1-0.5,2,0.4,2.8
						C236.5,188.1,236.7,187.2,235.7,186.4z M232.7,181.7c-1.2,1.5-0.4,1.9,0.6,2.2C233.1,183.2,233,182.6,232.7,181.7z
						 M231.2,182.8c0.5-1.1,0.4-1.7-0.4-1.8c-0.2,0-0.5,0.2-0.8,0.3C230.4,181.7,230.7,182.2,231.2,182.8z M229.6,180.1
						c-0.6,0.1-1.1,0.1-1.6,0.2c0.1,0.3,0.1,0.7,0.2,0.7C228.7,181.2,229.4,181.5,229.6,180.1z M223.6,180.8
						c0.7-0.2,1.7,0.2,1.6-1.2C224.3,179.5,223.5,179.3,223.6,180.8z M218.9,196c-0.2,0-0.4,0.1-0.7,0.1c0.2,0.7,0.3,1.5,0.5,2.2
						c0.2,0,0.4-0.1,0.6-0.1C219.1,197.5,219,196.7,218.9,196z"/>
					<g>
						<path class="st1" d="M168.9,357.6c0,2,0.1,3.9,0,5.9c-0.1,3-1.2,4.1-3.4,4.4c-3.6,0.4-5.5-1.7-5.9-4c-0.1-0.6-0.3-1.2-0.3-1.8
							c-0.2-2.5-0.6-3-3-3.5c-1.1-0.2-2.2-0.4-3.3-0.6c-1.3-0.3-2.2,0.2-2.9,1.2c-0.8,1.2-1.4,2.6-2.4,3.7c-2.5,2.8-7,1.4-8.3-1.7
							c-0.3-0.8-0.3-1.9,0-2.7c1.4-3.7,2.9-7.3,4.4-11c0.5-1.2,1.5-2,2.9-2c1.4,0,2.8,0,4.2,0.1c1,0.1,2.1,0.2,2.3,1.7
							c0.1,0.4,0.9,0.7,1.4,0.9c0.9,0.2,1.9,0.3,2.8,0.5c1,0.2,2,0.6,2.7-0.7c0.1-0.3,0.7-0.4,1-0.4c1.9,0.3,3.8,0.5,5.7,0.9
							c1.6,0.4,2.3,1.6,2.3,3.2c0,2,0,3.9,0.1,5.9C169.2,357.6,169,357.6,168.9,357.6z M168.3,355.5c0,0-0.1,0-0.1,0
							c0-1.4,0.1-2.7-0.1-4.1c-0.1-0.6-0.6-1.4-1-1.6c-1.7-0.5-3.6-0.8-5.4-1c-0.4-0.1-0.8,0.3-1.2,0.5c-0.5,0.2-1.1,0.6-1.6,0.6
							c-1.8-0.2-3.6-0.4-5.4-0.8c-0.5-0.1-0.9-0.7-1.1-1.2c-0.3-0.7-0.6-1.1-1.4-1.1c-1.3,0-2.5-0.1-3.8-0.2c-1.1,0-2.1,0.4-2.5,1.5
							c-1.4,3.4-2.8,6.9-4.2,10.3c-1,2.4,0.6,4.8,3.2,5c2.4,0.2,3.9-0.9,4.9-3.6c0.8-2.3,1.8-3,4.2-2.8c1.7,0.1,3.4,0.4,5,0.9
							c1.9,0.5,2.5,1.6,2.7,3.7c0.1,1.1,0.3,2.3,0.8,3.3c0.7,1.6,2.7,2.2,4.7,1.8c1.4-0.3,1.8-0.8,1.9-3.1
							C168,360.9,168.1,358.2,168.3,355.5z"/>
						<path class="st1" d="M149.8,351c0.9,0.3,1.7,0.6,1.3,2c-0.3,1.4-1.2,0.9-1.8,1.2c-0.4,0.4-0.8,1.2-1.2,1.2
							c-1.9-0.1-2.2-0.4-2.2-1.9c-1.3-0.7-1.8-1.4-1.1-2.3c0.8-1,2-1.8,3-2.3C149.1,348.2,149.8,349.1,149.8,351z M146.7,352.9
							c0.2,0.1,0.3,0.2,0.5,0.3c0.7-0.9,1.9-1.5,1.6-3.3C148,351,147.4,352,146.7,352.9z"/>
						<path class="st1" d="M167,354.2c-0.4,0.3-0.9,0.9-1.5,1.1c-0.8,0.2-1.8-0.9-1.7-1.7c0.1-1,0.7-1.6,1.7-1.6
							C166.5,352,166.9,352.8,167,354.2z"/>
						<path class="st1" d="M163.5,355.7c0,1.1-0.6,1.6-1.5,1.6c-0.9,0-1.6-0.4-1.6-1.5c0-1,0.8-1.5,1.6-1.5
							C162.9,354.4,163.5,354.8,163.5,355.7z"/>
						<path class="st1" d="M156.8,356.6c-1.2-0.3-2.2-0.5-3.4-0.8C154.8,355,156.5,355.4,156.8,356.6z"/>
						<path class="st1" d="M141,359.9c1.2-0.9,2.3-1.8,3.5-2.6c0.1,0.1,0.2,0.2,0.3,0.4c-1.1,0.9-2.3,1.8-3.4,2.7
							C141.2,360.1,141.1,360,141,359.9z"/>
						<path class="st1" d="M141.5,361.3c0.9-0.7,1.7-1.3,2.6-2c0.1,0.1,0.2,0.3,0.3,0.4c-0.9,0.7-1.7,1.3-2.6,2
							C141.7,361.6,141.6,361.5,141.5,361.3z"/>
						<path class="st1" d="M141.8,357.7c0.9-0.6,1.7-1.2,2.6-1.9c0.1,0.1,0.2,0.2,0.3,0.3c-0.8,0.6-1.7,1.3-2.5,1.9
							C142,358,141.9,357.9,141.8,357.7z"/>
					</g>
					<path class="st1" d="M200.4,243.3c1.6,1.6,3.2,3.2,4.8,4.8c0.5,0.5,0.6,1-0.1,1.5c-0.8,0.7-1.5,1.5-2.3,2.3
						c-0.4,0.5-0.8,0.4-1.2,0c-1.5-1.6-3-3.2-4.4-4.8c-0.1-0.1-0.1-0.2-0.1-0.3c-0.1,0-0.2,0.1-0.2,0.1c-0.4,0.9-0.8,1.8-1.2,2.7
						c-0.5,1.1-1.1,2.1-1.7,3.1c-0.1,0.2-0.5,0.5-0.6,0.5c-0.2-0.1-0.5-0.4-0.6-0.6c-0.5-1.4-0.9-2.8-1.3-4.1c-1-3-2.1-6.1-3.1-9.1
						c-0.7-1.9-1.5-3.8-2.2-5.8c-0.1-0.2,0-0.5,0-0.5c0.2-0.1,0.5-0.1,0.7,0c1.5,0.6,3,1.3,4.5,1.8c3,1,6.1,1.9,9.1,2.8
						c1.8,0.5,3.5,1,5.3,1.6c0.2,0.1,0.5,0.3,0.6,0.6c0,0.1-0.3,0.4-0.5,0.5c-1.6,0.9-3.1,1.7-4.7,2.6
						C200.8,242.9,200.6,243.1,200.4,243.3z M193.4,251.3c0.2-0.3,0.4-0.4,0.5-0.7c0.7-1.6,1.4-3.2,2.1-4.8c0.3-0.8,0.6-0.9,1.2-0.3
						c0.9,0.9,1.7,1.8,2.6,2.7c0.8,0.9,1.6,1.8,2.4,2.7c0.8-0.7,1.5-1.4,2.3-2.3c-1.7-1.6-3.4-3.1-5.1-4.6c-0.8-0.7-0.8-0.9,0.1-1.4
						c1.2-0.7,2.4-1.3,3.6-2c0.4-0.2,0.8-0.5,1.3-0.8c-5.8-1.9-11.5-3.7-17.1-5.5c0.4,1.1,0.9,2.4,1.4,3.8c0.3-0.8,0.5-1.3,0.7-1.8
						c0.1,0,0.3,0.1,0.4,0.1c-0.1,0.6-0.2,1.2-0.5,1.7c-0.4,0.8-0.2,1.5,0.3,2.3c0.3-1.1,0.6-2,0.9-3c0.1,0,0.2,0,0.3,0
						c0,0.3,0.1,0.6,0.1,0.8c-0.2,0.9-0.5,1.8-0.8,2.6c-0.3,0.7,0.1,1.3,0.4,2c0.4-0.8,0.6-1.4,0.9-2c0.7-1.4,0.7-1.4,1.2-1.4
						c-0.4,1.2-0.8,2.4-1.4,3.5c-0.6,1.1,0.1,1.8,0.5,3c0.8-1.7,1.5-3.1,2.2-4.5c0.1,0,0.2,0.1,0.3,0.1c0,0.3,0,0.6-0.1,0.8
						c-0.6,1.3-1.1,2.5-1.7,3.8c-0.5,1,0.1,1.8,0.4,2.8c0.8-1.6,1.4-3,2.1-4.4c0.1-0.2,0.3-0.3,0.4-0.4c0,0.2,0.1,0.5,0,0.7
						c-0.6,1.4-1.2,2.9-1.9,4.3C193,250.1,193.1,250.6,193.4,251.3z"/>
					<path class="st1" d="M265.9,326.5c1.5-0.1,2.9-0.2,4.2-0.3c1.1-0.1,1.7,0.2,1.4,1.5c-1.1,5.5-2.2,11.1-3.4,16.6
						c-0.6,3.1-1.1,3.4-4.4,3.7c-6.6,0.7-13.2,1.5-19.7,2.2c-1.2,0.1-2.3,0.3-3.5,0.3c-3.1,0.1-3.4-0.2-3.8-3.3
						c-0.9-6.4-1.8-12.9-2.7-19.3c0-0.2-0.1-0.5-0.1-0.7c-0.3-3.4,0.3-4.2,3.6-4.8c1.8-0.3,3.6-0.5,5.3-0.7c1.5-0.1,2.7,0.3,3.3,1.8
						c0.2,0.5,1.1,1,1.6,0.9c4.2-0.4,8.3-0.9,12.5-1.6C264.5,322.3,264.6,322.3,265.9,326.5z M269.7,327.5c-1.3,0.2-2.8,0.4-4.3,0.5
						c-7,0.8-14,1.5-21,2.3c-1.3,0.1-2,0.8-2.3,2.2c-1,4.9-2.1,9.7-3.1,14.5c-0.2,0.7-0.2,1.4-0.3,2.4c1.4,0,2.6,0,3.7-0.1
						c2.3-0.3,4.5-0.7,6.7-0.9c5.3-0.6,10.6-1.2,15.9-1.8c1.1-0.1,1.7-0.7,1.9-1.8c0.4-2.2,1.1-4.3,1.4-6.5
						C268.9,334.7,269.2,331.2,269.7,327.5z M237,339c2.7-5.2,5.2-10.3,7.8-15.3c-1.7-1.1-2.3-0.9-3.2,1.1c-1.4,3.1-2.6,6.2-4.3,9.1
						C236.4,335.6,236.3,337,237,339z M241.4,323.4c-2-0.2-3,0.5-3.5,2.2c-0.4,1.2-0.8,2.4-1.6,3.5c-1.2,1.7-0.5,3.2,0,5.1
						C238,330.4,239.7,327,241.4,323.4z M237.5,344.1c2-2.9,2-5.9,2.5-8.8C239.2,338.1,236.4,340.3,237.5,344.1z M242.9,329.1
						c2.6,0.2,3.2-1.3,3.9-3c-0.7-0.4-1.2-0.7-1.9-1.1C244.2,326.4,243.6,327.6,242.9,329.1z M237.8,323.7c-2.8,0.5-3.5,2.5-2.1,4.6
						C236.3,326.9,237,325.4,237.8,323.7z M246.4,328.5c2.6,0.2,2.9,0,3.8-2.7C248,325.2,247.4,327,246.4,328.5z M253.3,327.6
						c2.1,0.3,2.6,0,3.5-2.6C254.7,324.5,254.2,326.2,253.3,327.6z M260.4,324.5c-2.2-0.1-2.8,0.4-3.4,2.9
						C259.3,327.8,259.5,325.8,260.4,324.5z M263.3,324.3c-1.8-0.4-2.4,0.2-3,2.7C262.5,327.5,262.6,325.6,263.3,324.3z M250,328.3
						c2.3,0.2,2.8-1.3,3.3-2.7C250.8,324.7,251.1,327,250,328.3z"/>
					<g>
						<path class="st1" d="M80.6,132.5c3.6,0.2,7.4,1.1,10.5,3.8c1.4,1.2,1.4,1.5,0.1,2.8c-0.7,0.8-1.4,1.1-2.4,0.2
							c-5.4-4.5-12.8-4.3-18.1,0.5c-0.7,0.6-1,0.5-1.6-0.1c-1.9-1.9-1.9-2.4,0.4-3.9C72.5,133.8,76.8,132.5,80.6,132.5z M86.9,137
							c0.8,0.3,1.4,0.6,2,0.7c0.1,0,0.7-1,0.5-1.2c-0.3-0.5-1-0.9-1.5-1.4C87.6,135.9,87.3,136.4,86.9,137z M85.6,133.9
							c-0.4,0.8-0.9,1.4-0.7,1.7c0.1,0.4,0.9,0.8,1.3,0.8c0.3,0,0.9-0.8,0.8-1.2C86.9,134.8,86.3,134.5,85.6,133.9z M77,133.8
							c-1.8-0.1-2.4,0.7-2.1,2.4C76.4,136.1,76.9,135.1,77,133.8z M72,137.5c1.8-0.6,2.2-1.1,2.3-3C72.8,134.7,72.8,134.7,72,137.5z
							 M84.8,134.1c-1.7-0.8-2-0.7-2.4,1.3c0.5,0.1,1,0.3,1.6,0.4c0.3-0.5,0.5-0.9,0.7-1.3C84.7,134.4,84.7,134.3,84.8,134.1z
							 M77.5,135.4c1.7,0,1.7-0.1,2.2-2C77.9,133.2,77.8,133.3,77.5,135.4z M69.8,139.2c1.5-0.8,1.7-2.2,2.1-3.7
							C70,136.2,70.3,137.9,69.8,139.2z M82.1,133.5c-1.7-0.5-1.9-0.4-2.2,1.6C81.6,135.5,81.7,135.4,82.1,133.5z M90.3,139.2
							c0.4-0.5,0.9-1,1-1.5c0-0.3-0.7-0.6-1.1-1c-0.4,0.7-0.7,1.2-0.9,1.7C89.5,138.7,89.8,138.9,90.3,139.2z"/>
						<path class="st1" d="M89.2,140.9c-0.3,0.4-0.5,0.7-0.6,0.9c-1.3,1.8-1.3,1.8-3.1,0.6c-3.6-2.3-8-2.1-11.4,0.5
							c-1,0.7-1.3,0.6-2.6-0.8c-0.7-0.8-0.7-1.3,0.1-2.1c1.9-1.6,4-2.6,6.4-2.8c3.4-0.3,6.5,0.2,9.4,2.1
							C88,139.8,88.5,140.3,89.2,140.9z M75.5,138.8c-1.8,0.4-2.8,2-2.5,3.7C74.6,141.9,75.3,140.9,75.5,138.8z M75.6,140.9
							c2.1-0.2,2.9-1,2.7-2.7C76.7,138.3,76.7,137.7,75.6,140.9z M80.9,138c-0.6,0-1.1,0-1.7,0c-0.2,0.7-0.5,1.3-0.7,2.1
							C80.3,140.2,80.3,140.2,80.9,138z M85.6,139.5c-1.7-1.3-1.9-1.2-2.3,1c0.5,0.2,1,0.3,1.5,0.5c0.1-0.2,0.2-0.3,0.3-0.4
							C85.2,140.3,85.3,139.9,85.6,139.5z M86.1,139.8c-1,1.1-1.1,1.9,0.8,2.4C87.4,141.2,87.7,140.2,86.1,139.8z M83.1,138.6
							c-1.6-0.7-2-0.4-2,1.6c0.5,0,0.9,0,1.4,0.1C82.8,139.6,82.9,139.1,83.1,138.6z"/>
						<path class="st1" d="M74.1,144.7c2.4-3.4,9.2-3.5,11.5-0.2c-0.5,0.7-1,1.3-1.6,2c-0.4,0.5-0.8,0.5-1.4,0.2
							c-1.8-1.1-3.6-1.1-5.4,0c-0.3,0.2-1,0.1-1.3-0.1C75.2,146,74.7,145.3,74.1,144.7z M79.4,142.9c-2,0.1-2.5,0.8-2.4,3
							C78.9,145,78.9,145,79.4,142.9z M79.6,145.1c0.6,0,1.1,0.1,1.6,0.1c0.3-0.8,0.6-1.4,0.8-2C80,142.6,79.8,142.8,79.6,145.1z
							 M83.1,146c0.2-0.8,0.4-1.4,0.6-2.1c-0.4-0.2-0.8-0.4-1.1-0.5C81.6,144.9,81.7,145.2,83.1,146z M76.7,143.8
							c-0.1-0.1-0.2-0.1-0.2-0.2c-0.5,0.3-0.9,0.7-1.5,1.1c0.5,0.4,0.8,0.6,1.2,0.9C76.3,144.9,76.5,144.3,76.7,143.8z"/>
						<path class="st1" d="M80.3,146.9c1.7,0.1,3,1.5,2.9,3.2c-0.1,1.9-1.6,3.3-3.5,3.2c-1.7-0.1-3.1-1.5-3.1-3.1
							C76.7,148.4,78.4,146.9,80.3,146.9z M81.1,148c-0.5,1.5-1,2.9-1.6,4.3c0.7,0.3,1.2,0.1,1.4-0.6c0.3-0.7,0.5-1.5,0.9-2.2
							C82.3,148.7,82,148.3,81.1,148z M78.7,152.3c0.7-1.6,1.3-3,1.8-4.4c-0.1-0.1-0.2-0.1-0.3-0.2c-1.9,0.4-1.5,2.6-2.5,3.8
							C78.1,151.8,78.3,152,78.7,152.3z"/>
					</g>
					<g>
						<path class="st1" d="M199.9,120.6c1.5,0.6,1.4,1.6,1.2,2.8c1.6,0.3,3.1,0.5,4.6,0.8c1.6,0.3,3.1,0.6,4.6,0.9
							c1.4,0.3,2.4,1.5,2.2,3c-0.2,1.6-0.5,3.3-0.8,4.9c-0.6,3.9-1.3,7.9-1.9,11.8c-0.2,1.3-1.1,2.2-2.4,2.1c-2.4-0.2-4.7-0.6-7.1-1
							c-3.7-0.6-7.5-1.2-11.2-1.9c-3.1-0.5-6.3-1.1-9.4-1.7c-1.9-0.4-2.9-1.8-2.6-3.8c0.4-2.8,0.9-5.6,1.4-8.4
							c0.4-2.2,0.9-4.4,1.3-6.6c0.4-2.3,1.5-3.1,3.8-2.7c2.8,0.5,5.6,0.9,8.3,1.4c0.8,0.1,1.4,0,1.5-1c0.1-0.4,0.7-0.8,1.1-1.2
							c0.2-0.2,0.6-0.4,0.7-0.7c0.9-2.3,2.5-4.1,4.8-5.2c0.2-0.1,0.3-0.2,0.5-0.4c1.5-1,1.5-1.1,2.5,0.5c1.7,2.7,1.6,2-0.5,3.7
							C201.7,118.6,200.9,119.6,199.9,120.6z M178.3,138c0,2.4,0.3,2.8,2.2,3.2c0.3,0.1,0.6,0.2,1,0.2c4.9,0.9,9.8,1.8,14.7,2.6
							c3.5,0.6,7.1,1.2,10.6,1.8c1.4,0.2,2-0.2,2.2-1.6c0.3-1.8,0.5-3.5,0.8-5.3c0.5-3.3,1-6.6,1.6-9.9c0.4-2,0-2.8-2-3.1
							c-3.6-0.6-7.2-1.1-10.8-1.7c-3.5-0.6-7.1-1.1-10.6-1.7c-1.7-0.3-3.3-0.6-5-0.8c-1.2-0.1-1.6,0.3-1.8,1.5
							c-0.7,3.3-1.3,6.6-2,10C178.8,135,178.5,136.7,178.3,138z M197.5,119.9c0.7,0.3,1.1,0.7,1.7-0.1c1-1.3,2-2.6,3-3.8
							c0.5-0.6,0.5-0.7-0.3-1.4C200.4,116.4,199,118.1,197.5,119.9z M196.5,119.7c1.3-1.4,2.6-2.9,3.9-4.3
							C198.4,116.1,197.2,117.7,196.5,119.7z M198.1,121.5c-1.4-0.6-2.2-0.3-2.4,1.1C197.2,122.9,197.1,123,198.1,121.5z
							 M197.9,122.9c0.9,0.3,1.1-0.3,1.4-0.7c0.1-0.1,0-0.3,0-0.5c-0.2,0-0.5,0-0.6,0.1C198.5,122.1,198.2,122.4,197.9,122.9z"/>
						<path class="st1" d="M187.6,136.2c1.7,0.3,3.5,0.7,5.2,0.9c2.1,0.3,4.2,0.5,6.3,0.8c0.9,0.1,1.8,0.3,2.8,0.5
							c0.7,0.2,1,0.7,0.9,1.4c-0.1,0.7-0.1,1.4-0.2,2.1c-0.1,1-0.8,1.5-1.8,1.4c-3-0.5-5.9-1-8.9-1.5c-1.6-0.3-3.2-0.5-4.9-0.7
							c-0.8-0.1-1.3-0.4-1.2-1.3c0.1-0.7,0-1.4,0.1-2.1C186,136.7,186.5,136.1,187.6,136.2z M191.6,140.5c1.6,0.5,2.7-0.1,3.6-1.9
							C193.8,138.2,193.3,138.4,191.6,140.5z M192.9,138.2c-1.5-0.3-2.8,0.4-3.9,2.1c0.6,0,1.2,0.2,1.5,0
							C191.4,139.7,192.1,138.9,192.9,138.2z M190.2,137.8c-1.2-0.5-2.5,0.3-3.5,2.1c0.6-0.1,1.1,0,1.5-0.2
							C188.9,139.2,189.5,138.5,190.2,137.8z M201.8,139.9c-1.3-0.6-2.4,0.1-3.2,1.8C200.3,142.2,200.6,140.4,201.8,139.9z
							 M196.3,141c0,0.1,0,0.2,0.1,0.3c0.4,0.1,0.9,0.3,1.1,0.1c0.8-0.6,1.5-1.4,2.3-2.2C197.8,138.7,197.5,140.5,196.3,141z
							 M197.4,138.9c-0.9-0.5-1.8,0.1-2.9,1.9C195.6,141.2,194.9,141.5,197.4,138.9z"/>
						<path class="st1" d="M181.7,135c0.9,0.2,1.8,0.3,2.8,0.5c0.6,0.1,0.8,0.5,0.7,1.1c-0.1,0.8-0.2,1.6-0.3,2.4
							c-0.2,1.3-0.9,1.7-2.1,1.5c-0.7-0.1-1.4-0.3-2.1-0.4c-0.7-0.1-0.9-0.5-0.9-1.1c0.1-0.9,0.2-1.8,0.4-2.7
							C180.3,135.3,180.7,134.8,181.7,135z M180.6,138.6c0.1,0.2,0.3,0.3,0.4,0.5c1.5-0.1,2-1.6,3.1-2.4c-0.5-0.2-1.1-0.5-1.3-0.3
							C182.1,137,181.4,137.9,180.6,138.6z"/>
						<path class="st1" d="M184.5,134.5c-1-0.2-2.1-0.3-3-0.7c-0.3-0.1-0.6-0.8-0.6-1.2c0-0.8,0.3-1.6,0.4-2.4
							c0.2-0.9,0.7-1.2,1.6-1.1c0.9,0.1,1.9,0.2,2.8,0.5c0.3,0.1,0.6,0.6,0.5,0.9c-0.1,1-0.3,2.1-0.5,3.1
							C185.6,134.2,185.3,134.6,184.5,134.5z M181.8,132.7c0.9,0.5,2.4-0.5,3.2-2.3c-0.7,0.2-1.3,0.1-1.6,0.4
							C182.8,131.3,182.4,132,181.8,132.7z"/>
						<path class="st1" d="M192.2,131.6c-0.3,1.2-0.4,2.2-0.8,3.1c-0.1,0.3-0.8,0.7-1.2,0.7c-0.9,0-1.9-0.2-2.8-0.4
							c-0.5-0.1-0.8-0.5-0.7-1.1c0.2-0.9,0.4-1.8,0.5-2.8c0.1-0.6,0.3-0.8,0.9-0.7c1.1,0.1,2.2,0.2,3.3,0.4
							C191.7,130.8,192,131.3,192.2,131.6z M189.6,131.4c-0.5,0.6-1.1,1.2-1.5,1.8c-0.1,0.2,0,0.5,0,0.7c0.2,0,0.5,0,0.6-0.1
							c0.6-0.6,1.2-1.2,1.9-1.9C190.1,131.7,189.9,131.6,189.6,131.4z"/>
						<path class="st1" d="M194.8,125.5c1.1,0.1,1.9,0.1,2.7,0.2c1.1,0.1,1.4,0.6,1.2,1.6c-0.1,0.8-0.3,1.5-0.5,2.3
							c-0.1,0.8-0.6,1-1.3,0.9c-0.9-0.1-1.9-0.3-2.7-0.6c-0.3-0.1-0.6-0.7-0.6-1c0-0.9,0.1-1.8,0.4-2.6
							C194,125.9,194.6,125.7,194.8,125.5z M194.3,128.8c1.5,0.6,2.8-0.3,3.2-1.8C195.8,126.5,195.7,128.4,194.3,128.8z"/>
						<path class="st1" d="M210.3,129.3c-0.1,3.3-0.9,3.9-3.9,3c-1.1-0.3-1.3-0.7-1.1-1.9c0.1-0.6,0.2-1.3,0.3-1.9
							c0-0.9,0.5-1.1,1.3-1c0.7,0.1,1.5,0.3,2.2,0.3C210,128,210.6,128.4,210.3,129.3z M206.1,131.1c1.2,0.3,2.7-0.7,3-2
							C208,128.8,207.5,129.2,206.1,131.1z"/>
						<path class="st1" d="M192.7,133.7c0-0.3,0-0.6,0-0.9c0-1.1,0.5-1.6,1.5-1.5c1,0.1,1.9,0.2,2.9,0.4c0.2,0.1,0.5,0.6,0.5,0.9
							c0,0.9-0.2,1.7-0.3,2.6c-0.1,0.6-0.4,1-1.1,0.9c-0.7,0-1.4,0-2-0.1C192.9,135.8,192.7,135.4,192.7,133.7z M196.4,133
							c0-0.1-0.1-0.3-0.1-0.4c-0.4,0-0.9-0.1-1.2,0.1c-0.5,0.3-0.8,0.8-1.1,1.2c-0.1,0.2-0.1,0.5-0.1,0.8c0.3,0,0.6,0,0.8-0.1
							C195.3,134.1,195.8,133.5,196.4,133z"/>
						<path class="st1" d="M207.1,138.1c-0.1,0-0.1,0-0.2,0c-0.9-0.2-2.3,0.2-2.6-0.9c-0.3-1.1,0.2-2.4,0.4-3.6
							c0-0.2,0.2-0.3,0.4-0.4c0.6-0.3,3.5,0.3,3.9,0.9c0.2,0.3,0.3,0.7,0.2,1c-0.1,0.7-0.3,1.4-0.4,2.2
							C208.7,138,208.5,138.2,207.1,138.1z M205.2,136.6c1,0.5,2.2-0.2,2.9-1.7c-0.4-0.7-0.9-0.5-1.4,0
							C206.3,135.4,205.8,136,205.2,136.6z"/>
						<path class="st1" d="M204.5,127.9c-0.1,1.2-0.2,2.1-0.3,2.9c-0.1,0.7-0.7,1-1.4,0.8c-0.8-0.1-1.6-0.3-2.4-0.5
							c-0.7-0.2-1.2-0.6-1.1-1.4c0.1-0.6,0.1-1.3,0.2-1.9c0.2-1.3,0.6-1.5,1.9-1.3c0.7,0.1,1.4,0.2,2,0.4
							C204,127.2,204.3,127.7,204.5,127.9z M200.4,130c1.4,0,1.7-1.4,2.6-1.9C201.9,127.5,200.8,128.2,200.4,130z M202.1,130.2
							c0.3,0.2,0.6,0.3,1,0.5c0.1-0.6,0.1-1.1,0.2-1.8C202.8,129.4,202.5,129.7,202.1,130.2z"/>
						<path class="st1" d="M203.2,142.3c0.1-0.6,0.1-1.1,0.2-1.7c0.2-1.2,0.8-1.7,1.9-1.5c0.8,0.1,1.5,0.3,2.2,0.5
							c0.2,0.1,0.4,0.3,0.5,0.4c0.1,0.3,0.2,0.6,0.2,0.9c-0.1,3-1.3,3.8-4.2,2.9C203.3,143.6,203,143.1,203.2,142.3z M207.3,140.6
							c-0.7-0.1-1.3-0.4-1.5-0.2c-0.6,0.6-1,1.4-1.5,2.1c0.2,0.1,0.5,0.3,0.6,0.2C205.7,142.1,206.4,141.5,207.3,140.6z"/>
						<path class="st1" d="M188.5,124.5c1.4,0.2,2.7,0.3,4,0.6c0.3,0.1,0.6,0.7,0.6,1.1c0,0.8-0.1,1.7-0.4,2.5
							c-0.1,0.4-0.7,0.8-1,0.8c-1-0.1-2-0.3-3.1-0.5c-0.6-0.1-0.8-0.5-0.7-1C188,126.9,188.2,125.8,188.5,124.5z M191.8,126
							c-1.3-0.1-2.6,0.7-2.8,1.6c0,0.2,0,0.4,0.2,0.5c0.1,0.1,0.3,0.1,0.4,0C190.2,127.4,190.9,126.8,191.8,126z M191.8,127.1
							c-0.1,0-0.1-0.1-0.2-0.1c-0.4,0.4-0.8,0.8-1.3,1.3c0.5,0.1,0.8,0.2,1.2,0.3C191.6,128,191.7,127.5,191.8,127.1z"/>
						<path class="st1" d="M198.5,135.5c0.1-2.3,0.6-3.4,1.7-3.4c2,0,3.6,0.7,3.5,1.7c-0.4,3.6-0.6,3.6-2.7,3.5
							C199.3,137.2,198.5,136.6,198.5,135.5z M202.5,133.8c0-0.1-0.1-0.2-0.1-0.3c-0.5,0.1-1.2,0-1.6,0.2c-0.5,0.3-0.8,0.8-1.1,1.3
							c-0.1,0.2,0,0.5-0.1,0.8c0.3,0,0.6,0.1,0.8,0C201.1,135.2,201.8,134.5,202.5,133.8z M202.4,134.7c-0.5,0.6-0.9,1-1.3,1.5
							C202.3,136.5,202.5,136.2,202.4,134.7z"/>
						<path class="st1" d="M183.3,123.3c1.2,0.3,2.1,0.5,3.1,0.8c0.6,0.2,1,0.6,0.7,1.4c-0.2,0.5-0.3,1-0.4,1.6
							c-0.1,1.2-0.3,1.4-1.5,1.3c-0.8-0.1-1.6-0.2-2.3-0.4c-0.4-0.1-0.8-0.7-0.8-1c0-0.9,0.1-1.8,0.3-2.7
							C182.5,123.8,183,123.6,183.3,123.3z M185.6,125.1c-0.6-0.5-1.1-0.6-1.5,0.2c-0.2,0.3-0.5,0.6-0.7,0.9
							c-0.1,0.2-0.2,0.5-0.3,0.8c0.3-0.1,0.8-0.1,1-0.3C184.7,126.3,185.1,125.7,185.6,125.1z"/>
					</g>
					<path class="st1" d="M270.2,286.2c1.2,0,2.3,0,3.5,0c0.6,0,0.9,0.2,0.9,0.8c0.1,0.9,0.2,1.9,0.3,2.8c0.1,1.2-0.5,1.6-1.7,1.6
						c-6.4,0-12.9-0.1-19.3,0c-6.7,0.1-13.4,0.2-20.1,0.4c-0.8,0-0.9-0.1-0.9-0.9c0.1-1.1,0.1-2.2,0.2-3.3c0-0.6,0.2-0.8,0.9-0.7
						c0.7,0.1,1.5,0,2.3,0.1c0.5,0,0.4-0.4,0.4-0.6c0-2.2,0-4.3-0.1-6.5c0-4.3-0.1-8.5-0.1-12.8c0-1.1,0.1-1.3,1.2-1.3
						c4.2-0.1,8.4-0.3,12.6-0.3c5.7,0,11.5,0.1,17.2,0.2c0.6,0,1.1,0.1,1.7,0.2c0.8,0.1,1.3,0.7,1.3,1.5c0,0.6-0.1,1.1-0.1,1.7
						c-0.5,5.7-0.4,11.4,0,17.1C270.1,286,270.1,286.1,270.2,286.2z M233.7,290.7c0.4,0,0.6,0,0.9,0c7.5-0.2,14.9-0.4,22.4-0.5
						c5.2-0.1,10.5,0.1,15.7,0.2c0.8,0,1.1-0.3,1.1-1.1c0-0.4-0.1-0.8-0.2-1.2c0-0.6-0.2-0.8-0.9-0.8c-7.2,0.2-14.4,0.4-21.6,0.6
						c-0.8,0-1.1-0.3-1.4-0.9c0-0.1,0.1-0.1,0.1-0.2c0.3,0.2,0.6,0.4,0.9,0.7c0-0.3,0-0.4,0.1-0.6c6.1-0.2,12.1-0.3,18.1-0.4
						c-0.1-2.4-0.3-4.7-0.3-6.9c0.1-3.8,0.3-7.6,0.4-11.4c0-1-0.2-1.4-1.3-1.4c-0.6,0-1.2,0-1.8,0c-9.2,0.1-18.5,0.1-27.7,0.2
						c-0.3,0-0.6,0-0.9,0c0,0.3,0,0.5,0,0.7c0,6.1,0,12.2,0,18.3c0,1.1-0.2,1,1,1c3,0,6,0,9,0c0.2,0,0.5,0.2,0.7,0.4
						c0,0-0.1,0.3-0.2,0.4c-0.3,0-0.6,0.1-0.9,0c-0.2,0-0.3-0.2-0.5-0.5c0,0.8-0.4,0.7-0.8,0.7c-2.9,0-5.8,0-8.6,0c-1,0-2.1,0-3.2,0
						C233.8,288.8,233.8,289.7,233.7,290.7z"/>
					<path class="st1" d="M253.3,283.9c-0.8-0.6-0.8-0.6-0.3-1.5c2.3-4,4.6-8,6.8-12c0.4-0.6,0.7-1.2,1.2-2c-1.3,0-2.5,0.1-3.6,0
						c-1.6-0.2-2.5,0.4-3.3,1.9c-1.7,3.2-3.7,6.3-5.5,9.5c-0.6,0.9-1.3,1.8-1.8,2.7c-0.3,0.4-0.4,1-0.6,1.5c0.2,0.1,0.2,0.1,0.3,0.1
						c1.1,0.1,2.2,0.2,2.5-1.3c2.6-4.2,5.1-8.3,7.7-12.5c0.2-0.3,0.4-0.7,0.6-1c0.2-0.2,0.5-0.3,0.7-0.5c0,0.3,0.1,0.6,0,0.8
						c-0.8,1.3-1.6,2.6-2.4,3.9c-1.9,3.1-3.7,6.3-5.6,9.4c-0.2,0.3-0.4,0.6-0.6,1c1.1,0.2,2.4-0.5,2.9,1.2c-0.3-0.1-0.5-0.3-0.7-0.3
						c-0.3-0.1-0.7-0.3-0.8-0.2c-0.6,0.7-1.5,0.4-2.2,0.5c-2.6,0.1-5.2,0.1-7.9,0.1c-1.7,0-2.2-0.6-2.2-2.3c0-4.7-0.1-9.4-0.1-14
						c0-1,0.1-1,1.1-1.1c2.3-0.1,4.7-0.2,7-0.2c5-0.1,10-0.2,15.1-0.2c1.7,0,3.5,0.2,5.2,0.3c0.5,0,0.6,0.3,0.6,0.7
						c0,0.6,0,1.1,0,1.7c0,4.5,0,9,0,13.5c0,1-0.4,1.5-1.4,1.4c-3.6-0.5-7.1-0.1-10.7,0C254.2,285,253.7,284.7,253.3,283.9
						c0.9,0,1.8,0,2.5,0c0.2-0.7,0.4-1.3,0.6-1.9c0.3-0.6,0.8-1.1,1.1-1.7c1.9-3.4,3.8-6.7,5.7-10.1c0.3-0.5,0.6-1,0.9-1.7
						c-0.8,0-1.5,0-2.2,0c-0.1,0-0.3,0.1-0.4,0.2c-0.4,0.7-0.8,1.4-1.2,2C258.1,275.2,255.7,279.6,253.3,283.9z M254.3,268.7
						c-0.9,0-1.6,0-2.3,0c-0.2,0-0.4,0.1-0.5,0.3c-1.3,1.8-2.5,3.7-3.8,5.5c-1.9,2.6-3.8,5.2-5.6,7.8c-0.4,0.6-0.9,1.2-1.4,1.8
						c1.7,0,3.2,0,4.6,0c0.2-0.5,0.3-1,0.5-1.4c2.1-3.4,4.3-6.8,6.4-10.2C252.9,271.2,253.6,270,254.3,268.7z M259.9,283.8
						c0.3-0.8,0.5-1.4,0.8-2c1.5-2.7,3-5.4,4.5-8.1c0.3-0.5,0.7-1.1,0.8-1.6c0.1-0.9,0.1-1.9,0.1-2.9c0-0.2-0.2-0.4-0.4-0.4
						c-0.2,0-0.7,0-0.8,0.1c-1,1.8-1.9,3.6-2.9,5.3c-1.3,2.3-2.6,4.6-3.9,6.9c-0.5,0.9-1,1.8-1.5,2.8
						C258,283.8,259.1,283.8,259.9,283.8z M250.9,268.9c-0.1-0.1-0.1-0.1-0.2-0.2c-0.6,0-1.2,0-1.8,0c-0.1,0-0.3,0.1-0.4,0.2
						c-2.9,3.8-5.8,7.5-8.7,11.3c-0.1,0.1-0.2,0.2-0.2,0.3c0,1.1,0,2.2,0,3.2c0.1,0,0.1,0.1,0.2,0.1
						C243.5,278.9,247.2,273.9,250.9,268.9z M247.8,268.8c-1,0-1.8,0-2.7,0c-0.1,0-0.2,0.1-0.3,0.2c-1.5,2-2.9,4.1-4.6,5.9
						c-1.1,1.3-0.5,2.5-0.7,3.8c0.1,0,0.1,0,0.2,0.1C242.4,275.5,245.1,272.2,247.8,268.8z M266,274.1c-1.7,3.2-3.4,6.4-5.1,9.7
						c0.6,0,1.3,0,2,0c0.3,0,0.6-0.2,0.8-0.4c0.8-1,1.6-1.9,2.3-2.9c0-0.1,0-0.2,0-0.3c0-1.9,0.1-3.8,0.1-5.7
						C266.1,274.4,266,274.3,266,274.1z M242.1,268.8c-0.6,0.6-1,1.2-1.5,1.7c-1,1.1-1.3,2.4-0.9,4c1.5-1.9,2.9-3.8,4.4-5.7
						C243.3,268.8,242.6,268.8,242.1,268.8z M266,281.6c-0.1,0-0.1,0-0.2,0c-0.5,0.7-1,1.4-1.5,2.2c0.4,0,0.7,0,0.9,0.1
						c0.5,0.1,0.8-0.1,0.8-0.7C266,282.7,266,282.1,266,281.6z M241.2,268.9c-0.6,0-1.1,0-1.6,0c0,0.6,0,1.1,0,1.7
						C240.1,270,240.6,269.5,241.2,268.9z"/>
				</g>
			</g>
		</g>
	</g>
</g>
</svg>
