<?xml version="1.0" encoding="utf-8"?>
<!-- Generator: Adobe Illustrator 21.1.0, SVG Export Plug-In . SVG Version: 6.00 Build 0)  -->
<svg version="1.1" xmlns="http://www.w3.org/2000/svg" xmlns:xlink="http://www.w3.org/1999/xlink" x="0px" y="0px"
	 viewBox="0 0 571.1 522.1" style="enable-background:new 0 0 571.1 522.1;" xml:space="preserve">
<style type="text/css">
	.st0{fill:url(#SVGID_1_);}
	.st1{fill:#FFFFFF;}
	.st2{fill:url(#SVGID_2_);}
	.st3{fill:url(#SVGID_3_);}
	.st4{fill:url(#SVGID_4_);}
	.st5{fill:url(#SVGID_5_);}
	.st6{fill:url(#SVGID_6_);}
	.st7{fill:url(#SVGID_7_);}
	.st8{fill:url(#SVGID_8_);}
	.st9{fill:url(#SVGID_9_);}
	.st10{fill:url(#SVGID_10_);}
	.st11{fill:url(#SVGID_11_);}
	.st12{fill:url(#SVGID_12_);}
	.st13{fill:url(#SVGID_13_);}
	.st14{fill:url(#SVGID_14_);}
	.st15{fill:url(#SVGID_15_);}
	.st16{fill:url(#SVGID_16_);}
	.st17{fill:url(#SVGID_17_);}
	.st18{fill:url(#SVGID_18_);}
	.st19{fill:url(#SVGID_19_);}
	.st20{fill:url(#SVGID_20_);}
	.st21{fill:url(#SVGID_21_);}
	.st22{fill:url(#SVGID_22_);}
	.st23{fill:url(#SVGID_23_);}
	.st24{fill:url(#SVGID_24_);}
	.st25{fill:url(#SVGID_25_);}
	.st26{fill:url(#SVGID_26_);}
	.st27{fill:url(#SVGID_27_);}
	.st28{fill:url(#SVGID_28_);}
	.st29{fill:url(#SVGID_29_);}
	.st30{fill:url(#SVGID_30_);}
	.st31{fill:url(#SVGID_31_);}
	.st32{fill:url(#SVGID_32_);}
	.st33{fill:url(#SVGID_33_);}
	.st34{fill:url(#SVGID_34_);}
	.st35{fill:url(#SVGID_35_);}
	.st36{fill:url(#SVGID_36_);}
	.st37{fill:url(#SVGID_37_);}
	.st38{fill:url(#SVGID_38_);}
	.st39{fill:url(#SVGID_39_);}
	.st40{fill:url(#SVGID_40_);}
	.st41{fill:url(#SVGID_41_);}
	.st42{fill:url(#SVGID_42_);}
	.st43{fill:url(#SVGID_43_);}
	.st44{fill:url(#SVGID_44_);}
	.st45{fill:url(#SVGID_45_);}
	.st46{fill:url(#SVGID_46_);}
	.st47{fill:url(#SVGID_47_);}
	.st48{fill:url(#SVGID_48_);}
	.st49{fill:url(#SVGID_49_);}
	.st50{fill:url(#SVGID_50_);}
	.st51{fill:url(#SVGID_51_);}
	.st52{fill:url(#SVGID_52_);}
	.st53{fill:url(#SVGID_53_);}
	.st54{fill:url(#SVGID_54_);}
	.st55{fill:url(#SVGID_55_);}
	.st56{fill:url(#SVGID_56_);}
	.st57{fill:url(#SVGID_57_);}
	.st58{fill:url(#SVGID_58_);}
	.st59{fill:url(#SVGID_59_);}
	.st60{fill:url(#SVGID_60_);}
	.st61{fill:url(#SVGID_61_);}
	.st62{fill:url(#SVGID_62_);}
	.st63{fill:url(#SVGID_63_);}
	.st64{fill:url(#SVGID_64_);}
	.st65{fill:url(#SVGID_65_);}
	.st66{fill:url(#SVGID_66_);}
	.st67{fill:url(#SVGID_67_);}
	.st68{fill:url(#SVGID_68_);}
	.st69{fill:url(#SVGID_69_);}
	.st70{fill:url(#SVGID_70_);}
	.st71{fill:url(#SVGID_71_);}
	.st72{fill:url(#SVGID_72_);}
	.st73{fill:url(#SVGID_73_);}
	.st74{fill:url(#SVGID_74_);}
	.st75{fill:url(#SVGID_75_);}
	.st76{fill:url(#SVGID_76_);}
	.st77{fill:url(#SVGID_77_);}
	.st78{fill:url(#SVGID_78_);}
	.st79{fill:url(#SVGID_79_);}
	.st80{fill:url(#SVGID_80_);}
	.st81{fill:url(#SVGID_81_);}
	.st82{fill:url(#SVGID_82_);}
	.st83{fill:url(#SVGID_83_);}
	.st84{fill:url(#SVGID_84_);}
	.st85{fill:url(#SVGID_85_);}
	.st86{fill:url(#SVGID_86_);}
	.st87{fill:url(#SVGID_87_);}
	.st88{fill:url(#SVGID_88_);}
	.st89{fill:url(#SVGID_89_);}
	.st90{fill:url(#SVGID_90_);}
	.st91{fill:url(#SVGID_91_);}
	.st92{fill:url(#SVGID_92_);}
	.st93{fill:url(#SVGID_93_);}
	.st94{fill:url(#SVGID_94_);}
	.st95{fill:url(#SVGID_95_);}
	.st96{fill:url(#SVGID_96_);}
	.st97{fill:url(#SVGID_97_);}
	.st98{fill:url(#SVGID_98_);}
	.st99{fill:url(#SVGID_99_);}
	.st100{fill:url(#SVGID_100_);}
	.st101{fill:url(#SVGID_101_);}
	.st102{fill:url(#SVGID_102_);}
	.st103{fill:url(#SVGID_103_);}
	.st104{fill:url(#SVGID_104_);}
	.st105{fill:url(#SVGID_105_);}
	.st106{fill:url(#SVGID_106_);}
	.st107{fill:url(#SVGID_107_);}
	.st108{fill:url(#SVGID_108_);}
	.st109{fill:url(#SVGID_109_);}
	.st110{fill:url(#SVGID_110_);}
	.st111{fill:url(#SVGID_111_);}
	.st112{fill:url(#SVGID_112_);}
	.st113{fill:url(#SVGID_113_);}
	.st114{fill:url(#SVGID_114_);}
	.st115{fill:url(#SVGID_115_);}
	.st116{fill:url(#SVGID_116_);}
	.st117{fill:url(#SVGID_117_);}
	.st118{fill:url(#SVGID_118_);}
	.st119{fill:url(#SVGID_119_);}
	.st120{fill:url(#SVGID_120_);}
	.st121{fill:url(#SVGID_121_);}
	.st122{fill:url(#SVGID_122_);}
	.st123{fill:url(#SVGID_123_);}
	.st124{fill:url(#SVGID_124_);}
	.st125{fill:url(#SVGID_125_);}
	.st126{fill:url(#SVGID_126_);}
	.st127{fill:url(#SVGID_127_);}
	.st128{fill:url(#SVGID_128_);}
	.st129{fill:url(#SVGID_129_);}
	.st130{fill:url(#SVGID_130_);}
	.st131{fill:url(#SVGID_131_);}
	.st132{fill:url(#SVGID_132_);}
	.st133{fill:url(#SVGID_133_);}
	.st134{fill:url(#SVGID_134_);}
	.st135{fill:url(#SVGID_135_);}
	.st136{fill:url(#SVGID_136_);}
	.st137{fill:url(#SVGID_137_);}
	.st138{fill:url(#SVGID_138_);}
	.st139{fill:url(#SVGID_139_);}
	.st140{fill:url(#SVGID_140_);}
	.st141{fill:url(#SVGID_141_);}
	.st142{fill:url(#SVGID_142_);}
	.st143{fill:url(#SVGID_143_);}
	.st144{fill:url(#SVGID_144_);}
	.st145{fill:url(#SVGID_145_);}
	.st146{fill:url(#SVGID_146_);}
	.st147{fill:url(#SVGID_147_);}
	.st148{fill:url(#SVGID_148_);}
	.st149{fill:url(#SVGID_149_);}
	.st150{fill:url(#SVGID_150_);}
	.st151{fill:url(#SVGID_151_);}
	.st152{fill:url(#SVGID_152_);}
	.st153{fill:url(#SVGID_153_);}
	.st154{fill:url(#SVGID_154_);}
	.st155{fill:url(#SVGID_155_);}
	.st156{fill:url(#SVGID_156_);}
	.st157{fill:url(#SVGID_157_);}
	.st158{fill:url(#SVGID_158_);}
	.st159{fill:url(#SVGID_159_);}
	.st160{fill:url(#SVGID_160_);}
	.st161{fill:url(#SVGID_161_);}
	.st162{fill:url(#SVGID_162_);}
	.st163{fill:url(#SVGID_163_);}
	.st164{fill:url(#SVGID_164_);}
	.st165{fill:url(#SVGID_165_);}
	.st166{fill:url(#SVGID_166_);}
	.st167{fill:url(#SVGID_167_);}
	.st168{fill:url(#SVGID_168_);}
	.st169{fill:url(#SVGID_169_);}
	.st170{fill:url(#SVGID_170_);}
	.st171{fill:url(#SVGID_171_);}
	.st172{fill:url(#SVGID_172_);}
	.st173{fill:url(#SVGID_173_);}
	.st174{fill:url(#SVGID_174_);}
	.st175{fill:url(#SVGID_175_);}
	.st176{fill:url(#SVGID_176_);}
	.st177{fill:url(#SVGID_177_);}
	.st178{fill:url(#SVGID_178_);}
	.st179{fill:url(#SVGID_179_);}
	.st180{fill:url(#SVGID_180_);}
	.st181{fill:url(#SVGID_181_);}
	.st182{fill:url(#SVGID_182_);}
	.st183{fill:url(#SVGID_183_);}
	.st184{fill:url(#SVGID_184_);}
	.st185{fill:url(#SVGID_185_);}
	.st186{fill:url(#SVGID_186_);}
	.st187{fill:url(#SVGID_187_);}
	.st188{fill:url(#SVGID_188_);}
	.st189{fill:url(#SVGID_189_);}
	.st190{fill:url(#SVGID_190_);}
	.st191{fill:url(#SVGID_191_);}
	.st192{fill:url(#SVGID_192_);}
	.st193{fill:url(#SVGID_193_);}
	.st194{fill:url(#SVGID_194_);}
	.st195{fill:url(#SVGID_195_);}
	.st196{fill:url(#SVGID_196_);}
	.st197{fill:url(#SVGID_197_);}
	.st198{fill:url(#SVGID_198_);}
	.st199{fill:url(#SVGID_199_);}
	.st200{fill:url(#SVGID_200_);}
	.st201{fill:url(#SVGID_201_);}
	.st202{fill:url(#SVGID_202_);}
	.st203{fill:url(#SVGID_203_);}
	.st204{fill:url(#SVGID_204_);}
	.st205{fill:url(#SVGID_205_);}
	.st206{fill:url(#SVGID_206_);}
	.st207{fill:url(#SVGID_207_);}
	.st208{fill:url(#SVGID_208_);}
	.st209{fill:url(#SVGID_209_);}
	.st210{fill:url(#SVGID_210_);}
	.st211{fill:url(#SVGID_211_);}
	.st212{fill:url(#SVGID_212_);}
	.st213{fill:url(#SVGID_213_);}
	.st214{fill:url(#SVGID_214_);}
	.st215{fill:url(#SVGID_215_);}
	.st216{fill:url(#SVGID_216_);}
	.st217{fill:url(#SVGID_217_);}
	.st218{fill:url(#SVGID_218_);}
	.st219{fill:url(#SVGID_219_);}
	.st220{fill:url(#SVGID_220_);}
	.st221{fill:url(#SVGID_221_);}
	.st222{fill:url(#SVGID_222_);}
	.st223{fill:url(#SVGID_223_);}
	.st224{fill:url(#SVGID_224_);}
	.st225{fill:url(#SVGID_225_);}
	.st226{fill:url(#SVGID_226_);}
	.st227{fill:url(#SVGID_227_);}
	.st228{fill:url(#SVGID_228_);}
	.st229{fill:url(#SVGID_229_);}
	.st230{fill:url(#SVGID_230_);}
	.st231{fill:url(#SVGID_231_);}
	.st232{fill:url(#SVGID_232_);}
	.st233{fill:url(#SVGID_233_);}
	.st234{fill:url(#SVGID_234_);}
	.st235{fill:url(#SVGID_235_);}
	.st236{fill:url(#SVGID_236_);}
	.st237{fill:url(#SVGID_237_);}
	.st238{fill:url(#SVGID_238_);}
	.st239{fill:url(#SVGID_239_);}
	.st240{fill:url(#SVGID_240_);}
	.st241{fill:url(#SVGID_241_);}
	.st242{fill:url(#SVGID_242_);}
	.st243{fill:url(#SVGID_243_);}
	.st244{fill:url(#SVGID_244_);}
	.st245{fill:url(#SVGID_245_);}
	.st246{fill:url(#SVGID_246_);}
	.st247{fill:url(#SVGID_247_);}
	.st248{fill:url(#SVGID_248_);}
	.st249{fill:url(#SVGID_249_);}
	.st250{fill:url(#SVGID_250_);}
	.st251{fill:url(#SVGID_251_);}
	.st252{fill:url(#SVGID_252_);}
	.st253{fill:url(#SVGID_253_);}
	.st254{fill:url(#SVGID_254_);}
	.st255{fill:url(#SVGID_255_);}
	.st256{fill:url(#SVGID_256_);}
	.st257{fill:url(#SVGID_257_);}
	.st258{fill:url(#SVGID_258_);}
	.st259{fill:url(#SVGID_259_);}
	.st260{fill:url(#SVGID_260_);}
	.st261{fill:url(#SVGID_261_);}
	.st262{fill:url(#SVGID_262_);}
	.st263{fill:url(#SVGID_263_);}
	.st264{fill:url(#SVGID_264_);}
	.st265{fill:url(#SVGID_265_);}
	.st266{fill:url(#SVGID_266_);}
	.st267{fill:url(#SVGID_267_);}
	.st268{fill:url(#SVGID_268_);}
	.st269{fill:url(#SVGID_269_);}
	.st270{fill:url(#SVGID_270_);}
	.st271{fill:url(#SVGID_271_);}
	.st272{fill:url(#SVGID_272_);}
	.st273{fill:url(#SVGID_273_);}
	.st274{fill:url(#SVGID_274_);}
	.st275{fill:url(#SVGID_275_);}
	.st276{fill:url(#SVGID_276_);}
	.st277{fill:url(#SVGID_277_);}
	.st278{fill:url(#SVGID_278_);}
	.st279{fill:url(#SVGID_279_);}
	.st280{fill:url(#SVGID_280_);}
	.st281{fill:url(#SVGID_281_);}
	.st282{fill:url(#SVGID_282_);}
	.st283{fill:url(#SVGID_283_);}
	.st284{fill:url(#SVGID_284_);}
	.st285{fill:url(#SVGID_285_);}
	.st286{fill:url(#SVGID_286_);}
	.st287{fill:url(#SVGID_287_);}
	.st288{fill:url(#SVGID_288_);}
	.st289{fill:url(#SVGID_289_);}
	.st290{fill:url(#SVGID_290_);}
	.st291{fill:url(#SVGID_291_);}
	.st292{fill:url(#SVGID_292_);}
	.st293{fill:url(#SVGID_293_);}
	.st294{fill:url(#SVGID_294_);}
	.st295{fill:url(#SVGID_295_);}
	.st296{fill:url(#SVGID_296_);}
	.st297{fill:url(#SVGID_297_);}
	.st298{fill:url(#SVGID_298_);}
	.st299{fill:url(#SVGID_299_);}
	.st300{fill:url(#SVGID_300_);}
	.st301{fill:url(#SVGID_301_);}
	.st302{fill:url(#SVGID_302_);}
	.st303{fill:url(#SVGID_303_);}
	.st304{fill:url(#SVGID_304_);}
	.st305{fill:url(#SVGID_305_);}
	.st306{fill:url(#SVGID_306_);}
	.st307{fill:url(#SVGID_307_);}
	.st308{fill:url(#SVGID_308_);}
	.st309{fill:url(#SVGID_309_);}
	.st310{fill:url(#SVGID_310_);}
	.st311{fill:url(#SVGID_311_);}
	.st312{fill:url(#SVGID_312_);}
	.st313{fill:url(#SVGID_313_);}
	.st314{fill:url(#SVGID_314_);}
	.st315{fill:url(#SVGID_315_);}
	.st316{fill:url(#SVGID_316_);}
	.st317{fill:url(#SVGID_317_);}
	.st318{fill:url(#SVGID_318_);}
	.st319{fill:url(#SVGID_319_);}
	.st320{fill:url(#SVGID_320_);}
	.st321{fill:url(#SVGID_321_);}
	.st322{fill:url(#SVGID_322_);}
	.st323{fill:url(#SVGID_323_);}
	.st324{fill:url(#SVGID_324_);}
	.st325{fill:url(#SVGID_325_);}
	.st326{fill:url(#SVGID_326_);}
	.st327{fill:url(#SVGID_327_);}
	.st328{fill:url(#SVGID_328_);}
	.st329{fill:url(#SVGID_329_);}
	.st330{fill:url(#SVGID_330_);}
	.st331{fill:url(#SVGID_331_);}
	.st332{fill:url(#SVGID_332_);}
	.st333{fill:url(#SVGID_333_);}
	.st334{fill:url(#SVGID_334_);}
	.st335{fill:url(#SVGID_335_);}
	.st336{fill:url(#SVGID_336_);}
	.st337{fill:url(#SVGID_337_);}
	.st338{fill:url(#SVGID_338_);}
	.st339{fill:url(#SVGID_339_);}
	.st340{fill:url(#SVGID_340_);}
	.st341{fill:url(#SVGID_341_);}
	.st342{fill:url(#SVGID_342_);}
	.st343{fill:url(#SVGID_343_);}
	.st344{fill:url(#SVGID_344_);}
	.st345{fill:url(#SVGID_345_);}
	.st346{fill:url(#SVGID_346_);}
	.st347{fill:url(#SVGID_347_);}
	.st348{fill:url(#SVGID_348_);}
	.st349{fill:url(#SVGID_349_);}
	.st350{fill:url(#SVGID_350_);}
	.st351{fill:url(#SVGID_351_);}
	.st352{fill:url(#SVGID_352_);}
	.st353{fill:url(#SVGID_353_);}
	.st354{fill:url(#SVGID_354_);}
	.st355{fill:url(#SVGID_355_);}
	.st356{fill:url(#SVGID_356_);}
	.st357{fill:url(#SVGID_357_);}
	.st358{fill:url(#SVGID_358_);}
	.st359{fill:url(#SVGID_359_);}
	.st360{fill:url(#SVGID_360_);}
	.st361{fill:url(#SVGID_361_);}
	.st362{fill:url(#SVGID_362_);}
	.st363{fill:url(#SVGID_363_);}
	.st364{fill:url(#SVGID_364_);}
	.st365{fill:url(#SVGID_365_);}
	.st366{fill:url(#SVGID_366_);}
	.st367{fill:url(#SVGID_367_);}
	.st368{fill:url(#SVGID_368_);}
	.st369{fill:url(#SVGID_369_);}
	.st370{fill:url(#SVGID_370_);}
	.st371{fill:url(#SVGID_371_);}
	.st372{fill:url(#SVGID_372_);}
	.st373{fill:url(#SVGID_373_);}
	.st374{fill:url(#SVGID_374_);}
	.st375{fill:url(#SVGID_375_);}
	.st376{fill:url(#SVGID_376_);}
	.st377{fill:url(#SVGID_377_);}
	.st378{fill:url(#SVGID_378_);}
	.st379{fill:url(#SVGID_379_);}
	.st380{fill:url(#SVGID_380_);}
	.st381{fill:url(#SVGID_381_);}
	.st382{fill:url(#SVGID_382_);}
	.st383{fill:url(#SVGID_383_);}
	.st384{fill:url(#SVGID_384_);}
	.st385{fill:url(#SVGID_385_);}
	.st386{fill:url(#SVGID_386_);}
	.st387{fill:url(#SVGID_387_);}
	.st388{fill:url(#SVGID_388_);}
	.st389{fill:url(#SVGID_389_);}
	.st390{fill:url(#SVGID_390_);}
	.st391{fill-rule:evenodd;clip-rule:evenodd;fill:#FFF8FF;}
	.st392{fill:url(#SVGID_391_);}
	.st393{fill:url(#SVGID_392_);}
	.st394{fill:url(#SVGID_393_);}
	.st395{fill:url(#SVGID_394_);}
	.st396{fill:url(#SVGID_395_);}
	.st397{fill:url(#SVGID_396_);}
	.st398{fill:url(#SVGID_397_);}
	.st399{fill:url(#SVGID_398_);}
	.st400{fill:url(#SVGID_399_);}
	.st401{fill:none;stroke:#0A227A;stroke-miterlimit:10;}
	.st402{fill:none;stroke:#479544;stroke-miterlimit:10;}
	.st403{fill:url(#SVGID_400_);}
	.st404{opacity:0.5;}
	.st405{fill:#231F20;}
	.st406{fill:url(#SVGID_401_);}
	.st407{fill:url(#SVGID_402_);}
	.st408{fill:url(#SVGID_403_);}
	.st409{fill:url(#SVGID_404_);}
	.st410{fill:url(#SVGID_405_);}
	.st411{fill:url(#SVGID_406_);}
	.st412{fill:url(#SVGID_407_);}
	.st413{fill:url(#SVGID_408_);}
	.st414{fill:url(#SVGID_409_);}
	.st415{fill:url(#SVGID_410_);}
	.st416{fill:url(#SVGID_411_);}
	.st417{fill:url(#SVGID_412_);}
	.st418{fill:url(#SVGID_413_);}
	.st419{fill:url(#SVGID_414_);}
	.st420{fill:url(#SVGID_415_);}
	.st421{fill:url(#SVGID_416_);}
	.st422{fill:url(#SVGID_417_);}
	.st423{fill:url(#SVGID_418_);}
	.st424{fill:url(#SVGID_419_);}
	.st425{fill:url(#SVGID_420_);}
	.st426{fill:url(#SVGID_421_);}
	.st427{fill:url(#SVGID_422_);}
	.st428{fill:url(#SVGID_423_);}
	.st429{fill:url(#SVGID_424_);}
	.st430{fill:url(#SVGID_425_);}
	.st431{fill:url(#SVGID_426_);}
	.st432{fill:#27499B;}
	.st433{font-family:'Titillium-Bold';}
	.st434{font-size:14.1363px;}
	.st435{font-family:'Caveat-Bold';}
	.st436{font-size:22px;}
	.st437{fill:url(#SVGID_427_);}
	.st438{fill:none;stroke:#27499B;stroke-miterlimit:10;}
	.st439{clip-path:url(#SVGID_429_);}
	.st440{fill:url(#SVGID_430_);}
	.st441{fill:url(#SVGID_431_);}
	.st442{fill:url(#SVGID_432_);}
	.st443{fill:url(#SVGID_433_);}
	.st444{fill:url(#SVGID_434_);}
	.st445{fill:none;stroke:#FFFFFF;stroke-width:2.7931;stroke-miterlimit:10;}
	.st446{fill:none;stroke:#FFFFFF;stroke-width:2.9072;stroke-miterlimit:10;}
	.st447{fill:none;stroke:#F2DFCE;stroke-width:2.9072;stroke-miterlimit:10;}
	.st448{fill:url(#SVGID_435_);}
	.st449{fill:url(#SVGID_436_);}
	.st450{fill:url(#SVGID_437_);}
	.st451{fill:url(#SVGID_438_);}
	.st452{fill:url(#SVGID_439_);}
	.st453{fill:url(#SVGID_440_);}
	.st454{opacity:0.18;}
	.st455{clip-path:url(#SVGID_442_);}
	.st456{clip-path:url(#SVGID_444_);}
	.st457{fill:url(#SVGID_445_);}
	.st458{fill:url(#SVGID_446_);}
	.st459{fill:url(#SVGID_447_);}
	.st460{fill:url(#SVGID_448_);}
	.st461{fill:url(#SVGID_449_);}
	.st462{fill:none;stroke:#FFFFFF;stroke-width:3.0162;stroke-miterlimit:10;}
	.st463{fill:none;stroke:#FFFFFF;stroke-width:3.1394;stroke-miterlimit:10;}
	.st464{fill:none;stroke:#F2DFCE;stroke-width:3.1394;stroke-miterlimit:10;}
	.st465{fill:url(#SVGID_450_);}
	.st466{fill:url(#SVGID_451_);}
	.st467{fill:url(#SVGID_452_);}
	.st468{fill:url(#SVGID_453_);}
	.st469{fill:url(#SVGID_454_);}
	.st470{fill:url(#SVGID_455_);}
	.st471{opacity:0.34;}
	.st472{fill:url(#SVGID_458_);}
	.st473{fill:url(#SVGID_459_);}
	.st474{fill:url(#SVGID_460_);}
	.st475{fill:url(#SVGID_461_);}
	.st476{fill:url(#SVGID_462_);}
	.st477{fill:url(#SVGID_463_);}
	.st478{fill:url(#SVGID_464_);}
	.st479{fill:url(#SVGID_465_);}
	.st480{fill:url(#SVGID_466_);}
	.st481{fill:url(#SVGID_467_);}
	.st482{fill:url(#SVGID_468_);}
	.st483{fill:url(#SVGID_469_);}
	.st484{fill:url(#SVGID_470_);}
	.st485{fill:url(#SVGID_471_);}
	.st486{fill:url(#SVGID_472_);}
	.st487{fill:url(#SVGID_473_);}
	.st488{fill:url(#SVGID_474_);}
	.st489{fill:url(#SVGID_475_);}
	.st490{fill:url(#SVGID_476_);}
	.st491{fill:url(#SVGID_477_);}
	.st492{fill:url(#SVGID_478_);}
	.st493{fill:url(#SVGID_479_);}
	.st494{fill:url(#SVGID_480_);}
	.st495{fill:url(#SVGID_481_);}
	.st496{fill:url(#SVGID_482_);}
	.st497{fill:url(#SVGID_483_);}
	.st498{fill:url(#SVGID_484_);}
	.st499{fill:url(#SVGID_485_);}
	.st500{fill:url(#SVGID_486_);}
	.st501{fill:url(#SVGID_487_);}
	.st502{fill:url(#SVGID_488_);}
	.st503{fill:url(#SVGID_489_);}
	.st504{fill:url(#SVGID_490_);}
	.st505{fill:url(#SVGID_491_);}
	.st506{fill:url(#SVGID_492_);}
	.st507{fill:url(#SVGID_493_);}
	.st508{fill:url(#SVGID_494_);}
	.st509{fill:url(#SVGID_495_);}
	.st510{fill:url(#SVGID_496_);}
	.st511{fill:url(#SVGID_497_);}
	.st512{fill:url(#SVGID_498_);}
	.st513{fill:url(#SVGID_499_);}
	.st514{fill:url(#SVGID_500_);}
	.st515{fill:url(#SVGID_501_);}
	.st516{fill:url(#SVGID_502_);}
	.st517{fill:url(#SVGID_503_);}
	.st518{fill:url(#SVGID_504_);}
	.st519{fill:url(#SVGID_505_);}
	.st520{fill:url(#SVGID_506_);}
	.st521{fill:url(#SVGID_507_);}
	.st522{fill:url(#SVGID_508_);}
	.st523{fill:url(#SVGID_509_);}
	.st524{fill:url(#SVGID_510_);}
	.st525{fill:url(#SVGID_511_);}
	.st526{fill:url(#SVGID_512_);}
	.st527{fill:url(#SVGID_513_);}
	.st528{fill:url(#SVGID_514_);}
	.st529{fill:url(#SVGID_515_);}
	.st530{fill:url(#SVGID_516_);}
	.st531{fill:url(#SVGID_517_);}
	.st532{fill:url(#SVGID_518_);}
	.st533{fill:url(#SVGID_519_);}
	.st534{fill:url(#SVGID_520_);}
	.st535{fill:url(#SVGID_521_);}
	.st536{fill:url(#SVGID_522_);}
	.st537{fill:url(#SVGID_523_);}
	.st538{fill:url(#SVGID_524_);}
	.st539{fill:url(#SVGID_525_);}
	.st540{fill:url(#SVGID_526_);}
	.st541{fill:url(#SVGID_527_);}
	.st542{fill:url(#SVGID_528_);}
	.st543{fill:url(#SVGID_529_);}
	.st544{fill:url(#SVGID_530_);}
	.st545{fill:url(#SVGID_531_);}
	.st546{fill:url(#SVGID_532_);}
	.st547{fill:url(#SVGID_533_);}
	.st548{fill:url(#SVGID_534_);}
	.st549{fill:url(#SVGID_535_);}
	.st550{fill:url(#SVGID_536_);}
	.st551{fill:url(#SVGID_537_);}
	.st552{fill:url(#SVGID_538_);}
	.st553{fill:url(#SVGID_539_);}
	.st554{fill:url(#SVGID_540_);}
	.st555{fill:url(#SVGID_541_);}
	.st556{fill:url(#SVGID_542_);}
	.st557{fill:url(#SVGID_543_);}
	.st558{fill:url(#SVGID_544_);}
	.st559{fill:url(#SVGID_545_);}
	.st560{fill:url(#SVGID_546_);}
	.st561{fill:url(#SVGID_547_);}
	.st562{fill:url(#SVGID_548_);}
	.st563{fill:url(#SVGID_549_);}
	.st564{fill:url(#SVGID_550_);}
	.st565{fill:url(#SVGID_551_);}
	.st566{fill:url(#SVGID_552_);}
	.st567{fill:url(#SVGID_553_);}
	.st568{fill:url(#SVGID_554_);}
	.st569{fill:url(#SVGID_555_);}
	.st570{fill:url(#SVGID_556_);}
	.st571{fill:url(#SVGID_557_);}
	.st572{fill:url(#SVGID_558_);}
	.st573{fill:url(#SVGID_559_);}
	.st574{fill:url(#SVGID_560_);}
	.st575{fill:url(#SVGID_561_);}
	.st576{fill:url(#SVGID_562_);}
	.st577{fill:url(#SVGID_563_);}
	.st578{fill:#158843;}
	.st579{fill:#303030;}
	.st580{fill:url(#SVGID_564_);}
	.st581{fill:url(#SVGID_565_);}
	.st582{fill:url(#SVGID_566_);}
	.st583{fill:url(#SVGID_567_);}
	.st584{fill:url(#SVGID_568_);}
	.st585{fill:#FFFFFF;stroke:#303030;stroke-width:2.7802;stroke-miterlimit:10;}
	.st586{fill:none;stroke:#303030;stroke-width:2.7802;stroke-miterlimit:10;}
	.st587{fill:#F4CDAF;}
	.st588{fill:url(#SVGID_569_);}
	.st589{fill:url(#SVGID_570_);}
	.st590{opacity:0.12;}
	.st591{fill:url(#SVGID_571_);}
	.st592{fill:url(#SVGID_572_);}
	.st593{fill:url(#SVGID_573_);}
	.st594{fill:url(#SVGID_574_);}
	.st595{fill:url(#SVGID_575_);}
	.st596{fill:url(#SVGID_576_);}
	.st597{fill:#002D51;}
	.st598{fill:#A1CCDD;}
	.st599{fill:#C8E7F5;}
	.st600{fill:url(#SVGID_577_);}
	.st601{fill:#FFFFFF;stroke:#303030;stroke-width:1.8229;stroke-miterlimit:10;}
	.st602{fill:#00223B;}
	.st603{fill:none;stroke:#303030;stroke-width:1.8229;stroke-miterlimit:10;}
	.st604{fill:#ECD1BD;}
	.st605{fill:url(#SVGID_578_);}
	.st606{fill:url(#SVGID_579_);}
	.st607{fill:url(#SVGID_580_);}
	.st608{fill:url(#SVGID_581_);}
	.st609{fill:url(#SVGID_582_);}
	.st610{fill:url(#SVGID_583_);}
	.st611{fill:url(#SVGID_584_);}
	.st612{fill:#E8E8E8;}
	.st613{fill:#E7D852;}
	.st614{fill:#E58831;}
	.st615{fill:#113851;}
	.st616{opacity:0.38;clip-path:url(#SVGID_586_);}
	.st617{fill:none;stroke:#FFFFFF;stroke-width:1.609;stroke-linecap:round;stroke-linejoin:round;stroke-miterlimit:10;}
	.st618{fill:#153146;}
	.st619{fill:none;stroke:#113851;stroke-width:0.1341;stroke-miterlimit:10;}
	.st620{fill:url(#SVGID_587_);}
</style>
<g id="Capa_1">
</g>
<g id="Capa_2">
	<g>
		<g>
			<g>
				<g>
					<g class="st404">
						<path class="st405" d="M58.9,132.6c-0.4,0-0.8,0-1.3,0l0-1.2c1.5,0,3,0,4.5-0.1l0.1,1.1C61.2,132.5,60.1,132.6,58.9,132.6z
							 M53,132.2c-1.5-0.2-3.1-0.5-4.6-0.9l0.3-1.1c1.5,0.4,3,0.6,4.5,0.8L53,132.2z M67,131.8l-0.2-1.1c1.5-0.3,3-0.6,4.4-1.1
							l0.3,1.1C70,131.2,68.5,131.6,67,131.8z M44,129.9c-1.5-0.5-2.9-1.1-4.3-1.8l0.5-1c1.4,0.7,2.8,1.3,4.2,1.8L44,129.9z
							 M75.9,129.2l-0.4-1.1c1.4-0.6,2.8-1.3,4.1-2l0.6,1C78.7,127.9,77.3,128.6,75.9,129.2z M35.6,125.8c-1.3-0.8-2.6-1.7-3.8-2.7
							l0.7-0.9c1.2,0.9,2.4,1.8,3.7,2.6L35.6,125.8z M84.1,124.6l-0.7-0.9c1.2-0.9,2.4-1.8,3.6-2.8l0.8,0.9
							C86.6,122.8,85.3,123.8,84.1,124.6z M28.3,120.1c-1.1-1.1-2.2-2.2-3.2-3.4l0.9-0.7c1,1.2,2,2.3,3.1,3.4L28.3,120.1z
							 M91.1,118.5l-0.8-0.8c1-1.1,2-2.3,2.9-3.5l0.9,0.7C93.1,116.2,92.1,117.4,91.1,118.5z M22.3,112.9c-0.9-1.3-1.7-2.7-2.4-4
							l1-0.5c0.7,1.3,1.5,2.7,2.3,3.9L22.3,112.9z M96.7,111l-1-0.6c0.8-1.3,1.5-2.7,2.1-4l1,0.5C98.2,108.3,97.4,109.7,96.7,111z
							 M18.1,104.6c-0.6-1.4-1-2.9-1.5-4.4l1.1-0.3c0.4,1.5,0.9,2.9,1.4,4.3L18.1,104.6z M100.5,102.5l-1.1-0.4
							c0.5-1.4,0.9-2.9,1.2-4.4l1.1,0.2C101.4,99.6,101,101.1,100.5,102.5z M15.6,95.6c-0.2-1.5-0.4-3.1-0.5-4.6l1.2-0.1
							c0.1,1.5,0.2,3,0.5,4.5L15.6,95.6z M102.5,93.4l-1.1-0.1c0.2-1.5,0.2-3,0.2-4.5c0-1.4-0.1-2.8-0.2-4.2l1.1-0.1
							c0.1,1.4,0.2,2.9,0.2,4.3C102.7,90.3,102.6,91.9,102.5,93.4z M16.3,86.3l-1.2-0.1c0.1-1.6,0.3-3.1,0.5-4.6l1.1,0.2
							C16.6,83.3,16.4,84.8,16.3,86.3z M100.7,80.1c-0.3-1.5-0.7-3-1.2-4.4l1.1-0.4c0.5,1.5,0.9,3,1.2,4.5L100.7,80.1z M17.8,77.4
							l-1.1-0.3c0.4-1.5,0.9-3,1.5-4.4l1.1,0.4C18.7,74.5,18.2,75.9,17.8,77.4z M97.9,71.4c-0.6-1.4-1.3-2.7-2.1-4l1-0.6
							c0.8,1.3,1.5,2.7,2.1,4.2L97.9,71.4z M21.2,68.9l-1-0.5c0.7-1.4,1.5-2.7,2.4-4l1,0.6C22.6,66.3,21.9,67.6,21.2,68.9z
							 M93.3,63.6c-0.9-1.2-1.9-2.4-2.9-3.5l0.9-0.8c1,1.1,2,2.4,3,3.6L93.3,63.6z M26.2,61.4l-0.9-0.7c1-1.2,2.1-2.3,3.2-3.4
							l0.8,0.8C28.2,59.1,27.2,60.2,26.2,61.4z M87.2,56.9c-1.1-1-2.3-2-3.6-2.8l0.7-0.9C85.6,54,86.8,55,88,56L87.2,56.9z
							 M32.8,55.1l-0.7-0.9c1.2-1,2.5-1.9,3.8-2.7l0.6,1C35.2,53.3,34,54.1,32.8,55.1z M79.8,51.6c-1.3-0.7-2.7-1.4-4.1-2l0.5-1.1
							c1.4,0.6,2.8,1.3,4.2,2.1L79.8,51.6z M40.5,50.3l-0.5-1c1.4-0.7,2.8-1.3,4.3-1.8l0.4,1.1C43.2,49.1,41.8,49.6,40.5,50.3z
							 M71.5,48c-1.4-0.4-2.9-0.8-4.4-1.1l0.2-1.1c1.5,0.3,3,0.7,4.5,1.1L71.5,48z M49,47.3l-0.3-1.1c1.5-0.4,3.1-0.6,4.6-0.8
							l0.1,1.1C52,46.6,50.5,46.9,49,47.3z M62.6,46.3c-1.5-0.1-3-0.2-4.5-0.1l0-1.2c1.5,0,3.1,0,4.7,0.2L62.6,46.3z"/>
						<path class="st405" d="M200.7,87.6c-0.4,0-0.8,0-1.3,0l0-1.2c1.5,0,3,0,4.5-0.1l0.1,1.1C203,87.6,201.9,87.6,200.7,87.6z
							 M194.8,87.2c-1.5-0.2-3.1-0.5-4.6-0.9l0.3-1.1c1.5,0.4,3,0.6,4.5,0.8L194.8,87.2z M208.8,86.9l-0.2-1.1
							c1.5-0.3,3-0.6,4.4-1.1l0.3,1.1C211.8,86.2,210.3,86.6,208.8,86.9z M185.8,85c-1.5-0.5-2.9-1.1-4.3-1.8l0.5-1
							c1.4,0.7,2.8,1.3,4.2,1.8L185.8,85z M217.7,84.2l-0.4-1.1c1.4-0.6,2.8-1.3,4.1-2l0.6,1C220.5,82.9,219.1,83.6,217.7,84.2z
							 M177.4,80.9c-1.3-0.8-2.6-1.7-3.8-2.7l0.7-0.9c1.2,0.9,2.4,1.8,3.7,2.6L177.4,80.9z M225.9,79.7l-0.7-0.9
							c1.2-0.9,2.4-1.8,3.6-2.8l0.8,0.9C228.4,77.8,227.1,78.8,225.9,79.7z M170.1,75.1c-1.1-1.1-2.2-2.2-3.2-3.4l0.9-0.7
							c1,1.2,2,2.3,3.1,3.4L170.1,75.1z M232.9,73.6l-0.8-0.8c1-1.1,2-2.3,2.9-3.5l0.9,0.7C234.9,71.2,233.9,72.4,232.9,73.6z
							 M164.1,67.9c-0.9-1.3-1.7-2.7-2.4-4l1-0.5c0.7,1.3,1.5,2.7,2.3,3.9L164.1,67.9z M238.5,66.1l-1-0.6c0.8-1.3,1.5-2.7,2.1-4
							l1,0.5C240,63.3,239.2,64.7,238.5,66.1z M159.9,59.6c-0.6-1.4-1-2.9-1.5-4.4l1.1-0.3c0.4,1.5,0.9,2.9,1.4,4.3L159.9,59.6z
							 M242.3,57.6l-1.1-0.4c0.5-1.4,0.9-2.9,1.2-4.4l1.1,0.2C243.2,54.6,242.8,56.1,242.3,57.6z M157.4,50.6
							c-0.2-1.5-0.4-3.1-0.5-4.6l1.2-0.1c0.1,1.5,0.2,3,0.5,4.5L157.4,50.6z M244.3,48.5l-1.1-0.1c0.2-1.5,0.2-3,0.2-4.5
							c0-1.4-0.1-2.8-0.2-4.2l1.1-0.1c0.1,1.4,0.2,2.9,0.2,4.3C244.5,45.4,244.4,46.9,244.3,48.5z M158.1,41.4l-1.2-0.1
							c0.1-1.6,0.3-3.1,0.5-4.6l1.1,0.2C158.4,38.3,158.2,39.8,158.1,41.4z M242.5,35.1c-0.3-1.5-0.7-3-1.2-4.4l1.1-0.4
							c0.5,1.5,0.9,3,1.2,4.5L242.5,35.1z M159.6,32.4l-1.1-0.3c0.4-1.5,0.9-3,1.5-4.4l1.1,0.4C160.5,29.5,160,30.9,159.6,32.4z
							 M239.7,26.5c-0.6-1.4-1.3-2.7-2.1-4l1-0.6c0.8,1.3,1.5,2.7,2.1,4.2L239.7,26.5z M163,24l-1-0.5c0.7-1.4,1.5-2.7,2.4-4l1,0.6
							C164.4,21.3,163.7,22.6,163,24z M235.1,18.6c-0.9-1.2-1.9-2.4-2.9-3.5l0.9-0.8c1,1.1,2,2.4,3,3.6L235.1,18.6z M168,16.4
							l-0.9-0.7c1-1.2,2.1-2.3,3.2-3.4l0.8,0.8C170,14.1,169,15.3,168,16.4z M229,11.9c-1.1-1-2.3-2-3.6-2.8l0.7-0.9
							c1.3,0.9,2.5,1.9,3.7,2.9L229,11.9z M174.6,10.1l-0.7-0.9c1.2-1,2.5-1.9,3.8-2.7l0.6,1C177,8.3,175.8,9.2,174.6,10.1z
							 M221.6,6.6c-1.3-0.7-2.7-1.4-4.1-2l0.5-1.1c1.4,0.6,2.8,1.3,4.2,2.1L221.6,6.6z M182.3,5.3l-0.5-1c1.4-0.7,2.8-1.3,4.3-1.8
							l0.4,1.1C185.1,4.1,183.6,4.7,182.3,5.3z M213.3,3c-1.4-0.4-2.9-0.8-4.4-1.1l0.2-1.1c1.5,0.3,3,0.7,4.5,1.1L213.3,3z
							 M190.8,2.3l-0.3-1.1c1.5-0.4,3.1-0.6,4.6-0.8l0.1,1.1C193.8,1.7,192.3,2,190.8,2.3z M204.4,1.3c-1.5-0.1-3-0.2-4.5-0.1l0-1.2
							c1.5,0,3.1,0,4.7,0.2L204.4,1.3z"/>
						<path class="st405" d="M351.7,100.3c-0.4,0-0.8,0-1.3,0l0-1.2c1.5,0,3,0,4.5-0.1l0.1,1.1C354,100.3,352.9,100.3,351.7,100.3z
							 M345.8,99.9c-1.5-0.2-3.1-0.5-4.6-0.9l0.3-1.1c1.5,0.4,3,0.6,4.5,0.8L345.8,99.9z M359.8,99.6l-0.2-1.1
							c1.5-0.3,3-0.6,4.4-1.1l0.3,1.1C362.8,98.9,361.3,99.3,359.8,99.6z M336.8,97.7c-1.5-0.5-2.9-1.1-4.3-1.8l0.5-1
							c1.4,0.7,2.8,1.3,4.2,1.8L336.8,97.7z M368.7,96.9l-0.4-1.1c1.4-0.6,2.8-1.3,4.1-2l0.6,1C371.6,95.6,370.1,96.3,368.7,96.9z
							 M328.4,93.6c-1.3-0.8-2.6-1.7-3.8-2.7l0.7-0.9c1.2,0.9,2.4,1.8,3.7,2.6L328.4,93.6z M376.9,92.4l-0.7-0.9
							c1.2-0.9,2.4-1.8,3.6-2.8l0.8,0.9C379.4,90.5,378.1,91.5,376.9,92.4z M321.1,87.8c-1.1-1.1-2.2-2.2-3.2-3.4l0.9-0.7
							c1,1.2,2,2.3,3.1,3.4L321.1,87.8z M383.9,86.2l-0.8-0.8c1-1.1,2-2.3,2.9-3.5l0.9,0.7C386,83.9,385,85.1,383.9,86.2z
							 M315.2,80.6c-0.9-1.3-1.7-2.7-2.4-4l1-0.5c0.7,1.3,1.5,2.7,2.3,3.9L315.2,80.6z M389.5,78.8l-1-0.6c0.8-1.3,1.5-2.7,2.1-4
							l1,0.5C391,76,390.3,77.4,389.5,78.8z M310.9,72.3c-0.6-1.4-1-2.9-1.5-4.4l1.1-0.3c0.4,1.5,0.9,2.9,1.4,4.3L310.9,72.3z
							 M393.3,70.3l-1.1-0.4c0.5-1.4,0.9-2.9,1.2-4.4l1.1,0.2C394.2,67.3,393.8,68.8,393.3,70.3z M308.5,63.3
							c-0.2-1.5-0.4-3.1-0.5-4.6l1.2-0.1c0.1,1.5,0.2,3,0.5,4.5L308.5,63.3z M395.3,61.2l-1.1-0.1c0.2-1.5,0.2-3,0.2-4.5
							c0-1.4-0.1-2.8-0.2-4.2l1.1-0.1c0.1,1.4,0.2,2.9,0.2,4.3C395.6,58.1,395.5,59.6,395.3,61.2z M309.2,54.1L308,54
							c0.1-1.6,0.3-3.1,0.5-4.6l1.1,0.2C309.4,51,309.2,52.5,309.2,54.1z M393.5,47.8c-0.3-1.5-0.7-3-1.2-4.4l1.1-0.4
							c0.5,1.5,0.9,3,1.2,4.5L393.5,47.8z M310.6,45.1l-1.1-0.3c0.4-1.5,0.9-3,1.5-4.4l1.1,0.4C311.5,42.2,311,43.6,310.6,45.1z
							 M390.7,39.2c-0.6-1.4-1.3-2.7-2.1-4l1-0.6c0.8,1.3,1.5,2.7,2.1,4.2L390.7,39.2z M314,36.7l-1-0.5c0.7-1.4,1.5-2.7,2.4-4
							l1,0.6C315.5,34,314.7,35.3,314,36.7z M386.2,31.3c-0.9-1.2-1.9-2.4-2.9-3.5l0.9-0.8c1,1.1,2,2.4,3,3.6L386.2,31.3z M319,29.1
							l-0.9-0.7c1-1.2,2.1-2.3,3.2-3.4l0.8,0.8C321.1,26.8,320,28,319,29.1z M380.1,24.6c-1.1-1-2.3-2-3.6-2.8l0.7-0.9
							c1.3,0.9,2.5,1.9,3.7,2.9L380.1,24.6z M325.6,22.8l-0.7-0.9c1.2-1,2.5-1.9,3.8-2.7l0.6,1C328,21,326.8,21.9,325.6,22.8z
							 M372.7,19.3c-1.3-0.7-2.7-1.4-4.1-2l0.5-1.1c1.4,0.6,2.8,1.3,4.2,2.1L372.7,19.3z M333.3,18l-0.5-1c1.4-0.7,2.8-1.3,4.3-1.8
							l0.4,1.1C336.1,16.8,334.7,17.4,333.3,18z M364.3,15.7c-1.4-0.4-2.9-0.8-4.4-1.1l0.2-1.1c1.5,0.3,3,0.7,4.5,1.1L364.3,15.7z
							 M341.9,15l-0.3-1.1c1.5-0.4,3.1-0.6,4.6-0.8l0.1,1.1C344.8,14.4,343.3,14.6,341.9,15z M355.4,14c-1.5-0.1-3-0.2-4.5-0.1
							l0-1.2c1.5,0,3.1,0,4.7,0.2L355.4,14z"/>
						<path class="st405" d="M459.6,211.6c-0.4,0-0.8,0-1.3,0l0-1.2c1.5,0,3,0,4.5-0.1l0.1,1.1C461.9,211.5,460.8,211.6,459.6,211.6
							z M453.7,211.2c-1.5-0.2-3.1-0.5-4.6-0.9l0.3-1.1c1.5,0.4,3,0.6,4.5,0.8L453.7,211.2z M467.7,210.8l-0.2-1.1
							c1.5-0.3,3-0.6,4.4-1.1l0.3,1.1C470.7,210.2,469.2,210.6,467.7,210.8z M444.6,209c-1.5-0.5-2.9-1.1-4.3-1.8l0.5-1
							c1.4,0.7,2.8,1.3,4.2,1.8L444.6,209z M476.6,208.2l-0.4-1.1c1.4-0.6,2.8-1.3,4.1-2l0.6,1C479.4,206.9,478,207.6,476.6,208.2z
							 M436.3,204.9c-1.3-0.8-2.6-1.7-3.8-2.7l0.7-0.9c1.2,0.9,2.4,1.8,3.7,2.6L436.3,204.9z M484.7,203.7l-0.7-0.9
							c1.2-0.9,2.4-1.8,3.6-2.8l0.8,0.9C487.3,201.8,486,202.8,484.7,203.7z M429,199.1c-1.1-1.1-2.2-2.2-3.2-3.4l0.9-0.7
							c1,1.2,2,2.3,3.1,3.4L429,199.1z M491.8,197.5l-0.8-0.8c1-1.1,2-2.3,2.9-3.5l0.9,0.7C493.8,195.2,492.8,196.4,491.8,197.5z
							 M423,191.9c-0.9-1.3-1.7-2.7-2.4-4l1-0.5c0.7,1.3,1.5,2.7,2.3,3.9L423,191.9z M497.3,190l-1-0.6c0.8-1.3,1.5-2.7,2.1-4l1,0.5
							C498.9,187.3,498.1,188.7,497.3,190z M418.7,183.6c-0.6-1.4-1-2.9-1.5-4.4l1.1-0.3c0.4,1.5,0.9,2.9,1.4,4.3L418.7,183.6z
							 M501.2,181.6l-1.1-0.4c0.5-1.4,0.9-2.9,1.2-4.4l1.1,0.2C502.1,178.6,501.7,180.1,501.2,181.6z M416.3,174.6
							c-0.2-1.5-0.4-3.1-0.5-4.6l1.2-0.1c0.1,1.5,0.2,3,0.5,4.5L416.3,174.6z M503.2,172.4l-1.1-0.1c0.2-1.5,0.2-3,0.2-4.5
							c0-1.4-0.1-2.8-0.2-4.2l1.1-0.1c0.1,1.4,0.2,2.9,0.2,4.3C503.4,169.3,503.3,170.9,503.2,172.4z M417,165.3l-1.2-0.1
							c0.1-1.6,0.3-3.1,0.5-4.6l1.1,0.2C417.3,162.3,417.1,163.8,417,165.3z M501.4,159.1c-0.3-1.5-0.7-3-1.2-4.4l1.1-0.4
							c0.5,1.5,0.9,3,1.2,4.5L501.4,159.1z M418.5,156.4l-1.1-0.3c0.4-1.5,0.9-3,1.5-4.4l1.1,0.4
							C419.4,153.5,418.9,154.9,418.5,156.4z M498.6,150.4c-0.6-1.4-1.3-2.7-2.1-4l1-0.6c0.8,1.3,1.5,2.7,2.1,4.2L498.6,150.4z
							 M421.9,147.9l-1-0.5c0.7-1.4,1.5-2.7,2.4-4l1,0.6C423.3,145.3,422.6,146.6,421.9,147.9z M494,142.6c-0.9-1.2-1.9-2.4-2.9-3.5
							l0.9-0.8c1,1.1,2,2.4,3,3.6L494,142.6z M426.9,140.4l-0.9-0.7c1-1.2,2.1-2.3,3.2-3.4l0.8,0.8
							C428.9,138.1,427.9,139.2,426.9,140.4z M487.9,135.9c-1.1-1-2.3-2-3.6-2.8l0.7-0.9c1.3,0.9,2.5,1.9,3.7,2.9L487.9,135.9z
							 M433.5,134.1l-0.7-0.9c1.2-1,2.5-1.9,3.8-2.7l0.6,1C435.9,132.3,434.6,133.2,433.5,134.1z M480.5,130.6
							c-1.3-0.7-2.7-1.4-4.1-2l0.5-1.1c1.4,0.6,2.8,1.3,4.2,2.1L480.5,130.6z M441.2,129.3l-0.5-1c1.4-0.7,2.8-1.3,4.3-1.8l0.4,1.1
							C443.9,128.1,442.5,128.7,441.2,129.3z M472.2,127c-1.4-0.4-2.9-0.8-4.4-1.1l0.2-1.1c1.5,0.3,3,0.7,4.5,1.1L472.2,127z
							 M449.7,126.3l-0.3-1.1c1.5-0.4,3.1-0.6,4.6-0.8l0.1,1.1C452.7,125.7,451.2,125.9,449.7,126.3z M463.3,125.3
							c-1.5-0.1-3-0.2-4.5-0.1l0-1.2c1.5,0,3.1,0,4.7,0.2L463.3,125.3z"/>
						<path class="st405" d="M476.4,373c-0.4,0-0.8,0-1.3,0l0-1.2c1.5,0,3,0,4.5-0.1l0.1,1.1C478.6,372.9,477.5,373,476.4,373z
							 M470.4,372.6c-1.5-0.2-3.1-0.5-4.6-0.9l0.3-1.1c1.5,0.4,3,0.6,4.5,0.8L470.4,372.6z M484.4,372.2l-0.2-1.1
							c1.5-0.3,3-0.6,4.4-1.1l0.3,1.1C487.4,371.6,485.9,371.9,484.4,372.2z M461.4,370.3c-1.5-0.5-2.9-1.1-4.3-1.8l0.5-1
							c1.4,0.7,2.8,1.3,4.2,1.8L461.4,370.3z M493.3,369.6l-0.4-1.1c1.4-0.6,2.8-1.3,4.1-2l0.6,1
							C496.2,368.3,494.8,368.9,493.3,369.6z M453,366.2c-1.3-0.8-2.6-1.7-3.8-2.7l0.7-0.9c1.2,0.9,2.4,1.8,3.7,2.6L453,366.2z
							 M501.5,365l-0.7-0.9c1.2-0.9,2.4-1.8,3.6-2.8l0.8,0.9C504,363.2,502.8,364.1,501.5,365z M445.7,360.4
							c-1.1-1.1-2.2-2.2-3.2-3.4l0.9-0.7c1,1.2,2,2.3,3.1,3.4L445.7,360.4z M508.5,358.9l-0.8-0.8c1-1.1,2-2.3,2.9-3.5l0.9,0.7
							C510.6,356.6,509.6,357.8,508.5,358.9z M439.8,353.3c-0.9-1.3-1.7-2.7-2.4-4l1-0.5c0.7,1.3,1.5,2.7,2.3,3.9L439.8,353.3z
							 M514.1,351.4l-1-0.6c0.8-1.3,1.5-2.7,2.1-4l1,0.5C515.6,348.7,514.9,350.1,514.1,351.4z M435.5,345c-0.6-1.4-1-2.9-1.5-4.4
							l1.1-0.3c0.4,1.5,0.9,2.9,1.4,4.3L435.5,345z M518,342.9l-1.1-0.4c0.5-1.4,0.9-2.9,1.2-4.4l1.1,0.2
							C518.9,339.9,518.4,341.5,518,342.9z M433.1,336c-0.2-1.5-0.4-3.1-0.5-4.6l1.2-0.1c0.1,1.5,0.2,3,0.5,4.5L433.1,336z
							 M519.9,333.8l-1.1-0.1c0.2-1.5,0.2-3,0.2-4.5c0-1.4-0.1-2.8-0.2-4.2l1.1-0.1c0.1,1.4,0.2,2.9,0.2,4.3
							C520.2,330.7,520.1,332.3,519.9,333.8z M433.8,326.7l-1.2-0.1c0.1-1.6,0.3-3.1,0.5-4.6l1.1,0.2
							C434,323.7,433.9,325.2,433.8,326.7z M518.1,320.5c-0.3-1.5-0.7-3-1.2-4.4l1.1-0.4c0.5,1.5,0.9,3,1.2,4.5L518.1,320.5z
							 M435.2,317.8l-1.1-0.3c0.4-1.5,0.9-3,1.5-4.4l1.1,0.4C436.1,314.8,435.6,316.3,435.2,317.8z M515.3,311.8
							c-0.6-1.4-1.3-2.7-2.1-4l1-0.6c0.8,1.3,1.5,2.7,2.1,4.2L515.3,311.8z M438.6,309.3l-1-0.5c0.7-1.4,1.5-2.7,2.4-4l1,0.6
							C440.1,306.7,439.3,308,438.6,309.3z M510.8,304c-0.9-1.2-1.9-2.4-2.9-3.5l0.9-0.8c1,1.1,2,2.4,3,3.6L510.8,304z M443.7,301.8
							l-0.9-0.7c1-1.2,2.1-2.3,3.2-3.4l0.8,0.8C445.7,299.5,444.6,300.6,443.7,301.8z M504.7,297.3c-1.1-1-2.3-2-3.6-2.8l0.7-0.9
							c1.3,0.9,2.5,1.9,3.7,2.9L504.7,297.3z M450.2,295.5l-0.7-0.9c1.2-1,2.5-1.9,3.8-2.7l0.6,1
							C452.6,293.7,451.4,294.5,450.2,295.5z M497.3,292c-1.3-0.7-2.7-1.4-4.1-2l0.5-1.1c1.4,0.6,2.8,1.3,4.2,2.1L497.3,292z
							 M457.9,290.7l-0.5-1c1.4-0.7,2.8-1.3,4.3-1.8l0.4,1.1C460.7,289.4,459.3,290,457.9,290.7z M488.9,288.4
							c-1.4-0.4-2.9-0.8-4.4-1.1l0.2-1.1c1.5,0.3,3,0.7,4.5,1.1L488.9,288.4z M466.5,287.7l-0.3-1.1c1.5-0.4,3.1-0.6,4.6-0.8
							l0.1,1.1C469.4,287,467.9,287.3,466.5,287.7z M480,286.7c-1.5-0.1-3-0.2-4.5-0.1l0-1.2c1.5,0,3.1,0,4.7,0.2L480,286.7z"/>
						<path class="st405" d="M364.2,522.1c-0.4,0-0.8,0-1.3,0l0-1.2c1.5,0,3,0,4.5-0.1l0.1,1.1C366.5,522.1,365.4,522.1,364.2,522.1
							z M358.3,521.7c-1.5-0.2-3.1-0.5-4.6-0.9l0.3-1.1c1.5,0.4,3,0.6,4.5,0.8L358.3,521.7z M372.3,521.4l-0.2-1.1
							c1.5-0.3,3-0.6,4.4-1.1l0.3,1.1C375.3,520.7,373.8,521.1,372.3,521.4z M349.3,519.5c-1.5-0.5-2.9-1.1-4.3-1.8l0.5-1
							c1.4,0.7,2.8,1.3,4.2,1.8L349.3,519.5z M381.2,518.7l-0.4-1.1c1.4-0.6,2.8-1.3,4.1-2l0.6,1C384,517.4,382.6,518.1,381.2,518.7
							z M340.9,515.4c-1.3-0.8-2.6-1.7-3.8-2.7l0.7-0.9c1.2,0.9,2.4,1.8,3.7,2.6L340.9,515.4z M389.4,514.2l-0.7-0.9
							c1.2-0.9,2.4-1.8,3.6-2.8l0.8,0.9C391.9,512.3,390.6,513.3,389.4,514.2z M333.6,509.6c-1.1-1.1-2.2-2.2-3.2-3.4l0.9-0.7
							c1,1.2,2,2.3,3.1,3.4L333.6,509.6z M396.4,508l-0.8-0.8c1-1.1,2-2.3,2.9-3.5l0.9,0.7C398.4,505.7,397.4,506.9,396.4,508z
							 M327.6,502.4c-0.9-1.3-1.7-2.7-2.4-4l1-0.5c0.7,1.3,1.5,2.7,2.3,3.9L327.6,502.4z M402,500.6l-1-0.6c0.8-1.3,1.5-2.7,2.1-4
							l1,0.5C403.5,497.8,402.7,499.2,402,500.6z M323.4,494.1c-0.6-1.4-1-2.9-1.5-4.4l1.1-0.3c0.4,1.5,0.9,2.9,1.4,4.3L323.4,494.1
							z M405.8,492.1l-1.1-0.4c0.5-1.4,0.9-2.9,1.2-4.4l1.1,0.2C406.7,489.1,406.3,490.6,405.8,492.1z M320.9,485.1
							c-0.2-1.5-0.4-3.1-0.5-4.6l1.2-0.1c0.1,1.5,0.2,3,0.5,4.5L320.9,485.1z M407.8,483l-1.1-0.1c0.2-1.5,0.2-3,0.2-4.5
							c0-1.4-0.1-2.8-0.2-4.2l1.1-0.1c0.1,1.4,0.2,2.9,0.2,4.3C408,479.9,407.9,481.4,407.8,483z M321.6,475.9l-1.2-0.1
							c0.1-1.6,0.3-3.1,0.5-4.6l1.1,0.2C321.9,472.8,321.7,474.3,321.6,475.9z M406,469.6c-0.3-1.5-0.7-3-1.2-4.4l1.1-0.4
							c0.5,1.5,0.9,3,1.2,4.5L406,469.6z M323.1,466.9l-1.1-0.3c0.4-1.5,0.9-3,1.5-4.4l1.1,0.4C324,464,323.5,465.4,323.1,466.9z
							 M403.2,461c-0.6-1.4-1.3-2.7-2.1-4l1-0.6c0.8,1.3,1.5,2.7,2.1,4.2L403.2,461z M326.5,458.5l-1-0.5c0.7-1.4,1.5-2.7,2.4-4
							l1,0.6C327.9,455.8,327.2,457.1,326.5,458.5z M398.7,453.1c-0.9-1.2-1.9-2.4-2.9-3.5l0.9-0.8c1,1.1,2,2.4,3,3.6L398.7,453.1z
							 M331.5,450.9l-0.9-0.7c1-1.2,2.1-2.3,3.2-3.4l0.8,0.8C333.5,448.6,332.5,449.8,331.5,450.9z M392.5,446.4
							c-1.1-1-2.3-2-3.6-2.8l0.7-0.9c1.3,0.9,2.5,1.9,3.7,2.9L392.5,446.4z M338.1,444.6l-0.7-0.9c1.2-1,2.5-1.9,3.8-2.7l0.6,1
							C340.5,442.8,339.3,443.7,338.1,444.6z M385.1,441.1c-1.3-0.7-2.7-1.4-4.1-2l0.5-1.1c1.4,0.6,2.8,1.3,4.2,2.1L385.1,441.1z
							 M345.8,439.8l-0.5-1c1.4-0.7,2.8-1.3,4.3-1.8l0.4,1.1C348.6,438.6,347.1,439.2,345.8,439.8z M376.8,437.5
							c-1.4-0.4-2.9-0.8-4.4-1.1l0.2-1.1c1.5,0.3,3,0.7,4.5,1.1L376.8,437.5z M354.3,436.8l-0.3-1.1c1.5-0.4,3.1-0.6,4.6-0.8
							l0.1,1.1C357.3,436.2,355.8,436.4,354.3,436.8z M367.9,435.8c-1.5-0.1-3-0.2-4.5-0.1l0-1.2c1.5,0,3.1,0,4.7,0.2L367.9,435.8z"
							/>
						<g>
							<path class="st405" d="M441.1,408l-1-0.7c0.4-0.6,0.9-1.3,1.3-1.9l1,0.6C441.9,406.7,441.5,407.4,441.1,408z"/>
							<path class="st405" d="M406,448.8l-0.8-0.8c1.1-1,2.2-2,3.2-3.1l0.8,0.8C408.2,446.8,407.1,447.8,406,448.8z M412.5,442.6
								l-0.8-0.8c1.1-1.1,2.1-2.1,3.1-3.2l0.8,0.8C414.6,440.4,413.5,441.5,412.5,442.6z M418.7,436.1l-0.8-0.8c1-1.1,2-2.2,3-3.3
								l0.9,0.8C420.7,433.9,419.7,435,418.7,436.1z M424.7,429.4l-0.9-0.8c1-1.1,1.9-2.3,2.9-3.4l0.9,0.7
								C426.6,427.1,425.6,428.2,424.7,429.4z M430.4,422.4l-0.9-0.7c0.9-1.2,1.8-2.3,2.8-3.5l0.9,0.7
								C432.2,420.1,431.3,421.3,430.4,422.4z M435.9,415.3l-0.9-0.7c0.9-1.2,1.8-2.4,2.6-3.6l0.9,0.7
								C437.6,412.9,436.7,414.1,435.9,415.3z"/>
							<path class="st405" d="M401,453.4l-0.8-0.9c0.6-0.5,1.1-1,1.7-1.5l0.8,0.9C402.1,452.4,401.6,452.9,401,453.4z"/>
						</g>
						<g>
							<path class="st405" d="M481.7,249.7c-0.1-0.8-0.1-1.5-0.2-2.3l1.1-0.1c0.1,0.8,0.1,1.5,0.2,2.3L481.7,249.7z"/>
							<path class="st405" d="M483.5,279.2l-1.2,0c0.1-1.6,0.1-3.3,0.1-4.9l1.2,0C483.6,275.9,483.6,277.6,483.5,279.2z
								 M482.6,269.3c0-1.6,0-3.3-0.1-4.9l1.2,0c0,1.6,0.1,3.3,0.1,4.9L482.6,269.3z M482.3,259.5c-0.1-1.6-0.2-3.3-0.3-4.9l1.2-0.1
								c0.1,1.6,0.2,3.3,0.3,4.9L482.3,259.5z"/>
							<path class="st405" d="M483.1,286.4l-1.2-0.1c0.1-0.8,0.1-1.5,0.1-2.3l1.2,0.1C483.2,284.9,483.2,285.7,483.1,286.4z"/>
						</g>
						<g>
							<path class="st405" d="M391,79.3c-0.6-0.5-1.2-1-1.8-1.4l0.7-0.9c0.6,0.5,1.2,1,1.8,1.4L391,79.3z"/>
							<path class="st405" d="M435.3,125.5c-0.9-1.2-1.8-2.5-2.7-3.7l0.9-0.7c0.9,1.2,1.9,2.4,2.8,3.7L435.3,125.5z M429.7,118.2
								c-1-1.2-1.9-2.4-2.9-3.6l0.9-0.7c1,1.2,1.9,2.4,2.9,3.6L429.7,118.2z M423.9,111.1c-1-1.2-2-2.3-3-3.5l0.9-0.8
								c1,1.1,2,2.3,3,3.5L423.9,111.1z M417.8,104.3c-1-1.1-2.1-2.2-3.1-3.3l0.8-0.8c1.1,1.1,2.1,2.2,3.2,3.4L417.8,104.3z
								 M411.5,97.7c-1.1-1.1-2.2-2.2-3.3-3.2l0.8-0.8c1.1,1.1,2.2,2.1,3.3,3.2L411.5,97.7z M404.9,91.3c-1.1-1-2.2-2.1-3.4-3.1
								l0.8-0.9c1.1,1,2.3,2.1,3.4,3.1L404.9,91.3z M398.1,85.2c-1.2-1-2.3-2-3.5-3l0.7-0.9c1.2,1,2.3,2,3.5,3L398.1,85.2z"/>
							<path class="st405" d="M439.3,131.1c-0.4-0.6-0.9-1.3-1.3-1.9l0.9-0.7c0.4,0.6,0.9,1.3,1.3,1.9L439.3,131.1z"/>
						</g>
						<g>
							<path class="st405" d="M240.9,25.9c-0.8,0-1.5,0-2.3,0v-1.2c0.8,0,1.5,0,2.3,0L240.9,25.9z"/>
							<path class="st405" d="M304.5,34.9c-1.5-0.4-3-0.8-4.4-1.2l0.3-1.1c1.5,0.4,3,0.8,4.5,1.2L304.5,34.9z M295.6,32.5
								c-1.5-0.4-3-0.7-4.5-1l0.2-1.1c1.5,0.3,3,0.7,4.5,1L295.6,32.5z M286.6,30.6c-1.5-0.3-3-0.6-4.5-0.9l0.2-1.1
								c1.5,0.3,3,0.6,4.5,0.9L286.6,30.6z M277.6,28.9c-1.5-0.2-3-0.5-4.6-0.7l0.2-1.1c1.5,0.2,3.1,0.4,4.6,0.7L277.6,28.9z
								 M268.4,27.7c-1.5-0.2-3-0.4-4.6-0.5L264,26c1.5,0.2,3.1,0.3,4.6,0.5L268.4,27.7z M259.3,26.7c-1.5-0.1-3.1-0.2-4.6-0.3
								l0.1-1.2c1.5,0.1,3.1,0.2,4.6,0.3L259.3,26.7z M250.1,26.1c-1.5-0.1-3.1-0.1-4.6-0.2l0-1.2c1.5,0,3.1,0.1,4.6,0.2L250.1,26.1
								z"/>
							<path class="st405" d="M311.1,36.8c-0.7-0.2-1.5-0.5-2.2-0.7l0.3-1.1c0.7,0.2,1.5,0.4,2.2,0.7L311.1,36.8z"/>
						</g>
						<g>
							<path class="st405" d="M98.2,70.3l-0.7-0.9c0.6-0.4,1.3-0.9,1.9-1.3l0.7,0.9C99.4,69.4,98.8,69.8,98.2,70.3z"/>
							<path class="st405" d="M104.1,66.2l-0.6-1c1.3-0.9,2.7-1.8,4.1-2.6l0.6,1C106.8,64.5,105.4,65.4,104.1,66.2z M112.2,61.1
								l-0.6-1c1.4-0.8,2.8-1.7,4.2-2.5l0.6,1C115,59.4,113.6,60.2,112.2,61.1z M120.6,56.2l-0.6-1c1.4-0.8,2.8-1.6,4.3-2.3l0.5,1
								C123.4,54.7,122,55.4,120.6,56.2z M129.2,51.7l-0.5-1c1.4-0.7,2.9-1.4,4.4-2.1l0.5,1C132,50.3,130.6,51,129.2,51.7z
								 M137.9,47.5l-0.5-1c1.5-0.7,3-1.3,4.4-2l0.5,1.1C140.8,46.2,139.3,46.9,137.9,47.5z M146.8,43.7l-0.4-1.1
								c1.5-0.6,3-1.2,4.5-1.8l0.4,1.1C149.7,42.5,148.2,43.1,146.8,43.7z"/>
							<path class="st405" d="M155.8,40.3l-0.4-1.1c0.7-0.3,1.4-0.5,2.2-0.8l0.4,1.1C157.2,39.7,156.5,40,155.8,40.3z"/>
						</g>
					</g>
				</g>
			</g>
			<g>
				<g>
					<g>
						<g>
							<g>
								<radialGradient id="SVGID_1_" cx="200.849" cy="44.0137" r="22.5621" gradientUnits="userSpaceOnUse">
									<stop  offset="0" style="stop-color:#27499B"/>
									<stop  offset="1" style="stop-color:#283270"/>
								</radialGradient>
								<path class="st0" d="M200.8,66.6c-12.4,0-22.6-10.1-22.6-22.6c0-12.4,10.1-22.6,22.6-22.6c3.4,0,6.7,0.7,9.7,2.2
									c0,0.1,0.2,3.2,0.2,3.2l-1,1c-2.7-1.5-5.8-2.3-9-2.3c-10.2,0-18.5,8.3-18.5,18.5c0,10.2,8.3,18.5,18.5,18.5
									c10.2,0,18.5-8.3,18.5-18.5c0-3.2-0.8-6.2-2.3-9l1.2-1.2l2.5,0.2c0.1,0,0.2,0,0.4,0c1.5,3.1,2.3,6.5,2.3,10
									C223.4,56.5,213.3,66.6,200.8,66.6z"/>
								<radialGradient id="SVGID_2_" cx="200.849" cy="44.0126" r="10.5363" gradientUnits="userSpaceOnUse">
									<stop  offset="0" style="stop-color:#27499B"/>
									<stop  offset="1" style="stop-color:#283270"/>
								</radialGradient>
								<path class="st2" d="M200.8,54.5c-5.8,0-10.5-4.7-10.5-10.5c0-5.8,4.7-10.5,10.5-10.5c1,0,2,0.1,2.9,0.4l-2.9,2.9
									c0,0,0,0,0,0c-4,0-7.3,3.3-7.3,7.2c0,4,3.2,7.2,7.2,7.2c4,0,7.3-3.3,7.3-7.2c0,0,0,0,0,0l2.9-2.9c0.3,0.9,0.4,1.9,0.4,2.9
									C211.4,49.8,206.7,54.5,200.8,54.5z"/>
								<radialGradient id="SVGID_3_" cx="214.9065" cy="29.8023" r="12.9109" gradientUnits="userSpaceOnUse">
									<stop  offset="0" style="stop-color:#27499B"/>
									<stop  offset="1" style="stop-color:#283270"/>
								</radialGradient>
								<path class="st3" d="M202.3,42.8c-0.1,0-0.2-0.1-0.2-0.1c0,0-0.1-0.1-0.1-0.2l0.1-1.4c0-0.1,0-0.1,0.1-0.2l12.6-12.6
									l-0.4-4.7c0-0.5,0.1-1,0.5-1.3l5.4-5.4l0.4,5.5l3.3-3.3c0.1-0.1,0.2-0.2,0.4-0.2c0.1,0,0.2,0,0.4,0.2l1,1
									c0.2,0.2,0.2,0.5,0,0.7l-3.1,3.1l5,0.4l-5.4,5.4c-0.3,0.3-0.7,0.5-1.2,0.5l-0.3,0l-4.1-0.3l-12.8,12.8
									c-0.1,0-0.1,0.1-0.2,0.1L202.3,42.8L202.3,42.8z"/>
							</g>
						</g>
					</g>
					<g>
						<g>
							<radialGradient id="SVGID_4_" cx="70.7836" cy="102.7328" r="13.9133" gradientUnits="userSpaceOnUse">
								<stop  offset="0" style="stop-color:#27499B"/>
								<stop  offset="1" style="stop-color:#283270"/>
							</radialGradient>
							<path class="st4" d="M83.9,112.2l-5.4-5.4c2.8-4.5,2.3-10.6-1.7-14.5c-4.6-4.6-12-4.6-16.6,0c-4.6,4.6-4.6,12,0,16.6
								c3.9,3.9,10,4.5,14.5,1.6l5.4,5.4c1,1,2.7,1,3.7,0C85,114.8,85,113.2,83.9,112.2z M74.7,106.6c-3.3,3.3-8.8,3.3-12.1,0
								c-3.3-3.3-3.3-8.8,0-12.1c3.3-3.3,8.8-3.3,12.1,0C78,97.8,78,103.3,74.7,106.6z"/>
							<g>
								<radialGradient id="SVGID_5_" cx="48.6029" cy="86.1914" r="5.1386" gradientUnits="userSpaceOnUse">
									<stop  offset="0" style="stop-color:#27499B"/>
									<stop  offset="1" style="stop-color:#283270"/>
								</radialGradient>
								<polygon class="st5" points="47.4,87 44.6,84.2 42.8,86 47.4,90.6 54.4,83.6 52.6,81.8 								"/>
								<radialGradient id="SVGID_6_" cx="48.6029" cy="94.7405" r="5.1389" gradientUnits="userSpaceOnUse">
									<stop  offset="0" style="stop-color:#27499B"/>
									<stop  offset="1" style="stop-color:#283270"/>
								</radialGradient>
								<polygon class="st6" points="47.4,95.5 44.6,92.8 42.8,94.6 47.4,99.1 54.4,92.1 52.6,90.3 								"/>
								<radialGradient id="SVGID_7_" cx="62.0493" cy="85.3236" r="5.0716" gradientUnits="userSpaceOnUse">
									<stop  offset="0" style="stop-color:#27499B"/>
									<stop  offset="1" style="stop-color:#283270"/>
								</radialGradient>
								<rect x="55" y="84" class="st7" width="14.1" height="2.7"/>
								<radialGradient id="SVGID_8_" cx="56.3054" cy="68.2922" r="6.7243" gradientUnits="userSpaceOnUse">
									<stop  offset="0" style="stop-color:#27499B"/>
									<stop  offset="1" style="stop-color:#283270"/>
								</radialGradient>
								<path class="st8" d="M49.6,73.2c-0.8,0-1.4-0.6-1.4-1.4v-3.9c0-0.8,0.6-1.4,1.4-1.4h3.2c0.2-1.7,1.7-2.9,3.5-2.9
									c1.8,0,3.3,1.3,3.5,2.9H63c0.8,0,1.4,0.7,1.4,1.4v3.9c0,0.8-0.6,1.4-1.4,1.4H49.6z"/>
							</g>
							<g>
								<radialGradient id="SVGID_9_" cx="70.3142" cy="76.2266" r="7.2497" gradientUnits="userSpaceOnUse">
									<stop  offset="0" style="stop-color:#27499B"/>
									<stop  offset="1" style="stop-color:#283270"/>
								</radialGradient>
								<path class="st9" d="M70.8,85.4c0.9,0.1,1.8,0.3,2.6,0.6V68.9c0-1.3-1.1-2.4-2.4-2.4h-3.8c0.2,0.4,0,0.9,0,1.3v1.3h3.7V85.4
									z"/>
								<radialGradient id="SVGID_10_" cx="47.9081" cy="88.3227" r="16.6473" gradientUnits="userSpaceOnUse">
									<stop  offset="0" style="stop-color:#27499B"/>
									<stop  offset="1" style="stop-color:#283270"/>
								</radialGradient>
								<path class="st10" d="M55,107.6H41.8V69.1h3.6h0.2v-2.6h-4.1c-1.3,0-2.4,1.1-2.4,2.4v38.9c0,1.3,1.1,2.4,2.4,2.4h15.1
									C56,109.4,55.4,108.5,55,107.6z"/>
							</g>
						</g>
					</g>
					<g>
						<radialGradient id="SVGID_11_" cx="365.5682" cy="72.8911" r="12.1421" gradientUnits="userSpaceOnUse">
							<stop  offset="0" style="stop-color:#27499B"/>
							<stop  offset="1" style="stop-color:#283270"/>
						</radialGradient>
						<path class="st11" d="M373.4,70.8c-0.2-0.2-0.5-0.4-0.9-0.4c0,0,0,0,0,0c-0.1,0-0.3,0-0.4,0.1l-0.7-3.8
							c-0.2-1.3-1.2-2.4-2.5-2.7l-12.4-3.2l-2.9,2.9l3.2,12.4c0.3,1.3,1.4,2.3,2.7,2.5l3.8,0.7c0,0.1-0.1,0.3-0.1,0.4
							c0,0.3,0.1,0.7,0.4,0.9l4.3,4c0.2,0.2,0.5,0.3,0.8,0.3c0.3,0,0.6-0.1,0.9-0.4l7.8-7.8c0.5-0.5,0.5-1.2,0-1.7L373.4,70.8z
							 M364.6,77.2l-4.8-0.9c-0.4-0.1-0.7-0.4-0.8-0.7l-2.6-10l4.5,4.5c-0.2,0.8,0,1.6,0.6,2.2c0.9,0.9,2.4,0.9,3.4,0
							c0.9-0.9,0.9-2.4,0-3.4c-0.6-0.6-1.5-0.8-2.2-0.6l-4.5-4.5l10,2.6c0.4,0.1,0.7,0.4,0.7,0.8l0.9,4.8c0.1,0.3,0,0.6-0.3,0.9
							l-4.1,4.1C365.3,77.1,364.9,77.2,364.6,77.2z"/>
						<radialGradient id="SVGID_12_" cx="351.3806" cy="58.7936" r="8.6535" gradientUnits="userSpaceOnUse">
							<stop  offset="0" style="stop-color:#27499B"/>
							<stop  offset="1" style="stop-color:#283270"/>
						</radialGradient>
						<path class="st12" d="M343,67.2l-0.6-1.4c0.1,0,5.2-2.2,10-6.5c4.8-4.4,6.5-8.8,6.5-8.8l1.4,0.5c-0.1,0.2-1.8,4.8-6.9,9.4
							C348.4,64.9,343.2,67.1,343,67.2z"/>
						<radialGradient id="SVGID_13_" cx="343.3591" cy="65.9335" r="2.1626" gradientUnits="userSpaceOnUse">
							<stop  offset="0" style="stop-color:#27499B"/>
							<stop  offset="1" style="stop-color:#283270"/>
						</radialGradient>
						<path class="st13" d="M344,67.8c-0.3,0.3-0.9,0.3-1.3,0l-1.3-1.3c-0.3-0.3-0.3-0.9,0-1.3l1.3-1.3c0.4-0.4,0.9-0.4,1.3,0
							l1.3,1.3c0.4,0.3,0.4,0.9,0,1.3L344,67.8z"/>
						<radialGradient id="SVGID_14_" cx="359.6129" cy="50.6814" r="2.1629" gradientUnits="userSpaceOnUse">
							<stop  offset="0" style="stop-color:#27499B"/>
							<stop  offset="1" style="stop-color:#283270"/>
						</radialGradient>
						<path class="st14" d="M360.2,52.6c-0.3,0.4-0.9,0.4-1.3,0l-1.3-1.3c-0.3-0.3-0.3-0.9,0-1.3l1.3-1.3c0.3-0.3,0.9-0.3,1.3,0
							l1.3,1.3c0.4,0.3,0.4,0.9,0,1.3L360.2,52.6z"/>
					</g>
					<radialGradient id="SVGID_15_" cx="351.5019" cy="58.6582" r="22.7036" gradientUnits="userSpaceOnUse">
						<stop  offset="0" style="stop-color:#27499B"/>
						<stop  offset="1" style="stop-color:#283270"/>
					</radialGradient>
					<path class="st15" d="M361.3,83.1c-0.3-0.3-0.5-0.6-0.7-0.9l-1.8-0.3c-2.6-0.5-4.6-2.4-5.3-4.9l-0.8-3.3h-13.9V37.6h25.5v21.8
						l3,0.8V34.8c0-2.2-1.8-4.1-4.1-4.1h-23.5c-2.2,0-4.1,1.8-4.1,4.1v47.7c0,2.2,1.8,4.1,4.1,4.1h23.5c0.5,0,1-0.1,1.5-0.3
						L361.3,83.1z M345.7,33.2h11.6c0.3,0,0.5,0.4,0.5,1c0,0.5-0.2,1-0.5,1h-11.6c-0.3,0-0.5-0.4-0.5-1
						C345.2,33.6,345.4,33.2,345.7,33.2z M351.5,82.6c-1.4,0-2.6-1.2-2.6-2.6c0-1.4,1.2-2.6,2.6-2.6c1.4,0,2.6,1.2,2.6,2.6
						C354.1,81.4,352.9,82.6,351.5,82.6z"/>
					<g>
						<radialGradient id="SVGID_16_" cx="466.192" cy="160.2248" r="5.3733" gradientUnits="userSpaceOnUse">
							<stop  offset="0" style="stop-color:#27499B"/>
							<stop  offset="1" style="stop-color:#283270"/>
						</radialGradient>
						<path class="st16" d="M464.8,157c1.8-0.8,3.9,0.1,4.7,1.8s-0.1,3.9-1.8,4.7s-3.9-0.1-4.7-1.8S463,157.7,464.8,157L464.8,157z
							 M468.3,165.2c2.7-1.2,4-4.4,2.8-7.1s-4.4-4-7.1-2.8c-2.7,1.2-4,4.4-2.8,7.1C462.4,165.1,465.6,166.3,468.3,165.2L468.3,165.2
							z"/>
						<radialGradient id="SVGID_17_" cx="462.5253" cy="157.2102" r="11.9727" gradientUnits="userSpaceOnUse">
							<stop  offset="0" style="stop-color:#27499B"/>
							<stop  offset="1" style="stop-color:#283270"/>
						</radialGradient>
						<path class="st17" d="M451,163.2l2.7,6.2l4.4-0.9c0.2,0.2,0.4,0.4,0.6,0.6l1.2-1.5c-0.3-0.2-0.6-0.5-0.8-0.8l-0.4-0.4l-4,0.8
							l-1.5-3.5l3.3-2.3l0-0.5c0-0.3,0-0.8,0-1.1l0-0.5l-3.4-2.2l1.4-3.6l4,0.7l0.3-0.3c0.2-0.3,0.5-0.6,0.8-0.8l0.4-0.4l-0.8-4
							l3.5-1.5l2.3,3.3l0.5,0c0.3,0,0.8,0,1.1,0l0.5,0l2.2-3.4l4.3,1.7l0.6-1.6l-5.6-2.2l-2.5,3.7c-0.1,0-0.2,0-0.3,0l-2.6-3.6
							l-6.2,2.7l0.9,4.4c-0.1,0-0.1,0.2-0.2,0.2l-4.4-0.7l-2.5,6.3l3.7,2.5c0,0.1,0,0.2,0,0.3L451,163.2L451,163.2z"/>
						<radialGradient id="SVGID_18_" cx="469.873" cy="163.3789" r="11.9638" gradientUnits="userSpaceOnUse">
							<stop  offset="0" style="stop-color:#27499B"/>
							<stop  offset="1" style="stop-color:#283270"/>
						</radialGradient>
						<path class="st18" d="M481.5,162.6l-3.7-2.5c0-0.1,0-0.2,0-0.3l3.7-2.5l-2.7-6.2l-4.4,0.9c-0.2-0.2-0.4-0.4-0.6-0.5l-1.2,1.4
							c0.3,0.2,0.6,0.5,0.8,0.8l0.4,0.4l4-0.8l1.5,3.5l-3.3,2.3l0,0.5c0,0.3,0,0.8,0,1.1l0,0.5l3.4,2.2L478,167l-4-0.7l-0.4,0.4
							c-0.2,0.3-0.5,0.6-0.8,0.8l-0.4,0.4l0.8,4l-3.5,1.5l-2.3-3.3l-0.5,0c-0.3,0-0.8,0-1.1,0l-0.5,0l-2.2,3.4l-4.3-1.7l-0.6,1.6
							l5.6,2.2l2.5-3.7c0.1,0,0.2,0,0.3,0l2.6,3.6l6.2-2.7l-0.9-4.4c0.1,0,0.1-0.2,0.2-0.2l4.4,0.7L481.5,162.6L481.5,162.6z"/>
					</g>
					<g>
						<radialGradient id="SVGID_19_" cx="466.4282" cy="160.1451" r="0.2745" gradientUnits="userSpaceOnUse">
							<stop  offset="0" style="stop-color:#27499B"/>
							<stop  offset="1" style="stop-color:#283270"/>
						</radialGradient>
						<path class="st19" d="M466.6,160c-0.1-0.1-0.2-0.2-0.4-0.2l0.3,0.7c0,0,0-0.1,0.1-0.1C466.6,160.3,466.7,160.2,466.6,160z"/>
						<radialGradient id="SVGID_20_" cx="456.1203" cy="168.2228" r="27.6069" gradientUnits="userSpaceOnUse">
							<stop  offset="0" style="stop-color:#27499B"/>
							<stop  offset="1" style="stop-color:#283270"/>
						</radialGradient>
						<path class="st20" d="M476.7,175.6l-7.8,3.4c-0.2,0.1-0.4,0.1-0.7,0.1l-17.5,8l-14.8-32.6l17.7-8c0.1-0.3,0.3-0.6,0.6-0.7
							l7.4-3.2l-1-2.3c-0.9-2-3.3-2.9-5.3-2l-21.3,9.6c-2,0.9-2.9,3.3-2,5.3l19.6,43.2c0.9,2,3.3,2.9,5.3,2l21.3-9.6
							c2-0.9,2.9-3.3,2-5.3L476.7,175.6z M440.4,147.6l10.5-4.8c0.3-0.1,0.7,0.2,0.9,0.7c0.2,0.5,0.2,1-0.1,1.1l-10.5,4.8
							c-0.3,0.1-0.7-0.2-0.9-0.7C440.1,148.2,440.2,147.7,440.4,147.6z M465.9,189.8c-1.3,0.6-2.8,0-3.4-1.3c-0.6-1.3,0-2.8,1.3-3.4
							c1.3-0.6,2.8,0,3.4,1.3C467.8,187.7,467.2,189.3,465.9,189.8z"/>
					</g>
					<g>
						<radialGradient id="SVGID_21_" cx="492.8831" cy="329.5004" r="14.8673" gradientUnits="userSpaceOnUse">
							<stop  offset="0" style="stop-color:#27499B"/>
							<stop  offset="1" style="stop-color:#283270"/>
						</radialGradient>
						<path class="st21" d="M506.6,317.4c-0.5-0.5-1.4-0.5-1.9,0l-15.6,15.6L481,325c-0.5-0.5-1.4-0.5-1.9,0l-2.8,2.8
							c-0.5,0.5-0.5,1.4,0,1.9l11.8,11.9c0.5,0.5,1.4,0.5,1.9,0l19.4-19.4c0.5-0.5,0.5-1.4,0-1.9L506.6,317.4z"/>
					</g>
					<g>
						<radialGradient id="SVGID_22_" cx="462.4034" cy="329.2432" r="17.5149" gradientUnits="userSpaceOnUse">
							<stop  offset="0" style="stop-color:#27499B"/>
							<stop  offset="1" style="stop-color:#283270"/>
						</radialGradient>
						<path class="st22" d="M475.1,335.3c-0.2-0.7,0.1-1.7,0.7-2.1l0.7-0.5l-1.5-1.6c-0.6-0.6-1-1.5-1-2.3c0-0.9,0.4-1.7,1-2.3
							l2.8-2.8c0,0,0,0,0,0h-5.1c-0.7,0-1.6-0.6-1.8-1.3l-3.3-10.2c-0.5-1.4-1.3-1.6-1.7-1.6c-0.4,0-1.3,0.2-1.7,1.6l-3.3,10.2
							c-0.2,0.7-1.1,1.3-1.8,1.3h-10.7c-1.5,0-1.9,0.7-2.1,1.1c-0.1,0.4-0.2,1.3,1,2.1l8.6,6.3c0.6,0.4,0.9,1.4,0.7,2.1l-3.3,10.2
							c-0.3,0.8-0.2,1.5,0.1,2c0.3,0.4,0.7,0.6,1.2,0.6c0.5,0,0.9-0.2,1.5-0.6l8.6-6.3c0.3-0.2,0.7-0.3,1.1-0.3
							c0.4,0,0.8,0.1,1.1,0.3l8.6,6.3c0.5,0.4,1,0.6,1.5,0.6c0.5,0,0.9-0.2,1.2-0.6c0.4-0.5,0.4-1.2,0.1-2L475.1,335.3z"/>
					</g>
					<g>
						<radialGradient id="SVGID_23_" cx="365.0462" cy="468.9538" r="16.8016" gradientUnits="userSpaceOnUse">
							<stop  offset="0" style="stop-color:#27499B"/>
							<stop  offset="1" style="stop-color:#283270"/>
						</radialGradient>
						<path class="st23" d="M373.7,448.3h-17.4c-1.7,0-3,1.4-3,3v35.3c0,1.7,1.3,3,3,3h17.4c1.7,0,3-1.3,3-3v-35.3
							C376.8,449.6,375.4,448.3,373.7,448.3z M360.8,450.1h8.6c0.2,0,0.4,0.3,0.4,0.7c0,0.4-0.2,0.7-0.4,0.7h-8.6
							c-0.2,0-0.4-0.3-0.4-0.7C360.4,450.4,360.5,450.1,360.8,450.1z M365,486.7c-1.1,0-1.9-0.9-1.9-1.9c0-1.1,0.9-1.9,1.9-1.9
							c1.1,0,1.9,0.9,1.9,1.9C367,485.8,366.1,486.7,365,486.7z M374.5,480.1h-18.9v-26.7h18.9V480.1L374.5,480.1z"/>
					</g>
					<g id="gUvezT.tif_9_">
						<g>
							<radialGradient id="SVGID_24_" cx="366.5919" cy="501.7309" r="16.9676" gradientUnits="userSpaceOnUse">
								<stop  offset="0" style="stop-color:#27499B"/>
								<stop  offset="1" style="stop-color:#283270"/>
							</radialGradient>
							<path class="st24" d="M345,506c3.6,0.8,6.9,1.2,10,2.1c3,0.9,5.9,2.1,8.8,3.4c2.2,1,4.1,0.7,6-0.7c5.5-4.2,11-8.3,16.5-12.5
								c0.6-0.5,1.4-1,1.6-1.7c0.3-1.1,0.5-2.5,0.1-3.5c-0.5-1.3-2-1.5-3.3-1.1c-0.8,0.2-1.6,0.6-2.4,1c-3.8,2.2-7.7,4.4-11.4,6.7
								c-0.7,0.4-1.3,1.1-1.8,1.8c-1.4,2.1-3.4,2.9-5.7,2c-2.1-0.9-4.1-1.9-6.2-2.9c-0.4-0.2-0.6-0.7-0.9-1.1
								c0.1-0.1,0.2-0.2,0.4-0.4c2.2,1,4.3,2.1,6.5,3.1c2.2,1,4.1,0.4,4.9-1.5c0.9-1.8,0.1-3.6-2.2-4.7c-3-1.4-6.1-2.9-9.1-4.2
								c-0.6-0.3-1.4-0.4-2.1-0.4c-2.7,0.3-5.3,0.8-7.9,1.1c-1.5,0.2-1.8,0.9-1.8,2.2c0.1,2.8,0,5.6,0,8.4
								C345,504.2,345,505.3,345,506z M380.9,492.3c-0.1-0.2-0.2-0.4-0.3-0.7c-4.3,0.5-7.6,3.4-11.6,4.8c0.4,0.9,0.6,1.5,0.9,2.3
								C373.6,496.6,377.2,494.5,380.9,492.3z"/>
							<radialGradient id="SVGID_25_" cx="366.5919" cy="501.7309" r="16.9676" gradientUnits="userSpaceOnUse">
								<stop  offset="0" style="stop-color:#27499B"/>
								<stop  offset="1" style="stop-color:#283270"/>
							</radialGradient>
							<path class="st25" d="M345,506c0-0.7,0-1.8,0-3c0-2.8,0-5.6,0-8.4c0-1.3,0.3-2.1,1.8-2.2c2.7-0.3,5.3-0.8,7.9-1.1
								c0.7-0.1,1.5,0.1,2.1,0.4c3.1,1.4,6.1,2.8,9.1,4.2c2.2,1.1,3,2.8,2.2,4.7c-0.9,1.9-2.7,2.5-4.9,1.5c-2.2-1-4.3-2-6.5-3.1
								c-0.1,0.1-0.2,0.2-0.4,0.4c0.3,0.4,0.5,0.9,0.9,1.1c2,1,4.1,2.1,6.2,2.9c2.3,0.9,4.3,0.1,5.7-2c0.5-0.7,1.1-1.4,1.8-1.8
								c3.8-2.3,7.6-4.5,11.4-6.7c0.7-0.4,1.6-0.8,2.4-1c1.3-0.4,2.8-0.2,3.3,1.1c0.4,1,0.2,2.4-0.1,3.5c-0.2,0.7-1,1.2-1.6,1.7
								c-5.5,4.2-11,8.3-16.5,12.5c-1.9,1.5-3.7,1.7-6,0.7c-2.9-1.3-5.8-2.5-8.8-3.4C351.9,507.2,348.7,506.8,345,506z"/>
							<radialGradient id="SVGID_26_" cx="374.9289" cy="495.2439" r="4.8981" gradientUnits="userSpaceOnUse">
								<stop  offset="0" style="stop-color:#27499B"/>
								<stop  offset="1" style="stop-color:#283270"/>
							</radialGradient>
							<path class="st26" d="M380.9,492.3c-3.6,2.1-7.3,4.3-11,6.5c-0.3-0.8-0.5-1.4-0.9-2.3c3.9-1.5,7.3-4.4,11.6-4.8
								C380.7,491.9,380.8,492.1,380.9,492.3z"/>
						</g>
					</g>
				</g>
			</g>
			<g>
				<text transform="matrix(1 0 0 1 17.4861 15.2312)" class="st432 st433 st434">estudiamos</text>
				<text transform="matrix(1 0 0 1 -2.441406e-04 33.2112)" class="st432 st435 st436">tus necesidades</text>
				<text transform="matrix(1 0 0 1 156.1187 110.3633)" class="st432 st433 st434">ANALIZAMOS </text>
				<g>
					<text transform="matrix(1 0 0 1 136.9629 128.6363)" class="st432 st435 st436">las oportunidades</text>
				</g>
				<g>
					<text transform="matrix(1 0 0 1 408.701 33.6875)" class="st432 st435 st436">el proyecto </text>
				</g>
				<g>
					<text transform="matrix(1 0 0 1 425.1179 244.5978)" class="st432 st435 st436">la aplicacin</text>
				</g>
				<text transform="matrix(1 0 0 1 411.0765 15.1442)" class="st432 st433 st434">DISEAMOS</text>
				<text transform="matrix(1 0 0 1 420.6083 226.3384)" class="st432 st433 st434">DESARROLLAMOS</text>
				<g>
					<text transform="matrix(1 0 0 1 379.9218 405.7527)" class="st432 st435 st436">usabilidad y experiencia</text>
				</g>
				<g>
					<text transform="matrix(1 0 0 1 415.3202 495.2437)" class="st432 st435 st436">en la implementacin</text>
				</g>
				<text transform="matrix(1 0 0 1 427.4432 386.3806)" class="st432 st433 st434">EVALUAMOS</text>
				<text transform="matrix(1 0 0 1 417.5896 475.4028)" class="st432 st433 st434">ACOMPAAMOS</text>
			</g>
			<g>
				<g>
					<g class="st404">
						<path class="st405" d="M58.9,132.6c-0.4,0-0.8,0-1.3,0l0-1.2c1.5,0,3,0,4.5-0.1l0.1,1.1C61.2,132.5,60.1,132.6,58.9,132.6z
							 M53,132.2c-1.5-0.2-3.1-0.5-4.6-0.9l0.3-1.1c1.5,0.4,3,0.6,4.5,0.8L53,132.2z M67,131.8l-0.2-1.1c1.5-0.3,3-0.6,4.4-1.1
							l0.3,1.1C70,131.2,68.5,131.6,67,131.8z M44,129.9c-1.5-0.5-2.9-1.1-4.3-1.8l0.5-1c1.4,0.7,2.8,1.3,4.2,1.8L44,129.9z
							 M75.9,129.2l-0.4-1.1c1.4-0.6,2.8-1.3,4.1-2l0.6,1C78.7,127.9,77.3,128.6,75.9,129.2z M35.6,125.8c-1.3-0.8-2.6-1.7-3.8-2.7
							l0.7-0.9c1.2,0.9,2.4,1.8,3.7,2.6L35.6,125.8z M84.1,124.6l-0.7-0.9c1.2-0.9,2.4-1.8,3.6-2.8l0.8,0.9
							C86.6,122.8,85.3,123.8,84.1,124.6z M28.3,120.1c-1.1-1.1-2.2-2.2-3.2-3.4l0.9-0.7c1,1.2,2,2.3,3.1,3.4L28.3,120.1z
							 M91.1,118.5l-0.8-0.8c1-1.1,2-2.3,2.9-3.5l0.9,0.7C93.1,116.2,92.1,117.4,91.1,118.5z M22.3,112.9c-0.9-1.3-1.7-2.7-2.4-4
							l1-0.5c0.7,1.3,1.5,2.7,2.3,3.9L22.3,112.9z M96.7,111l-1-0.6c0.8-1.3,1.5-2.7,2.1-4l1,0.5C98.2,108.3,97.4,109.7,96.7,111z
							 M18.1,104.6c-0.6-1.4-1-2.9-1.5-4.4l1.1-0.3c0.4,1.5,0.9,2.9,1.4,4.3L18.1,104.6z M100.5,102.5l-1.1-0.4
							c0.5-1.4,0.9-2.9,1.2-4.4l1.1,0.2C101.4,99.6,101,101.1,100.5,102.5z M15.6,95.6c-0.2-1.5-0.4-3.1-0.5-4.6l1.2-0.1
							c0.1,1.5,0.2,3,0.5,4.5L15.6,95.6z M102.5,93.4l-1.1-0.1c0.2-1.5,0.2-3,0.2-4.5c0-1.4-0.1-2.8-0.2-4.2l1.1-0.1
							c0.1,1.4,0.2,2.9,0.2,4.3C102.7,90.3,102.6,91.9,102.5,93.4z M16.3,86.3l-1.2-0.1c0.1-1.6,0.3-3.1,0.5-4.6l1.1,0.2
							C16.6,83.3,16.4,84.8,16.3,86.3z M100.7,80.1c-0.3-1.5-0.7-3-1.2-4.4l1.1-0.4c0.5,1.5,0.9,3,1.2,4.5L100.7,80.1z M17.8,77.4
							l-1.1-0.3c0.4-1.5,0.9-3,1.5-4.4l1.1,0.4C18.7,74.5,18.2,75.9,17.8,77.4z M97.9,71.4c-0.6-1.4-1.3-2.7-2.1-4l1-0.6
							c0.8,1.3,1.5,2.7,2.1,4.2L97.9,71.4z M21.2,68.9l-1-0.5c0.7-1.4,1.5-2.7,2.4-4l1,0.6C22.6,66.3,21.9,67.6,21.2,68.9z
							 M93.3,63.6c-0.9-1.2-1.9-2.4-2.9-3.5l0.9-0.8c1,1.1,2,2.4,3,3.6L93.3,63.6z M26.2,61.4l-0.9-0.7c1-1.2,2.1-2.3,3.2-3.4
							l0.8,0.8C28.2,59.1,27.2,60.2,26.2,61.4z M87.2,56.9c-1.1-1-2.3-2-3.6-2.8l0.7-0.9C85.6,54,86.8,55,88,56L87.2,56.9z
							 M32.8,55.1l-0.7-0.9c1.2-1,2.5-1.9,3.8-2.7l0.6,1C35.2,53.3,34,54.1,32.8,55.1z M79.8,51.6c-1.3-0.7-2.7-1.4-4.1-2l0.5-1.1
							c1.4,0.6,2.8,1.3,4.2,2.1L79.8,51.6z M40.5,50.3l-0.5-1c1.4-0.7,2.8-1.3,4.3-1.8l0.4,1.1C43.2,49.1,41.8,49.6,40.5,50.3z
							 M71.5,48c-1.4-0.4-2.9-0.8-4.4-1.1l0.2-1.1c1.5,0.3,3,0.7,4.5,1.1L71.5,48z M49,47.3l-0.3-1.1c1.5-0.4,3.1-0.6,4.6-0.8
							l0.1,1.1C52,46.6,50.5,46.9,49,47.3z M62.6,46.3c-1.5-0.1-3-0.2-4.5-0.1l0-1.2c1.5,0,3.1,0,4.7,0.2L62.6,46.3z"/>
						<path class="st405" d="M200.7,87.6c-0.4,0-0.8,0-1.3,0l0-1.2c1.5,0,3,0,4.5-0.1l0.1,1.1C203,87.6,201.9,87.6,200.7,87.6z
							 M194.8,87.2c-1.5-0.2-3.1-0.5-4.6-0.9l0.3-1.1c1.5,0.4,3,0.6,4.5,0.8L194.8,87.2z M208.8,86.9l-0.2-1.1
							c1.5-0.3,3-0.6,4.4-1.1l0.3,1.1C211.8,86.2,210.3,86.6,208.8,86.9z M185.8,85c-1.5-0.5-2.9-1.1-4.3-1.8l0.5-1
							c1.4,0.7,2.8,1.3,4.2,1.8L185.8,85z M217.7,84.2l-0.4-1.1c1.4-0.6,2.8-1.3,4.1-2l0.6,1C220.5,82.9,219.1,83.6,217.7,84.2z
							 M177.4,80.9c-1.3-0.8-2.6-1.7-3.8-2.7l0.7-0.9c1.2,0.9,2.4,1.8,3.7,2.6L177.4,80.9z M225.9,79.7l-0.7-0.9
							c1.2-0.9,2.4-1.8,3.6-2.8l0.8,0.9C228.4,77.8,227.1,78.8,225.9,79.7z M170.1,75.1c-1.1-1.1-2.2-2.2-3.2-3.4l0.9-0.7
							c1,1.2,2,2.3,3.1,3.4L170.1,75.1z M232.9,73.6l-0.8-0.8c1-1.1,2-2.3,2.9-3.5l0.9,0.7C234.9,71.2,233.9,72.4,232.9,73.6z
							 M164.1,67.9c-0.9-1.3-1.7-2.7-2.4-4l1-0.5c0.7,1.3,1.5,2.7,2.3,3.9L164.1,67.9z M238.5,66.1l-1-0.6c0.8-1.3,1.5-2.7,2.1-4
							l1,0.5C240,63.3,239.2,64.7,238.5,66.1z M159.9,59.6c-0.6-1.4-1-2.9-1.5-4.4l1.1-0.3c0.4,1.5,0.9,2.9,1.4,4.3L159.9,59.6z
							 M242.3,57.6l-1.1-0.4c0.5-1.4,0.9-2.9,1.2-4.4l1.1,0.2C243.2,54.6,242.8,56.1,242.3,57.6z M157.4,50.6
							c-0.2-1.5-0.4-3.1-0.5-4.6l1.2-0.1c0.1,1.5,0.2,3,0.5,4.5L157.4,50.6z M244.3,48.5l-1.1-0.1c0.2-1.5,0.2-3,0.2-4.5
							c0-1.4-0.1-2.8-0.2-4.2l1.1-0.1c0.1,1.4,0.2,2.9,0.2,4.3C244.5,45.4,244.4,46.9,244.3,48.5z M158.1,41.4l-1.2-0.1
							c0.1-1.6,0.3-3.1,0.5-4.6l1.1,0.2C158.4,38.3,158.2,39.8,158.1,41.4z M242.5,35.1c-0.3-1.5-0.7-3-1.2-4.4l1.1-0.4
							c0.5,1.5,0.9,3,1.2,4.5L242.5,35.1z M159.6,32.4l-1.1-0.3c0.4-1.5,0.9-3,1.5-4.4l1.1,0.4C160.5,29.5,160,30.9,159.6,32.4z
							 M239.7,26.5c-0.6-1.4-1.3-2.7-2.1-4l1-0.6c0.8,1.3,1.5,2.7,2.1,4.2L239.7,26.5z M163,24l-1-0.5c0.7-1.4,1.5-2.7,2.4-4l1,0.6
							C164.4,21.3,163.7,22.6,163,24z M235.1,18.6c-0.9-1.2-1.9-2.4-2.9-3.5l0.9-0.8c1,1.1,2,2.4,3,3.6L235.1,18.6z M168,16.4
							l-0.9-0.7c1-1.2,2.1-2.3,3.2-3.4l0.8,0.8C170,14.1,169,15.3,168,16.4z M229,11.9c-1.1-1-2.3-2-3.6-2.8l0.7-0.9
							c1.3,0.9,2.5,1.9,3.7,2.9L229,11.9z M174.6,10.1l-0.7-0.9c1.2-1,2.5-1.9,3.8-2.7l0.6,1C177,8.3,175.8,9.2,174.6,10.1z
							 M221.6,6.6c-1.3-0.7-2.7-1.4-4.1-2l0.5-1.1c1.4,0.6,2.8,1.3,4.2,2.1L221.6,6.6z M182.3,5.3l-0.5-1c1.4-0.7,2.8-1.3,4.3-1.8
							l0.4,1.1C185.1,4.1,183.6,4.7,182.3,5.3z M213.3,3c-1.4-0.4-2.9-0.8-4.4-1.1l0.2-1.1c1.5,0.3,3,0.7,4.5,1.1L213.3,3z
							 M190.8,2.3l-0.3-1.1c1.5-0.4,3.1-0.6,4.6-0.8l0.1,1.1C193.8,1.7,192.3,2,190.8,2.3z M204.4,1.3c-1.5-0.1-3-0.2-4.5-0.1l0-1.2
							c1.5,0,3.1,0,4.7,0.2L204.4,1.3z"/>
						<path class="st405" d="M351.7,100.3c-0.4,0-0.8,0-1.3,0l0-1.2c1.5,0,3,0,4.5-0.1l0.1,1.1C354,100.3,352.9,100.3,351.7,100.3z
							 M345.8,99.9c-1.5-0.2-3.1-0.5-4.6-0.9l0.3-1.1c1.5,0.4,3,0.6,4.5,0.8L345.8,99.9z M359.8,99.6l-0.2-1.1
							c1.5-0.3,3-0.6,4.4-1.1l0.3,1.1C362.8,98.9,361.3,99.3,359.8,99.6z M336.8,97.7c-1.5-0.5-2.9-1.1-4.3-1.8l0.5-1
							c1.4,0.7,2.8,1.3,4.2,1.8L336.8,97.7z M368.7,96.9l-0.4-1.1c1.4-0.6,2.8-1.3,4.1-2l0.6,1C371.6,95.6,370.1,96.3,368.7,96.9z
							 M328.4,93.6c-1.3-0.8-2.6-1.7-3.8-2.7l0.7-0.9c1.2,0.9,2.4,1.8,3.7,2.6L328.4,93.6z M376.9,92.4l-0.7-0.9
							c1.2-0.9,2.4-1.8,3.6-2.8l0.8,0.9C379.4,90.5,378.1,91.5,376.9,92.4z M321.1,87.8c-1.1-1.1-2.2-2.2-3.2-3.4l0.9-0.7
							c1,1.2,2,2.3,3.1,3.4L321.1,87.8z M383.9,86.2l-0.8-0.8c1-1.1,2-2.3,2.9-3.5l0.9,0.7C386,83.9,385,85.1,383.9,86.2z
							 M315.2,80.6c-0.9-1.3-1.7-2.7-2.4-4l1-0.5c0.7,1.3,1.5,2.7,2.3,3.9L315.2,80.6z M389.5,78.8l-1-0.6c0.8-1.3,1.5-2.7,2.1-4
							l1,0.5C391,76,390.3,77.4,389.5,78.8z M310.9,72.3c-0.6-1.4-1-2.9-1.5-4.4l1.1-0.3c0.4,1.5,0.9,2.9,1.4,4.3L310.9,72.3z
							 M393.3,70.3l-1.1-0.4c0.5-1.4,0.9-2.9,1.2-4.4l1.1,0.2C394.2,67.3,393.8,68.8,393.3,70.3z M308.5,63.3
							c-0.2-1.5-0.4-3.1-0.5-4.6l1.2-0.1c0.1,1.5,0.2,3,0.5,4.5L308.5,63.3z M395.3,61.2l-1.1-0.1c0.2-1.5,0.2-3,0.2-4.5
							c0-1.4-0.1-2.8-0.2-4.2l1.1-0.1c0.1,1.4,0.2,2.9,0.2,4.3C395.6,58.1,395.5,59.6,395.3,61.2z M309.2,54.1L308,54
							c0.1-1.6,0.3-3.1,0.5-4.6l1.1,0.2C309.4,51,309.2,52.5,309.2,54.1z M393.5,47.8c-0.3-1.5-0.7-3-1.2-4.4l1.1-0.4
							c0.5,1.5,0.9,3,1.2,4.5L393.5,47.8z M310.6,45.1l-1.1-0.3c0.4-1.5,0.9-3,1.5-4.4l1.1,0.4C311.5,42.2,311,43.6,310.6,45.1z
							 M390.7,39.2c-0.6-1.4-1.3-2.7-2.1-4l1-0.6c0.8,1.3,1.5,2.7,2.1,4.2L390.7,39.2z M314,36.7l-1-0.5c0.7-1.4,1.5-2.7,2.4-4
							l1,0.6C315.5,34,314.7,35.3,314,36.7z M386.2,31.3c-0.9-1.2-1.9-2.4-2.9-3.5l0.9-0.8c1,1.1,2,2.4,3,3.6L386.2,31.3z M319,29.1
							l-0.9-0.7c1-1.2,2.1-2.3,3.2-3.4l0.8,0.8C321.1,26.8,320,28,319,29.1z M380.1,24.6c-1.1-1-2.3-2-3.6-2.8l0.7-0.9
							c1.3,0.9,2.5,1.9,3.7,2.9L380.1,24.6z M325.6,22.8l-0.7-0.9c1.2-1,2.5-1.9,3.8-2.7l0.6,1C328,21,326.8,21.9,325.6,22.8z
							 M372.7,19.3c-1.3-0.7-2.7-1.4-4.1-2l0.5-1.1c1.4,0.6,2.8,1.3,4.2,2.1L372.7,19.3z M333.3,18l-0.5-1c1.4-0.7,2.8-1.3,4.3-1.8
							l0.4,1.1C336.1,16.8,334.7,17.4,333.3,18z M364.3,15.7c-1.4-0.4-2.9-0.8-4.4-1.1l0.2-1.1c1.5,0.3,3,0.7,4.5,1.1L364.3,15.7z
							 M341.9,15l-0.3-1.1c1.5-0.4,3.1-0.6,4.6-0.8l0.1,1.1C344.8,14.4,343.3,14.6,341.9,15z M355.4,14c-1.5-0.1-3-0.2-4.5-0.1
							l0-1.2c1.5,0,3.1,0,4.7,0.2L355.4,14z"/>
						<path class="st405" d="M459.6,211.6c-0.4,0-0.8,0-1.3,0l0-1.2c1.5,0,3,0,4.5-0.1l0.1,1.1C461.9,211.5,460.8,211.6,459.6,211.6
							z M453.7,211.2c-1.5-0.2-3.1-0.5-4.6-0.9l0.3-1.1c1.5,0.4,3,0.6,4.5,0.8L453.7,211.2z M467.7,210.8l-0.2-1.1
							c1.5-0.3,3-0.6,4.4-1.1l0.3,1.1C470.7,210.2,469.2,210.6,467.7,210.8z M444.6,209c-1.5-0.5-2.9-1.1-4.3-1.8l0.5-1
							c1.4,0.7,2.8,1.3,4.2,1.8L444.6,209z M476.6,208.2l-0.4-1.1c1.4-0.6,2.8-1.3,4.1-2l0.6,1C479.4,206.9,478,207.6,476.6,208.2z
							 M436.3,204.9c-1.3-0.8-2.6-1.7-3.8-2.7l0.7-0.9c1.2,0.9,2.4,1.8,3.7,2.6L436.3,204.9z M484.7,203.7l-0.7-0.9
							c1.2-0.9,2.4-1.8,3.6-2.8l0.8,0.9C487.3,201.8,486,202.8,484.7,203.7z M429,199.1c-1.1-1.1-2.2-2.2-3.2-3.4l0.9-0.7
							c1,1.2,2,2.3,3.1,3.4L429,199.1z M491.8,197.5l-0.8-0.8c1-1.1,2-2.3,2.9-3.5l0.9,0.7C493.8,195.2,492.8,196.4,491.8,197.5z
							 M423,191.9c-0.9-1.3-1.7-2.7-2.4-4l1-0.5c0.7,1.3,1.5,2.7,2.3,3.9L423,191.9z M497.3,190l-1-0.6c0.8-1.3,1.5-2.7,2.1-4l1,0.5
							C498.9,187.3,498.1,188.7,497.3,190z M418.7,183.6c-0.6-1.4-1-2.9-1.5-4.4l1.1-0.3c0.4,1.5,0.9,2.9,1.4,4.3L418.7,183.6z
							 M501.2,181.6l-1.1-0.4c0.5-1.4,0.9-2.9,1.2-4.4l1.1,0.2C502.1,178.6,501.7,180.1,501.2,181.6z M416.3,174.6
							c-0.2-1.5-0.4-3.1-0.5-4.6l1.2-0.1c0.1,1.5,0.2,3,0.5,4.5L416.3,174.6z M503.2,172.4l-1.1-0.1c0.2-1.5,0.2-3,0.2-4.5
							c0-1.4-0.1-2.8-0.2-4.2l1.1-0.1c0.1,1.4,0.2,2.9,0.2,4.3C503.4,169.3,503.3,170.9,503.2,172.4z M417,165.3l-1.2-0.1
							c0.1-1.6,0.3-3.1,0.5-4.6l1.1,0.2C417.3,162.3,417.1,163.8,417,165.3z M501.4,159.1c-0.3-1.5-0.7-3-1.2-4.4l1.1-0.4
							c0.5,1.5,0.9,3,1.2,4.5L501.4,159.1z M418.5,156.4l-1.1-0.3c0.4-1.5,0.9-3,1.5-4.4l1.1,0.4
							C419.4,153.5,418.9,154.9,418.5,156.4z M498.6,150.4c-0.6-1.4-1.3-2.7-2.1-4l1-0.6c0.8,1.3,1.5,2.7,2.1,4.2L498.6,150.4z
							 M421.9,147.9l-1-0.5c0.7-1.4,1.5-2.7,2.4-4l1,0.6C423.3,145.3,422.6,146.6,421.9,147.9z M494,142.6c-0.9-1.2-1.9-2.4-2.9-3.5
							l0.9-0.8c1,1.1,2,2.4,3,3.6L494,142.6z M426.9,140.4l-0.9-0.7c1-1.2,2.1-2.3,3.2-3.4l0.8,0.8
							C428.9,138.1,427.9,139.2,426.9,140.4z M487.9,135.9c-1.1-1-2.3-2-3.6-2.8l0.7-0.9c1.3,0.9,2.5,1.9,3.7,2.9L487.9,135.9z
							 M433.5,134.1l-0.7-0.9c1.2-1,2.5-1.9,3.8-2.7l0.6,1C435.9,132.3,434.6,133.2,433.5,134.1z M480.5,130.6
							c-1.3-0.7-2.7-1.4-4.1-2l0.5-1.1c1.4,0.6,2.8,1.3,4.2,2.1L480.5,130.6z M441.2,129.3l-0.5-1c1.4-0.7,2.8-1.3,4.3-1.8l0.4,1.1
							C443.9,128.1,442.5,128.7,441.2,129.3z M472.2,127c-1.4-0.4-2.9-0.8-4.4-1.1l0.2-1.1c1.5,0.3,3,0.7,4.5,1.1L472.2,127z
							 M449.7,126.3l-0.3-1.1c1.5-0.4,3.1-0.6,4.6-0.8l0.1,1.1C452.7,125.7,451.2,125.9,449.7,126.3z M463.3,125.3
							c-1.5-0.1-3-0.2-4.5-0.1l0-1.2c1.5,0,3.1,0,4.7,0.2L463.3,125.3z"/>
						<path class="st405" d="M476.4,373c-0.4,0-0.8,0-1.3,0l0-1.2c1.5,0,3,0,4.5-0.1l0.1,1.1C478.6,372.9,477.5,373,476.4,373z
							 M470.4,372.6c-1.5-0.2-3.1-0.5-4.6-0.9l0.3-1.1c1.5,0.4,3,0.6,4.5,0.8L470.4,372.6z M484.4,372.2l-0.2-1.1
							c1.5-0.3,3-0.6,4.4-1.1l0.3,1.1C487.4,371.6,485.9,371.9,484.4,372.2z M461.4,370.3c-1.5-0.5-2.9-1.1-4.3-1.8l0.5-1
							c1.4,0.7,2.8,1.3,4.2,1.8L461.4,370.3z M493.3,369.6l-0.4-1.1c1.4-0.6,2.8-1.3,4.1-2l0.6,1
							C496.2,368.3,494.8,368.9,493.3,369.6z M453,366.2c-1.3-0.8-2.6-1.7-3.8-2.7l0.7-0.9c1.2,0.9,2.4,1.8,3.7,2.6L453,366.2z
							 M501.5,365l-0.7-0.9c1.2-0.9,2.4-1.8,3.6-2.8l0.8,0.9C504,363.2,502.8,364.1,501.5,365z M445.7,360.4
							c-1.1-1.1-2.2-2.2-3.2-3.4l0.9-0.7c1,1.2,2,2.3,3.1,3.4L445.7,360.4z M508.5,358.9l-0.8-0.8c1-1.1,2-2.3,2.9-3.5l0.9,0.7
							C510.6,356.6,509.6,357.8,508.5,358.9z M439.8,353.3c-0.9-1.3-1.7-2.7-2.4-4l1-0.5c0.7,1.3,1.5,2.7,2.3,3.9L439.8,353.3z
							 M514.1,351.4l-1-0.6c0.8-1.3,1.5-2.7,2.1-4l1,0.5C515.6,348.7,514.9,350.1,514.1,351.4z M435.5,345c-0.6-1.4-1-2.9-1.5-4.4
							l1.1-0.3c0.4,1.5,0.9,2.9,1.4,4.3L435.5,345z M518,342.9l-1.1-0.4c0.5-1.4,0.9-2.9,1.2-4.4l1.1,0.2
							C518.9,339.9,518.4,341.5,518,342.9z M433.1,336c-0.2-1.5-0.4-3.1-0.5-4.6l1.2-0.1c0.1,1.5,0.2,3,0.5,4.5L433.1,336z
							 M519.9,333.8l-1.1-0.1c0.2-1.5,0.2-3,0.2-4.5c0-1.4-0.1-2.8-0.2-4.2l1.1-0.1c0.1,1.4,0.2,2.9,0.2,4.3
							C520.2,330.7,520.1,332.3,519.9,333.8z M433.8,326.7l-1.2-0.1c0.1-1.6,0.3-3.1,0.5-4.6l1.1,0.2
							C434,323.7,433.9,325.2,433.8,326.7z M518.1,320.5c-0.3-1.5-0.7-3-1.2-4.4l1.1-0.4c0.5,1.5,0.9,3,1.2,4.5L518.1,320.5z
							 M435.2,317.8l-1.1-0.3c0.4-1.5,0.9-3,1.5-4.4l1.1,0.4C436.1,314.8,435.6,316.3,435.2,317.8z M515.3,311.8
							c-0.6-1.4-1.3-2.7-2.1-4l1-0.6c0.8,1.3,1.5,2.7,2.1,4.2L515.3,311.8z M438.6,309.3l-1-0.5c0.7-1.4,1.5-2.7,2.4-4l1,0.6
							C440.1,306.7,439.3,308,438.6,309.3z M510.8,304c-0.9-1.2-1.9-2.4-2.9-3.5l0.9-0.8c1,1.1,2,2.4,3,3.6L510.8,304z M443.7,301.8
							l-0.9-0.7c1-1.2,2.1-2.3,3.2-3.4l0.8,0.8C445.7,299.5,444.6,300.6,443.7,301.8z M504.7,297.3c-1.1-1-2.3-2-3.6-2.8l0.7-0.9
							c1.3,0.9,2.5,1.9,3.7,2.9L504.7,297.3z M450.2,295.5l-0.7-0.9c1.2-1,2.5-1.9,3.8-2.7l0.6,1
							C452.6,293.7,451.4,294.5,450.2,295.5z M497.3,292c-1.3-0.7-2.7-1.4-4.1-2l0.5-1.1c1.4,0.6,2.8,1.3,4.2,2.1L497.3,292z
							 M457.9,290.7l-0.5-1c1.4-0.7,2.8-1.3,4.3-1.8l0.4,1.1C460.7,289.4,459.3,290,457.9,290.7z M488.9,288.4
							c-1.4-0.4-2.9-0.8-4.4-1.1l0.2-1.1c1.5,0.3,3,0.7,4.5,1.1L488.9,288.4z M466.5,287.7l-0.3-1.1c1.5-0.4,3.1-0.6,4.6-0.8
							l0.1,1.1C469.4,287,467.9,287.3,466.5,287.7z M480,286.7c-1.5-0.1-3-0.2-4.5-0.1l0-1.2c1.5,0,3.1,0,4.7,0.2L480,286.7z"/>
						<path class="st405" d="M364.2,522.1c-0.4,0-0.8,0-1.3,0l0-1.2c1.5,0,3,0,4.5-0.1l0.1,1.1C366.5,522.1,365.4,522.1,364.2,522.1
							z M358.3,521.7c-1.5-0.2-3.1-0.5-4.6-0.9l0.3-1.1c1.5,0.4,3,0.6,4.5,0.8L358.3,521.7z M372.3,521.4l-0.2-1.1
							c1.5-0.3,3-0.6,4.4-1.1l0.3,1.1C375.3,520.7,373.8,521.1,372.3,521.4z M349.3,519.5c-1.5-0.5-2.9-1.1-4.3-1.8l0.5-1
							c1.4,0.7,2.8,1.3,4.2,1.8L349.3,519.5z M381.2,518.7l-0.4-1.1c1.4-0.6,2.8-1.3,4.1-2l0.6,1C384,517.4,382.6,518.1,381.2,518.7
							z M340.9,515.4c-1.3-0.8-2.6-1.7-3.8-2.7l0.7-0.9c1.2,0.9,2.4,1.8,3.7,2.6L340.9,515.4z M389.4,514.2l-0.7-0.9
							c1.2-0.9,2.4-1.8,3.6-2.8l0.8,0.9C391.9,512.3,390.6,513.3,389.4,514.2z M333.6,509.6c-1.1-1.1-2.2-2.2-3.2-3.4l0.9-0.7
							c1,1.2,2,2.3,3.1,3.4L333.6,509.6z M396.4,508l-0.8-0.8c1-1.1,2-2.3,2.9-3.5l0.9,0.7C398.4,505.7,397.4,506.9,396.4,508z
							 M327.6,502.4c-0.9-1.3-1.7-2.7-2.4-4l1-0.5c0.7,1.3,1.5,2.7,2.3,3.9L327.6,502.4z M402,500.6l-1-0.6c0.8-1.3,1.5-2.7,2.1-4
							l1,0.5C403.5,497.8,402.7,499.2,402,500.6z M323.4,494.1c-0.6-1.4-1-2.9-1.5-4.4l1.1-0.3c0.4,1.5,0.9,2.9,1.4,4.3L323.4,494.1
							z M405.8,492.1l-1.1-0.4c0.5-1.4,0.9-2.9,1.2-4.4l1.1,0.2C406.7,489.1,406.3,490.6,405.8,492.1z M320.9,485.1
							c-0.2-1.5-0.4-3.1-0.5-4.6l1.2-0.1c0.1,1.5,0.2,3,0.5,4.5L320.9,485.1z M407.8,483l-1.1-0.1c0.2-1.5,0.2-3,0.2-4.5
							c0-1.4-0.1-2.8-0.2-4.2l1.1-0.1c0.1,1.4,0.2,2.9,0.2,4.3C408,479.9,407.9,481.4,407.8,483z M321.6,475.9l-1.2-0.1
							c0.1-1.6,0.3-3.1,0.5-4.6l1.1,0.2C321.9,472.8,321.7,474.3,321.6,475.9z M406,469.6c-0.3-1.5-0.7-3-1.2-4.4l1.1-0.4
							c0.5,1.5,0.9,3,1.2,4.5L406,469.6z M323.1,466.9l-1.1-0.3c0.4-1.5,0.9-3,1.5-4.4l1.1,0.4C324,464,323.5,465.4,323.1,466.9z
							 M403.2,461c-0.6-1.4-1.3-2.7-2.1-4l1-0.6c0.8,1.3,1.5,2.7,2.1,4.2L403.2,461z M326.5,458.5l-1-0.5c0.7-1.4,1.5-2.7,2.4-4
							l1,0.6C327.9,455.8,327.2,457.1,326.5,458.5z M398.7,453.1c-0.9-1.2-1.9-2.4-2.9-3.5l0.9-0.8c1,1.1,2,2.4,3,3.6L398.7,453.1z
							 M331.5,450.9l-0.9-0.7c1-1.2,2.1-2.3,3.2-3.4l0.8,0.8C333.5,448.6,332.5,449.8,331.5,450.9z M392.5,446.4
							c-1.1-1-2.3-2-3.6-2.8l0.7-0.9c1.3,0.9,2.5,1.9,3.7,2.9L392.5,446.4z M338.1,444.6l-0.7-0.9c1.2-1,2.5-1.9,3.8-2.7l0.6,1
							C340.5,442.8,339.3,443.7,338.1,444.6z M385.1,441.1c-1.3-0.7-2.7-1.4-4.1-2l0.5-1.1c1.4,0.6,2.8,1.3,4.2,2.1L385.1,441.1z
							 M345.8,439.8l-0.5-1c1.4-0.7,2.8-1.3,4.3-1.8l0.4,1.1C348.6,438.6,347.1,439.2,345.8,439.8z M376.8,437.5
							c-1.4-0.4-2.9-0.8-4.4-1.1l0.2-1.1c1.5,0.3,3,0.7,4.5,1.1L376.8,437.5z M354.3,436.8l-0.3-1.1c1.5-0.4,3.1-0.6,4.6-0.8
							l0.1,1.1C357.3,436.2,355.8,436.4,354.3,436.8z M367.9,435.8c-1.5-0.1-3-0.2-4.5-0.1l0-1.2c1.5,0,3.1,0,4.7,0.2L367.9,435.8z"
							/>
						<g>
							<path class="st405" d="M441.1,408l-1-0.7c0.4-0.6,0.9-1.3,1.3-1.9l1,0.6C441.9,406.7,441.5,407.4,441.1,408z"/>
							<path class="st405" d="M406,448.8l-0.8-0.8c1.1-1,2.2-2,3.2-3.1l0.8,0.8C408.2,446.8,407.1,447.8,406,448.8z M412.5,442.6
								l-0.8-0.8c1.1-1.1,2.1-2.1,3.1-3.2l0.8,0.8C414.6,440.4,413.5,441.5,412.5,442.6z M418.7,436.1l-0.8-0.8c1-1.1,2-2.2,3-3.3
								l0.9,0.8C420.7,433.9,419.7,435,418.7,436.1z M424.7,429.4l-0.9-0.8c1-1.1,1.9-2.3,2.9-3.4l0.9,0.7
								C426.6,427.1,425.6,428.2,424.7,429.4z M430.4,422.4l-0.9-0.7c0.9-1.2,1.8-2.3,2.8-3.5l0.9,0.7
								C432.2,420.1,431.3,421.3,430.4,422.4z M435.9,415.3l-0.9-0.7c0.9-1.2,1.8-2.4,2.6-3.6l0.9,0.7
								C437.6,412.9,436.7,414.1,435.9,415.3z"/>
							<path class="st405" d="M401,453.4l-0.8-0.9c0.6-0.5,1.1-1,1.7-1.5l0.8,0.9C402.1,452.4,401.6,452.9,401,453.4z"/>
						</g>
						<g>
							<path class="st405" d="M481.7,249.7c-0.1-0.8-0.1-1.5-0.2-2.3l1.1-0.1c0.1,0.8,0.1,1.5,0.2,2.3L481.7,249.7z"/>
							<path class="st405" d="M483.5,279.2l-1.2,0c0.1-1.6,0.1-3.3,0.1-4.9l1.2,0C483.6,275.9,483.6,277.6,483.5,279.2z
								 M482.6,269.3c0-1.6,0-3.3-0.1-4.9l1.2,0c0,1.6,0.1,3.3,0.1,4.9L482.6,269.3z M482.3,259.5c-0.1-1.6-0.2-3.3-0.3-4.9l1.2-0.1
								c0.1,1.6,0.2,3.3,0.3,4.9L482.3,259.5z"/>
							<path class="st405" d="M483.1,286.4l-1.2-0.1c0.1-0.8,0.1-1.5,0.1-2.3l1.2,0.1C483.2,284.9,483.2,285.7,483.1,286.4z"/>
						</g>
						<g>
							<path class="st405" d="M391,79.3c-0.6-0.5-1.2-1-1.8-1.4l0.7-0.9c0.6,0.5,1.2,1,1.8,1.4L391,79.3z"/>
							<path class="st405" d="M435.3,125.5c-0.9-1.2-1.8-2.5-2.7-3.7l0.9-0.7c0.9,1.2,1.9,2.4,2.8,3.7L435.3,125.5z M429.7,118.2
								c-1-1.2-1.9-2.4-2.9-3.6l0.9-0.7c1,1.2,1.9,2.4,2.9,3.6L429.7,118.2z M423.9,111.1c-1-1.2-2-2.3-3-3.5l0.9-0.8
								c1,1.1,2,2.3,3,3.5L423.9,111.1z M417.8,104.3c-1-1.1-2.1-2.2-3.1-3.3l0.8-0.8c1.1,1.1,2.1,2.2,3.2,3.4L417.8,104.3z
								 M411.5,97.7c-1.1-1.1-2.2-2.2-3.3-3.2l0.8-0.8c1.1,1.1,2.2,2.1,3.3,3.2L411.5,97.7z M404.9,91.3c-1.1-1-2.2-2.1-3.4-3.1
								l0.8-0.9c1.1,1,2.3,2.1,3.4,3.1L404.9,91.3z M398.1,85.2c-1.2-1-2.3-2-3.5-3l0.7-0.9c1.2,1,2.3,2,3.5,3L398.1,85.2z"/>
							<path class="st405" d="M439.3,131.1c-0.4-0.6-0.9-1.3-1.3-1.9l0.9-0.7c0.4,0.6,0.9,1.3,1.3,1.9L439.3,131.1z"/>
						</g>
						<g>
							<path class="st405" d="M240.9,25.9c-0.8,0-1.5,0-2.3,0v-1.2c0.8,0,1.5,0,2.3,0L240.9,25.9z"/>
							<path class="st405" d="M304.5,34.9c-1.5-0.4-3-0.8-4.4-1.2l0.3-1.1c1.5,0.4,3,0.8,4.5,1.2L304.5,34.9z M295.6,32.5
								c-1.5-0.4-3-0.7-4.5-1l0.2-1.1c1.5,0.3,3,0.7,4.5,1L295.6,32.5z M286.6,30.6c-1.5-0.3-3-0.6-4.5-0.9l0.2-1.1
								c1.5,0.3,3,0.6,4.5,0.9L286.6,30.6z M277.6,28.9c-1.5-0.2-3-0.5-4.6-0.7l0.2-1.1c1.5,0.2,3.1,0.4,4.6,0.7L277.6,28.9z
								 M268.4,27.7c-1.5-0.2-3-0.4-4.6-0.5L264,26c1.5,0.2,3.1,0.3,4.6,0.5L268.4,27.7z M259.3,26.7c-1.5-0.1-3.1-0.2-4.6-0.3
								l0.1-1.2c1.5,0.1,3.1,0.2,4.6,0.3L259.3,26.7z M250.1,26.1c-1.5-0.1-3.1-0.1-4.6-0.2l0-1.2c1.5,0,3.1,0.1,4.6,0.2L250.1,26.1
								z"/>
							<path class="st405" d="M311.1,36.8c-0.7-0.2-1.5-0.5-2.2-0.7l0.3-1.1c0.7,0.2,1.5,0.4,2.2,0.7L311.1,36.8z"/>
						</g>
						<g>
							<path class="st405" d="M98.2,70.3l-0.7-0.9c0.6-0.4,1.3-0.9,1.9-1.3l0.7,0.9C99.4,69.4,98.8,69.8,98.2,70.3z"/>
							<path class="st405" d="M104.1,66.2l-0.6-1c1.3-0.9,2.7-1.8,4.1-2.6l0.6,1C106.8,64.5,105.4,65.4,104.1,66.2z M112.2,61.1
								l-0.6-1c1.4-0.8,2.8-1.7,4.2-2.5l0.6,1C115,59.4,113.6,60.2,112.2,61.1z M120.6,56.2l-0.6-1c1.4-0.8,2.8-1.6,4.3-2.3l0.5,1
								C123.4,54.7,122,55.4,120.6,56.2z M129.2,51.7l-0.5-1c1.4-0.7,2.9-1.4,4.4-2.1l0.5,1C132,50.3,130.6,51,129.2,51.7z
								 M137.9,47.5l-0.5-1c1.5-0.7,3-1.3,4.4-2l0.5,1.1C140.8,46.2,139.3,46.9,137.9,47.5z M146.8,43.7l-0.4-1.1
								c1.5-0.6,3-1.2,4.5-1.8l0.4,1.1C149.7,42.5,148.2,43.1,146.8,43.7z"/>
							<path class="st405" d="M155.8,40.3l-0.4-1.1c0.7-0.3,1.4-0.5,2.2-0.8l0.4,1.1C157.2,39.7,156.5,40,155.8,40.3z"/>
						</g>
					</g>
				</g>
			</g>
		</g>
	</g>
</g>
</svg>
