<?xml version="1.0" encoding="utf-8"?>
<!-- Generator: Adobe Illustrator 21.1.0, SVG Export Plug-In . SVG Version: 6.00 Build 0)  -->
<svg version="1.1" id="Capa_1" xmlns="http://www.w3.org/2000/svg" xmlns:xlink="http://www.w3.org/1999/xlink" x="0px" y="0px"
	 viewBox="0 0 78.6 78.6" style="enable-background:new 0 0 78.6 78.6;" xml:space="preserve">
<style type="text/css">
	.st0{fill:none;stroke:#FFFFFF;stroke-width:2;stroke-miterlimit:10;}
</style>
<g>
	<circle class="st0" cx="39.3" cy="39.3" r="38.3"/>
	<g>
		<ellipse transform="matrix(0.1633 -0.9866 0.9866 0.1633 24.5713 63.6983)" class="st0" cx="49.8" cy="17.4" rx="6.1" ry="6.1"/>
		
			<ellipse transform="matrix(0.1633 -0.9866 0.9866 0.1633 -18.7231 100.4187)" class="st0" cx="49.8" cy="61.2" rx="6.1" ry="6.1"/>
		<g>
			<path class="st0" d="M26.6,45.3c0-9.9,6.5-18.3,15.6-21.1c-0.3-0.3-0.5-0.6-0.7-0.9c-1.6-2.2-2.2-5-1.8-7.7
				c0.1-0.4,0.1-0.7,0.2-1.1c-10.1,4-17.2,13.9-17.2,25.4c0,10.2,5.6,19,13.8,23.8C30.5,59.8,26.6,53,26.6,45.3z"/>
		</g>
		<g>
			<g>
				<path class="st0" d="M39.7,59.6c0.3-1.8,1.1-3.5,2.2-4.8c-6.2-2.3-10.7-8.3-10.7-15.3c0-5.6,2.8-10.6,7.2-13.5
					c-7,3.7-11.7,11.1-11.7,19.5c0,9.4,5.8,17.4,14,20.6C39.6,64,39.3,61.8,39.7,59.6z"/>
			</g>
		</g>
	</g>
</g>
</svg>
