<?xml version="1.0" encoding="utf-8"?>
<!-- Generator: Adobe Illustrator 21.1.0, SVG Export Plug-In . SVG Version: 6.00 Build 0)  -->
<svg version="1.1" id="Capa_1" xmlns="http://www.w3.org/2000/svg" xmlns:xlink="http://www.w3.org/1999/xlink" x="0px" y="0px"
	 viewBox="0 0 78.6 78.6" style="enable-background:new 0 0 78.6 78.6;" xml:space="preserve">
<style type="text/css">
	.st0{fill:none;stroke:#FFFFFF;stroke-width:2;stroke-miterlimit:10;}
	.st1{fill:#FFFFFF;}
</style>
<circle class="st0" cx="39.3" cy="39.3" r="38.3"/>
<g>
	<g>
		<path class="st1" d="M42.1,34c-0.3,0-0.5,0.1-0.7,0.3c-0.2,0.2-0.3,0.5-0.3,0.7c0,0.3,0.1,0.5,0.3,0.7c0.2,0.2,0.5,0.3,0.7,0.3
			c0.3,0,0.5-0.1,0.7-0.3c0.2-0.2,0.3-0.5,0.3-0.7c0-0.3-0.1-0.5-0.3-0.7C42.6,34.1,42.4,34,42.1,34L42.1,34z"/>
		<path class="st1" d="M58.1,34.8c-0.1-0.4-0.5-0.7-1-0.7H46c-0.6,0-1,0.5-1,1s0.5,1,1,1h10.3c0.3,1.2,0.5,2.5,0.5,3.8
			c0.1,3.6-1.1,7.7-3,10.8c-1.8,3-2.6,6.5-2.3,10l-0.2,4.5l-12.3,4.1v-2.9c0-1.6-0.6-3.2-1.8-4.3c-1.2-1.1-2.7-1.8-4.3-1.8
			c0,0,0,0-0.1,0c-1.6,0-3.2-0.6-4.3-1.8c-1.2-1.2-1.8-2.7-1.8-4.4l0-3.3c0-0.3-0.1-0.5-0.3-0.7c-0.2-0.2-0.5-0.3-0.7-0.3h-3.5
			c1.1-2.6,2.7-7.2,2.7-9.5c0-1.4,0.2-2.7,0.5-4.1h12.6c0.6,0,1-0.5,1-1s-0.5-1-1-1H24.8c-0.4,0-0.8,0.3-1,0.7
			c-0.5,1.7-0.8,3.6-0.8,5.4c0,2.2-2.2,8.1-3.1,10.1c-0.2,0.3-0.1,0.7,0.1,1c0.2,0.3,0.5,0.5,0.9,0.5h4.1l0,2.3
			c0,2.2,0.8,4.3,2.4,5.8c1.6,1.6,3.6,2.4,5.8,2.4c0,0,0,0,0.1,0c1.1,0,2.1,0.4,2.8,1.2c0.8,0.8,1.2,1.8,1.2,2.9v3.9
			c0,0.6,0.5,1,1,1l14.5-4.8c0.3,0,0.6-0.1,0.8-0.3c0.2-0.2,0.3-0.5,0.3-0.8l0.1-4.9c-0.3-3,0.4-6.1,2-8.7c2.1-3.5,3.3-7.9,3.3-11.9
			C58.9,38.1,58.6,36.4,58.1,34.8L58.1,34.8z"/>
		<path class="st1" d="M50.7,48.7c0.1,0.1,0.3,0.1,0.4,0.1c0.4,0,0.8-0.2,0.9-0.6c1.3-2.9,1.9-5.8,1.9-8.4c0-0.6-0.5-1-1-1
			c0,0,0,0,0,0c-0.6,0-1,0.5-1,1c0,2.3-0.5,4.9-1.7,7.5C50,47.9,50.2,48.5,50.7,48.7L50.7,48.7z"/>
		<path class="st1" d="M48.6,50.3L48.6,50.3c-0.3,0.5-0.2,1.1,0.3,1.4c0.2,0.1,0.4,0.1,0.5,0.1c0.3,0,0.7-0.2,0.9-0.5l0,0
			c0.3-0.5,0.1-1.1-0.3-1.4C49.6,49.7,48.9,49.9,48.6,50.3L48.6,50.3z"/>
	</g>
	<g>
		<path class="st1" d="M48.1,25.8c0.6,0,1-0.5,1-1c0-0.6,0.5-1.1,1.1-1.1c0.6,0,1.1,0.5,1.1,1.1c0,0.6-0.5,1.1-1.1,1.1
			c-0.6,0-1,0.5-1,1v0.7c0,0.6,0.5,1,1,1c0.5,0,0.9-0.3,1-0.8c1.3-0.4,2.2-1.6,2.2-3c0-1.8-1.4-3.2-3.2-3.2c-1.8,0-3.2,1.4-3.2,3.2
			C47,25.4,47.5,25.8,48.1,25.8L48.1,25.8z"/>
		<g>
			<path class="st1" d="M38.8,17.2l-2.3-2.3l4.4-4.4l2.3,2.3c0.1,0.1,0.1,0.2,0.1,0.3c0,0.1,0,0.2-0.1,0.3l-4.1,4.1
				C39,17.5,38.9,17.3,38.8,17.2L38.8,17.2z M45.3,14.9l2.3,2.3l-4.4,4.4l-2.3-2.3c-0.1-0.1-0.2-0.2-0.3-0.3l4.1-4.1
				c0.1-0.1,0.2-0.1,0.3-0.1C45.1,14.8,45.2,14.8,45.3,14.9L45.3,14.9z M37.4,19.3c-0.4,0.4-0.4,1.1,0,1.5c0,0,0,0,0,0c0,0,0,0,0,0
				c0.2,0.2,0.5,0.3,0.7,0.3c0.3,0,0.5-0.1,0.7-0.3c0.1-0.1,0.2-0.1,0.3-0.1c0.1,0,0.2,0,0.3,0.1l3,3c0.4,0.4,1.1,0.4,1.5,0l5.9-5.9
				c0.4-0.4,0.4-1.1,0-1.5l-3-3c-0.4-0.4-0.9-0.6-1.4-0.7c-0.1-0.5-0.3-1-0.7-1.4l-3-3c-0.4-0.4-1.1-0.4-1.5,0l-5.9,5.9
				c-0.2,0.2-0.3,0.5-0.3,0.7c0,0.3,0.1,0.5,0.3,0.7l3,3c0.1,0.1,0.1,0.2,0.1,0.3C37.5,19.1,37.5,19.2,37.4,19.3L37.4,19.3z"/>
		</g>
		<path class="st1" d="M40.2,30.7h0.8v0.8c0,0.6,0.5,1,1,1c0.6,0,1-0.5,1-1v-0.8h0.8c0.6,0,1-0.5,1-1c0-0.6-0.5-1-1-1h-0.8v-0.8
			c0-0.6-0.5-1-1-1c-0.6,0-1,0.5-1,1v0.8h-0.8c-0.6,0-1,0.5-1,1C39.2,30.3,39.7,30.7,40.2,30.7L40.2,30.7z"/>
		<g>
			<path class="st1" d="M33.6,24.9L33.6,24.9l0,3c0,0.6,0.5,1,1,1c0.6,0,1-0.5,1-1v-5.6c0-0.4-0.3-0.8-0.6-0.9
				c-0.4-0.2-0.8-0.1-1.1,0.2l-1.8,1.8c-0.4,0.4-0.4,1.1,0,1.5C32.6,25.3,33.2,25.3,33.6,24.9L33.6,24.9z"/>
		</g>
		<path class="st1" d="M50.2,29.7c-0.3,0-0.5,0.1-0.7,0.3c-0.2,0.2-0.3,0.5-0.3,0.7c0,0.3,0.1,0.5,0.3,0.7c0.2,0.2,0.5,0.3,0.7,0.3
			c0.3,0,0.5-0.1,0.7-0.3c0.2-0.2,0.3-0.5,0.3-0.7c0-0.3-0.1-0.5-0.3-0.7C50.8,29.8,50.5,29.7,50.2,29.7L50.2,29.7z"/>
		<path class="st1" d="M26.2,17.1c-0.3,0-0.5,0.1-0.7,0.3c-0.2,0.2-0.3,0.5-0.3,0.7c0,0.3,0.1,0.5,0.3,0.7c0.2,0.2,0.5,0.3,0.7,0.3
			c0.3,0,0.5-0.1,0.7-0.3c0.2-0.2,0.3-0.5,0.3-0.7c0-0.3-0.1-0.5-0.3-0.7C26.8,17.2,26.5,17.1,26.2,17.1L26.2,17.1z"/>
		<path class="st1" d="M29.5,17.1c-0.3,0-0.5,0.1-0.7,0.3c-0.2,0.2-0.3,0.5-0.3,0.7c0,0.3,0.1,0.5,0.3,0.7c0.2,0.2,0.5,0.3,0.7,0.3
			c0.3,0,0.5-0.1,0.7-0.3c0.2-0.2,0.3-0.5,0.3-0.7c0-0.3-0.1-0.5-0.3-0.7C30.1,17.2,29.8,17.1,29.5,17.1L29.5,17.1z"/>
		<path class="st1" d="M32.7,17.1c-0.3,0-0.5,0.1-0.7,0.3c-0.2,0.2-0.3,0.5-0.3,0.7c0,0.3,0.1,0.5,0.3,0.7c0.2,0.2,0.5,0.3,0.7,0.3
			c0.3,0,0.5-0.1,0.7-0.3c0.2-0.2,0.3-0.5,0.3-0.7c0-0.3-0.1-0.5-0.3-0.7C33.3,17.2,33,17.1,32.7,17.1L32.7,17.1z"/>
	</g>
</g>
</svg>
