<?xml version="1.0" encoding="utf-8"?>
<!-- Generator: Adobe Illustrator 21.1.0, SVG Export Plug-In . SVG Version: 6.00 Build 0)  -->
<svg version="1.1" id="Capa_1" xmlns="http://www.w3.org/2000/svg" xmlns:xlink="http://www.w3.org/1999/xlink" x="0px" y="0px"
	 viewBox="0 0 78.6 78.6" style="enable-background:new 0 0 78.6 78.6;" xml:space="preserve">
<style type="text/css">
	.st0{fill:none;stroke:#FFFFFF;stroke-width:2;stroke-miterlimit:10;}
	.st1{fill:#FFFFFF;}
</style>
<circle class="st0" cx="39.3" cy="39.3" r="38.3"/>
<g>
	<g>
		<path class="st1" d="M45.9,64.6c-0.2,0-0.4,0-0.6-0.1c-0.4-0.2-0.5-0.7-0.2-1.1l1-1.7c0.3-0.5,0.2-1.2-0.3-1.6
			c-0.5-0.4-1.2-0.3-1.6,0.1l-6.4,6.4c-0.3,0.3-0.8,0.3-1.1,0c-0.3-0.3-0.3-0.7-0.1-1l3.8-3.8c0.4-0.4,0.4-1,0-1.4
			c-0.4-0.4-1-0.4-1.4,0l-4.9,4.9c-0.3,0.3-0.8,0.3-1.1,0c-0.3-0.3-0.3-0.8,0-1.1l4.9-4.9c0.4-0.4,0.4-1,0-1.4c-0.4-0.4-1-0.4-1.4,0
			l-3.8,3.8c-0.3,0.2-0.8,0.2-1-0.1c-0.3-0.3-0.3-0.8,0-1.1l3.7-3.7c0.4-0.4,0.4-1,0-1.4c-0.4-0.4-1-0.4-1.4,0l-2.5,2.5
			c-0.3,0.2-0.8,0.2-1-0.1c-0.3-0.3-0.3-0.8,0-1.1l2.7-2.7l1.9-1.9l2.3-2.3c1.4-1.4,3.4-2.2,5.4-2.2l1.7,0c0.3,0,0.5-0.1,0.7-0.3
			l4-4l1.5,1.5L52,46L49.9,48c-0.4,0.4-0.4,1,0,1.4c0.4,0.4,1,0.4,1.4,0l2.1-2.1l1.4,1.4l-4,4c-0.2,0.2-0.3,0.4-0.3,0.7l0,2.7
			c0,1.5-0.4,3-1.3,4.3l-2.6,3.9C46.4,64.5,46.2,64.6,45.9,64.6L45.9,64.6z M25.9,50.7c-0.2-0.2-0.4-0.3-0.7-0.3l-2.7,0
			c-1.5,0-3-0.4-4.3-1.3l-3.9-2.6c-0.2-0.1-0.3-0.3-0.4-0.5c0-0.2,0-0.4,0.1-0.6c0.2-0.4,0.7-0.5,1.1-0.2l1.7,1
			c0.5,0.3,1.2,0.2,1.6-0.3c0.4-0.5,0.3-1.2-0.1-1.6L12,37.8c-0.3-0.3-0.3-0.8,0-1.1c0.3-0.3,0.7-0.3,1-0.1l3.8,3.8
			c0.4,0.4,1,0.4,1.4,0c0.4-0.4,0.4-1,0-1.4l-4.9-4.9c-0.3-0.3-0.3-0.8,0-1.1c0.3-0.3,0.8-0.3,1.1,0l4.9,4.9c0.4,0.4,1,0.4,1.4,0
			c0.4-0.4,0.4-1,0-1.4l-3.8-3.8c-0.2-0.3-0.2-0.8,0.1-1c0.3-0.3,0.8-0.3,1.1,0l3.7,3.7c0.4,0.4,1,0.4,1.4,0c0.4-0.4,0.4-1,0-1.4
			l-2.5-2.5c-0.2-0.3-0.2-0.8,0.1-1c0.3-0.3,0.8-0.3,1.1,0l6.9,6.9c1.4,1.4,2.2,3.4,2.2,5.4l0,1.7c0,0.3,0.1,0.5,0.3,0.7l4,4
			l-5.4,5.4L25.9,50.7L25.9,50.7L25.9,50.7z M28.2,22.5c0-1.5,0.4-3,1.3-4.3l2.6-3.9c0.1-0.2,0.3-0.3,0.5-0.4c0.2,0,0.4,0,0.6,0.1
			c0.4,0.2,0.5,0.7,0.2,1.1l-1,1.7c-0.3,0.5-0.2,1.2,0.3,1.6c0.5,0.4,1.2,0.3,1.6-0.1l6.4-6.4c0.3-0.3,0.8-0.3,1.1,0
			c0.3,0.3,0.3,0.7,0.1,1l-3.8,3.8c-0.4,0.4-0.4,1,0,1.4c0.4,0.4,1,0.4,1.4,0l3.7-3.7c0,0,0.1-0.1,0.1-0.1l1-1
			c0.3-0.3,0.8-0.3,1.1,0c0.3,0.3,0.3,0.8,0,1.1l-1,1c0,0-0.1,0.1-0.1,0.1l-3.7,3.7c-0.4,0.4-0.4,1,0,1.4c0.4,0.4,1,0.4,1.4,0
			l3.8-3.8c0.3-0.2,0.8-0.2,1,0.1c0.3,0.3,0.3,0.8,0,1.1c0,0-3.3,3.3-3.3,3.3l-0.4,0.4c-0.4,0.4-0.4,1,0,1.4c0.4,0.4,1,0.4,1.4,0
			l2.5-2.5c0.3-0.2,0.8-0.2,1,0.1c0.3,0.3,0.3,0.8,0,1.1l-6.9,6.9c-1.4,1.4-3.4,2.2-5.4,2.2L34,31c-0.3,0-0.5,0.1-0.7,0.3l-4,4
			l-1.4-1.4l1.8-1.8c0.4-0.4,0.4-1,0-1.4c-0.4-0.4-1-0.4-1.4,0l-1.8,1.8l-2.7-2.7l4-4c0.2-0.2,0.3-0.4,0.3-0.7L28.2,22.5L28.2,22.5z
			 M36.7,48l-3.8-3.8l0-1.3c0-2.3-0.8-4.5-2.3-6.2l3.8-3.8l1.3,0c2.3,0,4.5-0.8,6.2-2.3l3.8,3.8l0,1.3c0,2.3,0.8,4.5,2.3,6.2
			l-3.8,3.8l-1.3,0C40.6,45.7,38.4,46.5,36.7,48L36.7,48z M52.7,27.9c0.2,0.2,0.4,0.3,0.7,0.3l2.7,0c1.5,0,3,0.4,4.3,1.3l3.9,2.6
			c0.2,0.1,0.3,0.3,0.4,0.5c0,0.2,0,0.4-0.1,0.6c-0.2,0.4-0.7,0.5-1.1,0.2l-1.7-1c-0.5-0.3-1.2-0.2-1.6,0.3
			c-0.4,0.5-0.3,1.2,0.1,1.6l6.4,6.4c0.3,0.3,0.3,0.8,0,1.1c-0.3,0.3-0.7,0.3-1,0.1l-3.8-3.8c-0.4-0.4-1-0.4-1.4,0
			c-0.4,0.4-0.4,1,0,1.4l4.9,4.9c0.3,0.3,0.3,0.8,0,1.1s-0.8,0.3-1.1,0l-4.9-4.9c-0.4-0.4-1-0.4-1.4,0c-0.4,0.4-0.4,1,0,1.4l3.8,3.8
			c0.2,0.3,0.2,0.8-0.1,1c-0.3,0.3-0.8,0.3-1.1,0l-3.7-3.7c-0.4-0.4-1-0.4-1.4,0c-0.4,0.4-0.4,1,0,1.4l2.5,2.5
			c0.2,0.3,0.2,0.8-0.1,1c-0.3,0.3-0.8,0.3-1.1,0l-6.9-6.9c-1.4-1.4-2.2-3.4-2.2-5.4l0-1.7c0-0.3-0.1-0.5-0.3-0.7l-4-4l1.5-1.5
			l1.9-1.9l2.1-2.1L52.7,27.9L52.7,27.9z M48.1,65.4l2.6-3.9c1.1-1.6,1.6-3.4,1.6-5.3l0-2.3l3.9-3.9c1,0.4,2.2,0.2,3-0.6
			c0.2-0.2,0.4-0.5,0.5-0.7c1,0.6,2.4,0.4,3.2-0.4c0.2-0.2,0.4-0.5,0.5-0.8c1,0.5,2.3,0.3,3.1-0.5c0.8-0.8,1-2.1,0.5-3.1
			c0.3-0.1,0.5-0.3,0.8-0.5c1.1-1.1,1.1-2.8,0-3.8l-3.9-3.9c0.8-0.1,1.5-0.5,2-1.2c0.4-0.6,0.6-1.4,0.5-2.1
			c-0.1-0.7-0.6-1.4-1.2-1.8l-3.9-2.6c-1.6-1.1-3.4-1.6-5.3-1.6l-2.3,0l-3.9-3.9c0.4-1,0.2-2.2-0.6-3c-0.2-0.2-0.5-0.4-0.7-0.5
			c0.6-1,0.4-2.4-0.4-3.2c-0.2-0.2-0.5-0.4-0.8-0.5c0.5-1,0.3-2.3-0.5-3.1c-0.8-0.8-2.1-1-3.1-0.5c-0.1-0.3-0.3-0.5-0.5-0.8
			c-1.1-1.1-2.8-1.1-3.8,0l-3.9,3.9c-0.1-0.8-0.5-1.5-1.2-2c-0.6-0.4-1.4-0.6-2.1-0.5c-0.7,0.1-1.4,0.6-1.8,1.2l-2.6,3.9
			c-1.1,1.6-1.6,3.4-1.6,5.3l0,2.3l-3.9,3.9c-1-0.4-2.2-0.2-3,0.6c-0.2,0.2-0.4,0.5-0.5,0.7c-1-0.6-2.4-0.4-3.2,0.4
			c-0.2,0.2-0.4,0.5-0.5,0.8c-1-0.5-2.3-0.3-3.1,0.5c-0.8,0.8-1,2.1-0.5,3.1c-0.3,0.1-0.5,0.3-0.8,0.5c-1.1,1.1-1.1,2.8,0,3.8
			l3.9,3.9c-0.8,0.1-1.5,0.5-2,1.2c-0.4,0.6-0.6,1.4-0.5,2.1c0.1,0.6,0.4,1,0.8,1.4c0.1,0.1,0.3,0.2,0.4,0.3l3.9,2.6
			c1.6,1.1,3.4,1.6,5.3,1.6l2.3,0l3.9,3.9c-0.4,1-0.2,2.2,0.6,3c0.2,0.2,0.5,0.4,0.7,0.5c-0.6,1-0.4,2.4,0.4,3.2
			c0.2,0.2,0.5,0.4,0.8,0.5c-0.5,1-0.3,2.3,0.5,3.1c0.8,0.8,2.1,1,3.1,0.5c0.1,0.3,0.3,0.5,0.5,0.8c1.1,1.1,2.8,1.1,3.8,0l3.9-3.9
			c0.1,0.8,0.5,1.5,1.2,2c0.6,0.4,1.4,0.6,2.1,0.5C47,66.4,47.7,66,48.1,65.4L48.1,65.4z"/>
	</g>
	<path class="st1" d="M48.7,50.6c-0.2-0.2-0.4-0.3-0.7-0.3c-0.3,0-0.5,0.1-0.7,0.3C47.1,50.8,47,51,47,51.3c0,0.3,0.1,0.5,0.3,0.7
		c0.2,0.2,0.4,0.3,0.7,0.3c0.3,0,0.5-0.1,0.7-0.3c0.2-0.2,0.3-0.4,0.3-0.7C49,51,48.9,50.8,48.7,50.6L48.7,50.6z"/>
	<path class="st1" d="M30.9,29.6c0.2,0.2,0.4,0.3,0.7,0.3c0.3,0,0.5-0.1,0.7-0.3c0.2-0.2,0.3-0.4,0.3-0.7c0-0.3-0.1-0.5-0.3-0.7
		c-0.2-0.2-0.4-0.3-0.7-0.3c-0.3,0-0.5,0.1-0.7,0.3c-0.2,0.2-0.3,0.4-0.3,0.7C30.7,29.1,30.8,29.4,30.9,29.6L30.9,29.6z"/>
</g>
</svg>
