<?xml version="1.0" encoding="utf-8"?>
<!-- Generator: Adobe Illustrator 21.1.0, SVG Export Plug-In . SVG Version: 6.00 Build 0)  -->
<svg version="1.1" id="Capa_1" xmlns="http://www.w3.org/2000/svg" xmlns:xlink="http://www.w3.org/1999/xlink" x="0px" y="0px"
	 viewBox="0 0 60 69.7" style="enable-background:new 0 0 60 69.7;" xml:space="preserve">
<style type="text/css">
	.st0{fill:#FFFFFF;}
</style>
<g>
	<path class="st0" d="M20.9,51.6c-1.7,0-3.4-0.4-4.8-1.3c-3-1.9-4.5-6.2-3.4-10c1.2-4.1,5-6.6,10.2-6.6c4.7,0,8.7,2.4,11.9,4.4
		c1.8,1.1,3.5,2.1,4.5,2.1c1.9,0,4.6-2.1,6.6-3.7c1-0.8,1.8-1.4,2.5-1.8c1.7-0.9,3.3-0.9,4.7,0c1.9,1.4,2.8,4.5,2.3,8
		c-0.1,0.3-1.3,7.9-6,7.6c-2.4-0.1-4.5-2-6.5-3.8c-1.4-1.2-2.9-2.6-3.8-2.5c-0.1,0-2.2,0.3-5.2,2.4C31.8,48.1,26.2,51.6,20.9,51.6z
		 M22.8,35.8c-4.3,0-7.3,1.9-8.3,5.1c-0.8,3,0.3,6.3,2.6,7.7c5.2,3.2,13.8-2.4,15.5-3.6c3.5-2.4,5.9-2.8,6-2.8c0.1,0,0.1,0,0.2,0
		c-1.5-0.1-3.1-1.2-5.2-2.4C30.7,38.1,26.9,35.8,22.8,35.8z M39.5,42.3c1.5,0.2,3,1.5,4.6,3c1.7,1.5,3.6,3.2,5.2,3.3
		c2.5,0.2,3.7-4.4,4-6c0.4-2.7-0.2-5.2-1.5-6.1c-0.7-0.5-1.6-0.5-2.6,0.1c-0.5,0.3-1.4,0.9-2.2,1.6C44.8,39.9,42,42.1,39.5,42.3z"/>
	<path class="st0" d="M33.9,55.7l-1.9-0.6c0.5-1.6,2.5-4.5,6.7-4.5c4.2,0,5.9,3,6.2,4.6l-2,0.4c-0.1-0.3-0.7-3-4.2-3
		C34.9,52.6,33.9,55.7,33.9,55.7z"/>
	<path class="st0" d="M34.3,62.6c-5.1,0-8.2-3.3-8.4-3.4l1.5-1.4l-0.7,0.7l0.7-0.7c0,0,3,3.1,7.5,2.8c4.7-0.3,7.6-2.8,7.6-2.8
		l1.3,1.5c-0.1,0.1-3.4,3-8.8,3.4C34.7,62.6,34.5,62.6,34.3,62.6z"/>
	<path class="st0" d="M30,69.7c-16.5,0-30-13.1-30-29.1c0-11.4,7.3-21.4,20-27.4l0,0c5.2-2.4,6-9.6,6-9.7l0.4-3.4l1.5,3.1
		c4,8.1,8.8,9.2,8.9,9.2C50.2,15.3,60,27.2,60,40.6C60,56.6,46.5,69.7,30,69.7z M20.8,15C8.9,20.7,2,30,2,40.6
		c0,14.9,12.6,27.1,28,27.1s28-12.2,28-27.1c0-12.5-9.1-23.6-21.6-26.3c-0.2,0-4.8-1-9-7.8C26.6,9.2,24.8,13.1,20.8,15z"/>
</g>
</svg>
