<?xml version="1.0" encoding="utf-8"?>
<!-- Generator: Adobe Illustrator 21.1.0, SVG Export Plug-In . SVG Version: 6.00 Build 0)  -->
<svg version="1.1" id="Capa_1" xmlns="http://www.w3.org/2000/svg" xmlns:xlink="http://www.w3.org/1999/xlink" x="0px" y="0px"
	 viewBox="0 0 110 21.3" style="enable-background:new 0 0 110 21.3;" xml:space="preserve">
<style type="text/css">
	.st0{fill:#FFFFFF;}
</style>
<g>
	<path class="st0" d="M60.6,15.3c-1.1,1-2.6,1.7-4.3,1.7c-3.5,0-6.3-2.8-6.3-6.3s2.8-6.3,6.3-6.3c1.7,0,3.2,0.7,4.3,1.7l3-3.2
		c-1.9-1.8-4.5-3-7.4-3c-5.9,0-10.7,4.8-10.7,10.7s4.8,10.7,10.7,10.7c2.9,0,5.5-1.1,7.4-3L60.6,15.3z"/>
	<path class="st0" d="M75.6,12.8c1.6,0,4.3-2.2,4.3-5.6s-2.7-6.3-6.6-6.3s-8,0-8,0v19.7h4.6v-8l4.7,8h5.9L75.6,12.8z M70,10V4.4
		c0,0,5.5-0.7,5.5,2.9C75.5,10.8,70,10,70,10z"/>
	<path class="st0" d="M82.2,20.7c0,0,0-8,0-13.2s4.5-7,7.1-7s4.9,0.6,6.8,2.3c0,0,2-2.3,6-2.3s8,2.6,8,6.2s0,14,0,14h-4.5
		c0,0,0-8.7,0-11.7s-1.7-4.7-3.6-4.7S98.5,5.7,98.5,9s0,11.7,0,11.7h-4.6c0,0,0-8.8,0-11.7s-1.7-4.7-3.7-4.7S86.6,5.5,86.6,9
		s0,11.7,0,11.7H82.2z"/>
	<g>
		<path class="st0" d="M34.5,9c-1.9,0-2.2,2-2.2,2h4.4C36.7,11,36.4,9,34.5,9z"/>
		<path class="st0" d="M47.3,1H0v19.7h47.2v-0.4c-2.4-2.5-3.9-5.8-3.9-9.5s1.5-7.1,4-9.5V1z M10.1,14.4c-0.2,1.3-1.3,2.2-2.8,2.3
			c-0.1,0-0.2,0-0.4,0c-1.3,0-2.1-0.5-2.5-0.9c-0.5-0.5-0.8-1.2-0.8-1.9h2.2c0,0,0,0.2,0.2,0.3c0.2,0.2,0.7,0.3,1.2,0.3
			c0.4,0,0.7-0.2,0.8-0.5c0-0.2-0.1-0.5-0.6-0.7c-0.3-0.1-0.5-0.2-0.7-0.2C5.4,12.7,3.5,12,3.5,9.9c0-1.3,0.9-2.8,3.3-2.8
			c2.1,0,3.1,1.4,3.1,2.8H7.7c0-0.4-0.3-0.6-0.9-0.6c-1.1,0-1.1,0.4-1.1,0.6c0,0.4,0.3,0.7,1.7,1.2c0.3,0,0.5,0,0.7,0.1
			C9.5,11.7,10.3,13,10.1,14.4z M19.1,12.8c0,2.2-1.9,4.1-4.1,4.1c-2.3,0-4.1-1.8-4.1-4.1V7.5h2.5v5.3c0,0.9,0.7,1.6,1.6,1.6
			s1.6-0.7,1.6-1.6V7.5h2.5V12.8z M22.7,16.4h-2.4V7.3h2.4V16.4z M21.5,6.2c-0.8,0-1.4-0.6-1.4-1.4s0.6-1.4,1.4-1.4s1.4,0.6,1.4,1.4
			S22.3,6.2,21.5,6.2z M29.2,16.2c-0.3,0.1-0.6,0.1-0.9,0.2c-0.3,0-0.6,0.1-0.8,0.1c-0.3,0-0.6,0-0.9-0.1c-0.3-0.1-0.5-0.2-0.8-0.3
			c-0.2-0.2-0.4-0.4-0.5-0.6c-0.1-0.3-0.2-0.6-0.2-0.9v-5h-1.5V7.3h1.5V5.2h2.4v2.1H29v2.2h-1.5V14c0,0.2,0.1,0.3,0.2,0.4
			c0.1,0.1,0.3,0.1,0.4,0.1c0.1,0,0.3,0,0.4,0c0.2,0,0.4-0.1,0.7-0.1V16.2z M39.3,12.7L39.3,12.7l-6.8,0.1c0,0-0.2,1,1.2,1.8
			c1.7,0.9,3-0.9,3-0.9h2.4c-0.7,1.9-2.5,3.2-4.7,3.2c-2.8,0-5-2.2-5-4.8c0-2.7,2.2-4.8,5-4.8c2.8,0,5,2.2,5,4.8
			C39.4,12.3,39.3,12.5,39.3,12.7z"/>
	</g>
</g>
</svg>
