<?xml version="1.0" encoding="utf-8"?>
<!-- Generator: Adobe Illustrator 21.1.0, SVG Export Plug-In . SVG Version: 6.00 Build 0)  -->
<svg version="1.1" id="Capa_1" xmlns="http://www.w3.org/2000/svg" xmlns:xlink="http://www.w3.org/1999/xlink" x="0px" y="0px"
	 viewBox="0 0 936.5 694.2" style="enable-background:new 0 0 936.5 694.2;" xml:space="preserve">
<style type="text/css">
	.st0{fill:url(#SVGID_1_);}
	.st1{fill:url(#SVGID_2_);}
	.st2{fill:url(#SVGID_3_);}
	.st3{fill:url(#SVGID_4_);}
	.st4{fill:url(#SVGID_5_);}
	.st5{fill:url(#SVGID_6_);}
	.st6{fill:url(#SVGID_7_);}
	.st7{fill:url(#SVGID_8_);}
	.st8{fill:url(#SVGID_9_);}
	.st9{fill:url(#SVGID_10_);}
	.st10{fill:url(#SVGID_11_);}
	.st11{fill:url(#SVGID_12_);}
	.st12{fill:url(#SVGID_13_);}
	.st13{fill:url(#SVGID_14_);}
	.st14{fill:url(#SVGID_15_);}
	.st15{fill:url(#SVGID_16_);}
	.st16{fill:url(#SVGID_17_);}
	.st17{fill:url(#SVGID_18_);}
	.st18{fill:url(#SVGID_19_);}
	.st19{fill:url(#SVGID_20_);}
	.st20{fill:url(#SVGID_21_);}
	.st21{fill:url(#SVGID_22_);}
	.st22{fill:url(#SVGID_23_);}
	.st23{fill:url(#SVGID_24_);}
	.st24{fill:url(#SVGID_25_);}
	.st25{fill:url(#SVGID_26_);}
	.st26{fill:url(#SVGID_27_);}
	.st27{fill:url(#SVGID_28_);}
	.st28{fill:url(#SVGID_29_);}
	.st29{fill:url(#SVGID_30_);}
	.st30{fill:url(#SVGID_31_);}
	.st31{fill:url(#SVGID_32_);}
	.st32{fill:url(#SVGID_33_);}
	.st33{fill:url(#SVGID_34_);}
	.st34{fill:url(#SVGID_35_);}
	.st35{fill:url(#SVGID_36_);}
	.st36{fill:url(#SVGID_37_);}
	.st37{fill:url(#SVGID_38_);}
	.st38{fill:url(#SVGID_39_);}
	.st39{fill:url(#SVGID_40_);}
	.st40{fill:url(#SVGID_41_);}
	.st41{fill:url(#SVGID_42_);}
	.st42{fill:url(#SVGID_43_);}
	.st43{fill:url(#SVGID_44_);}
	.st44{fill:url(#SVGID_45_);}
	.st45{fill:url(#SVGID_46_);}
	.st46{fill:url(#SVGID_47_);}
	.st47{fill:url(#SVGID_48_);}
	.st48{fill:url(#SVGID_49_);}
	.st49{fill:url(#SVGID_50_);}
	.st50{fill:url(#SVGID_51_);}
	.st51{fill:url(#SVGID_52_);}
	.st52{fill:url(#SVGID_53_);}
	.st53{fill:url(#SVGID_54_);}
	.st54{fill:url(#SVGID_55_);}
	.st55{fill:url(#SVGID_56_);}
	.st56{fill:url(#SVGID_57_);}
	.st57{fill:url(#SVGID_58_);}
	.st58{fill:url(#SVGID_59_);}
	.st59{fill:url(#SVGID_60_);}
	.st60{fill:url(#SVGID_61_);}
	.st61{fill:url(#SVGID_62_);}
	.st62{fill:url(#SVGID_63_);}
	.st63{fill:url(#SVGID_64_);}
	.st64{fill:url(#SVGID_65_);}
	.st65{fill:url(#SVGID_66_);}
	.st66{fill:url(#SVGID_67_);}
	.st67{fill:url(#SVGID_68_);}
	.st68{fill:url(#SVGID_69_);}
	.st69{fill:url(#SVGID_70_);}
	.st70{fill:url(#SVGID_71_);}
	.st71{fill:url(#SVGID_72_);}
	.st72{fill:url(#SVGID_73_);}
	.st73{fill:url(#SVGID_74_);}
	.st74{fill:url(#SVGID_75_);}
	.st75{fill:url(#SVGID_76_);}
	.st76{fill:url(#SVGID_77_);}
	.st77{fill:url(#SVGID_78_);}
	.st78{fill:url(#SVGID_79_);}
	.st79{fill:url(#SVGID_80_);}
	.st80{fill:url(#SVGID_81_);}
	.st81{fill:url(#SVGID_82_);}
	.st82{fill:url(#SVGID_83_);}
	.st83{fill:url(#SVGID_84_);}
	.st84{fill:url(#SVGID_85_);}
	.st85{fill:url(#SVGID_86_);}
	.st86{fill:url(#SVGID_87_);}
	.st87{fill:url(#SVGID_88_);}
	.st88{fill:url(#SVGID_89_);}
	.st89{fill:url(#SVGID_90_);}
	.st90{fill:url(#SVGID_91_);}
	.st91{fill:url(#SVGID_92_);}
	.st92{fill:url(#SVGID_93_);}
	.st93{fill:url(#SVGID_94_);}
	.st94{fill:url(#SVGID_95_);}
	.st95{fill:url(#SVGID_96_);}
	.st96{fill:url(#SVGID_97_);}
	.st97{fill:url(#SVGID_98_);}
	.st98{fill:url(#SVGID_99_);}
	.st99{fill:#158843;}
	.st100{fill:#303030;}
	.st101{fill:url(#SVGID_100_);}
	.st102{fill:url(#SVGID_101_);}
	.st103{fill:url(#SVGID_102_);}
	.st104{fill:url(#SVGID_103_);}
	.st105{fill:url(#SVGID_104_);}
	.st106{fill:#FFFFFF;stroke:#303030;stroke-width:2.7802;stroke-miterlimit:10;}
	.st107{fill:none;stroke:#303030;stroke-width:2.7802;stroke-miterlimit:10;}
	.st108{fill:#F4CDAF;}
	.st109{fill:url(#SVGID_105_);}
	.st110{fill:url(#SVGID_106_);}
	.st111{opacity:0.12;}
	.st112{fill:url(#SVGID_107_);}
	.st113{fill:url(#SVGID_108_);}
	.st114{fill:url(#SVGID_109_);}
	.st115{fill:url(#SVGID_110_);}
	.st116{fill:url(#SVGID_111_);}
	.st117{fill:url(#SVGID_112_);}
	.st118{fill:#FFFFFF;}
	.st119{fill:#002D51;}
	.st120{fill:#A1CCDD;}
	.st121{fill:#C8E7F5;}
	.st122{fill:url(#SVGID_113_);}
	.st123{fill:#FFFFFF;stroke:#303030;stroke-width:1.8229;stroke-miterlimit:10;}
	.st124{fill:#00223B;}
	.st125{fill:none;stroke:#303030;stroke-width:1.8229;stroke-miterlimit:10;}
	.st126{fill:#ECD1BD;}
	.st127{fill:url(#SVGID_114_);}
	.st128{fill:url(#SVGID_115_);}
	.st129{fill:url(#SVGID_116_);}
	.st130{fill:url(#SVGID_117_);}
	.st131{fill:url(#SVGID_118_);}
	.st132{fill:url(#SVGID_119_);}
	.st133{fill:#E8E8E8;}
	.st134{fill:url(#SVGID_120_);}
</style>
<g>
	<radialGradient id="SVGID_1_" cx="756.3743" cy="82.2904" r="36.1445" gradientUnits="userSpaceOnUse">
		<stop  offset="0.4143" style="stop-color:#138843"/>
		<stop  offset="0.9772" style="stop-color:#056A32"/>
	</radialGradient>
	<polygon class="st0" points="792.5,82.3 756.4,118.4 720.2,82.3 756.4,46.1 	"/>
	<g>
		<g>
			<radialGradient id="SVGID_2_" cx="823.4094" cy="92.9485" r="4.1081" gradientUnits="userSpaceOnUse">
				<stop  offset="0" style="stop-color:#27499B"/>
				<stop  offset="1" style="stop-color:#283270"/>
			</radialGradient>
			<polygon class="st1" points="825.5,97.1 827.5,95 825.4,92.9 827.5,90.9 825.5,88.8 823.4,90.9 821.3,88.8 819.3,90.9 
				821.4,92.9 819.3,95 821.3,97.1 823.4,95 			"/>
			<radialGradient id="SVGID_3_" cx="833.6023" cy="103.1414" r="4.1081" gradientUnits="userSpaceOnUse">
				<stop  offset="0" style="stop-color:#27499B"/>
				<stop  offset="1" style="stop-color:#283270"/>
			</radialGradient>
			<polygon class="st2" points="835.7,107.2 837.7,105.2 835.6,103.1 837.7,101.1 835.7,99 833.6,101.1 831.5,99 829.5,101.1 
				831.6,103.1 829.5,105.2 831.5,107.2 833.6,105.2 			"/>
			<radialGradient id="SVGID_4_" cx="843.7948" cy="113.3349" r="4.1079" gradientUnits="userSpaceOnUse">
				<stop  offset="0" style="stop-color:#27499B"/>
				<stop  offset="1" style="stop-color:#283270"/>
			</radialGradient>
			<polygon class="st3" points="845.9,117.4 847.9,115.4 845.8,113.3 847.9,111.2 845.9,109.2 843.8,111.3 841.7,109.2 839.7,111.2 
				841.8,113.3 839.7,115.4 841.7,117.4 843.8,115.4 			"/>
			<radialGradient id="SVGID_5_" cx="853.9882" cy="123.5278" r="4.1083" gradientUnits="userSpaceOnUse">
				<stop  offset="0" style="stop-color:#27499B"/>
				<stop  offset="1" style="stop-color:#283270"/>
			</radialGradient>
			<polygon class="st4" points="856.1,127.6 858.1,125.6 856,123.5 858.1,121.4 856.1,119.4 854,121.5 851.9,119.4 849.9,121.4 
				852,123.5 849.9,125.6 851.9,127.6 854,125.5 			"/>
			<radialGradient id="SVGID_6_" cx="864.1815" cy="133.7205" r="4.1078" gradientUnits="userSpaceOnUse">
				<stop  offset="0" style="stop-color:#27499B"/>
				<stop  offset="1" style="stop-color:#283270"/>
			</radialGradient>
			<polygon class="st5" points="866.3,137.8 868.3,135.8 866.2,133.7 868.3,131.6 866.3,129.6 864.2,131.7 862.1,129.6 860.1,131.6 
				862.2,133.7 860.1,135.8 862.1,137.8 864.2,135.7 			"/>
			<radialGradient id="SVGID_7_" cx="874.3739" cy="143.914" r="4.1079" gradientUnits="userSpaceOnUse">
				<stop  offset="0" style="stop-color:#27499B"/>
				<stop  offset="1" style="stop-color:#283270"/>
			</radialGradient>
			<polygon class="st6" points="876.5,148 878.5,146 876.4,143.9 878.5,141.8 876.5,139.8 874.4,141.9 872.3,139.8 870.3,141.8 
				872.4,143.9 870.3,146 872.3,148 874.4,145.9 			"/>
			<radialGradient id="SVGID_8_" cx="884.5671" cy="154.1062" r="4.1081" gradientUnits="userSpaceOnUse">
				<stop  offset="0" style="stop-color:#27499B"/>
				<stop  offset="1" style="stop-color:#283270"/>
			</radialGradient>
			<polygon class="st7" points="886.7,158.2 888.7,156.2 886.6,154.1 888.7,152 886.7,150 884.6,152.1 882.5,150 880.5,152 
				882.5,154.1 880.5,156.2 882.5,158.2 884.6,156.1 			"/>
		</g>
		<g>
			<radialGradient id="SVGID_9_" cx="811.9867" cy="104.3709" r="4.108" gradientUnits="userSpaceOnUse">
				<stop  offset="0" style="stop-color:#27499B"/>
				<stop  offset="1" style="stop-color:#283270"/>
			</radialGradient>
			<polygon class="st8" points="814.1,108.5 816.1,106.5 814,104.4 816.1,102.3 814.1,100.3 812,102.4 809.9,100.3 807.9,102.3 
				810,104.4 807.9,106.5 809.9,108.5 812,106.4 			"/>
			<radialGradient id="SVGID_10_" cx="822.1799" cy="114.5645" r="4.1081" gradientUnits="userSpaceOnUse">
				<stop  offset="0" style="stop-color:#27499B"/>
				<stop  offset="1" style="stop-color:#283270"/>
			</radialGradient>
			<polygon class="st9" points="824.3,118.7 826.3,116.7 824.2,114.6 826.3,112.5 824.3,110.5 822.2,112.5 820.1,110.5 818.1,112.5 
				820.2,114.6 818.1,116.7 820.1,118.7 822.2,116.6 			"/>
			<radialGradient id="SVGID_11_" cx="832.3724" cy="124.7566" r="4.1079" gradientUnits="userSpaceOnUse">
				<stop  offset="0" style="stop-color:#27499B"/>
				<stop  offset="1" style="stop-color:#283270"/>
			</radialGradient>
			<polygon class="st10" points="834.5,128.9 836.5,126.8 834.4,124.8 836.5,122.7 834.5,120.6 832.4,122.7 830.3,120.6 
				828.3,122.7 830.4,124.8 828.3,126.8 830.3,128.9 832.4,126.8 			"/>
			<radialGradient id="SVGID_12_" cx="842.5655" cy="134.9501" r="4.1078" gradientUnits="userSpaceOnUse">
				<stop  offset="0" style="stop-color:#27499B"/>
				<stop  offset="1" style="stop-color:#283270"/>
			</radialGradient>
			<polygon class="st11" points="844.7,139.1 846.7,137 844.6,135 846.7,132.9 844.7,130.8 842.6,132.9 840.5,130.8 838.5,132.9 
				840.5,135 838.5,137 840.5,139.1 842.6,137 			"/>
			<radialGradient id="SVGID_13_" cx="852.7587" cy="145.1436" r="4.108" gradientUnits="userSpaceOnUse">
				<stop  offset="0" style="stop-color:#27499B"/>
				<stop  offset="1" style="stop-color:#283270"/>
			</radialGradient>
			<polygon class="st12" points="854.8,149.3 856.9,147.2 854.8,145.1 856.9,143.1 854.8,141 852.8,143.1 850.7,141 848.7,143.1 
				850.7,145.1 848.7,147.2 850.7,149.3 852.8,147.2 			"/>
			<radialGradient id="SVGID_14_" cx="862.9519" cy="155.3357" r="4.1082" gradientUnits="userSpaceOnUse">
				<stop  offset="0" style="stop-color:#27499B"/>
				<stop  offset="1" style="stop-color:#283270"/>
			</radialGradient>
			<polygon class="st13" points="865,159.4 867.1,157.4 865,155.3 867.1,153.2 865,151.2 863,153.3 860.9,151.2 858.8,153.2 
				860.9,155.3 858.8,157.4 860.9,159.4 863,157.4 			"/>
			<radialGradient id="SVGID_15_" cx="873.1443" cy="165.5293" r="4.1079" gradientUnits="userSpaceOnUse">
				<stop  offset="0" style="stop-color:#27499B"/>
				<stop  offset="1" style="stop-color:#283270"/>
			</radialGradient>
			<polygon class="st14" points="875.2,169.6 877.3,167.6 875.2,165.5 877.3,163.4 875.2,161.4 873.1,163.5 871.1,161.4 869,163.4 
				871.1,165.5 869,167.6 871.1,169.6 873.1,167.5 			"/>
		</g>
		<g>
			<radialGradient id="SVGID_16_" cx="800.564" cy="115.794" r="4.1078" gradientUnits="userSpaceOnUse">
				<stop  offset="0" style="stop-color:#27499B"/>
				<stop  offset="1" style="stop-color:#283270"/>
			</radialGradient>
			<polygon class="st15" points="802.7,119.9 804.7,117.9 802.6,115.8 804.7,113.7 802.7,111.7 800.6,113.8 798.5,111.7 
				796.5,113.7 798.5,115.8 796.5,117.9 798.5,119.9 800.6,117.8 			"/>
			<radialGradient id="SVGID_17_" cx="810.7571" cy="125.9868" r="4.1083" gradientUnits="userSpaceOnUse">
				<stop  offset="0" style="stop-color:#27499B"/>
				<stop  offset="1" style="stop-color:#283270"/>
			</radialGradient>
			<polygon class="st16" points="812.8,130.1 814.9,128.1 812.8,126 814.9,123.9 812.8,121.9 810.8,124 808.7,121.9 806.6,123.9 
				808.7,126 806.6,128.1 808.7,130.1 810.8,128 			"/>
			<radialGradient id="SVGID_18_" cx="820.95" cy="136.1796" r="4.108" gradientUnits="userSpaceOnUse">
				<stop  offset="0" style="stop-color:#27499B"/>
				<stop  offset="1" style="stop-color:#283270"/>
			</radialGradient>
			<polygon class="st17" points="823,140.3 825.1,138.3 823,136.2 825.1,134.1 823,132.1 821,134.2 818.9,132.1 816.8,134.1 
				818.9,136.2 816.8,138.3 818.9,140.3 821,138.2 			"/>
			<radialGradient id="SVGID_19_" cx="831.1432" cy="146.3731" r="4.1078" gradientUnits="userSpaceOnUse">
				<stop  offset="0" style="stop-color:#27499B"/>
				<stop  offset="1" style="stop-color:#283270"/>
			</radialGradient>
			<polygon class="st18" points="833.2,150.5 835.3,148.5 833.2,146.4 835.3,144.3 833.2,142.3 831.1,144.4 829.1,142.3 827,144.3 
				829.1,146.4 827,148.5 829.1,150.5 831.1,148.4 			"/>
			<radialGradient id="SVGID_20_" cx="841.336" cy="156.5653" r="4.1078" gradientUnits="userSpaceOnUse">
				<stop  offset="0" style="stop-color:#27499B"/>
				<stop  offset="1" style="stop-color:#283270"/>
			</radialGradient>
			<polygon class="st19" points="843.4,160.7 845.4,158.7 843.4,156.6 845.4,154.5 843.4,152.5 841.3,154.5 839.2,152.5 
				837.2,154.5 839.3,156.6 837.2,158.7 839.2,160.7 841.3,158.6 			"/>
			<radialGradient id="SVGID_21_" cx="851.5291" cy="166.7588" r="4.108" gradientUnits="userSpaceOnUse">
				<stop  offset="0" style="stop-color:#27499B"/>
				<stop  offset="1" style="stop-color:#283270"/>
			</radialGradient>
			<polygon class="st20" points="853.6,170.9 855.6,168.8 853.5,166.8 855.6,164.7 853.6,162.7 851.5,164.7 849.4,162.7 
				847.4,164.7 849.5,166.8 847.4,168.8 849.4,170.9 851.5,168.8 			"/>
			<radialGradient id="SVGID_22_" cx="861.722" cy="176.9523" r="4.108" gradientUnits="userSpaceOnUse">
				<stop  offset="0" style="stop-color:#27499B"/>
				<stop  offset="1" style="stop-color:#283270"/>
			</radialGradient>
			<polygon class="st21" points="863.8,181.1 865.8,179 863.7,177 865.8,174.9 863.8,172.8 861.7,174.9 859.6,172.8 857.6,174.9 
				859.7,177 857.6,179 859.6,181.1 861.7,179 			"/>
		</g>
		<g>
			<radialGradient id="SVGID_23_" cx="789.142" cy="127.2157" r="4.108" gradientUnits="userSpaceOnUse">
				<stop  offset="0" style="stop-color:#27499B"/>
				<stop  offset="1" style="stop-color:#283270"/>
			</radialGradient>
			<polygon class="st22" points="791.2,131.3 793.2,129.3 791.2,127.2 793.2,125.1 791.2,123.1 789.1,125.2 787.1,123.1 785,125.1 
				787.1,127.2 785,129.3 787.1,131.3 789.1,129.2 			"/>
			<radialGradient id="SVGID_24_" cx="799.3344" cy="137.4092" r="4.1082" gradientUnits="userSpaceOnUse">
				<stop  offset="0" style="stop-color:#27499B"/>
				<stop  offset="1" style="stop-color:#283270"/>
			</radialGradient>
			<polygon class="st23" points="801.4,141.5 803.4,139.5 801.4,137.4 803.4,135.3 801.4,133.3 799.3,135.4 797.2,133.3 
				795.2,135.3 797.3,137.4 795.2,139.5 797.2,141.5 799.3,139.4 			"/>
			<radialGradient id="SVGID_25_" cx="809.5276" cy="147.6027" r="4.108" gradientUnits="userSpaceOnUse">
				<stop  offset="0" style="stop-color:#27499B"/>
				<stop  offset="1" style="stop-color:#283270"/>
			</radialGradient>
			<polygon class="st24" points="811.6,151.7 813.6,149.7 811.5,147.6 813.6,145.5 811.6,143.5 809.5,145.6 807.4,143.5 
				805.4,145.5 807.5,147.6 805.4,149.7 807.4,151.7 809.5,149.6 			"/>
			<radialGradient id="SVGID_26_" cx="819.7208" cy="157.7948" r="4.1078" gradientUnits="userSpaceOnUse">
				<stop  offset="0" style="stop-color:#27499B"/>
				<stop  offset="1" style="stop-color:#283270"/>
			</radialGradient>
			<polygon class="st25" points="821.8,161.9 823.8,159.9 821.7,157.8 823.8,155.7 821.8,153.7 819.7,155.8 817.6,153.7 
				815.6,155.7 817.7,157.8 815.6,159.9 817.6,161.9 819.7,159.8 			"/>
			<radialGradient id="SVGID_27_" cx="829.9136" cy="167.9884" r="4.1078" gradientUnits="userSpaceOnUse">
				<stop  offset="0" style="stop-color:#27499B"/>
				<stop  offset="1" style="stop-color:#283270"/>
			</radialGradient>
			<polygon class="st26" points="832,172.1 834,170.1 831.9,168 834,165.9 832,163.9 829.9,166 827.8,163.9 825.8,165.9 827.9,168 
				825.8,170.1 827.8,172.1 829.9,170 			"/>
			<radialGradient id="SVGID_28_" cx="840.1064" cy="178.1818" r="4.1082" gradientUnits="userSpaceOnUse">
				<stop  offset="0" style="stop-color:#27499B"/>
				<stop  offset="1" style="stop-color:#283270"/>
			</radialGradient>
			<polygon class="st27" points="842.2,182.3 844.2,180.3 842.1,178.2 844.2,176.1 842.2,174.1 840.1,176.2 838,174.1 836,176.1 
				838.1,178.2 836,180.3 838,182.3 840.1,180.2 			"/>
			<radialGradient id="SVGID_29_" cx="850.2996" cy="188.374" r="4.108" gradientUnits="userSpaceOnUse">
				<stop  offset="0" style="stop-color:#27499B"/>
				<stop  offset="1" style="stop-color:#283270"/>
			</radialGradient>
			<polygon class="st28" points="852.4,192.5 854.4,190.5 852.3,188.4 854.4,186.3 852.4,184.3 850.3,186.4 848.2,184.3 
				846.2,186.3 848.3,188.4 846.2,190.5 848.2,192.5 850.3,190.4 			"/>
		</g>
		<g>
			<radialGradient id="SVGID_30_" cx="777.7196" cy="138.6388" r="4.108" gradientUnits="userSpaceOnUse">
				<stop  offset="0" style="stop-color:#27499B"/>
				<stop  offset="1" style="stop-color:#283270"/>
			</radialGradient>
			<polygon class="st29" points="779.8,142.7 781.8,140.7 779.7,138.6 781.8,136.5 779.8,134.5 777.7,136.6 775.6,134.5 
				773.6,136.5 775.7,138.6 773.6,140.7 775.6,142.7 777.7,140.7 			"/>
			<radialGradient id="SVGID_31_" cx="787.9121" cy="148.8322" r="4.1081" gradientUnits="userSpaceOnUse">
				<stop  offset="0" style="stop-color:#27499B"/>
				<stop  offset="1" style="stop-color:#283270"/>
			</radialGradient>
			<polygon class="st30" points="790,152.9 792,150.9 789.9,148.8 792,146.7 790,144.7 787.9,146.8 785.8,144.7 783.8,146.7 
				785.9,148.8 783.8,150.9 785.8,152.9 787.9,150.8 			"/>
			<radialGradient id="SVGID_32_" cx="798.1049" cy="159.0244" r="4.1078" gradientUnits="userSpaceOnUse">
				<stop  offset="0" style="stop-color:#27499B"/>
				<stop  offset="1" style="stop-color:#283270"/>
			</radialGradient>
			<polygon class="st31" points="800.2,163.1 802.2,161.1 800.1,159 802.2,156.9 800.2,154.9 798.1,157 796,154.9 794,156.9 
				796.1,159 794,161.1 796,163.1 798.1,161 			"/>
			<radialGradient id="SVGID_33_" cx="808.298" cy="169.2179" r="4.108" gradientUnits="userSpaceOnUse">
				<stop  offset="0" style="stop-color:#27499B"/>
				<stop  offset="1" style="stop-color:#283270"/>
			</radialGradient>
			<polygon class="st32" points="810.4,173.3 812.4,171.3 810.3,169.2 812.4,167.1 810.4,165.1 808.3,167.2 806.2,165.1 
				804.2,167.1 806.3,169.2 804.2,171.3 806.2,173.3 808.3,171.2 			"/>
			<radialGradient id="SVGID_34_" cx="818.4916" cy="179.4114" r="4.108" gradientUnits="userSpaceOnUse">
				<stop  offset="0" style="stop-color:#27499B"/>
				<stop  offset="1" style="stop-color:#283270"/>
			</radialGradient>
			<polygon class="st33" points="820.6,183.5 822.6,181.5 820.5,179.4 822.6,177.3 820.6,175.3 818.5,177.4 816.4,175.3 
				814.4,177.3 816.5,179.4 814.4,181.5 816.4,183.5 818.5,181.4 			"/>
			<radialGradient id="SVGID_35_" cx="828.684" cy="189.6035" r="4.1082" gradientUnits="userSpaceOnUse">
				<stop  offset="0" style="stop-color:#27499B"/>
				<stop  offset="1" style="stop-color:#283270"/>
			</radialGradient>
			<polygon class="st34" points="830.8,193.7 832.8,191.7 830.7,189.6 832.8,187.5 830.8,185.5 828.7,187.6 826.6,185.5 
				824.6,187.5 826.7,189.6 824.6,191.7 826.6,193.7 828.7,191.6 			"/>
			<radialGradient id="SVGID_36_" cx="838.8769" cy="199.7971" r="4.1078" gradientUnits="userSpaceOnUse">
				<stop  offset="0" style="stop-color:#27499B"/>
				<stop  offset="1" style="stop-color:#283270"/>
			</radialGradient>
			<polygon class="st35" points="841,203.9 843,201.9 840.9,199.8 843,197.7 841,195.7 838.9,197.8 836.8,195.7 834.8,197.7 
				836.9,199.8 834.8,201.9 836.8,203.9 838.9,201.8 			"/>
		</g>
		<g>
			<radialGradient id="SVGID_37_" cx="766.2965" cy="150.0618" r="4.1079" gradientUnits="userSpaceOnUse">
				<stop  offset="0" style="stop-color:#27499B"/>
				<stop  offset="1" style="stop-color:#283270"/>
			</radialGradient>
			<polygon class="st36" points="768.4,154.2 770.4,152.2 768.3,150.1 770.4,148 768.4,146 766.3,148 764.2,146 762.2,148 
				764.3,150.1 762.2,152.2 764.2,154.2 766.3,152.1 			"/>
			<radialGradient id="SVGID_38_" cx="776.4901" cy="160.2539" r="4.1079" gradientUnits="userSpaceOnUse">
				<stop  offset="0" style="stop-color:#27499B"/>
				<stop  offset="1" style="stop-color:#283270"/>
			</radialGradient>
			<polygon class="st37" points="778.6,164.4 780.6,162.3 778.5,160.3 780.6,158.2 778.6,156.1 776.5,158.2 774.4,156.1 
				772.4,158.2 774.5,160.3 772.4,162.3 774.4,164.4 776.5,162.3 			"/>
			<radialGradient id="SVGID_39_" cx="786.6825" cy="170.4475" r="4.1078" gradientUnits="userSpaceOnUse">
				<stop  offset="0" style="stop-color:#27499B"/>
				<stop  offset="1" style="stop-color:#283270"/>
			</radialGradient>
			<polygon class="st38" points="788.8,174.6 790.8,172.5 788.7,170.4 790.8,168.4 788.8,166.3 786.7,168.4 784.6,166.3 
				782.6,168.4 784.7,170.4 782.6,172.5 784.6,174.6 786.7,172.5 			"/>
			<radialGradient id="SVGID_40_" cx="796.8753" cy="180.6409" r="4.1078" gradientUnits="userSpaceOnUse">
				<stop  offset="0" style="stop-color:#27499B"/>
				<stop  offset="1" style="stop-color:#283270"/>
			</radialGradient>
			<polygon class="st39" points="799,184.7 801,182.7 798.9,180.6 801,178.5 799,176.5 796.9,178.6 794.8,176.5 792.8,178.5 
				794.9,180.6 792.8,182.7 794.8,184.7 796.9,182.7 			"/>
			<radialGradient id="SVGID_41_" cx="807.0685" cy="190.8331" r="4.108" gradientUnits="userSpaceOnUse">
				<stop  offset="0" style="stop-color:#27499B"/>
				<stop  offset="1" style="stop-color:#283270"/>
			</radialGradient>
			<polygon class="st40" points="809.2,194.9 811.2,192.9 809.1,190.8 811.2,188.7 809.2,186.7 807.1,188.8 805,186.7 803,188.7 
				805.1,190.8 803,192.9 805,194.9 807.1,192.9 			"/>
			<radialGradient id="SVGID_42_" cx="817.2617" cy="201.0266" r="4.1081" gradientUnits="userSpaceOnUse">
				<stop  offset="0" style="stop-color:#27499B"/>
				<stop  offset="1" style="stop-color:#283270"/>
			</radialGradient>
			<polygon class="st41" points="819.4,205.1 821.4,203.1 819.3,201 821.4,198.9 819.4,196.9 817.3,199 815.2,196.9 813.2,198.9 
				815.2,201 813.2,203.1 815.2,205.1 817.3,203 			"/>
			<radialGradient id="SVGID_43_" cx="827.4545" cy="211.2201" r="4.1078" gradientUnits="userSpaceOnUse">
				<stop  offset="0" style="stop-color:#27499B"/>
				<stop  offset="1" style="stop-color:#283270"/>
			</radialGradient>
			<polygon class="st42" points="829.5,215.3 831.6,213.3 829.5,211.2 831.6,209.1 829.5,207.1 827.5,209.2 825.4,207.1 
				823.3,209.1 825.4,211.2 823.3,213.3 825.4,215.3 827.5,213.2 			"/>
		</g>
	</g>
	<g>
		<radialGradient id="SVGID_44_" cx="634.8276" cy="15.6034" r="14.6795" gradientUnits="userSpaceOnUse">
			<stop  offset="0.4143" style="stop-color:#138843"/>
			<stop  offset="0.9772" style="stop-color:#056A32"/>
		</radialGradient>
		<path class="st43" d="M634.8,30.3c-8.1,0-14.7-6.6-14.7-14.7s6.6-14.7,14.7-14.7s14.7,6.6,14.7,14.7S642.9,30.3,634.8,30.3z
			 M634.8,5.1c-5.8,0-10.5,4.7-10.5,10.5s4.7,10.5,10.5,10.5s10.5-4.7,10.5-10.5S640.6,5.1,634.8,5.1z"/>
		<radialGradient id="SVGID_45_" cx="674.6507" cy="15.6034" r="14.6789" gradientUnits="userSpaceOnUse">
			<stop  offset="0" style="stop-color:#27499B"/>
			<stop  offset="1" style="stop-color:#283270"/>
		</radialGradient>
		<path class="st44" d="M674.6,30.3c-8.1,0-14.7-6.6-14.7-14.7s6.6-14.7,14.7-14.7c8.1,0,14.7,6.6,14.7,14.7S682.7,30.3,674.6,30.3z
			 M674.6,5.1c-5.8,0-10.5,4.7-10.5,10.5s4.7,10.5,10.5,10.5c5.8,0,10.5-4.7,10.5-10.5S680.5,5.1,674.6,5.1z"/>
		<radialGradient id="SVGID_46_" cx="714.4711" cy="15.6034" r="14.6789" gradientUnits="userSpaceOnUse">
			<stop  offset="0.2228" style="stop-color:#8E2D76"/>
			<stop  offset="1" style="stop-color:#61164A"/>
		</radialGradient>
		<path class="st45" d="M714.5,30.3c-8.1,0-14.7-6.6-14.7-14.7s6.6-14.7,14.7-14.7c8.1,0,14.7,6.6,14.7,14.7S722.6,30.3,714.5,30.3z
			 M714.5,5.1c-5.8,0-10.5,4.7-10.5,10.5s4.7,10.5,10.5,10.5c5.8,0,10.5-4.7,10.5-10.5S720.3,5.1,714.5,5.1z"/>
	</g>
	<g>
		<g>
			<g>
				<radialGradient id="SVGID_47_" cx="804.3369" cy="5.2432" r="5.2433" gradientUnits="userSpaceOnUse">
					<stop  offset="0.4143" style="stop-color:#138843"/>
					<stop  offset="0.9772" style="stop-color:#056A32"/>
				</radialGradient>
				<path class="st46" d="M804.3,10.5c-2.9,0-5.2-2.4-5.2-5.2c0-2.9,2.4-5.2,5.2-5.2c2.9,0,5.2,2.4,5.2,5.2
					C809.6,8.1,807.2,10.5,804.3,10.5z M804.3,1.4c-2.1,0-3.9,1.7-3.9,3.9c0,2.1,1.7,3.9,3.9,3.9c2.1,0,3.9-1.7,3.9-3.9
					C808.2,3.1,806.5,1.4,804.3,1.4z"/>
			</g>
			<g>
				<radialGradient id="SVGID_48_" cx="820.7979" cy="5.2432" r="5.2433" gradientUnits="userSpaceOnUse">
					<stop  offset="0.4143" style="stop-color:#138843"/>
					<stop  offset="0.9772" style="stop-color:#056A32"/>
				</radialGradient>
				<path class="st47" d="M820.8,10.5c-2.9,0-5.2-2.4-5.2-5.2c0-2.9,2.4-5.2,5.2-5.2c2.9,0,5.2,2.4,5.2,5.2
					C826,8.1,823.7,10.5,820.8,10.5z M820.8,1.4c-2.1,0-3.9,1.7-3.9,3.9c0,2.1,1.7,3.9,3.9,3.9c2.1,0,3.9-1.7,3.9-3.9
					C824.7,3.1,822.9,1.4,820.8,1.4z"/>
			</g>
			<g>
				<radialGradient id="SVGID_49_" cx="837.2592" cy="5.2432" r="5.2432" gradientUnits="userSpaceOnUse">
					<stop  offset="0.4143" style="stop-color:#138843"/>
					<stop  offset="0.9772" style="stop-color:#056A32"/>
				</radialGradient>
				<path class="st48" d="M837.3,10.5c-2.9,0-5.2-2.4-5.2-5.2c0-2.9,2.4-5.2,5.2-5.2c2.9,0,5.2,2.4,5.2,5.2
					C842.5,8.1,840.2,10.5,837.3,10.5z M837.3,1.4c-2.1,0-3.9,1.7-3.9,3.9c0,2.1,1.7,3.9,3.9,3.9c2.1,0,3.9-1.7,3.9-3.9
					C841.1,3.1,839.4,1.4,837.3,1.4z"/>
			</g>
			<g>
				<radialGradient id="SVGID_50_" cx="853.7202" cy="5.2432" r="5.2435" gradientUnits="userSpaceOnUse">
					<stop  offset="0.4143" style="stop-color:#138843"/>
					<stop  offset="0.9772" style="stop-color:#056A32"/>
				</radialGradient>
				<path class="st49" d="M853.7,10.5c-2.9,0-5.2-2.4-5.2-5.2c0-2.9,2.4-5.2,5.2-5.2c2.9,0,5.2,2.4,5.2,5.2
					C859,8.1,856.6,10.5,853.7,10.5z M853.7,1.4c-2.1,0-3.9,1.7-3.9,3.9c0,2.1,1.7,3.9,3.9,3.9c2.1,0,3.9-1.7,3.9-3.9
					C857.6,3.1,855.8,1.4,853.7,1.4z"/>
			</g>
			<g>
				<radialGradient id="SVGID_51_" cx="870.1807" cy="5.2432" r="5.2433" gradientUnits="userSpaceOnUse">
					<stop  offset="0.4143" style="stop-color:#138843"/>
					<stop  offset="0.9772" style="stop-color:#056A32"/>
				</radialGradient>
				<path class="st50" d="M870.2,10.5c-2.9,0-5.2-2.4-5.2-5.2c0-2.9,2.4-5.2,5.2-5.2c2.9,0,5.2,2.4,5.2,5.2
					C875.4,8.1,873.1,10.5,870.2,10.5z M870.2,1.4c-2.1,0-3.9,1.7-3.9,3.9c0,2.1,1.7,3.9,3.9,3.9c2.1,0,3.9-1.7,3.9-3.9
					C874,3.1,872.3,1.4,870.2,1.4z"/>
			</g>
			<g>
				<radialGradient id="SVGID_52_" cx="886.6421" cy="5.2432" r="5.2432" gradientUnits="userSpaceOnUse">
					<stop  offset="0.4143" style="stop-color:#138843"/>
					<stop  offset="0.9772" style="stop-color:#056A32"/>
				</radialGradient>
				<path class="st51" d="M886.6,10.5c-2.9,0-5.2-2.4-5.2-5.2c0-2.9,2.4-5.2,5.2-5.2c2.9,0,5.2,2.4,5.2,5.2
					C891.9,8.1,889.5,10.5,886.6,10.5z M886.6,1.4c-2.1,0-3.9,1.7-3.9,3.9c0,2.1,1.7,3.9,3.9,3.9c2.1,0,3.9-1.7,3.9-3.9
					C890.5,3.1,888.8,1.4,886.6,1.4z"/>
			</g>
			<g>
				<radialGradient id="SVGID_53_" cx="903.1034" cy="5.2432" r="5.2433" gradientUnits="userSpaceOnUse">
					<stop  offset="0.4143" style="stop-color:#138843"/>
					<stop  offset="0.9772" style="stop-color:#056A32"/>
				</radialGradient>
				<path class="st52" d="M903.1,10.5c-2.9,0-5.2-2.4-5.2-5.2c0-2.9,2.4-5.2,5.2-5.2c2.9,0,5.2,2.4,5.2,5.2
					C908.3,8.1,906,10.5,903.1,10.5z M903.1,1.4c-2.1,0-3.9,1.7-3.9,3.9c0,2.1,1.7,3.9,3.9,3.9c2.1,0,3.9-1.7,3.9-3.9
					C907,3.1,905.2,1.4,903.1,1.4z"/>
			</g>
			<g>
				<radialGradient id="SVGID_54_" cx="919.5644" cy="5.2432" r="5.2433" gradientUnits="userSpaceOnUse">
					<stop  offset="0.4143" style="stop-color:#138843"/>
					<stop  offset="0.9772" style="stop-color:#056A32"/>
				</radialGradient>
				<path class="st53" d="M919.6,10.5c-2.9,0-5.2-2.4-5.2-5.2c0-2.9,2.4-5.2,5.2-5.2c2.9,0,5.2,2.4,5.2,5.2
					C924.8,8.1,922.5,10.5,919.6,10.5z M919.6,1.4c-2.1,0-3.9,1.7-3.9,3.9c0,2.1,1.7,3.9,3.9,3.9c2.1,0,3.9-1.7,3.9-3.9
					C923.4,3.1,921.7,1.4,919.6,1.4z"/>
			</g>
		</g>
		<g>
			<g>
				<radialGradient id="SVGID_55_" cx="804.3369" cy="21.2916" r="5.2433" gradientUnits="userSpaceOnUse">
					<stop  offset="0.4143" style="stop-color:#138843"/>
					<stop  offset="0.9772" style="stop-color:#056A32"/>
				</radialGradient>
				<path class="st54" d="M804.3,26.5c-2.9,0-5.2-2.4-5.2-5.2c0-2.9,2.4-5.2,5.2-5.2c2.9,0,5.2,2.4,5.2,5.2
					C809.6,24.2,807.2,26.5,804.3,26.5z M804.3,17.4c-2.1,0-3.9,1.7-3.9,3.9c0,2.1,1.7,3.9,3.9,3.9c2.1,0,3.9-1.7,3.9-3.9
					C808.2,19.2,806.5,17.4,804.3,17.4z"/>
			</g>
			<g>
				<radialGradient id="SVGID_56_" cx="820.7979" cy="21.2916" r="5.2433" gradientUnits="userSpaceOnUse">
					<stop  offset="0.4143" style="stop-color:#138843"/>
					<stop  offset="0.9772" style="stop-color:#056A32"/>
				</radialGradient>
				<path class="st55" d="M820.8,26.5c-2.9,0-5.2-2.4-5.2-5.2c0-2.9,2.4-5.2,5.2-5.2c2.9,0,5.2,2.4,5.2,5.2
					C826,24.2,823.7,26.5,820.8,26.5z M820.8,17.4c-2.1,0-3.9,1.7-3.9,3.9c0,2.1,1.7,3.9,3.9,3.9c2.1,0,3.9-1.7,3.9-3.9
					C824.7,19.2,822.9,17.4,820.8,17.4z"/>
			</g>
			<g>
				<radialGradient id="SVGID_57_" cx="837.2592" cy="21.2916" r="5.2432" gradientUnits="userSpaceOnUse">
					<stop  offset="0.4143" style="stop-color:#138843"/>
					<stop  offset="0.9772" style="stop-color:#056A32"/>
				</radialGradient>
				<path class="st56" d="M837.3,26.5c-2.9,0-5.2-2.4-5.2-5.2c0-2.9,2.4-5.2,5.2-5.2c2.9,0,5.2,2.4,5.2,5.2
					C842.5,24.2,840.2,26.5,837.3,26.5z M837.3,17.4c-2.1,0-3.9,1.7-3.9,3.9c0,2.1,1.7,3.9,3.9,3.9c2.1,0,3.9-1.7,3.9-3.9
					C841.1,19.2,839.4,17.4,837.3,17.4z"/>
			</g>
			<g>
				<radialGradient id="SVGID_58_" cx="853.7202" cy="21.2916" r="5.2435" gradientUnits="userSpaceOnUse">
					<stop  offset="0.4143" style="stop-color:#138843"/>
					<stop  offset="0.9772" style="stop-color:#056A32"/>
				</radialGradient>
				<path class="st57" d="M853.7,26.5c-2.9,0-5.2-2.4-5.2-5.2c0-2.9,2.4-5.2,5.2-5.2c2.9,0,5.2,2.4,5.2,5.2
					C859,24.2,856.6,26.5,853.7,26.5z M853.7,17.4c-2.1,0-3.9,1.7-3.9,3.9c0,2.1,1.7,3.9,3.9,3.9c2.1,0,3.9-1.7,3.9-3.9
					C857.6,19.2,855.8,17.4,853.7,17.4z"/>
			</g>
			<g>
				<radialGradient id="SVGID_59_" cx="870.1807" cy="21.2916" r="5.2433" gradientUnits="userSpaceOnUse">
					<stop  offset="0.4143" style="stop-color:#138843"/>
					<stop  offset="0.9772" style="stop-color:#056A32"/>
				</radialGradient>
				<path class="st58" d="M870.2,26.5c-2.9,0-5.2-2.4-5.2-5.2c0-2.9,2.4-5.2,5.2-5.2c2.9,0,5.2,2.4,5.2,5.2
					C875.4,24.2,873.1,26.5,870.2,26.5z M870.2,17.4c-2.1,0-3.9,1.7-3.9,3.9c0,2.1,1.7,3.9,3.9,3.9c2.1,0,3.9-1.7,3.9-3.9
					C874,19.2,872.3,17.4,870.2,17.4z"/>
			</g>
			<g>
				<radialGradient id="SVGID_60_" cx="886.6421" cy="21.2916" r="5.2432" gradientUnits="userSpaceOnUse">
					<stop  offset="0.4143" style="stop-color:#138843"/>
					<stop  offset="0.9772" style="stop-color:#056A32"/>
				</radialGradient>
				<path class="st59" d="M886.6,26.5c-2.9,0-5.2-2.4-5.2-5.2c0-2.9,2.4-5.2,5.2-5.2c2.9,0,5.2,2.4,5.2,5.2
					C891.9,24.2,889.5,26.5,886.6,26.5z M886.6,17.4c-2.1,0-3.9,1.7-3.9,3.9c0,2.1,1.7,3.9,3.9,3.9c2.1,0,3.9-1.7,3.9-3.9
					C890.5,19.2,888.8,17.4,886.6,17.4z"/>
			</g>
			<g>
				<radialGradient id="SVGID_61_" cx="903.1034" cy="21.2916" r="5.2433" gradientUnits="userSpaceOnUse">
					<stop  offset="0.4143" style="stop-color:#138843"/>
					<stop  offset="0.9772" style="stop-color:#056A32"/>
				</radialGradient>
				<path class="st60" d="M903.1,26.5c-2.9,0-5.2-2.4-5.2-5.2c0-2.9,2.4-5.2,5.2-5.2c2.9,0,5.2,2.4,5.2,5.2
					C908.3,24.2,906,26.5,903.1,26.5z M903.1,17.4c-2.1,0-3.9,1.7-3.9,3.9c0,2.1,1.7,3.9,3.9,3.9c2.1,0,3.9-1.7,3.9-3.9
					C907,19.2,905.2,17.4,903.1,17.4z"/>
			</g>
			<g>
				<radialGradient id="SVGID_62_" cx="919.5644" cy="21.2916" r="5.2433" gradientUnits="userSpaceOnUse">
					<stop  offset="0.4143" style="stop-color:#138843"/>
					<stop  offset="0.9772" style="stop-color:#056A32"/>
				</radialGradient>
				<path class="st61" d="M919.6,26.5c-2.9,0-5.2-2.4-5.2-5.2c0-2.9,2.4-5.2,5.2-5.2c2.9,0,5.2,2.4,5.2,5.2
					C924.8,24.2,922.5,26.5,919.6,26.5z M919.6,17.4c-2.1,0-3.9,1.7-3.9,3.9c0,2.1,1.7,3.9,3.9,3.9c2.1,0,3.9-1.7,3.9-3.9
					C923.4,19.2,921.7,17.4,919.6,17.4z"/>
			</g>
		</g>
		<g>
			<g>
				<radialGradient id="SVGID_63_" cx="804.3369" cy="37.3403" r="5.2435" gradientUnits="userSpaceOnUse">
					<stop  offset="0.4143" style="stop-color:#138843"/>
					<stop  offset="0.9772" style="stop-color:#056A32"/>
				</radialGradient>
				<path class="st62" d="M804.3,42.6c-2.9,0-5.2-2.4-5.2-5.2c0-2.9,2.4-5.2,5.2-5.2c2.9,0,5.2,2.4,5.2,5.2
					C809.6,40.2,807.2,42.6,804.3,42.6z M804.3,33.5c-2.1,0-3.9,1.7-3.9,3.9s1.7,3.9,3.9,3.9c2.1,0,3.9-1.7,3.9-3.9
					S806.5,33.5,804.3,33.5z"/>
			</g>
			<g>
				<radialGradient id="SVGID_64_" cx="820.7979" cy="37.3403" r="5.2435" gradientUnits="userSpaceOnUse">
					<stop  offset="0.4143" style="stop-color:#138843"/>
					<stop  offset="0.9772" style="stop-color:#056A32"/>
				</radialGradient>
				<path class="st63" d="M820.8,42.6c-2.9,0-5.2-2.4-5.2-5.2c0-2.9,2.4-5.2,5.2-5.2c2.9,0,5.2,2.4,5.2,5.2
					C826,40.2,823.7,42.6,820.8,42.6z M820.8,33.5c-2.1,0-3.9,1.7-3.9,3.9s1.7,3.9,3.9,3.9c2.1,0,3.9-1.7,3.9-3.9
					S822.9,33.5,820.8,33.5z"/>
			</g>
			<g>
				<radialGradient id="SVGID_65_" cx="837.2592" cy="37.3403" r="5.2433" gradientUnits="userSpaceOnUse">
					<stop  offset="0.4143" style="stop-color:#138843"/>
					<stop  offset="0.9772" style="stop-color:#056A32"/>
				</radialGradient>
				<path class="st64" d="M837.3,42.6c-2.9,0-5.2-2.4-5.2-5.2c0-2.9,2.4-5.2,5.2-5.2c2.9,0,5.2,2.4,5.2,5.2
					C842.5,40.2,840.2,42.6,837.3,42.6z M837.3,33.5c-2.1,0-3.9,1.7-3.9,3.9s1.7,3.9,3.9,3.9c2.1,0,3.9-1.7,3.9-3.9
					S839.4,33.5,837.3,33.5z"/>
			</g>
			<g>
				<radialGradient id="SVGID_66_" cx="853.7202" cy="37.3403" r="5.2437" gradientUnits="userSpaceOnUse">
					<stop  offset="0.4143" style="stop-color:#138843"/>
					<stop  offset="0.9772" style="stop-color:#056A32"/>
				</radialGradient>
				<path class="st65" d="M853.7,42.6c-2.9,0-5.2-2.4-5.2-5.2c0-2.9,2.4-5.2,5.2-5.2c2.9,0,5.2,2.4,5.2,5.2
					C859,40.2,856.6,42.6,853.7,42.6z M853.7,33.5c-2.1,0-3.9,1.7-3.9,3.9s1.7,3.9,3.9,3.9c2.1,0,3.9-1.7,3.9-3.9
					S855.8,33.5,853.7,33.5z"/>
			</g>
			<g>
				<radialGradient id="SVGID_67_" cx="870.1807" cy="37.3403" r="5.2435" gradientUnits="userSpaceOnUse">
					<stop  offset="0.4143" style="stop-color:#138843"/>
					<stop  offset="0.9772" style="stop-color:#056A32"/>
				</radialGradient>
				<path class="st66" d="M870.2,42.6c-2.9,0-5.2-2.4-5.2-5.2c0-2.9,2.4-5.2,5.2-5.2c2.9,0,5.2,2.4,5.2,5.2
					C875.4,40.2,873.1,42.6,870.2,42.6z M870.2,33.5c-2.1,0-3.9,1.7-3.9,3.9s1.7,3.9,3.9,3.9c2.1,0,3.9-1.7,3.9-3.9
					S872.3,33.5,870.2,33.5z"/>
			</g>
			<g>
				<radialGradient id="SVGID_68_" cx="886.6421" cy="37.3403" r="5.2433" gradientUnits="userSpaceOnUse">
					<stop  offset="0.4143" style="stop-color:#138843"/>
					<stop  offset="0.9772" style="stop-color:#056A32"/>
				</radialGradient>
				<path class="st67" d="M886.6,42.6c-2.9,0-5.2-2.4-5.2-5.2c0-2.9,2.4-5.2,5.2-5.2c2.9,0,5.2,2.4,5.2,5.2
					C891.9,40.2,889.5,42.6,886.6,42.6z M886.6,33.5c-2.1,0-3.9,1.7-3.9,3.9s1.7,3.9,3.9,3.9c2.1,0,3.9-1.7,3.9-3.9
					S888.8,33.5,886.6,33.5z"/>
			</g>
			<g>
				<radialGradient id="SVGID_69_" cx="903.1034" cy="37.3403" r="5.2435" gradientUnits="userSpaceOnUse">
					<stop  offset="0.4143" style="stop-color:#138843"/>
					<stop  offset="0.9772" style="stop-color:#056A32"/>
				</radialGradient>
				<path class="st68" d="M903.1,42.6c-2.9,0-5.2-2.4-5.2-5.2c0-2.9,2.4-5.2,5.2-5.2c2.9,0,5.2,2.4,5.2,5.2
					C908.3,40.2,906,42.6,903.1,42.6z M903.1,33.5c-2.1,0-3.9,1.7-3.9,3.9s1.7,3.9,3.9,3.9c2.1,0,3.9-1.7,3.9-3.9
					S905.2,33.5,903.1,33.5z"/>
			</g>
			<g>
				<radialGradient id="SVGID_70_" cx="919.5644" cy="37.3403" r="5.2435" gradientUnits="userSpaceOnUse">
					<stop  offset="0.4143" style="stop-color:#138843"/>
					<stop  offset="0.9772" style="stop-color:#056A32"/>
				</radialGradient>
				<path class="st69" d="M919.6,42.6c-2.9,0-5.2-2.4-5.2-5.2c0-2.9,2.4-5.2,5.2-5.2c2.9,0,5.2,2.4,5.2,5.2
					C924.8,40.2,922.5,42.6,919.6,42.6z M919.6,33.5c-2.1,0-3.9,1.7-3.9,3.9s1.7,3.9,3.9,3.9c2.1,0,3.9-1.7,3.9-3.9
					S921.7,33.5,919.6,33.5z"/>
			</g>
		</g>
		<g>
			<g>
				<radialGradient id="SVGID_71_" cx="804.3369" cy="53.3891" r="5.2433" gradientUnits="userSpaceOnUse">
					<stop  offset="0.4143" style="stop-color:#138843"/>
					<stop  offset="0.9772" style="stop-color:#056A32"/>
				</radialGradient>
				<path class="st70" d="M804.3,58.6c-2.9,0-5.2-2.4-5.2-5.2c0-2.9,2.4-5.2,5.2-5.2c2.9,0,5.2,2.4,5.2,5.2
					C809.6,56.3,807.2,58.6,804.3,58.6z M804.3,49.5c-2.1,0-3.9,1.7-3.9,3.9c0,2.1,1.7,3.9,3.9,3.9c2.1,0,3.9-1.7,3.9-3.9
					C808.2,51.3,806.5,49.5,804.3,49.5z"/>
			</g>
			<g>
				<radialGradient id="SVGID_72_" cx="820.7979" cy="53.3891" r="5.2433" gradientUnits="userSpaceOnUse">
					<stop  offset="0.4143" style="stop-color:#138843"/>
					<stop  offset="0.9772" style="stop-color:#056A32"/>
				</radialGradient>
				<path class="st71" d="M820.8,58.6c-2.9,0-5.2-2.4-5.2-5.2c0-2.9,2.4-5.2,5.2-5.2c2.9,0,5.2,2.4,5.2,5.2
					C826,56.3,823.7,58.6,820.8,58.6z M820.8,49.5c-2.1,0-3.9,1.7-3.9,3.9c0,2.1,1.7,3.9,3.9,3.9c2.1,0,3.9-1.7,3.9-3.9
					C824.7,51.3,822.9,49.5,820.8,49.5z"/>
			</g>
			<g>
				<radialGradient id="SVGID_73_" cx="837.2592" cy="53.3891" r="5.2432" gradientUnits="userSpaceOnUse">
					<stop  offset="0.4143" style="stop-color:#138843"/>
					<stop  offset="0.9772" style="stop-color:#056A32"/>
				</radialGradient>
				<path class="st72" d="M837.3,58.6c-2.9,0-5.2-2.4-5.2-5.2c0-2.9,2.4-5.2,5.2-5.2c2.9,0,5.2,2.4,5.2,5.2
					C842.5,56.3,840.2,58.6,837.3,58.6z M837.3,49.5c-2.1,0-3.9,1.7-3.9,3.9c0,2.1,1.7,3.9,3.9,3.9c2.1,0,3.9-1.7,3.9-3.9
					C841.1,51.3,839.4,49.5,837.3,49.5z"/>
			</g>
			<g>
				<radialGradient id="SVGID_74_" cx="853.7202" cy="53.3891" r="5.2435" gradientUnits="userSpaceOnUse">
					<stop  offset="0.4143" style="stop-color:#138843"/>
					<stop  offset="0.9772" style="stop-color:#056A32"/>
				</radialGradient>
				<path class="st73" d="M853.7,58.6c-2.9,0-5.2-2.4-5.2-5.2c0-2.9,2.4-5.2,5.2-5.2c2.9,0,5.2,2.4,5.2,5.2
					C859,56.3,856.6,58.6,853.7,58.6z M853.7,49.5c-2.1,0-3.9,1.7-3.9,3.9c0,2.1,1.7,3.9,3.9,3.9c2.1,0,3.9-1.7,3.9-3.9
					C857.6,51.3,855.8,49.5,853.7,49.5z"/>
			</g>
			<g>
				<radialGradient id="SVGID_75_" cx="870.1807" cy="53.3891" r="5.2433" gradientUnits="userSpaceOnUse">
					<stop  offset="0.4143" style="stop-color:#138843"/>
					<stop  offset="0.9772" style="stop-color:#056A32"/>
				</radialGradient>
				<path class="st74" d="M870.2,58.6c-2.9,0-5.2-2.4-5.2-5.2c0-2.9,2.4-5.2,5.2-5.2c2.9,0,5.2,2.4,5.2,5.2
					C875.4,56.3,873.1,58.6,870.2,58.6z M870.2,49.5c-2.1,0-3.9,1.7-3.9,3.9c0,2.1,1.7,3.9,3.9,3.9c2.1,0,3.9-1.7,3.9-3.9
					C874,51.3,872.3,49.5,870.2,49.5z"/>
			</g>
			<g>
				<radialGradient id="SVGID_76_" cx="886.6421" cy="53.3891" r="5.2432" gradientUnits="userSpaceOnUse">
					<stop  offset="0.4143" style="stop-color:#138843"/>
					<stop  offset="0.9772" style="stop-color:#056A32"/>
				</radialGradient>
				<path class="st75" d="M886.6,58.6c-2.9,0-5.2-2.4-5.2-5.2c0-2.9,2.4-5.2,5.2-5.2c2.9,0,5.2,2.4,5.2,5.2
					C891.9,56.3,889.5,58.6,886.6,58.6z M886.6,49.5c-2.1,0-3.9,1.7-3.9,3.9c0,2.1,1.7,3.9,3.9,3.9c2.1,0,3.9-1.7,3.9-3.9
					C890.5,51.3,888.8,49.5,886.6,49.5z"/>
			</g>
			<g>
				<radialGradient id="SVGID_77_" cx="903.1034" cy="53.3891" r="5.2433" gradientUnits="userSpaceOnUse">
					<stop  offset="0.4143" style="stop-color:#138843"/>
					<stop  offset="0.9772" style="stop-color:#056A32"/>
				</radialGradient>
				<path class="st76" d="M903.1,58.6c-2.9,0-5.2-2.4-5.2-5.2c0-2.9,2.4-5.2,5.2-5.2c2.9,0,5.2,2.4,5.2,5.2
					C908.3,56.3,906,58.6,903.1,58.6z M903.1,49.5c-2.1,0-3.9,1.7-3.9,3.9c0,2.1,1.7,3.9,3.9,3.9c2.1,0,3.9-1.7,3.9-3.9
					C907,51.3,905.2,49.5,903.1,49.5z"/>
			</g>
			<g>
				<radialGradient id="SVGID_78_" cx="919.5644" cy="53.3891" r="5.2433" gradientUnits="userSpaceOnUse">
					<stop  offset="0.4143" style="stop-color:#138843"/>
					<stop  offset="0.9772" style="stop-color:#056A32"/>
				</radialGradient>
				<path class="st77" d="M919.6,58.6c-2.9,0-5.2-2.4-5.2-5.2c0-2.9,2.4-5.2,5.2-5.2c2.9,0,5.2,2.4,5.2,5.2
					C924.8,56.3,922.5,58.6,919.6,58.6z M919.6,49.5c-2.1,0-3.9,1.7-3.9,3.9c0,2.1,1.7,3.9,3.9,3.9c2.1,0,3.9-1.7,3.9-3.9
					C923.4,51.3,921.7,49.5,919.6,49.5z"/>
			</g>
		</g>
		<g>
			<g>
				<radialGradient id="SVGID_79_" cx="804.3369" cy="69.4375" r="5.2433" gradientUnits="userSpaceOnUse">
					<stop  offset="0.4143" style="stop-color:#138843"/>
					<stop  offset="0.9772" style="stop-color:#056A32"/>
				</radialGradient>
				<path class="st78" d="M804.3,74.7c-2.9,0-5.2-2.4-5.2-5.2c0-2.9,2.4-5.2,5.2-5.2c2.9,0,5.2,2.4,5.2,5.2
					C809.6,72.3,807.2,74.7,804.3,74.7z M804.3,65.6c-2.1,0-3.9,1.7-3.9,3.9c0,2.1,1.7,3.9,3.9,3.9c2.1,0,3.9-1.7,3.9-3.9
					C808.2,67.3,806.5,65.6,804.3,65.6z"/>
			</g>
			<g>
				<radialGradient id="SVGID_80_" cx="820.7979" cy="69.4375" r="5.2433" gradientUnits="userSpaceOnUse">
					<stop  offset="0.4143" style="stop-color:#138843"/>
					<stop  offset="0.9772" style="stop-color:#056A32"/>
				</radialGradient>
				<path class="st79" d="M820.8,74.7c-2.9,0-5.2-2.4-5.2-5.2c0-2.9,2.4-5.2,5.2-5.2c2.9,0,5.2,2.4,5.2,5.2
					C826,72.3,823.7,74.7,820.8,74.7z M820.8,65.6c-2.1,0-3.9,1.7-3.9,3.9c0,2.1,1.7,3.9,3.9,3.9c2.1,0,3.9-1.7,3.9-3.9
					C824.7,67.3,822.9,65.6,820.8,65.6z"/>
			</g>
			<g>
				<radialGradient id="SVGID_81_" cx="837.2592" cy="69.4375" r="5.2432" gradientUnits="userSpaceOnUse">
					<stop  offset="0.4143" style="stop-color:#138843"/>
					<stop  offset="0.9772" style="stop-color:#056A32"/>
				</radialGradient>
				<path class="st80" d="M837.3,74.7c-2.9,0-5.2-2.4-5.2-5.2c0-2.9,2.4-5.2,5.2-5.2c2.9,0,5.2,2.4,5.2,5.2
					C842.5,72.3,840.2,74.7,837.3,74.7z M837.3,65.6c-2.1,0-3.9,1.7-3.9,3.9c0,2.1,1.7,3.9,3.9,3.9c2.1,0,3.9-1.7,3.9-3.9
					C841.1,67.3,839.4,65.6,837.3,65.6z"/>
			</g>
			<g>
				<radialGradient id="SVGID_82_" cx="853.7202" cy="69.4375" r="5.2435" gradientUnits="userSpaceOnUse">
					<stop  offset="0.4143" style="stop-color:#138843"/>
					<stop  offset="0.9772" style="stop-color:#056A32"/>
				</radialGradient>
				<path class="st81" d="M853.7,74.7c-2.9,0-5.2-2.4-5.2-5.2c0-2.9,2.4-5.2,5.2-5.2c2.9,0,5.2,2.4,5.2,5.2
					C859,72.3,856.6,74.7,853.7,74.7z M853.7,65.6c-2.1,0-3.9,1.7-3.9,3.9c0,2.1,1.7,3.9,3.9,3.9c2.1,0,3.9-1.7,3.9-3.9
					C857.6,67.3,855.8,65.6,853.7,65.6z"/>
			</g>
			<g>
				<radialGradient id="SVGID_83_" cx="870.1807" cy="69.4375" r="5.2433" gradientUnits="userSpaceOnUse">
					<stop  offset="0.4143" style="stop-color:#138843"/>
					<stop  offset="0.9772" style="stop-color:#056A32"/>
				</radialGradient>
				<path class="st82" d="M870.2,74.7c-2.9,0-5.2-2.4-5.2-5.2c0-2.9,2.4-5.2,5.2-5.2c2.9,0,5.2,2.4,5.2,5.2
					C875.4,72.3,873.1,74.7,870.2,74.7z M870.2,65.6c-2.1,0-3.9,1.7-3.9,3.9c0,2.1,1.7,3.9,3.9,3.9c2.1,0,3.9-1.7,3.9-3.9
					C874,67.3,872.3,65.6,870.2,65.6z"/>
			</g>
			<g>
				<radialGradient id="SVGID_84_" cx="886.6421" cy="69.4375" r="5.2432" gradientUnits="userSpaceOnUse">
					<stop  offset="0.4143" style="stop-color:#138843"/>
					<stop  offset="0.9772" style="stop-color:#056A32"/>
				</radialGradient>
				<path class="st83" d="M886.6,74.7c-2.9,0-5.2-2.4-5.2-5.2c0-2.9,2.4-5.2,5.2-5.2c2.9,0,5.2,2.4,5.2,5.2
					C891.9,72.3,889.5,74.7,886.6,74.7z M886.6,65.6c-2.1,0-3.9,1.7-3.9,3.9c0,2.1,1.7,3.9,3.9,3.9c2.1,0,3.9-1.7,3.9-3.9
					C890.5,67.3,888.8,65.6,886.6,65.6z"/>
			</g>
			<g>
				<radialGradient id="SVGID_85_" cx="903.1034" cy="69.4375" r="5.2433" gradientUnits="userSpaceOnUse">
					<stop  offset="0.4143" style="stop-color:#138843"/>
					<stop  offset="0.9772" style="stop-color:#056A32"/>
				</radialGradient>
				<path class="st84" d="M903.1,74.7c-2.9,0-5.2-2.4-5.2-5.2c0-2.9,2.4-5.2,5.2-5.2c2.9,0,5.2,2.4,5.2,5.2
					C908.3,72.3,906,74.7,903.1,74.7z M903.1,65.6c-2.1,0-3.9,1.7-3.9,3.9c0,2.1,1.7,3.9,3.9,3.9c2.1,0,3.9-1.7,3.9-3.9
					C907,67.3,905.2,65.6,903.1,65.6z"/>
			</g>
			<g>
				<radialGradient id="SVGID_86_" cx="919.5644" cy="69.4375" r="5.2433" gradientUnits="userSpaceOnUse">
					<stop  offset="0.4143" style="stop-color:#138843"/>
					<stop  offset="0.9772" style="stop-color:#056A32"/>
				</radialGradient>
				<path class="st85" d="M919.6,74.7c-2.9,0-5.2-2.4-5.2-5.2c0-2.9,2.4-5.2,5.2-5.2c2.9,0,5.2,2.4,5.2,5.2
					C924.8,72.3,922.5,74.7,919.6,74.7z M919.6,65.6c-2.1,0-3.9,1.7-3.9,3.9c0,2.1,1.7,3.9,3.9,3.9c2.1,0,3.9-1.7,3.9-3.9
					C923.4,67.3,921.7,65.6,919.6,65.6z"/>
			</g>
		</g>
	</g>
	<g>
		<radialGradient id="SVGID_87_" cx="910.316" cy="107.4053" r="4.9229" gradientUnits="userSpaceOnUse">
			<stop  offset="0.2228" style="stop-color:#8E2D76"/>
			<stop  offset="1" style="stop-color:#61164A"/>
		</radialGradient>
		<polygon class="st86" points="910.3,102.5 905.4,107.4 910.3,112.3 915.2,107.4 		"/>
		<radialGradient id="SVGID_88_" cx="910.316" cy="121.7899" r="4.9229" gradientUnits="userSpaceOnUse">
			<stop  offset="0.2228" style="stop-color:#8E2D76"/>
			<stop  offset="1" style="stop-color:#61164A"/>
		</radialGradient>
		<polygon class="st87" points="910.3,116.9 905.4,121.8 910.3,126.7 915.2,121.8 		"/>
		<radialGradient id="SVGID_89_" cx="910.316" cy="136.1746" r="4.9229" gradientUnits="userSpaceOnUse">
			<stop  offset="0.2228" style="stop-color:#8E2D76"/>
			<stop  offset="1" style="stop-color:#61164A"/>
		</radialGradient>
		<polygon class="st88" points="910.3,131.3 905.4,136.2 910.3,141.1 915.2,136.2 		"/>
		<radialGradient id="SVGID_90_" cx="910.316" cy="150.5593" r="4.9229" gradientUnits="userSpaceOnUse">
			<stop  offset="0.2228" style="stop-color:#8E2D76"/>
			<stop  offset="1" style="stop-color:#61164A"/>
		</radialGradient>
		<polygon class="st89" points="910.3,145.6 905.4,150.6 910.3,155.5 915.2,150.6 		"/>
		<radialGradient id="SVGID_91_" cx="910.316" cy="164.9439" r="4.9229" gradientUnits="userSpaceOnUse">
			<stop  offset="0.2228" style="stop-color:#8E2D76"/>
			<stop  offset="1" style="stop-color:#61164A"/>
		</radialGradient>
		<polygon class="st90" points="910.3,160 905.4,164.9 910.3,169.9 915.2,164.9 		"/>
		<radialGradient id="SVGID_92_" cx="910.316" cy="179.3286" r="4.9229" gradientUnits="userSpaceOnUse">
			<stop  offset="0.2228" style="stop-color:#8E2D76"/>
			<stop  offset="1" style="stop-color:#61164A"/>
		</radialGradient>
		<polygon class="st91" points="910.3,174.4 905.4,179.3 910.3,184.3 915.2,179.3 		"/>
		<radialGradient id="SVGID_93_" cx="910.316" cy="193.7132" r="4.9229" gradientUnits="userSpaceOnUse">
			<stop  offset="0.2228" style="stop-color:#8E2D76"/>
			<stop  offset="1" style="stop-color:#61164A"/>
		</radialGradient>
		<polygon class="st92" points="910.3,188.8 905.4,193.7 910.3,198.6 915.2,193.7 		"/>
		<radialGradient id="SVGID_94_" cx="910.316" cy="208.0979" r="4.9229" gradientUnits="userSpaceOnUse">
			<stop  offset="0.2228" style="stop-color:#8E2D76"/>
			<stop  offset="1" style="stop-color:#61164A"/>
		</radialGradient>
		<polygon class="st93" points="910.3,203.2 905.4,208.1 910.3,213 915.2,208.1 		"/>
		<radialGradient id="SVGID_95_" cx="910.316" cy="222.4825" r="4.9226" gradientUnits="userSpaceOnUse">
			<stop  offset="0.2228" style="stop-color:#8E2D76"/>
			<stop  offset="1" style="stop-color:#61164A"/>
		</radialGradient>
		<polygon class="st94" points="910.3,217.6 905.4,222.5 910.3,227.4 915.2,222.5 		"/>
		<radialGradient id="SVGID_96_" cx="910.316" cy="236.8666" r="4.9226" gradientUnits="userSpaceOnUse">
			<stop  offset="0.2228" style="stop-color:#8E2D76"/>
			<stop  offset="1" style="stop-color:#61164A"/>
		</radialGradient>
		<polygon class="st95" points="910.3,231.9 905.4,236.9 910.3,241.8 915.2,236.9 		"/>
		<radialGradient id="SVGID_97_" cx="910.316" cy="251.2505" r="4.9226" gradientUnits="userSpaceOnUse">
			<stop  offset="0.2228" style="stop-color:#8E2D76"/>
			<stop  offset="1" style="stop-color:#61164A"/>
		</radialGradient>
		<polygon class="st96" points="910.3,246.3 905.4,251.3 910.3,256.2 915.2,251.3 		"/>
		<radialGradient id="SVGID_98_" cx="910.316" cy="265.6345" r="4.9226" gradientUnits="userSpaceOnUse">
			<stop  offset="0.2228" style="stop-color:#8E2D76"/>
			<stop  offset="1" style="stop-color:#61164A"/>
		</radialGradient>
		<polygon class="st97" points="910.3,260.7 905.4,265.6 910.3,270.6 915.2,265.6 		"/>
		<radialGradient id="SVGID_99_" cx="910.316" cy="280.0186" r="4.9226" gradientUnits="userSpaceOnUse">
			<stop  offset="0.2228" style="stop-color:#8E2D76"/>
			<stop  offset="1" style="stop-color:#61164A"/>
		</radialGradient>
		<polygon class="st98" points="910.3,275.1 905.4,280 910.3,284.9 915.2,280 		"/>
	</g>
	<g>
		<g>
			<path class="st99" d="M661.1,605.3v62.2c0,6,4.8,10.8,10.8,10.8h126.3c5.9,0,10.8-4.8,10.8-10.8v-62.2c0-5.9-4.8-10.8-10.8-10.8
				H671.9C665.9,594.6,661.1,599.4,661.1,605.3z M667.6,651.8v-30.7c0-0.8,1.2-1.4,2.6-1.4c1.4,0,2.6,0.6,2.6,1.4v30.7
				c0,0.8-1.2,1.4-2.6,1.4C668.8,653.2,667.6,652.6,667.6,651.8z M798.3,636.4c0,3.8-3.1,6.9-6.9,6.9c-3.8,0-6.9-3.1-6.9-6.9
				c0-3.8,3.1-6.9,6.9-6.9C795.2,629.6,798.3,632.6,798.3,636.4z M774.8,602.6v67.6h-95.5v-67.6H774.8L774.8,602.6z"/>
		</g>
		<g>
			<g>
				<g>
					<g>
						<g>
							<path class="st100" d="M399,582.5c-1.2,1.2-2.6,1.8-4.2,1.8c-1.7,0-3.1-0.6-4.2-1.8c-1.2-1.2-1.7-2.6-1.7-4.2
								c0-1.7,0.6-3.1,1.7-4.2c1.2-1.2,2.6-1.8,4.2-1.8c1.7,0,3.1,0.6,4.2,1.8c1.2,1.2,1.8,2.6,1.8,4.2
								C400.8,579.9,400.2,581.4,399,582.5z M397.5,575.5c-0.8-0.8-1.7-1.2-2.7-1.2c-1.1,0-2,0.4-2.7,1.2c-0.8,0.8-1.2,1.7-1.2,2.8
								c0,1.1,0.4,2,1.2,2.8c0.8,0.8,1.7,1.2,2.7,1.2c1.1,0,2-0.4,2.7-1.2c0.8-0.8,1.1-1.7,1.1-2.8
								C398.7,577.2,398.3,576.3,397.5,575.5z"/>
							<g>
								<path class="st100" d="M408.2,577.8c-0.3-0.1-0.6-0.1-0.8-0.2c-0.3-0.1-0.5-0.1-0.8-0.2c-0.3-0.1-0.6-0.1-0.8-0.2
									c-0.3-0.1-0.6-0.1-0.8-0.2c-1-0.2-1.5-0.7-1.5-1.3c0-0.5,0.2-0.8,0.7-1.1c0.4-0.2,1-0.3,1.6-0.3c0.6,0,1.1,0.1,1.6,0.4
									c0.5,0.3,0.7,0.7,0.7,1.4c0,0,0.9,0,0.9,0c0.6,0,1-0.4,1-1c0-0.1,0-0.2-0.1-0.4c-0.2-0.7-0.7-1.2-1.3-1.6
									c-0.8-0.6-1.8-0.9-2.9-0.9c-1.1,0-2,0.3-2.9,0.9c-1,0.7-1.5,1.5-1.5,2.7c0,1.5,0.7,2.5,2.1,3c0.3,0.1,0.6,0.1,0.9,0.2
									c0.3,0.1,0.6,0.1,0.9,0.2l0,0c0.3,0.1,0.6,0.1,0.8,0.2c0.3,0.1,0.6,0.1,0.8,0.2v0c1,0.2,1.5,0.7,1.5,1.3
									c0,0.5-0.3,0.9-0.8,1.1c-0.5,0.2-1,0.3-1.7,0.3c-0.7,0-1.3-0.1-1.7-0.3l0,0c-0.3-0.2-0.6-0.4-0.7-0.7c0,0,0-0.1,0-0.1
									c0,0,0,0,0,0c-0.1-0.4-0.5-0.7-1-0.7l0,0h-1.2c0,1.4,0.5,2.4,1.6,3.1c0.9,0.5,1.9,0.8,3,0.8c1.2,0,2.2-0.3,3-0.8
									c1.1-0.7,1.6-1.6,1.6-2.7C410.4,579.3,409.7,578.3,408.2,577.8z"/>
								<path class="st100" d="M410,575.1C410,575.1,410,575.1,410,575.1C410,575.2,410,575.2,410,575.1L410,575.1z"/>
							</g>
							<path class="st100" d="M378.5,572.5C378.5,572.5,378.5,572.5,378.5,572.5L378.5,572.5h-1.1v7.5l-5-7c0,0,0,0,0,0l0,0l0,0
								c-0.2-0.2-0.5-0.4-0.8-0.4h0h0h-1.4v3.1v6.2v1.1c0,0.6,0.5,1,1,1l0,0h1.1v-1c0,0,0,0,0,0v-6.5l4.9,7v0
								c0.2,0.3,0.5,0.5,0.9,0.5c0,0,0,0,0,0l0,0h1.3v-3.1v-6.7v-0.6C379.5,573,379.1,572.5,378.5,572.5z"/>
							<path class="st100" d="M369.2,573.6c0-0.6-0.5-1-1-1h-5.4H361v5.5v4.7v0.2c0,0.6,0.5,1,1,1l0,0v0h7.2v-1l0,0c0,0,0-0.1,0-0.1
								c0-0.6-0.5-1-1-1l-5.1,0v-2.6h0.2h0h3.5h0h1v-1c0,0,0,0,0,0c0-0.6-0.5-1-1-1h-0.3h-3.5v-2.6h6.2V573.6L369.2,573.6
								C369.2,573.6,369.2,573.6,369.2,573.6z"/>
							<path class="st100" d="M388.8,573.6c0-0.6-0.5-1-1-1h-5.4h-1.8v5.5v4.7v0.2c0,0.6,0.5,1,1,1l0,0v0h7.2v-1l0,0
								c0,0,0-0.1,0-0.1c0-0.6-0.5-1-1-1l-5.1,0v-2.6h0.2h0h3.5h0h1v-1c0,0,0,0,0,0c0-0.6-0.5-1-1-1h-0.3h-3.5v-2.6h6.2V573.6
								L388.8,573.6C388.8,573.6,388.8,573.6,388.8,573.6z"/>
							<path class="st100" d="M358.9,577.2l-3.7,0c0,0,0,1,0,1c0,0.6,0.5,1,1,1h1.6v1.5c-0.8,0.9-1.8,1.4-3,1.4
								c-1.1,0-2-0.4-2.8-1.2c-0.8-0.8-1.2-1.7-1.2-2.8c0-1.1,0.4-2,1.2-2.8c0.8-0.8,1.7-1.2,2.8-1.2c0.6,0,1.2,0.2,1.8,0.5
								c0.3,0.2,0.6,0.4,0.9,0.6c0,0,0,0,0.1,0l0.1,0.1c0.3,0.3,0.8,0.3,1.1,0.1c0,0,0,0,0,0l0.2-0.1c0,0,0,0,0,0l0.9-0.6
								c-0.7-0.9-1.4-1.5-2.3-2c-0.9-0.5-1.8-0.7-2.8-0.7c-1.7,0-3.1,0.6-4.3,1.8c-1.2,1.2-1.8,2.6-1.8,4.2c0,1.7,0.6,3.1,1.8,4.2
								c1.2,1.2,2.6,1.8,4.3,1.8c0.5,0,1-0.1,1.5-0.2c0.5-0.1,0.9-0.3,1.4-0.5c0.4-0.2,0.8-0.5,1.2-0.9c0.4-0.3,0.7-0.7,0.9-1.1
								c0,0,0.1-0.3,0.1-0.3s0-3.1,0-3.1C360,577.7,359.5,577.2,358.9,577.2z"/>
						</g>
					</g>
				</g>
			</g>
		</g>
		<g>
			<radialGradient id="SVGID_100_" cx="313.9292" cy="544.0256" r="18.5837" gradientUnits="userSpaceOnUse">
				<stop  offset="0.4143" style="stop-color:#138843"/>
				<stop  offset="0.9772" style="stop-color:#056A32"/>
			</radialGradient>
			<path class="st101" d="M303.7,521.2c0.3-0.5,0.6-0.7,1.1-0.7c0.3,0,0.6,0.1,1,0.3c0.9,0.5,1.4,1.1,1.5,1.6
				c0.2,0.6,0.3,1.6,0.4,2.9c0.1,1.3,0.2,2.6,0.3,4c0.1,2.2,0.2,4.3,0.3,6.2c0.1,2,0.2,3,0.3,3c0-0.2,0.1-0.5,0.3-1.1
				c0.1-0.5,0.3-1.1,0.5-1.8c0.4-1.3,0.9-2.8,1.4-4.5c0.6-1.7,1.2-3.3,2-4.9c0.7-1.6,1.6-2.9,2.5-4c0.9-1.1,1.8-1.6,2.7-1.6
				c1.9,0.1,3.4,1.3,4.5,3.7c1.1,2.4,1.8,5.3,2.3,8.8c0.3,1.9,0.5,3.9,0.6,5.9c0.1,2.1,0.2,4.2,0.2,6.3c0,1.6,0.1,3.3,0.1,4.9v4.3
				c-0.1,2.9-0.1,5.4-0.2,7.4v2.8c0,0.8,0,1.3,0.1,1.6c-0.4,0.8-1.3,1.2-2.5,1.2c-0.3,0-0.6,0-0.9-0.1c-1.7-0.2-2.8-0.9-3.4-2.1
				c-0.4-2.1-0.5-4.9-0.5-8.5c0-1.5,0-3,0.1-4.6c-0.2,0-0.4,0-0.6,0.1c-2,0.2-3.9,0.6-5.9,1.1c-0.8,0.2-1.6,0.4-2.3,0.6
				c0,0.1,0,0.2,0.1,0.4c0.4,3.2,0.6,6.8,0.8,10.8c-0.3,0.8-1.3,1-3.1,0.7c-1.8-0.3-2.9-1.1-3.2-2.4c-0.7-3.8-1.2-7.4-1.4-11
				c-0.2-2.9-0.3-5.7-0.3-8.3v-1.8c0.1-5.9,0.4-10.8,1-14.8C303.9,523.8,304,521.6,303.7,521.2z M312.2,552.1c2-0.4,4-0.7,6-0.9h0.1
				c0-1.8,0.1-3.6,0.2-5.5c0.1-2,0.1-4.1,0.2-6.1c0.1-2,0.1-4,0.2-5.8c0-3.4,0-6.2-0.2-8.5c-0.1-2.3-0.5-3.4-1.1-3.5
				c-0.6,0-1.4,0.7-2.2,2.2c-0.9,1.5-1.7,3.4-2.6,5.5c-1.1,2.6-2,5.2-2.8,7.9c-0.8,2.7-1.3,4.5-1.3,5.5c0.2,3.8,0.4,7.1,0.6,10
				C310.3,552.6,311.2,552.4,312.2,552.1z"/>
			<radialGradient id="SVGID_101_" cx="342.6143" cy="562.3556" r="20.029" gradientUnits="userSpaceOnUse">
				<stop  offset="0.4143" style="stop-color:#138843"/>
				<stop  offset="0.9772" style="stop-color:#056A32"/>
			</radialGradient>
			<path class="st102" d="M354.9,552.2c0.3-0.2,0.6-0.3,0.9-0.2c0.3,0,0.6,0.2,1,0.5c-2,3.6-4,6.6-6,8.9c-1.7,1.9-3.2,3.4-4.6,4.7
				v0.4c-0.1,2.7-0.3,5.3-0.6,7.8c-0.3,2.5-0.8,4.7-1.5,6.7c-0.7,1.8-1.5,3.3-2.6,4.5c-1.1,1.1-2.4,1.6-3.9,1.6h-0.1
				c-0.6,0-1.2-0.2-1.6-0.5c-0.4-0.3-0.8-0.7-1-1.2c-0.6-1.3-0.7-3.2-0.2-5.5c0.4-2.3,1.2-4.5,2.2-6.6c0.6-1.1,1.2-2.1,1.9-3
				c0.5-0.7,1.1-1.3,1.6-1.7c0-0.8,0.1-1.6,0.1-2.4c0-2.1,0.1-3.9,0.2-5.3c-0.3,1.3-0.7,2.2-1.3,3c-0.5,0.7-1.2,1.2-1.9,1.5
				c-1.3,0.5-2.7,0.3-4.1-0.6c-1.5-0.9-2.7-2.4-3.6-4.3c-0.4-1-0.8-2.1-1-3.3c-0.1-0.8-0.2-1.6-0.2-2.5c0-0.5,0-1,0.1-1.5
				c0.2-2.4,0.7-4.6,1.4-6.4c0.7-1.8,1.6-3.4,2.6-4.6c1.8-2.3,3.9-3.7,6.1-4.2c0.5-0.1,1-0.1,1.4-0.1c1.5,0,2.7,0.6,3.6,1.7
				c0,0.2,0,0.4-0.1,0.6c-0.1,0.2-0.3,0.2-0.6,0.1c-0.9-0.6-1.6-0.8-2.3-0.8c-0.7,0-1.3,0.3-1.9,0.8c-1.1,0.9-1.9,2.5-2.6,4.7
				c-0.6,2.2-1,4.5-1.2,6.9c-0.3,3-0.2,5.8,0.2,8.4c0.4,2.5,1.1,3.8,2.2,3.8c0.8,0,1.4-0.9,1.9-2.8c0.5-1.9,1-4,1.3-6.4
				c0.2-1.6,0.4-3.1,0.5-4.6c0.2-1.5,0.3-2.8,0.3-3.8c0.1-0.4,0.3-0.6,0.5-0.9c0.2-0.2,0.4-0.4,0.6-0.5c0.8-0.4,1.7-0.4,2.6,0
				c0.9,0.4,1.5,0.9,1.6,1.6c-0.2,0-0.3,0.4-0.4,0.9c-0.1,0.5-0.1,1.3-0.2,2.3c0,1.8,0,4.2,0.1,7.2c0,2.1,0,4.3,0,6.5
				c1.2-1.1,2.5-2.5,3.9-4C351.9,557.6,353.5,555.1,354.9,552.2z M339.2,573.1c-0.6,1.5-1.1,3-1.4,4.6c-0.5,2-0.7,3.9-0.8,5.5
				c-0.1,1.6,0.1,2.5,0.5,2.5c1,0,1.7-1.4,2.1-4.1c0.4-2.7,0.6-5.7,0.6-9c0-0.6,0-1.2,0-1.7C339.8,571.5,339.5,572.2,339.2,573.1z"
				/>
			<radialGradient id="SVGID_102_" cx="364.2294" cy="548.7479" r="16.3968" gradientUnits="userSpaceOnUse">
				<stop  offset="0.4143" style="stop-color:#138843"/>
				<stop  offset="0.9772" style="stop-color:#056A32"/>
			</radialGradient>
			<path class="st103" d="M356.5,542.7c0.3-0.8,0.9-1.4,2-1.8c0.5-0.2,1-0.3,1.5-0.3c0.5,0,0.9,0.1,1.2,0.3c0.2,0.2,0.4,0.4,0.6,0.6
				c0.1,0.2,0.2,0.5,0.2,0.9c0,0.2-0.2,1.4-0.6,3.6c-0.4,2.2-0.7,4.8-0.9,7.6c-0.3,2.2-0.5,4.4-0.6,6.6c-0.2,2.2-0.2,4-0.1,5.3
				c0,0.8,0.1,1.4,0.3,1.8c0.2,0.4,0.4,0.7,0.6,0.7c0.6,0,1.7-1,3.2-3c1.5-2,2.9-4.2,4.3-6.5c0.9-1.5,1.7-2.9,2.5-4.2
				c0.7-1.3,1.2-2.2,1.5-2.7c0.3-0.2,0.6-0.2,0.9-0.2c0.3,0,0.6,0.2,0.9,0.5c-0.1,0.3-0.3,0.7-0.6,1.2c-0.3,0.5-0.6,1.2-1,1.9
				c-0.7,1.3-1.6,2.8-2.6,4.5c-1,1.7-2.1,3.3-3.2,4.8c-1.1,1.6-2.2,2.9-3.3,3.9c-1,1-1.9,1.5-2.6,1.5h-0.2c-1.4-0.1-2.5-0.5-3.3-1.3
				c-0.8-0.8-1.4-1.8-1.8-3c-0.4-1.3-0.6-2.7-0.6-4.3v-0.6c0-1.4,0.1-2.8,0.2-4.3c0.3-3.1,0.8-6,1.3-8.7
				C356.7,544.8,356.8,543.2,356.5,542.7z M356.9,531.2c0-0.1-0.1-0.2-0.1-0.3c0-0.6,0.3-1.3,0.9-2c0.7-0.8,1.5-1.2,2.4-1.2
				c0.2,0.6,0.7,1.1,1.4,1.3c0.8,0.2,1.2,0.7,1.2,1.5v0.2c0,0.6-0.2,1.3-0.6,2.1c-0.4,0.8-1,1.3-1.8,1.3c-0.1,0-0.2,0.1-0.4,0.1
				c-0.7,0-1.4-0.3-2-0.9C357.4,532.4,357,531.8,356.9,531.2z"/>
			<radialGradient id="SVGID_103_" cx="381.9573" cy="547.9075" r="16.8759" gradientUnits="userSpaceOnUse">
				<stop  offset="0.4143" style="stop-color:#138843"/>
				<stop  offset="0.9772" style="stop-color:#056A32"/>
			</radialGradient>
			<path class="st104" d="M377.6,550c-0.2,1.6-0.3,3.1-0.4,4.6c-0.1,1.5-0.1,2.9-0.1,4.3c0,2.5,0.1,4.5,0.4,6.2
				c0.3,1.7,0.7,2.6,1.4,2.8c0.8,0.3,1.9-0.5,3.3-2.2c1.4-1.7,2.8-3.7,4.1-5.8c0.9-1.4,1.7-2.8,2.5-4.2c0.7-1.4,1.3-2.5,1.7-3.3
				c0.3-0.2,0.6-0.2,0.9-0.2c0.3,0,0.6,0.2,0.9,0.4c-0.5,1-1.1,2.2-1.8,3.7c-0.7,1.5-1.6,3.1-2.5,4.6c-1.4,2.3-3,4.4-4.6,6.2
				c-1.4,1.4-2.8,2.2-4.2,2.2c-0.3,0-0.6,0-1-0.1c-1.1-0.3-2.1-0.8-2.9-1.6c-0.8-0.8-1.4-1.8-2-3c-1-2.2-1.5-4.9-1.7-8.2v-2.1
				c0-2.6,0.2-5.2,0.5-8c0.5-3.5,1.3-6.9,2.2-10.1c1-3.2,2.1-5.9,3.3-8c0.6-0.8,1.5-1.3,2.5-1.6c0.9-0.2,1.6-0.4,2.2-0.4h0.4
				c1.7,0.2,2.7,1.5,2.9,4c0.2,2.6-0.1,5.4-1.1,8.3c-0.5,1.6-1.2,3.2-2,4.8c-0.8,1.5-1.8,2.9-2.8,4c-0.6,0.7-1.3,1.3-2,1.8
				C377.7,549.5,377.6,549.8,377.6,550z M378.2,546.6c0.8-0.9,1.5-1.9,2.1-3c0.6-1.1,1.2-2.3,1.6-3.6c0.4-1,0.7-2.1,0.9-3.1
				c0.3-1,0.5-2,0.6-2.9c0.3-1.8,0.4-3.2,0.2-4.5c-0.1-1.2-0.4-1.9-0.9-1.9c-0.6-0.1-1.2,1-1.9,3.1c-0.7,2.2-1.3,4.9-1.9,8.2
				c-0.3,1.7-0.5,3.5-0.8,5.5c-0.1,0.9-0.2,1.8-0.4,2.6C378,546.8,378.1,546.7,378.2,546.6z"/>
			<radialGradient id="SVGID_104_" cx="403.3956" cy="552.8512" r="13.8813" gradientUnits="userSpaceOnUse">
				<stop  offset="0.4143" style="stop-color:#138843"/>
				<stop  offset="0.9772" style="stop-color:#056A32"/>
			</radialGradient>
			<path class="st105" d="M397.7,558c0.1,2,0.4,3.8,0.9,5.3c0.6,1.5,1.5,2.4,2.7,2.7c1.3,0.3,2.9-0.3,4.6-1.9
				c1.7-1.6,3.3-3.4,4.8-5.6c0.8-1.2,1.5-2.3,2.2-3.5c0.7-1.2,1.2-2.2,1.6-3.2c0.3-0.3,0.6-0.4,0.9-0.4c0.3,0,0.6,0.2,0.9,0.5
				c-0.5,1.1-1.1,2.2-1.8,3.5c-0.7,1.3-1.5,2.5-2.3,3.8c-1.6,2.4-3.4,4.4-5.4,6.2c-1.7,1.4-3.4,2.1-5.2,2.1c-0.4,0-0.7,0-1.1-0.1
				c-1.9-0.4-3.5-1-4.9-2.1c-1.3-1-2.4-2.3-3.2-3.8c-1.4-2.5-2.1-5.3-2.1-8.6v-0.9c0.2-3.6,1-6.9,2.6-9.7c0.7-1.3,1.5-2.2,2.4-2.9
				c0.9-0.7,1.7-1.2,2.6-1.4c0.4-0.1,0.8-0.1,1.2-0.1c1.2,0,2.3,0.4,3.3,1.3c1.3,1.2,2,2.8,2.1,5c0,3.4-1,6-3.2,7.9
				c-1,0.9-2.2,1.6-3.5,2.2v0.1C397.7,555.7,397.7,556.8,397.7,558z M400.7,550.5c1.6-1.8,2.4-3.7,2.4-5.7c0-2-0.3-3-1.1-3.2
				c-0.7-0.2-1.4,0.7-2.2,2.6c-0.7,2-1.3,4.2-1.7,6.9c-0.1,0.6-0.2,1.2-0.2,1.8C399,552.2,400,551.4,400.7,550.5z"/>
		</g>
		<g>
			<g>
				<g>
					<g>
						<path class="st106" d="M636.7,576.4c-0.3,0.6-1,1-1.7,1.2c-0.4,0.1-0.9,0.1-1.3,0.3c-0.4,0.2-0.6,0.5-0.9,0.8
							c-1.3,1.6-4.4,6.7-6.5,1.7c-1.9-4.5,3.8-9.7,6.7-12.3c0.2-0.2,0.4-0.4,0.7-0.4c0.3-0.1,0.6,0.1,1,0.2c1.7,0.6,4.4,1.5,3.7,3.5
							c-0.3,0.8-1.2,1.4-1.5,2.3C636.4,574.3,637,575.8,636.7,576.4z"/>
					</g>
					<g>
						<g>
							<path class="st106" d="M659.8,602.7c-0.2,0.6-0.8,1.2-1.5,1.5c-0.4,0.2-0.9,0.3-1.2,0.5c-0.4,0.2-0.6,0.6-0.7,0.9
								c-1,1.8-3.1,7.3-6.1,2.8c-2.7-4.1,2.1-10.2,4.4-13.3c0.2-0.2,0.3-0.4,0.6-0.5c0.3-0.1,0.6-0.1,1,0c1.8,0.3,4.6,0.7,4.2,2.8
								c-0.2,0.9-1,1.6-1.1,2.5C659.2,600.7,660,602.1,659.8,602.7z"/>
						</g>
						<path class="st106" d="M736.2,530c-0.6-1.9-2.3-3-3.9-3.9c-3.4-1.9-9-5.5-13.8-5.8c-2.5-2-5.2-3.5-7.9-3.3
							c-6,0.5-13.2,8.1-16.7,12.6c-4.6,5.9-6,13-10,19.3c-7.7,12.2-42.3,19.1-42.3,19.1s1.7,7.7,2.4,8.4c8.6,0.7,36.6-0.2,47.9-9.6
							c1.9-1.6,3.8-3.2,5.7-4.9c-5.2,14.3-36.1,31.1-36.1,31.1s4.1,7.1,5,7.6c8.8-1.9,36.5-11.5,44.9-24.4
							c8.2-12.5,15.8-25.4,22.8-38.6C735.6,535.2,736.9,532.4,736.2,530z"/>
					</g>
					<g>
						<g>
							<path class="st107" d="M754.9,478.9c-1.9-0.7-3.9-1.5-5.8-2.2c0.4-1.6,1-3.2,1.6-4.7c-1.5-1-3.2-2.4-3-4.2
								c0.1-0.6,0.3-1.1,0.5-1.6c1-2.1,2-4.3,3-6.4c0.3-0.7,0.7-1.5,1.3-2.1c1.1-1,2.6-1.1,4.1-1c3.6,0.3,7.2,2.1,9.3,5.1
								c0.6,0.8,1,1.7,1.1,2.7c0.1,1.5-0.7,2.9-1.4,4.2c-0.7,1.2-1.4,2.4-2.1,3.6c-0.8,1.4-1.8,2.9-3.4,3.1"/>
							<path class="st100" d="M781.1,461.9c0.5-0.5,1-0.9,1.6-1.3c1.2-0.9,2.5-1.5,3.6-2.5s1.8-2.6,1.2-4c-0.4-0.9-1.2-1.5-2-2
								c-2.7-1.6-5.8-2.5-8.9-2.6c-3,0-5.8,0.5-8.3-1.4c-2.4-1.7-4.4-1.8-7.4-1.6c-3.3,0.3-7.3-0.6-10.4,0.2
								c-1.3,0.3-2.5,1.1-3.5,1.9c-3.4,3.1-4.9,8.3-3.5,12.7c0.3,1,0.7,1.9,1.2,2.9c1,1.9,2.2,4.2,3.9,5.3c0.5-1.7,0.4-7.6,2.1-8.7
								c2.7-1.7,7.3,0.4,9.7,1.7c2.7,1.4,4.7,4.1,7.4,5.3c2,0.9,4.8,0.6,6.8,0C777.3,467.1,779.3,463.6,781.1,461.9z"/>
						</g>
					</g>
					<path class="st100" d="M744.3,474.2c-13.3,0.5-25,16.3-34.2,24.6c-6.3,5.7-14.4,11.7-22.5,9.3c-5.3-1.6-8.8-6.4-11.8-11
						c-1,6.7-1.7,14.5,3,19.4c3.5,3.6,9,4.4,13,7.5c4.3,3.3,6.6,9.2,11.8,11c3.9,1.4,8.2-0.1,12.2,0.7c6.3,1.1,10.4,6.8,14.3,11.9
						c1.1,1.5,2.5,3,4.3,3.2c2.4,0.2,4.2-1.9,5.4-4c5.4-9.4,5.1-20.5,7.6-30.8c2.3-9.2,9.6-15.3,11.8-24.7c1.5-6.6-1.7-13-7.9-15.7
						C749.1,474.5,746.7,474.1,744.3,474.2z"/>
					<g>
						<path class="st108" d="M792.6,447.6c-1.2,0.6-2.4,1.2-3.7,1.9c-0.4,0.2-1.5,0.5-1.3,1.1c0.1,0.3,0.4,1.4,0.7,2.4
							c0,0.9,0,1.9-0.1,2.8c-0.3,2.3-3.4,7-1,8.7c0.5,0.3,0.9,0.7,1.5,0.8c0.4,0.1,0.9,0.1,1.4,0c0.4,0,0.9,0,1.2-0.3
							c0.2-0.3,0.3-1.3,0.3-1.8c0.2-1.2,0.4-2.4,0.7-3.5c0.2-1.2,0.6-2.5,1.6-2.9c0.2-0.1,0.5-0.1,0.7-0.3c0.2-0.1,0.4-0.4,0.6-0.6
							c0.6-0.9,1.1-1.8,1.5-2.8c0.4-0.9-0.1-1.5-0.4-2.3c-0.4-1-0.1-2-0.4-2.9c-0.2-0.5-0.6-1-1.1-1.1c-0.4-0.1-0.8,0.1-1.2,0.3
							C793.1,447.3,792.9,447.4,792.6,447.6z"/>
						<path class="st100" d="M783.8,489.9c1.8-1.7,3.3-3.8,4.5-6.5c3-6.7,5-14,6.1-21.4c-2.8-1.5-6-2.3-9.1-2.4
							c-2.1,5.7-4.5,11.3-7.4,16.6c-1.4,2.6-3,4.7-5.9,5.1c-6.3,1-12.7,1.4-19,1.3c-1.4,0-2.8-0.1-4.2,0.4c-2.5,0.9-4.3,3.5-4.7,6.3
							c-0.5,2.8,0.3,5.7,1.6,8.1c1,1.7,2.3,3.3,4,3.9c1.8,0.7,3.8,0.4,5.7,0.1c8.4-1.6,16.7-4.5,24.4-8.7
							C781.3,491.9,782.6,491,783.8,489.9z"/>
					</g>
				</g>
				<g>
					<path class="st107" d="M726.3,428.5c0.1,0.1,0.1,0.2,0.2,0.3c0.4,1-0.2,1.8-0.1,2.7c0.1,0.4,1,1.3,0.4,1.6
						c-0.2,0.1-1,0.6-1.7,1c-0.5,0.6-0.9,1.1-1.3,1.7c-1,1.5-1.4,6-3.9,5.7c-0.5-0.1-1-0.1-1.4-0.3c-0.4-0.2-0.6-0.5-0.9-0.8
						c-0.2-0.2-0.6-0.5-0.6-0.8c0-0.3,0.5-0.9,0.7-1.2c0.5-0.8,0.9-1.6,1.4-2.4c0.5-0.8,0.9-1.8,0.5-2.6c-0.1-0.2-0.2-0.3-0.3-0.5
						c-0.1-0.2-0.1-0.4-0.1-0.7c0.1-0.8,0.2-1.7,0.4-2.5c0.4-1.4,2.7-2.1,3.9-2.5c0.3-0.1,0.6-0.2,0.9-0.2c0.5,0,1,0.4,1.3,0.8
						C725.9,428,726.1,428.3,726.3,428.5z"/>
					<path class="st100" d="M711.1,458.3c-0.3-1.1-0.6-2.3-0.6-3.5c0-0.9,0.2-1.9,0.5-2.8c1.5-5.6,3.8-11,7-15.9
						c2.6,0.7,5.1,1.9,7.3,3.6c-1.6,4.5-2.8,9.1-3.7,13.8c-0.2,1-0.3,1.9-0.2,2.9c0.1,1.4,0.8,2.7,1.4,4c2.4,4.9,4.8,9.8,7.2,14.7
						c1.4,3,2.9,6,3,9.3c0.2,9.1-11.2,10.7-14.5,2.9C714.6,478.6,713.4,467.6,711.1,458.3z"/>
				</g>
				<g>
					<g>
						<g>
							<path class="st100" d="M793.3,440.6c-0.6-0.3-15.2-35.2-15.2-35.2l20.1-43.5l15.6,41.2L793.3,440.6z"/>
							<radialGradient id="SVGID_105_" cx="805.8137" cy="424.5609" r="29.1867" gradientUnits="userSpaceOnUse">
								<stop  offset="0.4143" style="stop-color:#138843"/>
								<stop  offset="0.9772" style="stop-color:#056A32"/>
							</radialGradient>
							<path class="st109" d="M797.4,422.9c4.5-8.5,16.5-29.3,26.8-35.1c2.3,11.6-5.8,34.2-9.3,43.1c-1.3,3.1-2.8,6.1-4.5,8.6
								l-14.3,21.2l0,0c-3.2,1.6-8.3-0.8-9.1-4.2v0l6.9-24.6C794.6,428.9,795.9,425.9,797.4,422.9z"/>
							<radialGradient id="SVGID_106_" cx="793.2976" cy="455.7682" r="5.8859" gradientUnits="userSpaceOnUse">
								<stop  offset="0.4143" style="stop-color:#138843"/>
								<stop  offset="0.9772" style="stop-color:#056A32"/>
							</radialGradient>
							<path class="st110" d="M795.1,454c1.4,0.6,2.9,1.2,4.5,1.6l-3.4,5.1v0c-3.2,1.6-8.3-0.8-9.1-4.2l0,0l1.7-6.1
								C790.6,451.9,792.9,453.1,795.1,454z"/>
							<polygon class="st111" points="806,382.5 783.7,418.7 786.8,426.1 806.9,385 							"/>
						</g>
						<g>
							<path class="st100" d="M705.7,400.1c0.6,0.3,36.7-11.2,36.7-11.2l20.1-43.5L721,360.2L705.7,400.1z"/>
							<radialGradient id="SVGID_107_" cx="707.4686" cy="379.0932" r="29.1867" gradientUnits="userSpaceOnUse">
								<stop  offset="0.4143" style="stop-color:#138843"/>
								<stop  offset="0.9772" style="stop-color:#056A32"/>
							</radialGradient>
							<path class="st112" d="M716.6,385.5c3.6-8.9,11.7-31.5,9.3-43.1c-10.3,5.7-22.3,26.6-26.8,35.1c-1.6,3-2.8,6-3.6,9l-6.9,24.6
								l0,0c0.8,3.5,6,5.9,9.1,4.2v0l14.3-21.2C713.8,391.6,715.3,388.7,716.6,385.5z"/>
							<radialGradient id="SVGID_108_" cx="694.9833" cy="410.3954" r="5.8698" gradientUnits="userSpaceOnUse">
								<stop  offset="0.4143" style="stop-color:#138843"/>
								<stop  offset="0.9772" style="stop-color:#056A32"/>
							</radialGradient>
							<path class="st113" d="M694.4,407.4c-1.4-0.7-2.8-1.5-4.1-2.4l-1.7,5.9l0,0c0.8,3.5,6,5.9,9.1,4.2l0,0l3.6-5.3
								C698.9,409.6,696.5,408.5,694.4,407.4z"/>
							<polygon class="st111" points="741.8,352.8 728.7,393.3 721.1,395.7 739.3,353.7 							"/>
						</g>
						<radialGradient id="SVGID_109_" cx="744.0168" cy="426.114" r="13.3085" gradientUnits="userSpaceOnUse">
							<stop  offset="0.4143" style="stop-color:#138843"/>
							<stop  offset="0.9772" style="stop-color:#056A32"/>
						</radialGradient>
						<polygon class="st114" points="728.1,423 756.7,436.2 759.9,429.3 731.3,416 						"/>
						<polygon class="st100" points="722.5,428.1 756.8,444 757.9,436.1 727.8,422.1 						"/>
						<radialGradient id="SVGID_110_" cx="774.2487" cy="348.7611" r="73.6455" gradientUnits="userSpaceOnUse">
							<stop  offset="0.4143" style="stop-color:#138843"/>
							<stop  offset="0.9772" style="stop-color:#056A32"/>
						</radialGradient>
						<path class="st115" d="M754.3,317.6c11.2-18.1,26.5-33.8,44-45.8c6.7-4.6,16.5-9.5,23.7-11.1c3.5,6.5,6.1,17.2,7,25.2
							c2.2,21.2,0.2,42.9-6.4,63.2c-7,21.5-20.5,39.5-31.6,58.9c-5.5,9.6-10.9,19.1-16.4,28.7l-28-13l-28-13
							c3.8-10.4,7.5-20.7,11.3-31.1C737.5,358.8,742.4,336.9,754.3,317.6z"/>
						<radialGradient id="SVGID_111_" cx="739.1091" cy="436.7293" r="16.1592" gradientUnits="userSpaceOnUse">
							<stop  offset="0.4143" style="stop-color:#138843"/>
							<stop  offset="0.9772" style="stop-color:#056A32"/>
						</radialGradient>
						<path class="st116" d="M719.2,429l38.6,17.9c0.5,0.2,1,0,1.3-0.5l0.3-0.7c0.2-0.5,0-1-0.5-1.3l-38.6-17.9
							c-0.5-0.2-1,0-1.3,0.5l-0.3,0.7C718.5,428.2,718.8,428.8,719.2,429z"/>
						<polygon class="st100" points="774.9,436.9 718.8,411 724.4,395.6 782.4,423 						"/>
						<g>
							<radialGradient id="SVGID_112_" cx="725.8242" cy="469.2276" r="26.57" gradientUnits="userSpaceOnUse">
								<stop  offset="0.4143" style="stop-color:#138843"/>
								<stop  offset="0.9772" style="stop-color:#056A32"/>
							</radialGradient>
							<path class="st117" d="M713,448.7c1-1.5,2.1-2.9,3.5-4.1c4.2-3.8,9.9-5.8,15.2-4.5c0.1,0,0.2,0,0.3,0.1
								c4.5,1,8.5,3.2,11.6,6.4c0.7,0.6,1.3,1.4,1.8,2.2c1,1.3,1.8,2.8,2.4,4.4c0.7,1.7,1.2,3.6,1.2,5.5c0,1.9-0.4,3.8-1,5.6
								c-2.1,6.4-5.8,11.8-9.9,16.6c-2,2.3-4.1,4.5-6.2,6.7c-1.1,1.1-2.1,2.1-3.1,3.2c-0.4,0.4-2.4,2.3-2.4,2.7c0,0-0.5-2.6-2.1-7.7
								c-4,4.6-7.7,8.7-13.1,13.1c0,0,0.4-10,1.5-17.7c-2.9,1.9-7.1,5.6-10,8.6c0.3-0.3,0.3-1.8,0.3-2.2c1-6,2.2-12.3,3.5-18.7
								C707.9,462.3,709,454.8,713,448.7z"/>
							<path class="st118" d="M720.3,451.4c0.6-0.9,1.2-1.7,2-2.3c2.4-2.2,5.7-3.3,8.6-2.5c0.1,0,0.1,0,0.2,0
								c2.5,0.6,1.1,4.8,2.9,6.6c0.4,0.4,4.4-2.2,4.7-1.7c0.5,0.8,1,1.6,1.4,2.5c0.4,1,0.7,2,0.7,3.1c0,1.1-0.2,2.2-0.6,3.2
								c-1.2,3.6-3.3,6.8-5.6,9.5c-1.2,1.3-2.4,2.6-3.6,3.8c-0.6,0.6-1.2,1.2-1.8,1.8c-0.2,0.2-1.4,1.3-1.3,1.5c0,0-0.3-1.5-1.2-4.4
								c-2.3,2.7-4.4,5-7.5,7.6c0,0,0.2-5.8,0.9-10.2c-1.4,0.9-3.3,2.6-4.9,4.1c-0.3,0.3-0.7,0-0.7-0.4c0,0,0,0,0,0
								c0.6-3.5,1.3-7,2.1-10.7C717.4,459.1,718,454.9,720.3,451.4z"/>
						</g>
						<path class="st119" d="M799.6,455.6c0,0-8.7-2.6-10.9-5.3l0.8-3.1c0,0,6.5,4.2,12,5.5L799.6,455.6z"/>
					</g>
					<g>
						
							<ellipse transform="matrix(0.4197 -0.9077 0.9077 0.4197 153.7447 907.9985)" class="st120" cx="786.9" cy="333.8" rx="22.6" ry="22.6"/>
						<path class="st121" d="M807.6,324.3c-2.2-4-5.7-7.4-10.2-9.5c-11.3-5.2-24.8-0.3-30,11c-2.9,6.4-2.7,13.4,0.1,19.3
							L807.6,324.3z"/>
						<g>
							<g>
								<radialGradient id="SVGID_113_" cx="786.9418" cy="333.7684" r="24.1321" gradientUnits="userSpaceOnUse">
									<stop  offset="0" style="stop-color:#27499B"/>
									<stop  offset="1" style="stop-color:#283270"/>
								</radialGradient>
								<path class="st122" d="M765,323.6c5.6-12.1,20-17.4,32-11.8c12.1,5.6,17.4,20,11.8,32c-5.6,12.1-20,17.4-32,11.8
									C764.7,350.1,759.5,335.7,765,323.6z"/>
							</g>
						</g>
					</g>
					<path class="st119" d="M700.7,411.2c0,0-8.7-2.6-10.9-5.3l0.8-3.1c0,0,6.5,4.2,12,5.5L700.7,411.2z"/>
				</g>
			</g>
			<g>
				<path class="st107" d="M793.7,482.8c0.1,0,0.3,0,0.4,0c1.3,0.2,1.8,1.5,2.9,2c0.5,0.2,2-0.2,2,0.7c0,0.3,0,1.4,0,2.5
					c0.3,0.9,0.6,1.8,0.9,2.6c1,2.1,5.5,5.5,3.5,8c-0.4,0.5-0.8,1-1.3,1.3c-0.4,0.3-0.9,0.4-1.4,0.5c-0.4,0.1-1,0.3-1.3,0.1
					c-0.3-0.2-0.6-1.2-0.8-1.6c-0.6-1-1.1-2.1-1.7-3.1c-0.5-1-1.3-2.2-2.5-2.3c-0.3,0-0.5,0-0.8,0c-0.3-0.1-0.5-0.2-0.8-0.4
					c-0.9-0.6-1.7-1.3-2.4-2.1c-1.2-1.4-0.4-4.3-0.1-5.9c0.1-0.4,0.2-0.8,0.4-1.2c0.4-0.5,1.1-0.7,1.8-0.9
					C792.9,482.9,793.3,482.8,793.7,482.8z"/>
				<g>
					<g>
						<path class="st107" d="M925.9,680.3c-0.6,0.6-0.6,1.2-0.5,2c0.1,0.4,0.3,0.9,0.2,1.3c-0.1,0.4-0.2,0.8-0.5,1.2
							c-1.2,2.2-4.6,6.8,0.5,6.7c4.7-0.1,7.7-6.9,9.3-11c0.1-0.3,0.2-0.5,0.2-0.8c-0.1-0.3-0.2-0.6-0.4-0.8
							c-1.2-1.4-2.6-3.2-4.4-1.9c-0.8,0.6-0.8,1.6-1.6,2.2C927.9,679.7,926.5,679.7,925.9,680.3z"/>
					</g>
					<g>
						<g>
							<path class="st107" d="M832.7,683.5c-0.9,0-1.3,0.5-1.8,1.1c-0.3,0.3-0.4,0.8-0.7,1.1c-0.3,0.3-0.7,0.4-1.2,0.5
								c-2.4,0.6-8.1,1.5-4.4,5.1c3.4,3.3,10.4,0.6,14.4-1.1c0.3-0.1,0.6-0.2,0.7-0.4c0.2-0.2,0.3-0.6,0.3-0.9
								c0.2-1.8,0.5-4.2-1.8-4.6c-1-0.2-1.8,0.6-2.8,0.4C834.6,684.5,833.6,683.5,832.7,683.5z"/>
						</g>
						<path class="st106" d="M924.1,669.2c-10.4-11.2-23-23.3-29.8-38.3c-3.3-7.2,9.5-17.7,7.8-26.8c-1.3-7-12.7-18.5-19.8-22.1
							c-1.8-0.9-3.8-1.2-5.8-1.1c-3.3-1.6-6.3-3-8.1-4.2c-2.1-1.4-3.9-2.2-6.2-1.9c-3,0.4-5,3.7-6.7,6.1
							c-10.1,14.5-28.4,33-32.2,49.1c0,0,2.9,32.3,5.7,50.7c3.8-0.3,7-0.1,10.6-1.1c0-1.5-0.5-4.5-0.5-5.6c0.6-16,4.7-38.7,6-41.8
							c2-4.9,10.5-8.7,18.2-12.5c3.1,10.7,6.7,21.4,12.5,28.1c7.2,8.5,31.4,23.5,45.8,33c2.5-2.7,4.8-5.1,6.6-8.2
							C927.2,671.7,924.8,670,924.1,669.2z"/>
					</g>
					<g>
						<path class="st107" d="M844.3,503.5c1.7,1.6,3.8,2.6,5.7,3.9c1.9,1.3,2.9,2.7,4,4.5c0.8,1.4,1.8,2.3,3.6,1.8
							c3.5-0.9,1.4-3.2,1.4-5.5c-0.1-2.6,1-5.1,1.5-7.7c1.3-7.3-4.4-18.5-13.1-17.8C838,483.5,839.2,498.7,844.3,503.5z"/>
					</g>
					<path class="st100" d="M855.6,490.8c0.9,0.6,1.5,1.9,0.9,2.9c-0.3,0.5-0.8,0.9-1.1,1.4c-0.9,1.5,0.2,3.5,1.5,4.6
						c1.4,1.1,3.1,1.9,4.1,3.4c4.7-3.8,8.3-9.4,8.7-15.4c0.2-4.4-1.5-8.9-4.8-11.9c-3.8-3.5-7.7-3.3-12.7-3.7
						c-2-0.2-4.2-0.3-6.1,0.3c-1.8,0.5-3.3,1.7-5.1,2.3c-2.9,1-6.7,0.6-8.6,3.1c-1.1,1.4-1.2,3.4-0.6,5.1c0.6,1.7,1.8,3.1,3.1,4.4
						c1.7,1.7,3.6,3.3,5.6,4.6c-1-0.6,2.3-4.3,3.1-4.5c1.8-0.4,4.6,1.6,6.4,2.1C851.8,489.9,854,489.8,855.6,490.8z"/>
				</g>
				<g>
					<g>
						<path id="XMLID_37_" class="st107" d="M853.3,546.1c-0.6,0-1.1,0-1.7,0.1c-1.9-10.9-11.5-19.2-23.1-19.2
							c-5.3,0-10.2,1.7-14.1,4.7c-4.2-7.4-12.3-12.4-21.5-12.4c-13.6,0-24.7,10.9-24.7,24.3c0,0.9,0,1.7,0.1,2.5
							c-0.6,0-1.1-0.1-1.7-0.1c-13.6,0-24.7,10.9-24.7,24.3c0,13.4,11.1,24.3,24.7,24.3h86.6c13.6,0,32.5-9.3,32.5-22.7
							S867,546.1,853.3,546.1z"/>
					</g>
				</g>
				<g>
					<path class="st107" d="M811.1,567.5c0-0.1,0.1-0.3,0.1-0.4c0.6-1.2,1.9-1.3,2.7-2.2c0.4-0.4,0.4-2,1.2-1.7
						c0.3,0.1,1.4,0.4,2.4,0.8c0.9,0,1.9,0,2.8-0.1c2.3-0.3,6.9-3.6,8.7-1c0.3,0.5,0.7,1,0.8,1.7c0.1,0.5,0.1,1,0,1.5
						c0,0.4,0,1-0.3,1.3c-0.3,0.3-1.3,0.3-1.7,0.3c-1.2,0.2-2.3,0.5-3.5,0.7c-1.1,0.2-2.5,0.6-2.9,1.7c-0.1,0.2-0.1,0.5-0.2,0.7
						c-0.1,0.3-0.4,0.4-0.6,0.6c-0.8,0.6-1.8,1.2-2.7,1.6c-1.7,0.7-4.2-0.9-5.7-1.7c-0.4-0.2-0.7-0.4-1-0.8c-0.4-0.5-0.4-1.3-0.3-2
						C811,568.3,811,567.9,811.1,567.5z"/>
					<path class="st100" d="M907.6,600.8c-0.8-5.5-1.6-11-2.3-16.5c-2.7-18.8-7.8-37.2-16.2-54.3c-3.5-7.1-12.2-11.7-18-16.8
						c-3.4-3-9.1-7.3-13.9-7.4c-3.6-0.1-7.5,3.7-10.4,6.9c-0.5-0.1-1.1-0.1-1.6-0.2c-6.9-0.8-13.8-1.6-20.7-2.3
						c-1.8-0.2-3.6-0.4-5.2-1.2c-1.1-0.6-2-1.4-3-2.3c-4.5-4.1-8.6-8.6-12.3-13.4c-3.3,1.2-6.3,3-8.9,5.4
						c3.1,6.7,7.3,12.9,12.3,18.3c0.8,0.9,1.6,1.7,2.6,2.4c1.2,0.8,2.7,1.3,4.1,1.8c8.8,2.9,18.2,7.2,27.4,9.9
						c0.1,1.1,0.2,2.1,0.3,3.3c0.5,5.5,0.8,11.1,1.2,16.6c-0.8,0.7-1.7,1.3-2.6,1.8c-5.2,3.1-10.7,5.7-16.4,7.9
						c0.2,3.5,1,6.9,2.6,10c6-0.8,11.9-2.5,17.6-4.9c0.5,5.7,0.8,11.5,0.7,17.3c-0.1,5.9-1.4,11.4-2,17.2c5.5,0.4,10.7-2.2,16.4-0.9
						c3.9,0.9,7.5,3,11.3,4.4c7.9,3,24.9,4.8,33.1,4.1C908.2,607.5,908.4,606.2,907.6,600.8z"/>
				</g>
			</g>
		</g>
		<g>
			<g>
				<g>
					<path class="st123" d="M51.4,670.9c-0.2-0.1-0.4-0.2-0.5-0.4c-0.2-0.2-0.1-0.5-0.1-0.8c0.4-3,1.1-6.1,1.3-9.1
						c-1.1,0.2-2.9,0.1-3.8,0.8c-0.6,0.5-0.3,1-0.6,1.6c-0.3,0.5-0.9,0.8-1.3,1.3c-0.3,0.4-0.3,0.9-0.3,1.4c0.1,1.3,0.5,2.5,0.9,3.7
						c0.3,1,0.6,1.9,1,2.9c0.1,0.3,0.2,0.5,0.4,0.7c0.2,0.1,0.4,0.1,0.6,0.1c0.7,0,1.5,0,2.1-0.4C51.7,672.3,52,671.3,51.4,670.9z"
						/>
					<path class="st123" d="M29.1,671.3c-0.1-0.2-0.1-0.5,0-0.8c0.8-2.7,1.7-5.4,2.3-8.1c-0.1-0.2-0.2-0.5-0.3-0.8
						c-1.1,0-2.6-0.2-3.4,0.3c-0.7,0.4-0.5,1-0.8,1.5c-0.4,0.5-1,0.7-1.4,1.1c-0.3,0.4-0.4,0.9-0.5,1.4c-0.1,1.3,0.1,2.5,0.4,3.7
						c0.2,1,0.4,2,0.6,3c0.1,0.3,0.1,0.6,0.3,0.7c0.2,0.1,0.4,0.2,0.6,0.2c0.7,0.1,1.5,0.2,2.1-0.1c0.6-0.3,1-1.3,0.5-1.8
						C29.3,671.6,29.2,671.5,29.1,671.3z"/>
					<polygon class="st123" points="28.2,602.8 26.1,610.6 28.4,633 25.7,662.7 31.8,663.2 39.6,634.7 45.9,603.6 					"/>
				</g>
				<path class="st100" d="M59.7,608.2c0.3,1.2,0.6,2.4,0.9,3.6c0.1,0.3,0.1,0.5,0,0.8c-0.1,0.2-0.3,0.3-0.5,0.4
					c-2.4,1.4-5.5,1.6-8.1,0.6c-1.3-0.5-2.5-1.2-3.8-1.7c-2.2-0.7-4.5-0.4-6.8-0.4c-2.3,0.1-4.2-0.6-6.3-0.8
					c-5.3-0.6-6.7-0.9-11.8,0.5c0.3-9.5-1.5-16.9,0.3-25.8c1.7-8.8,3.4-17.6,5.1-26.4c0.3-1.5,0.6-3,1.2-4.3c3-5.9,9.6-6.8,15.3-4.9
					c2.9,1,5.2,4.4,6.6,7c1.8,3.4,2.7,7.1,3.3,10.9c2,11.7,1.7,23.7,3.6,35.4C59,604.8,59.3,606.5,59.7,608.2z"/>
				<g>
					<g>
						<g>
							<path class="st124" d="M47.9,536.7c0,0.1,0.1,0.2,0.1,0.4c0.1,0.7-0.2,1.3-0.1,2c0.2,1.1,1.2,1.9,1.2,2.9
								c0,0.9-0.7,1.6-0.9,2.4c-0.2,0.9,0.2,1.9-0.1,2.8c-0.2,0.8-0.9,1.8-1.5,2.4c0.2-0.2,1.5,0.1,1.9,0c0.6-0.2,0.7-0.4,1-0.9
								c0.3-0.5,0.2-1.1,0.6-1.6c0.4-0.6,1.1-1,1.5-1.7c0.5-1,0.1-2.1,0.4-3.2c0.4-1.6,2-2.8,1.8-4.4c-0.1-0.9-0.9-1.7-1.2-2.6
								c-0.3-0.7-0.3-1.4-0.4-2.1c-0.1-0.7-0.4-1.5-1.1-1.8c-0.4-0.2-0.8-0.2-1.1-0.4c-0.6-0.2-1.1-0.8-1.7-1.2
								c-0.9-0.5-2.7,0.1-3.3,0.8c-0.7,0.7-0.5,1.4-0.1,2.2C45.3,534.1,47.4,535.3,47.9,536.7z"/>
							<g>
								<path class="st125" d="M39.2,550.9c0,0.1,0.1,0.2,0.2,0.4c0.3,0.5,0.8,0.8,1.3,1c0.7,0.2,1.4,0.2,2.2,0.2
									c1,0,1.1-0.6,1.3-1.4c0.2-0.5,0.3-0.9,0.4-1.4c0.1-0.3,0.1-1.2,0.3-1.4c0.1-0.1,0.6,0,0.8,0c0.3-0.1,0.7-0.4,0.9-0.6
									c0.4-0.4,0.7-0.9,0.9-1.5c0.5-0.9,0.9-1.8,1.4-2.7c0.5-0.9,1-1.8,1.2-2.8c0.4-1.5,0.6-3.7-0.4-5c-0.9-1.2-2.3-1.8-3.7-2.3
									c-1.8-0.6-3.8-0.6-5.6,0.1c-0.7,0.3-1.4,0.7-1.9,1.3c-0.8,1-1,2.4-1.2,3.6c-0.2,1.2-0.3,2.4-0.5,3.6c-0.2,1.4-0.3,3,0.6,3.9
									c0.5,0.5,1.2,0.7,1.5,1.3c0.5,0.7,0.2,1.7,0.1,2.5C39.2,550,39.1,550.5,39.2,550.9z"/>
							</g>
						</g>
						<path class="st124" d="M36.3,529.7c-0.6,0.3-1.4,0.5-2,0.8c-1.2,0.7-1.6,2.2-1.9,3.5c-0.3,1.2-1,2.2-1.1,3.4
							c-0.1,0.9,0.1,1.8,0.7,2.4c0.7,0.8,2.1,1.1,2.3,2.2c0.2,1.1-1.1,2.3-0.6,3.3c0.3,0.6,1,0.8,1.5,1.2c0.5,0.5,0.7,1.2,0.9,1.9
							c0.2,0.7,0.7,1.4,1.4,1.5c0.2-1.1,0.4-1.9,0.1-3c-0.2-0.6-0.7-1.8,0-2.3c0.5-0.4,1.4-0.4,1.5-1.1c0.1-0.3-0.1-0.6-0.2-0.9
							c-0.5-1.1-0.3-2.4,0.3-3.4c0.6-1,1.7-1.7,2.8-2c1.3-0.4,1.2-0.7,1.8-1.8c0.5-1,1.2-1.2,2.2-1.4c0.9-0.2,1.3-0.4,1.7-1.1
							c0.3-0.6,0.8-1.2,0.6-1.9c-0.2-0.6-0.6-1-1-1.5c-0.8-0.9-1.8-1.9-3.1-2.1c-0.7-0.1-1.4,0.1-2.1,0c-0.5-0.1-0.9-0.2-1.4-0.3
							c-0.8-0.2-1.7-0.1-2.4,0.3c-0.7,0.4-0.8,0.8-1.3,1.5C37,529.4,36.7,529.6,36.3,529.7z"/>
						<path class="st124" d="M39.9,525.8c0.3-0.7,0.4-1.7-0.3-2.1c-0.4-0.2-0.8-0.1-1.2-0.3c-0.8-0.3-0.9-1.4-1.2-2.3
							c0-0.1-0.1-0.3-0.2-0.3c-0.2-0.1-0.4-0.1-0.6-0.1c-0.9-0.1-1.4-1-2.1-1.5c-0.9-0.6-2.3-0.2-2.8,0.8c-0.2,0.4-0.3,0.9-0.5,1.3
							c-0.8,1.6-3.5,1.9-3.8,3.7c-0.3,1.2,0.7,2.6,0,3.6c-0.4,0.7-1.4,1-1.5,1.8c0,0.5,0.4,0.9,0.9,1c0.5,0.1,1-0.1,1.4-0.4
							c0.7-0.4,1.3-1,1.9-1.4c0.7-0.4,1.5-0.7,2.3-0.5c0.7,0.2,1.3,1,2.1,1c0.6,0,1.2-0.4,1.8-0.5c0.6,0,1.1,0.3,1.7,0.4
							s1.3,0,1.4-0.6c0-0.1,0-0.3,0.1-0.4c0.2-0.3,0.8-0.2,1-0.6c-0.2-0.5-0.7-0.4-0.8-1.1C39.5,526.9,39.8,526.3,39.9,525.8z"/>
					</g>
				</g>
				<g>
					<polygon class="st123" points="40.9,602.6 42.3,615.4 44.3,639 46.3,662.3 52.7,662 55.3,636.5 56.1,614.9 53.7,601.1 					"/>
				</g>
			</g>
			<g>
				<path class="st126" d="M79.4,573c0-0.1-0.1-0.1-0.1-0.2c-0.4-0.6-1.1-0.4-1.6-0.8c-0.2-0.2-0.4-1-0.8-0.7
					c-0.1,0.1-0.7,0.3-1.1,0.6c-0.5,0.1-0.9,0.2-1.4,0.2c-1.2,0.1-3.8-1.1-4.5,0.4c-0.1,0.3-0.2,0.6-0.3,0.9c0,0.3,0.1,0.5,0.1,0.8
					c0.1,0.2,0.1,0.5,0.3,0.6c0.2,0.1,0.7,0,0.9,0c0.6,0,1.2,0,1.8,0c0.6,0,1.3,0.1,1.6,0.6c0.1,0.1,0.1,0.2,0.2,0.3
					c0.1,0.1,0.2,0.2,0.4,0.2c0.5,0.2,1,0.4,1.5,0.5c1,0.2,2.1-0.9,2.7-1.4c0.2-0.1,0.3-0.3,0.4-0.5c0.1-0.3,0.1-0.7,0-1
					C79.6,573.3,79.5,573.1,79.4,573z"/>
				<path class="st100" d="M57.5,572.1c0.6,0.5,1.1,1.1,1.8,1.4c0.5,0.3,1.1,0.5,1.7,0.6c3.7,1,7.5,1.3,11.3,1.1
					c0.4-1.7,0.5-3.6,0.3-5.3c-3.1-0.5-6.1-1.3-9.1-2.3c-0.6-0.2-1.2-0.4-1.7-0.8c-0.8-0.5-1.3-1.3-1.8-2.1c-2-2.9-4.1-5.9-6.1-8.8
					c-1.2-1.8-2.5-3.6-4.4-4.7c-5.1-3.1-9.7,3-6.3,7.4C47.1,563.5,53,567.7,57.5,572.1z"/>
			</g>
			<g>
				<g>
					<path id="XMLID_38_" class="st123" d="M103.6,591.9c-0.5,0-1,0-1.6,0.1c-1.8-10-10.6-17.7-21.3-17.7c-4.9,0-9.4,1.6-13,4.3
						c-3.9-6.8-11.3-11.4-19.8-11.4c-12.6,0-22.8,10.1-22.8,22.5c0,0.8,0,1.6,0.1,2.3c-0.5,0-1-0.1-1.6-0.1
						c-12.6,0-22.8,10.1-22.8,22.5c0,12.4,10.2,22.5,22.8,22.5h79.9c12.6,0,29.9-8.5,29.9-21C133.5,603.4,116.1,591.9,103.6,591.9z"
						/>
				</g>
			</g>
			<g>
				<path class="st126" d="M53,599.8c0-0.1,0-0.2,0-0.3c0-0.8-0.7-1.3-0.8-2c-0.1-0.3,0.4-1.2-0.2-1.3c-0.2,0-0.9-0.2-1.5-0.3
					c-0.5-0.3-1-0.6-1.5-0.9c-1.2-0.8-2.7-4-4.4-3.1c-0.3,0.2-0.7,0.4-0.9,0.6c-0.2,0.2-0.3,0.5-0.5,0.8c-0.1,0.2-0.3,0.6-0.2,0.8
					c0.1,0.2,0.6,0.5,0.8,0.7c0.6,0.5,1.1,0.9,1.7,1.4c0.6,0.5,1.2,1.1,1.1,1.8c0,0.2-0.1,0.3-0.1,0.5c0,0.2,0.1,0.3,0.1,0.5
					c0.3,0.6,0.6,1.2,1,1.7c0.7,0.9,2.5,0.8,3.6,0.8c0.3,0,0.5,0,0.8-0.1c0.4-0.2,0.6-0.6,0.7-1C52.8,600.3,52.9,600.1,53,599.8z"/>
				<path class="st100" d="M32.3,582.8c0.1,0.9,0.2,1.8,0.6,2.7c0.3,0.7,0.7,1.3,1.1,1.9c2.7,3.7,5.9,7,9.6,9.7
					c1.7-1.3,3.2-2.9,4.3-4.7c-2.4-2.9-4.6-5.9-6.6-9.1c-0.4-0.7-0.8-1.3-1-2.1c-0.3-1.1-0.2-2.2-0.1-3.3c0.4-4.3,0.8-8.5,1.1-12.8
					c0.2-2.6,0.4-5.2-0.4-7.7c-2.4-6.7-11.2-4.7-11.5,2C29.2,566.9,31.4,575.3,32.3,582.8z"/>
			</g>
		</g>
		<path class="st100" d="M619,598.5c3.4-1.6,23.1-10.8,34.2-19.4c0.4-0.3,0.8,0.2,0.5,0.6c-5.3,6.2-17,19.3-27.1,26.6
			c-0.2,0.1-0.4,0.1-0.5,0l-7.2-7.2C618.7,599,618.8,598.6,619,598.5z"/>
		<path class="st100" d="M654.4,580.3c-6.9,12.2-20.6,28-23,30.7c-0.2,0.2-0.1,0.5,0.2,0.6l3.1,1.2c1.2,0.5,2.6,0,3.3-1.1
			C642.1,604.9,650.1,591.3,654.4,580.3z"/>
		<radialGradient id="SVGID_114_" cx="354.7246" cy="461.2711" r="24.9689" gradientUnits="userSpaceOnUse">
			<stop  offset="0.4143" style="stop-color:#138843"/>
			<stop  offset="0.9772" style="stop-color:#056A32"/>
		</radialGradient>
		<path class="st127" d="M365.3,490.8l-26.7-26.7c-1.6-1.6-1.6-4.1,0-5.7l26.7-26.7c2.5-2.5,6.8-0.7,6.8,2.8V488
			C372.1,491.6,367.8,493.4,365.3,490.8z"/>
		<radialGradient id="SVGID_115_" cx="440.2399" cy="588.6722" r="24.5289" gradientUnits="userSpaceOnUse">
			<stop  offset="0.4143" style="stop-color:#138843"/>
			<stop  offset="0.9772" style="stop-color:#056A32"/>
		</radialGradient>
		<path class="st128" d="M417,574l37-7.8c2.2-0.5,4.3,0.9,4.8,3.1l7.8,37c0.7,3.5-3.1,6.1-6.1,4.2l-44.8-29.2
			C412.7,579.4,413.5,574.8,417,574z"/>
		<g>
			<radialGradient id="SVGID_116_" cx="416.3643" cy="508.174" r="56.4915" gradientUnits="userSpaceOnUse">
				<stop  offset="0.4143" style="stop-color:#138843"/>
				<stop  offset="0.9772" style="stop-color:#056A32"/>
			</radialGradient>
			<path class="st129" d="M435,552.5c0,4.2-0.4,8.3-1,12.3l18.9-4c0.6-0.1,1.3-0.2,2-0.2c4.5,0,8.4,3.2,9.3,7.6l0.5,2.4
				c1-5.9,1.6-11.9,1.6-18.1c0-56.6-44.1-103-99.7-106.8V477C404.9,480.7,435,513.2,435,552.5z"/>
			<radialGradient id="SVGID_117_" cx="354.0801" cy="553.2059" r="104.2057" gradientUnits="userSpaceOnUse">
				<stop  offset="0.4143" style="stop-color:#138843"/>
				<stop  offset="0.9772" style="stop-color:#056A32"/>
			</radialGradient>
			<path class="st130" d="M428.2,583.9c-12,26.2-38.4,44.5-69,44.5c-41.8,0-75.9-34-75.9-75.9c0-36.9,26.5-67.7,61.4-74.5L334.6,468
				c-3.7-3.7-3.7-9.8,0-13.5l7.7-7.7c-51.1,8.1-90.2,52.4-90.2,105.7c0,59,48,107.1,107.1,107.1c42.8,0,79.7-25.2,96.9-61.6
				L428.2,583.9z"/>
		</g>
		<radialGradient id="SVGID_118_" cx="224.1711" cy="643.7772" r="71.2519" gradientUnits="userSpaceOnUse">
			<stop  offset="0" style="stop-color:#27499B"/>
			<stop  offset="1" style="stop-color:#283270"/>
		</radialGradient>
		<path class="st131" d="M275.8,628.2H126.3c-1.3,0-2.1,1.4-1.5,2.5l6.8,13.3c0.3,0.5,0.2,1.1,0,1.6l-6.5,11.2
			c-0.7,1.1,0.2,2.6,1.5,2.6h197.2C305.2,653.2,288.7,642.3,275.8,628.2z"/>
		<radialGradient id="SVGID_119_" cx="507.2222" cy="643.7772" r="80.4869" gradientUnits="userSpaceOnUse">
			<stop  offset="0" style="stop-color:#27499B"/>
			<stop  offset="1" style="stop-color:#283270"/>
		</radialGradient>
		<path class="st132" d="M442.4,628.2c-13.1,14.3-29.6,25.1-47.9,31.2H620v-31.2H442.4z"/>
		<g>
			<path class="st133" d="M151.4,637.8c2.4,0,3.6,0.9,3.6,3.1c0,1.6-0.6,2.3-1.6,2.8c1.1,0.4,1.9,1.1,1.9,2.9c0,2.6-1.5,3.4-3.8,3.4
				H147v-12.1H151.4z M148.4,639v4.2h3.1c1.5,0,2.2-0.7,2.2-2.2c0-1.4-0.7-2-2.3-2H148.4z M148.4,644.4v4.4h3.2
				c1.5,0,2.4-0.5,2.4-2.3c0-1.9-1.6-2.1-2.5-2.1H148.4z"/>
			<path class="st133" d="M159.2,645.3v4.7h-1.4v-12.1h4.5c2.5,0,3.9,1.1,3.9,3.7c0,1.8-0.7,3-2.2,3.5l2.3,4.9h-1.5l-2.2-4.7H159.2z
				 M162.3,639h-3.1v5.1h3.2c1.8,0,2.5-1.1,2.5-2.6C164.8,639.8,164,639,162.3,639z"/>
			<path class="st133" d="M170.8,637.8h2.9l3.3,12.1h-1.3l-0.9-3.1h-5.2l-0.9,3.1h-1.3L170.8,637.8z M169.9,645.6h4.6l-1.8-6.7h-0.9
				L169.9,645.6z"/>
			<path class="st133" d="M179,637.8h1.4V650H179V637.8z"/>
			<path class="st133" d="M183.3,637.8h2.5l4.7,10.9h0.4v-10.9h1.3V650h-2.5L185,639h-0.3V650h-1.4V637.8z"/>
			<path class="st133" d="M202,639.1c0,0-2.4-0.3-3.5-0.3c-1.7,0-2.6,0.6-2.6,2c0,1.6,0.8,1.8,3,2.3c2.4,0.5,3.5,1.1,3.5,3.3
				c0,2.7-1.5,3.7-3.9,3.7c-1.4,0-3.8-0.4-3.8-0.4l0.1-1.1c0,0,2.4,0.3,3.6,0.3c1.7,0,2.6-0.8,2.6-2.4c0-1.4-0.7-1.8-2.7-2.1
				c-2.5-0.5-3.8-1.1-3.8-3.5c0-2.4,1.5-3.3,3.9-3.3c1.4,0,3.7,0.4,3.7,0.4L202,639.1z"/>
			<path class="st133" d="M204.2,643.9c0-4,1-6.3,4.8-6.3c3.8,0,4.8,2.3,4.8,6.3c0,4.2-1,6.2-4.8,6.2
				C205.2,650.1,204.2,648,204.2,643.9z M212.4,643.9c0-3.3-0.6-5.1-3.4-5.1c-2.8,0-3.4,1.8-3.4,5.1c0,3.3,0.6,5,3.4,5
				C211.8,648.9,212.4,647.4,212.4,643.9z"/>
			<path class="st133" d="M217.6,645.3v4.7h-1.4v-12.1h4.5c2.5,0,3.9,1.1,3.9,3.7c0,1.8-0.7,3-2.2,3.5l2.3,4.9h-1.5l-2.2-4.7H217.6z
				 M220.7,639h-3.1v5.1h3.2c1.8,0,2.5-1.1,2.5-2.6C223.2,639.8,222.4,639,220.7,639z"/>
			<path class="st133" d="M227,637.8h2.5l4.7,10.9h0.4v-10.9h1.3V650h-2.5l-4.7-10.9h-0.3V650H227V637.8z"/>
			<path class="st133" d="M238.9,637.8h2.4l3.4,10.3l3.4-10.3h2.4V650h-1.4v-10.7h-0.2l-3.5,10.3H244l-3.5-10.3h-0.2V650h-1.4V637.8
				z"/>
		</g>
		<g>
			<path class="st118" d="M370.9,644.7l0.7,4.4l-1.3,0.2l-1.9-11.6l4.3-0.7c2.4-0.4,3.9,0.5,4.3,2.9c0.3,1.7-0.2,3-1.6,3.7l3,4.4
				l-1.4,0.2l-2.8-4.1L370.9,644.7z M372.9,638.1l-3,0.5l0.8,4.9l3-0.5c1.7-0.3,2.2-1.4,2-2.9C375.5,638.6,374.6,637.9,372.9,638.1z
				"/>
			<path class="st118" d="M378.3,636l6.9-1.9l0.3,1.1l-5.6,1.5l1.1,3.9l4.7-1.3l0.3,1.1l-4.7,1.3l1.1,4.1l5.6-1.5l0.3,1.1l-6.9,1.9
				L378.3,636z"/>
			<path class="st118" d="M391.2,644.5l-4.4-10.9l3.9-1.6c3.2-1.3,4.9,0.6,6.2,3.7c1.2,3.1,1.4,6-1.8,7.2L391.2,644.5z M391.2,633
				l-2.7,1.1l3.5,8.8l2.7-1.1c2.3-0.9,1.9-3.3,1-5.7S393.4,632.1,391.2,633z"/>
			<path class="st118" d="M396.5,629.5l6.3-3.4l0.5,1l-5.2,2.8l1.9,3.6l4.3-2.3l0.5,1l-4.3,2.3l2,3.8l5.2-2.8l0.5,1l-6.3,3.4
				L396.5,629.5z"/>
			<path class="st118" d="M410.4,622.6c0,0-2.1,1.1-2.9,1.6c-1.4,0.9-1.8,1.9-1,3c0.9,1.3,1.7,1,3.6,0.3c2.2-0.9,3.4-1,4.6,0.7
				c1.5,2.2,0.8,3.8-1.1,5.1c-1.2,0.8-3.3,1.8-3.3,1.8l-0.5-1c0,0,2.1-1,3.1-1.7c1.4-0.9,1.7-2,0.8-3.4c-0.7-1.1-1.5-1-3.3-0.3
				c-2.3,0.9-3.7,1.1-4.9-0.7c-1.3-1.9-0.5-3.5,1.4-4.7c1.2-0.8,3.1-1.7,3.1-1.7L410.4,622.6z"/>
			<path class="st118" d="M411.5,620.1l1-0.8l7.3,9.3l-1,0.8L411.5,620.1z"/>
			<path class="st118" d="M421.8,618.8l2.4-2.2l3.9,4.3c-0.2,0.3-1.6,2-2.5,2.9c-2.7,2.4-4.9,1.5-7.4-1.3c-2.6-2.9-3.4-5.1-0.8-7.5
				c1.3-1.2,3.1-2.3,3.1-2.3l0.7,0.8c0,0-1.8,1.2-2.9,2.2c-2,1.8-1.4,3.4,0.9,5.9c2.2,2.4,3.7,3.2,5.7,1.3c0.6-0.6,1.4-1.5,1.6-1.8
				l-2.5-2.7l-1.4,1.3L421.8,618.8z"/>
			<path class="st118" d="M421.7,611l1.6-1.9l11,3.5l0.2-0.3l-8.1-6.9l0.8-1l8.9,7.6l-1.6,1.8l-11-3.4l-0.2,0.2l8.1,6.9l-0.9,1
				L421.7,611z"/>
			<path class="st118" d="M451.2,517l-10.9,4.5l-1.6-3.9c-1.3-3.2,0.5-4.9,3.6-6.2c3.1-1.3,5.9-1.5,7.3,1.7L451.2,517z M439.8,517.2
				l1.1,2.7l8.7-3.6l-1.1-2.7c-0.9-2.3-3.3-1.9-5.7-0.9C440.5,513.6,438.8,514.9,439.8,517.2z"/>
			<path class="st118" d="M436.1,511.9l-3.5-6.3l1-0.6l2.8,5.1l3.6-2l-2.3-4.2l1-0.6l2.3,4.2l3.7-2.1l-2.8-5.1l1-0.6l3.5,6.3
				L436.1,511.9z"/>
			<path class="st118" d="M427.1,497.6l11.4-4.2l1.7,2.4l-7.9,9.3l-0.8-1.1l7.1-8.3l-0.5-0.8l-10.2,3.9L427.1,497.6z"/>
			<path class="st118" d="M426.2,496.5l-4.7-5.4l0.9-0.8l3.8,4.4l3.1-2.7l-3.2-3.6l0.9-0.7l3.2,3.6l3.2-2.8l-3.8-4.4l0.9-0.8
				l4.7,5.4L426.2,496.5z"/>
			<path class="st118" d="M428.3,481.4l-8.1,8.5l-0.9-0.9l7.3-7.7l-3.7-3.6l0.8-0.9L428.3,481.4z"/>
			<path class="st118" d="M418.9,480.4c-2.4,3.1-4.5,4.2-7.4,2c-2.9-2.2-2.3-4.6,0.1-7.7c2.5-3.2,4.5-4.1,7.4-1.9
				S421.3,477.3,418.9,480.4z M412.6,475.6c-1.9,2.5-2.5,4.3-0.4,5.9c2.1,1.7,3.7,0.6,5.6-1.9c2-2.5,2.5-4.2,0.4-5.8
				C416,472.1,414.6,473,412.6,475.6z"/>
			<path class="st118" d="M409.2,471.1l2-3.4l1.1,0.7l-6.1,10.1l-3.7-2.2c-2.2-1.3-2.6-3-1.3-5.2c1.3-2.2,3.1-2.8,5.3-1.5
				L409.2,471.1z M406.1,470.5c-1.5-0.9-2.6-0.4-3.6,1.2c-0.9,1.5-0.7,2.6,0.7,3.5l2.5,1.5l2.8-4.7L406.1,470.5z"/>
			<path class="st118" d="M322.5,471.8l-6.4,3.2l-0.5-1l5.2-2.6l-1.8-3.6l-4.3,2.2l-0.5-1l4.3-2.2l-1.9-3.8l-5.2,2.6l-0.5-1l6.4-3.2
				L322.5,471.8z"/>
			<path class="st118" d="M307.8,480.2l-3.7-11.6l2.5-1.6l8.9,8.3l-1.1,0.7l-8-7.5l-0.8,0.5l3.4,10.4L307.8,480.2z"/>
			<path class="st118" d="M305.4,482.1l-2.2,1.8l-9.8-7.2l1-0.8l2.5,1.8l3.9-3.1l-1.2-2.9l1-0.8L305.4,482.1z M301.3,475.7l-3.5,2.8
				l5.4,3.9l0.7-0.6L301.3,475.7z"/>
			<path class="st118" d="M291.5,478.4l8.2,8.4l-0.9,0.9l-7.4-7.6l-3.7,3.6l-0.8-0.8L291.5,478.4z"/>
			<path class="st118" d="M283.5,488.2c-1.2,1.4-1.3,2.7,0.1,3.8l6.3,5.3l-0.8,1l-6.3-5.3c-2.1-1.7-1.9-3.5-0.2-5.6
				c1.7-2,3.4-2.4,5.5-0.7l6.3,5.3l-0.8,1l-6.3-5.3C285.9,486.5,284.7,486.9,283.5,488.2z"/>
			<path class="st118" d="M286.6,501.9l-1.6,2.4l-11.6-3.8l0.7-1.1l3,1l2.8-4.2l-2-2.4l0.7-1.1L286.6,501.9z M280.8,497l-2.5,3.7
				l6.4,2.1l0.5-0.7L280.8,497z"/>
			<path class="st118" d="M283.6,506.5l-4,7.5l-1-0.6l1.7-3.2l-9.3-5l0.6-1.1l9.3,5l1.7-3.2L283.6,506.5z"/>
			<path class="st118" d="M279.1,515l-2.7,6.6l-1.1-0.4l2.2-5.4l-3.8-1.5l-1.8,4.5l-1.1-0.4l1.8-4.5l-3.9-1.6l-2.2,5.4l-1.1-0.4
				l2.7-6.6L279.1,515z"/>
			<path class="st118" d="M275.1,525.6l-2.1,8.2l-1.1-0.3l0.9-3.5l-10.3-2.6l0.3-1.3l10.3,2.6l0.9-3.5L275.1,525.6z"/>
			<path class="st118" d="M265.4,541.3l0.8-5.9l-5.3-0.7l0.2-1.3l11.7,1.6l-0.2,1.3l-5.2-0.7l-0.8,5.9l5.2,0.7l-0.2,1.3l-11.7-1.6
				l0.2-1.3L265.4,541.3z"/>
			<path class="st118" d="M271.5,545.8l-0.2,7.2l-1.2,0l0.1-5.8l-4.1-0.1l-0.1,4.8l-1.1,0l0.1-4.8l-4.2-0.1l-0.1,5.8l-1.2,0l0.2-7.2
				L271.5,545.8z"/>
			<path class="st118" d="M271.8,560.4l0.3,2.8l-11.3,4.6l-0.2-1.3l2.9-1.2l-0.6-5l-3.1-0.5l-0.2-1.3L271.8,560.4z M264.2,560.5
				l0.5,4.4l6.2-2.5l-0.1-0.9L264.2,560.5z"/>
			<path class="st118" d="M265.5,570.8l-3.9,0.9l-0.3-1.3l11.4-2.7l1,4.2c0.6,2.5-0.3,3.9-2.8,4.5c-2.5,0.6-4.2-0.2-4.8-2.7
				L265.5,570.8z M267.4,573.4c0.4,1.7,1.6,2.1,3.3,1.7c1.8-0.4,2.4-1.3,2-3l-0.7-2.9l-5.3,1.3L267.4,573.4z"/>
			<path class="st118" d="M268.2,580.8l-3.7,1.3l-0.4-1.2l11.1-3.9l1.4,4.1c0.9,2.4,0.1,4-2.3,4.8c-2.4,0.9-4.2,0.2-5-2.2
				L268.2,580.8z M270.3,583.2c0.6,1.6,1.8,1.9,3.5,1.3c1.7-0.6,2.2-1.6,1.7-3.2l-1-2.8l-5.2,1.8L270.3,583.2z"/>
			<path class="st118" d="M267.9,591l10.6-5l0.6,1.2l-9.6,4.5l2.2,4.7l-1.1,0.5L267.9,591z"/>
			<path class="st118" d="M282,593l0.6,1.1l-10.3,5.7l-0.6-1.1L282,593z"/>
			<path class="st118" d="M278.2,608.6c-0.6-0.6-1.5-1.6-2.1-2.5c-1.9-2.9-0.6-4.8,2.7-6.9c3.3-2.2,5.5-2.7,7.4,0.2
				c0.7,1,1.2,2.2,1.5,2.9l-1,0.6c-0.3-0.7-0.9-2-1.4-2.7c-1.4-2.2-3-1.7-5.8,0.1c-2.7,1.8-3.8,3-2.3,5.3c0.5,0.8,1.3,1.8,1.9,2.4
				L278.2,608.6z"/>
			<path class="st118" d="M290.2,605.3l1.8,2.2l-7,10l-0.8-1l1.8-2.6l-3.2-3.9l-2.9,1.3l-0.8-1L290.2,605.3z M283.9,609.5l2.8,3.4
				l3.8-5.5l-0.6-0.7L283.9,609.5z"/>
			<path class="st118" d="M293.7,609.5l6,6l-0.8,0.8l-2.5-2.5l-7.5,7.5l-0.9-0.9l7.5-7.5l-2.6-2.6L293.7,609.5z"/>
			<path class="st118" d="M300.7,616.4l1,0.9l-7.7,8.9l-1-0.9L300.7,616.4z"/>
			<path class="st118" d="M299.7,623.4c2.3-3.1,4.4-4.3,7.4-2.2c2.9,2.2,2.5,4.5,0.1,7.7c-2.4,3.3-4.4,4.2-7.3,2.1
				C296.9,628.8,297.4,626.6,299.7,623.4z M306.1,628.1c1.9-2.6,2.4-4.3,0.3-5.9c-2.2-1.6-3.7-0.5-5.6,2c-1.9,2.6-2.4,4.2-0.2,5.9
				C302.8,631.7,304.1,630.8,306.1,628.1z"/>
			<path class="st118" d="M312.2,625.1l2.1,1.2l-1.2,11.5l0.3,0.2l5.2-9.3l1.1,0.6l-5.7,10.3l-2.1-1.2l1.2-11.5l-0.3-0.2l-5.2,9.3
				l-1.1-0.6L312.2,625.1z"/>
		</g>
	</g>
</g>
<radialGradient id="SVGID_120_" cx="630.0609" cy="645.2036" r="24.9689" gradientUnits="userSpaceOnUse">
	<stop  offset="0" style="stop-color:#27499B"/>
	<stop  offset="1" style="stop-color:#283270"/>
</radialGradient>
<path class="st134" d="M619.5,615.6l26.7,26.7c1.6,1.6,1.6,4.1,0,5.7l-26.7,26.7c-2.5,2.5-6.8,0.7-6.8-2.8v-53.4
	C612.7,614.9,617,613.1,619.5,615.6z"/>
<g>
	<path class="st133" d="M446.8,650v-11.1h1.2v10h4.9v1.1H446.8z"/>
	<path class="st133" d="M456.6,638.9h2.7l3,11.1h-1.2l-0.8-2.8h-4.7l-0.8,2.8h-1.2L456.6,638.9z M455.8,646h4.2l-1.7-6.1h-0.8
		L455.8,646z"/>
	<path class="st133" d="M467.7,649c1.7,0,2.7-0.7,2.7-2.4v-7.7h1.2v7.7c0,2.5-1.4,3.5-3.9,3.5c-2.4,0-3.8-1-3.8-3.5v-7.7h1.2v7.7
		C465.1,648.3,466,649,467.7,649z"/>
	<path class="st133" d="M474.2,638.9h2.3l4.2,10h0.3v-10h1.2V650h-2.3l-4.3-10h-0.3v10h-1.2V638.9z"/>
	<path class="st133" d="M491.7,649.8c-0.8,0.2-2,0.3-3.1,0.3c-3.3,0-4-2-4-5.7c0-3.7,0.7-5.7,4-5.7c1.1,0,2.4,0.2,3.1,0.4l0,1
		c-0.7-0.1-2-0.3-2.9-0.3c-2.5,0-2.9,1.5-2.9,4.6c0,3.1,0.4,4.6,2.9,4.6c0.9,0,2.1-0.1,2.8-0.3L491.7,649.8z"/>
	<path class="st133" d="M500.6,644.9H495v5h-1.2v-11.1h1.2v5h5.6v-5h1.2V650h-1.2V644.9z"/>
	<path class="st133" d="M504.6,638.9h6.7v1.1h-5.5v3.8h4.5v1.1h-4.5v4h5.5v1.1h-6.7V638.9z"/>
	<path class="st133" d="M519.6,640.1c0,0-2.2-0.3-3.2-0.3c-1.6,0-2.4,0.6-2.4,1.8c0,1.4,0.8,1.7,2.7,2.1c2.2,0.5,3.2,1,3.2,3
		c0,2.4-1.3,3.4-3.5,3.4c-1.3,0-3.5-0.4-3.5-0.4l0.1-1c0,0,2.2,0.3,3.3,0.3c1.6,0,2.4-0.7,2.4-2.2c0-1.2-0.7-1.6-2.5-2
		c-2.3-0.5-3.4-1-3.4-3.2c0-2.1,1.4-3,3.6-3c1.3,0,3.3,0.3,3.3,0.3L519.6,640.1z"/>
	<path class="st133" d="M524.4,638.9h8v1.1H529v10h-1.2v-10h-3.4V638.9z"/>
	<path class="st133" d="M540.8,644.9h-5.6v5H534v-11.1h1.2v5h5.6v-5h1.2V650h-1.2V644.9z"/>
	<path class="st133" d="M544.8,638.9h6.7v1.1H546v3.8h4.5v1.1H546v4h5.5v1.1h-6.7V638.9z"/>
	<path class="st133" d="M557.1,638.9h2.2l3.1,9.4l3.1-9.4h2.2V650h-1.2v-9.8h-0.2l-3.2,9.4h-1.4l-3.2-9.4h-0.2v9.8h-1.2V638.9z"/>
	<path class="st133" d="M572.6,638.9h2.7l3,11.1h-1.2l-0.8-2.8h-4.7l-0.8,2.8h-1.2L572.6,638.9z M571.9,646h4.2l-1.7-6.1h-0.8
		L571.9,646z"/>
	<path class="st133" d="M581.3,645.7v4.2h-1.2v-11.1h4.1c2.3,0,3.5,1,3.5,3.4c0,1.6-0.6,2.8-2,3.2l2.1,4.5h-1.4l-2-4.2H581.3z
		 M584.2,640h-2.9v4.7h2.9c1.7,0,2.3-1,2.3-2.4C586.5,640.7,585.8,640,584.2,640z"/>
	<path class="st133" d="M593,645.1l-1.8,0.1v4.8H590v-11.1h1.2v5.2l1.8-0.1l2.8-5.1h1.4l-3.2,5.6l3.3,5.5H596L593,645.1z"/>
	<path class="st133" d="M599.1,638.9h6.7v1.1h-5.5v3.8h4.5v1.1h-4.5v4h5.5v1.1h-6.7V638.9z"/>
	<path class="st133" d="M606.8,638.9h8v1.1h-3.4v10h-1.2v-10h-3.4V638.9z"/>
</g>
</svg>
