<?xml version="1.0" encoding="utf-8"?>
<!-- Generator: Adobe Illustrator 21.1.0, SVG Export Plug-In . SVG Version: 6.00 Build 0)  -->
<svg version="1.1" id="Capa_1" xmlns="http://www.w3.org/2000/svg" xmlns:xlink="http://www.w3.org/1999/xlink" x="0px" y="0px"
	 viewBox="0 0 512 549.6" style="enable-background:new 0 0 512 549.6;" xml:space="preserve">
<style type="text/css">
	.st0{fill:#FFFFFF;}
	.st1{opacity:0.5;}
</style>
<g>
	<g>
		<g>
			<path class="st0" d="M27.4,160.2c-0.3-0.4-0.4-1.1-0.4-2l0-1.4c0-0.2,0-0.4,0-0.5c0-0.1-0.1-0.2-0.2-0.2c-0.3,0-0.8,0.4-1.7,1.1
				c-0.9,0.7-1.8,1.5-2.7,2.5c-0.1,0.1-0.2,0.3-0.4,0.4c-0.2,0.2-0.3,0.3-0.5,0.4c-0.1,0.1-0.3,0.1-0.4,0.1c-0.2,0-0.4-0.1-0.5-0.2
				l-0.3-0.3c-0.1-0.1-0.2-0.3-0.2-0.4l0.1-0.3l0.7-2c0.5-1.1,0.7-1.7,0.8-2c0.1-0.3,0.1-0.4,0-0.4c-0.2,0-0.4,0.1-0.8,0.3
				c-0.3,0.2-0.5,0.3-0.6,0.5c0,0-0.2,0.1-0.4,0.3c-0.2,0.2-0.4,0.4-0.6,0.5c-0.2,0.3-0.6,0.8-1.4,1.5l-0.7,0.7
				c-0.3,0.2-0.7,0.8-1.3,1.5c-0.3,0.4-0.5,0.6-0.5,0.6c-0.6,0-1-0.3-1.2-0.9c-0.1-0.1-0.1-0.3-0.1-0.6c0-0.3,0.1-1,0.4-2
				c0.2-0.7,0.3-1.1,0.3-1.3l0.2-0.6c0-0.3,0.1-0.6,0.3-1c0.1-0.4,0.4-1,0.7-1.8c0.2-0.6,0.3-1,0.3-1.3c0-0.3,0.1-0.5,0.3-0.6
				c0.2-0.2,0.4-0.2,0.6-0.2c0.3,0,0.5,0.1,0.7,0.3c0.2,0.2,0.3,0.5,0.3,0.9c0,0.4-0.1,0.7-0.2,1.1l-0.3,0.8
				c-0.2,0.3-0.4,0.9-0.6,1.6c-0.3,0.7-0.4,1.1-0.4,1.2c0,0.1,0.1,0,0.2,0c0.1-0.1,0.3-0.2,0.4-0.4c0.2-0.2,0.4-0.4,0.7-0.6
				c0.6-0.6,1.4-1.1,2.2-1.7c0.9-0.5,1.5-0.9,2-1c0.3,0,0.5,0,0.6,0.1c0.1,0.1,0.3,0.2,0.5,0.4c0.2,0.2,0.3,0.3,0.4,0.4
				c0.2,0.2,0.3,0.5,0.3,0.8c0,0.1,0,0.2-0.1,0.4c-0.1,0.3-0.2,0.6-0.3,1.1c-0.1,0.4-0.2,0.7-0.3,0.9c0.1-0.1,0.4-0.3,0.8-0.7
				c0.4-0.3,0.7-0.6,1-0.9c1-0.8,1.8-1.2,2.4-1.2c0.4,0,0.8,0.2,1.1,0.7c0.2,0.2,0.3,0.4,0.3,0.6c0,0.2,0.1,0.5,0.1,0.8s0,0.6,0,0.8
				c0,0.1,0,0.4,0,0.7c0,0.2,0,0.5,0.1,1c0,0.5,0.1,0.7,0.1,0.8c0.1,0.1,0.5,0.2,1.1,0.3c0.4,0.1,0.6,0.2,0.6,0.5
				c0,0.2-0.1,0.4-0.4,0.6c-0.3,0.2-0.6,0.2-1,0.2c-0.4,0-0.7-0.1-1-0.2C27.9,160.9,27.7,160.6,27.4,160.2z"/>
			<path class="st0" d="M31.5,160c0-0.3,0.1-0.5,0.2-0.7c0-0.1,0-0.2,0.1-0.4c0-0.1,0.1-0.2,0.1-0.3c0-0.1,0.1-0.5,0.2-1
				c0.4-0.8,0.9-2.3,1.5-4.4c0-0.1,0-0.2,0.1-0.3c0.1-0.1,0.2-0.1,0.4-0.1c0.2,0,0.3-0.1,0.3-0.1c0.1,0,0.2,0,0.3,0.1
				c0.1,0.1,0.2,0.3,0.4,0.5c0.1,0.1,0.2,0.3,0.2,0.6c0,0.4-0.1,0.9-0.4,1.4c-0.3,0.6-0.4,1.1-0.5,1.6c-0.2,0.6-0.4,1.1-0.6,1.5
				c0,0.1-0.1,0.4-0.2,0.7s-0.2,0.7-0.3,0.9c-0.1,0.6-0.2,1-0.3,1.2c-0.1,0.2-0.2,0.3-0.3,0.3c-0.1,0-0.3-0.1-0.6-0.4
				C31.6,161,31.5,160.6,31.5,160z M34.6,147.9c-0.1-0.4-0.1-0.5,0-0.5c0.2,0,0.4-0.2,0.6-0.5c0.2-0.3,0.3-0.6,0.3-0.9
				c0-0.1,0-0.2,0.1-0.2c0.1-0.1,0.1-0.1,0.2-0.1c0.2-0.1,0.3-0.2,0.4-0.2c0.4,0,0.7,0.2,1,0.7c0.1,0.3,0.2,0.5,0.2,0.7
				c0,0.2-0.1,0.4-0.2,0.6c-0.1,0.2-0.3,0.4-0.6,0.8c-0.4,0.5-0.7,0.7-1,0.7c-0.2,0-0.4-0.1-0.7-0.3
				C34.8,148.5,34.7,148.3,34.6,147.9z"/>
			<path class="st0" d="M38.2,161.7c-0.4-0.3-0.6-0.5-0.7-0.7c0,0,0-0.1,0-0.2c0-0.1,0-0.2,0.1-0.2c0.1,0,0.2,0,0.3,0
				c0.4,0,0.9,0,1.7,0.1c0.5,0,1-0.1,1.5-0.2c0.6-0.1,0.9-0.2,1-0.4c0.1,0,0.1,0,0.1,0c0,0-0.1-0.1-0.2-0.3c0,0-0.1,0-0.3-0.1
				c-0.1-0.1-0.2-0.1-0.3-0.1c0-0.1-0.1-0.2-0.3-0.3c-0.2-0.1-0.4-0.3-0.6-0.4c-0.6-0.5-1-0.9-1.3-1.1c-0.2-0.2-0.3-0.4-0.3-0.5
				v-0.2c-0.1,0-0.3-0.2-0.5-0.6c-0.2-0.4-0.3-0.8-0.3-1.1c0-0.4,0.2-0.9,0.5-1.6c0.3-0.7,0.7-1.2,1.1-1.6c0.6-0.5,1.3-1.1,2.2-1.7
				c0.9-0.6,1.6-1,2.2-1.1c0.4-0.1,0.7-0.2,1.1-0.2c0.3,0,0.6,0.1,0.8,0.2c0.3,0.2,0.5,0.4,0.8,0.7c0.3,0.3,0.4,0.6,0.5,0.8
				c0,0.5,0,0.9-0.1,1.3c-0.1,0.4-0.2,0.6-0.4,0.6c0,0-0.1,0-0.1,0c0,0-0.1,0.1-0.1,0.2c0,0.1,0,0.2-0.1,0.3
				c-0.1,0.1-0.2,0.3-0.3,0.4c-0.5,0.3-0.8,0.5-1.1,0.5c-0.2,0-0.4-0.1-0.4-0.3c0,0-0.1-0.1-0.1-0.2s-0.1-0.1-0.2-0.1
				c0,0-0.1,0-0.1-0.1s-0.1-0.2-0.1-0.3c0-0.1,0-0.1,0.1-0.2c0.1-0.1,0.1-0.1,0.1-0.1c0.1,0,0.3-0.2,0.6-0.7c0.3-0.5,0.4-0.8,0.4-1
				c0-0.1,0-0.2,0-0.2c0,0-0.1,0-0.3,0c-1.6,0.7-2.6,1.3-3,1.6c-0.1,0.1-0.1,0.2-0.1,0.2c0,0-0.1,0.1-0.2,0.1c0-0.2-0.5,0.5-1.6,2.1
				c0,0-0.1,0.2-0.1,0.4c-0.1,0.2-0.1,0.4-0.1,0.5c0,0.2-0.1,0.3-0.1,0.3c0,0.1,0,0.2,0.1,0.2s0.2,0.2,0.3,0.3
				c0.1,0.1,0.2,0.2,0.4,0.3c1.1,0.8,1.8,1.4,2.2,1.8c0.4,0.4,0.7,0.7,0.8,1c0.3,0.4,0.4,0.8,0.4,1.1c0,0.2-0.1,0.5-0.3,0.7
				c-0.2,0.2-0.5,0.4-0.8,0.5c-0.2,0.1-0.6,0.2-1.1,0.3c-0.5,0.1-1.1,0.1-1.6,0.1c-0.3,0-0.6,0-0.9-0.1
				C38.9,162.2,38.5,162,38.2,161.7z"/>
			<path class="st0" d="M48.8,161.7c-0.4-0.3-0.6-0.5-0.7-0.7c0,0,0-0.1,0-0.2c0-0.1,0-0.2,0.1-0.2c0.1,0,0.2,0,0.3,0
				c0.4,0,0.9,0,1.7,0.1c0.5,0,1-0.1,1.5-0.2c0.6-0.1,0.9-0.2,1-0.4c0.1,0,0.1,0,0.1,0c0,0-0.1-0.1-0.2-0.3c0,0-0.1,0-0.3-0.1
				c-0.1-0.1-0.2-0.1-0.3-0.1c0-0.1-0.1-0.2-0.3-0.3c-0.2-0.1-0.4-0.3-0.6-0.4c-0.6-0.5-1-0.9-1.3-1.1c-0.2-0.2-0.3-0.4-0.3-0.5
				v-0.2c-0.1,0-0.3-0.2-0.5-0.6c-0.2-0.4-0.3-0.8-0.3-1.1c0-0.4,0.2-0.9,0.5-1.6c0.3-0.7,0.7-1.2,1.1-1.6c0.6-0.5,1.3-1.1,2.2-1.7
				c0.9-0.6,1.6-1,2.2-1.1c0.4-0.1,0.7-0.2,1.1-0.2c0.3,0,0.6,0.1,0.8,0.2c0.3,0.2,0.5,0.4,0.8,0.7c0.3,0.3,0.4,0.6,0.5,0.8
				c0,0.5,0,0.9-0.1,1.3c-0.1,0.4-0.2,0.6-0.4,0.6c0,0-0.1,0-0.1,0c0,0-0.1,0.1-0.1,0.2c0,0.1,0,0.2-0.1,0.3
				c-0.1,0.1-0.2,0.3-0.3,0.4c-0.5,0.3-0.8,0.5-1.1,0.5c-0.2,0-0.4-0.1-0.4-0.3c0,0-0.1-0.1-0.1-0.2s-0.1-0.1-0.2-0.1
				c0,0-0.1,0-0.1-0.1s-0.1-0.2-0.1-0.3c0-0.1,0-0.1,0.1-0.2c0.1-0.1,0.1-0.1,0.1-0.1c0.1,0,0.3-0.2,0.6-0.7c0.3-0.5,0.4-0.8,0.4-1
				c0-0.1,0-0.2,0-0.2c0,0-0.1,0-0.3,0c-1.6,0.7-2.6,1.3-3,1.6c-0.1,0.1-0.1,0.2-0.1,0.2c0,0-0.1,0.1-0.2,0.1c0-0.2-0.5,0.5-1.6,2.1
				c0,0-0.1,0.2-0.1,0.4c-0.1,0.2-0.1,0.4-0.1,0.5c0,0.2-0.1,0.3-0.1,0.3c0,0.1,0,0.2,0.1,0.2s0.2,0.2,0.3,0.3
				c0.1,0.1,0.2,0.2,0.4,0.3c1.1,0.8,1.8,1.4,2.2,1.8c0.4,0.4,0.7,0.7,0.8,1c0.3,0.4,0.4,0.8,0.4,1.1c0,0.2-0.1,0.5-0.3,0.7
				c-0.2,0.2-0.5,0.4-0.8,0.5c-0.2,0.1-0.6,0.2-1.1,0.3c-0.5,0.1-1.1,0.1-1.6,0.1c-0.3,0-0.6,0-0.9-0.1
				C49.5,162.2,49.1,162,48.8,161.7z"/>
			<path class="st0" d="M58.4,160c0-0.3,0.1-0.5,0.2-0.7c0-0.1,0-0.2,0.1-0.4c0-0.1,0.1-0.2,0.1-0.3c0-0.1,0.1-0.5,0.2-1
				c0.4-0.8,0.9-2.3,1.5-4.4c0-0.1,0-0.2,0.1-0.3c0.1-0.1,0.2-0.1,0.4-0.1c0.2,0,0.3-0.1,0.3-0.1c0.1,0,0.2,0,0.3,0.1
				c0.1,0.1,0.2,0.3,0.4,0.5c0.1,0.1,0.2,0.3,0.2,0.6c0,0.4-0.1,0.9-0.4,1.4c-0.3,0.6-0.4,1.1-0.5,1.6c-0.2,0.6-0.4,1.1-0.6,1.5
				c0,0.1-0.1,0.4-0.2,0.7s-0.2,0.7-0.3,0.9c-0.1,0.6-0.2,1-0.3,1.2c-0.1,0.2-0.2,0.3-0.3,0.3c-0.1,0-0.3-0.1-0.6-0.4
				C58.6,161,58.4,160.6,58.4,160z M61.5,147.9c-0.1-0.4-0.1-0.5,0-0.5c0.2,0,0.4-0.2,0.6-0.5c0.2-0.3,0.3-0.6,0.3-0.9
				c0-0.1,0-0.2,0.1-0.2c0.1-0.1,0.1-0.1,0.2-0.1c0.2-0.1,0.3-0.2,0.4-0.2c0.4,0,0.7,0.2,1,0.7c0.1,0.3,0.2,0.5,0.2,0.7
				c0,0.2-0.1,0.4-0.2,0.6c-0.1,0.2-0.3,0.4-0.6,0.8c-0.4,0.5-0.7,0.7-1,0.7c-0.2,0-0.4-0.1-0.7-0.3
				C61.7,148.5,61.6,148.3,61.5,147.9z"/>
			<path class="st0" d="M65.9,161.7c-0.1-0.1-0.4-0.2-0.6-0.5c-0.7-0.7-1-1.4-1-2c0-0.1,0-0.2,0-0.3c0.1-0.1,0.1-0.3,0.1-0.4
				c0-0.1,0-0.2,0-0.3c-0.1-0.1-0.1-0.1-0.1-0.2c0,0,0-0.1,0.1-0.1c0,0,0.1-0.1,0.1-0.1c0.1,0,0.2-0.1,0.1-0.3c0-0.2,0-0.5,0.2-1.1
				c0.2-0.6,0.5-1.1,0.8-1.6c0.2-0.4,0.6-0.8,1-1.4s0.8-1,1.2-1.3c0.5-0.4,0.9-0.8,1.3-1s0.8-0.4,1.3-0.5c0.4-0.1,0.7-0.2,0.8-0.2
				s0.3,0,0.4,0.1c0.1,0.1,0.3,0.2,0.4,0.4c0.6,0.2,0.9,0.6,1.2,0.9c0.2,0.4,0.3,1,0.3,1.8c0,1.3-0.5,2.8-1.6,4.4
				c-0.5,0.7-0.9,1.2-1.3,1.6c-0.4,0.4-1,0.7-1.6,1.2c-0.4,0.3-0.8,0.5-1.2,0.7c-0.4,0.1-0.8,0.2-1.2,0.2
				C66.2,161.8,66,161.8,65.9,161.7z M70.6,156.9c0.3-0.5,0.6-1.1,0.9-1.9c0.1-0.4,0.2-0.8,0.2-1.3c0-0.6-0.1-1-0.2-1.1
				c-0.2-0.1-0.4-0.2-0.6-0.2c-0.5,0-0.9,0.2-1.4,0.6c-0.6,0.5-1.1,1.2-1.6,1.9s-1,1.7-1.5,2.8c-0.2,0.4-0.3,0.9-0.3,1.3
				c0,0.3,0.1,0.6,0.2,0.7s0.4,0.3,0.6,0.3c0.7,0,1.5-0.6,2.6-1.7C69.9,157.9,70.3,157.4,70.6,156.9z"/>
			<path class="st0" d="M85.2,160.6c-0.3-0.2-0.5-0.5-0.7-0.9c-0.2-0.7-0.3-1.3-0.3-2c0-0.3,0-0.5,0.1-0.7c0.1-0.1,0.1-0.3,0.1-0.5
				c0-0.3,0-0.5,0-0.6c0-0.5-0.2-0.7-0.4-0.7c-0.2,0-0.4,0.1-0.6,0.2c-1.2,0.7-2.1,1.3-2.9,1.9c-0.8,0.5-1.5,1.1-2.3,1.7
				c-0.3,0.3-0.5,0.6-0.7,0.9c-0.1,0.2-0.2,0.4-0.3,0.5c-0.1,0.1-0.1,0.1-0.2,0.1c-0.1,0-0.2,0.1-0.2,0.1c-0.1,0-0.2-0.1-0.4-0.2
				c-0.1-0.1-0.2-0.2-0.3-0.2c-0.1-0.1-0.2-0.2-0.4-0.4c-0.2-0.2-0.3-0.3-0.3-0.4c0-0.2,0.1-0.5,0.2-1.1c0.1-0.6,0.2-1,0.3-1.1
				c0.1,0,0.2-0.1,0.3-0.4c0.1-0.3,0.2-0.5,0.3-0.6c0.1-0.3,0.3-1,0.8-2.1c0.3-0.5,0.5-0.9,0.6-1.2c0.1-0.3,0.2-0.7,0.2-1.2v-0.1
				c0-0.1,0-0.1,0.1-0.2c0.1-0.1,0.1-0.1,0.2-0.1c0.1-0.1,0.3-0.2,0.4-0.2c0.3,0,0.5,0.2,0.8,0.5c0.3,0.4,0.5,0.8,0.5,1.2
				c0,0.5-0.3,1.4-1,2.5c-0.1,0.1-0.2,0.4-0.3,0.6c-0.1,0.3-0.2,0.5-0.2,0.6l1.7-1.2c0.2-0.2,0.6-0.5,1.3-1c0.7-0.5,1.2-0.7,1.5-0.8
				c0.5-0.2,0.8-0.3,0.9-0.3c0.2,0,0.6,0.2,1,0.6s0.7,0.7,0.8,0.9c0,0.2,0,0.4,0.1,0.5c0.1,0.4,0.2,0.9,0.2,1.5c0,0.4,0,0.7-0.1,1
				c-0.1,0.3-0.1,0.5-0.2,0.5c0,0,0,0.1,0,0.1c0,0,0.1,0.1,0.1,0.1v0.2c-0.2,0-0.2,0.2-0.1,0.5c0.1,0.4,0.3,0.6,0.5,0.8
				c0.2,0.2,0.3,0.4,0.3,0.6c0,0.2-0.2,0.4-0.6,0.5C85.8,160.8,85.5,160.7,85.2,160.6z"/>
		</g>
	</g>
	<g>
		<g>
			<path class="st0" d="M158.4,112.3c-0.3-1.2-0.6-2.4-0.8-3.5c-0.1-0.4-0.2-1-0.5-1.8c-0.1-0.3-0.1-0.6-0.1-0.7
				c0-0.4,0.2-0.7,0.5-0.8c0.1-0.1,0.2-0.1,0.4-0.1c0.2,0,0.3,0,0.4,0c0.5,0.2,0.9,1.4,1.2,3.8c0.1,0.6,0.2,1.1,0.3,1.6
				s0.2,0.8,0.2,0.8c0.1,0.1,0.1,0.3,0.2,0.4c0.1,0.1,0.2,0.2,0.3,0.2c0.1,0,0.1,0,0.2-0.1c0.4-0.4,0.8-0.9,1.3-1.5
				c0.5-0.7,0.8-1.1,1-1.4c0.2-0.4,0.5-0.8,0.9-1.2c0.1-0.1,0.2-0.3,0.4-0.6c0.2-0.3,0.4-0.6,0.7-0.8c0.2-0.2,0.4-0.3,0.5-0.4
				c0.1,0,0.2,0,0.3,0c0.4,0,0.5,0.1,0.5,0.4c0,0.3-0.2,0.7-0.6,1.2c-0.1,0.2-0.3,0.4-0.4,0.7c-0.1,0.3-0.2,0.4-0.3,0.5
				c-0.2,0.5-0.6,1.1-1.3,1.9c-0.6,0.8-1,1.3-1.2,1.5c0,0-0.2,0.2-0.5,0.4s-0.6,0.5-0.8,0.9c-0.7,0.6-1.1,0.9-1.4,0.9
				c-0.2,0-0.4-0.1-0.6-0.3C159,114.2,158.7,113.5,158.4,112.3z"/>
			<path class="st0" d="M167.2,114c0-0.3,0.1-0.5,0.2-0.7c0-0.1,0-0.2,0.1-0.4c0-0.1,0.1-0.2,0.1-0.3c0-0.1,0.1-0.5,0.2-1
				c0.4-0.8,0.9-2.3,1.5-4.4c0-0.1,0-0.2,0.1-0.3c0.1-0.1,0.2-0.1,0.4-0.1c0.2,0,0.3-0.1,0.3-0.1c0.1,0,0.2,0,0.3,0.1
				c0.1,0.1,0.2,0.3,0.4,0.5c0.1,0.1,0.2,0.3,0.2,0.6c0,0.4-0.1,0.9-0.4,1.4c-0.3,0.6-0.4,1.1-0.5,1.6c-0.2,0.6-0.4,1.1-0.6,1.5
				c0,0.1-0.1,0.4-0.2,0.7s-0.2,0.7-0.3,0.9c-0.1,0.6-0.2,1-0.3,1.2c-0.1,0.2-0.2,0.3-0.3,0.3c-0.1,0-0.3-0.1-0.6-0.4
				C167.3,115,167.2,114.6,167.2,114z M170.2,101.9c-0.1-0.4-0.1-0.5,0-0.5c0.2,0,0.4-0.2,0.6-0.5c0.2-0.3,0.3-0.6,0.3-0.9
				c0-0.1,0-0.2,0.1-0.2c0.1-0.1,0.1-0.1,0.2-0.1c0.2-0.1,0.3-0.2,0.4-0.2c0.4,0,0.7,0.2,1,0.7c0.1,0.3,0.2,0.5,0.2,0.7
				c0,0.2-0.1,0.4-0.2,0.6c-0.1,0.2-0.3,0.4-0.6,0.8c-0.4,0.5-0.7,0.7-1,0.7c-0.2,0-0.4-0.1-0.7-0.3
				C170.4,102.5,170.3,102.3,170.2,101.9z"/>
			<path class="st0" d="M173.9,115.7c-0.4-0.3-0.6-0.5-0.7-0.7c0,0,0-0.1,0-0.2c0-0.1,0-0.2,0.1-0.2c0.1,0,0.2,0,0.3,0
				c0.4,0,0.9,0,1.7,0.1c0.5,0,1-0.1,1.5-0.2c0.6-0.1,0.9-0.2,1-0.4c0.1,0,0.1,0,0.1,0c0,0-0.1-0.1-0.2-0.3c0,0-0.1,0-0.3-0.1
				c-0.1-0.1-0.2-0.1-0.3-0.1c0-0.1-0.1-0.2-0.3-0.3c-0.2-0.1-0.4-0.3-0.6-0.4c-0.6-0.5-1-0.9-1.3-1.1c-0.2-0.2-0.3-0.4-0.3-0.5
				v-0.2c-0.1,0-0.3-0.2-0.5-0.6c-0.2-0.4-0.3-0.8-0.3-1.1c0-0.4,0.2-0.9,0.5-1.6c0.3-0.7,0.7-1.2,1.1-1.6c0.6-0.5,1.3-1.1,2.2-1.7
				c0.9-0.6,1.6-1,2.2-1.1c0.4-0.1,0.7-0.2,1.1-0.2c0.3,0,0.6,0.1,0.8,0.2c0.3,0.2,0.5,0.4,0.8,0.7c0.3,0.3,0.4,0.6,0.5,0.8
				c0,0.5,0,0.9-0.1,1.3c-0.1,0.4-0.2,0.6-0.4,0.6c0,0-0.1,0-0.1,0c0,0-0.1,0.1-0.1,0.2c0,0.1,0,0.2-0.1,0.3
				c-0.1,0.1-0.2,0.3-0.3,0.4c-0.5,0.3-0.8,0.5-1.1,0.5c-0.2,0-0.4-0.1-0.4-0.3c0,0-0.1-0.1-0.1-0.2s-0.1-0.1-0.2-0.1
				c0,0-0.1,0-0.1-0.1s-0.1-0.2-0.1-0.3c0-0.1,0-0.1,0.1-0.2c0.1-0.1,0.1-0.1,0.1-0.1c0.1,0,0.3-0.2,0.6-0.7c0.3-0.5,0.4-0.8,0.4-1
				c0-0.1,0-0.2,0-0.2c0,0-0.1,0-0.3,0c-1.6,0.7-2.6,1.3-3,1.6c-0.1,0.1-0.1,0.2-0.1,0.2c0,0-0.1,0.1-0.2,0.1c0-0.2-0.5,0.5-1.6,2.1
				c0,0-0.1,0.2-0.1,0.4c-0.1,0.2-0.1,0.4-0.1,0.5c0,0.2-0.1,0.3-0.1,0.3c0,0.1,0,0.2,0.1,0.2s0.2,0.2,0.3,0.3
				c0.1,0.1,0.2,0.2,0.4,0.3c1.1,0.8,1.8,1.4,2.2,1.8c0.4,0.4,0.7,0.7,0.8,1c0.3,0.4,0.4,0.8,0.4,1.1c0,0.2-0.1,0.5-0.3,0.7
				c-0.2,0.2-0.5,0.4-0.8,0.5c-0.2,0.1-0.6,0.2-1.1,0.3c-0.5,0.1-1.1,0.1-1.6,0.1c-0.3,0-0.6,0-0.9-0.1
				C174.6,116.2,174.2,116,173.9,115.7z"/>
			<path class="st0" d="M183.5,114c0-0.3,0.1-0.5,0.2-0.7c0-0.1,0-0.2,0.1-0.4c0-0.1,0.1-0.2,0.1-0.3c0-0.1,0.1-0.5,0.2-1
				c0.4-0.8,0.9-2.3,1.5-4.4c0-0.1,0-0.2,0.1-0.3c0.1-0.1,0.2-0.1,0.4-0.1c0.2,0,0.3-0.1,0.3-0.1c0.1,0,0.2,0,0.3,0.1
				c0.1,0.1,0.2,0.3,0.4,0.5c0.1,0.1,0.2,0.3,0.2,0.6c0,0.4-0.1,0.9-0.4,1.4c-0.3,0.6-0.4,1.1-0.5,1.6c-0.2,0.6-0.4,1.1-0.6,1.5
				c0,0.1-0.1,0.4-0.2,0.7s-0.2,0.7-0.3,0.9c-0.1,0.6-0.2,1-0.3,1.2c-0.1,0.2-0.2,0.3-0.3,0.3c-0.1,0-0.3-0.1-0.6-0.4
				C183.7,115,183.5,114.6,183.5,114z M186.6,101.9c-0.1-0.4-0.1-0.5,0-0.5c0.2,0,0.4-0.2,0.6-0.5c0.2-0.3,0.3-0.6,0.3-0.9
				c0-0.1,0-0.2,0.1-0.2c0.1-0.1,0.1-0.1,0.2-0.1c0.2-0.1,0.3-0.2,0.4-0.2c0.4,0,0.7,0.2,1,0.7c0.1,0.3,0.2,0.5,0.2,0.7
				c0,0.2-0.1,0.4-0.2,0.6c-0.1,0.2-0.3,0.4-0.6,0.8c-0.4,0.5-0.7,0.7-1,0.7c-0.2,0-0.4-0.1-0.7-0.3
				C186.8,102.5,186.7,102.3,186.6,101.9z"/>
			<path class="st0" d="M191,115.7c-0.1-0.1-0.4-0.2-0.6-0.5c-0.7-0.7-1-1.4-1-2c0-0.1,0-0.2,0-0.3c0.1-0.1,0.1-0.3,0.1-0.4
				c0-0.1,0-0.2,0-0.3c-0.1-0.1-0.1-0.1-0.1-0.2c0,0,0-0.1,0.1-0.1c0,0,0.1-0.1,0.1-0.1c0.1,0,0.2-0.1,0.1-0.3c0-0.2,0-0.5,0.2-1.1
				c0.2-0.6,0.5-1.1,0.8-1.6c0.2-0.4,0.6-0.8,1-1.4s0.8-1,1.2-1.3c0.5-0.4,0.9-0.8,1.3-1s0.8-0.4,1.3-0.5c0.4-0.1,0.7-0.2,0.8-0.2
				s0.3,0,0.4,0.1c0.1,0.1,0.3,0.2,0.4,0.4c0.6,0.2,0.9,0.6,1.2,0.9c0.2,0.4,0.3,1,0.3,1.8c0,1.3-0.5,2.8-1.6,4.4
				c-0.5,0.7-0.9,1.2-1.3,1.6c-0.4,0.4-1,0.7-1.6,1.2c-0.4,0.3-0.8,0.5-1.2,0.7c-0.4,0.1-0.8,0.2-1.2,0.2
				C191.3,115.8,191.1,115.8,191,115.7z M195.7,110.9c0.3-0.5,0.6-1.1,0.9-1.9c0.1-0.4,0.2-0.8,0.2-1.3c0-0.6-0.1-1-0.2-1.1
				c-0.2-0.1-0.4-0.2-0.6-0.2c-0.5,0-0.9,0.2-1.4,0.6c-0.6,0.5-1.1,1.2-1.6,1.9s-1,1.7-1.5,2.8c-0.2,0.4-0.3,0.9-0.3,1.3
				c0,0.3,0.1,0.6,0.2,0.7s0.4,0.3,0.6,0.3c0.7,0,1.5-0.6,2.6-1.7C195,111.9,195.4,111.4,195.7,110.9z"/>
			<path class="st0" d="M210.3,114.6c-0.3-0.2-0.5-0.5-0.7-0.9c-0.2-0.7-0.3-1.3-0.3-2c0-0.3,0-0.5,0.1-0.7c0.1-0.1,0.1-0.3,0.1-0.5
				c0-0.3,0-0.5,0-0.6c0-0.5-0.2-0.7-0.4-0.7c-0.2,0-0.4,0.1-0.6,0.2c-1.2,0.7-2.1,1.3-2.9,1.9c-0.8,0.5-1.5,1.1-2.3,1.7
				c-0.3,0.3-0.5,0.6-0.7,0.9c-0.1,0.2-0.2,0.4-0.3,0.5c-0.1,0.1-0.1,0.1-0.2,0.1c-0.1,0-0.2,0.1-0.2,0.1c-0.1,0-0.2-0.1-0.4-0.2
				c-0.1-0.1-0.2-0.2-0.3-0.2c-0.1-0.1-0.2-0.2-0.4-0.4c-0.2-0.2-0.3-0.3-0.3-0.4c0-0.2,0.1-0.5,0.2-1.1c0.1-0.6,0.2-1,0.3-1.1
				c0.1,0,0.2-0.1,0.3-0.4c0.1-0.3,0.2-0.5,0.3-0.6c0.1-0.3,0.3-1,0.8-2.1c0.3-0.5,0.5-0.9,0.6-1.2c0.1-0.3,0.2-0.7,0.2-1.2v-0.1
				c0-0.1,0-0.1,0.1-0.2c0.1-0.1,0.1-0.1,0.2-0.1c0.1-0.1,0.3-0.2,0.4-0.2c0.3,0,0.5,0.2,0.8,0.5c0.3,0.4,0.5,0.8,0.5,1.2
				c0,0.5-0.3,1.4-1,2.5c-0.1,0.1-0.2,0.4-0.3,0.6c-0.1,0.3-0.2,0.5-0.2,0.6l1.7-1.2c0.2-0.2,0.6-0.5,1.3-1c0.7-0.5,1.2-0.7,1.5-0.8
				c0.5-0.2,0.8-0.3,0.9-0.3c0.2,0,0.6,0.2,1,0.6s0.7,0.7,0.8,0.9c0,0.2,0,0.4,0.1,0.5c0.1,0.4,0.2,0.9,0.2,1.5c0,0.4,0,0.7-0.1,1
				c-0.1,0.3-0.1,0.5-0.2,0.5c0,0,0,0.1,0,0.1c0,0,0.1,0.1,0.1,0.1v0.2c-0.2,0-0.2,0.2-0.1,0.5c0.1,0.4,0.3,0.6,0.5,0.8
				c0.2,0.2,0.3,0.4,0.3,0.6c0,0.2-0.2,0.4-0.6,0.5C210.9,114.8,210.6,114.7,210.3,114.6z"/>
		</g>
	</g>
	<g>
		<g>
			<path class="st0" d="M289.5,124c-0.1-0.1-0.4-0.2-0.6-0.5c-0.7-0.7-1-1.4-1-2c0-0.1,0-0.2,0-0.3c0.1-0.1,0.1-0.3,0.1-0.4
				c0-0.1,0-0.2,0-0.3c-0.1-0.1-0.1-0.1-0.1-0.2c0,0,0-0.1,0.1-0.1c0,0,0.1-0.1,0.1-0.1c0.1,0,0.2-0.1,0.1-0.3c0-0.2,0-0.5,0.2-1.1
				c0.2-0.6,0.5-1.1,0.8-1.6c0.2-0.4,0.6-0.8,1-1.4s0.8-1,1.2-1.3c0.5-0.4,0.9-0.8,1.3-1s0.8-0.4,1.3-0.5c0.4-0.1,0.7-0.2,0.8-0.2
				s0.3,0,0.4,0.1c0.1,0.1,0.3,0.2,0.4,0.4c0.6,0.2,0.9,0.6,1.2,0.9c0.2,0.4,0.3,1,0.3,1.8c0,1.3-0.5,2.8-1.6,4.4
				c-0.5,0.7-0.9,1.2-1.3,1.6c-0.4,0.4-1,0.7-1.6,1.2c-0.4,0.3-0.8,0.5-1.2,0.7c-0.4,0.1-0.8,0.2-1.2,0.2
				C289.9,124.1,289.7,124,289.5,124z M294.3,119.2c0.3-0.5,0.6-1.1,0.9-1.9c0.1-0.4,0.2-0.8,0.2-1.3c0-0.6-0.1-1-0.2-1.1
				c-0.2-0.1-0.4-0.2-0.6-0.2c-0.5,0-0.9,0.2-1.4,0.6c-0.6,0.5-1.1,1.2-1.6,1.9s-1,1.7-1.5,2.8c-0.2,0.4-0.3,0.9-0.3,1.3
				c0,0.3,0.1,0.6,0.2,0.7s0.4,0.3,0.6,0.3c0.7,0,1.5-0.6,2.6-1.7C293.6,120.2,294,119.7,294.3,119.2z"/>
			<path class="st0" d="M301.6,123.9c-0.1-0.1-0.2-0.2-0.3-0.5c-0.2-0.2-0.3-0.3-0.3-0.4c0-0.1,0-0.2,0-0.3c0.2,0,0.4,0,0.4-0.1
				c0-0.1,0-0.1,0.1-0.1c0.1,0,0.1,0,0.2,0c0.6,0,1.4-0.2,2.4-0.9c1.1-0.6,2.1-1.4,3.2-2.4c0.6-0.8,1-1.4,1.3-1.8
				c0.2-0.4,0.4-0.8,0.4-1.1c0-0.2,0-0.3-0.1-0.5c-0.1-0.1-0.3-0.2-0.7-0.2c-0.6,0-1.3,0.2-2,0.7c-0.9,0.6-1.6,1.1-2.1,1.5
				c-0.5,0.5-1,1-1.5,1.6c-0.2,0.3-0.4,0.6-0.6,1c-0.2,0.4-0.3,0.7-0.4,0.8c0,0.1-0.1,0.2-0.4,0.3c-0.2,0.1-0.4,0.2-0.6,0.2
				c-0.1,0-0.2-0.1-0.4-0.2c-0.1-0.1-0.2-0.3-0.2-0.4c0,0-0.1-0.1-0.2-0.2s-0.2-0.1-0.2-0.2c0-0.1,0-0.1,0-0.2
				c0-0.1,0.1-0.4,0.2-0.8c0.1-0.4,0.2-0.7,0.3-0.9c0.2-0.8,0.4-1.6,0.6-2.4c0.3-0.8,0.4-1.3,0.5-1.4c0,0,0.1-0.2,0.1-0.3
				c0.1-0.2,0.1-0.4,0.1-0.6c0-0.2,0.1-0.4,0.2-0.6c0.1-0.2,0.1-0.4,0.1-0.4c0.1-0.1,0.4-0.9,1-2.4c0-0.1,0.2-0.6,0.7-1.6
				c0.7-1.6,1.1-2.5,1.2-3c0.2-0.3,0.4-0.5,0.5-0.8c0.2-0.4,0.4-0.6,0.5-0.7c0.2,0,0.4,0,0.6,0.1c0.3,0.1,0.5,0.3,0.6,0.5
				c0.1,0.1,0.2,0.2,0.2,0.3c0,0.1-0.1,0.3-0.2,0.6c-0.1,0.3-0.2,0.6-0.4,0.9c-0.1,0.3-0.2,0.5-0.3,0.7l-0.8,1.6
				c-0.6,1.2-1,2.2-1.4,3.1s-0.7,2-1.1,3.1l-0.6,1.5l-0.2,0.7l0.8-0.7c0.2-0.2,0.7-0.6,1.4-1.1c0.1-0.1,0.3-0.2,0.4-0.3
				c0.1-0.1,0.2-0.2,0.3-0.2c0.2-0.2,0.6-0.4,1.1-0.6c0.5-0.2,0.8-0.3,1-0.4c0.4-0.1,0.9-0.2,1.4-0.2c0.4,0,0.8,0.1,1.1,0.3
				c0.3,0.2,0.6,0.5,0.8,1c0.2,0.4,0.3,0.8,0.3,1.2c0,0.6-0.2,1.2-0.5,1.8c-0.1,0.1-0.2,0.2-0.3,0.3c-0.1,0.1-0.2,0.2-0.2,0.3
				c0,0.1-0.2,0.4-0.5,0.8c-0.3,0.4-0.7,0.9-1.1,1.3c-0.5,0.6-1.2,1.1-2.1,1.7c-0.9,0.6-1.6,0.9-2.2,1.1c-0.1,0-0.4,0.1-0.7,0.1
				c-0.3,0.1-0.6,0.1-0.7,0.1C301.9,124,301.7,123.9,301.6,123.9z"/>
			<path class="st0" d="M309.3,131.2c-0.7,0-1.4-0.3-1.9-0.8c-0.2-0.4-0.4-0.7-0.6-1.2s-0.2-0.8-0.2-1.2c0-0.4,0.1-0.6,0.3-0.6
				c0.1,0,0.3,0.1,0.4,0.2s0.2,0.3,0.2,0.6c0,0.3,0.1,0.6,0.2,0.9c0.2,0.2,0.4,0.4,0.6,0.4c0.2,0.1,0.5,0,0.9-0.2
				c0.4-0.2,0.7-0.5,0.9-0.9c0.3-0.4,0.7-1.1,1.2-2.1s0.9-1.9,1.1-2.5c0.2-0.9,0.6-2.4,1.1-4.7l0.2-0.7c0.1-0.5,0.1-0.9,0.3-1.4
				c0.1-0.4,0.2-0.7,0.2-0.8c0-0.5,0.1-0.9,0.2-1.2c0-0.3,0-0.5,0.1-0.8c0.1-0.3,0.1-0.4,0.1-0.5c0,0,0.1-0.1,0.2-0.1
				c0.1,0,0.3,0,0.4,0.1c0.2,0.1,0.3,0.2,0.4,0.3c0.2,0.2,0.3,0.3,0.3,0.4c0,0.1,0.1,0.2,0.1,0.4c0,0.3,0,0.7-0.1,1.2l-0.1,1
				c0,0.2-0.1,0.9-0.3,1.9c-0.2,1-0.4,1.9-0.6,2.6c-0.1,0.4-0.2,0.7-0.2,0.8c-0.1,0.4-0.2,0.8-0.2,1c0,0.2-0.2,0.6-0.4,1.3
				c-0.2,0.6-0.4,1-0.4,1.3c-0.1,0.4-0.3,1.1-0.7,2c-0.2,0.4-0.5,0.9-0.9,1.5s-0.8,1-1,1.3C310.6,131,310,131.2,309.3,131.2z
				 M315.6,108.7c0-0.5,0.2-1.1,0.7-1.6c0.3-0.4,0.6-0.5,1-0.5c0.2,0,0.5,0.1,0.7,0.3c0.2,0.4,0.3,0.6,0.3,0.9
				c0,0.2-0.1,0.5-0.3,0.8c-0.4,0.4-0.7,0.7-0.9,0.9c-0.2,0.2-0.5,0.3-0.7,0.3c-0.2,0-0.4-0.1-0.5-0.2
				C315.7,109.3,315.6,109,315.6,108.7z"/>
			<path class="st0" d="M322.2,124.1c-0.5,0-1-0.1-1.5-0.4s-0.9-0.6-1.2-1c-0.3-0.3-0.5-0.7-0.6-1.1c-0.1-0.4-0.2-0.9-0.2-1.5
				c0-0.2,0-0.6,0.1-1.2c0.1-0.8,0.3-1.6,0.8-2.4c0.4-0.8,1-1.6,1.7-2.2c0.7-0.7,1.3-1.1,2-1.3c0.3-0.2,0.6-0.3,0.9-0.3
				c0.1,0,0.3,0,0.4,0s0.3,0,0.5,0.1c0.5,0.1,0.8,0.1,1,0.3c0.2,0.1,0.4,0.3,0.6,0.5c0.5,0.5,0.8,1.1,0.8,1.8
				c-0.1,0.5-0.4,1.1-1,1.7c-0.6,0.6-1.2,1.2-2,1.5c-0.4,0.1-0.8,0.2-1.3,0.2c-0.6,0-1.2-0.1-1.6-0.4c-0.2-0.1-0.3-0.1-0.4-0.1
				c-0.2,0-0.3,0.1-0.4,0.4c-0.1,0.2-0.2,0.7-0.3,1.4c0,0.1,0,0.4,0,0.6c0,1.1,0.4,1.6,1.1,1.7c0.5,0.1,0.8,0.2,1,0.2
				c0.2,0,0.5-0.1,0.8-0.2l0.6-0.3c0.1-0.1,0.2-0.1,0.3-0.2c0.1-0.1,0.2-0.2,0.3-0.3c0,0,0.1-0.1,0.2-0.2c0.1-0.1,0.2-0.2,0.2-0.2
				c0.1,0,0.1,0,0.2,0c0.1,0,0.2,0,0.3,0.1c0.1,0.1,0.2,0.2,0.2,0.2c0.2,0,0.2,0.1,0.1,0.4c-0.1,0.3-0.3,0.6-0.7,0.9
				s-0.7,0.6-1.2,0.9C323.5,123.9,322.9,124.1,322.2,124.1z M325.1,116.1c0.4-0.4,0.5-0.7,0.5-0.9s-0.1-0.5-0.3-0.6
				c-0.2-0.2-0.4-0.2-0.8-0.2c-0.2,0-0.4,0-0.6,0.1c-0.3,0.1-0.6,0.3-1,0.7c-0.4,0.4-0.7,0.7-1,1.1c-0.3,0.4-0.4,0.6-0.3,0.7
				c0.1,0.2,0.5,0.3,1.2,0.3c0.5,0,0.9-0.1,1.2-0.2C324.3,116.7,324.7,116.5,325.1,116.1z"/>
			<path class="st0" d="M331.4,124.3c-0.8,0-1.4-0.2-1.9-0.7c-0.5-0.5-0.7-1.1-0.7-2c-0.1-0.9,0.1-2,0.6-3.4
				c0.5-1.3,1.1-2.5,1.8-3.4c0.5-0.6,1-1.1,1.3-1.5s0.7-0.6,1-0.7c0.4-0.2,0.9-0.3,1.5-0.3c0.4,0.1,0.7,0.2,1.1,0.5
				c0.4,0.2,0.5,0.5,0.5,0.7l0.2,0.2c0.1,0,0.2,0.2,0.3,0.4c0.1,0.3,0.2,0.6,0.2,1c0,0.3-0.1,0.5-0.2,0.7c-0.1,0.4-0.2,0.7-0.4,1
				c-0.2,0.3-0.4,0.4-0.6,0.4c-0.2,0-0.3,0.1-0.3,0.2c0,0.1,0,0.1-0.1,0.1c-0.1,0-0.2-0.1-0.4-0.2s-0.2-0.3-0.3-0.4
				c0-0.1,0-0.2,0.1-0.5c0.1-0.3,0.2-0.6,0.2-1c0.1-0.2,0.1-0.5,0.1-0.7c0-0.4-0.2-0.6-0.5-0.6c-0.2,0-0.3,0-0.5,0.1
				c-0.8,0.5-1.6,1.2-2.2,2.2c-0.6,1-1.2,2.4-1.6,4.1c-0.1,0.5-0.2,0.8-0.2,1.1c0,0.2,0,0.4,0,0.5c0,0.1,0.1,0.2,0.1,0.2
				c0.1,0,0.3,0.1,0.7,0.1c0.8,0,1.3-0.1,1.6-0.3c0.7-0.4,1.4-0.8,2.2-1.4c0.1-0.1,0.2-0.2,0.4-0.3c0.2-0.2,0.3-0.3,0.5-0.3
				c0.1-0.2,0.3-0.4,0.4-0.4s0.3-0.1,0.6-0.1c0.3,0.1,0.5,0.2,0.7,0.3s0.2,0.2,0,0.3c-0.1,0-0.1,0-0.1,0.1c0,0,0,0.1,0,0.1
				c0,0.1-0.1,0.4-0.5,0.8c-0.4,0.4-0.8,0.8-1.2,1.2c-0.5,0.4-0.8,0.5-0.9,0.5c-0.1,0-0.2,0-0.2,0c-0.1,0-0.1,0.1-0.1,0.2
				s-0.3,0.3-0.9,0.6c-0.6,0.3-1.1,0.5-1.5,0.6C331.7,124.3,331.5,124.3,331.4,124.3z"/>
			<path class="st0" d="M341.1,123.7c-0.3-0.4-0.6-0.7-0.7-1.1c0,0,0-0.1-0.1-0.1c0-0.1-0.1-0.1-0.1-0.1c-0.1-0.1-0.1-0.4-0.1-1
				c0-0.5,0-1,0.1-1.5c0.1-0.5,0.1-1,0.2-1.3l0.6-1.6l0.4-1.2l0.8-1.8l-1.2-0.3c-0.1,0-0.3-0.1-0.4-0.2s-0.1-0.2-0.1-0.3
				c0-0.2,0.1-0.4,0.3-0.6c0.2-0.2,0.3-0.4,0.4-0.4c0.1,0,0.2,0,0.5,0c0.6,0,1.1,0,1.4-0.1c0.2-0.1,0.4-0.2,0.4-0.5
				c0.1-0.2,0.2-0.4,0.3-0.6c0.1-0.2,0.2-0.5,0.3-0.7c0.1-0.1,0.2-0.3,0.3-0.6c0.1-0.3,0.3-0.6,0.5-0.9c0-0.1,0.1-0.2,0.3-0.4
				c0.1-0.2,0.3-0.4,0.5-0.6c0.1-0.1,0.3-0.2,0.5-0.2c0.2,0,0.5,0.1,0.8,0.4c0,0.1,0.1,0.1,0.2,0.2c0.1,0.1,0.1,0.2,0.1,0.3
				s-0.1,0.3-0.2,0.5c-0.1,0.2-0.2,0.5-0.4,0.7c-0.1,0.2-0.2,0.4-0.3,0.5c-0.2,0.4-0.4,0.7-0.5,0.9c-0.2,0.3-0.3,0.5-0.3,0.6
				c0,0.1,0.1,0.2,0.4,0.2c0.3,0,0.8-0.1,1.5-0.2c0.3,0,0.5-0.1,0.6-0.1c0.7,0,1.1,0.3,1.2,0.9c0,0.1,0,0.3,0,0.4
				c0,0.3-0.1,0.5-0.3,0.5s-0.6,0.1-1.3,0.1c-0.7,0.1-1.3,0.2-2,0.2c-0.1,0-0.3,0-0.4,0c-0.2,0-0.3,0-0.5,0.1
				c-0.2,0-0.3,0.1-0.4,0.2c-0.1,0.1-0.1,0.2-0.2,0.4c-0.1,0.1-0.2,0.3-0.4,0.7c-0.3,0.6-0.5,1-0.6,1.1c-0.6,1.7-1,3.3-1.2,5.1
				c0,0.3-0.1,0.5-0.1,0.6c0,0.3,0.1,0.5,0.3,0.7c0.2,0.1,0.6,0.2,1.1,0.2c0.7,0,1.3-0.1,1.8-0.2c0.6-0.3,1.1-0.5,1.4-0.7
				c0.2-0.1,0.4-0.2,0.5-0.3c0.2-0.1,0.3-0.2,0.3-0.2c0.1-0.1,0.1-0.2,0.2-0.2c0.2,0,0.3,0.2,0.4,0.5c0,0.3-0.1,0.6-0.2,0.9
				s-0.5,0.5-1.1,0.9c-1.2,0.8-2.4,1.1-3.6,1.1c-0.3,0-0.6,0-0.9-0.1C341.8,124.3,341.4,124,341.1,123.7z"/>
			<path class="st0" d="M350,122.3c0-0.3,0.1-0.5,0.2-0.7c0-0.1,0-0.2,0.1-0.4c0-0.1,0.1-0.2,0.1-0.3c0-0.1,0.1-0.5,0.2-1
				c0.4-0.8,0.9-2.3,1.5-4.4c0-0.1,0-0.2,0.1-0.3c0.1-0.1,0.2-0.1,0.4-0.1c0.2,0,0.3-0.1,0.3-0.1c0.1,0,0.2,0,0.3,0.1
				c0.1,0.1,0.2,0.3,0.4,0.5c0.1,0.1,0.2,0.3,0.2,0.6c0,0.4-0.1,0.9-0.4,1.4c-0.3,0.6-0.4,1.1-0.5,1.6c-0.2,0.6-0.4,1.1-0.6,1.5
				c0,0.1-0.1,0.4-0.2,0.7s-0.2,0.7-0.3,0.9c-0.1,0.6-0.2,1-0.3,1.2c-0.1,0.2-0.2,0.3-0.3,0.3c-0.1,0-0.3-0.1-0.6-0.4
				C350.1,123.3,350,122.9,350,122.3z M353,110.2c-0.1-0.4-0.1-0.5,0-0.5c0.2,0,0.4-0.2,0.6-0.5c0.2-0.3,0.3-0.6,0.3-0.9
				c0-0.1,0-0.2,0.1-0.2c0.1-0.1,0.1-0.1,0.2-0.1c0.2-0.1,0.3-0.2,0.4-0.2c0.4,0,0.7,0.2,1,0.7c0.1,0.3,0.2,0.5,0.2,0.7
				c0,0.2-0.1,0.4-0.2,0.6c-0.1,0.2-0.3,0.4-0.6,0.8c-0.4,0.5-0.7,0.7-1,0.7c-0.2,0-0.4-0.1-0.7-0.3
				C353.3,110.8,353.1,110.6,353,110.2z"/>
			<path class="st0" d="M357.9,120.6c-0.3-1.2-0.6-2.4-0.8-3.5c-0.1-0.4-0.2-1-0.5-1.8c-0.1-0.3-0.1-0.6-0.1-0.7
				c0-0.4,0.2-0.7,0.5-0.8c0.1-0.1,0.2-0.1,0.4-0.1c0.2,0,0.3,0,0.4,0c0.5,0.2,0.9,1.4,1.2,3.8c0.1,0.6,0.2,1.1,0.3,1.6
				s0.2,0.8,0.2,0.8c0.1,0.1,0.1,0.3,0.2,0.4c0.1,0.1,0.2,0.2,0.3,0.2c0.1,0,0.1,0,0.2-0.1c0.4-0.4,0.8-0.9,1.3-1.5
				c0.5-0.7,0.8-1.1,1-1.4c0.2-0.4,0.5-0.8,0.9-1.2c0.1-0.1,0.2-0.3,0.4-0.6c0.2-0.3,0.4-0.6,0.7-0.8c0.2-0.2,0.4-0.3,0.5-0.4
				c0.1,0,0.2,0,0.3,0c0.4,0,0.5,0.1,0.5,0.4c0,0.3-0.2,0.7-0.6,1.2c-0.1,0.2-0.3,0.4-0.4,0.7c-0.1,0.3-0.2,0.4-0.3,0.5
				c-0.2,0.5-0.6,1.1-1.3,1.9c-0.6,0.8-1,1.3-1.2,1.5c0,0-0.2,0.2-0.5,0.4s-0.6,0.5-0.8,0.9c-0.7,0.6-1.1,0.9-1.4,0.9
				c-0.2,0-0.4-0.1-0.6-0.3C358.5,122.5,358.2,121.8,357.9,120.6z"/>
			<path class="st0" d="M370,124.1c-0.5,0-1-0.1-1.5-0.4s-0.9-0.6-1.2-1c-0.3-0.3-0.5-0.7-0.6-1.1c-0.1-0.4-0.2-0.9-0.2-1.5
				c0-0.2,0-0.6,0.1-1.2c0.1-0.8,0.3-1.6,0.8-2.4c0.4-0.8,1-1.6,1.7-2.2c0.7-0.7,1.3-1.1,2-1.3c0.3-0.2,0.6-0.3,0.9-0.3
				c0.1,0,0.3,0,0.4,0s0.3,0,0.5,0.1c0.5,0.1,0.8,0.1,1,0.3c0.2,0.1,0.4,0.3,0.6,0.5c0.5,0.5,0.8,1.1,0.8,1.8
				c-0.1,0.5-0.4,1.1-1,1.7c-0.6,0.6-1.2,1.2-2,1.5c-0.4,0.1-0.8,0.2-1.3,0.2c-0.6,0-1.2-0.1-1.6-0.4c-0.2-0.1-0.3-0.1-0.4-0.1
				c-0.2,0-0.3,0.1-0.4,0.4c-0.1,0.2-0.2,0.7-0.3,1.4c0,0.1,0,0.4,0,0.6c0,1.1,0.4,1.6,1.1,1.7c0.5,0.1,0.8,0.2,1,0.2
				c0.2,0,0.5-0.1,0.8-0.2l0.6-0.3c0.1-0.1,0.2-0.1,0.3-0.2c0.1-0.1,0.2-0.2,0.3-0.3c0,0,0.1-0.1,0.2-0.2c0.1-0.1,0.2-0.2,0.2-0.2
				c0.1,0,0.1,0,0.2,0c0.1,0,0.2,0,0.3,0.1c0.1,0.1,0.2,0.2,0.2,0.2c0.2,0,0.2,0.1,0.1,0.4c-0.1,0.3-0.3,0.6-0.7,0.9
				s-0.7,0.6-1.2,0.9C371.4,123.9,370.7,124.1,370,124.1z M372.9,116.1c0.4-0.4,0.5-0.7,0.5-0.9s-0.1-0.5-0.3-0.6
				c-0.2-0.2-0.4-0.2-0.8-0.2c-0.2,0-0.4,0-0.6,0.1c-0.3,0.1-0.6,0.3-1,0.7c-0.4,0.4-0.7,0.7-1,1.1c-0.3,0.4-0.4,0.6-0.3,0.7
				c0.1,0.2,0.5,0.3,1.2,0.3c0.5,0,0.9-0.1,1.2-0.2C372.2,116.7,372.6,116.5,372.9,116.1z"/>
			<path class="st0" d="M377.3,124c-0.4-0.3-0.6-0.5-0.7-0.7c0,0,0-0.1,0-0.2c0-0.1,0-0.2,0.1-0.2c0.1,0,0.2,0,0.3,0
				c0.4,0,0.9,0,1.7,0.1c0.5,0,1-0.1,1.5-0.2c0.6-0.1,0.9-0.2,1-0.4c0.1,0,0.1,0,0.1,0c0,0-0.1-0.1-0.2-0.3c0,0-0.1,0-0.3-0.1
				c-0.1-0.1-0.2-0.1-0.3-0.1c0-0.1-0.1-0.2-0.3-0.3c-0.2-0.1-0.4-0.3-0.6-0.4c-0.6-0.5-1-0.9-1.3-1.1c-0.2-0.2-0.3-0.4-0.3-0.5
				v-0.2c-0.1,0-0.3-0.2-0.5-0.6c-0.2-0.4-0.3-0.8-0.3-1.1c0-0.4,0.2-0.9,0.5-1.6c0.3-0.7,0.7-1.2,1.1-1.6c0.6-0.5,1.3-1.1,2.2-1.7
				c0.9-0.6,1.6-1,2.2-1.1c0.4-0.1,0.7-0.2,1.1-0.2c0.3,0,0.6,0.1,0.8,0.2c0.3,0.2,0.5,0.4,0.8,0.7c0.3,0.3,0.4,0.6,0.5,0.8
				c0,0.5,0,0.9-0.1,1.3c-0.1,0.4-0.2,0.6-0.4,0.6c0,0-0.1,0-0.1,0c0,0-0.1,0.1-0.1,0.2c0,0.1,0,0.2-0.1,0.3
				c-0.1,0.1-0.2,0.3-0.3,0.4c-0.5,0.3-0.8,0.5-1.1,0.5c-0.2,0-0.4-0.1-0.4-0.3c0,0-0.1-0.1-0.1-0.2s-0.1-0.1-0.2-0.1
				c0,0-0.1,0-0.1-0.1s-0.1-0.2-0.1-0.3c0-0.1,0-0.1,0.1-0.2c0.1-0.1,0.1-0.1,0.1-0.1c0.1,0,0.3-0.2,0.6-0.7c0.3-0.5,0.4-0.8,0.4-1
				c0-0.1,0-0.2,0-0.2c0,0-0.1,0-0.3,0c-1.6,0.7-2.6,1.3-3,1.6c-0.1,0.1-0.1,0.2-0.1,0.2c0,0-0.1,0.1-0.2,0.1c0-0.2-0.5,0.5-1.6,2.1
				c0,0-0.1,0.2-0.1,0.4c-0.1,0.2-0.1,0.4-0.1,0.5c0,0.2-0.1,0.3-0.1,0.3c0,0.1,0,0.2,0.1,0.2s0.2,0.2,0.3,0.3
				c0.1,0.1,0.2,0.2,0.4,0.3c1.1,0.8,1.8,1.4,2.2,1.8c0.4,0.4,0.7,0.7,0.8,1c0.3,0.4,0.4,0.8,0.4,1.1c0,0.2-0.1,0.5-0.3,0.7
				c-0.2,0.2-0.5,0.4-0.8,0.5c-0.2,0.1-0.6,0.2-1.1,0.3c-0.5,0.1-1.1,0.1-1.6,0.1c-0.3,0-0.6,0-0.9-0.1
				C378,124.5,377.7,124.3,377.3,124z"/>
		</g>
	</g>
	<g>
		<g>
			<path class="st0" d="M424.2,234.5c-0.3-1.2-0.6-2.4-0.8-3.5c-0.1-0.4-0.2-1-0.5-1.8c-0.1-0.3-0.1-0.6-0.1-0.7
				c0-0.4,0.2-0.7,0.5-0.8c0.1-0.1,0.2-0.1,0.4-0.1c0.2,0,0.3,0,0.4,0c0.5,0.2,0.9,1.4,1.2,3.8c0.1,0.6,0.2,1.1,0.3,1.6
				c0.1,0.5,0.2,0.8,0.2,0.8c0.1,0.1,0.1,0.3,0.2,0.4c0.1,0.1,0.2,0.2,0.3,0.2c0.1,0,0.1,0,0.2-0.1c0.4-0.4,0.8-0.9,1.3-1.5
				c0.5-0.7,0.8-1.1,1-1.4c0.2-0.4,0.5-0.8,0.9-1.2c0.1-0.1,0.2-0.3,0.4-0.6c0.2-0.3,0.4-0.6,0.7-0.8c0.2-0.2,0.4-0.3,0.5-0.4
				c0.1,0,0.2,0,0.3,0c0.3,0,0.5,0.1,0.5,0.4c0,0.3-0.2,0.7-0.6,1.2c-0.1,0.2-0.3,0.4-0.4,0.7c-0.1,0.3-0.2,0.4-0.3,0.5
				c-0.2,0.5-0.6,1.1-1.3,1.9c-0.6,0.8-1,1.3-1.2,1.5c0,0-0.2,0.2-0.5,0.4c-0.3,0.2-0.6,0.5-0.8,0.9c-0.7,0.6-1.1,0.9-1.4,0.9
				c-0.2,0-0.4-0.1-0.6-0.3C424.8,236.4,424.6,235.7,424.2,234.5z"/>
			<path class="st0" d="M432.4,237c-0.1-0.1-0.2-0.2-0.2-0.3c0-0.2-0.1-0.4-0.2-0.5c0,0-0.1-0.1-0.1-0.3c0-0.3,0.2-0.9,0.5-1.7
				c0.3-0.8,0.7-1.7,1.3-2.6c0.1-0.1,0.3-0.3,0.5-0.7c0.2-0.3,0.3-0.5,0.4-0.5c0-0.1,0-0.2,0.1-0.2c0.1-0.1,0.1-0.1,0.2-0.1v-0.2
				c0-0.2,0.3-0.6,1-1.3c0.7-0.7,1.2-1.2,1.7-1.5c0.5-0.4,1-0.5,1.6-0.5c0.4,0,0.7,0.1,1,0.3c0.1,0.1,0.6,0.6,1.4,1.3l1.1,1
				l-0.6,1.5c-0.2,0.6-0.3,1.1-0.3,1.5c0,0.8,0.2,1.5,0.7,2.3c0.1,0.2,0.3,0.4,0.6,0.7s0.6,0.3,0.9,0.4c0.5,0.1,0.7,0.3,0.7,0.7
				c0,0.4-0.2,0.7-0.6,0.7c-0.1,0-0.2,0-0.4,0c-1.2,0-2.3-0.9-3.2-2.6c-0.1-0.1-0.2-0.4-0.3-0.7c-0.1-0.3-0.2-0.6-0.2-0.7
				c-0.1,0.2-0.3,0.4-0.5,0.6c-0.2,0.2-0.4,0.4-0.5,0.6c-2.3,2.3-4,3.4-5.3,3.4c-0.4,0-0.8-0.1-1.1-0.3
				C432.6,237.2,432.5,237.1,432.4,237z M434.1,235.7c0.2,0,0.5-0.1,0.8-0.3s0.6-0.4,1-0.7c1.8-1.5,3.1-2.9,3.8-4l0.7-1.1
				c-0.2-0.4-0.4-0.7-0.7-0.9c-0.2-0.2-0.4-0.3-0.6-0.3c-0.4,0-1.1,0.5-2,1.6c-0.9,1.1-1.8,2.4-2.5,3.8c-0.2,0.4-0.4,0.7-0.5,1.1
				c-0.1,0.4-0.2,0.6-0.3,0.7C433.8,235.7,433.9,235.8,434.1,235.7z"/>
			<path class="st0" d="M446.6,238.5c-0.3,0-0.6-0.2-0.8-0.5c-0.2-0.3-0.3-0.8-0.3-1.4c0-0.5,0.1-1,0.2-1.6c0.2-0.6,0.3-1,0.3-1.3
				c0.1-0.4,0.3-1.1,0.6-2.1s0.6-1.6,0.7-1.8c0.1,0,0.2-0.1,0.2-0.2s0.1-0.3,0.1-0.4c0-0.2,0-0.4,0.1-0.6s0.2-0.3,0.2-0.4
				c0-0.1,0-0.2,0.1-0.3c0.1-0.2,0.1-0.3,0.1-0.3c0,0,0-0.1,0.1-0.2c0.1-0.1,0.1-0.2,0.1-0.3c0.3-0.6,0.9-2.1,1.7-4.3
				c0.8-2.2,1.2-3.5,1.2-3.7c0-0.3,0.2-0.5,0.5-0.5c0.1-0.1,0.3-0.2,0.5-0.2l0.5,0.5c0.1,0.1,0.2,0.3,0.3,0.4c0,0.2,0.1,0.4,0.1,0.7
				s0,0.6-0.1,0.8c-0.1,0.2-0.3,0.7-0.6,1.4c-0.1,0.1-0.1,0.3-0.2,0.5c-0.1,0.2-0.2,0.4-0.3,0.7c0,0.1-0.2,0.5-0.5,1.1
				c-0.2,0.4-0.3,0.7-0.3,0.7s0,0.2-0.1,0.4c-0.1,0.2-0.2,0.4-0.2,0.6c-0.2,0.3-0.4,0.9-0.8,1.8c-0.4,0.8-0.5,1.3-0.5,1.4
				c0,0.2-0.1,0.4-0.2,0.5c-0.1,0-0.1,0-0.1,0.1c0,0.1,0,0.2,0,0.2c0,0.2-0.2,0.8-0.5,1.6l-0.3,0.9c-0.4,1.3-0.7,2.3-0.8,2.9
				s-0.2,1.1-0.2,1.6c0,0.5,0,0.8,0,1s-0.1,0.3-0.3,0.3C446.9,238.5,446.8,238.5,446.6,238.5z"/>
			<path class="st0" d="M457.5,236.3c0-0.1-0.1-0.3-0.1-0.7c0-0.3,0-0.5,0-0.7c-0.1,0.3-0.4,0.6-0.7,0.8c-0.5,0.5-1,0.8-1.4,1.1
				c-0.7,0.5-1.3,0.7-1.8,0.7c-0.4,0-0.8-0.2-1.2-0.7c-0.3-0.2-0.5-0.5-0.6-0.7c-0.1-0.2-0.2-0.5-0.2-0.8c0-0.2,0-0.5,0.1-0.7
				c0-0.8,0.2-1.5,0.3-2.2c0.2-0.7,0.5-1.6,1-2.7c0.7-1.3,1.1-2.2,1.4-2.6c0.1,0,0.2-0.1,0.4-0.1c0.2,0,0.4,0.1,0.5,0.2
				s0.2,0.3,0.2,0.5c0.1,0.1,0.1,0.2,0.1,0.3c0,0.5-0.3,1.4-0.9,2.5c-0.8,1.9-1.2,3.3-1.2,4c0,0.4,0.1,0.7,0.4,0.8
				c0.1,0.1,0.2,0.1,0.3,0.1c0.5,0,1.1-0.4,1.9-1.1c0.7-0.7,1.4-1.8,2.1-3.4c0.3-0.7,0.5-1.4,0.5-2.2c0-0.1,0-0.2,0-0.3
				c0-0.4,0.2-0.7,0.6-0.9c0.1-0.1,0.2-0.2,0.3-0.3s0.2-0.1,0.3,0l0.5,0c0.1,0,0.1,0,0.2,0.2c0.1,0.1,0.1,0.2,0.2,0.3
				c0.1,0.1,0.2,0.4,0.2,0.7c0,0.7-0.3,1.7-0.9,3.1c-0.4,0.8-0.7,1.5-0.8,1.9c-0.1,0.4-0.2,0.9-0.2,1.3c0,0.8,0.3,1.4,0.9,2
				c0.2,0.1,0.3,0.3,0.4,0.5c0,0.2,0.1,0.4,0,0.7c0,0.2-0.2,0.3-0.4,0.4c-0.2,0.1-0.4,0.2-0.6,0.2c-0.3,0-0.5-0.1-0.7-0.2
				C458.1,238,457.8,237.2,457.5,236.3z"/>
			<path class="st0" d="M466.3,238.1c-0.5,0-1-0.1-1.5-0.4s-0.9-0.6-1.2-1c-0.3-0.3-0.5-0.7-0.6-1.1c-0.1-0.4-0.2-0.9-0.2-1.5
				c0-0.2,0-0.6,0.1-1.2c0.1-0.8,0.3-1.6,0.8-2.4c0.4-0.8,1-1.6,1.7-2.2c0.7-0.7,1.3-1.1,2-1.3c0.3-0.2,0.6-0.3,0.9-0.3
				c0.1,0,0.3,0,0.4,0s0.3,0,0.5,0.1c0.5,0.1,0.8,0.1,1,0.3c0.2,0.1,0.4,0.3,0.6,0.5c0.5,0.5,0.8,1.1,0.8,1.8
				c-0.1,0.5-0.4,1.1-1,1.7c-0.6,0.6-1.2,1.2-2,1.5c-0.4,0.1-0.8,0.2-1.3,0.2c-0.6,0-1.2-0.1-1.6-0.4c-0.2-0.1-0.3-0.1-0.4-0.1
				c-0.2,0-0.3,0.1-0.4,0.4c-0.1,0.2-0.2,0.7-0.3,1.4c0,0.1,0,0.4,0,0.6c0,1.1,0.3,1.6,1.1,1.7c0.5,0.1,0.8,0.2,1,0.2
				c0.2,0,0.5-0.1,0.8-0.2l0.6-0.3c0.1-0.1,0.2-0.1,0.3-0.2c0.1-0.1,0.2-0.2,0.3-0.3c0,0,0.1-0.1,0.2-0.2c0.1-0.1,0.2-0.2,0.2-0.2
				c0.1,0,0.1,0,0.2,0c0.1,0,0.2,0,0.3,0.1c0.1,0.1,0.2,0.2,0.2,0.2c0.2,0,0.2,0.1,0.1,0.4c-0.1,0.3-0.3,0.6-0.7,0.9
				c-0.3,0.3-0.7,0.6-1.2,0.9C467.6,237.9,467,238.1,466.3,238.1z M469.2,230.1c0.4-0.4,0.5-0.7,0.5-0.9s-0.1-0.5-0.3-0.6
				c-0.2-0.2-0.4-0.2-0.8-0.2c-0.2,0-0.4,0-0.6,0.1c-0.3,0.1-0.6,0.3-1,0.7c-0.4,0.4-0.7,0.7-1,1.1c-0.3,0.4-0.4,0.6-0.3,0.7
				c0.1,0.2,0.5,0.3,1.2,0.3c0.5,0,0.9-0.1,1.2-0.2C468.5,230.7,468.8,230.4,469.2,230.1z"/>
			<path class="st0" d="M473.6,238c-0.4-0.3-0.6-0.5-0.7-0.7c0,0,0-0.1,0-0.2s0-0.2,0.1-0.2c0.1,0,0.2,0,0.3,0c0.4,0,0.9,0,1.7,0.1
				c0.5,0,1-0.1,1.5-0.2c0.6-0.1,0.9-0.2,1-0.4c0.1,0,0.1,0,0.1,0c0,0-0.1-0.1-0.2-0.3c0,0-0.1,0-0.3-0.1c-0.1-0.1-0.2-0.1-0.3-0.1
				c0-0.1-0.1-0.2-0.3-0.3c-0.2-0.1-0.4-0.3-0.6-0.4c-0.6-0.5-1-0.9-1.3-1.1c-0.2-0.2-0.3-0.4-0.3-0.5v-0.2c-0.1,0-0.3-0.2-0.5-0.6
				c-0.2-0.4-0.3-0.8-0.3-1.1c0-0.4,0.2-0.9,0.5-1.6c0.3-0.7,0.7-1.2,1.1-1.6c0.6-0.5,1.3-1.1,2.2-1.7c0.9-0.6,1.6-1,2.2-1.1
				c0.4-0.1,0.7-0.2,1.1-0.2c0.3,0,0.6,0.1,0.8,0.2c0.3,0.2,0.5,0.4,0.8,0.7c0.3,0.3,0.4,0.6,0.5,0.8c0,0.5,0,0.9-0.1,1.3
				c-0.1,0.4-0.2,0.6-0.4,0.6c0,0-0.1,0-0.1,0s-0.1,0.1-0.1,0.2c0,0.1,0,0.2-0.1,0.3s-0.2,0.3-0.3,0.4c-0.5,0.3-0.8,0.5-1.1,0.5
				c-0.2,0-0.4-0.1-0.4-0.3c0,0-0.1-0.1-0.1-0.2s-0.1-0.1-0.2-0.1c0,0-0.1,0-0.1-0.1c-0.1-0.1-0.1-0.2-0.1-0.3c0-0.1,0-0.1,0.1-0.2
				c0.1-0.1,0.1-0.1,0.1-0.1c0.1,0,0.3-0.2,0.6-0.7c0.3-0.5,0.4-0.8,0.4-1c0-0.1,0-0.2,0-0.2c0,0-0.1,0-0.3,0
				c-1.6,0.7-2.6,1.3-3,1.6c-0.1,0.1-0.1,0.2-0.1,0.2c0,0-0.1,0.1-0.2,0.1c0-0.2-0.5,0.5-1.6,2.1c0,0-0.1,0.2-0.1,0.4
				c-0.1,0.2-0.1,0.4-0.1,0.5c0,0.2-0.1,0.3-0.1,0.3c0,0.1,0,0.2,0.1,0.2s0.2,0.2,0.3,0.3c0.1,0.1,0.2,0.2,0.4,0.3
				c1.1,0.8,1.8,1.4,2.2,1.8c0.4,0.4,0.7,0.7,0.8,1c0.3,0.4,0.4,0.8,0.4,1.1c0,0.2-0.1,0.5-0.3,0.7c-0.2,0.2-0.5,0.4-0.8,0.5
				c-0.2,0.1-0.6,0.2-1.1,0.3c-0.5,0.1-1.1,0.1-1.6,0.1c-0.3,0-0.6,0-0.9-0.1C474.3,238.5,473.9,238.3,473.6,238z"/>
		</g>
	</g>
	<g>
		<g>
			<path class="st0" d="M425.9,396c-0.4-0.3-0.6-0.5-0.7-0.7c0,0,0-0.1,0-0.2s0-0.2,0.1-0.2c0.1,0,0.2,0,0.3,0c0.4,0,0.9,0,1.7,0.1
				c0.5,0,1-0.1,1.5-0.2c0.6-0.1,0.9-0.2,1-0.4c0.1,0,0.1,0,0.1,0c0,0-0.1-0.1-0.2-0.3c0,0-0.1,0-0.3-0.1c-0.1-0.1-0.2-0.1-0.3-0.1
				c0-0.1-0.1-0.2-0.3-0.3c-0.2-0.1-0.4-0.3-0.6-0.4c-0.6-0.5-1-0.9-1.3-1.1c-0.2-0.2-0.3-0.4-0.3-0.5v-0.2c-0.1,0-0.3-0.2-0.5-0.6
				c-0.2-0.4-0.3-0.8-0.3-1.1c0-0.4,0.2-0.9,0.5-1.5c0.3-0.7,0.7-1.2,1.1-1.6c0.6-0.5,1.3-1.1,2.2-1.7s1.6-1,2.2-1.1
				c0.4-0.1,0.7-0.2,1.1-0.2c0.3,0,0.6,0.1,0.8,0.2c0.3,0.2,0.5,0.4,0.8,0.7c0.3,0.3,0.4,0.6,0.5,0.8c0,0.5,0,0.9-0.1,1.3
				s-0.2,0.6-0.4,0.6c0,0-0.1,0-0.1,0c0,0-0.1,0.1-0.1,0.2c0,0.1,0,0.2-0.1,0.3c-0.1,0.1-0.2,0.3-0.3,0.4c-0.5,0.3-0.8,0.5-1.1,0.5
				c-0.2,0-0.4-0.1-0.4-0.3c0,0-0.1-0.1-0.1-0.2c0-0.1-0.1-0.1-0.2-0.1c0,0-0.1,0-0.1-0.1c-0.1-0.1-0.1-0.2-0.1-0.3
				c0-0.1,0-0.1,0.1-0.2c0.1-0.1,0.1-0.1,0.1-0.1c0.1,0,0.3-0.2,0.6-0.7c0.3-0.5,0.4-0.8,0.4-1c0-0.1,0-0.2,0-0.2c0,0-0.1,0-0.3,0
				c-1.6,0.7-2.6,1.3-3,1.6c-0.1,0.1-0.1,0.2-0.1,0.2c0,0-0.1,0.1-0.2,0.1c0-0.2-0.5,0.5-1.6,2.1c0,0-0.1,0.2-0.1,0.4
				c-0.1,0.2-0.1,0.4-0.1,0.5c0,0.2-0.1,0.3-0.1,0.3c0,0.1,0,0.2,0.1,0.2c0.1,0.1,0.2,0.2,0.3,0.3s0.2,0.2,0.4,0.3
				c1.1,0.8,1.8,1.4,2.2,1.8c0.4,0.4,0.7,0.7,0.8,1c0.3,0.4,0.4,0.8,0.4,1.1c0,0.2-0.1,0.5-0.3,0.7c-0.2,0.2-0.5,0.4-0.8,0.5
				c-0.2,0.1-0.6,0.2-1.1,0.3c-0.5,0.1-1.1,0.1-1.6,0.1c-0.3,0-0.6,0-0.9-0.1C426.6,396.5,426.3,396.3,425.9,396z"/>
			<path class="st0" d="M437.4,395.6c-0.3-0.4-0.6-0.7-0.7-1.1c0,0,0-0.1-0.1-0.1c0-0.1-0.1-0.1-0.1-0.1c-0.1-0.1-0.1-0.4-0.1-1
				c0-0.5,0-1,0.1-1.6c0.1-0.5,0.1-1,0.2-1.3l0.6-1.6l0.4-1.2l0.8-1.8l-1.2-0.3c-0.1,0-0.3-0.1-0.4-0.2s-0.1-0.2-0.1-0.3
				c0-0.2,0.1-0.4,0.3-0.6c0.2-0.2,0.3-0.4,0.4-0.4c0.1,0,0.2,0,0.5,0c0.6,0,1.1,0,1.4-0.1c0.2-0.1,0.4-0.2,0.4-0.5
				c0.1-0.2,0.2-0.4,0.3-0.6c0.1-0.2,0.2-0.5,0.3-0.7c0.1-0.1,0.2-0.3,0.3-0.6c0.1-0.3,0.3-0.6,0.5-0.9c0-0.1,0.1-0.2,0.3-0.5
				c0.1-0.2,0.3-0.4,0.5-0.6c0.1-0.1,0.3-0.2,0.5-0.2c0.2,0,0.5,0.1,0.8,0.4c0,0.1,0.1,0.1,0.2,0.2c0.1,0.1,0.1,0.2,0.1,0.3
				c0,0.1-0.1,0.3-0.2,0.5c-0.1,0.2-0.2,0.5-0.4,0.7c-0.1,0.2-0.2,0.4-0.3,0.5c-0.2,0.4-0.4,0.7-0.5,0.9c-0.2,0.3-0.3,0.5-0.3,0.6
				s0.1,0.2,0.4,0.2c0.3,0,0.8-0.1,1.5-0.2c0.3,0,0.5-0.1,0.6-0.1c0.7,0,1.1,0.3,1.2,0.9c0,0.1,0,0.3,0,0.4c0,0.3-0.1,0.5-0.3,0.5
				c-0.2,0.1-0.6,0.1-1.3,0.1c-0.7,0.1-1.3,0.2-2,0.2c-0.1,0-0.3,0-0.4,0c-0.2,0-0.3,0-0.5,0.1c-0.2,0-0.3,0.1-0.4,0.2
				c-0.1,0.1-0.1,0.2-0.2,0.4c-0.1,0.1-0.2,0.3-0.4,0.7c-0.3,0.6-0.5,1-0.6,1.1c-0.6,1.7-1,3.3-1.2,5.1c0,0.3-0.1,0.5-0.1,0.6
				c0,0.3,0.1,0.5,0.3,0.7c0.2,0.1,0.6,0.2,1.1,0.2c0.7,0,1.3-0.1,1.8-0.2c0.6-0.3,1.1-0.5,1.4-0.7c0.2-0.1,0.4-0.2,0.5-0.3
				c0.2-0.1,0.3-0.2,0.3-0.2c0.1-0.1,0.1-0.2,0.2-0.2c0.2,0,0.3,0.2,0.4,0.5c0,0.3-0.1,0.6-0.2,0.9s-0.5,0.5-1.1,0.9
				c-1.2,0.8-2.4,1.1-3.6,1.1c-0.3,0-0.6,0-0.9-0.1C438.1,396.3,437.8,396,437.4,395.6z"/>
			<path class="st0" d="M446.5,395.1c-0.1-0.1-0.1-0.3-0.1-0.5c0-0.2,0-0.3,0-0.5c0.1-0.7,0.2-1.5,0.5-2.4l0.2-0.6
				c0.1-0.5,0.4-1.6,1.1-3.3c0.7-1.7,1.2-2.8,1.6-3.4c0.2-0.1,0.3-0.2,0.5-0.2c0.3,0,0.5,0.1,0.7,0.3c0.1,0.1,0.2,0.2,0.2,0.5
				c0,0.2-0.1,0.5-0.2,0.9s-0.4,1-0.8,1.8c-0.1,0.2-0.2,0.5-0.4,0.9c-0.2,0.5-0.3,0.7-0.3,0.8c0,0,0,0.1,0,0.1c0,0,0.1,0,0.1,0
				c0,0,0.1-0.1,0.1-0.1c0.2-0.4,0.8-0.9,1.7-1.6c0.9-0.7,1.5-1.1,1.8-1.3c0.1-0.1,0.3-0.2,0.6-0.2c0.2-0.1,0.4-0.1,0.5-0.2
				c0.3-0.2,0.7-0.2,1.2-0.2c0.3,0,0.5,0,0.8,0.1s0.4,0.2,0.4,0.4c0,0.1,0.1,0.3,0.2,0.3c0.1,0.1,0.2,0.1,0.2,0.2
				c0.1,0,0.1,0,0.1,0.1s0,0.1,0,0.1c0,0.1-0.1,0.2-0.2,0.3c-0.2,0-0.5,0.1-0.9,0.1c-0.2,0-0.5,0.1-0.7,0.2s-0.5,0.2-0.7,0.3
				c-1.2,0.7-2,1.2-2.6,1.5c-0.6,0.4-1.1,0.9-1.7,1.5c-0.2,0.2-0.5,0.7-0.9,1.3c-0.1,0.1-0.3,0.5-0.4,1.1c-0.2,0.6-0.2,1-0.2,1.1
				c0,0.1-0.1,0.2-0.1,0.4c-0.1,0.2-0.2,0.3-0.3,0.5c-0.2,0.3-0.5,0.5-0.6,0.5c-0.2,0-0.4-0.2-0.7-0.5
				C446.7,395.3,446.5,395.2,446.5,395.1z"/>
			<path class="st0" d="M457.2,395c-0.1-0.1-0.2-0.2-0.2-0.3c0-0.2-0.1-0.4-0.2-0.5c0,0-0.1-0.1-0.1-0.3c0-0.3,0.2-0.9,0.5-1.7
				c0.3-0.8,0.7-1.7,1.3-2.6c0.1-0.1,0.3-0.3,0.5-0.7s0.3-0.5,0.4-0.5c0-0.1,0-0.2,0.1-0.2c0.1-0.1,0.1-0.1,0.2-0.1V388
				c0-0.2,0.3-0.6,1-1.3s1.2-1.2,1.7-1.5c0.5-0.4,1-0.5,1.6-0.5c0.4,0,0.7,0.1,1,0.3c0.1,0.1,0.6,0.6,1.4,1.3l1.1,1l-0.6,1.5
				c-0.2,0.6-0.3,1.1-0.3,1.5c0,0.8,0.2,1.5,0.7,2.3c0.1,0.2,0.3,0.4,0.6,0.7c0.3,0.2,0.6,0.3,0.9,0.4c0.5,0.1,0.7,0.3,0.7,0.7
				c0,0.4-0.2,0.7-0.6,0.7c-0.1,0-0.2,0-0.4,0c-1.2,0-2.3-0.9-3.2-2.6c-0.1-0.1-0.2-0.4-0.3-0.7c-0.1-0.3-0.2-0.6-0.2-0.7
				c-0.1,0.2-0.3,0.4-0.5,0.6c-0.2,0.2-0.4,0.4-0.5,0.6c-2.3,2.3-4,3.4-5.3,3.4c-0.4,0-0.8-0.1-1.1-0.3
				C457.4,395.3,457.3,395.2,457.2,395z M458.9,393.8c0.2,0,0.5-0.1,0.8-0.3c0.3-0.2,0.6-0.4,1-0.7c1.8-1.5,3.1-2.9,3.8-4l0.7-1.1
				c-0.2-0.4-0.4-0.7-0.7-0.9s-0.4-0.3-0.6-0.3c-0.4,0-1.1,0.5-2,1.6s-1.8,2.4-2.5,3.8c-0.2,0.4-0.4,0.7-0.5,1.1
				c-0.1,0.4-0.2,0.6-0.3,0.7C458.6,393.8,458.7,393.8,458.9,393.8z"/>
			<path class="st0" d="M472.2,395.6c-0.3-0.4-0.6-0.7-0.7-1.1c0,0,0-0.1-0.1-0.1c0-0.1-0.1-0.1-0.1-0.1c-0.1-0.1-0.1-0.4-0.1-1
				c0-0.5,0-1,0.1-1.6c0.1-0.5,0.1-1,0.2-1.3l0.6-1.6l0.4-1.2l0.8-1.8l-1.2-0.3c-0.1,0-0.3-0.1-0.4-0.2s-0.1-0.2-0.1-0.3
				c0-0.2,0.1-0.4,0.3-0.6c0.2-0.2,0.3-0.4,0.4-0.4c0.1,0,0.2,0,0.5,0c0.6,0,1.1,0,1.4-0.1c0.2-0.1,0.4-0.2,0.4-0.5
				c0.1-0.2,0.2-0.4,0.3-0.6c0.1-0.2,0.2-0.5,0.3-0.7c0.1-0.1,0.2-0.3,0.3-0.6c0.1-0.3,0.3-0.6,0.5-0.9c0-0.1,0.1-0.2,0.3-0.5
				c0.1-0.2,0.3-0.4,0.5-0.6c0.1-0.1,0.3-0.2,0.5-0.2c0.2,0,0.5,0.1,0.8,0.4c0,0.1,0.1,0.1,0.2,0.2c0.1,0.1,0.1,0.2,0.1,0.3
				c0,0.1-0.1,0.3-0.2,0.5c-0.1,0.2-0.2,0.5-0.4,0.7c-0.1,0.2-0.2,0.4-0.3,0.5c-0.2,0.4-0.4,0.7-0.5,0.9c-0.2,0.3-0.3,0.5-0.3,0.6
				s0.1,0.2,0.4,0.2c0.3,0,0.8-0.1,1.5-0.2c0.3,0,0.5-0.1,0.6-0.1c0.7,0,1.1,0.3,1.2,0.9c0,0.1,0,0.3,0,0.4c0,0.3-0.1,0.5-0.3,0.5
				c-0.2,0.1-0.6,0.1-1.3,0.1c-0.7,0.1-1.3,0.2-2,0.2c-0.1,0-0.3,0-0.4,0c-0.2,0-0.3,0-0.5,0.1c-0.2,0-0.3,0.1-0.4,0.2
				c-0.1,0.1-0.1,0.2-0.2,0.4c-0.1,0.1-0.2,0.3-0.4,0.7c-0.3,0.6-0.5,1-0.6,1.1c-0.6,1.7-1,3.3-1.2,5.1c0,0.3-0.1,0.5-0.1,0.6
				c0,0.3,0.1,0.5,0.3,0.7c0.2,0.1,0.6,0.2,1.1,0.2c0.7,0,1.3-0.1,1.8-0.2c0.6-0.3,1.1-0.5,1.4-0.7c0.2-0.1,0.4-0.2,0.5-0.3
				c0.2-0.1,0.3-0.2,0.3-0.2c0.1-0.1,0.1-0.2,0.2-0.2c0.2,0,0.3,0.2,0.4,0.5c0,0.3-0.1,0.6-0.2,0.9s-0.5,0.5-1.1,0.9
				c-1.2,0.8-2.4,1.1-3.6,1.1c-0.3,0-0.6,0-0.9-0.1C472.9,396.3,472.6,396,472.2,395.6z"/>
			<path class="st0" d="M484.6,396.1c-0.5,0-1-0.1-1.5-0.4s-0.9-0.6-1.2-1c-0.3-0.3-0.5-0.7-0.6-1.1c-0.1-0.4-0.2-0.9-0.2-1.5
				c0-0.2,0-0.6,0.1-1.2c0.1-0.8,0.3-1.6,0.8-2.4c0.4-0.8,1-1.6,1.7-2.2c0.7-0.7,1.3-1.1,2-1.3c0.3-0.2,0.6-0.3,0.9-0.3
				c0.1,0,0.3,0,0.4,0c0.1,0,0.3,0,0.5,0.1c0.5,0.1,0.8,0.2,1,0.3c0.2,0.1,0.4,0.3,0.6,0.5c0.5,0.5,0.8,1.1,0.8,1.8
				c-0.1,0.5-0.4,1.1-1,1.7c-0.6,0.6-1.2,1.2-2,1.6c-0.4,0.1-0.8,0.2-1.3,0.2c-0.6,0-1.2-0.1-1.6-0.4c-0.2-0.1-0.3-0.1-0.4-0.1
				c-0.2,0-0.3,0.1-0.4,0.4c-0.1,0.2-0.2,0.7-0.3,1.4c0,0.1,0,0.4,0,0.6c0,1.1,0.4,1.6,1.1,1.7c0.5,0.1,0.8,0.2,1,0.2
				c0.2,0,0.5-0.1,0.8-0.2l0.6-0.3c0.1-0.1,0.2-0.1,0.3-0.2s0.2-0.2,0.3-0.3c0,0,0.1-0.1,0.2-0.2s0.2-0.2,0.2-0.2c0.1,0,0.1,0,0.2,0
				c0.1,0,0.2,0,0.3,0.1s0.2,0.2,0.2,0.2c0.2,0,0.2,0.1,0.1,0.4c-0.1,0.3-0.3,0.6-0.7,0.9c-0.3,0.3-0.7,0.6-1.2,0.9
				C486,395.9,485.4,396.1,484.6,396.1z M487.5,388.1c0.4-0.4,0.5-0.7,0.5-0.9s-0.1-0.5-0.3-0.6c-0.2-0.2-0.4-0.2-0.8-0.2
				c-0.2,0-0.4,0-0.6,0.1c-0.3,0.1-0.6,0.3-1,0.7c-0.4,0.4-0.7,0.7-1,1.1c-0.3,0.4-0.4,0.6-0.3,0.7c0.1,0.2,0.5,0.3,1.2,0.3
				c0.5,0,0.9-0.1,1.2-0.2C486.8,388.7,487.2,388.5,487.5,388.1z"/>
			<path class="st0" d="M500.2,387.9c0,0.3-0.1,0.6-0.4,0.9c-0.1,0.1-0.2,0.3-0.3,0.5c-0.2,0.2-0.3,0.4-0.4,0.7
				c-0.1,0.2-0.2,0.5-0.3,0.8c-0.1,0.5-0.3,1.5-0.7,3l-0.3,1.2l-0.5,1.9c-0.9,3.2-1.9,5.1-2.8,5.5c-0.3,0.1-0.5,0.2-0.8,0.2
				c-0.5,0-0.9-0.2-1.4-0.4c-0.5-0.3-0.9-0.7-1.3-1.2c-0.2-0.3-0.4-0.8-0.6-1.4c-0.2-0.6-0.2-1-0.1-1.1c0,0,0.1-0.1,0.2-0.1
				c0.1,0,0.3,0,0.5,0.1s0.3,0.2,0.3,0.3c0.1,0.2,0.3,0.5,0.5,0.9s0.5,0.6,0.6,0.6c0.3,0.2,0.6,0.2,0.8,0.2c0.2,0,0.4-0.1,0.5-0.2
				c0.3-0.3,0.6-0.6,0.9-1s0.5-1.1,0.8-2l0.2-0.9c0.5-1.8,0.9-3,1.1-3.5c0.1-0.3,0.2-0.6,0.3-0.8l-0.6,0.5c-0.2,0.2-0.5,0.4-0.8,0.7
				c-0.3,0.2-0.5,0.4-0.8,0.5c-0.1,0.2-0.5,0.3-1.1,0.3c-0.4,0-0.8-0.1-1.2-0.2c-0.4-0.2-0.7-0.4-0.8-0.5c-0.1-0.1-0.2-0.4-0.4-0.9
				c-0.1-0.2-0.1-0.4-0.1-0.8c0-0.9,0.2-1.8,0.6-2.9c0.4-0.8,1-1.7,1.9-2.6c0.8-0.9,1.6-1.5,2.2-1.6c0.2-0.1,0.5-0.2,0.7-0.2
				c0.2,0,0.5,0,0.7,0.1c0.3,0,0.6,0.1,0.8,0.2c0.2,0.1,0.5,0.3,0.9,0.7c0.5,0.5,0.9,1,1.1,1.6C500.1,387.4,500.2,387.7,500.2,387.9
				z M497.3,388.7c0.1-0.5,0.2-1.1,0.2-1.6c0-0.3-0.1-0.5-0.1-0.6c-0.1-0.1-0.2-0.2-0.3-0.2c-0.4,0-0.8,0.2-1.4,0.6s-1,0.9-1.5,1.5
				c-0.3,0.4-0.6,0.9-0.8,1.5c-0.2,0.7-0.4,1.4-0.4,2c0,0.5,0.1,0.7,0.2,0.8c0.6,0,1.2-0.2,1.8-0.6c0.5-0.4,1-0.9,1.6-1.7
				C496.9,389.8,497.2,389.3,497.3,388.7z"/>
			<path class="st0" d="M512,386.1c0,0.4-0.2,1-0.7,2c-0.2,0.5-0.3,0.9-0.5,1.3s-0.3,0.7-0.4,0.8l-0.7,1.6c-0.3,0.7-0.7,1.5-1.1,2.4
				c-0.6,1.2-1,2-1.2,2.6l-0.4,0.7c-1,1.7-1.8,2.8-2.4,3.5c-1.1,1-2,1.6-2.6,1.8c-0.3,0.1-0.6,0.1-1,0.1c-0.7,0-1.3-0.2-1.9-0.4
				c-0.6-0.3-1-0.6-1-1c0-0.1,0-0.3,0.2-0.5s0.3-0.2,0.4-0.2c0.1,0,0.2,0,0.2,0.1c0.2,0.1,0.4,0.2,0.7,0.4c0.3,0.1,0.7,0.2,1,0.2
				c0.1,0,0.3,0,0.6-0.1c0.4-0.1,0.8-0.3,1.3-0.7c0.5-0.4,0.9-0.9,1.2-1.4c0.7-1,1.5-2.3,2.3-3.9c-0.3-0.1-0.6-0.3-0.8-0.6
				s-0.5-0.7-0.6-1c-0.2-0.4-0.2-0.6-0.2-0.8v-0.3c-0.2,0-0.3-0.4-0.4-1.1c-0.1-0.7-0.2-1.5-0.2-2.4c0-0.4,0-0.8,0.1-1.3
				c0.1-0.3,0.1-0.7,0.1-1.2c0-0.5,0-0.8,0-0.9v-0.1c0-0.2,0-0.4,0.1-0.5c0.1-0.1,0.1-0.2,0.3-0.3c0.2-0.1,0.3-0.1,0.5-0.1
				c0.6,0,0.9,0.8,0.9,2.3c0,0.2,0,0.7-0.1,1.3c0,0.3,0,0.7,0,1.3c0,1.1,0.1,2,0.3,2.9c0.2,0.8,0.5,1.4,0.8,1.7l0.2-0.4
				c0.2-0.6,0.4-1,0.5-1.1c0.3-0.6,0.5-1,0.5-1.1c0-0.1,0.2-0.4,0.3-0.7l0.4-0.8c0-0.1,0.2-0.5,0.4-1.2s0.5-1.2,0.7-1.6
				c0.1-0.2,0.2-0.4,0.4-0.7c0.2-0.3,0.3-0.6,0.4-0.7s0.2-0.2,0.3-0.3c0.2-0.1,0.3-0.2,0.4-0.2c0.1,0,0.2,0.1,0.4,0.2
				C511.8,385.4,512,385.8,512,386.1z"/>
		</g>
	</g>
	<g>
		<g>
			<path class="st0" d="M316.1,548.1c-0.3-0.4-0.6-0.7-0.7-1.1c0,0,0-0.1-0.1-0.1c0-0.1-0.1-0.1-0.1-0.1c-0.1-0.1-0.1-0.4-0.1-1
				c0-0.5,0-1,0.1-1.6c0.1-0.5,0.1-1,0.2-1.3l0.6-1.6l0.4-1.2l0.8-1.8l-1.2-0.3c-0.1,0-0.3-0.1-0.4-0.2s-0.1-0.2-0.1-0.3
				c0-0.2,0.1-0.4,0.3-0.6c0.2-0.2,0.3-0.4,0.4-0.4c0.1,0,0.2,0,0.5,0c0.6,0,1.1,0,1.4-0.1c0.2-0.1,0.4-0.2,0.4-0.5
				c0.1-0.2,0.2-0.4,0.3-0.6c0.1-0.2,0.2-0.5,0.3-0.7c0.1-0.1,0.2-0.3,0.3-0.6c0.1-0.3,0.3-0.6,0.5-0.9c0-0.1,0.1-0.2,0.3-0.5
				c0.1-0.2,0.3-0.4,0.5-0.6c0.1-0.1,0.3-0.2,0.5-0.2c0.2,0,0.5,0.1,0.8,0.4c0,0.1,0.1,0.1,0.2,0.2c0.1,0.1,0.1,0.2,0.1,0.3
				c0,0.1-0.1,0.3-0.2,0.5c-0.1,0.2-0.2,0.5-0.4,0.7c-0.1,0.2-0.2,0.4-0.3,0.5c-0.2,0.4-0.4,0.7-0.5,0.9c-0.2,0.3-0.3,0.5-0.3,0.6
				s0.1,0.2,0.4,0.2c0.3,0,0.8-0.1,1.5-0.2c0.3,0,0.5-0.1,0.6-0.1c0.7,0,1.1,0.3,1.2,0.9c0,0.1,0,0.3,0,0.4c0,0.3-0.1,0.5-0.3,0.5
				c-0.2,0.1-0.6,0.1-1.3,0.1c-0.7,0.1-1.3,0.2-2,0.2c-0.1,0-0.3,0-0.4,0c-0.2,0-0.3,0-0.5,0.1c-0.2,0-0.3,0.1-0.4,0.2
				c-0.1,0.1-0.1,0.2-0.2,0.4c-0.1,0.1-0.2,0.3-0.4,0.7c-0.3,0.6-0.5,1-0.6,1.1c-0.6,1.7-1,3.3-1.2,5.1c0,0.3-0.1,0.5-0.1,0.6
				c0,0.3,0.1,0.5,0.3,0.7c0.2,0.1,0.6,0.2,1.1,0.2c0.7,0,1.3-0.1,1.8-0.2c0.6-0.3,1.1-0.5,1.4-0.7c0.2-0.1,0.4-0.2,0.5-0.3
				c0.2-0.1,0.3-0.2,0.3-0.2c0.1-0.1,0.1-0.2,0.2-0.2c0.2,0,0.3,0.2,0.4,0.5c0,0.3-0.1,0.6-0.2,0.9s-0.5,0.5-1.1,0.9
				c-1.2,0.8-2.4,1.1-3.6,1.1c-0.3,0-0.6,0-0.9-0.1C316.8,548.7,316.4,548.5,316.1,548.1z"/>
			<path class="st0" d="M325.8,547.3c-0.3,0-0.5-0.1-0.7-0.2c-0.2-0.1-0.3-0.3-0.3-0.3c-0.1-0.1-0.1-0.2-0.1-0.3
				c0-0.1,0.1-0.5,0.2-1.1l0.3-1c0.2-0.8,0.4-1.5,0.6-2.1c0.1-0.5,0.2-1.1,0.5-1.6c0.2-0.6,0.4-0.9,0.4-1.1c0.2-0.6,0.5-1.5,1-2.8
				l0.9-2.5c0.7-2,1.2-3.2,1.3-3.6l0.5-1.4c0-0.3,0.2-0.5,0.5-0.5c0.3,0,0.5,0.2,0.7,0.5c0.2,0.3,0.3,0.7,0.3,1.1
				c0,0.3-0.1,0.6-0.2,0.9c-0.3,0.6-0.6,1.4-0.9,2.3s-0.6,1.6-0.7,1.8c-0.7,2-1.2,3.3-1.5,4c0,0.1,0,0.2-0.1,0.4
				c-0.1,0.2-0.1,0.4-0.2,0.6l-0.3,0.7c0,0.1-0.1,0.5-0.3,1.3c-0.3,0.9-0.5,1.5-0.5,2c0.1-0.2,0.3-0.5,0.7-0.9
				c0.3-0.4,0.6-0.7,0.9-0.9c1.1-1,1.8-1.5,2.1-1.7c0.2-0.1,0.5-0.3,0.6-0.4s0.3-0.2,0.3-0.2c0-0.1,0.1-0.2,0.3-0.2
				c0.1,0,0.1,0,0.1,0s0-0.1,0-0.2c0-0.1,0.2-0.3,0.7-0.4c0.5-0.1,0.9-0.2,1.3-0.2c0.2,0,0.4,0.1,0.6,0.2s0.3,0.3,0.6,0.7
				c0.4,0.5,0.5,1,0.5,1.6c0,0.3-0.1,0.7-0.2,1c0,0.2,0,0.4-0.1,0.8s-0.1,0.6-0.1,0.9l-0.2,1h0.5c0.1,0,0.3,0,0.4,0.1
				c0.1,0,0.2,0.1,0.3,0.1c0.2,0.2,0.4,0.3,0.5,0.3c0.2,0,0.3,0.1,0.3,0.2c0,0.1,0,0.2-0.1,0.3s-0.2,0.2-0.3,0.3
				c-0.5,0.3-1,0.5-1.4,0.5c-0.4,0-0.7-0.2-1.1-0.5c-0.5-0.5-0.7-1-0.7-1.6c0-0.3,0.1-0.7,0.2-1.2l0.1-1c0-0.5,0.1-0.8,0.1-0.9
				c0-0.5-0.1-0.7-0.3-0.7c-0.3,0-0.8,0.3-1.7,0.8c-0.8,0.5-1.7,1.1-2.5,1.9c-0.9,0.8-1.6,1.5-2.1,2.3c-0.3,0.4-0.6,0.7-0.8,0.9
				s-0.4,0.3-0.6,0.3H325.8z"/>
			<path class="st0" d="M342.9,548.6c-0.5,0-1-0.1-1.5-0.4s-0.9-0.6-1.2-1c-0.3-0.3-0.5-0.7-0.6-1.1c-0.1-0.4-0.2-0.9-0.2-1.5
				c0-0.2,0-0.6,0.1-1.2c0.1-0.8,0.3-1.6,0.8-2.4c0.4-0.8,1-1.6,1.7-2.2c0.7-0.7,1.3-1.1,2-1.3c0.3-0.2,0.6-0.3,0.9-0.3
				c0.1,0,0.3,0,0.4,0c0.1,0,0.3,0,0.5,0.1c0.5,0.1,0.8,0.2,1,0.3c0.2,0.1,0.4,0.3,0.6,0.5c0.5,0.5,0.8,1.1,0.8,1.8
				c-0.1,0.5-0.4,1.1-1,1.7c-0.6,0.6-1.2,1.2-2,1.6c-0.4,0.1-0.8,0.2-1.3,0.2c-0.6,0-1.2-0.1-1.6-0.4c-0.2-0.1-0.3-0.1-0.4-0.1
				c-0.2,0-0.3,0.1-0.4,0.4c-0.1,0.2-0.2,0.7-0.3,1.4c0,0.1,0,0.4,0,0.6c0,1.1,0.4,1.6,1.1,1.7c0.5,0.1,0.8,0.2,1,0.2
				c0.2,0,0.5-0.1,0.8-0.2l0.6-0.3c0.1-0.1,0.2-0.1,0.3-0.2s0.2-0.2,0.3-0.3c0,0,0.1-0.1,0.2-0.2s0.2-0.2,0.2-0.2c0.1,0,0.1,0,0.2,0
				c0.1,0,0.2,0,0.3,0.1s0.2,0.2,0.2,0.2c0.2,0,0.2,0.1,0.1,0.4c-0.1,0.3-0.3,0.6-0.7,0.9c-0.3,0.3-0.7,0.6-1.2,0.9
				C344.2,548.4,343.6,548.6,342.9,548.6z M345.8,540.6c0.4-0.4,0.5-0.7,0.5-0.9s-0.1-0.5-0.3-0.6c-0.2-0.2-0.4-0.2-0.8-0.2
				c-0.2,0-0.4,0-0.6,0.1c-0.3,0.1-0.6,0.3-1,0.7c-0.4,0.4-0.7,0.7-1,1.1c-0.3,0.4-0.4,0.6-0.3,0.7c0.1,0.2,0.5,0.3,1.2,0.3
				c0.5,0,0.9-0.1,1.2-0.2C345.1,541.2,345.4,540.9,345.8,540.6z"/>
			<path class="st0" d="M359.5,548.3c-0.1-0.1-0.2-0.2-0.3-0.5c-0.2-0.2-0.3-0.3-0.3-0.4c0-0.1,0-0.2,0-0.3c0.2,0,0.4,0,0.4-0.1
				c0-0.1,0-0.1,0.1-0.1s0.1,0,0.2,0c0.6,0,1.4-0.2,2.4-0.9s2.1-1.4,3.2-2.4c0.6-0.8,1-1.4,1.3-1.8c0.2-0.4,0.4-0.8,0.4-1.1
				c0-0.2,0-0.3-0.1-0.5c-0.1-0.1-0.3-0.2-0.7-0.2c-0.6,0-1.3,0.2-2,0.7c-0.9,0.6-1.6,1.1-2.1,1.5c-0.5,0.5-1,1-1.5,1.6
				c-0.2,0.3-0.4,0.6-0.6,1c-0.2,0.4-0.3,0.7-0.4,0.8c0,0.1-0.1,0.2-0.4,0.3c-0.2,0.1-0.4,0.2-0.6,0.2c-0.1,0-0.2-0.1-0.4-0.2
				c-0.1-0.1-0.2-0.3-0.2-0.4c0,0-0.1-0.1-0.2-0.2c-0.1-0.1-0.2-0.1-0.2-0.2c0-0.1,0-0.1,0-0.2c0-0.1,0.1-0.4,0.2-0.8
				c0.1-0.4,0.2-0.7,0.3-0.9c0.2-0.8,0.4-1.6,0.6-2.4c0.3-0.8,0.4-1.3,0.5-1.4c0,0,0.1-0.2,0.1-0.3c0.1-0.2,0.1-0.4,0.1-0.6
				c0-0.2,0.1-0.4,0.2-0.6s0.1-0.4,0.1-0.4c0.1-0.1,0.4-0.9,1-2.4c0-0.1,0.2-0.6,0.7-1.6c0.7-1.5,1.1-2.5,1.2-3
				c0.2-0.3,0.4-0.5,0.5-0.8c0.2-0.4,0.4-0.6,0.5-0.7c0.2,0,0.4,0,0.6,0.1s0.5,0.3,0.6,0.5c0.1,0.1,0.2,0.2,0.2,0.3
				c0,0.1-0.1,0.3-0.2,0.6c-0.1,0.3-0.2,0.6-0.4,0.9c-0.1,0.3-0.2,0.5-0.3,0.7l-0.8,1.6c-0.6,1.2-1,2.2-1.4,3.1
				c-0.4,0.9-0.7,2-1.1,3.1l-0.6,1.5l-0.2,0.7l0.8-0.7c0.2-0.2,0.7-0.6,1.4-1.1c0.1-0.1,0.3-0.2,0.4-0.3c0.1-0.1,0.2-0.2,0.3-0.2
				c0.2-0.2,0.6-0.4,1.1-0.6c0.5-0.2,0.8-0.3,1-0.4c0.4-0.1,0.9-0.2,1.4-0.2c0.4,0,0.8,0.1,1.1,0.3c0.3,0.2,0.6,0.5,0.8,1
				c0.2,0.4,0.3,0.8,0.3,1.2c0,0.6-0.2,1.2-0.5,1.8c-0.1,0.1-0.2,0.2-0.3,0.3c-0.1,0.1-0.2,0.2-0.2,0.3c0,0.1-0.2,0.4-0.5,0.8
				c-0.3,0.4-0.7,0.9-1.1,1.3c-0.5,0.6-1.2,1.1-2.1,1.7c-0.9,0.6-1.6,0.9-2.2,1.1c-0.1,0-0.4,0.1-0.7,0.1s-0.6,0.1-0.7,0.1
				C359.9,548.4,359.6,548.4,359.5,548.3z"/>
			<path class="st0" d="M370.6,547.6c-0.1-0.1-0.1-0.3-0.1-0.5c0-0.2,0-0.3,0-0.5c0.1-0.7,0.2-1.5,0.5-2.4l0.2-0.6
				c0.1-0.5,0.4-1.6,1.1-3.3c0.7-1.7,1.2-2.8,1.6-3.4c0.2-0.1,0.3-0.2,0.5-0.2c0.3,0,0.5,0.1,0.7,0.3c0.1,0.1,0.2,0.2,0.2,0.5
				c0,0.2-0.1,0.5-0.2,0.9s-0.4,1-0.8,1.8c-0.1,0.2-0.2,0.5-0.4,0.9c-0.2,0.5-0.3,0.7-0.3,0.8c0,0,0,0.1,0,0.1c0,0,0.1,0,0.1,0
				c0,0,0.1-0.1,0.1-0.1c0.2-0.4,0.8-0.9,1.7-1.6c0.9-0.7,1.5-1.1,1.8-1.3c0.1-0.1,0.3-0.2,0.6-0.2c0.2-0.1,0.4-0.1,0.5-0.2
				c0.3-0.2,0.7-0.2,1.2-0.2c0.3,0,0.5,0,0.8,0.1s0.4,0.2,0.4,0.4c0,0.1,0.1,0.3,0.2,0.3c0.1,0.1,0.2,0.1,0.2,0.2
				c0.1,0,0.1,0,0.1,0.1s0,0.1,0,0.1c0,0.1-0.1,0.2-0.2,0.3c-0.2,0-0.5,0.1-0.9,0.1c-0.2,0-0.5,0.1-0.7,0.2s-0.5,0.2-0.7,0.3
				c-1.2,0.7-2,1.2-2.6,1.5c-0.6,0.4-1.1,0.9-1.7,1.5c-0.2,0.2-0.5,0.7-0.9,1.3c-0.1,0.1-0.3,0.5-0.4,1.1c-0.2,0.6-0.2,1-0.2,1.1
				c0,0.1-0.1,0.2-0.1,0.4c-0.1,0.2-0.2,0.3-0.3,0.5c-0.2,0.3-0.5,0.5-0.6,0.5c-0.2,0-0.4-0.2-0.7-0.5
				C370.8,547.8,370.6,547.7,370.6,547.6z"/>
			<path class="st0" d="M381.3,547.5c-0.1-0.1-0.2-0.2-0.2-0.3c0-0.2-0.1-0.4-0.2-0.5c0,0-0.1-0.1-0.1-0.3c0-0.3,0.2-0.9,0.5-1.7
				c0.3-0.8,0.7-1.7,1.3-2.6c0.1-0.1,0.3-0.3,0.5-0.7s0.3-0.5,0.4-0.5c0-0.1,0-0.2,0.1-0.2c0.1-0.1,0.1-0.1,0.2-0.1v-0.2
				c0-0.2,0.3-0.6,1-1.3s1.2-1.2,1.7-1.5c0.5-0.4,1-0.5,1.6-0.5c0.4,0,0.7,0.1,1,0.3c0.1,0.1,0.6,0.6,1.4,1.3l1.1,1l-0.6,1.5
				c-0.2,0.6-0.3,1.1-0.3,1.5c0,0.8,0.2,1.5,0.7,2.3c0.1,0.2,0.3,0.4,0.6,0.7c0.3,0.2,0.6,0.3,0.9,0.4c0.5,0.1,0.7,0.3,0.7,0.7
				c0,0.4-0.2,0.7-0.6,0.7c-0.1,0-0.2,0-0.4,0c-1.2,0-2.3-0.9-3.2-2.6c-0.1-0.1-0.2-0.4-0.3-0.7c-0.1-0.3-0.2-0.6-0.2-0.7
				c-0.1,0.2-0.3,0.4-0.5,0.6c-0.2,0.2-0.4,0.4-0.5,0.6c-2.3,2.3-4,3.4-5.3,3.4c-0.4,0-0.8-0.1-1.1-0.3
				C381.5,547.8,381.4,547.6,381.3,547.5z M383,546.2c0.2,0,0.5-0.1,0.8-0.3c0.3-0.2,0.6-0.4,1-0.7c1.8-1.5,3.1-2.9,3.8-4l0.7-1.1
				c-0.2-0.4-0.4-0.7-0.7-0.9s-0.4-0.3-0.6-0.3c-0.4,0-1.1,0.5-2,1.6s-1.8,2.4-2.5,3.8c-0.2,0.4-0.4,0.7-0.5,1.1
				c-0.1,0.4-0.2,0.6-0.3,0.7C382.7,546.3,382.8,546.3,383,546.2z"/>
			<path class="st0" d="M404.8,547.3c-0.3-0.2-0.5-0.5-0.7-0.9c-0.2-0.7-0.3-1.3-0.3-2c0-0.3,0-0.5,0.1-0.7c0.1-0.1,0.1-0.3,0.1-0.5
				c0-0.3,0-0.5,0-0.6c0-0.5-0.2-0.7-0.4-0.7c-0.2,0-0.4,0.1-0.6,0.2c-1.2,0.7-2.1,1.3-2.9,1.9s-1.5,1.1-2.3,1.7
				c-0.3,0.3-0.5,0.6-0.7,0.9s-0.2,0.4-0.3,0.5c-0.1,0.1-0.1,0.1-0.2,0.1c-0.1,0-0.2,0.1-0.2,0.1c-0.1,0-0.2-0.1-0.4-0.2
				c-0.1-0.1-0.2-0.2-0.3-0.2c-0.1-0.1-0.2-0.2-0.4-0.4c-0.2-0.2-0.3-0.3-0.3-0.4c0-0.2,0.1-0.5,0.2-1.1c0.1-0.6,0.2-1,0.3-1.1
				c0.1,0,0.2-0.1,0.3-0.4c0.1-0.3,0.2-0.5,0.3-0.6c0.1-0.3,0.3-1,0.8-2.1c0.3-0.5,0.5-0.9,0.6-1.2c0.1-0.3,0.2-0.7,0.2-1.2v-0.1
				c0-0.1,0-0.1,0.1-0.2c0.1-0.1,0.1-0.1,0.2-0.1c0.1-0.1,0.3-0.2,0.4-0.2c0.3,0,0.5,0.2,0.8,0.5c0.3,0.4,0.5,0.8,0.5,1.2
				c0,0.5-0.3,1.4-1,2.5c-0.1,0.1-0.2,0.4-0.3,0.6c-0.1,0.3-0.2,0.5-0.2,0.6l1.7-1.2c0.2-0.2,0.6-0.5,1.3-1c0.7-0.5,1.2-0.7,1.5-0.8
				c0.5-0.2,0.8-0.3,0.9-0.3c0.2,0,0.6,0.2,1,0.6s0.7,0.7,0.8,0.9c0,0.2,0,0.4,0.1,0.5c0.1,0.4,0.2,0.9,0.2,1.5c0,0.4,0,0.7-0.1,1
				c-0.1,0.3-0.1,0.5-0.2,0.5c0,0,0,0.1,0,0.1c0,0,0.1,0.1,0.1,0.1v0.2c-0.2,0-0.2,0.2-0.1,0.5s0.3,0.6,0.5,0.8
				c0.2,0.2,0.3,0.4,0.3,0.6c0,0.2-0.2,0.4-0.6,0.5C405.5,547.6,405.1,547.5,404.8,547.3z"/>
			<path class="st0" d="M415.9,548.9c-0.3-0.8-0.4-1.7-0.4-2.5c0-0.2,0-0.4,0-0.5l0.1-0.7l-1.2,1c-0.7,0.6-1.3,1-2,1.3
				s-1.2,0.4-1.8,0.4c-0.4-0.1-0.7-0.2-1-0.4s-0.6-0.5-0.7-0.9c-0.1-0.2-0.1-0.4-0.1-0.7c0-0.8,0.2-1.7,0.6-2.7
				c0.4-1,0.9-1.9,1.5-2.6c0.9-1.3,1.9-2,3-2c0.5,0,1,0.2,1.6,0.5c0.5,0.2,0.8,0.3,0.9,0.3c0.1,0,0.2-0.1,0.3-0.2
				c0.1-0.1,0.1-0.3,0.2-0.6c0.2-1,0.4-1.7,0.7-2.4c0.5-1.4,0.8-2.5,1.2-3.3c0.3-0.8,0.7-1.7,1.2-2.7c0.2-0.4,0.4-0.7,0.5-0.9
				c0.2-0.1,0.3-0.2,0.5-0.2c0.5,0,0.8,0.3,1.1,0.9c0.1,0.1,0.1,0.3,0.1,0.4s-0.1,0.3-0.2,0.6c-0.5,0.9-1.2,2.4-2,4.6
				c-0.8,2.1-1.4,3.9-1.8,5.5c-0.2,0.7-0.3,1.7-0.5,2.9c-0.1,1.3-0.2,2.3-0.2,3.2c0,0.4,0,0.6,0.1,0.8c0.1,0.4,0.2,0.7,0.2,0.9
				c0,0.2-0.1,0.3-0.2,0.4s-0.3,0.1-0.5,0.1C416.4,549.7,416.1,549.5,415.9,548.9z M413.5,545.2c0.1-0.1,0.4-0.3,0.9-0.7
				c0.5-0.4,0.8-0.7,1.1-1.1s0.4-0.8,0.5-1.3c0-0.4,0-0.7-0.1-0.9c-0.1-0.2-0.3-0.5-0.5-0.7c-0.2-0.1-0.5-0.2-0.8-0.2
				c-0.6,0-1.1,0.2-1.5,0.7c-0.6,0.5-1.1,1.1-1.5,1.9c-0.4,0.8-0.8,1.7-1,2.7c-0.1,0.4,0.1,0.6,0.6,0.6c0.2,0,0.4,0,0.6-0.1
				C412.2,546.1,412.8,545.7,413.5,545.2z"/>
		</g>
	</g>
	<g>
		<g>
			<g>
				<path class="st0" d="M334.9,81.5c-12.5,0-22.7-10.2-22.7-22.7c0-12.5,10.2-22.7,22.6-22.7c3.4,0,6.7,0.7,9.8,2.2
					c0,0.1,0.2,3.2,0.2,3.2l-1,1c-2.7-1.5-5.9-2.3-9-2.3c-10.3,0-18.6,8.4-18.6,18.6c0,10.3,8.4,18.6,18.6,18.6
					c10.3,0,18.6-8.4,18.6-18.6c0-3.2-0.8-6.3-2.3-9l1.2-1.2l2.5,0.2c0.1,0,0.2,0,0.4,0c1.5,3.1,2.3,6.5,2.3,10
					C357.6,71.3,347.4,81.5,334.9,81.5z"/>
				<path class="st0" d="M334.9,69.4c-5.8,0-10.6-4.7-10.6-10.6c0-5.8,4.7-10.6,10.6-10.6c1,0,2,0.1,2.9,0.4l-2.9,2.9c0,0,0,0,0,0
					c-4,0-7.3,3.3-7.3,7.3c0,4,3.3,7.3,7.3,7.3c4,0,7.3-3.3,7.3-7.3c0,0,0,0,0,0l2.9-2.9c0.3,0.9,0.4,1.9,0.4,2.9
					C345.5,64.6,340.8,69.4,334.9,69.4z"/>
				<path class="st0" d="M336.4,57.6c-0.1,0-0.2-0.1-0.2-0.1c0,0-0.1-0.1-0.1-0.2l0.1-1.4c0-0.1,0-0.1,0.1-0.2L349,43l-0.4-4.7
					c0-0.5,0.1-1,0.5-1.3l5.5-5.5L355,37l3.4-3.4c0.1-0.1,0.2-0.2,0.4-0.2c0.1,0,0.2,0,0.4,0.2l1,1c0.2,0.2,0.2,0.5,0,0.7l-3.2,3.2
					l5.1,0.4l-5.5,5.5c-0.3,0.3-0.7,0.5-1.2,0.5l-0.3,0l-4.1-0.3l-12.9,12.9c-0.1,0-0.1,0.1-0.2,0.1L336.4,57.6L336.4,57.6z"/>
			</g>
		</g>
		<g>
			<path class="st0" d="M181.4,46L181.4,46c0.4,0,0.8-0.2,1.1-0.5c0.3-0.3,0.5-0.7,0.5-1.1c0-0.4-0.2-0.8-0.5-1.1
				c-0.3-0.3-0.7-0.5-1.1-0.5h0c-0.4,0-0.8,0.2-1.1,0.5c-0.3,0.3-0.5,0.7-0.5,1.1s0.2,0.8,0.5,1.1C180.5,45.8,180.9,46,181.4,46z"/>
			<path class="st0" d="M190.7,48.4c0-1.9-1.6-3.5-3.5-3.5s-3.5,1.6-3.5,3.5c0,1.9,1.6,3.5,3.5,3.5S190.7,50.3,190.7,48.4z"/>
			<path class="st0" d="M187.2,56.8c4.6,0,8.4-3.8,8.4-8.4c0-4.6-3.8-8.4-8.4-8.4c-1.2,0-2.3,0.2-3.4,0.7c-0.8,0.3-1.1,1.3-0.8,2.1
				c0.3,0.8,1.3,1.1,2.1,0.8c0.7-0.3,1.4-0.4,2.1-0.4c2.9,0,5.3,2.4,5.3,5.3c0,2.9-2.4,5.3-5.3,5.3c-2.9,0-5.3-2.4-5.3-5.4
				c0-0.4-0.1-0.8-0.4-1.1c-0.3-0.3-0.7-0.5-1.1-0.5c-0.4,0-0.8,0.1-1.1,0.4c-0.3,0.3-0.5,0.7-0.5,1.1l0,0.2
				C178.8,53,182.6,56.8,187.2,56.8z"/>
			<path class="st0" d="M187.2,34.3c0.9,0,1.6-0.7,1.6-1.6v-5.9c0-0.9-0.7-1.6-1.6-1.6s-1.6,0.7-1.6,1.6v5.9
				C185.7,33.6,186.4,34.3,187.2,34.3z"/>
			<path class="st0" d="M174.5,34.9c0.3,0.3,0.7,0.5,1.1,0.5c0.4,0,0.8-0.2,1.1-0.5c0.6-0.6,0.6-1.6,0-2.2h0l-4.2-4.2
				c-0.6-0.6-1.6-0.6-2.2,0c-0.6,0.6-0.6,1.6,0,2.2L174.5,34.9z"/>
			<path class="st0" d="M198.9,35.4c0.4,0,0.8-0.2,1.1-0.5l4.2-4.2c0.6-0.6,0.6-1.6,0-2.2c0,0,0,0,0,0c-0.6-0.6-1.6-0.6-2.2,0
				l-4.2,4.2c-0.3,0.3-0.5,0.7-0.5,1.1s0.2,0.8,0.5,1.1C198.1,35.2,198.4,35.4,198.9,35.4z"/>
			<path class="st0" d="M212.5,48.2c-7.2-8.2-16.7-13.1-25.3-13.1c-8.6,0-18,4.9-25.3,13.1c-0.6,0.6-0.5,1.6,0.1,2.2
				c0.3,0.3,0.7,0.4,1.1,0.4c0.4,0,0.8-0.2,1.1-0.5c0-0.1,0.1-0.1,0.1-0.2c5.1,7.2,13.7,11.6,22.8,11.6c9.1,0,17.7-4.4,22.8-11.6
				c0,0.1,0.1,0.1,0.1,0.2c0.3,0.3,0.7,0.5,1.1,0.5c0.4,0,0.8-0.1,1.1-0.4c0.3-0.3,0.5-0.7,0.5-1.1
				C212.9,48.9,212.8,48.5,212.5,48.2z M207.8,47.8c-4.4,6.6-12.4,10.8-20.6,10.8c-8.2,0-16.2-4.2-20.6-10.8
				c3.9-3.7,11.5-9.6,20.6-9.6C196.3,38.2,203.9,44,207.8,47.8z"/>
		</g>
		<g>
			<path class="st0" d="M67.2,108.5l-16-27.6v-7.3h10.2c0.8,0,1.5-0.7,1.5-1.5v-7.2c0-0.8-0.7-1.5-1.5-1.5H49.7
				c-0.8,0-1.5,0.7-1.5,1.5v16l-6.7,10.7L36,87.3c-0.3-0.3-0.7-0.4-1.1-0.3c-0.4,0.1-0.8,0.3-1,0.7l-13.5,20.7
				c-0.3,0.5-0.3,1-0.1,1.5s0.8,0.8,1.3,0.8h44.4c0.5,0,1-0.3,1.3-0.7C67.5,109.5,67.5,108.9,67.2,108.5z M24.3,107.7l11.2-17.1
				l4.5,3.5l-2.6,4.5c-0.2,0.3-0.2,0.7-0.1,1.1c0.1,0.4,0.4,0.7,0.7,0.9c0.7,0.4,1.6,0.1,2-0.6l3.2-5.6c0,0,0,0,6.5-10.4l13.7,23.6
				H24.3z"/>
			<path class="st0" d="M37.6,101.2c-0.7-0.4-1.6-0.1-2,0.6c-0.4,0.7-0.2,1.6,0.6,2c0.2,0.1,0.5,0.2,0.7,0.2c0.5,0,1-0.3,1.3-0.7
				c0.2-0.3,0.2-0.7,0.1-1.1C38.2,101.8,38,101.4,37.6,101.2z"/>
		</g>
		<g>
			<path class="st0" d="M463.3,157.7c-0.5-0.8-1.5-1.3-2.5-1.3h-25.5c-1,0-1.9,0.5-2.4,1.3l-5.8,8.9c-0.7,1.1-0.6,2.6,0.3,3.5
				l18.5,20.8c0.6,0.6,1.3,1,2.2,1c0.8,0,1.6-0.4,2.2-1l18.5-20.8c0.9-1,1-2.4,0.3-3.5L463.3,157.7z M465.6,166.8h-7.9l3.9-6.1
				L465.6,166.8z M464.9,169.9l-13.7,15.3l4.7-15.3H464.9z M450.9,159.5h7.9l-3.9,6.1L450.9,159.5z M452.8,169.9l-4.6,15l-4.6-15
				H452.8z M444.2,166.8l3.9-6l3.9,6H444.2z M440.3,169.9l4.7,15.3l-13.7-15.3H440.3z M437.5,159.5h7.8l-3.9,6.1L437.5,159.5z
				 M438.6,166.8h-7.9l4-6.1L438.6,166.8z"/>
			<path class="st0" d="M423,166.8h-2.1c-0.8,0-1.5,0.7-1.5,1.5c0,0.8,0.7,1.5,1.5,1.5h2.1c0.8,0,1.5-0.7,1.5-1.5
				C424.6,167.5,423.9,166.8,423,166.8z"/>
			<path class="st0" d="M474.8,166.8h-2.1c-0.8,0-1.5,0.7-1.5,1.5c0,0.8,0.7,1.5,1.5,1.5h2.1c0.8,0,1.5-0.7,1.5-1.5
				C476.3,167.5,475.6,166.8,474.8,166.8z"/>
			<path class="st0" d="M462.7,155.3c0.4,0,0.8-0.2,1.1-0.5l3.4-3.4c0.6-0.6,0.6-1.6,0-2.2h0c-0.6-0.6-1.6-0.6-2.2,0l-3.4,3.4
				c-0.6,0.6-0.6,1.6,0,2.2C461.9,155.2,462.3,155.3,462.7,155.3z"/>
			<path class="st0" d="M432.5,154.9c0.3,0.3,0.7,0.5,1.1,0.5c0.4,0,0.8-0.2,1.1-0.5c0.3-0.3,0.5-0.7,0.5-1.1c0-0.4-0.2-0.8-0.5-1.1
				l-3.4-3.4c-0.6-0.6-1.6-0.6-2.2,0c-0.3,0.3-0.5,0.7-0.5,1.1s0.2,0.8,0.5,1.1L432.5,154.9z"/>
			<path class="st0" d="M448.2,151.2c0.8,0,1.5-0.7,1.5-1.5v-6.8c0-0.8-0.7-1.5-1.5-1.5s-1.5,0.7-1.5,1.5v6.8
				C446.6,150.5,447.3,151.2,448.2,151.2z"/>
		</g>
		<g>
			<g>
				<path class="st0" d="M475.8,311c3.1,0,5.6-2.5,5.6-5.6s-2.5-5.6-5.6-5.6s-5.6,2.5-5.6,5.6C470.2,308.4,472.7,311,475.8,311z
					 M475.8,302.6c1.5,0,2.7,1.2,2.7,2.7c0,1.5-1.2,2.7-2.7,2.7s-2.7-1.2-2.7-2.7C473.1,303.8,474.3,302.6,475.8,302.6z"/>
				<path class="st0" d="M442.7,347.3c-3.1,0-5.6,2.5-5.6,5.6s2.5,5.6,5.6,5.6s5.6-2.5,5.6-5.6S445.8,347.3,442.7,347.3z
					 M442.7,355.7c-1.5,0-2.7-1.2-2.7-2.7c0-1.5,1.2-2.7,2.7-2.7s2.7,1.2,2.7,2.7C445.4,354.5,444.2,355.7,442.7,355.7z"/>
				<path class="st0" d="M456.6,324.7c0.3,0.3,0.7,0.4,1,0.4s0.7-0.1,1-0.4c0.6-0.6,0.6-1.5,0-2.1l-3-3l3-3c0.6-0.6,0.6-1.5,0-2.1
					s-1.5-0.6-2.1,0l-3,3l-3-3c-0.6-0.6-1.5-0.6-2.1,0s-0.6,1.5,0,2.1l3,3l-3,3c-0.6,0.6-0.6,1.5,0,2.1c0.3,0.3,0.7,0.4,1,0.4
					s0.7-0.1,1-0.4l3-3L456.6,324.7z"/>
				<path class="st0" d="M480.9,337.8c-0.6-0.6-1.5-0.6-2.1,0l-3,3l-3-3c-0.6-0.6-1.5-0.6-2.1,0c-0.6,0.6-0.6,1.5,0,2.1l3,3l-3,3
					c-0.6,0.6-0.6,1.5,0,2.1c0.3,0.3,0.7,0.4,1,0.4s0.7-0.1,1-0.4l3-3l3,3c0.3,0.3,0.7,0.4,1,0.4c0.4,0,0.7-0.1,1-0.4
					c0.6-0.6,0.6-1.5,0-2.1l-3-3l3-3C481.5,339.3,481.5,338.4,480.9,337.8z"/>
				<path class="st0" d="M463.7,345.3c-0.6-0.6-1.5-0.6-2.1,0l-3,3l-3-3c-0.6-0.6-1.5-0.6-2.1,0s-0.6,1.5,0,2.1l3,3l-3,3
					c-0.6,0.6-0.6,1.5,0,2.1c0.3,0.3,0.7,0.4,1,0.4c0.4,0,0.7-0.1,1-0.4l3-3l3,3c0.3,0.3,0.7,0.4,1,0.4s0.7-0.1,1-0.4
					c0.6-0.6,0.6-1.5,0-2.1l-3-3l3-3C464.2,346.8,464.2,345.9,463.7,345.3z"/>
				<path class="st0" d="M454.3,334.4c0.8,0,1.5-0.7,1.5-1.5c0-0.8-0.7-1.5-1.5-1.5s-1.5,0.7-1.5,1.5
					C452.8,333.7,453.5,334.4,454.3,334.4z"/>
				<path class="st0" d="M443.5,338.7c0.2,0.2,0.5,0.2,0.8,0.2c0.5,0,0.9-0.2,1.2-0.7c0.4-0.7,0.3-1.6-0.4-2s-1.6-0.3-2,0.4
					C442.7,337.3,442.9,338.2,443.5,338.7z"/>
				<path class="st0" d="M448.1,332.5c-0.7,0.3-1.1,1.2-0.7,1.9c0.2,0.5,0.8,0.9,1.3,0.9c0.2,0,0.4,0,0.6-0.1
					c0.7-0.3,1.1-1.2,0.7-1.9C449.7,332.5,448.8,332.1,448.1,332.5z"/>
				<circle class="st0" cx="460" cy="332.9" r="1.5"/>
				<path class="st0" d="M442.7,344.3c0.4,0,0.8-0.2,1-0.4c0.3-0.3,0.4-0.6,0.4-1c0-0.4-0.2-0.8-0.4-1c-0.3-0.3-0.6-0.4-1-0.4
					s-0.8,0.2-1,0.4c-0.3,0.3-0.4,0.6-0.4,1c0,0.4,0.2,0.8,0.4,1C442,344.2,442.3,344.3,442.7,344.3z"/>
				<path class="st0" d="M482.8,319.9l-5.6-5.6c-0.8-0.8-2.1-0.8-2.9,0l-5.6,5.6c-0.8,0.8-0.8,2.1,0,2.9c0.8,0.8,2.1,0.8,2.9,0
					l2.1-2.1v2.4c0,4.4-3.6,7.9-8,7.9c-1.1,0-2,0.9-2,2s0.9,2,2,2c6.6,0,12.1-5.4,12.1-12v-2.4l2.1,2.1c0.7,0.7,2.1,0.8,2.9,0
					c0.4-0.4,0.6-0.9,0.6-1.4C483.4,320.8,483.2,320.3,482.8,319.9z"/>
			</g>
		</g>
		<g class="st1">
			<path class="st0" d="M43.8,132.6c-0.4,0-0.8,0-1.3,0l0-1.2c1.5,0,3,0,4.5-0.1l0.1,1.1C46,132.5,44.9,132.6,43.8,132.6z
				 M37.8,132.2c-1.5-0.2-3.1-0.5-4.6-0.9l0.3-1.1c1.5,0.4,3,0.6,4.5,0.8L37.8,132.2z M51.8,131.8l-0.2-1.1c1.5-0.3,3-0.6,4.4-1.1
				l0.3,1.1C54.8,131.2,53.3,131.6,51.8,131.8z M28.8,129.9c-1.5-0.5-2.9-1.1-4.3-1.8l0.5-1c1.4,0.7,2.8,1.3,4.2,1.8L28.8,129.9z
				 M60.7,129.2l-0.4-1.1c1.4-0.6,2.8-1.3,4.1-2l0.6,1C63.6,127.9,62.2,128.6,60.7,129.2z M20.4,125.8c-1.3-0.8-2.6-1.7-3.8-2.7
				l0.7-0.9c1.2,0.9,2.4,1.8,3.7,2.6L20.4,125.8z M68.9,124.6l-0.7-0.9c1.2-0.9,2.4-1.8,3.6-2.8l0.8,0.9
				C71.4,122.8,70.2,123.8,68.9,124.6z M13.1,120.1c-1.1-1.1-2.2-2.2-3.2-3.4l0.9-0.7c1,1.2,2,2.3,3.1,3.4L13.1,120.1z M75.9,118.5
				l-0.8-0.8c1-1.1,2-2.3,2.9-3.5l0.9,0.7C78,116.2,77,117.4,75.9,118.5z M7.2,112.9c-0.9-1.3-1.6-2.6-2.4-4l1-0.5
				c0.7,1.3,1.5,2.7,2.3,3.9L7.2,112.9z M81.5,111l-1-0.6c0.8-1.3,1.5-2.7,2.1-4l1,0.5C83,108.3,82.3,109.7,81.5,111z M2.9,104.6
				c-0.6-1.4-1-2.9-1.4-4.4l1.1-0.3c0.4,1.5,0.9,2.9,1.4,4.3L2.9,104.6z M85.3,102.5l-1.1-0.4c0.5-1.4,0.9-2.9,1.2-4.4l1.1,0.2
				C86.2,99.6,85.8,101.1,85.3,102.5z M0.5,95.6C0.2,94,0.1,92.5,0,90.9l1.2-0.1c0.1,1.5,0.2,3,0.5,4.5L0.5,95.6z M87.3,93.4
				l-1.1-0.1c0.2-1.5,0.2-3,0.2-4.5c0-1.4-0.1-2.8-0.2-4.2l1.1-0.1c0.1,1.4,0.2,2.9,0.2,4.3C87.6,90.3,87.5,91.9,87.3,93.4z
				 M1.2,86.3L0,86.3c0.1-1.6,0.3-3.1,0.5-4.6l1.1,0.2C1.4,83.3,1.3,84.8,1.2,86.3z M85.5,80.1c-0.3-1.5-0.7-3-1.2-4.4l1.1-0.4
				c0.5,1.5,0.9,3,1.2,4.5L85.5,80.1z M2.6,77.4l-1.1-0.3c0.4-1.5,0.9-3,1.5-4.4l1.1,0.4C3.5,74.5,3,75.9,2.6,77.4z M82.7,71.4
				c-0.6-1.4-1.3-2.7-2.1-4l1-0.6c0.8,1.3,1.5,2.7,2.1,4.2L82.7,71.4z M6,68.9l-1-0.5c0.7-1.4,1.5-2.7,2.4-4l1,0.6
				C7.5,66.3,6.7,67.6,6,68.9z M78.2,63.6c-0.9-1.2-1.9-2.4-2.9-3.5l0.9-0.8c1,1.1,2,2.4,3,3.6L78.2,63.6z M11.1,61.4l-0.9-0.7
				c1-1.2,2.1-2.3,3.2-3.4l0.8,0.8C13.1,59.1,12,60.2,11.1,61.4z M72.1,56.9c-1.1-1-2.3-2-3.6-2.8l0.7-0.9c1.3,0.9,2.5,1.9,3.7,2.9
				L72.1,56.9z M17.6,55.1l-0.7-0.9c1.2-1,2.5-1.9,3.8-2.7l0.6,1C20,53.3,18.8,54.1,17.6,55.1z M64.7,51.6c-1.3-0.7-2.7-1.4-4.1-2
				l0.5-1.1c1.4,0.6,2.8,1.3,4.2,2.1L64.7,51.6z M25.3,50.3l-0.5-1c1.4-0.7,2.8-1.3,4.3-1.8l0.4,1.1C28.1,49.1,26.7,49.6,25.3,50.3z
				 M56.3,48c-1.4-0.4-2.9-0.8-4.4-1.1l0.2-1.1c1.5,0.3,3.1,0.7,4.5,1.1L56.3,48z M33.9,47.3l-0.3-1.1c1.5-0.4,3.1-0.6,4.6-0.8
				l0.1,1.1C36.8,46.6,35.3,46.9,33.9,47.3z M47.4,46.3c-1.5-0.1-3-0.2-4.5-0.1l0-1.2c1.5,0,3.1,0,4.7,0.2L47.4,46.3z"/>
			<path class="st0" d="M185.6,87.6c-0.4,0-0.8,0-1.3,0l0-1.2c1.5,0,3,0,4.5-0.1l0.1,1.1C187.8,87.6,186.7,87.6,185.6,87.6z
				 M179.6,87.2c-1.5-0.2-3.1-0.5-4.6-0.9l0.3-1.1c1.5,0.4,3,0.6,4.5,0.8L179.6,87.2z M193.6,86.9l-0.2-1.1c1.5-0.3,3-0.6,4.4-1.1
				l0.3,1.1C196.6,86.2,195.1,86.6,193.6,86.9z M170.6,85c-1.5-0.5-2.9-1.1-4.3-1.8l0.5-1c1.4,0.7,2.8,1.3,4.2,1.8L170.6,85z
				 M202.5,84.2l-0.4-1.1c1.4-0.6,2.8-1.3,4.1-2l0.6,1C205.4,82.9,204,83.6,202.5,84.2z M162.2,80.9c-1.3-0.8-2.6-1.7-3.8-2.7
				l0.7-0.9c1.2,0.9,2.4,1.8,3.7,2.6L162.2,80.9z M210.7,79.7l-0.7-0.9c1.2-0.9,2.4-1.8,3.6-2.8l0.8,0.9
				C213.2,77.8,212,78.8,210.7,79.7z M154.9,75.1c-1.1-1.1-2.2-2.2-3.2-3.4l0.9-0.7c1,1.2,2,2.3,3.1,3.4L154.9,75.1z M217.7,73.6
				l-0.8-0.8c1-1.1,2-2.3,2.9-3.5l0.9,0.7C219.8,71.2,218.8,72.4,217.7,73.6z M149,67.9c-0.9-1.3-1.6-2.6-2.4-4l1-0.5
				c0.7,1.3,1.5,2.7,2.3,3.9L149,67.9z M223.3,66.1l-1-0.6c0.8-1.3,1.5-2.7,2.1-4l1,0.5C224.8,63.3,224.1,64.7,223.3,66.1z
				 M144.7,59.6c-0.6-1.4-1-2.9-1.4-4.4l1.1-0.3c0.4,1.5,0.9,2.9,1.4,4.3L144.7,59.6z M227.1,57.6l-1.1-0.4c0.5-1.4,0.9-2.9,1.2-4.4
				l1.1,0.2C228,54.6,227.6,56.1,227.1,57.6z M142.3,50.6c-0.2-1.5-0.4-3.1-0.5-4.6l1.2-0.1c0.1,1.5,0.2,3,0.5,4.5L142.3,50.6z
				 M229.1,48.5l-1.1-0.1c0.2-1.5,0.2-3,0.2-4.5c0-1.4-0.1-2.8-0.2-4.2l1.1-0.1c0.1,1.4,0.2,2.9,0.2,4.3
				C229.4,45.4,229.3,46.9,229.1,48.5z M143,41.4l-1.2-0.1c0.1-1.6,0.3-3.1,0.5-4.6l1.1,0.2C143.2,38.3,143.1,39.9,143,41.4z
				 M227.3,35.1c-0.3-1.5-0.7-3-1.2-4.4l1.1-0.4c0.5,1.5,0.9,3,1.2,4.5L227.3,35.1z M144.4,32.4l-1.1-0.3c0.4-1.5,0.9-3,1.5-4.4
				l1.1,0.4C145.3,29.5,144.8,30.9,144.4,32.4z M224.5,26.5c-0.6-1.4-1.3-2.7-2.1-4l1-0.6c0.8,1.3,1.5,2.7,2.1,4.2L224.5,26.5z
				 M147.8,24l-1-0.5c0.7-1.4,1.5-2.7,2.4-4l1,0.6C149.3,21.3,148.5,22.6,147.8,24z M220,18.6c-0.9-1.2-1.9-2.4-2.9-3.5l0.9-0.8
				c1,1.1,2,2.4,3,3.6L220,18.6z M152.9,16.4l-0.9-0.7c1-1.2,2.1-2.3,3.2-3.4l0.8,0.8C154.9,14.1,153.8,15.3,152.9,16.4z
				 M213.9,11.9c-1.1-1-2.3-2-3.6-2.8l0.7-0.9c1.3,0.9,2.5,1.9,3.7,2.9L213.9,11.9z M159.4,10.1l-0.7-0.9c1.2-1,2.5-1.9,3.8-2.7
				l0.6,1C161.8,8.3,160.6,9.2,159.4,10.1z M206.5,6.6c-1.3-0.7-2.7-1.4-4.1-2l0.5-1.1c1.4,0.6,2.8,1.3,4.2,2.1L206.5,6.6z
				 M167.1,5.3l-0.5-1c1.4-0.7,2.8-1.3,4.3-1.8l0.4,1.1C169.9,4.1,168.5,4.7,167.1,5.3z M198.1,3c-1.4-0.4-2.9-0.8-4.4-1.1l0.2-1.1
				c1.5,0.3,3,0.7,4.5,1.1L198.1,3z M175.7,2.3l-0.3-1.1c1.5-0.4,3.1-0.6,4.6-0.8l0.1,1.1C178.6,1.7,177.1,2,175.7,2.3z M189.2,1.3
				c-1.5-0.1-3-0.2-4.5-0.1l0-1.2c1.5,0,3.1,0,4.7,0.2L189.2,1.3z"/>
			<path class="st0" d="M336.6,100.3c-0.4,0-0.8,0-1.3,0l0-1.2c1.5,0,3,0,4.5-0.1l0.1,1.1C338.9,100.3,337.7,100.3,336.6,100.3z
				 M330.7,99.9c-1.5-0.2-3.1-0.5-4.6-0.9l0.3-1.1c1.5,0.4,3,0.6,4.5,0.8L330.7,99.9z M344.6,99.6l-0.2-1.1c1.5-0.3,3-0.6,4.4-1.1
				l0.3,1.1C347.7,98.9,346.1,99.3,344.6,99.6z M321.6,97.7c-1.5-0.5-2.9-1.1-4.3-1.8l0.5-1c1.4,0.7,2.8,1.3,4.2,1.8L321.6,97.7z
				 M353.6,96.9l-0.4-1.1c1.4-0.6,2.8-1.3,4.1-2l0.6,1C356.4,95.6,355,96.3,353.6,96.9z M313.2,93.6c-1.3-0.8-2.6-1.7-3.8-2.7
				l0.7-0.9c1.2,0.9,2.4,1.8,3.7,2.6L313.2,93.6z M361.7,92.4l-0.7-0.9c1.2-0.9,2.4-1.8,3.6-2.8l0.8,0.9
				C364.2,90.5,363,91.5,361.7,92.4z M305.9,87.8c-1.1-1.1-2.2-2.2-3.2-3.4l0.9-0.7c1,1.2,2,2.3,3.1,3.4L305.9,87.8z M368.7,86.2
				l-0.8-0.8c1-1.1,2-2.3,2.9-3.5l0.9,0.7C370.8,83.9,369.8,85.1,368.7,86.2z M300,80.6c-0.9-1.3-1.7-2.7-2.4-4l1-0.5
				c0.7,1.3,1.5,2.7,2.3,3.9L300,80.6z M374.3,78.8l-1-0.6c0.8-1.3,1.5-2.7,2.1-4l1,0.5C375.8,76,375.1,77.4,374.3,78.8z
				 M295.7,72.3c-0.6-1.4-1-2.9-1.5-4.4l1.1-0.3c0.4,1.5,0.9,2.9,1.4,4.3L295.7,72.3z M378.2,70.3l-1.1-0.4c0.5-1.4,0.9-2.9,1.2-4.4
				l1.1,0.2C379.1,67.3,378.7,68.8,378.2,70.3z M293.3,63.3c-0.2-1.5-0.4-3.1-0.5-4.6l1.2-0.1c0.1,1.5,0.2,3,0.5,4.5L293.3,63.3z
				 M380.1,61.2L379,61c0.2-1.5,0.2-3,0.2-4.5c0-1.4-0.1-2.8-0.2-4.2l1.1-0.1c0.1,1.4,0.2,2.9,0.2,4.3
				C380.4,58.1,380.3,59.6,380.1,61.2z M294,54.1l-1.2-0.1c0.1-1.6,0.3-3.1,0.5-4.6l1.1,0.2C294.2,51,294.1,52.5,294,54.1z
				 M378.3,47.8c-0.3-1.5-0.7-3-1.2-4.4l1.1-0.4c0.5,1.5,0.9,3,1.2,4.5L378.3,47.8z M295.5,45.1l-1.1-0.3c0.4-1.5,0.9-3,1.5-4.4
				l1.1,0.4C296.4,42.2,295.9,43.6,295.5,45.1z M375.6,39.2c-0.6-1.4-1.3-2.7-2.1-4l1-0.6c0.8,1.3,1.5,2.7,2.1,4.2L375.6,39.2z
				 M298.8,36.7l-1-0.5c0.7-1.4,1.5-2.7,2.4-4l1,0.6C300.3,34,299.5,35.3,298.8,36.7z M371,31.3c-0.9-1.2-1.9-2.4-2.9-3.5L369,27
				c1,1.1,2,2.4,3,3.6L371,31.3z M303.9,29.1l-0.9-0.7c1-1.2,2.1-2.3,3.2-3.4l0.8,0.8C305.9,26.8,304.8,28,303.9,29.1z M364.9,24.6
				c-1.1-1-2.3-2-3.6-2.8l0.7-0.9c1.3,0.9,2.5,1.9,3.7,2.9L364.9,24.6z M310.4,22.8l-0.7-0.9c1.2-1,2.5-1.9,3.8-2.7l0.6,1
				C312.9,21,311.6,21.9,310.4,22.8z M357.5,19.3c-1.3-0.7-2.7-1.4-4.1-2l0.5-1.1c1.4,0.6,2.8,1.3,4.2,2.1L357.5,19.3z M318.1,18
				l-0.5-1c1.4-0.7,2.8-1.3,4.3-1.8l0.4,1.1C320.9,16.8,319.5,17.4,318.1,18z M349.2,15.7c-1.4-0.4-2.9-0.8-4.4-1.1l0.2-1.1
				c1.5,0.3,3,0.7,4.5,1.1L349.2,15.7z M326.7,15l-0.3-1.1c1.5-0.4,3.1-0.6,4.6-0.8l0.1,1.1C329.7,14.4,328.2,14.6,326.7,15z
				 M340.2,14c-1.5-0.1-3-0.2-4.5-0.1l0-1.2c1.5,0,3.1,0,4.7,0.2L340.2,14z"/>
			<path class="st0" d="M444.4,211.6c-0.4,0-0.8,0-1.3,0l0-1.2c1.5,0,3,0,4.5-0.1l0.1,1.1C446.7,211.5,445.6,211.6,444.4,211.6z
				 M438.5,211.2c-1.5-0.2-3.1-0.5-4.6-0.9l0.3-1.1c1.5,0.4,3,0.6,4.5,0.8L438.5,211.2z M452.5,210.8l-0.2-1.1
				c1.5-0.3,3-0.6,4.4-1.1l0.3,1.1C455.5,210.2,454,210.6,452.5,210.8z M429.5,209c-1.5-0.5-2.9-1.1-4.3-1.8l0.5-1
				c1.4,0.7,2.8,1.3,4.2,1.8L429.5,209z M461.4,208.2l-0.4-1.1c1.4-0.6,2.8-1.3,4.1-2l0.6,1C464.3,206.9,462.9,207.6,461.4,208.2z
				 M421.1,204.9c-1.3-0.8-2.6-1.7-3.8-2.7l0.7-0.9c1.2,0.9,2.4,1.8,3.7,2.6L421.1,204.9z M469.6,203.7l-0.7-0.9
				c1.2-0.9,2.4-1.8,3.6-2.8l0.8,0.9C472.1,201.8,470.9,202.8,469.6,203.7z M413.8,199.1c-1.1-1.1-2.2-2.2-3.2-3.4l0.9-0.7
				c1,1.2,2,2.3,3.1,3.4L413.8,199.1z M476.6,197.5l-0.8-0.8c1-1.1,2-2.3,2.9-3.5l0.9,0.7C478.7,195.2,477.7,196.4,476.6,197.5z
				 M407.9,191.9c-0.9-1.3-1.7-2.7-2.4-4l1-0.5c0.7,1.3,1.5,2.7,2.3,3.9L407.9,191.9z M482.2,190l-1-0.6c0.8-1.3,1.5-2.7,2.1-4
				l1,0.5C483.7,187.3,483,188.7,482.2,190z M403.6,183.6c-0.6-1.4-1-2.9-1.5-4.4l1.1-0.3c0.4,1.5,0.9,2.9,1.4,4.3L403.6,183.6z
				 M486,181.6l-1.1-0.4c0.5-1.4,0.9-2.9,1.2-4.4l1.1,0.2C486.9,178.6,486.5,180.1,486,181.6z M401.2,174.6
				c-0.2-1.5-0.4-3.1-0.5-4.6l1.2-0.1c0.1,1.5,0.2,3,0.5,4.5L401.2,174.6z M488,172.4l-1.1-0.1c0.2-1.5,0.2-3,0.2-4.5
				c0-1.4-0.1-2.8-0.2-4.2l1.1-0.1c0.1,1.4,0.2,2.9,0.2,4.3C488.3,169.3,488.2,170.9,488,172.4z M401.9,165.3l-1.2-0.1
				c0.1-1.6,0.3-3.1,0.5-4.6l1.1,0.2C402.1,162.3,401.9,163.8,401.9,165.3z M486.2,159.1c-0.3-1.5-0.7-3-1.2-4.4l1.1-0.4
				c0.5,1.5,0.9,3,1.2,4.5L486.2,159.1z M403.3,156.4l-1.1-0.3c0.4-1.5,0.9-3,1.5-4.4l1.1,0.4C404.2,153.5,403.7,154.9,403.3,156.4z
				 M483.4,150.4c-0.6-1.4-1.3-2.7-2.1-4l1-0.6c0.8,1.3,1.5,2.7,2.1,4.2L483.4,150.4z M406.7,147.9l-1-0.5c0.7-1.4,1.5-2.7,2.4-4
				l1,0.6C408.2,145.3,407.4,146.6,406.7,147.9z M478.9,142.6c-0.9-1.2-1.9-2.4-2.9-3.5l0.9-0.8c1,1.1,2,2.4,3,3.6L478.9,142.6z
				 M411.7,140.4l-0.9-0.7c1-1.2,2.1-2.3,3.2-3.4l0.8,0.8C413.8,138.1,412.7,139.2,411.7,140.4z M472.8,135.9c-1.1-1-2.3-2-3.6-2.8
				l0.7-0.9c1.3,0.9,2.5,1.9,3.7,2.9L472.8,135.9z M418.3,134.1l-0.7-0.9c1.2-1,2.5-1.9,3.8-2.7l0.6,1
				C420.7,132.3,419.5,133.2,418.3,134.1z M465.4,130.6c-1.3-0.7-2.7-1.4-4.1-2l0.5-1.1c1.4,0.6,2.8,1.3,4.2,2.1L465.4,130.6z
				 M426,129.3l-0.5-1c1.4-0.7,2.8-1.3,4.3-1.8l0.4,1.1C428.8,128.1,427.4,128.7,426,129.3z M457,127c-1.4-0.4-2.9-0.8-4.4-1.1
				l0.2-1.1c1.5,0.3,3,0.7,4.5,1.1L457,127z M434.6,126.3l-0.3-1.1c1.5-0.4,3.1-0.6,4.6-0.8l0.1,1.1
				C437.5,125.7,436,125.9,434.6,126.3z M448.1,125.3c-1.5-0.1-3-0.2-4.5-0.1l0-1.2c1.5,0,3.1,0,4.7,0.2L448.1,125.3z"/>
			<path class="st0" d="M461.2,373c-0.4,0-0.8,0-1.3,0l0-1.2c1.5,0,3,0,4.5-0.1l0.1,1.1C463.5,372.9,462.3,373,461.2,373z
				 M455.3,372.6c-1.5-0.2-3.1-0.5-4.6-0.9l0.3-1.1c1.5,0.4,3,0.6,4.5,0.8L455.3,372.6z M469.2,372.2l-0.2-1.1
				c1.5-0.3,3-0.6,4.4-1.1l0.3,1.1C472.3,371.6,470.8,371.9,469.2,372.2z M446.2,370.3c-1.5-0.5-2.9-1.1-4.3-1.8l0.5-1
				c1.4,0.7,2.8,1.3,4.2,1.8L446.2,370.3z M478.2,369.6l-0.4-1.1c1.4-0.6,2.8-1.3,4.1-2l0.6,1C481,368.3,479.6,368.9,478.2,369.6z
				 M437.8,366.2c-1.3-0.8-2.6-1.7-3.8-2.7l0.7-0.9c1.2,0.9,2.4,1.8,3.7,2.6L437.8,366.2z M486.3,365l-0.7-0.9
				c1.2-0.9,2.4-1.8,3.6-2.8l0.8,0.9C488.8,363.2,487.6,364.1,486.3,365z M430.5,360.4c-1.1-1.1-2.2-2.2-3.2-3.4l0.9-0.7
				c1,1.2,2,2.3,3.1,3.4L430.5,360.4z M493.3,358.9l-0.8-0.8c1-1.1,2-2.3,2.9-3.5l0.9,0.7C495.4,356.6,494.4,357.8,493.3,358.9z
				 M424.6,353.3c-0.9-1.3-1.7-2.7-2.4-4l1-0.5c0.7,1.3,1.5,2.7,2.3,3.9L424.6,353.3z M498.9,351.4l-1-0.6c0.8-1.3,1.5-2.7,2.1-4
				l1,0.5C500.4,348.7,499.7,350.1,498.9,351.4z M420.3,345c-0.6-1.4-1-2.9-1.5-4.4l1.1-0.3c0.4,1.5,0.9,2.9,1.4,4.3L420.3,345z
				 M502.8,342.9l-1.1-0.4c0.5-1.4,0.9-2.9,1.2-4.4l1.1,0.2C503.7,339.9,503.3,341.5,502.8,342.9z M417.9,336
				c-0.2-1.5-0.4-3.1-0.5-4.6l1.2-0.1c0.1,1.5,0.2,3,0.5,4.5L417.9,336z M504.7,333.8l-1.1-0.1c0.2-1.5,0.2-3,0.2-4.5
				c0-1.4-0.1-2.8-0.2-4.2l1.1-0.1c0.1,1.4,0.2,2.9,0.2,4.3C505,330.7,504.9,332.3,504.7,333.8z M418.6,326.7l-1.2-0.1
				c0.1-1.6,0.3-3.1,0.5-4.6l1.1,0.2C418.9,323.7,418.7,325.2,418.6,326.7z M503,320.5c-0.3-1.5-0.7-3-1.2-4.4l1.1-0.4
				c0.5,1.5,0.9,3,1.2,4.5L503,320.5z M420.1,317.8l-1.1-0.3c0.4-1.5,0.9-3,1.5-4.4l1.1,0.4C421,314.8,420.5,316.3,420.1,317.8z
				 M500.2,311.8c-0.6-1.4-1.3-2.7-2.1-4l1-0.6c0.8,1.3,1.5,2.7,2.1,4.2L500.2,311.8z M423.4,309.3l-1-0.5c0.7-1.4,1.5-2.7,2.4-4
				l1,0.6C424.9,306.7,424.1,308,423.4,309.3z M495.6,304c-0.9-1.2-1.9-2.4-2.9-3.5l0.9-0.8c1,1.1,2,2.4,3,3.6L495.6,304z
				 M428.5,301.8l-0.9-0.7c1-1.2,2.1-2.3,3.2-3.4l0.8,0.8C430.5,299.5,429.5,300.6,428.5,301.8z M489.5,297.3c-1.1-1-2.3-2-3.6-2.8
				l0.7-0.9c1.3,0.9,2.5,1.9,3.7,2.9L489.5,297.3z M435,295.5l-0.7-0.9c1.2-1,2.5-1.9,3.8-2.7l0.6,1
				C437.5,293.7,436.2,294.5,435,295.5z M482.1,292c-1.3-0.7-2.7-1.4-4.1-2l0.5-1.1c1.4,0.6,2.8,1.3,4.2,2.1L482.1,292z
				 M442.7,290.7l-0.5-1c1.4-0.7,2.8-1.3,4.3-1.8l0.4,1.1C445.5,289.4,444.1,290,442.7,290.7z M473.8,288.4
				c-1.4-0.4-2.9-0.8-4.4-1.1l0.2-1.1c1.5,0.3,3,0.7,4.5,1.1L473.8,288.4z M451.3,287.7l-0.3-1.1c1.5-0.4,3.1-0.6,4.6-0.8l0.1,1.1
				C454.3,287,452.8,287.3,451.3,287.7z M464.9,286.7c-1.5-0.1-3-0.2-4.5-0.1l0-1.2c1.5,0,3.1,0,4.7,0.2L464.9,286.7z"/>
			<path class="st0" d="M349.1,522.1c-0.4,0-0.8,0-1.3,0l0-1.2c1.5,0,3,0,4.5-0.1l0.1,1.1C351.3,522.1,350.2,522.1,349.1,522.1z
				 M343.1,521.7c-1.5-0.2-3.1-0.5-4.6-0.9l0.3-1.1c1.5,0.4,3,0.6,4.5,0.8L343.1,521.7z M357.1,521.4l-0.2-1.1
				c1.5-0.3,3-0.6,4.4-1.1l0.3,1.1C360.2,520.7,358.6,521.1,357.1,521.4z M334.1,519.5c-1.5-0.5-2.9-1.1-4.3-1.8l0.5-1
				c1.4,0.7,2.8,1.3,4.2,1.8L334.1,519.5z M366,518.7l-0.4-1.1c1.4-0.6,2.8-1.3,4.1-2l0.6,1C368.9,517.4,367.5,518.1,366,518.7z
				 M325.7,515.4c-1.3-0.8-2.6-1.7-3.8-2.7l0.7-0.9c1.2,0.9,2.4,1.8,3.7,2.6L325.7,515.4z M374.2,514.2l-0.7-0.9
				c1.2-0.9,2.4-1.8,3.6-2.8l0.8,0.9C376.7,512.3,375.5,513.3,374.2,514.2z M318.4,509.6c-1.1-1.1-2.2-2.2-3.2-3.4l0.9-0.7
				c1,1.2,2,2.3,3.1,3.4L318.4,509.6z M381.2,508l-0.8-0.8c1-1.1,2-2.3,2.9-3.5l0.9,0.7C383.3,505.7,382.3,506.9,381.2,508z
				 M312.5,502.4c-0.9-1.3-1.7-2.7-2.4-4l1-0.5c0.7,1.3,1.5,2.7,2.3,3.9L312.5,502.4z M386.8,500.6l-1-0.6c0.8-1.3,1.5-2.7,2.1-4
				l1,0.5C388.3,497.8,387.6,499.2,386.8,500.6z M308.2,494.1c-0.6-1.4-1-2.9-1.5-4.4l1.1-0.3c0.4,1.5,0.9,2.9,1.4,4.3L308.2,494.1z
				 M390.7,492.1l-1.1-0.4c0.5-1.4,0.9-2.9,1.2-4.4l1.1,0.2C391.6,489.1,391.1,490.6,390.7,492.1z M305.8,485.1
				c-0.2-1.5-0.4-3.1-0.5-4.6l1.2-0.1c0.1,1.5,0.2,3,0.5,4.5L305.8,485.1z M392.6,483l-1.1-0.1c0.2-1.5,0.2-3,0.2-4.5
				c0-1.4-0.1-2.8-0.2-4.2l1.1-0.1c0.1,1.4,0.2,2.9,0.2,4.3C392.9,479.9,392.8,481.4,392.6,483z M306.5,475.9l-1.2-0.1
				c0.1-1.6,0.3-3.1,0.5-4.6l1.1,0.2C306.7,472.8,306.6,474.3,306.5,475.9z M390.8,469.6c-0.3-1.5-0.7-3-1.2-4.4l1.1-0.4
				c0.5,1.5,0.9,3,1.2,4.5L390.8,469.6z M307.9,466.9l-1.1-0.3c0.4-1.5,0.9-3,1.5-4.4l1.1,0.4C308.8,464,308.3,465.4,307.9,466.9z
				 M388,461c-0.6-1.4-1.3-2.7-2.1-4l1-0.6c0.8,1.3,1.5,2.7,2.1,4.2L388,461z M311.3,458.5l-1-0.5c0.7-1.4,1.5-2.7,2.4-4l1,0.6
				C312.8,455.8,312,457.1,311.3,458.5z M383.5,453.1c-0.9-1.2-1.9-2.4-2.9-3.5l0.9-0.8c1,1.1,2,2.4,3,3.6L383.5,453.1z
				 M316.4,450.9l-0.9-0.7c1-1.2,2.1-2.3,3.2-3.4l0.8,0.8C318.4,448.6,317.3,449.8,316.4,450.9z M377.4,446.4c-1.1-1-2.3-2-3.6-2.8
				l0.7-0.9c1.3,0.9,2.5,1.9,3.7,2.9L377.4,446.4z M322.9,444.6l-0.7-0.9c1.2-1,2.5-1.9,3.8-2.7l0.6,1
				C325.3,442.8,324.1,443.7,322.9,444.6z M370,441.1c-1.3-0.7-2.7-1.4-4.1-2l0.5-1.1c1.4,0.6,2.8,1.3,4.2,2.1L370,441.1z
				 M330.6,439.8l-0.5-1c1.4-0.7,2.8-1.3,4.3-1.8l0.4,1.1C333.4,438.6,332,439.2,330.6,439.8z M361.6,437.5
				c-1.4-0.4-2.9-0.8-4.4-1.1l0.2-1.1c1.5,0.3,3,0.7,4.5,1.1L361.6,437.5z M339.2,436.8l-0.3-1.1c1.5-0.4,3.1-0.6,4.6-0.8l0.1,1.1
				C342.1,436.2,340.6,436.4,339.2,436.8z M352.7,435.8c-1.5-0.1-3-0.2-4.5-0.1l0-1.2c1.5,0,3.1,0,4.7,0.2L352.7,435.8z"/>
			<g>
				<path class="st0" d="M425.9,408l-1-0.7c0.4-0.6,0.9-1.3,1.3-1.9l1,0.6C426.8,406.7,426.3,407.4,425.9,408z"/>
				<path class="st0" d="M390.8,448.8l-0.8-0.8c1.1-1,2.2-2,3.2-3.1l0.8,0.8C393,446.8,391.9,447.8,390.8,448.8z M397.3,442.6
					l-0.8-0.8c1.1-1.1,2.1-2.1,3.1-3.2l0.8,0.8C399.4,440.4,398.4,441.5,397.3,442.6z M403.5,436.1l-0.8-0.8c1-1.1,2-2.2,3-3.3
					l0.9,0.8C405.5,433.9,404.5,435,403.5,436.1z M409.5,429.4l-0.9-0.8c1-1.1,1.9-2.3,2.9-3.4l0.9,0.7
					C411.4,427.1,410.5,428.2,409.5,429.4z M415.2,422.4l-0.9-0.7c0.9-1.2,1.8-2.3,2.8-3.5l0.9,0.7
					C417.1,420.1,416.2,421.3,415.2,422.4z M420.7,415.3l-0.9-0.7c0.9-1.2,1.8-2.4,2.6-3.6l0.9,0.7
					C422.5,412.9,421.6,414.1,420.7,415.3z"/>
				<path class="st0" d="M385.8,453.4l-0.8-0.9c0.6-0.5,1.1-1,1.7-1.5l0.8,0.9C387,452.4,386.4,452.9,385.8,453.4z"/>
			</g>
			<g>
				<path class="st0" d="M466.6,249.7c-0.1-0.8-0.1-1.5-0.2-2.3l1.1-0.1c0.1,0.8,0.1,1.5,0.2,2.3L466.6,249.7z"/>
				<path class="st0" d="M468.4,279.2l-1.2,0c0.1-1.6,0.1-3.3,0.1-4.9l1.2,0C468.5,275.9,468.4,277.6,468.4,279.2z M467.4,269.3
					c0-1.6,0-3.3-0.1-4.9l1.2,0c0,1.6,0.1,3.3,0.1,4.9L467.4,269.3z M467.2,259.5c-0.1-1.6-0.2-3.3-0.3-4.9l1.2-0.1
					c0.1,1.6,0.2,3.3,0.3,4.9L467.2,259.5z"/>
				<path class="st0" d="M468,286.4l-1.2-0.1c0.1-0.8,0.1-1.5,0.1-2.3l1.2,0.1C468.1,284.9,468,285.7,468,286.4z"/>
			</g>
			<g>
				<path class="st0" d="M375.8,79.3c-0.6-0.5-1.2-1-1.8-1.4l0.7-0.9c0.6,0.5,1.2,1,1.8,1.4L375.8,79.3z"/>
				<path class="st0" d="M420.1,125.5c-0.9-1.2-1.8-2.5-2.7-3.7l0.9-0.7c0.9,1.2,1.9,2.4,2.8,3.7L420.1,125.5z M414.6,118.2
					c-1-1.2-1.9-2.4-2.9-3.6l0.9-0.7c1,1.2,1.9,2.4,2.9,3.6L414.6,118.2z M408.7,111.1c-1-1.2-2-2.3-3-3.5l0.9-0.8
					c1,1.1,2,2.3,3,3.5L408.7,111.1z M402.6,104.3c-1-1.1-2.1-2.2-3.1-3.3l0.8-0.8c1.1,1.1,2.1,2.2,3.2,3.4L402.6,104.3z
					 M396.3,97.7c-1.1-1.1-2.2-2.2-3.3-3.2l0.8-0.8c1.1,1.1,2.2,2.1,3.3,3.2L396.3,97.7z M389.7,91.3c-1.1-1-2.2-2.1-3.4-3.1
					l0.8-0.9c1.1,1,2.3,2.1,3.4,3.1L389.7,91.3z M382.9,85.2c-1.2-1-2.3-2-3.5-3l0.7-0.9c1.2,1,2.3,2,3.5,3L382.9,85.2z"/>
				<path class="st0" d="M424.1,131.1c-0.4-0.6-0.9-1.3-1.3-1.9l0.9-0.7c0.4,0.6,0.9,1.3,1.3,1.9L424.1,131.1z"/>
			</g>
			<g>
				<path class="st0" d="M225.7,25.9c-0.8,0-1.5,0-2.3,0v-1.2c0.8,0,1.5,0,2.3,0L225.7,25.9z"/>
				<path class="st0" d="M289.4,34.9c-1.5-0.4-3-0.8-4.4-1.2l0.3-1.1c1.5,0.4,3,0.8,4.5,1.2L289.4,34.9z M280.4,32.5
					c-1.5-0.4-3-0.7-4.5-1l0.2-1.1c1.5,0.3,3,0.7,4.5,1L280.4,32.5z M271.5,30.6c-1.5-0.3-3-0.6-4.5-0.9l0.2-1.1
					c1.5,0.3,3,0.6,4.5,0.9L271.5,30.6z M262.4,28.9c-1.5-0.2-3-0.5-4.6-0.7l0.2-1.1c1.5,0.2,3.1,0.4,4.6,0.7L262.4,28.9z
					 M253.3,27.7c-1.5-0.2-3-0.4-4.6-0.5l0.1-1.1c1.5,0.2,3.1,0.3,4.6,0.5L253.3,27.7z M244.1,26.7c-1.5-0.1-3.1-0.2-4.6-0.3
					l0.1-1.2c1.5,0.1,3.1,0.2,4.6,0.3L244.1,26.7z M234.9,26.1c-1.5-0.1-3.1-0.1-4.6-0.2l0-1.2c1.5,0,3.1,0.1,4.6,0.2L234.9,26.1z"
					/>
				<path class="st0" d="M296,36.8c-0.7-0.2-1.5-0.5-2.2-0.7l0.3-1.1c0.7,0.2,1.5,0.4,2.2,0.7L296,36.8z"/>
			</g>
			<g>
				<path class="st0" d="M83,70.3l-0.7-0.9c0.6-0.4,1.3-0.9,1.9-1.3l0.7,0.9C84.3,69.4,83.6,69.8,83,70.3z"/>
				<path class="st0" d="M88.9,66.2l-0.6-1c1.3-0.9,2.7-1.8,4.1-2.6l0.6,1C91.6,64.5,90.3,65.4,88.9,66.2z M97.1,61.1l-0.6-1
					c1.4-0.8,2.8-1.7,4.2-2.5l0.6,1C99.8,59.4,98.4,60.2,97.1,61.1z M105.4,56.2l-0.6-1c1.4-0.8,2.8-1.6,4.3-2.3l0.5,1
					C108.3,54.7,106.8,55.4,105.4,56.2z M114,51.7l-0.5-1c1.4-0.7,2.9-1.4,4.4-2.1l0.5,1C116.9,50.3,115.4,51,114,51.7z M122.7,47.5
					l-0.5-1c1.5-0.7,3-1.3,4.4-2l0.5,1.1C125.6,46.2,124.2,46.9,122.7,47.5z M131.6,43.7l-0.4-1.1c1.5-0.6,3-1.2,4.5-1.8l0.4,1.1
					C134.6,42.5,133.1,43.1,131.6,43.7z"/>
				<path class="st0" d="M140.6,40.3l-0.4-1.1c0.7-0.3,1.5-0.5,2.2-0.8l0.4,1.1C142.1,39.7,141.3,40,140.6,40.3z"/>
			</g>
		</g>
		<g>
			<path class="st0" d="M352,480c0.6-0.5,0.7-1.4,0.2-2c-0.5-0.7-1.5-0.8-2.2-0.3c-0.7,0.5-1.2,1.7-1.7,3.5c0,0.1-0.1,0.3-0.2,0.6
				c-1.8,7.1-5.5,11.1-10.7,11.5c-6.3,0.3-10.8-5.6-12.7-8.2l-0.2-0.3c-0.6-0.7-1.2-1.3-1.6-1.6c-0.9-0.7-1.3-0.8-1.9-0.7
				c-0.6,0.1-1,0.6-1.2,1.2c-0.1,0.6,0.1,1.2,0.6,1.6c0.1,0.1,0.2,0.1,0.3,0.2c0.3,0.1,0.9,0.6,1.4,1.2l0.2,0.3
				c2.1,2.8,7.1,9.4,14.6,9.4c0.2,0,0.4,0,0.7,0l0.1,0c4.3-0.3,7.8-2.5,10.3-6.4c2-3,2.8-6.2,3.1-7.4l0.1-0.2c0-0.1,0.1-0.2,0.1-0.3
				C351.5,481.1,351.9,480.3,352,480z"/>
			<path class="st0" d="M321,475.6c2.9,0.8,5.6,2.4,5.6,2.4c3.6,2.2,7,5.7,7.4,6.1c2.2,2.5,4.6,3.9,6.8,3.9c0.5,0,1-0.1,1.5-0.2
				c1.7-0.5,3-1.6,3.7-3c0.8-1.6,0.8-3.7,0-5.6c-1.5-3.8-6.1-7.3-9.6-9.5c-2.4-1.5-8.3-5.2-12.5-7c-0.8-0.3-1.7,0.1-2,0.8
				c-0.3,0.8,0,1.7,0.8,2c4,1.7,9.8,5.3,12.1,6.8c4.5,2.9,7.5,5.7,8.4,8.1c0.5,1.2,0.5,2.3,0.1,3.1c-0.3,0.7-0.9,1.1-1.8,1.4
				c-1.5,0.5-3.7-1.2-5.1-2.8c0,0-3.9-4.1-8.1-6.7c-0.1-0.1-3.1-1.9-6.4-2.8c-0.4-0.1-0.8-0.1-1.2,0.1c-0.4,0.2-0.6,0.5-0.7,0.9
				C319.7,474.5,320.2,475.3,321,475.6z"/>
			<path class="st0" d="M338.2,489c-0.8-0.2-1.5-0.4-2.1-0.7c-0.7-0.4-1.4-0.8-2-1.3l-0.4-0.4c-0.1-0.1-0.3-0.2-0.4-0.4
				c-0.3-0.2-0.5-0.5-0.8-0.7c-0.5-0.5-0.9-1-1.3-1.5c-1.2-1.5-2.4-2.7-3.7-3.6c-0.6-0.5-1.2-0.8-1.9-1.2l-0.4-0.2
				c-0.9-0.5-1.8-1-2.9-1.4c-0.4-0.1-0.8-0.1-1.2,0.1c-0.4,0.2-0.6,0.5-0.7,0.9c-0.2,0.8,0.3,1.7,1.1,1.9c0.3,0.1,0.5,0.2,0.8,0.3
				c0.8,0.4,1.6,0.9,2.5,1.3c0.7,0.4,1.2,0.8,1.8,1.4c0.6,0.6,1.2,1.2,1.7,1.8c0.2,0.2,0.3,0.4,0.5,0.6c0.3,0.3,0.5,0.6,0.8,0.9
				c2.9,3.2,5.9,4.9,9.1,5.3c0,0,0.1,0,0.1,0c0.3,0,0.7-0.1,0.9-0.4c0.3-0.3,0.5-0.7,0.5-1.2c0-0.8-0.6-1.4-1.5-1.5
				C338.5,489.1,338.4,489.1,338.2,489z"/>
			<path class="st0" d="M321.5,470.4c2,0.7,12.1,4.5,17.7,12.3c0.3,0.4,0.8,0.6,1.3,0.6c0.3,0,0.6-0.1,0.9-0.3
				c0.7-0.5,0.8-1.5,0.4-2.2c-6.1-8.6-17.1-12.7-19.2-13.4l0,0c-0.8-0.3-1.7,0.2-2,0.9c-0.1,0.4-0.1,0.8,0,1.2
				C320.7,470,321,470.3,321.5,470.4z"/>
			<path class="st0" d="M325,460.9c1.1,0.3,3.9,2.1,6.2,3.6c3.7,2.5,5.6,3.6,6.9,3.9c0.2,0,0.3,0,0.5,0c1.7,0,3.6-1.4,5.8-2.9
				c1.5-1,3.1-2.2,4.4-2.7c0.8-0.3,1.2-1.1,1-1.9l0,0c-0.3-0.8-1.1-1.2-2-1c-1.7,0.6-3.5,1.8-5.2,3.1c-1.1,0.8-3.4,2.4-4,2.3
				c-0.8-0.1-3.8-2.1-5.7-3.4c-2.8-1.9-5.5-3.6-7.1-4c-0.8-0.2-1.7,0.3-1.9,1.1C323.7,459.8,324.2,460.7,325,460.9z"/>
			<path class="st0" d="M329.3,457.3c4.4,3.2,6.8,4.9,8.2,5.1c0.1,0,0.3,0,0.4,0c1.3,0,2.9-0.9,5.4-2.5c1.1-0.7,2.4-1.5,3.2-1.8
				c0.4-0.1,0.7-0.4,0.9-0.8c0.2-0.4,0.2-0.8,0.1-1.2l0,0c-0.1-0.4-0.4-0.7-0.8-0.9c-0.4-0.2-0.8-0.2-1.2-0.1c-1,0.4-2.3,1.2-3.7,2
				l0.3,0.5l-0.4-0.4c-0.9,0.5-3.2,2-3.6,2c-0.4-0.1-1.9-0.9-6.8-4.5l-0.4-0.3c-0.4-0.3-0.7-0.5-0.9-0.7c-0.7-0.5-1.7-0.3-2.1,0.4
				c-0.5,0.7-0.3,1.7,0.4,2.2C328.3,456.6,328.8,456.9,329.3,457.3z"/>
			<path class="st0" d="M336.9,456.3c0.2,0,0.4,0.1,0.6,0.1c1.5,0,2.9-1,4.3-2l0.2-0.1c0.4-0.3,0.9-0.6,1.4-0.9
				c0.7-0.5,0.9-1.4,0.4-2.1l0,0c-0.5-0.7-1.4-0.9-2.1-0.4c-0.6,0.4-1.1,0.8-1.6,1.1c-0.9,0.7-2.1,1.5-2.6,1.4
				c-0.4-0.1-2.1-1.3-3.5-2.8c-0.6-0.6-1.6-0.6-2.2,0c-0.6,0.6-0.6,1.6,0,2.2C332.6,453.6,335.1,456,336.9,456.3z"/>
			<path class="st0" d="M345.4,475.7c-0.1,0.6,0.1,1.1,0.6,1.5c0.3,0.3,0.7,0.4,1.1,0.4c0.2,0,0.4,0,0.5-0.1
				c0.5-0.2,0.8-0.6,0.9-1.1c0.2-0.9,0.5-1.6,1-2c0.6-0.5,1.5-0.9,2.2-1.2c0.3-0.1,0.6-0.4,0.7-0.8c0.1-0.4,0.1-0.9-0.1-1.3l0,0
				c-0.4-0.7-1.2-0.9-2-0.6C348.4,471.3,345.9,472.7,345.4,475.7z"/>
			<path class="st0" d="M348.9,465.3L348.9,465.3c-3.3,1-5.9,3.3-7.1,6.2c-0.1,0.4-0.1,0.8,0.1,1.1c0.2,0.4,0.6,0.7,1,0.8
				c0.1,0,0.3,0.1,0.4,0.1c0.6,0,1.2-0.4,1.5-1.1c0.7-1.6,2-2.7,3.1-3.3c0.7-0.4,1.2-0.7,1.9-0.9c1-0.3,1.2-1.2,1-2
				C350.5,465.6,349.8,465,348.9,465.3z"/>
			<path class="st0" d="M377.5,466.5c-0.5-0.3-1.1-0.3-1.6,0l-17.2,10.8l-0.1,0.1l-0.5,0.6l0.5,0.2l0,0l-0.6-0.1l-1.5,9.7
				c-1.1,0.1-2.1,0.8-2.7,1.8c-0.5,0.8-0.6,1.8-0.3,2.7c0.1,0.4,0.3,0.7,0.5,1l-2.4,4.3c-0.2,0.4-0.3,0.8-0.1,1.2
				c0.1,0.4,0.4,0.7,0.7,0.9l10.2,5.7c0.2,0.1,0.5,0.2,0.8,0.2c0.5,0,1.1-0.3,1.4-0.8l2.4-4.3c1.3,0.1,2.6-0.6,3.2-1.8
				c0.5-0.8,0.6-1.8,0.3-2.7c-0.1-0.2-0.1-0.4-0.2-0.6l7.3-6.1l0.2-0.3l-0.5-0.3h0l0.6,0.2l0.2-0.4c0,0,0-0.1,0-0.2l0.2-20.5
				C378.3,467.3,378,466.7,377.5,466.5z M359.5,488.7l1.2-7.7l1.4,0.8c0.7,0.4,1.7,0.2,2.1-0.6c0.2-0.4,0.3-0.8,0.1-1.2
				c-0.1-0.4-0.4-0.7-0.7-0.9l-1.1-0.6l9.9-6.2l-4.2,7.5c-1.3-0.1-2.6,0.6-3.2,1.8c-0.5,0.8-0.6,1.8-0.3,2.7
				c0.3,0.9,0.8,1.7,1.7,2.1c0.8,0.5,1.8,0.6,2.7,0.3c0.9-0.3,1.7-0.8,2.1-1.7c0.7-1.2,0.6-2.6-0.2-3.7l4.2-7.5l-0.1,11.7l-1.1-0.6
				c-0.7-0.4-1.7-0.2-2.1,0.6c-0.4,0.7-0.2,1.7,0.6,2.1l1.4,0.8l-5.9,5L359.5,488.7z M367.4,496.9c0,0.1,0,0.2,0,0.3
				c-0.1,0.1-0.1,0.2-0.2,0.2c-0.1,0-0.2,0-0.3,0l-10.2-5.7c-0.1-0.1-0.2-0.1-0.2-0.2l0,0c0-0.1,0-0.2,0-0.3
				c0.1-0.1,0.2-0.2,0.3-0.2c0.1,0,0.1,0,0.2,0.1l10.2,5.7C367.3,496.7,367.4,496.8,367.4,496.9z M364,499.3l-1.5,2.7l-7.5-4.2
				l1.5-2.7L364,499.3z M358.6,478.1L358.6,478.1L358.6,478.1L358.6,478.1z"/>
		</g>
	</g>
</g>
</svg>
