<?xml version="1.0" encoding="utf-8"?>
<!-- Generator: Adobe Illustrator 21.1.0, SVG Export Plug-In . SVG Version: 6.00 Build 0)  -->
<svg version="1.1" id="Capa_1" xmlns="http://www.w3.org/2000/svg" xmlns:xlink="http://www.w3.org/1999/xlink" x="0px" y="0px"
	 viewBox="0 0 392.3 274.3" style="enable-background:new 0 0 392.3 274.3;" xml:space="preserve">
<style type="text/css">
	.st0{fill:#010101;}
	.st1{font-family:'Titillium-Bold';}
	.st2{font-size:16.5102px;}
	.st3{font-family:'Caveat-Bold';}
	.st4{font-size:30.179px;}
	
		.st5{fill-rule:evenodd;clip-rule:evenodd;fill:none;stroke:#010101;stroke-width:0.6448;stroke-miterlimit:10;stroke-dasharray:2.579;}
	.st6{fill:url(#SVGID_1_);}
	.st7{fill:url(#SVGID_2_);}
	.st8{fill:url(#SVGID_3_);}
	.st9{fill:url(#SVGID_4_);}
	.st10{fill:#F58120;}
	.st11{fill-rule:evenodd;clip-rule:evenodd;}
	.st12{fill-rule:evenodd;clip-rule:evenodd;fill:#666666;}
</style>
<g>
	<text transform="matrix(1 0 0 1 137.4141 269.1208)" class="st0 st1 st2">CONSTRUCTIVISM</text>
	<text transform="matrix(1 0 0 1 131.2891 13.8679)" class="st0 st1 st2">CONSTRUCTIONISM</text>
	<g>
		<text transform="matrix(1 0 0 1 19.4648 132.322)"><tspan x="0" y="0" class="st0 st1 st2">WORK</tspan><tspan x="-19.5" y="17.3" class="st0 st1 st2">INDIVIDUAL</tspan></text>
		<text transform="matrix(1 0 0 1 335.2559 133.6316)"><tspan x="0" y="0" class="st0 st1 st2">WORK</tspan><tspan x="-2.7" y="17.3" class="st0 st1 st2">GROUP</tspan></text>
	</g>
	<g>
		<g>
			<text transform="matrix(1 0 0 1 154.696 118.7637)" class="st3 st4">Pedagogy</text>
		</g>
	</g>
	<circle class="st5" cx="202.4" cy="133.6" r="102.5"/>
	<radialGradient id="SVGID_1_" cx="205.198" cy="28.6729" r="16.6598" gradientUnits="userSpaceOnUse">
		<stop  offset="0" style="stop-color:#F7911E"/>
		<stop  offset="1" style="stop-color:#B95627"/>
	</radialGradient>
	<circle class="st6" cx="202.4" cy="32.6" r="9.7"/>
	<radialGradient id="SVGID_2_" cx="205.198" cy="232.299" r="16.6598" gradientUnits="userSpaceOnUse">
		<stop  offset="0" style="stop-color:#F7911E"/>
		<stop  offset="1" style="stop-color:#B95627"/>
	</radialGradient>
	<circle class="st7" cx="202.4" cy="236.2" r="9.7"/>
	
		<radialGradient id="SVGID_3_" cx="2775.3179" cy="-2797.7327" r="16.6598" gradientTransform="matrix(0 1 -1 0 -2489.5422 -2638.1492)" gradientUnits="userSpaceOnUse">
		<stop  offset="0" style="stop-color:#F7911E"/>
		<stop  offset="1" style="stop-color:#B95627"/>
	</radialGradient>
	<circle class="st8" cx="304.3" cy="134.4" r="9.7"/>
	
		<radialGradient id="SVGID_4_" cx="2775.3179" cy="-2594.1067" r="16.6598" gradientTransform="matrix(0 1 -1 0 -2489.5422 -2638.1492)" gradientUnits="userSpaceOnUse">
		<stop  offset="0" style="stop-color:#F7911E"/>
		<stop  offset="1" style="stop-color:#B95627"/>
	</radialGradient>
	<circle class="st9" cx="100.6" cy="134.4" r="9.7"/>
</g>
<g>
	<path class="st10" d="M169.7,142.5c0,1.8-0.6,3.2-1.9,4.2c-1.3,1-3.1,1.5-5.3,1.5c-2.1,0-4-0.4-5.6-1.2v-3.9c1.3,0.6,2.5,1,3.4,1.3
		c0.9,0.2,1.8,0.4,2.5,0.4c0.9,0,1.6-0.2,2.1-0.5c0.5-0.4,0.7-0.9,0.7-1.6c0-0.4-0.1-0.7-0.3-1c-0.2-0.3-0.5-0.6-1-0.9
		c-0.4-0.3-1.3-0.7-2.6-1.3c-1.2-0.6-2.1-1.1-2.7-1.6c-0.6-0.5-1.1-1.1-1.4-1.8c-0.4-0.7-0.5-1.5-0.5-2.4c0-1.7,0.6-3.1,1.8-4.1
		c1.2-1,2.8-1.5,4.9-1.5c1,0,2,0.1,2.9,0.4c0.9,0.2,1.9,0.6,2.9,1l-1.3,3.2c-1.1-0.4-1.9-0.7-2.6-0.9c-0.7-0.2-1.4-0.3-2-0.3
		c-0.8,0-1.4,0.2-1.8,0.6s-0.6,0.8-0.6,1.4c0,0.4,0.1,0.7,0.3,1c0.2,0.3,0.4,0.5,0.8,0.8c0.4,0.3,1.3,0.7,2.6,1.4
		c1.8,0.9,3.1,1.8,3.8,2.6C169.3,140.1,169.7,141.2,169.7,142.5z"/>
	<path class="st10" d="M191.1,138.1c0,3.3-0.8,5.8-2.4,7.5c-1.6,1.8-3.9,2.6-7,2.6c-3,0-5.3-0.9-7-2.6c-1.6-1.8-2.4-4.3-2.4-7.6
		c0-3.3,0.8-5.8,2.4-7.5c1.6-1.7,3.9-2.6,7-2.6c3,0,5.3,0.9,7,2.6C190.3,132.3,191.1,134.8,191.1,138.1z M176.7,138.1
		c0,2.2,0.4,3.9,1.3,5c0.8,1.1,2.1,1.7,3.7,1.7c3.3,0,5-2.2,5-6.6c0-4.4-1.7-6.7-5-6.7c-1.7,0-2.9,0.6-3.8,1.7
		C177.2,134.2,176.7,135.9,176.7,138.1z"/>
	<path class="st10" d="M203.6,131.5c-1.6,0-2.8,0.6-3.7,1.8c-0.9,1.2-1.3,2.8-1.3,4.9c0,4.4,1.6,6.6,4.9,6.6c1.4,0,3.1-0.3,5-1v3.5
		c-1.6,0.7-3.4,1-5.4,1c-2.9,0-5.1-0.9-6.6-2.6c-1.5-1.7-2.3-4.2-2.3-7.5c0-2,0.4-3.8,1.1-5.4c0.7-1.5,1.8-2.7,3.2-3.5
		c1.4-0.8,3-1.2,4.9-1.2c1.9,0,3.8,0.5,5.8,1.4l-1.3,3.4c-0.7-0.4-1.5-0.7-2.2-0.9C205,131.6,204.3,131.5,203.6,131.5z"/>
	<path class="st10" d="M212.8,148v-19.7h4.2V148H212.8z"/>
	<path class="st10" d="M234,148l-1.4-4.7h-7.2L224,148h-4.5l7-19.8h5.1l7,19.8H234z M231.6,139.8c-1.3-4.3-2.1-6.7-2.2-7.2
		c-0.2-0.6-0.3-1-0.4-1.3c-0.3,1.2-1.1,4-2.5,8.5H231.6z"/>
	<path class="st10" d="M241,148v-19.7h4.2v16.3h8v3.5H241z"/>
</g>
<g>
	<path class="st10" d="M127,156.2c-1,0-1.8,0.4-2.3,1.1c-0.6,0.8-0.8,1.8-0.8,3.2c0,2.8,1.1,4.2,3.2,4.2c0.9,0,2-0.2,3.2-0.7v2.2
		c-1,0.4-2.2,0.6-3.5,0.6c-1.8,0-3.2-0.6-4.2-1.7c-1-1.1-1.5-2.7-1.5-4.8c0-1.3,0.2-2.5,0.7-3.4c0.5-1,1.2-1.7,2.1-2.3
		c0.9-0.5,1.9-0.8,3.1-0.8c1.2,0,2.5,0.3,3.7,0.9l-0.9,2.2c-0.5-0.2-0.9-0.4-1.4-0.6C128,156.3,127.5,156.2,127,156.2z"/>
	<path class="st10" d="M144.4,160.4c0,2.1-0.5,3.7-1.6,4.8c-1,1.1-2.5,1.7-4.4,1.7s-3.4-0.6-4.4-1.7c-1-1.1-1.6-2.7-1.6-4.8
		c0-2.1,0.5-3.7,1.6-4.8c1-1.1,2.5-1.7,4.5-1.7c1.9,0,3.4,0.6,4.4,1.7C143.8,156.7,144.4,158.3,144.4,160.4z M135.2,160.4
		c0,1.4,0.3,2.5,0.8,3.2c0.5,0.7,1.3,1.1,2.4,1.1c2.1,0,3.2-1.4,3.2-4.2c0-2.8-1.1-4.3-3.2-4.3c-1.1,0-1.9,0.4-2.4,1.1
		C135.4,157.9,135.2,159,135.2,160.4z"/>
	<path class="st10" d="M158.1,166.7h-3.4l-5.5-9.5h-0.1c0.1,1.7,0.2,2.9,0.2,3.6v5.9H147v-12.6h3.4l5.5,9.4h0.1
		c-0.1-1.6-0.1-2.8-0.1-3.5v-6h2.4V166.7z"/>
	<path class="st10" d="M168.7,163.2c0,1.1-0.4,2-1.2,2.7c-0.8,0.7-2,1-3.4,1c-1.3,0-2.5-0.3-3.6-0.8v-2.5c0.8,0.4,1.6,0.6,2.2,0.8
		c0.6,0.2,1.1,0.2,1.6,0.2c0.6,0,1-0.1,1.3-0.3c0.3-0.2,0.5-0.6,0.5-1c0-0.2-0.1-0.5-0.2-0.7c-0.1-0.2-0.3-0.4-0.6-0.6
		c-0.3-0.2-0.8-0.5-1.6-0.9c-0.8-0.4-1.3-0.7-1.7-1c-0.4-0.3-0.7-0.7-0.9-1.2c-0.2-0.4-0.3-1-0.3-1.6c0-1.1,0.4-2,1.1-2.6
		c0.8-0.6,1.8-1,3.1-1c0.7,0,1.3,0.1,1.9,0.2c0.6,0.2,1.2,0.4,1.9,0.7l-0.9,2.1c-0.7-0.3-1.2-0.5-1.7-0.6c-0.4-0.1-0.9-0.2-1.3-0.2
		c-0.5,0-0.9,0.1-1.2,0.4c-0.3,0.2-0.4,0.5-0.4,0.9c0,0.2,0.1,0.4,0.2,0.6c0.1,0.2,0.3,0.3,0.5,0.5c0.2,0.2,0.8,0.5,1.7,0.9
		c1.2,0.6,2,1.1,2.4,1.7C168.5,161.7,168.7,162.4,168.7,163.2z"/>
	<path class="st10" d="M175.9,166.7h-2.7v-10.4h-3.4v-2.2h9.5v2.2h-3.4V166.7z"/>
	<path class="st10" d="M183.9,161.9v4.8h-2.7v-12.6h3.7c1.7,0,3,0.3,3.8,0.9c0.8,0.6,1.2,1.6,1.2,2.8c0,0.7-0.2,1.4-0.6,2
		c-0.4,0.6-1,1-1.7,1.4c1.9,2.8,3.1,4.7,3.7,5.5h-3l-3-4.8H183.9z M183.9,159.7h0.9c0.8,0,1.5-0.1,1.9-0.4c0.4-0.3,0.6-0.7,0.6-1.3
		c0-0.6-0.2-1-0.6-1.3c-0.4-0.3-1-0.4-1.9-0.4h-0.8V159.7z"/>
	<path class="st10" d="M203.1,154.1v8.1c0,0.9-0.2,1.7-0.6,2.4c-0.4,0.7-1,1.2-1.8,1.6c-0.8,0.4-1.7,0.6-2.8,0.6
		c-1.6,0-2.9-0.4-3.8-1.2c-0.9-0.8-1.3-2-1.3-3.4v-8.1h2.7v7.7c0,1,0.2,1.7,0.6,2.1c0.4,0.5,1,0.7,1.9,0.7c0.9,0,1.5-0.2,1.9-0.7
		c0.4-0.5,0.6-1.2,0.6-2.1v-7.7H203.1z"/>
	<path class="st10" d="M211.6,156.2c-1,0-1.8,0.4-2.3,1.1c-0.6,0.8-0.8,1.8-0.8,3.2c0,2.8,1.1,4.2,3.2,4.2c0.9,0,2-0.2,3.2-0.7v2.2
		c-1,0.4-2.2,0.6-3.5,0.6c-1.8,0-3.2-0.6-4.2-1.7c-1-1.1-1.5-2.7-1.5-4.8c0-1.3,0.2-2.5,0.7-3.4c0.5-1,1.2-1.7,2.1-2.3
		c0.9-0.5,1.9-0.8,3.1-0.8c1.2,0,2.5,0.3,3.7,0.9l-0.9,2.2c-0.5-0.2-0.9-0.4-1.4-0.6C212.5,156.3,212,156.2,211.6,156.2z"/>
	<path class="st10" d="M222.3,166.7h-2.7v-10.4h-3.4v-2.2h9.5v2.2h-3.4V166.7z"/>
	<path class="st10" d="M227.7,166.7v-12.6h2.7v12.6H227.7z"/>
	<path class="st10" d="M245,160.4c0,2.1-0.5,3.7-1.6,4.8c-1,1.1-2.5,1.7-4.4,1.7s-3.4-0.6-4.4-1.7c-1-1.1-1.6-2.7-1.6-4.8
		c0-2.1,0.5-3.7,1.6-4.8c1-1.1,2.5-1.7,4.5-1.7s3.4,0.6,4.4,1.7C244.4,156.7,245,158.3,245,160.4z M235.8,160.4
		c0,1.4,0.3,2.5,0.8,3.2c0.5,0.7,1.3,1.1,2.4,1.1c2.1,0,3.2-1.4,3.2-4.2c0-2.8-1.1-4.3-3.2-4.3c-1.1,0-1.9,0.4-2.4,1.1
		C236,157.9,235.8,159,235.8,160.4z"/>
	<path class="st10" d="M258.7,166.7h-3.4l-5.5-9.5h-0.1c0.1,1.7,0.2,2.9,0.2,3.6v5.9h-2.4v-12.6h3.4l5.5,9.4h0.1
		c-0.1-1.6-0.1-2.8-0.1-3.5v-6h2.4V166.7z"/>
	<path class="st10" d="M261.9,166.7v-12.6h2.7v12.6H261.9z"/>
	<path class="st10" d="M275.2,163.2c0,1.1-0.4,2-1.2,2.7c-0.8,0.7-2,1-3.4,1c-1.3,0-2.5-0.3-3.6-0.8v-2.5c0.8,0.4,1.6,0.6,2.2,0.8
		c0.6,0.2,1.1,0.2,1.6,0.2c0.6,0,1-0.1,1.3-0.3c0.3-0.2,0.5-0.6,0.5-1c0-0.2-0.1-0.5-0.2-0.7c-0.1-0.2-0.3-0.4-0.6-0.6
		c-0.3-0.2-0.8-0.5-1.6-0.9c-0.8-0.4-1.3-0.7-1.7-1c-0.4-0.3-0.7-0.7-0.9-1.2c-0.2-0.4-0.3-1-0.3-1.6c0-1.1,0.4-2,1.1-2.6
		c0.8-0.6,1.8-1,3.1-1c0.7,0,1.3,0.1,1.9,0.2c0.6,0.2,1.2,0.4,1.9,0.7l-0.9,2.1c-0.7-0.3-1.2-0.5-1.7-0.6c-0.4-0.1-0.9-0.2-1.3-0.2
		c-0.5,0-0.9,0.1-1.2,0.4c-0.3,0.2-0.4,0.5-0.4,0.9c0,0.2,0.1,0.4,0.2,0.6c0.1,0.2,0.3,0.3,0.5,0.5c0.2,0.2,0.8,0.5,1.7,0.9
		c1.2,0.6,2,1.1,2.4,1.7C275,161.7,275.2,162.4,275.2,163.2z"/>
	<path class="st10" d="M282.3,166.7h-2.7v-10.4h-3.4v-2.2h9.5v2.2h-3.4V166.7z"/>
</g>
<g>
	<path class="st11" d="M152.9,136.3c0-2,0.2-4-0.1-5.9c-0.1-0.4,0.7-0.3,0.2-1.2l-2.8,0.1l2.8-0.1c0,0,0.3,0,0.3,0l8.7-0.2l8.9-6.2
		l-5,3.5c0.8,0.7,1.4,1.5,1.8,2.3c-1.4,1.4-2.7,2.8-3.8,4.5c-0.3,0.4-0.7,0.5-1.3,0.5c-1.6-0.6-3.3-1.1-5.5-1.4c-0.3-1-0.4-2,0-3.1
		l-3.8,0.1c0.1,0.2,0.4,0.7,0.4,0.9c-0.1,0.3-0.6,0.5-0.5,0.7c0.1,0.2,0.5,0.5,0.4,0.7c-0.1,0.7-0.4,2.4-0.3,3.2
		c0.2,1.4,0.9,3.8,0.5,5.1c-0.1,0.4-0.5,2.4-0.5,2.8C151.9,140.6,152.9,137.9,152.9,136.3z"/>
	<polygon class="st12" points="161.9,128.7 150.1,129 159.7,123.5 170.8,122.5 	"/>
</g>
</svg>
