<?xml version="1.0" encoding="utf-8"?>
<!-- Generator: Adobe Illustrator 21.1.0, SVG Export Plug-In . SVG Version: 6.00 Build 0)  -->
<svg version="1.1" id="Capa_1" xmlns="http://www.w3.org/2000/svg" xmlns:xlink="http://www.w3.org/1999/xlink" x="0px" y="0px"
	 viewBox="0 0 807.4 375.8" style="enable-background:new 0 0 807.4 375.8;" xml:space="preserve">
<style type="text/css">
	.st0{fill:#460D30;}
	.st1{opacity:0.64;}
	.st2{opacity:0.54;fill:#616262;}
	.st3{opacity:0.81;fill:#616262;}
	.st4{opacity:0.23;fill:#616262;}
	.st5{opacity:0.1;fill:#616262;}
	.st6{opacity:0.37;fill:#616262;}
	.st7{fill:#885B7C;}
	.st8{fill:#8F2975;}
	.st9{fill:#616262;}
	.st10{fill:#FFFFFF;}
</style>
<g>
	<g>
		<path class="st0" d="M695.2,273.2c-18.6,16.5-42.5,27-68.9,28.5v74.1c46.8-1.7,89.2-20.4,121.3-50.2L695.2,273.2z"/>
		<g class="st1">
			<path class="st2" d="M534.2,263.6c-16.5-18.6-27-42.5-28.5-68.9h-74.1c1.7,46.8,20.4,89.2,50.2,121.3L534.2,263.6z"/>
			<path class="st3" d="M612.7,301.7c-26.4-1.5-50.3-12.1-68.9-28.5l-52.4,52.4c32,29.8,74.5,48.6,121.3,50.2V301.7z"/>
			<path class="st4" d="M325.1,0v74.1c26.4,1.5,50.3,12.1,68.9,28.5l52.4-52.4C414.4,20.4,371.9,1.7,325.1,0z"/>
			<path class="st5" d="M242.7,102.6c18.6-16.5,42.5-27,68.9-28.5V0c-46.8,1.7-89.2,20.4-121.3,50.2L242.7,102.6z"/>
			<path class="st5" d="M204.5,181.1c1.5-26.4,12.1-50.3,28.5-68.9l-52.4-52.4c-29.8,32-48.6,74.5-50.2,121.3H204.5z"/>
			<path class="st6" d="M403.6,112.2c16.5,18.6,27,42.5,28.5,68.9h74.1c-1.7-46.8-20.4-89.2-50.2-121.3L403.6,112.2z"/>
			<path class="st5" d="M233.1,263.6c-16.5-18.6-27-42.5-28.5-68.9h-74.1c1.7,46.8,20.4,89.2,50.2,121.3L233.1,263.6z"/>
		</g>
		<g>
			<g>
				<g>
					<path class="st7" d="M311.6,301.7c-26.4-1.5-50.3-12.1-68.9-28.5l-52.4,52.4c32,29.8,74.5,48.6,121.3,50.2V301.7z"/>
					<path class="st7" d="M432.2,194.7c-1.5,26.4-12.1,50.3-28.5,68.9l52.4,52.4c29.8-32,48.6-74.5,50.2-121.3H432.2z"/>
					<path class="st7" d="M394,273.2c-18.6,16.5-42.5,27-68.9,28.5v74.1c46.8-1.7,89.2-20.4,121.3-50.2L394,273.2z"/>
				</g>
			</g>
			<path class="st0" d="M626.3,0v74.1c26.4,1.5,50.3,12.1,68.9,28.5l52.4-52.4C715.5,20.4,673.1,1.7,626.3,0z"/>
			<path class="st0" d="M757.1,315.9l-52.4-52.4c17.6-19.7,27.1-44.1,28.5-68.9l74.1,0C805.8,238.4,789.1,281.7,757.1,315.9z"/>
			<path class="st8" d="M543.8,102.6c18.6-16.5,42.5-27,68.9-28.5V0c-46.8,1.7-89.2,20.4-121.3,50.2L543.8,102.6z"/>
			<path class="st8" d="M505.7,181.1c1.5-26.4,12.1-50.3,28.5-68.9l-52.4-52.4c-29.8,32-48.6,74.5-50.2,121.3H505.7z"/>
			<path class="st0" d="M704.8,112.2c16.5,18.6,27,42.5,28.5,68.9h74.1c-1.7-46.8-20.4-89.2-50.2-121.3L704.8,112.2z"/>
		</g>
		<g>
			<g>
				<path class="st7" d="M47.3,135.2C21.2,135.2,0,156.3,0,182.4s21.2,47.3,47.3,47.3s47.3-21.2,47.3-47.3S73.4,135.2,47.3,135.2z
					 M47.3,211.3c-15.9,0-28.9-12.9-28.9-28.9c0-15.9,12.9-28.9,28.9-28.9s28.9,12.9,28.9,28.9C76.1,198.4,63.2,211.3,47.3,211.3z"
					/>
				<path class="st9" d="M246,135.2c-26.1,0-47.3,21.2-47.3,47.3s21.2,47.3,47.3,47.3s47.3-21.2,47.3-47.3S272.1,135.2,246,135.2z
					 M246,211.3c-15.9,0-28.9-12.9-28.9-28.9c0-15.9,12.9-28.9,28.9-28.9s28.9,12.9,28.9,28.9C274.8,198.4,261.9,211.3,246,211.3z"
					/>
				<path class="st9" d="M346.3,135.2c-26.1,0-47.3,21.2-47.3,47.3s21.2,47.3,47.3,47.3c26.1,0,47.3-21.2,47.3-47.3
					S372.4,135.2,346.3,135.2z M346.3,211.3c-15.9,0-28.9-12.9-28.9-28.9c0-15.9,12.9-28.9,28.9-28.9c15.9,0,28.9,12.9,28.9,28.9
					C375.1,198.4,362.2,211.3,346.3,211.3z"/>
				<path class="st9" d="M195,110.5c0-5.5-4.5-9.9-9.9-9.9h0c-5.5,0-9.9,4.5-9.9,9.9V144c-7.8-5.6-17.3-8.9-27.5-8.9
					c-26.1,0-47.3,21.2-47.3,47.3s21.2,47.3,47.3,47.3c24.5,0,44.7-18.7,47-42.6c0.3-0.3,0.4-0.9,0.4-1.8V110.5z M147.6,211.3
					c-15.9,0-28.9-12.9-28.9-28.9c0-15.9,12.9-28.9,28.9-28.9s28.9,12.9,28.9,28.9C176.4,198.4,163.5,211.3,147.6,211.3z"/>
			</g>
		</g>
		<g>
			<path class="st10" d="M236.2,342.5c-0.9-0.3-2.5-0.9-3.5-1.4c-3.5-1.9-3.3-4.3-1.1-8.3c2.4-4.3,4.2-5.4,7.6-3.5
				c1.2,0.7,2.5,1.7,3.1,2.3l-1.1,1.8c-0.7-0.5-2-1.5-2.8-1.9c-1.8-1-2.7-0.7-4.4,2.6c-1.7,3.1-1.7,4.1,0.3,5.2
				c0.8,0.4,2.3,1.1,3,1.3L236.2,342.5z"/>
			<path class="st10" d="M242.7,341.1l-1.9,3.9l-2.4-1.1l5.6-11.7l4.6,2.2c2.7,1.3,3.6,3.2,2.3,5.8c-0.8,1.6-1.9,2.4-3.3,2.6
				l-0.5,5.3l-2.6-1.2l0.5-4.6L242.7,341.1z M247.6,336.4l-2.2-1l-1.8,3.7l2.2,1.1c1.2,0.6,2.1,0,2.6-1.1
				C249,337.9,248.8,336.9,247.6,336.4z"/>
			<path class="st10" d="M254.4,337.1l4.2,1.6l-1.3,9.7l5.6-8l4.2,1.6l-4.7,12.1l-2.5-1l3.6-9.4l-0.3-0.1l-5.8,7.9l-2.5-1l1.1-9.8
				l-0.3-0.1l-3.6,9.4l-2.5-1L254.4,337.1z"/>
			<path class="st10" d="M365.6,343.2l4.2-1.5l5.4,8.1l-1.1-9.7l4.2-1.5l4.4,12.2l-2.5,0.9l-3.4-9.4l-0.3,0.1l0.8,9.8l-2.5,0.9
				l-5.6-8l-0.3,0.1l3.4,9.4l-2.5,0.9L365.6,343.2z"/>
			<path class="st10" d="M387.8,342.8l-1.5,0.9l2.1,4.5l-2.4,1.1l-5.4-11.8l2.4-1.1l2.4,5.2l1.5-0.9l-0.3-5.9l2.7-1.2l0.1,7.1
				l5.3,4.7l-2.8,1.3L387.8,342.8z"/>
			<path class="st10" d="M389.5,333.4l8.5-4.5l1.1,2.1l-3,1.6l5,9.4l-2.3,1.2l-5-9.4l-3.1,1.6L389.5,333.4z"/>
			<path class="st10" d="M454.3,275.6l2.3-3.9l9.3,2.8l-7-6.8l2.3-3.9l11.2,6.6l-1.3,2.3l-8.7-5.1l-0.1,0.2l6.9,7l-1.3,2.3l-9.5-2.6
				l-0.1,0.2l8.7,5.1l-1.3,2.3L454.3,275.6z"/>
			<path class="st10" d="M463.1,260l2.2-4.5l12.9,3.2l-1.2,2.4l-2.3-0.6l-2,4.1l1.9,1.5l-1.2,2.4L463.1,260z M470.9,263.1l1.6-3.2
				l-6.1-1.6l-0.4,0.8L470.9,263.1z"/>
			<path class="st10" d="M467.2,251.5l1.1-2.4l11.9,5.3l-1.1,2.4L467.2,251.5z"/>
			<path class="st10" d="M481.4,251.4l-12.1-4.7l1-2.5l9.9,3.9l1.7-4.4l2.2,0.8L481.4,251.4z"/>
			<path class="st10" d="M472.4,238.5l0.8-2.5l12.3,4.2l-0.8,2.5L472.4,238.5z"/>
			<path class="st10" d="M474.1,233.6l1.2-4.3l11.1-0.2l0-0.2l-10.3-2.8l0.7-2.5l12.5,3.4l-1.1,4.2l-11.2,0.4l0,0.2l10.3,2.8
				l-0.7,2.5L474.1,233.6z"/>
			<path class="st10" d="M484.2,216.9l0.7-3.7l6.6,1.2c0,0-0.1,2.8-0.4,4.4c-0.8,4.2-3.3,4.8-7.6,4c-4.7-0.8-6.4-2.5-5.7-6.3
				c0.4-2,1.3-4.4,1.3-4.4l2,0.4c0,0-0.7,2.2-1,3.9c-0.4,2.2,0.2,3,3.8,3.7c3.4,0.6,4.5,0.3,4.9-2c0.1-0.8,0.2-1.6,0.2-1.6l-2.5-0.4
				l-0.2,1.2L484.2,216.9z"/>
		</g>
		<g>
			<path class="st10" d="M438.8,168.7l0.5-2.6l12.8,2.5l-0.5,2.6L438.8,168.7z"/>
			<path class="st10" d="M439.9,162.9l1-4.3l11.1-0.6l0-0.2l-10.4-2.5l0.6-2.6l12.6,3l-1,4.2l-11.2,0.7l0,0.2l10.4,2.5l-0.6,2.6
				L439.9,162.9z"/>
			<path class="st10" d="M445.9,140.1l11.6,6.5l-1.4,4.7l-13.3-0.7l0.8-2.7l10.9,0.8l0.2-0.8l-9.7-5.1L445.9,140.1z"/>
			<path class="st10" d="M446.6,138.1l2.7-8l2.2,0.7l-1.9,5.5l2.9,1l1.5-4.4l2.1,0.7l-1.5,4.4l3,1l1.9-5.5l2.2,0.7l-2.7,8
				L446.6,138.1z"/>
			<path class="st10" d="M450.2,127.6l1.6-4.1l11.1,1l0.1-0.2l-10-3.9l1-2.5l12.1,4.8l-1.6,4l-11.2-0.9l-0.1,0.2l10,3.9l-1,2.5
				L450.2,127.6z"/>
			<path class="st10" d="M454.9,115.9l4-8.7l2.1,1l-1.4,3.1l9.7,4.4l-1.1,2.4l-9.7-4.4l-1.4,3.2L454.9,115.9z"/>
			<path class="st10" d="M465.3,108.9c-3.9-2-5.4-4.3-3.5-7.9c1.9-3.6,4.6-3.7,8.5-1.6c3.9,2,5.3,4.2,3.4,7.8
				C471.8,110.9,469.2,111,465.3,108.9z M469,101.8c-2.7-1.4-4.2-1.6-5.2,0.3c-1,1.9,0.1,3.1,2.8,4.5s4.1,1.5,5.1-0.4
				C472.6,104.3,471.7,103.2,469,101.8z"/>
			<path class="st10" d="M474.6,96.1l3.7,2.2l-1.4,2.3l-11.1-6.7l2.6-4.3c1.5-2.5,3.5-3.3,6-1.7c1.5,0.9,2.2,2.2,2.2,3.6l5.2,1
				l-1.5,2.5l-4.5-0.9L474.6,96.1z M470.4,90.7l-1.2,2.1l3.5,2.1l1.3-2.1c0.7-1.1,0.2-2.1-0.8-2.7C472.1,89.5,471,89.6,470.4,90.7z"
				/>
			<path class="st10" d="M485.8,86.6l-1.5,2.2l-4.3-3l-8.7-1l1.6-2.4l5.6,0.9l-2.9-4.9l1.6-2.4l4.2,7.6L485.8,86.6z"/>
			<path class="st10" d="M524.2,31.8l3.9-2.2l6.6,7.2l-2.6-9.4l3.9-2.2l6.3,11.4l-2.3,1.3l-4.9-8.8l-0.3,0.1l2.4,9.5L535,40
				l-6.8-7.1l-0.3,0.1l4.9,8.8l-2.3,1.3L524.2,31.8z"/>
			<path class="st10" d="M545.3,30.5l1.7,4l-2.4,1l-5.1-11.9l4.6-2c2.7-1.2,4.7-0.6,5.9,2.1c0.7,1.6,0.5,3-0.3,4.2l3.7,3.8l-2.6,1.1
				l-3.1-3.4L545.3,30.5z M545,23.7l-2.2,1l1.6,3.8l2.2-1c1.2-0.5,1.3-1.6,0.9-2.6C547.1,23.7,546.2,23.2,545,23.7z"/>
			<path class="st10" d="M556.6,26.6l1.2,3.6l-2.5,0.9l-4.3-12.3l4.5-1.6c2.9-1,4.9-0.1,5.8,2.7c1,2.9,0.1,5-2.8,6L556.6,26.6z
				 M557.9,23.8c1.2-0.4,1.6-1.4,1.1-3c-0.5-1.5-1.4-1.9-2.6-1.5l-2,0.7l1.5,4.4L557.9,23.8z"/>
			<path class="st10" d="M648.8,13c0,0-2.6-0.7-3.7-0.9c-1.4-0.2-2.1,0.2-2.3,1c-0.1,0.8,0.3,1.2,2.4,2.2c2.6,1.3,3.3,2.3,3,4.4
				c-0.5,2.8-2.6,3.8-5.1,3.4c-1.8-0.3-4.2-1.3-4.2-1.3l0.6-2c0,0,2.5,0.8,3.8,1c1.4,0.2,2.1-0.3,2.3-1.3c0.1-0.8-0.3-1.2-2-2.1
				c-2.7-1.3-3.7-2.5-3.3-4.5c0.4-2.7,2.4-3.5,5-3.1c1.7,0.3,4.1,1.2,4.1,1.2L648.8,13z"/>
			<path class="st10" d="M657.9,20.4l-4.7-1.1l-1.2,5.2l-2.6-0.6l3-12.6l2.6,0.6l-1.2,5.2l4.7,1.1l1.2-5.2l2.6,0.6l-3,12.6l-2.6-0.6
				L657.9,20.4z"/>
			<path class="st10" d="M663.1,20.6c1.3-4.2,3.3-6.1,7.2-4.9c3.9,1.2,4.4,3.9,3.1,8.1s-3.2,6-7.1,4.8
				C662.4,27.4,661.8,24.8,663.1,20.6z M670.8,23c0.9-2.9,0.8-4.5-1.2-5.1s-3,0.6-3.9,3.5c-0.9,2.9-0.8,4.3,1.3,5
				S669.9,25.9,670.8,23z"/>
			<path class="st10" d="M677.3,28.1l-1.4,3.5l-2.5-1l4.7-12.1l4.5,1.7c2.9,1.1,3.8,3.1,2.7,5.9s-3.2,3.8-6,2.7L677.3,28.1z
				 M680.1,26.8c1.2,0.5,2.1,0,2.7-1.6c0.6-1.5,0.2-2.3-1-2.8l-2-0.8l-1.7,4.4L680.1,26.8z"/>
			<path class="st10" d="M687.7,32.4l-1.6,3.4l-2.4-1.1l5.5-11.8l4.3,2c2.8,1.3,3.6,3.3,2.3,6c-1.3,2.7-3.4,3.6-6.2,2.3L687.7,32.4z
				 M690.6,31.3c1.2,0.6,2.1,0.1,2.8-1.4c0.7-1.5,0.4-2.3-0.8-2.9l-1.9-0.9l-2,4.3L690.6,31.3z"/>
			<path class="st10" d="M699.8,28l2.3,1.2l-6,11.5l-2.3-1.2L699.8,28z"/>
			<path class="st10" d="M705.1,30.8l3.8,2.3l-2.8,10.8l0.2,0.1l5.5-9.2l2.3,1.3l-6.6,11.2l-3.7-2.2l2.7-10.9l-0.2-0.1l-5.5,9.2
				l-2.3-1.3L705.1,30.8z"/>
			<path class="st10" d="M718,46.1l3.1,2.2l-3.8,5.5c0,0-2.5-1.2-3.9-2.2c-3.5-2.4-3-5-0.5-8.6c2.7-3.9,5-4.7,8.1-2.6
				c1.6,1.1,3.4,3,3.4,3l-1.2,1.6c0,0-1.7-1.5-3.2-2.5c-1.9-1.3-2.8-1.1-4.9,1.9c-2,2.8-2.1,3.9-0.2,5.3c0.6,0.4,1.3,0.8,1.3,0.8
				l1.4-2.1l-1-0.7L718,46.1z"/>
			<path class="st10" d="M764.2,82.9l1.5,2.1l-10.5,7.6l-1.5-2.1L764.2,82.9z"/>
			<path class="st10" d="M767.7,87.7l2.4,3.7l-7.3,8.4l0.1,0.2l9-5.8l1.4,2.2l-10.9,7.1l-2.4-3.6l7.2-8.5l-0.1-0.2l-9,5.8l-1.4-2.2
				L767.7,87.7z"/>
			<path class="st10" d="M779.9,108l-12.8,3.7l-2.4-4.3l9.9-8.9l1.3,2.4l-8.3,7.2l0.4,0.8l10.5-3.2L779.9,108z"/>
			<path class="st10" d="M774.7,112.3c4-1.9,6.7-1.7,8.5,2s0.1,5.9-3.8,7.8s-6.6,1.7-8.3-2S770.7,114.1,774.7,112.3z M778.1,119.6
				c2.7-1.3,3.8-2.4,2.9-4.3s-2.5-1.8-5.2-0.5c-2.7,1.3-3.7,2.3-2.8,4.3S775.4,120.8,778.1,119.6z"/>
			<path class="st10" d="M786.3,121.7l1,2.4l-12,5l-1-2.4L786.3,121.7z"/>
			<path class="st10" d="M779.3,139.3c-0.5-0.8-1.3-2.3-1.7-3.4c-1.4-3.8,0.3-5.4,4.6-7c4.6-1.7,6.7-1.3,8,2.3
				c0.5,1.3,0.7,2.9,0.8,3.7l-2,0.7c-0.2-0.9-0.6-2.4-0.9-3.2c-0.7-1.9-1.6-2.2-5-1c-3.3,1.2-4,2-3.2,4.1c0.3,0.8,1,2.3,1.4,3
				L779.3,139.3z"/>
			<path class="st10" d="M792.2,137.4l2.5,8l-2.2,0.7l-1.7-5.5l-2.9,0.9l1.4,4.4l-2.2,0.7l-1.4-4.4l-3,0.9l1.7,5.5l-2.2,0.7l-2.5-8
				L792.2,137.4z"/>
			<path class="st10" d="M795,156.2c0,0-0.4-2.7-0.6-3.8c-0.3-1.4-1-1.9-1.8-1.7c-0.8,0.2-0.9,0.8-1.1,3.1c-0.2,2.9-0.7,4-2.8,4.5
				c-2.7,0.7-4.5-0.9-5.1-3.3c-0.4-1.7-0.5-4.4-0.5-4.4l2-0.2c0,0,0.3,2.6,0.6,3.9c0.3,1.4,1.1,1.8,2.1,1.6c0.8-0.2,1-0.7,1.1-2.7
				c0.1-3,0.8-4.4,2.8-4.9c2.6-0.7,4.2,0.8,4.8,3.4c0.4,1.7,0.5,4.3,0.5,4.3L795,156.2z"/>
		</g>
		<g>
			<path class="st10" d="M631.6,352.8l8.1-1.6l0.4,2.2l-5.5,1.1l0.6,2.9l4.4-0.9l0.4,2.2l-4.4,0.9l0.6,3l5.5-1.1l0.4,2.2l-8.1,1.6
				L631.6,352.8z"/>
			<path class="st10" d="M652.2,361.1c-0.8,0.4-2.4,1-3.5,1.3c-3.8,0.9-5.2-1-6.2-5.3c-1.1-4.7-0.5-6.7,3.2-7.5
				c1.3-0.3,2.9-0.4,3.7-0.4l0.4,2c-0.9,0.1-2.4,0.3-3.2,0.5c-1.9,0.5-2.4,1.3-1.5,4.8c0.8,3.3,1.4,4.1,3.6,3.6c0.8-0.2,2.3-0.7,3-1
				L652.2,361.1z"/>
			<path class="st10" d="M652.3,354.8c-1.2-4.1-0.6-6.7,3.2-7.8c3.8-1.1,5.7,0.8,6.9,5s0.6,6.6-3.3,7.7
				C655.3,360.8,653.5,359,652.3,354.8z M659.9,352.7c-0.8-2.8-1.7-4.1-3.7-3.5c-2,0.6-2.1,2.1-1.3,5c0.8,2.8,1.7,4,3.7,3.4
				C660.5,356.9,660.7,355.5,659.9,352.7z"/>
			<path class="st10" d="M662.5,345.2l4.1-1.5l5.2,8l-1-9.5l4.1-1.5l4.2,12l-2.4,0.9l-3.3-9.3l-0.3,0.1l0.8,9.6l-2.4,0.9l-5.4-7.9
				l-0.3,0.1l3.3,9.3l-2.4,0.9L662.5,345.2z"/>
			<path class="st10" d="M677.2,339.9l4-1.8l5.8,7.6l-1.7-9.4l4-1.8l5.2,11.6l-2.4,1l-4-9l-0.3,0.1l1.5,9.5l-2.4,1l-6-7.5l-0.3,0.1
				l4,9l-2.4,1L677.2,339.9z"/>
			<path class="st10" d="M691.5,333.3l7.3-3.9l1.1,2l-5,2.6l1.4,2.6l4-2.1l1,1.9l-4,2.1l1.4,2.7l5-2.6l1.1,2l-7.3,3.9L691.5,333.3z"
				/>
			<path class="st10" d="M707,334.4l2.2,3.6l-2.2,1.3l-6.6-10.8l4.2-2.6c2.5-1.5,4.5-1.2,6,1.2c0.9,1.5,0.9,2.9,0.3,4.1l4.1,3.2
				l-2.4,1.5l-3.5-2.9L707,334.4z M705.8,327.9l-2,1.2l2.1,3.4l2-1.2c1.1-0.7,1.1-1.7,0.5-2.7C707.8,327.6,706.8,327.2,705.8,327.9z
				"/>
			<path class="st10" d="M723.8,328.2c-0.6,0.6-1.8,1.8-2.8,2.5c-3.2,2.3-5.2,1.1-7.8-2.6c-2.8-3.9-2.9-6,0.2-8.2
				c1.1-0.8,2.6-1.4,3.3-1.7l1.1,1.7c-0.8,0.4-2.1,1.2-2.8,1.7c-1.6,1.1-1.7,2.1,0.4,5c2,2.8,2.8,3.3,4.6,2c0.7-0.5,1.9-1.5,2.5-2.1
				L723.8,328.2z"/>
			<path class="st10" d="M718,316.9l6.4-5.1l1.4,1.8l-4.4,3.5l1.9,2.3l3.5-2.8l1.4,1.7l-3.5,2.8l1.9,2.4l4.4-3.5l1.4,1.8l-6.4,5.1
				L718,316.9z"/>
			<path class="st10" d="M744.2,293.3l2.8-3.5l10.6,5.2l-1.5,1.8l-1.9-1l-2.5,3.1l1.3,1.7l-1.5,1.8L744.2,293.3z M750.4,297.4l2-2.5
				l-5-2.5l-0.5,0.6L750.4,297.4z"/>
			<path class="st10" d="M762.9,287.4c-0.3,0.7-1,2.1-1.6,3c-2.1,2.9-4.1,2.5-7.4,0.1c-3.6-2.5-4.3-4.3-2.3-7.1c0.7-1,1.8-2,2.3-2.5
				l1.5,1.1c-0.6,0.6-1.5,1.7-1.9,2.3c-1,1.5-0.8,2.3,1.8,4.2c2.5,1.8,3.4,1.9,4.6,0.3c0.5-0.6,1.2-1.9,1.5-2.5L762.9,287.4z"/>
			<path class="st10" d="M768.1,279.3c-0.3,0.8-0.9,2.2-1.5,3.1c-1.9,3-4,2.7-7.4,0.6c-3.7-2.3-4.5-4-2.7-6.9c0.6-1,1.7-2.1,2.2-2.6
				l1.5,1.1c-0.5,0.6-1.4,1.7-1.8,2.4c-1,1.5-0.7,2.3,2.1,4.1c2.6,1.7,3.5,1.7,4.6,0c0.4-0.7,1.1-2,1.3-2.6L768.1,279.3z"/>
			<path class="st10" d="M764.1,275.1c-3.4-1.9-4.8-3.9-3-7.1c1.7-3.2,4.2-3.2,7.6-1.3c3.4,1.9,4.6,3.9,2.9,7
				C769.9,276.9,767.6,277,764.1,275.1z M767.6,268.8c-2.3-1.3-3.8-1.5-4.7,0.2c-0.9,1.7,0,2.7,2.4,4c2.3,1.3,3.6,1.4,4.5-0.2
				C770.7,271.1,769.9,270.1,767.6,268.8z"/>
			<path class="st10" d="M775,262.5c0.6-1.2,0.3-2.1-1-2.7l-7-3.2l1-2.1l6.9,3.2c2.6,1.2,3.1,3.1,1.9,5.7s-3,3.5-5.6,2.3l-6.9-3.2
				l1-2.1l7,3.2C773.5,264.1,774.4,263.7,775,262.5z"/>
			<path class="st10" d="M768.9,252.4l1.4-3.7l9.9,0.8l0.1-0.2l-8.9-3.4l0.8-2.2l10.8,4.2l-1.4,3.6l-9.9-0.7l-0.1,0.2l8.9,3.4
				l-0.8,2.2L768.9,252.4z"/>
			<path class="st10" d="M772.6,242.5l2.6-8.1l2,0.6l-0.9,2.9l9,2.9l-0.7,2.2l-9-2.9l-0.9,2.9L772.6,242.5z"/>
			<path class="st10" d="M775.8,232.2l1.1-4.3l11.8,0.4l-0.6,2.3l-2.1-0.1l-1,3.9l1.9,1l-0.6,2.3L775.8,232.2z M783.1,233.5l0.8-3.1
				l-5.6-0.3l-0.2,0.8L783.1,233.5z"/>
			<path class="st10" d="M777.9,224.1l0.8-3.9l9.9-0.9l0-0.2l-9.3-1.8l0.4-2.3l11.4,2.2l-0.7,3.8l-9.9,1l0,0.2l9.3,1.8l-0.4,2.3
				L777.9,224.1z"/>
			<path class="st10" d="M779.8,213.8l1.1-8.4l2.1,0.3l-0.4,3l9.4,1.2l-0.3,2.3l-9.4-1.2l-0.4,3.1L779.8,213.8z"/>
		</g>
	</g>
	<path class="st10" d="M269.8,313.7c1.9-0.9,3.4-2.5,4.3-4.5c2.1-4.6,0-10.1-4.7-12.2c-4.6-2.1-10.1,0-12.2,4.7
		c-0.9,2-1,4.2-0.5,6.2c-3.1,0.2-5.9,2-7.2,5l-3,6.6c-0.9,1.9,0,4.2,2,5.1l7.1,3.2l7.1,3.2c1.9,0.9,4.2,0,5.1-2l3-6.6
		C272.2,319.4,271.7,316.1,269.8,313.7z M268.2,299.9L268.2,299.9L268.2,299.9c3,1.4,4.4,4.9,3,8c-1.4,3-4.9,4.4-8,3l0,0l0,0
		c-3-1.4-4.4-4.9-3-8C261.6,299.9,265.2,298.5,268.2,299.9z M265,327.7c-0.2,0.3-0.6,0.5-0.9,0.3l-7.1-3.2l-7.1-3.2
		c-0.3-0.2-0.5-0.6-0.3-0.9l3-6.6c1.1-2.3,3.6-3.6,6-2.9c0.9,1.1,2,2,3.4,2.6c1.4,0.6,2.8,0.9,4.2,0.8c2.1,1.4,2.9,4.1,1.8,6.5
		L265,327.7z"/>
	<path class="st10" d="M441.5,221.8l-11.8,23c-0.9,1.7-0.2,3.8,1.5,4.7l15.4,7.9c1.7,0.9,3.8,0.2,4.7-1.5l11.8-23
		c0.9-1.7,0.2-3.8-1.5-4.7l-15.4-7.9C444.5,219.4,442.4,220.1,441.5,221.8z M443,226.3l1.6,11.6l-10.4,5.4L443,226.3z M460.1,231.3
		l-11.8,23c0,0.1-0.1,0.1-0.2,0.1l-14.1-7.2l14.1-7.4l-2.2-15.8l14.1,7.2C460.1,231.2,460.1,231.3,460.1,231.3z"/>
	<g>
		<path class="st10" d="M377.5,330.8c-1.6,0.8-3.7,0.2-4.5-1.4l-2.2-4.1c-0.9,0.3-1.5,0.5-1.5,0.5l-0.6,0.2c-0.8,0.3-1.7,0-2.1-0.8
			l-3.9-7.5c-0.4-0.8-0.1-1.7,0.6-2.1l0.6-0.4c0,0,3.4-2.3,6.7-5.9c1.6-1.8,3.7-4.6,4.7-6c0.2-0.9,0.8-1.7,1.7-2.2
			c1.6-0.8,3.6-0.2,4.5,1.5l8.4,16.4c0.8,1.6,0.2,3.7-1.4,4.5c-0.9,0.4-1.9,0.5-2.7,0.1c-1.5,0-4.2,0-6.4,0.2l1,1.9
			c0.8,1.6,0.2,3.7-1.4,4.5L377.5,330.8C377.5,330.8,377.5,330.8,377.5,330.8z M368.9,322.4c0.5-0.2,1.3-0.4,2.3-0.7
			c0.8-0.2,1.5,0.1,1.9,0.8l3.6,6.8l-0.8-1.5l1.4-0.7l-2.1-4.1c-0.2-0.5-0.3-1,0-1.5c0.2-0.5,0.7-0.8,1.2-0.9
			c0.4-0.1,0.8-0.1,1.2-0.2c2.7-0.3,6.4-0.3,8.4-0.3c0.3,0,0.6,0.1,0.9,0.2l-8.5-16.4c0,0.3-0.1,0.5-0.3,0.8
			c-1.2,1.6-3.4,4.6-5.2,6.6c-2.7,3-5.4,5.1-6.6,6L368.9,322.4z"/>
		<path class="st10" d="M364.3,328.1l-3.6,1.8c-0.8,0.4-1.8,0.1-2.2-0.7l-3.5-6.9c-0.4-0.8-0.1-1.8,0.7-2.2l3.6-1.8
			c0.8-0.4,1.8-0.1,2.2,0.7l3.5,6.9C365.4,326.6,365.1,327.6,364.3,328.1z M360.7,326.2l0.6-0.3l-2-3.9l-0.6,0.3L360.7,326.2z"/>
	</g>
	<g>
		<path class="st10" d="M656.2,304.8L656.2,304.8C656.2,304.8,656.1,304.8,656.2,304.8L656.2,304.8L656.2,304.8L656.2,304.8z"/>
		<path class="st10" d="M667.9,325.2l17.3-8.2c2.7-1.3,3.9-4.6,2.6-7.3l-3.5-7.3l-0.2-0.3l-0.4-0.4c0,0,0,0,0,0l-0.4-0.3
			c0,0,0,0,0,0l-0.3-0.1c-0.1,0-0.1-0.1-0.2-0.1l-0.2-0.1l-1,0l-22.3,7.1l-0.9-1.8c0,0-0.1-0.1-0.1-0.2l-0.1-0.3l-0.3-0.2
			c-0.1-0.1-0.1-0.1-0.2-0.2l-0.2-0.2l-0.8-0.4l-0.5-0.1l-5.9,0.3c-0.7,0-1.3,0.3-1.7,0.8c-0.5,0.5-0.7,1.1-0.7,1.8
			c0.1,1.4,1.2,2.5,2.6,2.4l4-0.2l8.6,18.1c0.9,1.9,2.8,3.1,4.8,3.1c0.1,0.3,0.2,0.7,0.4,1c1.3,2.7,4.5,3.9,7.3,2.6
			c2.7-1.3,3.9-4.5,2.6-7.3c-0.1-0.1-0.1-0.2-0.2-0.4l4.1-1.9c0,0.1,0.1,0.3,0.2,0.4c1.3,2.7,4.5,3.9,7.3,2.6
			c2.7-1.3,3.9-4.5,2.6-7.3s-4.5-3.9-7.3-2.6l-16.4,7.8c-0.2,0.1-0.5,0-0.6-0.2l-0.2-0.5C667.6,325.3,667.7,325.2,667.9,325.2z
			 M683.9,301.8L683.9,301.8L683.9,301.8C683.9,301.8,683.9,301.8,683.9,301.8z M684.7,322.9l0.1-1.4l1.2-0.6
			c1.2-0.6,2.6-0.1,3.1,1.1s0.1,2.6-1.1,3.1s-2.6,0.1-3.1-1.1C684.8,323.8,684.7,323.3,684.7,322.9z M670.8,329.5l0.1-1.3l2.4-1.1
			l1.1,0.8c0.3,0.2,0.6,0.5,0.8,0.9c0.6,1.2,0.1,2.6-1.1,3.1c-1.2,0.6-2.6,0.1-3.1-1.1C670.9,330.4,670.8,329.9,670.8,329.5z
			 M665.3,322.6l-1.3-0.1l-5.3-11l23-7.3l3.2,6.8c0.6,1.2,0.1,2.6-1.1,3.2l-17.3,8.2C666.1,322.6,665.7,322.6,665.3,322.6z"/>
	</g>
	<g>
		<g>
			<g>
				<path class="st10" d="M573.8,41.6c-0.3-0.3-0.7-0.4-1-0.3c-0.4,0.1-0.7,0.3-0.8,0.7l-2.2,5.6c-0.3,0.9-1,1.5-1.8,1.9
					c-0.8,0.4-1.8,0.4-2.6,0.1c-0.9-0.3-1.5-1-1.9-1.8c-0.4-0.8-0.4-1.8-0.1-2.6l2.2-5.6c0.1-0.4,0.1-0.8-0.1-1.1
					c-0.2-0.3-0.6-0.5-1-0.5c-1.2,0-2.5,0.3-3.6,0.8c-2.1,0.9-3.7,2.6-4.5,4.6l-0.7,1.8c-1.2,3.2-0.5,6.8,1.9,9.2l-5.9,15.2
					c-0.5,1.4-0.5,2.8,0.1,4.2s1.7,2.4,3,2.9c1.4,0.5,2.8,0.5,4.2-0.1c1.3-0.6,2.4-1.7,2.9-3l5.9-15.2c1.1,0,2.1-0.3,3.1-0.7
					c2.1-0.9,3.7-2.6,4.5-4.7l0.7-1.8C577.4,47.8,576.4,44,573.8,41.6z M569.9,55.5c-0.9,0.4-1.9,0.6-2.9,0.5c-0.5,0-1,0.3-1.2,0.9
					l-6.1,15.8c-0.3,0.8-0.9,1.4-1.7,1.7c-0.8,0.3-1.6,0.4-2.4,0.1c-0.8-0.3-1.4-0.9-1.7-1.7c-0.3-0.8-0.4-1.6-0.1-2.4l6.2-15.8
					c0.2-0.5,0.1-1.1-0.3-1.4c-2.1-1.7-2.9-4.6-1.9-7.1l0.7-1.8c0.6-1.5,1.7-2.7,3.3-3.4c0.3-0.1,0.6-0.2,0.9-0.3l-1.5,3.8
					c-0.6,1.4-0.5,3,0.1,4.4c0.6,1.4,1.7,2.5,3.2,3c1.4,0.6,3,0.5,4.4-0.1c1.4-0.6,2.5-1.7,3-3.2l1.5-3.8c1,1.7,1.3,3.7,0.6,5.5
					l-0.7,1.8C572.6,53.6,571.4,54.9,569.9,55.5z"/>
				<path class="st10" d="M559.1,76.8C559.1,76.8,559.1,76.8,559.1,76.8c-1.4,0.6-3,0.7-4.4,0.1c-1.4-0.6-2.5-1.6-3.2-3
					c-0.6-1.4-0.7-3-0.1-4.4l5.8-15c-2.4-2.5-3.1-6.1-1.9-9.3l0.7-1.9c0.8-2.1,2.4-3.8,4.6-4.8c0,0,0.1,0,0.1,0
					c1.2-0.5,2.4-0.8,3.7-0.8c0.5,0,0.9,0.2,1.2,0.6c0.3,0.4,0.3,0.9,0.2,1.3l-2.2,5.6c-0.3,0.8-0.3,1.6,0.1,2.4
					c0.3,0.8,1,1.4,1.7,1.7c0.8,0.3,1.6,0.3,2.4-0.1c0.8-0.3,1.4-1,1.7-1.7l2.2-5.6c0.2-0.4,0.6-0.8,1-0.9c0.5-0.1,0.9,0,1.3,0.3
					l0,0c2.7,2.5,3.7,6.4,2.4,9.7l-0.7,1.8c-0.8,2.2-2.5,3.9-4.6,4.8c0,0,0,0-0.1,0c-1,0.4-2,0.7-3,0.7l-5.8,15
					C561.6,75.1,560.5,76.2,559.1,76.8z M560.9,39.1c-2,0.9-3.5,2.5-4.3,4.5l-0.7,1.9c-1.2,3.1-0.5,6.5,1.9,8.9l0.1,0.1l-6,15.4
					c-0.5,1.3-0.5,2.7,0.1,4c0.6,1.3,1.6,2.2,2.9,2.7c1.3,0.5,2.7,0.5,4-0.1c0,0,0,0,0,0c1.2-0.6,2.2-1.6,2.7-2.8l6-15.4l0.2,0
					c1,0,2-0.3,3-0.7c2-0.9,3.6-2.5,4.4-4.6l0.7-1.8c1.2-3.1,0.3-6.8-2.2-9.1c-0.2-0.2-0.5-0.3-0.8-0.2c-0.3,0.1-0.5,0.3-0.6,0.5
					l-2.2,5.6c-0.4,0.9-1.1,1.6-2,2c-0.9,0.4-1.9,0.4-2.8,0.1c-0.9-0.4-1.6-1.1-2-2c-0.4-0.9-0.4-1.9-0.1-2.8l2.2-5.6
					c0.1-0.3,0.1-0.6-0.1-0.8c-0.2-0.2-0.4-0.4-0.7-0.4C563.3,38.3,562.1,38.5,560.9,39.1C561,39,561,39,560.9,39.1z M558.2,74.7
					C558.2,74.7,558.2,74.7,558.2,74.7c-0.9,0.4-1.8,0.4-2.6,0.1c-0.9-0.3-1.5-1-1.9-1.8c-0.4-0.8-0.4-1.8-0.1-2.6l6.2-15.8
					c0.2-0.4,0.1-0.9-0.2-1.1c-2.2-1.8-3-4.8-2-7.4l0.7-1.8c0.6-1.5,1.8-2.8,3.4-3.5c0,0,0,0,0.1,0c0.3-0.1,0.6-0.2,0.9-0.3l0.5-0.2
					l-1.7,4.3c-0.5,1.4-0.5,2.8,0.1,4.2c0.6,1.3,1.7,2.4,3,2.9c1.4,0.5,2.8,0.5,4.2-0.1c0,0,0,0,0,0c1.3-0.6,2.3-1.7,2.8-3l1.7-4.3
					l0.3,0.5c1.1,1.8,1.3,3.9,0.6,5.8l-0.7,1.8c-0.6,1.6-1.9,2.9-3.4,3.6l0,0c-1,0.4-2,0.6-3,0.5c-0.4,0-0.8,0.2-0.9,0.7L560,72.8
					C559.6,73.7,559,74.3,558.2,74.7z M561.9,41.2c-1.4,0.7-2.5,1.8-3.1,3.2l-0.7,1.8c-0.9,2.4-0.2,5.2,1.8,6.8
					c0.5,0.4,0.7,1.1,0.4,1.8l-6.2,15.8c-0.3,0.7-0.3,1.5,0,2.2c0.3,0.7,0.9,1.2,1.6,1.5c0.7,0.3,1.5,0.3,2.2,0c0,0,0,0,0,0
					c0.7-0.3,1.2-0.9,1.5-1.6l6.1-15.8c0.2-0.7,0.8-1.1,1.5-1c0.9,0.1,1.9-0.1,2.8-0.5c0,0,0,0,0,0c1.4-0.6,2.5-1.8,3.1-3.3l0.7-1.8
					c0.6-1.5,0.5-3.3-0.3-4.8l-1.3,3.2c-0.6,1.5-1.7,2.6-3.1,3.3c0,0,0,0,0,0c-1.5,0.6-3.1,0.7-4.6,0.1c-1.5-0.6-2.7-1.7-3.3-3.2
					c-0.6-1.5-0.7-3.1-0.1-4.6l1.3-3.2C562.1,41.1,562,41.1,561.9,41.2z"/>
			</g>
			<g>
				<path class="st10" d="M556.5,70.2c-0.3,0.1-0.5,0.3-0.6,0.6c-0.1,0.3-0.1,0.6,0,0.8c0.1,0.3,0.3,0.5,0.6,0.6
					c0.3,0.1,0.6,0.1,0.9,0c0.3-0.1,0.5-0.3,0.6-0.6c0.1-0.3,0.1-0.6,0-0.8c-0.1-0.3-0.3-0.5-0.6-0.6
					C557.1,70.1,556.8,70.1,556.5,70.2z"/>
				<path class="st10" d="M557.5,72.5C557.5,72.5,557.5,72.5,557.5,72.5c-0.4,0.2-0.7,0.2-1.1,0.1c-0.4-0.1-0.6-0.4-0.8-0.7
					c-0.1-0.3-0.1-0.7,0-1.1c0.1-0.3,0.4-0.6,0.8-0.8c0.4-0.2,0.7-0.2,1.1-0.1c0.4,0.1,0.6,0.4,0.8,0.7c0.1,0.3,0.1,0.7,0,1.1
					C558.1,72.1,557.8,72.3,557.5,72.5z M556.6,70.5c-0.2,0.1-0.4,0.3-0.5,0.5c-0.1,0.2-0.1,0.4,0,0.6c0.1,0.2,0.2,0.3,0.5,0.4
					c0.2,0.1,0.5,0.1,0.7,0c0,0,0,0,0,0c0.2-0.1,0.4-0.3,0.5-0.5c0.1-0.2,0.1-0.4,0-0.6c-0.1-0.2-0.2-0.3-0.5-0.4
					C557.1,70.4,556.8,70.4,556.6,70.5L556.6,70.5z"/>
			</g>
		</g>
	</g>
	<g>
		<g>
			<path class="st10" d="M505.8,131.4l-1.9,0.3c-0.4-0.8-1.2-1.2-2-1l-2,0.4l-0.9-5c0-0.2-0.2-0.3-0.3-0.4l-15.9-5.7
				c-0.2-0.1-0.4,0-0.5,0.1l-12.8,10.9c-0.1,0.1-0.2,0.3-0.2,0.5l3,16.6c0,0.2,0.2,0.3,0.4,0.4l15.9,5.7c0.1,0,0.2,0,0.3,0
				c0.1,0,0.2-0.1,0.3-0.1l6.8-5.7l0.6,3.2c0.2,1.3,1.4,2.1,2.7,1.9c0,0,0,0,0,0l10.5-1.9c1.3-0.2,2.1-1.4,1.9-2.7c0,0,0,0,0,0
				l-2.8-15.5C508.2,132,507,131.2,505.8,131.4z M502,131.8c0.4-0.1,0.8,0.2,0.9,0.6l0,0l0,0.1c0.1,0.4-0.2,0.8-0.6,0.9l0,0
				l-3.1,0.6c-0.4,0.1-0.8-0.2-0.9-0.6l0,0l0-0.1c-0.1-0.4,0.2-0.8,0.6-0.9l0,0L502,131.8z M482.6,121.2l6.6,2.4l-11.9,10.1
				l-6.6-2.4L482.6,121.2z M487.9,152.9l-14.7-5.2l-2.8-15.3l14.7,5.2L487.9,152.9z M485.4,136.5l-6.9-2.5l11.9-10.1l6.9,2.5
				L485.4,136.5z M493.4,136.1l2,11.1l-6.5,5.5l-2.8-15.3l11.8-10.1l0.7,4.1l0,0c-0.8,0.2-1.5,0.9-1.5,1.7l-1.9,0.3
				C494,133.6,493.2,134.8,493.4,136.1z M510.3,149c0.1,0.7-0.3,1.3-1,1.4c0,0,0,0,0,0l-10.5,1.9c-0.7,0.1-1.3-0.3-1.4-1
				c0,0,0,0,0,0l-2.8-15.5c-0.1-0.7,0.3-1.3,1-1.5l0,0l1.9-0.4c0.4,0.7,1.2,1.1,2,1l3.1-0.6c0.8-0.1,1.4-0.8,1.5-1.6l1.9-0.4
				c0.7-0.1,1.3,0.3,1.5,1L510.3,149z"/>
			<path class="st10" d="M509.6,152C509.6,152,509.5,152,509.6,152L499,154c-0.8,0.1-1.5,0-2.2-0.5c-0.6-0.4-1-1.1-1.2-1.8l-0.4-2.2
				l-6,5.1c-0.3,0.3-0.7,0.3-1.1,0.2l-15.9-5.7c-0.4-0.1-0.6-0.5-0.7-0.8l-3-16.6c-0.1-0.4,0.1-0.8,0.4-1l12.8-10.9
				c0.3-0.3,0.7-0.3,1.1-0.2l15.9,5.7c0.4,0.1,0.6,0.5,0.7,0.9l0.8,4.4l1.5-0.3c0.9-0.2,1.9,0.2,2.4,1l1.5-0.3
				c1.6-0.3,3.1,0.8,3.4,2.3l2.9,15.5C512.1,150.3,511.1,151.7,509.6,152z M495.6,135c-0.2,0-0.3,0.1-0.4,0.3
				c-0.1,0.2-0.1,0.3-0.1,0.5l2.8,15.5c0.1,0.4,0.4,0.6,0.8,0.5l10.5-1.9l0,0c0.4-0.1,0.6-0.4,0.6-0.8l-2.8-15.5
				c-0.1-0.4-0.4-0.6-0.8-0.6l-1.6,0.3c-0.3,0.9-1,1.5-1.9,1.7c0,0,0,0,0,0l-3.1,0.6c-0.8,0.2-1.8-0.2-2.4-0.9L495.6,135z
				 M473.6,147.3l13.5,4.8l-2.6-14.1l-13.5-4.8L473.6,147.3z M486.7,137.6l2.6,14.1l5.5-4.7l-2-10.8c-0.3-1.6,0.7-3.1,2.3-3.4
				l1.5-0.3c0.2-0.7,0.7-1.3,1.4-1.6l-0.5-2.6L486.7,137.6z M499,132.9c-0.1,0-0.2,0.1-0.2,0.3c0,0.2,0.2,0.3,0.3,0.2l3.1-0.6
				c0.1,0,0.2-0.1,0.2-0.3c0-0.2-0.2-0.3-0.3-0.2L499,132.9z M497.7,133.5L497.7,133.5l0.1,0.2C497.8,133.6,497.7,133.5,497.7,133.5
				c0-0.1,0-0.2,0-0.2L497.7,133.5z M479.6,133.9l5.7,2l10.9-9.3l-5.7-2L479.6,133.9z M503.5,132.3
				C503.5,132.3,503.5,132.3,503.5,132.3c0,0.1,0,0.2,0,0.2l0-0.1L503.5,132.3z M498.8,131.8l0.5-0.1l-0.1-0.5l-0.5,0.1L498.8,131.8
				z M471.8,131.1l5.4,1.9l10.9-9.3l-5.4-1.9L471.8,131.1z"/>
		</g>
		<g>
			<path class="st10" d="M499.8,137.5l-1.3,1.9l-0.6-0.4c-0.2-0.2-0.6-0.1-0.8,0.1c-0.2,0.2-0.1,0.6,0.1,0.8l1,0.7
				c0.2,0.2,0.6,0.1,0.8-0.1l0,0l1.6-2.3c0.2-0.2,0.1-0.6-0.1-0.8C500.3,137.2,500,137.2,499.8,137.5L499.8,137.5z"/>
			<path class="st10" d="M498.9,141.2c-0.3,0.1-0.6,0-0.8-0.2l-1-0.7c-0.2-0.2-0.4-0.4-0.5-0.7c-0.1-0.3,0-0.6,0.2-0.8
				c0.3-0.5,1-0.6,1.5-0.3l0.1,0.1l1-1.4c0.3-0.5,1-0.6,1.5-0.3c0.2,0.2,0.4,0.4,0.5,0.7c0.1,0.3,0,0.6-0.2,0.8l-1.6,2.3
				C499.4,141,499.1,141.1,498.9,141.2z"/>
		</g>
		<g>
			<path class="st10" d="M501.4,147.4l-1.3,1.9l-0.6-0.4c-0.2-0.2-0.6-0.1-0.8,0.1c-0.2,0.2-0.1,0.6,0.1,0.8l1,0.7
				c0.2,0.2,0.6,0.1,0.8-0.1l0,0l1.6-2.3c0.2-0.2,0.1-0.6-0.1-0.8C501.9,147.1,501.6,147.2,501.4,147.4L501.4,147.4z"/>
			<path class="st10" d="M500.4,151.1c-0.3,0.1-0.6,0-0.8-0.2l-1-0.7c-0.2-0.2-0.4-0.4-0.5-0.7c-0.1-0.3,0-0.6,0.2-0.8
				c0.2-0.2,0.4-0.4,0.7-0.5l0,0c0.3-0.1,0.6,0,0.8,0.2l0.1,0.1l1-1.4c0.3-0.5,1-0.6,1.5-0.3c0.5,0.3,0.6,1,0.3,1.5l-1.6,2.3
				C501,150.9,500.7,151.1,500.4,151.1z M501.4,147.4l0.4,0.3l0,0L501.4,147.4z"/>
		</g>
		<g>
			<path class="st10" d="M506.1,137l-3.4,0.6c-0.3,0.1-0.5,0.3-0.4,0.6c0.1,0.3,0.3,0.5,0.6,0.4l3.4-0.6c0.3-0.1,0.5-0.3,0.4-0.6
				C506.7,137.1,506.4,136.9,506.1,137z"/>
			<path class="st10" d="M506.4,138.6l-3.4,0.6c-0.6,0.1-1.2-0.3-1.3-0.9c-0.1-0.6,0.3-1.2,0.9-1.3l3.4-0.6c0.6-0.1,1.2,0.3,1.3,0.9
				C507.4,137.9,507,138.5,506.4,138.6z"/>
		</g>
		<g>
			<path class="st10" d="M507,141.9l-3.4,0.6c-0.3,0.1-0.5,0.3-0.4,0.6s0.3,0.5,0.6,0.4l3.4-0.6c0.3-0.1,0.5-0.3,0.4-0.6
				C507.6,142,507.3,141.8,507,141.9z"/>
			<path class="st10" d="M507.3,143.5l-3.4,0.6c-0.6,0.1-1.2-0.3-1.3-0.9c-0.1-0.6,0.3-1.2,0.9-1.3l3.4-0.6c0.6-0.1,1.2,0.3,1.3,0.9
				C508.3,142.8,507.9,143.4,507.3,143.5z"/>
		</g>
		<g>
			<path class="st10" d="M507.9,146.8l-3.4,0.6c-0.3,0.1-0.5,0.3-0.4,0.6s0.3,0.5,0.6,0.4l3.4-0.6c0.3-0.1,0.5-0.3,0.4-0.6
				C508.5,146.9,508.2,146.7,507.9,146.8z"/>
			<path class="st10" d="M508.2,148.4l-3.4,0.6c-0.6,0.1-1.2-0.3-1.3-0.9c-0.1-0.6,0.3-1.2,0.9-1.3l3.4-0.6c0.6-0.1,1.2,0.3,1.3,0.9
				C509.2,147.7,508.8,148.3,508.2,148.4z"/>
		</g>
	</g>
	<g>
		<g>
			<g>
				<g>
					<path class="st10" d="M754.9,118.3l-12.7-4.4c-0.2-0.1-0.5-0.1-0.7,0l-9.7,4.7c-1.9,0.9-2.7,3.2-1.8,5.1l12.6,25.9
						c0.9,1.9,3.2,2.7,5.1,1.8l15.7-7.7c1.9-0.9,2.7-3.2,1.8-5.1l-9.7-19.9C755.3,118.6,755.1,118.4,754.9,118.3z M743.7,116.5
						l8.4,2.9l-3.9,1.9c-0.9,0.5-2.1,0.1-2.5-0.9L743.7,116.5z M763.4,139.6c0.5,0.9,0.1,2.1-0.9,2.5l-15.7,7.7
						c-0.9,0.5-2.1,0.1-2.5-0.9L731.7,123c-0.5-0.9-0.1-2.1,0.9-2.5l8.9-4.3l2.5,5.1c0.9,1.9,3.2,2.7,5.1,1.8l5.1-2.5L763.4,139.6z"
						/>
					<path class="st10" d="M763.6,144.2l-15.7,7.7c-2.1,1-4.6,0.1-5.6-1.9L729.6,124c-1-2.1-0.1-4.6,1.9-5.6l9.7-4.7
						c0.3-0.2,0.7-0.2,1-0.1l12.7,4.4c0.3,0.1,0.6,0.4,0.8,0.7l9.7,19.9C766.5,140.6,765.6,143.2,763.6,144.2z M731.9,119.1
						c-1.7,0.8-2.4,2.8-1.6,4.5l12.6,25.9c0.8,1.7,2.8,2.4,4.5,1.6l15.7-7.7c1.7-0.8,2.4-2.8,1.6-4.5l-9.7-19.9
						c-0.1-0.1-0.2-0.2-0.3-0.3l0,0l-12.7-4.4c-0.1,0-0.3,0-0.4,0L731.9,119.1z M762.7,142.5l-15.7,7.7c-1.1,0.6-2.5,0.1-3.1-1.1
						l-12.6-25.9c-0.6-1.1-0.1-2.5,1.1-3.1l9.3-4.5l2.7,5.5c0.8,1.7,2.8,2.4,4.5,1.6l5.5-2.7l9.5,19.4
						C764.3,140.5,763.9,141.9,762.7,142.5z M732.7,120.8c-0.7,0.4-1,1.2-0.7,2l12.6,25.9c0.4,0.7,1.2,1,2,0.7l15.7-7.7
						c0.7-0.4,1-1.2,0.7-2l-9.1-18.7l-4.7,2.3c-2.1,1-4.6,0.1-5.6-1.9l-2.3-4.7L732.7,120.8z M753.2,119.3l-4.8,2.3
						c-1.1,0.6-2.5,0.1-3.1-1.1l-2.3-4.8L753.2,119.3z M744.5,117.2l1.5,3c0.4,0.7,1.2,1,2,0.7l3-1.5L744.5,117.2z"/>
				</g>
				<g>
					<path class="st10" d="M756.5,136.2l-10.6,5.2c-0.5,0.2-0.7,0.8-0.4,1.3c0.2,0.5,0.8,0.7,1.3,0.4l10.6-5.2
						c0.5-0.2,0.7-0.8,0.4-1.3C757.6,136.2,757,136,756.5,136.2z"/>
					<path class="st10" d="M757.5,138.3l-10.6,5.2c-0.7,0.3-1.5,0-1.8-0.6c-0.3-0.7,0-1.5,0.6-1.8l10.6-5.2c0.7-0.3,1.5,0,1.8,0.6
						C758.5,137.2,758.2,138,757.5,138.3z M746.1,141.8c-0.3,0.1-0.4,0.4-0.2,0.7c0.1,0.3,0.4,0.4,0.7,0.2l10.6-5.2
						c0.3-0.1,0.4-0.4,0.2-0.7s-0.4-0.4-0.7-0.2L746.1,141.8z"/>
				</g>
				<g>
					<path class="st10" d="M754,131.1l-10.6,5.2c-0.5,0.2-0.7,0.8-0.4,1.3c0.2,0.5,0.8,0.7,1.3,0.4l10.6-5.2
						c0.5-0.2,0.7-0.8,0.4-1.3C755.1,131.1,754.5,130.9,754,131.1z"/>
					<path class="st10" d="M755,133.2l-10.6,5.2c-0.7,0.3-1.5,0-1.8-0.6c-0.3-0.7,0-1.5,0.6-1.8l10.6-5.2c0.7-0.3,1.5,0,1.8,0.6
						C756,132.1,755.7,132.9,755,133.2z M743.6,136.7c-0.3,0.1-0.4,0.4-0.2,0.7c0.1,0.3,0.4,0.4,0.7,0.2l10.6-5.2
						c0.3-0.1,0.4-0.4,0.2-0.7s-0.4-0.4-0.7-0.2L743.6,136.7z"/>
				</g>
				<g>
					<path class="st10" d="M749,128.3c0.2,0.5,0.8,0.7,1.3,0.4l2.1-1c0.5-0.2,0.7-0.8,0.4-1.3c-0.2-0.5-0.8-0.7-1.3-0.4l-2.1,1
						C749,127.2,748.8,127.8,749,128.3z"/>
					<path class="st10" d="M752.5,128.1l-2.1,1c-0.7,0.3-1.5,0-1.8-0.6c-0.3-0.7,0-1.5,0.6-1.8l2.1-1c0.7-0.3,1.5,0,1.8,0.6
						S753.2,127.8,752.5,128.1z M749.7,127.4c-0.3,0.1-0.4,0.5-0.2,0.7c0.1,0.3,0.4,0.4,0.7,0.2l2.1-1c0.3-0.1,0.4-0.4,0.2-0.7
						c-0.1-0.3-0.4-0.4-0.7-0.2L749.7,127.4z"/>
				</g>
				<g>
					<path class="st10" d="M742.6,130.3l-1.7,0.8c-0.5,0.2-0.7,0.8-0.4,1.3c0.2,0.5,0.8,0.7,1.3,0.4l0.9-0.4
						c0.2,0.5,0.8,0.7,1.3,0.4s0.7-0.8,0.4-1.3l-0.1-0.2c0.8-0.8,1.1-2.1,0.5-3.2c-0.7-1.4-2.4-2-3.8-1.3c-0.5,0.2-1,0-1.3-0.4
						c-0.2-0.5,0-1,0.4-1.3l1.7-0.8c0.5-0.2,0.7-0.8,0.4-1.3c-0.2-0.5-0.8-0.7-1.3-0.4l-0.9,0.4c-0.2-0.5-0.8-0.7-1.3-0.4
						c-0.5,0.2-0.7,0.8-0.4,1.3l0.1,0.2c-0.8,0.8-1.1,2.1-0.5,3.2c0.7,1.4,2.4,2,3.8,1.3c0.5-0.2,1,0,1.3,0.4
						S743.1,130.1,742.6,130.3z"/>
					<path class="st10" d="M744.1,133.3c-0.5,0.3-1.2,0.1-1.6-0.3l-0.5,0.3c-0.7,0.3-1.5,0-1.8-0.6c-0.3-0.7,0-1.5,0.6-1.8l1.7-0.8
						c0.3-0.1,0.4-0.4,0.2-0.7c-0.1-0.3-0.4-0.4-0.7-0.2c-1.6,0.8-3.6,0.1-4.4-1.5c-0.6-1.1-0.4-2.5,0.4-3.5c-0.3-0.7,0-1.4,0.7-1.7
						c0.5-0.3,1.2-0.1,1.6,0.3l0.5-0.3c0.7-0.3,1.5,0,1.8,0.6c0.3,0.7,0,1.5-0.6,1.8l-1.7,0.8c-0.3,0.1-0.4,0.4-0.2,0.7
						c0.1,0.3,0.4,0.4,0.7,0.2c1.6-0.8,3.6-0.1,4.4,1.5c0.6,1.1,0.4,2.5-0.4,3.5C745,132.2,744.7,132.9,744.1,133.3z M741.1,131.5
						c-0.3,0.1-0.4,0.4-0.2,0.7c0.1,0.3,0.4,0.4,0.7,0.2l1.2-0.6l0.2,0.4c0.1,0.3,0.4,0.4,0.7,0.2c0.3-0.1,0.4-0.4,0.2-0.7l-0.2-0.4
						l0.2-0.2c0.7-0.7,0.9-1.8,0.5-2.8c-0.6-1.2-2-1.7-3.3-1.1c-0.7,0.3-1.5,0-1.8-0.6c-0.3-0.7,0-1.5,0.6-1.8l1.7-0.8
						c0.3-0.1,0.4-0.4,0.2-0.7c-0.1-0.3-0.4-0.4-0.7-0.2l-1.2,0.6l-0.2-0.4c-0.1-0.3-0.4-0.4-0.7-0.2c-0.3,0.1-0.4,0.4-0.2,0.7
						l0.2,0.4l-0.2,0.2c-0.7,0.7-0.9,1.8-0.5,2.8c0.6,1.2,2,1.7,3.3,1.1c0.7-0.3,1.5,0,1.8,0.6c0.3,0.7,0,1.5-0.6,1.8L741.1,131.5z"
						/>
				</g>
			</g>
		</g>
	</g>
	<g>
		<g>
			<path class="st10" d="M673.7,49.4c-0.6-0.1-1.3-0.1-1.9-0.2l-0.5,3.8c3.3,1,4.2,2,4.2,4.6c0,3.4-2.3,5-5.4,5h0l-0.3,2
				c-0.1,0.5-0.5,0.8-0.9,0.8c0,0,0,0,0,0c-0.5,0-0.9-0.5-0.8-1l0.2-1.9c-0.8-0.1-1.6-0.2-2.2-0.3c-0.7-0.1-1.1-0.8-1-1.4l0,0
				c0.1-0.7,0.7-1.2,1.4-1.1c0.6,0.1,1.5,0.2,2.2,0.2l0.5-4.1c-3.3-1-4.5-2.2-4.5-4.6c0-3.3,2.2-4.7,5.3-4.7h0.3l0.3-2.5
				c0.1-0.4,0.4-0.8,0.9-0.8h0c0.5,0,0.9,0.5,0.9,1l-0.3,2.4c0.7,0.1,1.4,0.2,1.9,0.3c0.7,0.1,1.1,0.7,1.1,1.4l0,0
				C675.1,49,674.4,49.5,673.7,49.4z M669.6,52.5l0.4-3.3c-1.4,0.1-2.1,0.7-2.1,1.6C667.9,51.6,668.3,52,669.6,52.5z M670.9,56.2
				l-0.5,3.6c1.3-0.1,1.9-0.9,1.9-2C672.4,57.1,672.1,56.6,670.9,56.2z"/>
		</g>
		<path class="st10" d="M670.2,70.8c-9.1,0-16.5-7.4-16.5-16.5c0-9.1,7.4-16.5,16.5-16.5c9.1,0,16.5,7.4,16.5,16.5
			C686.7,63.4,679.3,70.8,670.2,70.8z M670.2,41.1c-7.3,0-13.2,5.9-13.2,13.2s5.9,13.2,13.2,13.2s13.2-5.9,13.2-13.2
			S677.4,41.1,670.2,41.1z"/>
	</g>
	<g>
		<path class="st10" d="M745.8,234.7l16.8,7.5l3.4-7.6l-16.8-7.5L745.8,234.7z M750.1,229.3l13.7,6.2l-2.1,4.6l-13.7-6.2
			L750.1,229.3z"/>
		<path class="st10" d="M749.8,258.5l4.6,2.1l2.1-4.6l-4.6-2.1L749.8,258.5z"/>
		<path class="st10" d="M743.7,255.7l4.6,2.1l2.1-4.6l-4.6-2.1L743.7,255.7z"/>
		<path class="st10" d="M737.6,253l4.6,2.1l2.1-4.6l-4.6-2.1L737.6,253z"/>
		<path class="st10" d="M752.5,252.4l4.6,2.1l2.1-4.6l-4.6-2.1L752.5,252.4z"/>
		<path class="st10" d="M746.4,249.7l4.6,2.1l2.1-4.6l-4.6-2.1L746.4,249.7z"/>
		<path class="st10" d="M740.3,246.9l4.6,2.1l2.1-4.6l-4.6-2.1L740.3,246.9z"/>
		<path class="st10" d="M755.2,246.3l4.6,2.1l2.1-4.6l-4.6-2.1L755.2,246.3z"/>
		<path class="st10" d="M749.2,243.6l4.6,2.1l2.1-4.6l-4.6-2.1L749.2,243.6z"/>
		<path class="st10" d="M743.1,240.8l4.6,2.1l2.1-4.6l-4.6-2.1L743.1,240.8z"/>
		<path class="st10" d="M768.1,231.9l-0.8-0.3l-1.5-0.7l-0.8-0.3l-15-6.7c0.3-4.2-2-8.2-5.9-10c-5-2.3-11,0-13.2,5
			c-2.3,5,0,11,5,13.2c2.3,1,4.8,1.1,7.1,0.4l-4.5,10L738,244l-3.8,8.4c-0.6,1.3,0,2.7,1.3,3.3l18.3,8.2c1.3,0.6,2.7,0,3.3-1.3
			l12.3-27.4C769.9,234,769.4,232.5,768.1,231.9z M735.9,230.2c-3.7-2.1-5.2-6.7-3.4-10.7c1.8-3.9,6.2-5.8,10.3-4.5L735.9,230.2z
			 M744.1,230.3c-2.1,1.1-4.5,1.4-6.7,0.6l3.1-6.8l5.3,2.4L744.1,230.3z M755.5,262c-0.2,0.4-0.7,0.6-1.1,0.4l-18.3-8.2
			c-0.4-0.2-0.6-0.7-0.4-1.1l12.3-27.4c0.2-0.4,0.7-0.6,1.1-0.4l18.3,8.2c0.4,0.2,0.6,0.7,0.4,1.1L755.5,262z"/>
	</g>
</g>
</svg>
