<?xml version="1.0" encoding="utf-8"?>
<!-- Generator: Adobe Illustrator 21.0.2, SVG Export Plug-In . SVG Version: 6.00 Build 0)  -->
<svg version="1.1" xmlns="http://www.w3.org/2000/svg" xmlns:xlink="http://www.w3.org/1999/xlink" x="0px" y="0px"
	 viewBox="0 0 219.4 148.5" style="enable-background:new 0 0 219.4 148.5;" xml:space="preserve">
<style type="text/css">
	.st0{fill:url(#SVGID_1_);}
	.st1{fill:url(#SVGID_2_);}
	.st2{fill:url(#SVGID_3_);}
	.st3{fill:url(#SVGID_4_);}
	.st4{fill:url(#SVGID_5_);}
	.st5{fill:url(#SVGID_6_);}
	.st6{fill:url(#SVGID_7_);}
	.st7{fill:url(#SVGID_8_);}
	.st8{fill:url(#SVGID_9_);}
	.st9{fill:url(#SVGID_10_);}
	.st10{fill:url(#SVGID_11_);}
	.st11{fill:url(#SVGID_12_);}
	.st12{fill:url(#SVGID_13_);}
	.st13{fill:url(#SVGID_14_);}
	.st14{fill:url(#SVGID_15_);}
	.st15{fill:url(#SVGID_16_);}
	.st16{fill:url(#SVGID_17_);}
	.st17{fill:url(#SVGID_18_);}
	.st18{fill:url(#SVGID_19_);}
	.st19{fill:url(#SVGID_20_);}
	.st20{fill:url(#SVGID_21_);}
	.st21{fill:url(#SVGID_22_);}
	.st22{fill:url(#SVGID_23_);}
	.st23{fill:url(#SVGID_24_);}
	.st24{fill:#FFFFFF;}
	.st25{fill:url(#SVGID_25_);}
	.st26{fill:url(#SVGID_26_);}
	.st27{fill:url(#SVGID_27_);}
	.st28{fill:#470930;}
	.st29{opacity:0.64;}
	.st30{opacity:0.54;fill:#606161;}
	.st31{opacity:0.81;fill:#606161;}
	.st32{opacity:0.23;fill:#606161;}
	.st33{opacity:0.1;fill:#606161;}
	.st34{opacity:0.37;fill:#606161;}
	.st35{fill:#875A7B;}
	.st36{fill:#8E2775;}
	.st37{fill:#606161;}
	.st38{clip-path:url(#SVGID_28_);}
	.st39{fill:#D0D3D2;}
	.st40{clip-path:url(#SVGID_29_);}
	.st41{clip-path:url(#SVGID_30_);}
	.st42{clip-path:url(#SVGID_32_);}
	.st43{fill:url(#SVGID_34_);}
	.st44{fill:url(#SVGID_36_);}
	.st45{fill-rule:evenodd;clip-rule:evenodd;fill:#FFF8FF;}
	.st46{fill:#011E50;}
	.st47{fill:url(#SVGID_38_);}
	.st48{fill:none;stroke:#011E50;stroke-width:3;stroke-miterlimit:10;}
	.st49{clip-path:url(#SVGID_39_);}
	.st50{fill:#FFF8FF;}
	.st51{fill-rule:evenodd;clip-rule:evenodd;fill:url(#SVGID_40_);}
	.st52{fill-rule:evenodd;clip-rule:evenodd;fill:url(#SVGID_41_);}
	.st53{fill-rule:evenodd;clip-rule:evenodd;fill:url(#SVGID_43_);}
	.st54{fill-rule:evenodd;clip-rule:evenodd;fill:url(#SVGID_44_);}
	.st55{fill-rule:evenodd;clip-rule:evenodd;fill:url(#SVGID_45_);}
	.st56{fill-rule:evenodd;clip-rule:evenodd;fill:url(#SVGID_46_);}
	.st57{fill-rule:evenodd;clip-rule:evenodd;fill:url(#SVGID_47_);}
	.st58{fill-rule:evenodd;clip-rule:evenodd;fill:url(#SVGID_48_);}
	.st59{fill-rule:evenodd;clip-rule:evenodd;fill:url(#SVGID_49_);}
	.st60{fill-rule:evenodd;clip-rule:evenodd;fill:url(#SVGID_50_);}
	.st61{fill-rule:evenodd;clip-rule:evenodd;fill:url(#SVGID_51_);}
	.st62{fill-rule:evenodd;clip-rule:evenodd;fill:url(#SVGID_52_);}
	.st63{fill-rule:evenodd;clip-rule:evenodd;fill:url(#SVGID_53_);}
	.st64{fill-rule:evenodd;clip-rule:evenodd;fill:url(#SVGID_54_);}
	.st65{fill-rule:evenodd;clip-rule:evenodd;fill:url(#SVGID_55_);}
	.st66{fill-rule:evenodd;clip-rule:evenodd;fill:url(#SVGID_56_);}
	.st67{fill-rule:evenodd;clip-rule:evenodd;fill:url(#SVGID_57_);}
	.st68{fill-rule:evenodd;clip-rule:evenodd;fill:url(#SVGID_58_);}
	.st69{fill-rule:evenodd;clip-rule:evenodd;fill:url(#SVGID_59_);}
	.st70{fill-rule:evenodd;clip-rule:evenodd;fill:url(#SVGID_60_);}
	.st71{fill-rule:evenodd;clip-rule:evenodd;fill:url(#SVGID_61_);}
	.st72{fill-rule:evenodd;clip-rule:evenodd;fill:url(#SVGID_62_);}
	.st73{fill-rule:evenodd;clip-rule:evenodd;fill:url(#SVGID_63_);}
	.st74{fill-rule:evenodd;clip-rule:evenodd;fill:url(#SVGID_64_);}
	.st75{fill-rule:evenodd;clip-rule:evenodd;fill:url(#SVGID_65_);}
	.st76{fill-rule:evenodd;clip-rule:evenodd;fill:url(#SVGID_66_);}
	.st77{fill-rule:evenodd;clip-rule:evenodd;fill:url(#SVGID_67_);}
	.st78{fill-rule:evenodd;clip-rule:evenodd;fill:url(#SVGID_68_);}
	.st79{fill-rule:evenodd;clip-rule:evenodd;fill:url(#SVGID_69_);}
	.st80{fill-rule:evenodd;clip-rule:evenodd;fill:url(#SVGID_70_);}
	.st81{fill-rule:evenodd;clip-rule:evenodd;fill:url(#SVGID_71_);}
	.st82{fill-rule:evenodd;clip-rule:evenodd;fill:url(#SVGID_72_);}
	.st83{fill-rule:evenodd;clip-rule:evenodd;fill:url(#SVGID_73_);}
	.st84{fill-rule:evenodd;clip-rule:evenodd;fill:url(#SVGID_74_);}
	.st85{fill-rule:evenodd;clip-rule:evenodd;fill:url(#SVGID_75_);}
	.st86{fill-rule:evenodd;clip-rule:evenodd;fill:url(#SVGID_76_);}
	.st87{fill-rule:evenodd;clip-rule:evenodd;fill:url(#SVGID_77_);}
	.st88{fill-rule:evenodd;clip-rule:evenodd;fill:url(#SVGID_78_);}
	.st89{fill-rule:evenodd;clip-rule:evenodd;fill:url(#SVGID_79_);}
	.st90{fill-rule:evenodd;clip-rule:evenodd;fill:url(#SVGID_80_);}
	.st91{fill-rule:evenodd;clip-rule:evenodd;fill:url(#SVGID_81_);}
	.st92{fill-rule:evenodd;clip-rule:evenodd;fill:url(#SVGID_82_);}
	.st93{fill-rule:evenodd;clip-rule:evenodd;fill:url(#SVGID_83_);}
	.st94{fill-rule:evenodd;clip-rule:evenodd;fill:url(#SVGID_84_);}
	.st95{fill-rule:evenodd;clip-rule:evenodd;fill:url(#SVGID_85_);}
	.st96{fill-rule:evenodd;clip-rule:evenodd;fill:url(#SVGID_86_);}
	.st97{fill-rule:evenodd;clip-rule:evenodd;fill:url(#SVGID_87_);}
	.st98{fill-rule:evenodd;clip-rule:evenodd;fill:url(#SVGID_88_);}
	.st99{fill-rule:evenodd;clip-rule:evenodd;fill:url(#SVGID_89_);}
	.st100{fill-rule:evenodd;clip-rule:evenodd;fill:url(#SVGID_90_);}
	.st101{fill-rule:evenodd;clip-rule:evenodd;fill:url(#SVGID_91_);}
	.st102{fill-rule:evenodd;clip-rule:evenodd;fill:url(#SVGID_92_);}
	.st103{fill-rule:evenodd;clip-rule:evenodd;fill:url(#SVGID_93_);}
	.st104{fill-rule:evenodd;clip-rule:evenodd;fill:url(#SVGID_94_);}
	.st105{fill-rule:evenodd;clip-rule:evenodd;fill:url(#SVGID_95_);}
	.st106{fill-rule:evenodd;clip-rule:evenodd;fill:url(#SVGID_96_);}
	.st107{fill-rule:evenodd;clip-rule:evenodd;fill:url(#SVGID_97_);}
	.st108{fill-rule:evenodd;clip-rule:evenodd;fill:url(#SVGID_98_);}
	.st109{fill-rule:evenodd;clip-rule:evenodd;fill:url(#SVGID_99_);}
	.st110{fill-rule:evenodd;clip-rule:evenodd;fill:url(#SVGID_100_);}
	.st111{fill-rule:evenodd;clip-rule:evenodd;fill:url(#SVGID_101_);}
	.st112{fill-rule:evenodd;clip-rule:evenodd;fill:url(#SVGID_102_);}
	.st113{fill-rule:evenodd;clip-rule:evenodd;fill:url(#SVGID_103_);}
	.st114{fill-rule:evenodd;clip-rule:evenodd;fill:url(#SVGID_104_);}
	.st115{fill-rule:evenodd;clip-rule:evenodd;fill:url(#SVGID_105_);}
	.st116{fill-rule:evenodd;clip-rule:evenodd;fill:url(#SVGID_106_);}
	.st117{fill-rule:evenodd;clip-rule:evenodd;fill:url(#SVGID_107_);}
	.st118{fill-rule:evenodd;clip-rule:evenodd;fill:url(#SVGID_108_);}
	.st119{fill-rule:evenodd;clip-rule:evenodd;fill:url(#SVGID_109_);}
	.st120{fill-rule:evenodd;clip-rule:evenodd;fill:url(#SVGID_110_);}
	.st121{fill-rule:evenodd;clip-rule:evenodd;fill:url(#SVGID_111_);}
	.st122{fill-rule:evenodd;clip-rule:evenodd;fill:url(#SVGID_112_);}
	.st123{fill-rule:evenodd;clip-rule:evenodd;fill:url(#SVGID_113_);}
	.st124{fill-rule:evenodd;clip-rule:evenodd;fill:url(#SVGID_114_);}
	.st125{fill-rule:evenodd;clip-rule:evenodd;fill:url(#SVGID_115_);}
	.st126{fill-rule:evenodd;clip-rule:evenodd;fill:url(#SVGID_116_);}
	.st127{fill-rule:evenodd;clip-rule:evenodd;fill:url(#SVGID_117_);}
	.st128{fill-rule:evenodd;clip-rule:evenodd;fill:url(#SVGID_118_);}
	.st129{fill-rule:evenodd;clip-rule:evenodd;fill:url(#SVGID_119_);}
	.st130{fill-rule:evenodd;clip-rule:evenodd;fill:url(#SVGID_120_);}
	.st131{fill-rule:evenodd;clip-rule:evenodd;fill:url(#SVGID_121_);}
	.st132{fill-rule:evenodd;clip-rule:evenodd;fill:url(#SVGID_122_);}
	.st133{fill-rule:evenodd;clip-rule:evenodd;fill:url(#SVGID_123_);}
	.st134{fill-rule:evenodd;clip-rule:evenodd;fill:url(#SVGID_124_);}
	.st135{fill-rule:evenodd;clip-rule:evenodd;fill:url(#SVGID_125_);}
	.st136{fill-rule:evenodd;clip-rule:evenodd;fill:url(#SVGID_126_);}
	.st137{fill-rule:evenodd;clip-rule:evenodd;fill:url(#SVGID_127_);}
	.st138{fill-rule:evenodd;clip-rule:evenodd;fill:url(#SVGID_128_);}
	.st139{fill-rule:evenodd;clip-rule:evenodd;fill:url(#SVGID_129_);}
	.st140{fill-rule:evenodd;clip-rule:evenodd;fill:url(#SVGID_130_);}
	.st141{fill-rule:evenodd;clip-rule:evenodd;fill:url(#SVGID_131_);}
	.st142{fill-rule:evenodd;clip-rule:evenodd;fill:url(#SVGID_132_);}
	.st143{fill-rule:evenodd;clip-rule:evenodd;fill:url(#SVGID_133_);}
	.st144{fill-rule:evenodd;clip-rule:evenodd;fill:url(#SVGID_134_);}
	.st145{fill-rule:evenodd;clip-rule:evenodd;fill:url(#SVGID_135_);}
	.st146{fill-rule:evenodd;clip-rule:evenodd;fill:url(#SVGID_136_);}
	.st147{fill-rule:evenodd;clip-rule:evenodd;fill:url(#SVGID_137_);}
	.st148{fill-rule:evenodd;clip-rule:evenodd;fill:url(#SVGID_138_);}
	.st149{fill-rule:evenodd;clip-rule:evenodd;fill:url(#SVGID_139_);}
	.st150{fill-rule:evenodd;clip-rule:evenodd;fill:url(#SVGID_140_);}
	.st151{fill-rule:evenodd;clip-rule:evenodd;fill:url(#SVGID_141_);}
	.st152{fill-rule:evenodd;clip-rule:evenodd;fill:url(#SVGID_142_);}
	.st153{fill-rule:evenodd;clip-rule:evenodd;fill:url(#SVGID_143_);}
	.st154{fill-rule:evenodd;clip-rule:evenodd;fill:url(#SVGID_144_);}
	.st155{fill-rule:evenodd;clip-rule:evenodd;fill:url(#SVGID_145_);}
	.st156{fill-rule:evenodd;clip-rule:evenodd;fill:url(#SVGID_146_);}
	.st157{fill-rule:evenodd;clip-rule:evenodd;fill:url(#SVGID_147_);}
	.st158{fill-rule:evenodd;clip-rule:evenodd;fill:url(#SVGID_148_);}
	.st159{fill-rule:evenodd;clip-rule:evenodd;fill:url(#SVGID_149_);}
	.st160{fill-rule:evenodd;clip-rule:evenodd;fill:url(#SVGID_150_);}
	.st161{fill-rule:evenodd;clip-rule:evenodd;fill:url(#SVGID_151_);}
	.st162{fill-rule:evenodd;clip-rule:evenodd;fill:url(#SVGID_152_);}
	.st163{fill-rule:evenodd;clip-rule:evenodd;fill:url(#SVGID_153_);}
	.st164{fill-rule:evenodd;clip-rule:evenodd;fill:url(#SVGID_154_);}
	.st165{fill-rule:evenodd;clip-rule:evenodd;fill:url(#SVGID_155_);}
	.st166{fill-rule:evenodd;clip-rule:evenodd;fill:url(#SVGID_156_);}
	.st167{fill-rule:evenodd;clip-rule:evenodd;fill:url(#SVGID_157_);}
	.st168{fill-rule:evenodd;clip-rule:evenodd;fill:url(#SVGID_158_);}
	.st169{fill-rule:evenodd;clip-rule:evenodd;fill:url(#SVGID_159_);}
	.st170{fill-rule:evenodd;clip-rule:evenodd;fill:url(#SVGID_160_);}
	.st171{fill:url(#SVGID_161_);}
	.st172{opacity:0.39;}
	.st173{fill:url(#SVGID_162_);}
	.st174{fill:none;stroke:#FFF8FF;stroke-width:3.6156;stroke-linecap:round;stroke-miterlimit:10;stroke-dasharray:7.2726,7.2726;}
	.st175{fill:url(#SVGID_163_);}
	.st176{fill:url(#SVGID_164_);}
	.st177{fill:url(#SVGID_165_);}
	.st178{fill:url(#SVGID_166_);}
	.st179{fill:url(#SVGID_167_);}
	.st180{fill:url(#SVGID_168_);}
	.st181{fill:url(#SVGID_169_);}
	.st182{fill:url(#SVGID_170_);}
	.st183{fill:url(#SVGID_171_);}
	.st184{fill:url(#SVGID_172_);}
	.st185{fill:url(#SVGID_173_);}
	.st186{fill:url(#SVGID_174_);}
	.st187{fill:url(#SVGID_175_);}
	.st188{fill:url(#SVGID_176_);}
	.st189{fill:url(#SVGID_177_);}
	.st190{fill:url(#SVGID_178_);}
	.st191{fill:url(#SVGID_179_);}
	.st192{fill:url(#SVGID_180_);}
	.st193{fill:url(#SVGID_181_);}
	.st194{fill:url(#SVGID_182_);}
	.st195{fill:url(#SVGID_183_);}
	.st196{fill:url(#SVGID_184_);}
	.st197{fill:url(#SVGID_185_);}
	.st198{fill:url(#SVGID_186_);}
	.st199{fill:url(#SVGID_187_);}
	.st200{fill:url(#SVGID_188_);}
	.st201{fill:url(#SVGID_189_);}
	.st202{fill:url(#SVGID_190_);}
	.st203{fill:url(#SVGID_191_);}
	.st204{fill:url(#SVGID_192_);}
	.st205{fill:url(#SVGID_193_);}
	.st206{fill:url(#SVGID_194_);}
	.st207{fill:url(#SVGID_195_);}
	.st208{fill:url(#SVGID_196_);}
	.st209{fill:url(#SVGID_197_);}
	.st210{fill:url(#SVGID_198_);}
	.st211{fill:url(#SVGID_199_);}
	.st212{fill:url(#SVGID_200_);}
	.st213{fill:url(#SVGID_201_);}
	.st214{fill:url(#SVGID_202_);}
	.st215{fill:url(#SVGID_203_);}
	.st216{fill:url(#SVGID_204_);}
	.st217{fill:url(#SVGID_205_);}
	.st218{fill:url(#SVGID_206_);}
	.st219{fill:url(#SVGID_207_);}
	.st220{fill:url(#SVGID_208_);}
	.st221{fill:url(#SVGID_209_);}
	.st222{fill:url(#SVGID_210_);}
	.st223{fill:url(#SVGID_211_);}
	.st224{fill:url(#SVGID_212_);}
	.st225{fill:url(#SVGID_213_);}
	.st226{fill:url(#SVGID_214_);}
	.st227{fill:url(#SVGID_215_);}
	.st228{fill:url(#SVGID_216_);}
	.st229{fill:url(#SVGID_217_);}
	.st230{fill:url(#SVGID_218_);}
	.st231{fill:url(#SVGID_219_);}
	.st232{fill:url(#SVGID_220_);}
	.st233{fill:url(#SVGID_221_);}
	.st234{fill:url(#SVGID_222_);}
	.st235{fill:url(#SVGID_223_);}
	.st236{fill:url(#SVGID_224_);}
	.st237{fill:url(#SVGID_225_);}
	.st238{fill:url(#SVGID_226_);}
	.st239{fill:url(#SVGID_227_);}
	.st240{fill:url(#SVGID_228_);}
	.st241{fill:url(#SVGID_229_);}
	.st242{fill:url(#SVGID_230_);}
	.st243{fill:url(#SVGID_231_);}
	.st244{fill:url(#SVGID_232_);}
	.st245{fill:url(#SVGID_233_);}
	.st246{fill:url(#SVGID_234_);}
	.st247{fill:url(#SVGID_235_);}
	.st248{fill:url(#SVGID_236_);}
	.st249{fill:url(#SVGID_237_);}
	.st250{fill:url(#SVGID_238_);}
	.st251{fill:url(#SVGID_239_);}
	.st252{fill:url(#SVGID_240_);}
	.st253{fill:url(#SVGID_241_);}
	.st254{fill:url(#SVGID_242_);}
	.st255{fill:url(#SVGID_243_);}
	.st256{fill:url(#SVGID_244_);}
	.st257{fill:url(#SVGID_245_);}
	.st258{fill:url(#SVGID_246_);}
	.st259{fill:url(#SVGID_247_);}
	.st260{fill:url(#SVGID_248_);}
	.st261{fill:url(#SVGID_249_);}
	.st262{fill:url(#SVGID_250_);}
	.st263{fill:url(#SVGID_251_);}
	.st264{fill:url(#SVGID_252_);}
	.st265{fill:url(#SVGID_253_);}
	.st266{fill:url(#SVGID_254_);}
	.st267{fill:url(#SVGID_255_);}
	.st268{fill:url(#SVGID_256_);}
	.st269{fill:url(#SVGID_257_);}
	.st270{fill:url(#SVGID_258_);}
	.st271{fill:url(#SVGID_259_);}
	.st272{fill:url(#SVGID_260_);}
	.st273{fill:url(#SVGID_261_);}
	.st274{fill:url(#SVGID_262_);}
	.st275{fill:url(#SVGID_263_);}
	.st276{fill:url(#SVGID_264_);}
	.st277{fill:url(#SVGID_265_);}
	.st278{fill:url(#SVGID_266_);}
	.st279{fill:url(#SVGID_267_);}
	.st280{fill:url(#SVGID_268_);}
	.st281{fill:url(#SVGID_269_);}
	.st282{fill:url(#SVGID_270_);}
	.st283{fill:url(#SVGID_271_);}
	.st284{fill:url(#SVGID_272_);}
	.st285{fill:url(#SVGID_273_);}
	.st286{fill:url(#SVGID_274_);}
	.st287{fill:url(#SVGID_275_);}
	.st288{fill:url(#SVGID_276_);}
	.st289{fill:url(#SVGID_277_);}
	.st290{fill:url(#SVGID_278_);}
	.st291{fill:url(#SVGID_279_);}
	.st292{fill:url(#SVGID_280_);}
	.st293{fill:url(#SVGID_281_);}
	.st294{fill:url(#SVGID_282_);}
	.st295{fill:url(#SVGID_283_);}
	.st296{fill:url(#SVGID_284_);}
	.st297{fill:url(#SVGID_285_);}
	.st298{fill:url(#SVGID_286_);}
	.st299{fill:url(#SVGID_287_);}
	.st300{fill:url(#SVGID_288_);}
	.st301{fill:url(#SVGID_289_);}
	.st302{fill:url(#SVGID_290_);}
	.st303{fill:url(#SVGID_291_);}
	.st304{fill:url(#SVGID_292_);}
	.st305{fill:url(#SVGID_293_);}
	.st306{fill:url(#SVGID_294_);}
	.st307{fill:url(#SVGID_295_);}
	.st308{fill:url(#SVGID_296_);}
	.st309{fill:url(#SVGID_297_);}
	.st310{fill:url(#SVGID_298_);}
	.st311{fill:url(#SVGID_299_);}
	.st312{fill:url(#SVGID_300_);}
	.st313{fill:url(#SVGID_301_);}
	.st314{fill:url(#SVGID_302_);}
	.st315{fill:url(#SVGID_303_);}
	.st316{fill:url(#SVGID_304_);}
	.st317{fill:url(#SVGID_305_);}
	.st318{fill:url(#SVGID_306_);}
	.st319{fill:url(#SVGID_307_);}
	.st320{fill:url(#SVGID_308_);}
	.st321{fill:url(#SVGID_309_);}
	.st322{fill:url(#SVGID_310_);}
	.st323{fill:url(#SVGID_311_);}
	.st324{fill:url(#SVGID_312_);}
	.st325{fill:url(#SVGID_313_);}
	.st326{fill:url(#SVGID_314_);}
	.st327{fill:url(#SVGID_315_);}
	.st328{fill:url(#SVGID_316_);}
	.st329{fill:url(#SVGID_317_);}
	.st330{fill:url(#SVGID_318_);}
	.st331{fill:url(#SVGID_319_);}
	.st332{fill:url(#SVGID_320_);}
	.st333{fill:url(#SVGID_321_);}
	.st334{fill:url(#SVGID_322_);}
	.st335{fill:url(#SVGID_323_);}
	.st336{fill:url(#SVGID_324_);}
	.st337{fill:url(#SVGID_325_);}
	.st338{fill:url(#SVGID_326_);}
	.st339{fill:url(#SVGID_327_);}
	.st340{fill:url(#SVGID_328_);}
	.st341{fill:url(#SVGID_329_);}
	.st342{fill:url(#SVGID_330_);}
	.st343{fill:url(#SVGID_331_);}
	.st344{fill:url(#SVGID_332_);}
	.st345{fill:url(#SVGID_333_);}
	.st346{fill:url(#SVGID_334_);}
	.st347{fill:url(#SVGID_335_);}
	.st348{fill:url(#SVGID_336_);}
	.st349{fill:url(#SVGID_337_);}
	.st350{fill:url(#SVGID_338_);}
	.st351{fill:url(#SVGID_339_);}
	.st352{fill:url(#SVGID_340_);}
	.st353{fill:url(#SVGID_341_);}
	.st354{fill:url(#SVGID_342_);}
	.st355{fill:url(#SVGID_343_);}
	.st356{fill:url(#SVGID_344_);}
	.st357{fill:url(#SVGID_345_);}
	.st358{fill:url(#SVGID_346_);}
	.st359{fill:url(#SVGID_347_);}
	.st360{fill:url(#SVGID_348_);}
	.st361{fill:url(#SVGID_349_);}
	.st362{fill:url(#SVGID_350_);}
	.st363{fill:url(#SVGID_351_);}
	.st364{fill:url(#SVGID_352_);}
	.st365{fill:url(#SVGID_353_);}
	.st366{fill:url(#SVGID_354_);}
	.st367{fill:url(#SVGID_355_);}
	.st368{fill:url(#SVGID_356_);}
	.st369{fill:url(#SVGID_357_);}
	.st370{fill:url(#SVGID_358_);}
	.st371{fill:url(#SVGID_359_);}
	.st372{fill:url(#SVGID_360_);}
	.st373{fill:url(#SVGID_361_);}
	.st374{fill:url(#SVGID_362_);}
	.st375{fill:url(#SVGID_363_);}
	.st376{fill:url(#SVGID_364_);}
	.st377{fill:url(#SVGID_365_);}
	.st378{fill:url(#SVGID_366_);}
	.st379{fill:url(#SVGID_367_);}
	.st380{fill:url(#SVGID_368_);}
	.st381{fill:url(#SVGID_369_);}
	.st382{fill:url(#SVGID_370_);}
	.st383{fill:url(#SVGID_371_);}
	.st384{fill:url(#SVGID_372_);}
	.st385{fill:url(#SVGID_373_);}
	.st386{fill:url(#SVGID_374_);}
	.st387{fill:url(#SVGID_375_);}
	.st388{fill:url(#SVGID_376_);}
	.st389{fill:url(#SVGID_377_);}
	.st390{fill:url(#SVGID_378_);}
	.st391{fill:url(#SVGID_379_);}
	.st392{fill:url(#SVGID_380_);}
	.st393{fill:url(#SVGID_381_);}
	.st394{fill:url(#SVGID_382_);}
	.st395{fill:url(#SVGID_383_);}
	.st396{fill:url(#SVGID_384_);}
	.st397{fill:url(#SVGID_385_);}
	.st398{fill:url(#SVGID_386_);}
	.st399{fill:url(#SVGID_387_);}
	.st400{fill:url(#SVGID_388_);}
	.st401{fill:url(#SVGID_389_);}
	.st402{fill:url(#SVGID_390_);}
	.st403{fill:url(#SVGID_391_);}
	.st404{fill:url(#SVGID_392_);}
	.st405{fill:url(#SVGID_393_);}
	.st406{fill:url(#SVGID_394_);}
	.st407{fill:url(#SVGID_395_);}
	.st408{fill:url(#SVGID_396_);}
	.st409{fill:url(#SVGID_397_);}
	.st410{fill:url(#SVGID_398_);}
	.st411{fill:url(#SVGID_399_);}
	.st412{fill:url(#SVGID_400_);}
	.st413{fill:url(#SVGID_401_);}
	.st414{fill:url(#SVGID_402_);}
	.st415{fill:url(#SVGID_403_);}
	.st416{fill:url(#SVGID_404_);}
	.st417{fill:url(#SVGID_405_);}
	.st418{fill:url(#SVGID_406_);}
	.st419{fill:url(#SVGID_407_);}
	.st420{fill:url(#SVGID_408_);}
	.st421{fill:url(#SVGID_409_);}
	.st422{fill:url(#SVGID_410_);}
	.st423{fill:url(#SVGID_411_);}
	.st424{fill:url(#SVGID_412_);}
	.st425{fill:url(#SVGID_413_);}
	.st426{fill:url(#SVGID_414_);}
	.st427{fill:url(#SVGID_415_);}
	.st428{fill:url(#SVGID_416_);}
	.st429{fill:url(#SVGID_417_);}
	.st430{fill:url(#SVGID_418_);}
	.st431{fill:url(#SVGID_419_);}
	.st432{fill:url(#SVGID_420_);}
	.st433{fill:url(#SVGID_421_);}
	.st434{fill:url(#SVGID_422_);}
	.st435{fill:url(#SVGID_423_);}
	.st436{fill:url(#SVGID_424_);}
	.st437{fill:url(#SVGID_425_);}
	.st438{fill:url(#SVGID_426_);}
	.st439{fill:url(#SVGID_427_);}
	.st440{fill:url(#SVGID_428_);}
	.st441{fill:url(#SVGID_429_);}
	.st442{fill:url(#SVGID_430_);}
	.st443{fill:url(#SVGID_431_);}
	.st444{fill:url(#SVGID_432_);}
	.st445{fill:url(#SVGID_433_);}
	.st446{fill:url(#SVGID_434_);}
	.st447{fill:url(#SVGID_435_);}
	.st448{fill:url(#SVGID_436_);}
	.st449{fill:url(#SVGID_437_);}
	.st450{fill:url(#SVGID_438_);}
	.st451{fill:url(#SVGID_439_);}
	.st452{fill:url(#SVGID_440_);}
	.st453{fill:url(#SVGID_441_);}
	.st454{fill:url(#SVGID_442_);}
	.st455{fill:url(#SVGID_443_);}
	.st456{fill:url(#SVGID_444_);}
	.st457{fill:url(#SVGID_445_);}
	.st458{fill:url(#SVGID_446_);}
	.st459{fill:url(#SVGID_447_);}
	.st460{fill:url(#SVGID_448_);}
	.st461{fill:url(#SVGID_449_);}
	.st462{fill:url(#SVGID_450_);}
	.st463{fill:url(#SVGID_451_);}
	.st464{fill:url(#SVGID_452_);}
	.st465{fill:url(#SVGID_453_);}
	.st466{fill:url(#SVGID_454_);}
	.st467{fill:url(#SVGID_455_);}
	.st468{fill:url(#SVGID_456_);}
	.st469{fill:url(#SVGID_457_);}
	.st470{fill:url(#SVGID_458_);}
	.st471{fill:url(#SVGID_459_);}
	.st472{fill:url(#SVGID_460_);}
	.st473{fill:url(#SVGID_461_);}
	.st474{fill:url(#SVGID_462_);}
	.st475{fill:url(#SVGID_463_);}
	.st476{fill:url(#SVGID_464_);}
	.st477{fill:url(#SVGID_465_);}
	.st478{fill:url(#SVGID_466_);}
	.st479{fill:url(#SVGID_467_);}
	.st480{fill:url(#SVGID_468_);}
	.st481{fill:url(#SVGID_469_);}
	.st482{fill:url(#SVGID_470_);}
	.st483{fill:url(#SVGID_471_);}
	.st484{fill:url(#SVGID_472_);}
	.st485{fill:url(#SVGID_473_);}
	.st486{fill:url(#SVGID_474_);}
	.st487{fill:url(#SVGID_475_);}
	.st488{fill:url(#SVGID_476_);}
	.st489{fill:url(#SVGID_477_);}
	.st490{fill:url(#SVGID_478_);}
	.st491{fill:url(#SVGID_479_);}
	.st492{fill:url(#SVGID_480_);}
	.st493{fill:url(#SVGID_481_);}
	.st494{fill:url(#SVGID_482_);}
	.st495{fill:url(#SVGID_483_);}
	.st496{fill:url(#SVGID_484_);}
	.st497{fill:url(#SVGID_485_);}
	.st498{fill:url(#SVGID_486_);}
	.st499{fill:url(#SVGID_487_);}
	.st500{fill:url(#SVGID_488_);}
	.st501{fill:url(#SVGID_489_);}
	.st502{fill:url(#SVGID_490_);}
	.st503{fill:url(#SVGID_491_);}
	.st504{fill:url(#SVGID_492_);}
	.st505{fill:url(#SVGID_493_);}
	.st506{fill:url(#SVGID_494_);}
	.st507{fill:url(#SVGID_495_);}
	.st508{fill:url(#SVGID_496_);}
	.st509{fill:url(#SVGID_497_);}
	.st510{fill:url(#SVGID_498_);}
	.st511{fill:url(#SVGID_499_);}
	.st512{fill:url(#SVGID_500_);}
	.st513{fill:url(#SVGID_501_);}
	.st514{fill:url(#SVGID_502_);}
	.st515{fill:url(#SVGID_503_);}
	.st516{fill:url(#SVGID_504_);}
	.st517{fill:url(#SVGID_505_);}
	.st518{fill:url(#SVGID_506_);}
	.st519{fill:url(#SVGID_507_);}
	.st520{fill:url(#SVGID_508_);}
	.st521{fill:url(#SVGID_509_);}
	.st522{fill:url(#SVGID_510_);}
	.st523{fill:url(#SVGID_511_);}
	.st524{fill:url(#SVGID_512_);}
	.st525{fill:url(#SVGID_513_);}
	.st526{fill:url(#SVGID_514_);}
	.st527{fill:url(#SVGID_515_);}
	.st528{fill:url(#SVGID_516_);}
	.st529{fill:url(#SVGID_517_);}
	.st530{fill:url(#SVGID_518_);}
	.st531{fill:url(#SVGID_519_);}
	.st532{fill:url(#SVGID_520_);}
	.st533{fill:url(#SVGID_521_);}
	.st534{fill:url(#SVGID_522_);}
	.st535{fill:url(#SVGID_523_);}
	.st536{fill:url(#SVGID_524_);}
	.st537{fill:url(#SVGID_525_);}
	.st538{fill:url(#SVGID_526_);}
	.st539{fill:url(#SVGID_527_);}
	.st540{fill:url(#SVGID_528_);}
	.st541{fill:url(#SVGID_529_);}
	.st542{fill:url(#SVGID_530_);}
	.st543{fill:url(#SVGID_531_);}
	.st544{fill:url(#SVGID_532_);}
	.st545{fill:url(#SVGID_533_);}
	.st546{fill:url(#SVGID_534_);}
	.st547{fill:url(#SVGID_535_);}
	.st548{fill:url(#SVGID_536_);}
	.st549{fill:url(#SVGID_537_);}
	.st550{fill:url(#SVGID_538_);}
	.st551{fill:url(#SVGID_539_);}
	.st552{fill:url(#SVGID_540_);}
	.st553{fill:url(#SVGID_541_);}
	.st554{fill:url(#SVGID_542_);}
	.st555{fill:url(#SVGID_543_);}
	.st556{fill:url(#SVGID_544_);}
	.st557{fill:url(#SVGID_545_);}
	.st558{fill:url(#SVGID_546_);}
	.st559{fill:url(#SVGID_547_);}
	.st560{fill:url(#SVGID_548_);}
	.st561{fill:url(#SVGID_549_);}
	.st562{fill:url(#SVGID_550_);}
	.st563{clip-path:url(#SVGID_551_);}
	.st564{fill-rule:evenodd;clip-rule:evenodd;fill:#FFFFFF;}
	.st565{fill:url(#SVGID_552_);}
	.st566{fill:url(#SVGID_553_);}
	.st567{fill-rule:evenodd;clip-rule:evenodd;fill:url(#SVGID_555_);}
	.st568{fill-rule:evenodd;clip-rule:evenodd;fill:url(#SVGID_556_);}
	.st569{fill-rule:evenodd;clip-rule:evenodd;fill:url(#SVGID_557_);}
	.st570{fill-rule:evenodd;clip-rule:evenodd;fill:url(#SVGID_558_);}
	.st571{fill-rule:evenodd;clip-rule:evenodd;fill:url(#SVGID_559_);}
	.st572{fill-rule:evenodd;clip-rule:evenodd;fill:url(#SVGID_560_);}
	.st573{fill-rule:evenodd;clip-rule:evenodd;fill:url(#SVGID_561_);}
	.st574{fill-rule:evenodd;clip-rule:evenodd;fill:url(#SVGID_562_);}
	.st575{fill-rule:evenodd;clip-rule:evenodd;fill:url(#SVGID_563_);}
	.st576{fill-rule:evenodd;clip-rule:evenodd;fill:url(#SVGID_564_);}
	.st577{fill-rule:evenodd;clip-rule:evenodd;fill:url(#SVGID_565_);}
	.st578{fill-rule:evenodd;clip-rule:evenodd;}
	.st579{fill-rule:evenodd;clip-rule:evenodd;fill:#666666;}
	.st580{fill:url(#SVGID_566_);}
	.st581{fill:url(#SVGID_567_);}
	.st582{fill:url(#SVGID_568_);}
	.st583{fill:url(#SVGID_569_);}
	.st584{fill:url(#SVGID_570_);}
	.st585{fill:url(#SVGID_571_);}
	.st586{fill:url(#SVGID_572_);}
	.st587{fill:url(#SVGID_573_);}
	.st588{fill:url(#SVGID_574_);}
	.st589{fill:url(#SVGID_575_);}
	.st590{fill:url(#SVGID_576_);}
	.st591{fill:url(#SVGID_577_);}
	.st592{fill:url(#SVGID_578_);}
	.st593{fill:url(#SVGID_579_);}
	.st594{fill:url(#SVGID_580_);}
	.st595{fill:url(#SVGID_581_);}
	.st596{fill:url(#SVGID_582_);}
	.st597{fill:url(#SVGID_583_);}
	.st598{fill:url(#SVGID_584_);}
	.st599{fill:url(#SVGID_585_);}
	.st600{fill:url(#SVGID_586_);}
	.st601{fill:url(#SVGID_587_);}
	.st602{fill:url(#SVGID_588_);}
	.st603{fill:url(#SVGID_589_);}
	.st604{fill:url(#SVGID_590_);}
	.st605{fill:url(#SVGID_591_);}
	.st606{fill:url(#SVGID_592_);}
	.st607{fill:url(#SVGID_593_);}
	.st608{fill:url(#SVGID_594_);}
	.st609{fill:url(#SVGID_595_);}
	.st610{fill:url(#SVGID_596_);}
	.st611{fill:url(#SVGID_597_);}
	.st612{clip-path:url(#SVGID_598_);}
	.st613{clip-path:url(#SVGID_600_);}
	.st614{fill:url(#SVGID_602_);}
	.st615{fill:url(#SVGID_604_);}
	.st616{fill:#606060;}
	.st617{fill:#F68000;}
	
		.st618{fill-rule:evenodd;clip-rule:evenodd;fill:none;stroke:#000000;stroke-width:0.6448;stroke-miterlimit:10;stroke-dasharray:2.579;}
	.st619{fill:url(#SVGID_606_);}
	.st620{fill:url(#SVGID_607_);}
	.st621{fill:url(#SVGID_608_);}
	.st622{fill:url(#SVGID_609_);}
	.st623{opacity:0.5;fill:#383838;}
	.st624{fill:#383838;}
	.st625{fill:#646464;}
	.st626{fill:#494949;}
	.st627{fill:#E7E7E7;}
	.st628{fill:#878787;}
	.st629{fill:#FF8500;}
	.st630{opacity:0.3;}
	.st631{clip-path:url(#SVGID_610_);}
	.st632{fill:#A5A5A5;}
	.st633{fill:#FF5900;}
	.st634{fill:#FF9E00;}
	.st635{clip-path:url(#SVGID_611_);}
	.st636{fill-rule:evenodd;clip-rule:evenodd;fill:url(#SVGID_612_);}
	.st637{fill-rule:evenodd;clip-rule:evenodd;fill:url(#SVGID_614_);}
	.st638{fill-rule:evenodd;clip-rule:evenodd;fill:url(#SVGID_616_);}
	.st639{enable-background:new    ;}
	.st640{fill:url(#SVGID_617_);}
	.st641{fill:url(#SVGID_618_);}
	.st642{fill:url(#SVGID_619_);}
	.st643{fill:url(#SVGID_620_);}
</style>
<g id="Capa_1">
</g>
<g id="Capa_2">
	<g>
		<g>
			<g>
				<circle class="st24" cx="110.2" cy="70.3" r="1.7"/>
			</g>
		</g>
		<g>
			<path class="st24" d="M115.1,41.4l0.5-0.1c0.2,0,0.4-0.1,0.6-0.2l0.4-0.3c7-4.3,14.9-7,23-8l0.5-0.1c0.9-0.1,1.5-1,1.2-1.9
				L130.9,1c-0.2-0.6-0.9-1-1.5-1l-0.5,0.1c-8.6,1-16.8,3.9-24.2,8.4l-0.1,0.1l-0.2,0c-8.6,1-16.8,3.9-24.2,8.4l-0.4,0.3
				c-0.6,0.4-0.8,1.1-0.6,1.7l10.4,29.9c0.3,0.9,1.3,1.2,2.1,0.8l0.4-0.3C99.1,45.1,106.9,42.3,115.1,41.4z M128.9,4.1l8.5,24.4
				c0.3,0.8-0.2,1.7-1.1,1.9c-6.5,1.1-12.8,3.3-18.6,6.5c-0.8,0.4-1.8,0-2-0.8l-8.5-24.4c-0.2-0.7,0-1.4,0.6-1.7
				c6.1-3.5,12.7-5.8,19.6-6.8C128,3.1,128.7,3.5,128.9,4.1z M83.3,18.5c6.1-3.4,12.7-5.7,19.6-6.8c0.7-0.1,1.3,0.3,1.6,1l8.5,24.4
				c0.3,0.8-0.2,1.7-1.1,1.9c-6.5,1.1-12.8,3.3-18.6,6.4c-0.8,0.4-1.8,0-2-0.8l-8.5-24.4C82.4,19.5,82.7,18.8,83.3,18.5z"/>
			<g>
				<path class="st24" d="M102.9,17.4L102.9,17.4c-0.1-0.8-0.9-1.3-1.7-1.1c-4.8,1-9.4,2.6-13.8,4.8c-0.7,0.4-1,1.2-0.6,2l0,0
					c0.4,0.7,1.2,1,1.9,0.6c4.2-2.1,8.6-3.6,13.2-4.6C102.6,18.9,103,18.2,102.9,17.4z"/>
				<path class="st24" d="M104.8,22.9L104.8,22.9c-0.1-0.8-0.9-1.3-1.7-1.1c-4.8,1-9.4,2.6-13.8,4.8c-0.7,0.4-1,1.2-0.6,2l0,0
					c0.4,0.7,1.2,1,1.9,0.6c4.2-2.1,8.6-3.6,13.2-4.6C104.4,24.4,104.9,23.6,104.8,22.9z"/>
				<path class="st24" d="M106.7,28.3L106.7,28.3c-0.1-0.8-0.9-1.3-1.7-1.1c-4.8,1-9.4,2.6-13.8,4.8c-0.7,0.4-1,1.2-0.6,2l0,0
					c0.4,0.7,1.2,1,1.9,0.6c4.2-2.1,8.6-3.6,13.2-4.6C106.3,29.8,106.8,29.1,106.7,28.3z"/>
				<path class="st24" d="M106.8,32.6c-4.8,1-9.4,2.6-13.8,4.8c-0.7,0.4-1,1.2-0.6,2l0,0c0.4,0.7,1.2,1,1.9,0.6
					c4.2-2.1,8.6-3.6,13.2-4.6c0.8-0.2,1.2-0.9,1.1-1.7v0C108.4,33,107.6,32.4,106.8,32.6z"/>
			</g>
			<path class="st24" d="M127.5,8.9L127.5,8.9c-0.1-0.8-0.9-1.3-1.7-1.1c-4.8,1-9.4,2.6-13.8,4.8c-0.7,0.4-1,1.2-0.6,2l0,0
				c0.4,0.7,1.2,1,1.9,0.6c4.2-2.1,8.6-3.6,13.2-4.6C127.1,10.4,127.6,9.7,127.5,8.9z"/>
			<path class="st24" d="M129.3,14.4L129.3,14.4c-0.1-0.8-0.9-1.3-1.7-1.1c-4.8,1-9.4,2.6-13.8,4.8c-0.7,0.4-1,1.2-0.6,2l0,0
				c0.4,0.7,1.2,1,1.9,0.6c4.2-2.1,8.6-3.6,13.2-4.6C129,15.9,129.5,15.1,129.3,14.4z"/>
			<path class="st24" d="M131.2,19.8L131.2,19.8c-0.1-0.8-0.9-1.3-1.7-1.1c-4.8,1-9.4,2.6-13.8,4.8c-0.7,0.4-1,1.2-0.6,2l0,0
				c0.4,0.7,1.2,1,1.9,0.6c4.2-2.1,8.6-3.6,13.2-4.6C130.9,21.3,131.4,20.6,131.2,19.8z"/>
			<path class="st24" d="M116.9,30.8L116.9,30.8c0.4,0.7,1.2,1,1.9,0.6c4.2-2.1,8.6-3.6,13.2-4.6c0.8-0.2,1.2-0.9,1.1-1.7l0,0
				c-0.1-0.8-0.9-1.3-1.7-1.1c-4.8,1-9.4,2.6-13.8,4.8C116.9,29.2,116.6,30.1,116.9,30.8z"/>
		</g>
		<path class="st24" d="M110.2,112.7c0.4,0,0.7,0,1.1,0.1V88.2h-3.2v24.7C108.8,112.8,109.5,112.7,110.2,112.7z"/>
		<g>
			<g>
				<path class="st24" d="M151.9,16.4h-13.1l1.1,3.2h12c0.5,0,1,0.4,1,1v41.7h0h-3.7l0.3,0.9c0.3,0.8,0.3,1.6,0.1,2.3h3.3V74
					c0,0.5-0.4,1-1,1H68.5c-0.5,0-1-0.4-1-1v-8.4H131l-0.2-0.6c-0.1-0.3-0.2-0.7-0.3-1l-1.4-0.9c-0.3-0.2-0.6-0.5-0.9-0.7H67.5V20.6
					c0-0.5,0.4-1,1-1h7.4c-0.3-1.1-0.2-2.2,0.3-3.2h-7.8c-2.3,0-4.2,1.9-4.2,4.2V74c0,2.3,1.9,4.2,4.2,4.2h32.1v3
					c0,2.8-2.3,5.1-5.1,5.1h-4.6c-0.9,0-1.6,0.7-1.6,1.6c0,0.9,0.7,1.6,1.6,1.6h38.5c0.9,0,1.6-0.7,1.6-1.6c0-0.9-0.7-1.6-1.6-1.6
					h-4.6c-2.8,0-5.1-2.3-5.1-5.1v-3h32.1c2.3,0,4.2-1.9,4.2-4.2V20.6C156.1,18.3,154.2,16.4,151.9,16.4z M102,86.3
					c1.1-1.4,1.7-3.2,1.7-5.1v-3h12.8v3c0,1.9,0.7,3.7,1.7,5.1H102z"/>
			</g>
			<path class="st24" d="M145,59.2c-0.1-0.3-0.3-0.5-0.6-0.6c0,0,0,0,0,0c-0.1,0-0.2-0.1-0.4-0.1l0.8-3.4c0.3-1.2-0.2-2.4-1.1-3.1
				l-9.1-7l-3.5,1.4l-1.8,11.3c-0.2,1.2,0.3,2.4,1.3,3.1l2.9,2c-0.1,0.1-0.2,0.2-0.2,0.3c-0.1,0.3-0.1,0.6,0,0.9l2.1,4.8
				c0.1,0.3,0.3,0.5,0.6,0.6c0.3,0.1,0.6,0.1,0.8,0l9.2-3.6c0.6-0.2,0.8-0.8,0.6-1.4L145,59.2z M135.6,61.3l-3.6-2.5
				c-0.3-0.2-0.4-0.5-0.4-0.9l1.4-9.1l2.1,5.2c-0.4,0.6-0.6,1.3-0.3,2.1c0.4,1.1,1.7,1.6,2.8,1.2c1.1-0.4,1.6-1.7,1.2-2.8
				c-0.3-0.7-0.9-1.2-1.6-1.3l-2.1-5.2l7.3,5.7c0.3,0.2,0.4,0.6,0.3,0.9l-1,4.3c-0.1,0.3-0.3,0.5-0.5,0.6l-4.8,1.9
				C136.1,61.5,135.8,61.5,135.6,61.3z"/>
			<path class="st24" d="M142.7,34.8l-0.4,0.4c0,0-4.3,4.3-12,7c-7.7,2.6-14.7,2.6-15,2.6l-0.5,0l-0.1,2.9l0.5,0c0,0,0.1,0,0.2,0
				c1.4,0,8.1-0.1,15.7-2.7c8.4-2.9,12.9-7.5,13.1-7.7l0.3-0.4L142.7,34.8z"/>
			<path class="st24" d="M115.5,50.9c-0.9,0.3-1.8-0.1-2.2-0.9l-1.2-3.1c-0.3-0.9,0.1-1.8,0.9-2.2l3.1-1.2c0.9-0.3,1.8,0.1,2.2,0.9
				l1.2,3.1c0.3,0.9-0.1,1.8-0.9,2.2L115.5,50.9z"/>
			<path class="st24" d="M144.4,39.6c-0.9,0.3-1.8-0.1-2.2-0.9l-1.2-3.1c-0.3-0.9,0.1-1.8,0.9-2.2l3.1-1.2c0.9-0.3,1.8,0.1,2.2,0.9
				l1.2,3.1c0.3,0.9-0.1,1.8-0.9,2.2L144.4,39.6z"/>
		</g>
		<g>
			<g>
				<path class="st24" d="M121.8,136.9c-1.8-1.8-3.9-3.1-6.2-3.9c2.5-1.7,4.1-4.6,4.1-7.8c0-5.2-4.2-9.5-9.5-9.5
					c-5.2,0-9.5,4.2-9.5,9.5c0,3.2,1.6,6.1,4.1,7.8c-2.3,0.8-4.4,2.1-6.2,3.9c-3.1,3.1-4.8,7.2-4.8,11.6h2.6
					c0-7.6,6.2-13.8,13.8-13.8s13.8,6.2,13.8,13.8h2.6C126.6,144.1,124.9,140,121.8,136.9z M110.2,132.1c-3.8,0-6.9-3.1-6.9-6.9
					c0-3.8,3.1-6.9,6.9-6.9c3.8,0,6.9,3.1,6.9,6.9C117.1,129,114,132.1,110.2,132.1z"/>
			</g>
		</g>
		<path class="st24" d="M64.5,55.3c-7.9,10.3-18.3,17.1-31.3,20.3c-0.5-3.6-2.1-6.9-4.7-9.5c-1.7-1.7-3.7-3-5.8-3.8
			c2.4-1.8,3.8-4.7,3.8-7.7c0-5.4-4.4-9.7-9.7-9.7c-5.4,0-9.7,4.4-9.7,9.7c0,3,1.4,5.9,3.8,7.7c-2.2,0.8-4.2,2.1-5.8,3.8
			c-3.1,3.1-4.9,7.3-4.9,11.8L0,79.4c0.3,0.1,6.5,1.5,15.4,1.5c2.7,0,5.7-0.1,8.8-0.5c12.5-1.4,30.1-6.5,42.8-23.2L64.5,55.3z
			 M10.1,54.5c0-3.7,3-6.6,6.6-6.6s6.6,3,6.6,6.6c0,3.7-3,6.6-6.6,6.6S10.1,58.2,10.1,54.5z M24,77.2c-9.2,1-17,0.1-20.8-0.5
			c0.6-7,6.4-12.5,13.5-12.5c6.9,0,12.7,5.3,13.5,12C28.2,76.7,26.1,77,24,77.2z"/>
		<path class="st24" d="M152.3,57.2c12.7,16.7,30.3,21.8,42.8,23.2c3.1,0.3,6.1,0.5,8.8,0.5c8.9,0,15.1-1.4,15.4-1.5l-0.1-1.3v-0.3
			c0-4.4-1.7-8.6-4.9-11.8c-1.7-1.7-3.7-3-5.8-3.8c2.4-1.8,3.8-4.7,3.8-7.7c0-5.4-4.4-9.7-9.7-9.7c-5.4,0-9.7,4.4-9.7,9.7
			c0,3,1.4,5.9,3.8,7.7c-2.2,0.8-4.2,2.1-5.8,3.8c-2.6,2.6-4.2,5.9-4.7,9.5c-12.9-3.2-23.4-10-31.3-20.3L152.3,57.2z M202.6,61.2
			c-3.7,0-6.6-3-6.6-6.6c0-3.7,3-6.6,6.6-6.6s6.6,3,6.6,6.6C209.3,58.2,206.3,61.2,202.6,61.2z M189.2,76.3c0.8-6.7,6.5-12,13.5-12
			c7.1,0,13,5.5,13.5,12.5c-3.8,0.6-11.6,1.5-20.8,0.5C193.2,77,191.2,76.7,189.2,76.3z"/>
		<g>
			<path class="st24" d="M215.3,77.1c-0.1,0.2-6.7,15.9-23.1,31.5c-9.6,9.2-20.7,16.5-32.9,21.8c-10,4.3-20.7,7.2-32.1,8.7
				c0.5,1,1,2,1.4,3c11.3-1.6,22.1-4.5,32-8.8c12.6-5.4,24-12.9,33.9-22.4c16.9-16.1,23.5-32,23.8-32.6L215.3,77.1z"/>
			<path class="st24" d="M93,139.5c-12.6-1.3-24.4-4.3-35.2-8.9c-12.1-5.1-23-12.3-32.4-21.3C9.4,93.9,3.1,78.3,3.1,78.2l-3,1.2
				c0.3,0.7,6.5,16.3,23,32.1c9.7,9.3,20.9,16.7,33.3,22c10.9,4.6,22.7,7.7,35.3,9.1C92.1,141.5,92.5,140.5,93,139.5z"/>
		</g>
	</g>
</g>
</svg>
