<?xml version="1.0" encoding="utf-8"?>
<!-- Generator: Adobe Illustrator 21.0.2, SVG Export Plug-In . SVG Version: 6.00 Build 0)  -->
<svg version="1.1" xmlns="http://www.w3.org/2000/svg" xmlns:xlink="http://www.w3.org/1999/xlink" x="0px" y="0px"
	 viewBox="0 0 303.4 356.1" style="enable-background:new 0 0 303.4 356.1;" xml:space="preserve">
<style type="text/css">
	.st0{fill:url(#SVGID_1_);}
	.st1{fill:url(#SVGID_2_);}
	.st2{fill:url(#SVGID_3_);}
	.st3{fill:url(#SVGID_4_);}
	.st4{fill:url(#SVGID_5_);}
	.st5{fill:url(#SVGID_6_);}
	.st6{fill:url(#SVGID_7_);}
	.st7{fill:url(#SVGID_8_);}
	.st8{fill:url(#SVGID_9_);}
	.st9{fill:url(#SVGID_10_);}
	.st10{fill:url(#SVGID_11_);}
	.st11{fill:url(#SVGID_12_);}
	.st12{fill:url(#SVGID_13_);}
	.st13{fill:url(#SVGID_14_);}
	.st14{fill:url(#SVGID_15_);}
	.st15{fill:url(#SVGID_16_);}
	.st16{fill:url(#SVGID_17_);}
	.st17{fill:url(#SVGID_18_);}
	.st18{fill:url(#SVGID_19_);}
	.st19{fill:url(#SVGID_20_);}
	.st20{fill:url(#SVGID_21_);}
	.st21{fill:url(#SVGID_22_);}
	.st22{fill:url(#SVGID_23_);}
	.st23{fill:url(#SVGID_24_);}
	.st24{fill:#FFFFFF;}
	.st25{fill:url(#SVGID_25_);}
	.st26{fill:url(#SVGID_26_);}
	.st27{fill:url(#SVGID_27_);}
	.st28{fill:#470930;}
	.st29{opacity:0.64;}
	.st30{opacity:0.54;fill:#606161;}
	.st31{opacity:0.81;fill:#606161;}
	.st32{opacity:0.23;fill:#606161;}
	.st33{opacity:0.1;fill:#606161;}
	.st34{opacity:0.37;fill:#606161;}
	.st35{fill:#875A7B;}
	.st36{fill:#8E2775;}
	.st37{fill:#606161;}
	.st38{clip-path:url(#SVGID_28_);}
	.st39{fill:#D0D3D2;}
	.st40{clip-path:url(#SVGID_29_);}
	.st41{clip-path:url(#SVGID_30_);}
	.st42{clip-path:url(#SVGID_32_);}
	.st43{fill:url(#SVGID_34_);}
	.st44{fill:url(#SVGID_36_);}
	.st45{fill-rule:evenodd;clip-rule:evenodd;fill:#FFF8FF;}
	.st46{fill:#011E50;}
	.st47{fill:url(#SVGID_38_);}
	.st48{fill:none;stroke:#011E50;stroke-width:3;stroke-miterlimit:10;}
	.st49{clip-path:url(#SVGID_39_);}
	.st50{fill:#FFF8FF;}
	.st51{fill-rule:evenodd;clip-rule:evenodd;fill:url(#SVGID_40_);}
	.st52{fill-rule:evenodd;clip-rule:evenodd;fill:url(#SVGID_41_);}
	.st53{fill-rule:evenodd;clip-rule:evenodd;fill:url(#SVGID_43_);}
	.st54{fill-rule:evenodd;clip-rule:evenodd;fill:url(#SVGID_44_);}
	.st55{fill-rule:evenodd;clip-rule:evenodd;fill:url(#SVGID_45_);}
	.st56{fill-rule:evenodd;clip-rule:evenodd;fill:url(#SVGID_46_);}
	.st57{fill-rule:evenodd;clip-rule:evenodd;fill:url(#SVGID_47_);}
	.st58{fill-rule:evenodd;clip-rule:evenodd;fill:url(#SVGID_48_);}
	.st59{fill-rule:evenodd;clip-rule:evenodd;fill:url(#SVGID_49_);}
	.st60{fill-rule:evenodd;clip-rule:evenodd;fill:url(#SVGID_50_);}
	.st61{fill-rule:evenodd;clip-rule:evenodd;fill:url(#SVGID_51_);}
	.st62{fill-rule:evenodd;clip-rule:evenodd;fill:url(#SVGID_52_);}
	.st63{fill-rule:evenodd;clip-rule:evenodd;fill:url(#SVGID_53_);}
	.st64{fill-rule:evenodd;clip-rule:evenodd;fill:url(#SVGID_54_);}
	.st65{fill-rule:evenodd;clip-rule:evenodd;fill:url(#SVGID_55_);}
	.st66{fill-rule:evenodd;clip-rule:evenodd;fill:url(#SVGID_56_);}
	.st67{fill-rule:evenodd;clip-rule:evenodd;fill:url(#SVGID_57_);}
	.st68{fill-rule:evenodd;clip-rule:evenodd;fill:url(#SVGID_58_);}
	.st69{fill-rule:evenodd;clip-rule:evenodd;fill:url(#SVGID_59_);}
	.st70{fill-rule:evenodd;clip-rule:evenodd;fill:url(#SVGID_60_);}
	.st71{fill-rule:evenodd;clip-rule:evenodd;fill:url(#SVGID_61_);}
	.st72{fill-rule:evenodd;clip-rule:evenodd;fill:url(#SVGID_62_);}
	.st73{fill-rule:evenodd;clip-rule:evenodd;fill:url(#SVGID_63_);}
	.st74{fill-rule:evenodd;clip-rule:evenodd;fill:url(#SVGID_64_);}
	.st75{fill-rule:evenodd;clip-rule:evenodd;fill:url(#SVGID_65_);}
	.st76{fill-rule:evenodd;clip-rule:evenodd;fill:url(#SVGID_66_);}
	.st77{fill-rule:evenodd;clip-rule:evenodd;fill:url(#SVGID_67_);}
	.st78{fill-rule:evenodd;clip-rule:evenodd;fill:url(#SVGID_68_);}
	.st79{fill-rule:evenodd;clip-rule:evenodd;fill:url(#SVGID_69_);}
	.st80{fill-rule:evenodd;clip-rule:evenodd;fill:url(#SVGID_70_);}
	.st81{fill-rule:evenodd;clip-rule:evenodd;fill:url(#SVGID_71_);}
	.st82{fill-rule:evenodd;clip-rule:evenodd;fill:url(#SVGID_72_);}
	.st83{fill-rule:evenodd;clip-rule:evenodd;fill:url(#SVGID_73_);}
	.st84{fill-rule:evenodd;clip-rule:evenodd;fill:url(#SVGID_74_);}
	.st85{fill-rule:evenodd;clip-rule:evenodd;fill:url(#SVGID_75_);}
	.st86{fill-rule:evenodd;clip-rule:evenodd;fill:url(#SVGID_76_);}
	.st87{fill-rule:evenodd;clip-rule:evenodd;fill:url(#SVGID_77_);}
	.st88{fill-rule:evenodd;clip-rule:evenodd;fill:url(#SVGID_78_);}
	.st89{fill-rule:evenodd;clip-rule:evenodd;fill:url(#SVGID_79_);}
	.st90{fill-rule:evenodd;clip-rule:evenodd;fill:url(#SVGID_80_);}
	.st91{fill-rule:evenodd;clip-rule:evenodd;fill:url(#SVGID_81_);}
	.st92{fill-rule:evenodd;clip-rule:evenodd;fill:url(#SVGID_82_);}
	.st93{fill-rule:evenodd;clip-rule:evenodd;fill:url(#SVGID_83_);}
	.st94{fill-rule:evenodd;clip-rule:evenodd;fill:url(#SVGID_84_);}
	.st95{fill-rule:evenodd;clip-rule:evenodd;fill:url(#SVGID_85_);}
	.st96{fill-rule:evenodd;clip-rule:evenodd;fill:url(#SVGID_86_);}
	.st97{fill-rule:evenodd;clip-rule:evenodd;fill:url(#SVGID_87_);}
	.st98{fill-rule:evenodd;clip-rule:evenodd;fill:url(#SVGID_88_);}
	.st99{fill-rule:evenodd;clip-rule:evenodd;fill:url(#SVGID_89_);}
	.st100{fill-rule:evenodd;clip-rule:evenodd;fill:url(#SVGID_90_);}
	.st101{fill-rule:evenodd;clip-rule:evenodd;fill:url(#SVGID_91_);}
	.st102{fill-rule:evenodd;clip-rule:evenodd;fill:url(#SVGID_92_);}
	.st103{fill-rule:evenodd;clip-rule:evenodd;fill:url(#SVGID_93_);}
	.st104{fill-rule:evenodd;clip-rule:evenodd;fill:url(#SVGID_94_);}
	.st105{fill-rule:evenodd;clip-rule:evenodd;fill:url(#SVGID_95_);}
	.st106{fill-rule:evenodd;clip-rule:evenodd;fill:url(#SVGID_96_);}
	.st107{fill-rule:evenodd;clip-rule:evenodd;fill:url(#SVGID_97_);}
	.st108{fill-rule:evenodd;clip-rule:evenodd;fill:url(#SVGID_98_);}
	.st109{fill-rule:evenodd;clip-rule:evenodd;fill:url(#SVGID_99_);}
	.st110{fill-rule:evenodd;clip-rule:evenodd;fill:url(#SVGID_100_);}
	.st111{fill-rule:evenodd;clip-rule:evenodd;fill:url(#SVGID_101_);}
	.st112{fill-rule:evenodd;clip-rule:evenodd;fill:url(#SVGID_102_);}
	.st113{fill-rule:evenodd;clip-rule:evenodd;fill:url(#SVGID_103_);}
	.st114{fill-rule:evenodd;clip-rule:evenodd;fill:url(#SVGID_104_);}
	.st115{fill-rule:evenodd;clip-rule:evenodd;fill:url(#SVGID_105_);}
	.st116{fill-rule:evenodd;clip-rule:evenodd;fill:url(#SVGID_106_);}
	.st117{fill-rule:evenodd;clip-rule:evenodd;fill:url(#SVGID_107_);}
	.st118{fill-rule:evenodd;clip-rule:evenodd;fill:url(#SVGID_108_);}
	.st119{fill-rule:evenodd;clip-rule:evenodd;fill:url(#SVGID_109_);}
	.st120{fill-rule:evenodd;clip-rule:evenodd;fill:url(#SVGID_110_);}
	.st121{fill-rule:evenodd;clip-rule:evenodd;fill:url(#SVGID_111_);}
	.st122{fill-rule:evenodd;clip-rule:evenodd;fill:url(#SVGID_112_);}
	.st123{fill-rule:evenodd;clip-rule:evenodd;fill:url(#SVGID_113_);}
	.st124{fill-rule:evenodd;clip-rule:evenodd;fill:url(#SVGID_114_);}
	.st125{fill-rule:evenodd;clip-rule:evenodd;fill:url(#SVGID_115_);}
	.st126{fill-rule:evenodd;clip-rule:evenodd;fill:url(#SVGID_116_);}
	.st127{fill-rule:evenodd;clip-rule:evenodd;fill:url(#SVGID_117_);}
	.st128{fill-rule:evenodd;clip-rule:evenodd;fill:url(#SVGID_118_);}
	.st129{fill-rule:evenodd;clip-rule:evenodd;fill:url(#SVGID_119_);}
	.st130{fill-rule:evenodd;clip-rule:evenodd;fill:url(#SVGID_120_);}
	.st131{fill-rule:evenodd;clip-rule:evenodd;fill:url(#SVGID_121_);}
	.st132{fill-rule:evenodd;clip-rule:evenodd;fill:url(#SVGID_122_);}
	.st133{fill-rule:evenodd;clip-rule:evenodd;fill:url(#SVGID_123_);}
	.st134{fill-rule:evenodd;clip-rule:evenodd;fill:url(#SVGID_124_);}
	.st135{fill-rule:evenodd;clip-rule:evenodd;fill:url(#SVGID_125_);}
	.st136{fill-rule:evenodd;clip-rule:evenodd;fill:url(#SVGID_126_);}
	.st137{fill-rule:evenodd;clip-rule:evenodd;fill:url(#SVGID_127_);}
	.st138{fill-rule:evenodd;clip-rule:evenodd;fill:url(#SVGID_128_);}
	.st139{fill-rule:evenodd;clip-rule:evenodd;fill:url(#SVGID_129_);}
	.st140{fill-rule:evenodd;clip-rule:evenodd;fill:url(#SVGID_130_);}
	.st141{fill-rule:evenodd;clip-rule:evenodd;fill:url(#SVGID_131_);}
	.st142{fill-rule:evenodd;clip-rule:evenodd;fill:url(#SVGID_132_);}
	.st143{fill-rule:evenodd;clip-rule:evenodd;fill:url(#SVGID_133_);}
	.st144{fill-rule:evenodd;clip-rule:evenodd;fill:url(#SVGID_134_);}
	.st145{fill-rule:evenodd;clip-rule:evenodd;fill:url(#SVGID_135_);}
	.st146{fill-rule:evenodd;clip-rule:evenodd;fill:url(#SVGID_136_);}
	.st147{fill-rule:evenodd;clip-rule:evenodd;fill:url(#SVGID_137_);}
	.st148{fill-rule:evenodd;clip-rule:evenodd;fill:url(#SVGID_138_);}
	.st149{fill-rule:evenodd;clip-rule:evenodd;fill:url(#SVGID_139_);}
	.st150{fill-rule:evenodd;clip-rule:evenodd;fill:url(#SVGID_140_);}
	.st151{fill-rule:evenodd;clip-rule:evenodd;fill:url(#SVGID_141_);}
	.st152{fill-rule:evenodd;clip-rule:evenodd;fill:url(#SVGID_142_);}
	.st153{fill-rule:evenodd;clip-rule:evenodd;fill:url(#SVGID_143_);}
	.st154{fill-rule:evenodd;clip-rule:evenodd;fill:url(#SVGID_144_);}
	.st155{fill-rule:evenodd;clip-rule:evenodd;fill:url(#SVGID_145_);}
	.st156{fill-rule:evenodd;clip-rule:evenodd;fill:url(#SVGID_146_);}
	.st157{fill-rule:evenodd;clip-rule:evenodd;fill:url(#SVGID_147_);}
	.st158{fill-rule:evenodd;clip-rule:evenodd;fill:url(#SVGID_148_);}
	.st159{fill-rule:evenodd;clip-rule:evenodd;fill:url(#SVGID_149_);}
	.st160{fill-rule:evenodd;clip-rule:evenodd;fill:url(#SVGID_150_);}
	.st161{fill-rule:evenodd;clip-rule:evenodd;fill:url(#SVGID_151_);}
	.st162{fill-rule:evenodd;clip-rule:evenodd;fill:url(#SVGID_152_);}
	.st163{fill-rule:evenodd;clip-rule:evenodd;fill:url(#SVGID_153_);}
	.st164{fill-rule:evenodd;clip-rule:evenodd;fill:url(#SVGID_154_);}
	.st165{fill-rule:evenodd;clip-rule:evenodd;fill:url(#SVGID_155_);}
	.st166{fill-rule:evenodd;clip-rule:evenodd;fill:url(#SVGID_156_);}
	.st167{fill-rule:evenodd;clip-rule:evenodd;fill:url(#SVGID_157_);}
	.st168{fill-rule:evenodd;clip-rule:evenodd;fill:url(#SVGID_158_);}
	.st169{fill-rule:evenodd;clip-rule:evenodd;fill:url(#SVGID_159_);}
	.st170{fill-rule:evenodd;clip-rule:evenodd;fill:url(#SVGID_160_);}
	.st171{fill:url(#SVGID_161_);}
	.st172{opacity:0.39;}
	.st173{fill:url(#SVGID_162_);}
	.st174{fill:none;stroke:#FFF8FF;stroke-width:3.6156;stroke-linecap:round;stroke-miterlimit:10;stroke-dasharray:7.2726,7.2726;}
	.st175{fill:url(#SVGID_163_);}
	.st176{fill:url(#SVGID_164_);}
	.st177{fill:url(#SVGID_165_);}
	.st178{fill:url(#SVGID_166_);}
	.st179{fill:url(#SVGID_167_);}
	.st180{fill:url(#SVGID_168_);}
	.st181{fill:url(#SVGID_169_);}
	.st182{fill:url(#SVGID_170_);}
	.st183{fill:url(#SVGID_171_);}
	.st184{fill:url(#SVGID_172_);}
	.st185{fill:url(#SVGID_173_);}
	.st186{fill:url(#SVGID_174_);}
	.st187{fill:url(#SVGID_175_);}
	.st188{fill:url(#SVGID_176_);}
	.st189{fill:url(#SVGID_177_);}
	.st190{fill:url(#SVGID_178_);}
	.st191{fill:url(#SVGID_179_);}
	.st192{fill:url(#SVGID_180_);}
	.st193{fill:url(#SVGID_181_);}
	.st194{fill:url(#SVGID_182_);}
	.st195{fill:url(#SVGID_183_);}
	.st196{fill:url(#SVGID_184_);}
	.st197{fill:url(#SVGID_185_);}
	.st198{fill:url(#SVGID_186_);}
	.st199{fill:url(#SVGID_187_);}
	.st200{fill:url(#SVGID_188_);}
	.st201{fill:url(#SVGID_189_);}
	.st202{fill:url(#SVGID_190_);}
	.st203{fill:url(#SVGID_191_);}
	.st204{fill:url(#SVGID_192_);}
	.st205{fill:url(#SVGID_193_);}
	.st206{fill:url(#SVGID_194_);}
	.st207{fill:url(#SVGID_195_);}
	.st208{fill:url(#SVGID_196_);}
	.st209{fill:url(#SVGID_197_);}
	.st210{fill:url(#SVGID_198_);}
	.st211{fill:url(#SVGID_199_);}
	.st212{fill:url(#SVGID_200_);}
	.st213{fill:url(#SVGID_201_);}
	.st214{fill:url(#SVGID_202_);}
	.st215{fill:url(#SVGID_203_);}
	.st216{fill:url(#SVGID_204_);}
	.st217{fill:url(#SVGID_205_);}
	.st218{fill:url(#SVGID_206_);}
	.st219{fill:url(#SVGID_207_);}
	.st220{fill:url(#SVGID_208_);}
	.st221{fill:url(#SVGID_209_);}
	.st222{fill:url(#SVGID_210_);}
	.st223{fill:url(#SVGID_211_);}
	.st224{fill:url(#SVGID_212_);}
	.st225{fill:url(#SVGID_213_);}
	.st226{fill:url(#SVGID_214_);}
	.st227{fill:url(#SVGID_215_);}
	.st228{fill:url(#SVGID_216_);}
	.st229{fill:url(#SVGID_217_);}
	.st230{fill:url(#SVGID_218_);}
	.st231{fill:url(#SVGID_219_);}
	.st232{fill:url(#SVGID_220_);}
	.st233{fill:url(#SVGID_221_);}
	.st234{fill:url(#SVGID_222_);}
	.st235{fill:url(#SVGID_223_);}
	.st236{fill:url(#SVGID_224_);}
	.st237{fill:url(#SVGID_225_);}
	.st238{fill:url(#SVGID_226_);}
	.st239{fill:url(#SVGID_227_);}
	.st240{fill:url(#SVGID_228_);}
	.st241{fill:url(#SVGID_229_);}
	.st242{fill:url(#SVGID_230_);}
	.st243{fill:url(#SVGID_231_);}
	.st244{fill:url(#SVGID_232_);}
	.st245{fill:url(#SVGID_233_);}
	.st246{fill:url(#SVGID_234_);}
	.st247{fill:url(#SVGID_235_);}
	.st248{fill:url(#SVGID_236_);}
	.st249{fill:url(#SVGID_237_);}
	.st250{fill:url(#SVGID_238_);}
	.st251{fill:url(#SVGID_239_);}
	.st252{fill:url(#SVGID_240_);}
	.st253{fill:url(#SVGID_241_);}
	.st254{fill:url(#SVGID_242_);}
	.st255{fill:url(#SVGID_243_);}
	.st256{fill:url(#SVGID_244_);}
	.st257{fill:url(#SVGID_245_);}
	.st258{fill:url(#SVGID_246_);}
	.st259{fill:url(#SVGID_247_);}
	.st260{fill:url(#SVGID_248_);}
	.st261{fill:url(#SVGID_249_);}
	.st262{fill:url(#SVGID_250_);}
	.st263{fill:url(#SVGID_251_);}
	.st264{fill:url(#SVGID_252_);}
	.st265{fill:url(#SVGID_253_);}
	.st266{fill:url(#SVGID_254_);}
	.st267{fill:url(#SVGID_255_);}
	.st268{fill:url(#SVGID_256_);}
	.st269{fill:url(#SVGID_257_);}
	.st270{fill:url(#SVGID_258_);}
	.st271{fill:url(#SVGID_259_);}
	.st272{fill:url(#SVGID_260_);}
	.st273{fill:url(#SVGID_261_);}
	.st274{fill:url(#SVGID_262_);}
	.st275{fill:url(#SVGID_263_);}
	.st276{fill:url(#SVGID_264_);}
	.st277{fill:url(#SVGID_265_);}
	.st278{fill:url(#SVGID_266_);}
	.st279{fill:url(#SVGID_267_);}
	.st280{fill:url(#SVGID_268_);}
	.st281{fill:url(#SVGID_269_);}
	.st282{fill:url(#SVGID_270_);}
	.st283{fill:url(#SVGID_271_);}
	.st284{fill:url(#SVGID_272_);}
	.st285{fill:url(#SVGID_273_);}
	.st286{fill:url(#SVGID_274_);}
	.st287{fill:url(#SVGID_275_);}
	.st288{fill:url(#SVGID_276_);}
	.st289{fill:url(#SVGID_277_);}
	.st290{fill:url(#SVGID_278_);}
	.st291{fill:url(#SVGID_279_);}
	.st292{fill:url(#SVGID_280_);}
	.st293{fill:url(#SVGID_281_);}
	.st294{fill:url(#SVGID_282_);}
	.st295{fill:url(#SVGID_283_);}
	.st296{fill:url(#SVGID_284_);}
	.st297{fill:url(#SVGID_285_);}
	.st298{fill:url(#SVGID_286_);}
	.st299{fill:url(#SVGID_287_);}
	.st300{fill:url(#SVGID_288_);}
	.st301{fill:url(#SVGID_289_);}
	.st302{fill:url(#SVGID_290_);}
	.st303{fill:url(#SVGID_291_);}
	.st304{fill:url(#SVGID_292_);}
	.st305{fill:url(#SVGID_293_);}
	.st306{fill:url(#SVGID_294_);}
	.st307{fill:url(#SVGID_295_);}
	.st308{fill:url(#SVGID_296_);}
	.st309{fill:url(#SVGID_297_);}
	.st310{fill:url(#SVGID_298_);}
	.st311{fill:url(#SVGID_299_);}
	.st312{fill:url(#SVGID_300_);}
	.st313{fill:url(#SVGID_301_);}
	.st314{fill:url(#SVGID_302_);}
	.st315{fill:url(#SVGID_303_);}
	.st316{fill:url(#SVGID_304_);}
	.st317{fill:url(#SVGID_305_);}
	.st318{fill:url(#SVGID_306_);}
	.st319{fill:url(#SVGID_307_);}
	.st320{fill:url(#SVGID_308_);}
	.st321{fill:url(#SVGID_309_);}
	.st322{fill:url(#SVGID_310_);}
	.st323{fill:url(#SVGID_311_);}
	.st324{fill:url(#SVGID_312_);}
	.st325{fill:url(#SVGID_313_);}
	.st326{fill:url(#SVGID_314_);}
	.st327{fill:url(#SVGID_315_);}
	.st328{fill:url(#SVGID_316_);}
	.st329{fill:url(#SVGID_317_);}
	.st330{fill:url(#SVGID_318_);}
	.st331{fill:url(#SVGID_319_);}
	.st332{fill:url(#SVGID_320_);}
	.st333{fill:url(#SVGID_321_);}
	.st334{fill:url(#SVGID_322_);}
	.st335{fill:url(#SVGID_323_);}
	.st336{fill:url(#SVGID_324_);}
	.st337{fill:url(#SVGID_325_);}
	.st338{fill:url(#SVGID_326_);}
	.st339{fill:url(#SVGID_327_);}
	.st340{fill:url(#SVGID_328_);}
	.st341{fill:url(#SVGID_329_);}
	.st342{fill:url(#SVGID_330_);}
	.st343{fill:url(#SVGID_331_);}
	.st344{fill:url(#SVGID_332_);}
	.st345{fill:url(#SVGID_333_);}
	.st346{fill:url(#SVGID_334_);}
	.st347{fill:url(#SVGID_335_);}
	.st348{fill:url(#SVGID_336_);}
	.st349{fill:url(#SVGID_337_);}
	.st350{fill:url(#SVGID_338_);}
	.st351{fill:url(#SVGID_339_);}
	.st352{fill:url(#SVGID_340_);}
	.st353{fill:url(#SVGID_341_);}
	.st354{fill:url(#SVGID_342_);}
	.st355{fill:url(#SVGID_343_);}
	.st356{fill:url(#SVGID_344_);}
	.st357{fill:url(#SVGID_345_);}
	.st358{fill:url(#SVGID_346_);}
	.st359{fill:url(#SVGID_347_);}
	.st360{fill:url(#SVGID_348_);}
	.st361{fill:url(#SVGID_349_);}
	.st362{fill:url(#SVGID_350_);}
	.st363{fill:url(#SVGID_351_);}
	.st364{fill:url(#SVGID_352_);}
	.st365{fill:url(#SVGID_353_);}
	.st366{fill:url(#SVGID_354_);}
	.st367{fill:url(#SVGID_355_);}
	.st368{fill:url(#SVGID_356_);}
	.st369{fill:url(#SVGID_357_);}
	.st370{fill:url(#SVGID_358_);}
	.st371{fill:url(#SVGID_359_);}
	.st372{fill:url(#SVGID_360_);}
	.st373{fill:url(#SVGID_361_);}
	.st374{fill:url(#SVGID_362_);}
	.st375{fill:url(#SVGID_363_);}
	.st376{fill:url(#SVGID_364_);}
	.st377{fill:url(#SVGID_365_);}
	.st378{fill:url(#SVGID_366_);}
	.st379{fill:url(#SVGID_367_);}
	.st380{fill:url(#SVGID_368_);}
	.st381{fill:url(#SVGID_369_);}
	.st382{fill:url(#SVGID_370_);}
	.st383{fill:url(#SVGID_371_);}
	.st384{fill:url(#SVGID_372_);}
	.st385{fill:url(#SVGID_373_);}
	.st386{fill:url(#SVGID_374_);}
	.st387{fill:url(#SVGID_375_);}
	.st388{fill:url(#SVGID_376_);}
	.st389{fill:url(#SVGID_377_);}
	.st390{fill:url(#SVGID_378_);}
	.st391{fill:url(#SVGID_379_);}
	.st392{fill:url(#SVGID_380_);}
	.st393{fill:url(#SVGID_381_);}
	.st394{fill:url(#SVGID_382_);}
	.st395{fill:url(#SVGID_383_);}
	.st396{fill:url(#SVGID_384_);}
	.st397{fill:url(#SVGID_385_);}
	.st398{fill:url(#SVGID_386_);}
	.st399{fill:url(#SVGID_387_);}
	.st400{fill:url(#SVGID_388_);}
	.st401{fill:url(#SVGID_389_);}
	.st402{fill:url(#SVGID_390_);}
	.st403{fill:url(#SVGID_391_);}
	.st404{fill:url(#SVGID_392_);}
	.st405{fill:url(#SVGID_393_);}
	.st406{fill:url(#SVGID_394_);}
	.st407{fill:url(#SVGID_395_);}
	.st408{fill:url(#SVGID_396_);}
	.st409{fill:url(#SVGID_397_);}
	.st410{fill:url(#SVGID_398_);}
	.st411{fill:url(#SVGID_399_);}
	.st412{fill:url(#SVGID_400_);}
	.st413{fill:url(#SVGID_401_);}
	.st414{fill:url(#SVGID_402_);}
	.st415{fill:url(#SVGID_403_);}
	.st416{fill:url(#SVGID_404_);}
	.st417{fill:url(#SVGID_405_);}
	.st418{fill:url(#SVGID_406_);}
	.st419{fill:url(#SVGID_407_);}
	.st420{fill:url(#SVGID_408_);}
	.st421{fill:url(#SVGID_409_);}
	.st422{fill:url(#SVGID_410_);}
	.st423{fill:url(#SVGID_411_);}
	.st424{fill:url(#SVGID_412_);}
	.st425{fill:url(#SVGID_413_);}
	.st426{fill:url(#SVGID_414_);}
	.st427{fill:url(#SVGID_415_);}
	.st428{fill:url(#SVGID_416_);}
	.st429{fill:url(#SVGID_417_);}
	.st430{fill:url(#SVGID_418_);}
	.st431{fill:url(#SVGID_419_);}
	.st432{fill:url(#SVGID_420_);}
	.st433{fill:url(#SVGID_421_);}
	.st434{fill:url(#SVGID_422_);}
	.st435{fill:url(#SVGID_423_);}
	.st436{fill:url(#SVGID_424_);}
	.st437{fill:url(#SVGID_425_);}
	.st438{fill:url(#SVGID_426_);}
	.st439{fill:url(#SVGID_427_);}
	.st440{fill:url(#SVGID_428_);}
	.st441{fill:url(#SVGID_429_);}
	.st442{fill:url(#SVGID_430_);}
	.st443{fill:url(#SVGID_431_);}
	.st444{fill:url(#SVGID_432_);}
	.st445{fill:url(#SVGID_433_);}
	.st446{fill:url(#SVGID_434_);}
	.st447{fill:url(#SVGID_435_);}
	.st448{fill:url(#SVGID_436_);}
	.st449{fill:url(#SVGID_437_);}
	.st450{fill:url(#SVGID_438_);}
	.st451{fill:url(#SVGID_439_);}
	.st452{fill:url(#SVGID_440_);}
	.st453{fill:url(#SVGID_441_);}
	.st454{fill:url(#SVGID_442_);}
	.st455{fill:url(#SVGID_443_);}
	.st456{fill:url(#SVGID_444_);}
	.st457{fill:url(#SVGID_445_);}
	.st458{fill:url(#SVGID_446_);}
	.st459{fill:url(#SVGID_447_);}
	.st460{fill:url(#SVGID_448_);}
	.st461{fill:url(#SVGID_449_);}
	.st462{fill:url(#SVGID_450_);}
	.st463{fill:url(#SVGID_451_);}
	.st464{fill:url(#SVGID_452_);}
	.st465{fill:url(#SVGID_453_);}
	.st466{fill:url(#SVGID_454_);}
	.st467{fill:url(#SVGID_455_);}
	.st468{fill:url(#SVGID_456_);}
	.st469{fill:url(#SVGID_457_);}
	.st470{fill:url(#SVGID_458_);}
	.st471{fill:url(#SVGID_459_);}
	.st472{fill:url(#SVGID_460_);}
	.st473{fill:url(#SVGID_461_);}
	.st474{fill:url(#SVGID_462_);}
	.st475{fill:url(#SVGID_463_);}
	.st476{fill:url(#SVGID_464_);}
	.st477{fill:url(#SVGID_465_);}
	.st478{fill:url(#SVGID_466_);}
	.st479{fill:url(#SVGID_467_);}
	.st480{fill:url(#SVGID_468_);}
	.st481{fill:url(#SVGID_469_);}
	.st482{fill:url(#SVGID_470_);}
	.st483{fill:url(#SVGID_471_);}
	.st484{fill:url(#SVGID_472_);}
	.st485{fill:url(#SVGID_473_);}
	.st486{fill:url(#SVGID_474_);}
	.st487{fill:url(#SVGID_475_);}
	.st488{fill:url(#SVGID_476_);}
	.st489{fill:url(#SVGID_477_);}
	.st490{fill:url(#SVGID_478_);}
	.st491{fill:url(#SVGID_479_);}
	.st492{fill:url(#SVGID_480_);}
	.st493{fill:url(#SVGID_481_);}
	.st494{fill:url(#SVGID_482_);}
	.st495{fill:url(#SVGID_483_);}
	.st496{fill:url(#SVGID_484_);}
	.st497{fill:url(#SVGID_485_);}
	.st498{fill:url(#SVGID_486_);}
	.st499{fill:url(#SVGID_487_);}
	.st500{fill:url(#SVGID_488_);}
	.st501{fill:url(#SVGID_489_);}
	.st502{fill:url(#SVGID_490_);}
	.st503{fill:url(#SVGID_491_);}
	.st504{fill:url(#SVGID_492_);}
	.st505{fill:url(#SVGID_493_);}
	.st506{fill:url(#SVGID_494_);}
	.st507{fill:url(#SVGID_495_);}
	.st508{fill:url(#SVGID_496_);}
	.st509{fill:url(#SVGID_497_);}
	.st510{fill:url(#SVGID_498_);}
	.st511{fill:url(#SVGID_499_);}
	.st512{fill:url(#SVGID_500_);}
	.st513{fill:url(#SVGID_501_);}
	.st514{fill:url(#SVGID_502_);}
	.st515{fill:url(#SVGID_503_);}
	.st516{fill:url(#SVGID_504_);}
	.st517{fill:url(#SVGID_505_);}
	.st518{fill:url(#SVGID_506_);}
	.st519{fill:url(#SVGID_507_);}
	.st520{fill:url(#SVGID_508_);}
	.st521{fill:url(#SVGID_509_);}
	.st522{fill:url(#SVGID_510_);}
	.st523{fill:url(#SVGID_511_);}
	.st524{fill:url(#SVGID_512_);}
	.st525{fill:url(#SVGID_513_);}
	.st526{fill:url(#SVGID_514_);}
	.st527{fill:url(#SVGID_515_);}
	.st528{fill:url(#SVGID_516_);}
	.st529{fill:url(#SVGID_517_);}
	.st530{fill:url(#SVGID_518_);}
	.st531{fill:url(#SVGID_519_);}
	.st532{fill:url(#SVGID_520_);}
	.st533{fill:url(#SVGID_521_);}
	.st534{fill:url(#SVGID_522_);}
	.st535{fill:url(#SVGID_523_);}
	.st536{fill:url(#SVGID_524_);}
	.st537{fill:url(#SVGID_525_);}
	.st538{fill:url(#SVGID_526_);}
	.st539{fill:url(#SVGID_527_);}
	.st540{fill:url(#SVGID_528_);}
	.st541{fill:url(#SVGID_529_);}
	.st542{fill:url(#SVGID_530_);}
	.st543{fill:url(#SVGID_531_);}
	.st544{fill:url(#SVGID_532_);}
	.st545{fill:url(#SVGID_533_);}
	.st546{fill:url(#SVGID_534_);}
	.st547{fill:url(#SVGID_535_);}
	.st548{fill:url(#SVGID_536_);}
	.st549{fill:url(#SVGID_537_);}
	.st550{fill:url(#SVGID_538_);}
	.st551{fill:url(#SVGID_539_);}
	.st552{fill:url(#SVGID_540_);}
	.st553{fill:url(#SVGID_541_);}
	.st554{fill:url(#SVGID_542_);}
	.st555{fill:url(#SVGID_543_);}
	.st556{fill:url(#SVGID_544_);}
	.st557{fill:url(#SVGID_545_);}
	.st558{fill:url(#SVGID_546_);}
	.st559{fill:url(#SVGID_547_);}
	.st560{fill:url(#SVGID_548_);}
	.st561{fill:url(#SVGID_549_);}
	.st562{fill:url(#SVGID_550_);}
	.st563{clip-path:url(#SVGID_551_);}
	.st564{fill-rule:evenodd;clip-rule:evenodd;fill:#FFFFFF;}
	.st565{fill:url(#SVGID_552_);}
	.st566{fill:url(#SVGID_553_);}
	.st567{fill-rule:evenodd;clip-rule:evenodd;fill:url(#SVGID_555_);}
	.st568{fill-rule:evenodd;clip-rule:evenodd;fill:url(#SVGID_556_);}
	.st569{fill-rule:evenodd;clip-rule:evenodd;fill:url(#SVGID_557_);}
	.st570{fill-rule:evenodd;clip-rule:evenodd;fill:url(#SVGID_558_);}
	.st571{fill-rule:evenodd;clip-rule:evenodd;fill:url(#SVGID_559_);}
	.st572{fill-rule:evenodd;clip-rule:evenodd;fill:url(#SVGID_560_);}
	.st573{fill-rule:evenodd;clip-rule:evenodd;fill:url(#SVGID_561_);}
	.st574{fill-rule:evenodd;clip-rule:evenodd;fill:url(#SVGID_562_);}
	.st575{fill-rule:evenodd;clip-rule:evenodd;fill:url(#SVGID_563_);}
	.st576{fill-rule:evenodd;clip-rule:evenodd;fill:url(#SVGID_564_);}
	.st577{fill-rule:evenodd;clip-rule:evenodd;fill:url(#SVGID_565_);}
	.st578{fill-rule:evenodd;clip-rule:evenodd;}
	.st579{fill-rule:evenodd;clip-rule:evenodd;fill:#666666;}
	.st580{fill:url(#SVGID_566_);}
	.st581{fill:url(#SVGID_567_);}
	.st582{fill:url(#SVGID_568_);}
	.st583{fill:url(#SVGID_569_);}
	.st584{fill:url(#SVGID_570_);}
	.st585{fill:url(#SVGID_571_);}
	.st586{fill:url(#SVGID_572_);}
	.st587{fill:url(#SVGID_573_);}
	.st588{fill:url(#SVGID_574_);}
	.st589{fill:url(#SVGID_575_);}
	.st590{fill:url(#SVGID_576_);}
	.st591{fill:url(#SVGID_577_);}
	.st592{fill:url(#SVGID_578_);}
	.st593{fill:url(#SVGID_579_);}
	.st594{fill:url(#SVGID_580_);}
	.st595{fill:url(#SVGID_581_);}
	.st596{fill:url(#SVGID_582_);}
	.st597{fill:url(#SVGID_583_);}
	.st598{fill:url(#SVGID_584_);}
	.st599{fill:url(#SVGID_585_);}
	.st600{fill:url(#SVGID_586_);}
	.st601{fill:url(#SVGID_587_);}
	.st602{fill:url(#SVGID_588_);}
	.st603{fill:url(#SVGID_589_);}
	.st604{fill:url(#SVGID_590_);}
	.st605{fill:url(#SVGID_591_);}
	.st606{fill:url(#SVGID_592_);}
	.st607{fill:url(#SVGID_593_);}
	.st608{fill:url(#SVGID_594_);}
	.st609{fill:url(#SVGID_595_);}
	.st610{fill:url(#SVGID_596_);}
	.st611{fill:url(#SVGID_597_);}
	.st612{clip-path:url(#SVGID_598_);}
	.st613{clip-path:url(#SVGID_600_);}
	.st614{fill:url(#SVGID_602_);}
	.st615{fill:url(#SVGID_604_);}
	.st616{fill:#606060;}
	.st617{fill:#F68000;}
	
		.st618{fill-rule:evenodd;clip-rule:evenodd;fill:none;stroke:#000000;stroke-width:0.6448;stroke-miterlimit:10;stroke-dasharray:2.579;}
	.st619{fill:url(#SVGID_606_);}
	.st620{fill:url(#SVGID_607_);}
	.st621{fill:url(#SVGID_608_);}
	.st622{fill:url(#SVGID_609_);}
	.st623{opacity:0.5;fill:#383838;}
	.st624{fill:#383838;}
	.st625{fill:#646464;}
	.st626{fill:#494949;}
	.st627{fill:#E7E7E7;}
	.st628{fill:#878787;}
	.st629{fill:#FF8500;}
	.st630{opacity:0.3;}
	.st631{clip-path:url(#SVGID_610_);}
	.st632{fill:#A5A5A5;}
	.st633{fill:#FF5900;}
	.st634{fill:#FF9E00;}
	.st635{clip-path:url(#SVGID_611_);}
	.st636{fill-rule:evenodd;clip-rule:evenodd;fill:url(#SVGID_612_);}
	.st637{fill-rule:evenodd;clip-rule:evenodd;fill:url(#SVGID_614_);}
	.st638{fill-rule:evenodd;clip-rule:evenodd;fill:url(#SVGID_616_);}
	.st639{enable-background:new    ;}
	.st640{fill:url(#SVGID_617_);}
	.st641{fill:url(#SVGID_618_);}
	.st642{fill:url(#SVGID_619_);}
	.st643{fill:url(#SVGID_620_);}
</style>
<g id="Capa_1">
</g>
<g id="Capa_2">
	<g>
		<g>
			<g>
				<path class="st623" d="M129.2,323.4l103.5-59.7c2.9-1.7,2.6-4.6-0.8-6.6l-70.4-40.7c-3.4-2-8.5-2.2-11.4-0.5L46.5,275.7
					c-2.9,1.7-2.6,4.6,0.8,6.6l70.4,40.7C121.1,324.9,126.3,325.1,129.2,323.4z"/>
				<path class="st624" d="M17.5,160.3l107.7-62.2c1.3-0.7,2.5-0.8,3.6-0.4l0,0l0.2,0.1c0,0,0,0,0,0l3.9,1.5l-3.5,1.7
					c0,0.1,0,0.1,0.1,0.2L147,181c0.9,4-0.9,8.7-3.9,10.4L38,252.1l0.4,4.5l-4.3-1.6c-1.4-0.7-2.6-2.2-3-4.3l-17.5-79.8
					C12.7,166.7,14.5,162,17.5,160.3z"/>
				<path class="st625" d="M17.5,160.3l107.7-62.2c1.3-0.7,2.5-0.8,3.6-0.4l0,0l0.2,0.1c0,0,0,0,0,0l3.9,1.5l-3.5,1.7
					c0,0.1,0,0.1,0.1,0.2l11.6,52.6l-52.7,41l-74.3-30.2C14.8,162.7,16,161.2,17.5,160.3z"/>
				<path class="st626" d="M21.6,172.6l-8.2-3.5c-0.2-3.2,1.2-6.5,3.3-8.2l13,5.5L21.6,172.6z"/>
				<path class="st627" d="M42.2,256.1l107.7-62.2c3-1.8,4.8-6.4,3.9-10.4l-17.5-79.8c-0.9-4-4.1-5.8-7.1-4L21.4,161.8
					c-3,1.8-4.8,6.4-3.9,10.4L35.1,252C35.9,256,39.1,257.8,42.2,256.1z"/>
				<path class="st24" d="M20.4,161.4l107.7-62.2c1.5-0.9,3-0.9,4.2-0.2c-1-0.2-2.1-0.1-3.2,0.6L21.4,161.8c-3,1.8-4.8,6.4-3.9,10.4
					L35.1,252c0.5,2.1,1.5,3.5,2.9,4.2c-1.8-0.4-3.3-2-3.9-4.6l-17.5-79.8C15.6,167.8,17.4,163.2,20.4,161.4z"/>
				<path class="st24" d="M44.5,250.1l101.2-58.4c2.8-1.6,4.4-5.9,3.6-9.5l-16-73c-0.8-3.7-3.7-5.3-6.5-3.7L25.5,163.9
					c-2.8,1.6-4.4,5.9-3.6,9.5l16,73C38.8,250.1,41.7,251.8,44.5,250.1z"/>
				<path class="st624" d="M44.5,250.1l101.2-58.4c2.8-1.6,4.4-5.9,3.6-9.5l-16-73c-0.8-3.7-3.7-5.3-6.5-3.7L25.5,163.9
					c-2.8,1.6-4.4,5.9-3.6,9.5l16,73C38.8,250.1,41.7,251.8,44.5,250.1z"/>
				<path class="st628" d="M43.6,249.8l101.2-58.4c2.8-1.6,4.4-5.9,3.6-9.5l-16-73c-0.4-1.8-1.4-3.2-2.6-3.8
					c1.6,0.4,2.9,1.9,3.4,4.2l16,73c0.8,3.7-0.8,7.9-3.6,9.5L44.5,250.1c-1.4,0.8-2.8,0.8-3.9,0.1C41.5,250.5,42.6,250.4,43.6,249.8
					z"/>
				<path class="st624" d="M40.7,258.8l14.7-1.9l95-54.8c3-1.8,8.4-1.5,11.9,0.5l67.3,38.8l8.9-1.2v5l0,0c0.1,1.2-0.6,2.3-2,3.1
					l-107.7,62.2c-3,1.8-8.4,1.5-11.9-0.5l-73.3-42.3c-2-1.1-3-2.6-2.9-4l0,0V258.8z"/>
				<path class="st625" d="M112,224.1l6.7-3.9H193l36.6,21.1l8.9-1.2v5l0,0c0.1,1.2-0.6,2.3-2,3.1l-107.7,62.2
					c-1.6,0.9-3.9,1.3-6.1,1.1L112,224.1z"/>
				<path class="st628" d="M234.5,240.7l3.9-0.5v5l0,0c0.1,1.2-0.6,2.3-2,3.1l-1.9,1.1V240.7z"/>
				<path class="st626" d="M127.7,311c-2.9,1.1-7,0.9-10.1-0.6v-11.3h10.1V311z"/>
				<path class="st627" d="M128.8,305.4l107.7-62.2c3-1.8,2.7-4.8-0.9-6.9l-73.3-42.3c-3.5-2-8.8-2.3-11.9-0.5L42.7,255.8
					c-3,1.8-2.7,4.8,0.9,6.9l73.3,42.3C120.4,307,125.7,307.2,128.8,305.4z"/>
				<path class="st24" d="M43.6,260.8l73.3,42.3c3.5,2,8.8,2.3,11.9,0.5l107.7-62.2c1-0.6,1.6-1.3,1.9-2.1c0.5,1.4-0.1,2.9-1.9,3.9
					l-107.7,62.2c-3,1.8-8.4,1.5-11.9-0.5l-73.3-42.3c-2.4-1.4-3.3-3.2-2.7-4.8C41.2,258.9,42.1,259.9,43.6,260.8z"/>
				<g>
					<path class="st628" d="M190.6,222.7l4.9-2.8c0.4-0.2,0.3-0.6-0.1-0.9l-5.7-3.3c-0.5-0.3-1.1-0.3-1.5-0.1l-4.9,2.8
						c-0.4,0.2-0.3,0.6,0.1,0.9l5.7,3.3C189.6,222.9,190.2,222.9,190.6,222.7z"/>
					<path class="st628" d="M183.1,227.1l4.9-2.8c0.4-0.2,0.3-0.6-0.1-0.9l-5.7-3.3c-0.5-0.3-1.1-0.3-1.5-0.1l-4.9,2.8
						c-0.4,0.2-0.3,0.6,0.1,0.9l5.7,3.3C182,227.3,182.7,227.3,183.1,227.1z"/>
					<path class="st628" d="M175.6,231.4l4.9-2.8c0.4-0.2,0.3-0.6-0.1-0.9l-5.7-3.3c-0.5-0.3-1.1-0.3-1.5-0.1l-4.9,2.8
						c-0.4,0.2-0.3,0.6,0.1,0.9l5.7,3.3C174.5,231.6,175.2,231.6,175.6,231.4z"/>
					<path class="st628" d="M165.2,227.8l4.9-2.8c0.4-0.2,0.3-0.6-0.1-0.9l-4.8-2.8c-0.5-0.3-1.1-0.3-1.5-0.1l-4.9,2.8
						c-0.4,0.2-0.3,0.6,0.1,0.9l4.8,2.8C164.1,228,164.8,228,165.2,227.8z"/>
					<path class="st628" d="M157.7,232.2l4.9-2.8c0.4-0.2,0.3-0.6-0.1-0.9l-4.8-2.8c-0.5-0.3-1.1-0.3-1.5-0.1l-4.9,2.8
						c-0.4,0.2-0.3,0.6,0.1,0.9l4.8,2.8C156.6,232.4,157.3,232.4,157.7,232.2z"/>
					<path class="st628" d="M150.1,236.5l4.9-2.8c0.4-0.2,0.3-0.6-0.1-0.9l-4.8-2.8c-0.5-0.3-1.1-0.3-1.5-0.1l-4.9,2.8
						c-0.4,0.2-0.3,0.6,0.1,0.9l4.8,2.8C149.1,236.7,149.7,236.7,150.1,236.5z"/>
					<path class="st628" d="M142.6,240.8l4.9-2.8c0.4-0.2,0.3-0.6-0.1-0.9l-4.8-2.8c-0.5-0.3-1.1-0.3-1.5-0.1l-4.9,2.8
						c-0.4,0.2-0.3,0.6,0.1,0.9l4.8,2.8C141.5,241,142.2,241.1,142.6,240.8z"/>
					<path class="st628" d="M135.1,245.2l4.9-2.8c0.4-0.2,0.3-0.6-0.1-0.9l-4.8-2.8c-0.5-0.3-1.1-0.3-1.5-0.1l-4.9,2.8
						c-0.4,0.2-0.3,0.6,0.1,0.9l4.8,2.8C134,245.4,134.7,245.4,135.1,245.2z"/>
					<path class="st628" d="M127.6,249.5l4.9-2.8c0.4-0.2,0.3-0.6-0.1-0.9l-4.8-2.8c-0.5-0.3-1.1-0.3-1.5-0.1l-4.9,2.8
						c-0.4,0.2-0.3,0.6,0.1,0.9l4.8,2.8C126.5,249.7,127.2,249.8,127.6,249.5z"/>
					<path class="st628" d="M120,253.9l4.9-2.8c0.4-0.2,0.3-0.6-0.1-0.9l-4.8-2.8c-0.5-0.3-1.1-0.3-1.5-0.1l-4.9,2.8
						c-0.4,0.2-0.3,0.6,0.1,0.9l4.8,2.8C119,254.1,119.7,254.1,120,253.9z"/>
					<path class="st628" d="M112.5,258.2l4.9-2.8c0.4-0.2,0.3-0.6-0.1-0.9l-4.8-2.8c-0.5-0.3-1.1-0.3-1.5-0.1l-4.9,2.8
						c-0.4,0.2-0.3,0.6,0.1,0.9l4.8,2.8C111.4,258.4,112.1,258.4,112.5,258.2z"/>
					<path class="st628" d="M105,262.6l4.9-2.8c0.4-0.2,0.3-0.6-0.1-0.9l-4.8-2.8c-0.5-0.3-1.1-0.3-1.5-0.1l-4.9,2.8
						c-0.4,0.2-0.3,0.6,0.1,0.9l4.8,2.8C103.9,262.8,104.6,262.8,105,262.6z"/>
					<path class="st628" d="M97.5,266.9l4.9-2.8c0.4-0.2,0.3-0.6-0.1-0.9l-4.8-2.8c-0.5-0.3-1.1-0.3-1.5-0.1l-4.9,2.8
						c-0.4,0.2-0.3,0.6,0.1,0.9l4.8,2.8C96.4,267.1,97.1,267.1,97.5,266.9z"/>
					<path class="st628" d="M154.1,225.8l4.9-2.8c0.4-0.2,0.3-0.6-0.1-0.9l-4.8-2.8c-0.5-0.3-1.1-0.3-1.5-0.1l-4.9,2.8
						c-0.4,0.2-0.3,0.6,0.1,0.9l4.8,2.8C153,226,153.7,226,154.1,225.8z"/>
					<path class="st628" d="M161.7,221.4l4.9-2.8c0.4-0.2,0.3-0.6-0.1-0.9l-4.8-2.8c-0.5-0.3-1.1-0.3-1.5-0.1l-4.9,2.8
						c-0.4,0.2-0.3,0.6,0.1,0.9l4.8,2.8C160.7,221.5,161.3,221.6,161.7,221.4z"/>
					<path class="st628" d="M169.4,216.9l10.5-6.1c0.4-0.2,0.3-0.6-0.1-0.9l-4.8-2.8c-0.5-0.3-1.1-0.3-1.5-0.1l-10.5,6.1
						c-0.4,0.2-0.3,0.6,0.1,0.9l4.8,2.8C168.3,217.1,169,217.2,169.4,216.9z"/>
					<path class="st628" d="M164,211.6l8.5-4.9c0.4-0.2,0.3-0.6-0.1-0.9l-4.8-2.8c-0.5-0.3-1.1-0.3-1.5-0.1l-8.5,4.9
						c-0.4,0.2-0.3,0.6,0.1,0.9l4.8,2.8C163,211.8,163.6,211.8,164,211.6z"/>
					<path class="st628" d="M146.6,230.1l4.9-2.8c0.4-0.2,0.3-0.6-0.1-0.9l-4.8-2.8c-0.5-0.3-1.1-0.3-1.5-0.1l-4.9,2.8
						c-0.4,0.2-0.3,0.6,0.1,0.9l4.8,2.8C145.5,230.3,146.2,230.3,146.6,230.1z"/>
					<path class="st628" d="M139.1,234.4l4.9-2.8c0.4-0.2,0.3-0.6-0.1-0.9L139,228c-0.5-0.3-1.1-0.3-1.5-0.1l-4.9,2.8
						c-0.4,0.2-0.3,0.6,0.1,0.9l4.8,2.8C138,234.6,138.7,234.7,139.1,234.4z"/>
					<path class="st628" d="M131.5,238.8l4.9-2.8c0.4-0.2,0.3-0.6-0.1-0.9l-4.8-2.8c-0.5-0.3-1.1-0.3-1.5-0.1l-4.9,2.8
						c-0.4,0.2-0.3,0.6,0.1,0.9l4.8,2.8C130.5,239,131.1,239,131.5,238.8z"/>
					<path class="st628" d="M124,243.1l4.9-2.8c0.4-0.2,0.3-0.6-0.1-0.9l-4.8-2.8c-0.5-0.3-1.1-0.3-1.5-0.1l-4.9,2.8
						c-0.4,0.2-0.3,0.6,0.1,0.9l4.8,2.8C122.9,243.3,123.6,243.4,124,243.1z"/>
					<path class="st628" d="M116.5,247.5l4.9-2.8c0.4-0.2,0.3-0.6-0.1-0.9l-4.8-2.8c-0.5-0.3-1.1-0.3-1.5-0.1l-4.9,2.8
						c-0.4,0.2-0.3,0.6,0.1,0.9l4.8,2.8C115.4,247.7,116.1,247.7,116.5,247.5z"/>
					<path class="st628" d="M109,251.8l4.9-2.8c0.4-0.2,0.3-0.6-0.1-0.9l-4.8-2.8c-0.5-0.3-1.1-0.3-1.5-0.1l-4.9,2.8
						c-0.4,0.2-0.3,0.6,0.1,0.9l4.8,2.8C107.9,252,108.6,252,109,251.8z"/>
					<path class="st628" d="M101.4,256.2l4.9-2.8c0.4-0.2,0.3-0.6-0.1-0.9l-4.8-2.8c-0.5-0.3-1.1-0.3-1.5-0.1l-4.9,2.8
						c-0.4,0.2-0.3,0.6,0.1,0.9l4.8,2.8C100.4,256.4,101,256.4,101.4,256.2z"/>
					<path class="st628" d="M93.9,260.5l4.9-2.8c0.4-0.2,0.3-0.6-0.1-0.9l-4.8-2.8c-0.5-0.3-1.1-0.3-1.5-0.1l-4.9,2.8
						c-0.4,0.2-0.3,0.6,0.1,0.9l4.8,2.8C92.8,260.7,93.5,260.7,93.9,260.5z"/>
					<path class="st628" d="M86.4,264.8l4.9-2.8c0.4-0.2,0.3-0.6-0.1-0.9l-4.8-2.8c-0.5-0.3-1.1-0.3-1.5-0.1l-4.9,2.8
						c-0.4,0.2-0.3,0.6,0.1,0.9l4.8,2.8C85.3,265,86,265.1,86.4,264.8z"/>
					<path class="st628" d="M73,272.6l10.6-6.1c0.4-0.2,0.3-0.6-0.1-0.9l-4.8-2.8c-0.5-0.3-1.1-0.3-1.5-0.1l-10.6,6.1
						c-0.4,0.2-0.3,0.6,0.1,0.9l4.8,2.8C71.9,272.8,72.6,272.8,73,272.6z"/>
					<path class="st628" d="M58.4,264.1l9-5.2c0.4-0.2,0.3-0.6-0.1-0.9l-4.8-2.8c-0.5-0.3-1.1-0.3-1.5-0.1l-9,5.2
						c-0.4,0.2-0.3,0.6,0.1,0.9l4.8,2.8C57.3,264.3,58,264.3,58.4,264.1z"/>
					<path class="st628" d="M133.4,229.3l4.9-2.8c0.4-0.2,0.3-0.6-0.1-0.9l-4.8-2.8c-0.5-0.3-1.1-0.3-1.5-0.1l-4.9,2.8
						c-0.4,0.2-0.3,0.6,0.1,0.9l4.8,2.8C132.3,229.4,133,229.5,133.4,229.3z"/>
					<path class="st628" d="M141.1,224.8l4.9-2.8c0.4-0.2,0.3-0.6-0.1-0.9l-4.8-2.8c-0.5-0.3-1.1-0.3-1.5-0.1l-4.9,2.8
						c-0.4,0.2-0.3,0.6,0.1,0.9l4.8,2.8C140,225,140.7,225,141.1,224.8z"/>
					<path class="st628" d="M148.8,220.3l4.9-2.8c0.4-0.2,0.3-0.6-0.1-0.9l-4.8-2.8c-0.5-0.3-1.1-0.3-1.5-0.1l-4.9,2.8
						c-0.4,0.2-0.3,0.6,0.1,0.9l4.8,2.8C147.7,220.5,148.4,220.6,148.8,220.3z"/>
					<path class="st628" d="M156.5,215.9l4.9-2.8c0.4-0.2,0.3-0.6-0.1-0.9l-4.8-2.8c-0.5-0.3-1.1-0.3-1.5-0.1l-4.9,2.8
						c-0.4,0.2-0.3,0.6,0.1,0.9l4.8,2.8C155.5,216.1,156.1,216.1,156.5,215.9z"/>
					<path class="st628" d="M125.9,233.6l4.9-2.8c0.4-0.2,0.3-0.6-0.1-0.9l-4.8-2.8c-0.5-0.3-1.1-0.3-1.5-0.1l-4.9,2.8
						c-0.4,0.2-0.3,0.6,0.1,0.9l4.8,2.8C124.8,233.8,125.5,233.8,125.9,233.6z"/>
					<path class="st628" d="M118.4,237.9l4.9-2.8c0.4-0.2,0.3-0.6-0.1-0.9l-4.8-2.8c-0.5-0.3-1.1-0.3-1.5-0.1l-4.9,2.8
						c-0.4,0.2-0.3,0.6,0.1,0.9l4.8,2.8C117.3,238.1,118,238.2,118.4,237.9z"/>
					<path class="st628" d="M110.8,242.3l4.9-2.8c0.4-0.2,0.3-0.6-0.1-0.9l-4.8-2.8c-0.5-0.3-1.1-0.3-1.5-0.1l-4.9,2.8
						c-0.4,0.2-0.3,0.6,0.1,0.9l4.8,2.8C109.8,242.5,110.4,242.5,110.8,242.3z"/>
					<path class="st628" d="M103.3,246.6l4.9-2.8c0.4-0.2,0.3-0.6-0.1-0.9l-4.8-2.8c-0.5-0.3-1.1-0.3-1.5-0.1l-4.9,2.8
						c-0.4,0.2-0.3,0.6,0.1,0.9l4.8,2.8C102.2,246.8,102.9,246.8,103.3,246.6z"/>
					<path class="st628" d="M95.8,251l4.9-2.8c0.4-0.2,0.3-0.6-0.1-0.9l-4.8-2.8c-0.5-0.3-1.1-0.3-1.5-0.1l-4.9,2.8
						c-0.4,0.2-0.3,0.6,0.1,0.9l4.8,2.8C94.7,251.2,95.4,251.2,95.8,251z"/>
					<path class="st628" d="M88.3,255.3l4.9-2.8c0.4-0.2,0.3-0.6-0.1-0.9l-4.8-2.8c-0.5-0.3-1.1-0.3-1.5-0.1l-4.9,2.8
						c-0.4,0.2-0.3,0.6,0.1,0.9l4.8,2.8C87.2,255.5,87.9,255.5,88.3,255.3z"/>
					<path class="st628" d="M80.7,259.7l4.9-2.8c0.4-0.2,0.3-0.6-0.1-0.9l-4.8-2.8c-0.5-0.3-1.1-0.3-1.5-0.1l-4.9,2.8
						c-0.4,0.2-0.3,0.6,0.1,0.9l4.8,2.8C79.7,259.8,80.4,259.9,80.7,259.7z"/>
					<path class="st628" d="M73.2,264l4.9-2.8c0.4-0.2,0.3-0.6-0.1-0.9l-4.8-2.8c-0.5-0.3-1.1-0.3-1.5-0.1l-4.9,2.8
						c-0.4,0.2-0.3,0.6,0.1,0.9l4.8,2.8C72.1,264.2,72.8,264.2,73.2,264z"/>
					<path class="st628" d="M65.7,268.3l4.9-2.8c0.4-0.2,0.3-0.6-0.1-0.9l-4.8-2.8c-0.5-0.3-1.1-0.3-1.5-0.1l-4.9,2.8
						c-0.4,0.2-0.3,0.6,0.1,0.9l4.8,2.8C64.6,268.5,65.3,268.6,65.7,268.3z"/>
					<path class="st628" d="M137.4,218.5l4.9-2.8c0.4-0.2,0.3-0.6-0.1-0.9l-4.8-2.8c-0.5-0.3-1.1-0.3-1.5-0.1l-4.9,2.8
						c-0.4,0.2-0.3,0.6,0.1,0.9l4.8,2.8C136.3,218.7,137,218.7,137.4,218.5z"/>
					<path class="st628" d="M144.8,214.2l4.9-2.8c0.4-0.2,0.3-0.6-0.1-0.9l-4.8-2.8c-0.5-0.3-1.1-0.3-1.5-0.1l-4.9,2.8
						c-0.4,0.2-0.3,0.6,0.1,0.9l4.8,2.8C143.8,214.4,144.5,214.4,144.8,214.2z"/>
					<path class="st628" d="M152.3,209.9l4.9-2.8c0.4-0.2,0.3-0.6-0.1-0.9l-4.8-2.8c-0.5-0.3-1.1-0.3-1.5-0.1l-4.9,2.8
						c-0.4,0.2-0.3,0.6,0.1,0.9l4.8,2.8C151.3,210.1,151.9,210.1,152.3,209.9z"/>
					<path class="st628" d="M159.8,205.5l4.9-2.8c0.4-0.2,0.3-0.6-0.1-0.9l-4.8-2.8c-0.5-0.3-1.1-0.3-1.5-0.1l-4.9,2.8
						c-0.4,0.2-0.3,0.6,0.1,0.9l4.8,2.8C158.7,205.7,159.4,205.8,159.8,205.5z"/>
					<path class="st628" d="M152.1,201.1l4.9-2.8c0.4-0.2,0.3-0.6-0.1-0.9l-1.6-0.9c-0.5-0.3-1.1-0.3-1.5-0.1l-4.9,2.8
						c-0.4,0.2-0.3,0.6,0.1,0.9l1.6,0.9C151,201.3,151.7,201.3,152.1,201.1z"/>
					<path class="st628" d="M142.4,206.7l4.9-2.8c0.4-0.2,0.3-0.6-0.1-0.9l-1.6-0.9c-0.5-0.3-1.1-0.3-1.5-0.1l-4.9,2.8
						c-0.4,0.2-0.3,0.6,0.1,0.9l1.6,0.9C141.3,206.9,142,207,142.4,206.7z"/>
					<path class="st628" d="M134.9,211l4.9-2.8c0.4-0.2,0.3-0.6-0.1-0.9l-1.6-0.9c-0.5-0.3-1.1-0.3-1.5-0.1l-4.9,2.8
						c-0.4,0.2-0.3,0.6,0.1,0.9l1.6,0.9C133.8,211.2,134.5,211.3,134.9,211z"/>
					<path class="st628" d="M127.4,215.3l4.9-2.8c0.4-0.2,0.3-0.6-0.1-0.9l-1.6-0.9c-0.5-0.3-1.1-0.3-1.5-0.1l-4.9,2.8
						c-0.4,0.2-0.3,0.6,0.1,0.9l1.6,0.9C126.4,215.5,127.1,215.6,127.4,215.3z"/>
					<path class="st628" d="M120,219.7l4.9-2.8c0.4-0.2,0.3-0.6-0.1-0.9l-1.6-0.9c-0.5-0.3-1.1-0.3-1.5-0.1l-4.9,2.8
						c-0.4,0.2-0.3,0.6,0.1,0.9l1.6,0.9C118.9,219.8,119.6,219.9,120,219.7z"/>
					<path class="st628" d="M78.4,243.7l4.9-2.8c0.4-0.2,0.3-0.6-0.1-0.9l-1.6-0.9c-0.5-0.3-1.1-0.3-1.5-0.1l-4.9,2.8
						c-0.4,0.2-0.3,0.6,0.1,0.9l1.6,0.9C77.3,243.9,78,243.9,78.4,243.7z"/>
					<path class="st628" d="M70.9,248l4.9-2.8c0.4-0.2,0.3-0.6-0.1-0.9l-1.6-0.9c-0.5-0.3-1.1-0.3-1.5-0.1l-4.9,2.8
						c-0.4,0.2-0.3,0.6,0.1,0.9l1.6,0.9C69.9,248.2,70.5,248.2,70.9,248z"/>
					<path class="st628" d="M63.5,252.3l4.9-2.8c0.4-0.2,0.3-0.6-0.1-0.9l-1.6-0.9c-0.5-0.3-1.1-0.3-1.5-0.1l-4.9,2.8
						c-0.4,0.2-0.3,0.6,0.1,0.9l1.6,0.9C62.4,252.5,63.1,252.5,63.5,252.3z"/>
					<path class="st628" d="M56,256.6l4.9-2.8c0.4-0.2,0.3-0.6-0.1-0.9l-1.6-0.9c-0.5-0.3-1.1-0.3-1.5-0.1l-4.9,2.8
						c-0.4,0.2-0.3,0.6,0.1,0.9l1.6,0.9C54.9,256.8,55.6,256.8,56,256.6z"/>
					<path class="st628" d="M129.8,222.9l4.9-2.8c0.4-0.2,0.3-0.6-0.1-0.9l-4.8-2.8c-0.5-0.3-1.1-0.3-1.5-0.1l-4.9,2.8
						c-0.4,0.2-0.3,0.6,0.1,0.9l4.8,2.8C128.8,223.1,129.4,223.1,129.8,222.9z"/>
					<path class="st628" d="M122.3,227.2l4.9-2.8c0.4-0.2,0.3-0.6-0.1-0.9l-4.8-2.8c-0.5-0.3-1.1-0.3-1.5-0.1l-4.9,2.8
						c-0.4,0.2-0.3,0.6,0.1,0.9l4.8,2.8C121.2,227.4,121.9,227.4,122.3,227.2z"/>
					<path class="st628" d="M114.8,231.5l4.9-2.8c0.4-0.2,0.3-0.6-0.1-0.9l-4.8-2.8c-0.5-0.3-1.1-0.3-1.5-0.1l-4.9,2.8
						c-0.4,0.2-0.3,0.6,0.1,0.9l4.8,2.8C113.7,231.7,114.4,231.8,114.8,231.5z"/>
					<path class="st628" d="M107.3,235.9l4.9-2.8c0.4-0.2,0.3-0.6-0.1-0.9l-4.8-2.8c-0.5-0.3-1.1-0.3-1.5-0.1l-4.9,2.8
						c-0.4,0.2-0.3,0.6,0.1,0.9l4.8,2.8C106.2,236.1,106.9,236.1,107.3,235.9z"/>
					<path class="st628" d="M99.8,240.2l4.9-2.8c0.4-0.2,0.3-0.6-0.1-0.9l-4.8-2.8c-0.5-0.3-1.1-0.3-1.5-0.1l-4.9,2.8
						c-0.4,0.2-0.3,0.6,0.1,0.9l4.8,2.8C98.7,240.4,99.4,240.5,99.8,240.2z"/>
					<path class="st628" d="M92.2,244.6l4.9-2.8c0.4-0.2,0.3-0.6-0.1-0.9l-4.8-2.8c-0.5-0.3-1.1-0.3-1.5-0.1l-4.9,2.8
						c-0.4,0.2-0.3,0.6,0.1,0.9l4.8,2.8C91.2,244.8,91.8,244.8,92.2,244.6z"/>
					<path class="st628" d="M84.7,248.9l4.9-2.8c0.4-0.2,0.3-0.6-0.1-0.9l-4.8-2.8c-0.5-0.3-1.1-0.3-1.5-0.1l-4.9,2.8
						c-0.4,0.2-0.3,0.6,0.1,0.9l4.8,2.8C83.6,249.1,84.3,249.1,84.7,248.9z"/>
					<path class="st628" d="M77.2,253.3l4.9-2.8c0.4-0.2,0.3-0.6-0.1-0.9l-4.8-2.8c-0.5-0.3-1.1-0.3-1.5-0.1l-4.9,2.8
						c-0.4,0.2-0.3,0.6,0.1,0.9l4.8,2.8C76.1,253.5,76.8,253.5,77.2,253.3z"/>
					<path class="st628" d="M69.7,257.6l4.9-2.8c0.4-0.2,0.3-0.6-0.1-0.9l-4.8-2.8c-0.5-0.3-1.1-0.3-1.5-0.1l-4.9,2.8
						c-0.4,0.2-0.3,0.6,0.1,0.9l4.8,2.8C68.6,257.8,69.3,257.8,69.7,257.6z"/>
					<path class="st628" d="M172.8,223.4l14.3-8.3c0.4-0.2,0.3-0.6-0.1-0.9l-4.8-2.8c-0.5-0.3-1.1-0.3-1.5-0.1l-14.3,8.3
						c-0.4,0.2-0.3,0.6,0.1,0.9l4.8,2.8C171.8,223.6,172.5,223.6,172.8,223.4z"/>
					<path class="st628" d="M80.4,276.7l14.3-8.3c0.4-0.2,0.3-0.6-0.1-0.9l-4.8-2.8c-0.5-0.3-1.1-0.3-1.5-0.1L74,273
						c-0.4,0.2-0.3,0.6,0.1,0.9l4.8,2.8C79.4,276.9,80,277,80.4,276.7z"/>
					<path class="st628" d="M110.5,269l4.9-2.8c0.4-0.2,0.3-0.6-0.1-0.9l-5.7-3.3c-0.5-0.3-1.1-0.3-1.5-0.1l-4.9,2.8
						c-0.4,0.2-0.3,0.6,0.1,0.9l5.7,3.3C109.4,269.2,110.1,269.2,110.5,269z"/>
					<path class="st628" d="M165.1,237.4l7.8-4.5c0.4-0.2,0.3-0.6-0.1-0.9l-5.7-3.3c-0.5-0.3-1.1-0.3-1.5-0.1l-7.8,4.5
						c-0.4,0.2-0.3,0.6,0.1,0.9l5.7,3.3C164.1,237.6,164.8,237.7,165.1,237.4z"/>
					<path class="st628" d="M117.8,264.8l7.8-4.5c0.4-0.2,0.3-0.6-0.1-0.9l-5.7-3.3c-0.5-0.3-1.1-0.3-1.5-0.1l-7.8,4.5
						c-0.4,0.2-0.3,0.6,0.1,0.9l5.7,3.3C116.7,265,117.4,265,117.8,264.8z"/>
					<path class="st628" d="M154.3,243.7l7.8-4.5c0.4-0.2,0.3-0.6-0.1-0.9l-5.7-3.3c-0.5-0.3-1.1-0.3-1.5-0.1l-7.8,4.5
						c-0.4,0.2-0.3,0.6,0.1,0.9l5.7,3.3C153.2,243.9,153.9,243.9,154.3,243.7z"/>
					<path class="st628" d="M154.6,235l-33.9,19.6c-0.4,0.2-0.4,0.6,0,0.9l5.9,3.4c0.4,0.2,1.1,0.2,1.5,0l33.9-19.6L154.6,235z"/>
					<path class="st628" d="M89.5,276.8l-5.4,3.1c-0.3,0.2-0.3,0.5,0.1,0.7l2.4,1.4c0.4,0.2,0.9,0.2,1.3,0.1l5.4-3.1
						c0.3-0.2,0.3-0.5-0.1-0.7l-2.4-1.4C90.4,276.7,89.8,276.7,89.5,276.8z"/>
					<path class="st628" d="M97.1,272.5l-5.4,3.1c-0.3,0.2-0.3,0.5,0.1,0.7l2.4,1.4c0.4,0.2,0.9,0.2,1.3,0.1l5.4-3.1
						c0.3-0.2,0.3-0.5-0.1-0.7l-2.4-1.4C98,272.3,97.4,272.3,97.1,272.5z"/>
					<path class="st628" d="M104.6,268.1l-5.4,3.1c-0.3,0.2-0.3,0.5,0.1,0.7l2.4,1.4c0.4,0.2,0.9,0.2,1.3,0.1l5.4-3.1
						c0.3-0.2,0.3-0.5-0.1-0.7l-2.4-1.4C105.5,268,104.9,267.9,104.6,268.1z"/>
					<path class="st628" d="M92.9,270.1l-5.4,3.1c-0.3,0.2-0.3,0.5,0.1,0.7l2.4,1.4c0.4,0.2,0.9,0.2,1.3,0.1l5.4-3.1
						c0.3-0.2,0.3-0.5-0.1-0.7l-2.4-1.4C93.8,269.9,93.2,269.9,92.9,270.1z"/>
				</g>
				<g>
					<polygon class="st627" points="63.2,185.3 103.7,161.9 103.2,159.3 62.7,182.7 					"/>
					<polygon class="st627" points="77.7,189.8 106,173.4 105.5,170.8 77.2,187.1 					"/>
					<polygon class="st24" points="80.4,181.8 104.9,167.7 104.3,165.1 79.9,179.2 					"/>
					<polygon class="st629" points="64.3,191.1 76.6,184 76.1,181.4 63.8,188.4 					"/>
					<polygon class="st627" points="108,138.9 120.3,131.9 119.8,129.3 107.5,136.3 					"/>
					<polygon class="st24" points="109.4,145.1 121.6,138 121.1,135.4 108.8,142.4 					"/>
					<polygon class="st627" points="49.3,230 61.6,222.9 61,220.3 48.8,227.3 					"/>
					<polygon class="st627" points="112,157.3 124.3,150.2 123.7,147.6 111.5,154.7 					"/>
				</g>
				<g>
					<path class="st629" d="M85.6,159.2c0.4,0.9,1.4,1.2,2.2,0.7c0.8-0.5,1.2-1.6,0.8-2.4c-0.4-0.9-1.4-1.2-2.2-0.7
						C85.6,157.3,85.2,158.4,85.6,159.2z"/>
					<path class="st24" d="M80.3,162.3c0.4,0.9,1.4,1.2,2.2,0.7c0.8-0.5,1.2-1.6,0.8-2.4c-0.4-0.9-1.4-1.2-2.2-0.7
						C80.3,160.3,79.9,161.4,80.3,162.3z"/>
					<path class="st627" d="M75.1,165.3c0.4,0.9,1.4,1.2,2.2,0.7c0.8-0.5,1.2-1.6,0.8-2.4c-0.4-0.9-1.4-1.2-2.2-0.7
						C75,163.4,74.7,164.4,75.1,165.3z"/>
					<path class="st629" d="M69.8,168.3c0.4,0.9,1.4,1.2,2.2,0.7c0.8-0.5,1.2-1.6,0.8-2.4c-0.4-0.9-1.4-1.2-2.2-0.7
						C69.7,166.4,69.4,167.5,69.8,168.3z"/>
				</g>
				<path class="st24" d="M157.4,278l33.6-19.4c1-0.6,0.9-1.6-0.3-2.2l-20.3-11.7c-1.1-0.7-2.8-0.7-3.8-0.2L133,263.9
					c-1,0.6-0.9,1.6,0.3,2.2l20.3,11.7C154.7,278.5,156.4,278.5,157.4,278z"/>
			</g>
			<g class="st630">
				<defs>
					<path id="SVGID_613_" class="st630" d="M66.2,231.1l-16.5-67.3l62.3-36.9L76,110.3l-46.2,17.8c0,0-0.3,81.5,0,82.3
						c0.3,0.8,17.1,28.1,17.1,28.1L66.2,231.1z"/>
				</defs>
				<clipPath id="SVGID_1_">
					<use xlink:href="#SVGID_613_"  style="overflow:visible;"/>
				</clipPath>
				<g style="clip-path:url(#SVGID_1_);">
					<g>
						<g>
							<path class="st627" d="M84.5,190.6c-2.3,1.3-2.3,3.5,0,4.8l39.3,22.7c0.6,0.4,1.7,0.4,2.3,0c0.6-0.4,0.6-1,0-1.3l-39.3-22.7
								c-1-0.6-1-1.6,0-2.2l3.8-2.2c-0.4-0.6-0.8-1.3-1.2-2L84.5,190.6z"/>
							<path class="st628" d="M140.2,208.7L100.9,186c-2.3-1.3-6.1-1.3-8.4,0l-3,1.8c0.4,0.7,0.8,1.3,1.2,2l4.2-2.4
								c1-0.6,2.7-0.6,3.8,0l39.3,22.7c0.6,0.4,1.7,0.4,2.3,0C140.8,209.7,140.8,209.1,140.2,208.7z"/>
						</g>
						<polygon class="st628" points="140.7,209.5 140.7,154.2 99.4,131.2 93.7,130.8 88.1,134.4 84.7,137.4 124.8,201.1 138,208.8 
													"/>
						<polygon class="st632" points="125.4,216.4 137.7,209.3 137.7,155.9 125,161.8 						"/>
						<polygon class="st627" points="82.7,137.8 82.7,193 126,217.8 126.6,217.5 126.6,162.3 						"/>
						<g>
							<path class="st24" d="M107.1,138.3l-8.6-4.9c-1-0.5-2.6-0.5-3.6,0.1l-8,4.6c-0.6,0.4-0.9,0.8-0.8,1.3l21.7,13l17.5,10.7
								l12.4-7.2L107.1,138.3z"/>
						</g>
						<path class="st628" d="M125,161.4v54.9v1.2v1.1c0.4,0,0.8-0.1,1.1-0.3c0.3-0.2,0.5-0.4,0.5-0.7l0,0v0v0v-55.3L125,161.4z"/>
						<polygon class="st24" points="140.7,154.8 140.7,154.2 140.4,154.2 140.4,154.6 						"/>
						<polygon class="st24" points="126.6,163 126.6,162.3 126.4,162.6 						"/>
						<g>
							<path class="st627" d="M123.8,162.9l-39.3-22.7c-2.3-1.3-2.3-3.5,0-4.8l8-4.6c2.3-1.3,6.1-1.3,8.4,0l39.3,22.7
								c0.6,0.4,0.6,1,0,1.3c-0.6,0.4-1.7,0.4-2.3,0l-39.3-22.7c-1-0.6-2.7-0.6-3.8,0l-8,4.6c-1,0.6-1,1.6,0,2.2l39.3,22.7
								c0.6,0.4,0.6,1,0,1.3C125.5,163.3,124.4,163.3,123.8,162.9z"/>
						</g>
						<polygon class="st24" points="113.6,189.1 93.1,177.3 93.1,156.8 113.6,168.6 						"/>
						<g>
							<path class="st24" d="M140.2,154.8c-0.6,0.4-1.7,0.4-2.3,0l-39.3-22.7c-1-0.6-2.7-0.6-3.8,0l-8,4.6c-0.7,0.4-0.9,1-0.7,1.5
								c0.1-0.3,0.3-0.5,0.7-0.7l8-4.6c1-0.6,2.7-0.6,3.8,0l39.3,22.7c0.6,0.4,1.7,0.4,2.3,0c0.5-0.3,0.6-0.7,0.3-1
								C140.5,154.6,140.3,154.7,140.2,154.8z"/>
							<path class="st24" d="M126.1,162.9c-0.6,0.4-1.7,0.4-2.3,0l-39.3-22.7c-1-0.6-1.6-1.3-1.7-2.1c-0.2,1,0.4,2,1.7,2.8
								l39.3,22.7c0.6,0.4,1.7,0.4,2.3,0c0.5-0.3,0.6-0.7,0.3-1C126.4,162.7,126.3,162.8,126.1,162.9z"/>
						</g>
					</g>
					<g>
						<g>
							<path class="st629" d="M66.4,201.4c-2.3,1.3-2.3,3.5,0,4.8l39.3,22.7c0.6,0.4,1.7,0.4,2.3,0c0.6-0.4,0.6-1,0-1.3l-39.3-22.7
								c-1-0.6-1-1.6,0-2.2l3.8-2.2c-0.4-0.6-0.8-1.3-1.2-2L66.4,201.4z"/>
							<path class="st633" d="M122.1,219.5l-39.3-22.7c-2.3-1.3-6.1-1.3-8.4,0l-3,1.8c0.4,0.7,0.8,1.3,1.2,2l4.2-2.4
								c1-0.6,2.7-0.6,3.8,0l39.3,22.7c0.6,0.4,1.7,0.4,2.3,0C122.7,220.4,122.7,219.8,122.1,219.5z"/>
						</g>
						<polygon class="st633" points="122.6,220.2 122.6,164.9 81.4,141.9 75.6,141.5 70,145.1 66.6,148.1 106.8,211.8 119.9,219.5 
													"/>
						<polygon class="st634" points="107.3,227.1 119.7,220 119.7,166.6 107,172.5 						"/>
						<polygon class="st629" points="64.7,148.5 64.7,203.7 107.9,228.5 108.5,228.2 108.5,173 						"/>
						<g>
							<path class="st24" d="M89,149l-8.6-4.9c-1-0.5-2.6-0.5-3.6,0.1l-8,4.6c-0.6,0.4-0.9,0.8-0.8,1.3l21.7,13l17.5,10.7l12.4-7.2
								L89,149z"/>
						</g>
						<path class="st633" d="M107,172.1V227v1.2v1.1c0.4,0,0.8-0.1,1.1-0.3c0.3-0.2,0.5-0.4,0.5-0.7l0,0v0v0V173L107,172.1z"/>
						<polygon class="st24" points="122.6,165.5 122.6,164.9 122.4,164.9 122.3,165.3 						"/>
						<polygon class="st24" points="108.5,173.7 108.5,173 108.3,173.3 						"/>
						<g>
							<path class="st629" d="M105.7,173.6l-39.3-22.7c-2.3-1.3-2.3-3.5,0-4.8l8-4.6c2.3-1.3,6.1-1.3,8.4,0l39.3,22.7
								c0.6,0.4,0.6,1,0,1.3c-0.6,0.4-1.7,0.4-2.3,0l-39.3-22.7c-1-0.6-2.7-0.6-3.8,0l-8,4.6c-1,0.6-1,1.6,0,2.2l39.3,22.7
								c0.6,0.4,0.6,1,0,1.3C107.4,174,106.4,174,105.7,173.6z"/>
						</g>
						<polygon class="st24" points="95.5,199.8 75,188 75,167.5 95.5,179.3 						"/>
						<g>
							<path class="st24" d="M122.1,165.5c-0.6,0.4-1.7,0.4-2.3,0l-39.3-22.7c-1-0.6-2.7-0.6-3.8,0l-8,4.6c-0.7,0.4-0.9,1-0.7,1.5
								c0.1-0.3,0.3-0.5,0.7-0.7l8-4.6c1-0.6,2.7-0.6,3.8,0l39.3,22.7c0.6,0.4,1.7,0.4,2.3,0c0.5-0.3,0.6-0.7,0.3-1
								C122.4,165.3,122.3,165.4,122.1,165.5z"/>
							<path class="st24" d="M108,173.6c-0.6,0.4-1.7,0.4-2.3,0l-39.3-22.7c-1-0.6-1.6-1.3-1.7-2.1c-0.2,1,0.4,2,1.7,2.8l39.3,22.7
								c0.6,0.4,1.7,0.4,2.3,0c0.5-0.3,0.6-0.7,0.3-1C108.3,173.4,108.2,173.5,108,173.6z"/>
						</g>
					</g>
					<g>
						<g>
							<path class="st627" d="M47.8,212.8c-2.3,1.3-2.3,3.5,0,4.8l39.3,22.7c0.6,0.4,1.7,0.4,2.3,0c0.6-0.4,0.6-1,0-1.3l-39.3-22.7
								c-1-0.6-1-1.6,0-2.2l3.8-2.2c-0.4-0.6-0.8-1.3-1.2-2L47.8,212.8z"/>
							<path class="st628" d="M103.5,230.9l-39.3-22.7c-2.3-1.3-6.1-1.3-8.4,0l-3,1.8c0.4,0.7,0.8,1.3,1.2,2l4.2-2.4
								c1-0.6,2.7-0.6,3.8,0l39.3,22.7c0.6,0.4,1.7,0.4,2.3,0C104.2,231.9,104.2,231.3,103.5,230.9z"/>
						</g>
						<polygon class="st628" points="104,231.6 104,176.3 62.8,153.3 57,152.9 51.4,156.6 48,159.5 88.2,223.2 101.3,230.9 						
							"/>
						<polygon class="st632" points="88.8,238.6 101.1,231.5 101.1,178 88.4,183.9 						"/>
						<polygon class="st627" points="46.1,160 46.1,215.2 89.4,239.9 89.9,239.7 89.9,184.4 						"/>
						<g>
							<path class="st24" d="M70.4,160.4l-8.6-4.9c-1-0.5-2.6-0.5-3.6,0.1l-8,4.6c-0.6,0.4-0.9,0.8-0.8,1.3l21.7,13l17.5,10.7
								l12.4-7.2L70.4,160.4z"/>
						</g>
						<path class="st628" d="M88.4,183.5v54.9v1.2v1.1c0.4,0,0.8-0.1,1.1-0.3c0.3-0.2,0.5-0.4,0.5-0.7l0,0v0v0v-55.3L88.4,183.5z"/>
						<polygon class="st24" points="104,177 104,176.3 103.8,176.3 103.7,176.8 						"/>
						<polygon class="st24" points="89.9,185.1 89.9,184.4 89.7,184.7 						"/>
						<g>
							<path class="st627" d="M87.1,185.1l-39.3-22.7c-2.3-1.3-2.3-3.5,0-4.8l8-4.6c2.3-1.3,6.1-1.3,8.4,0l39.3,22.7
								c0.6,0.4,0.6,1,0,1.3s-1.7,0.4-2.3,0l-39.3-22.7c-1-0.6-2.7-0.6-3.8,0l-8,4.6c-1,0.6-1,1.6,0,2.2l39.3,22.7
								c0.6,0.4,0.6,1,0,1.3C88.8,185.4,87.8,185.4,87.1,185.1z"/>
						</g>
						<polygon class="st24" points="76.9,211.2 56.5,199.4 56.5,178.9 76.9,190.7 						"/>
						<g>
							<path class="st24" d="M103.5,176.9c-0.6,0.4-1.7,0.4-2.3,0l-39.3-22.7c-1-0.6-2.7-0.6-3.8,0l-8,4.6c-0.7,0.4-0.9,1-0.7,1.5
								c0.1-0.3,0.3-0.5,0.7-0.7l8-4.6c1-0.6,2.7-0.6,3.8,0l39.3,22.7c0.6,0.4,1.7,0.4,2.3,0c0.5-0.3,0.6-0.7,0.3-1
								C103.8,176.7,103.7,176.8,103.5,176.9z"/>
							<path class="st24" d="M89.5,185.1c-0.6,0.4-1.7,0.4-2.3,0l-39.3-22.7c-1-0.6-1.6-1.3-1.7-2.1c-0.2,1,0.4,2,1.7,2.8l39.3,22.7
								c0.6,0.4,1.7,0.4,2.3,0c0.5-0.3,0.6-0.7,0.3-1C89.7,184.9,89.6,185,89.5,185.1z"/>
						</g>
					</g>
				</g>
			</g>
			<g>
				<defs>
					<path id="SVGID_615_" d="M66.2,231.1l-16.5-67.3l62.3-36.9l75.9,28.2l-58.3,76c0,0-48.1,27.4-47.8,28.2
						c0.3,0.8-34.9-20.8-34.9-20.8L66.2,231.1z"/>
				</defs>
				<clipPath id="SVGID_2_">
					<use xlink:href="#SVGID_615_"  style="overflow:visible;"/>
				</clipPath>
				<g style="clip-path:url(#SVGID_2_);">
					<g>
						<g>
							<path class="st627" d="M84.5,190.6c-2.3,1.3-2.3,3.5,0,4.8l39.3,22.7c0.6,0.4,1.7,0.4,2.3,0c0.6-0.4,0.6-1,0-1.3l-39.3-22.7
								c-1-0.6-1-1.6,0-2.2l3.8-2.2c-0.4-0.6-0.8-1.3-1.2-2L84.5,190.6z"/>
							<path class="st628" d="M140.2,208.7L100.9,186c-2.3-1.3-6.1-1.3-8.4,0l-3,1.8c0.4,0.7,0.8,1.3,1.2,2l4.2-2.4
								c1-0.6,2.7-0.6,3.8,0l39.3,22.7c0.6,0.4,1.7,0.4,2.3,0C140.8,209.7,140.8,209.1,140.2,208.7z"/>
						</g>
						<polygon class="st628" points="140.7,209.5 140.7,154.2 99.4,131.2 93.7,130.8 88.1,134.4 84.7,137.4 124.8,201.1 138,208.8 
													"/>
						<polygon class="st632" points="125.4,216.4 137.7,209.3 137.7,155.9 125,161.8 						"/>
						<polygon class="st627" points="82.7,137.8 82.7,193 126,217.8 126.6,217.5 126.6,162.3 						"/>
						<g>
							<path class="st24" d="M107.1,138.3l-8.6-4.9c-1-0.5-2.6-0.5-3.6,0.1l-8,4.6c-0.6,0.4-0.9,0.8-0.8,1.3l21.7,13l17.5,10.7
								l12.4-7.2L107.1,138.3z"/>
						</g>
						<path class="st628" d="M125,161.4v54.9v1.2v1.1c0.4,0,0.8-0.1,1.1-0.3c0.3-0.2,0.5-0.4,0.5-0.7l0,0v0v0v-55.3L125,161.4z"/>
						<polygon class="st24" points="140.7,154.8 140.7,154.2 140.4,154.2 140.4,154.6 						"/>
						<polygon class="st24" points="126.6,163 126.6,162.3 126.4,162.6 						"/>
						<g>
							<path class="st627" d="M123.8,162.9l-39.3-22.7c-2.3-1.3-2.3-3.5,0-4.8l8-4.6c2.3-1.3,6.1-1.3,8.4,0l39.3,22.7
								c0.6,0.4,0.6,1,0,1.3c-0.6,0.4-1.7,0.4-2.3,0l-39.3-22.7c-1-0.6-2.7-0.6-3.8,0l-8,4.6c-1,0.6-1,1.6,0,2.2l39.3,22.7
								c0.6,0.4,0.6,1,0,1.3C125.5,163.3,124.4,163.3,123.8,162.9z"/>
						</g>
						<polygon class="st24" points="113.6,189.1 93.1,177.3 93.1,156.8 113.6,168.6 						"/>
						<g>
							<path class="st24" d="M140.2,154.8c-0.6,0.4-1.7,0.4-2.3,0l-39.3-22.7c-1-0.6-2.7-0.6-3.8,0l-8,4.6c-0.7,0.4-0.9,1-0.7,1.5
								c0.1-0.3,0.3-0.5,0.7-0.7l8-4.6c1-0.6,2.7-0.6,3.8,0l39.3,22.7c0.6,0.4,1.7,0.4,2.3,0c0.5-0.3,0.6-0.7,0.3-1
								C140.5,154.6,140.3,154.7,140.2,154.8z"/>
							<path class="st24" d="M126.1,162.9c-0.6,0.4-1.7,0.4-2.3,0l-39.3-22.7c-1-0.6-1.6-1.3-1.7-2.1c-0.2,1,0.4,2,1.7,2.8
								l39.3,22.7c0.6,0.4,1.7,0.4,2.3,0c0.5-0.3,0.6-0.7,0.3-1C126.4,162.7,126.3,162.8,126.1,162.9z"/>
						</g>
					</g>
					<g>
						<g>
							<path class="st629" d="M66.4,201.4c-2.3,1.3-2.3,3.5,0,4.8l39.3,22.7c0.6,0.4,1.7,0.4,2.3,0c0.6-0.4,0.6-1,0-1.3l-39.3-22.7
								c-1-0.6-1-1.6,0-2.2l3.8-2.2c-0.4-0.6-0.8-1.3-1.2-2L66.4,201.4z"/>
							<path class="st633" d="M122.1,219.5l-39.3-22.7c-2.3-1.3-6.1-1.3-8.4,0l-3,1.8c0.4,0.7,0.8,1.3,1.2,2l4.2-2.4
								c1-0.6,2.7-0.6,3.8,0l39.3,22.7c0.6,0.4,1.7,0.4,2.3,0C122.7,220.4,122.7,219.8,122.1,219.5z"/>
						</g>
						<polygon class="st633" points="122.6,220.2 122.6,164.9 81.4,141.9 75.6,141.5 70,145.1 66.6,148.1 106.8,211.8 119.9,219.5 
													"/>
						<polygon class="st634" points="107.3,227.1 119.7,220 119.7,166.6 107,172.5 						"/>
						<polygon class="st629" points="64.7,148.5 64.7,203.7 107.9,228.5 108.5,228.2 108.5,173 						"/>
						<g>
							<path class="st24" d="M89,149l-8.6-4.9c-1-0.5-2.6-0.5-3.6,0.1l-8,4.6c-0.6,0.4-0.9,0.8-0.8,1.3l21.7,13l17.5,10.7l12.4-7.2
								L89,149z"/>
						</g>
						<path class="st633" d="M107,172.1V227v1.2v1.1c0.4,0,0.8-0.1,1.1-0.3c0.3-0.2,0.5-0.4,0.5-0.7l0,0v0v0V173L107,172.1z"/>
						<polygon class="st24" points="122.6,165.5 122.6,164.9 122.4,164.9 122.3,165.3 						"/>
						<polygon class="st24" points="108.5,173.7 108.5,173 108.3,173.3 						"/>
						<g>
							<path class="st629" d="M105.7,173.6l-39.3-22.7c-2.3-1.3-2.3-3.5,0-4.8l8-4.6c2.3-1.3,6.1-1.3,8.4,0l39.3,22.7
								c0.6,0.4,0.6,1,0,1.3c-0.6,0.4-1.7,0.4-2.3,0l-39.3-22.7c-1-0.6-2.7-0.6-3.8,0l-8,4.6c-1,0.6-1,1.6,0,2.2l39.3,22.7
								c0.6,0.4,0.6,1,0,1.3C107.4,174,106.4,174,105.7,173.6z"/>
						</g>
						<polygon class="st24" points="95.5,199.8 75,188 75,167.5 95.5,179.3 						"/>
						<g>
							<path class="st24" d="M122.1,165.5c-0.6,0.4-1.7,0.4-2.3,0l-39.3-22.7c-1-0.6-2.7-0.6-3.8,0l-8,4.6c-0.7,0.4-0.9,1-0.7,1.5
								c0.1-0.3,0.3-0.5,0.7-0.7l8-4.6c1-0.6,2.7-0.6,3.8,0l39.3,22.7c0.6,0.4,1.7,0.4,2.3,0c0.5-0.3,0.6-0.7,0.3-1
								C122.4,165.3,122.3,165.4,122.1,165.5z"/>
							<path class="st24" d="M108,173.6c-0.6,0.4-1.7,0.4-2.3,0l-39.3-22.7c-1-0.6-1.6-1.3-1.7-2.1c-0.2,1,0.4,2,1.7,2.8l39.3,22.7
								c0.6,0.4,1.7,0.4,2.3,0c0.5-0.3,0.6-0.7,0.3-1C108.3,173.4,108.2,173.5,108,173.6z"/>
						</g>
					</g>
					<g>
						<g>
							<path class="st627" d="M47.8,212.8c-2.3,1.3-2.3,3.5,0,4.8l39.3,22.7c0.6,0.4,1.7,0.4,2.3,0c0.6-0.4,0.6-1,0-1.3l-39.3-22.7
								c-1-0.6-1-1.6,0-2.2l3.8-2.2c-0.4-0.6-0.8-1.3-1.2-2L47.8,212.8z"/>
							<path class="st628" d="M103.5,230.9l-39.3-22.7c-2.3-1.3-6.1-1.3-8.4,0l-3,1.8c0.4,0.7,0.8,1.3,1.2,2l4.2-2.4
								c1-0.6,2.7-0.6,3.8,0l39.3,22.7c0.6,0.4,1.7,0.4,2.3,0C104.2,231.9,104.2,231.3,103.5,230.9z"/>
						</g>
						<polygon class="st628" points="104,231.6 104,176.3 62.8,153.3 57,152.9 51.4,156.6 48,159.5 88.2,223.2 101.3,230.9 						
							"/>
						<polygon class="st632" points="88.8,238.6 101.1,231.5 101.1,178 88.4,183.9 						"/>
						<polygon class="st627" points="46.1,160 46.1,215.2 89.4,239.9 89.9,239.7 89.9,184.4 						"/>
						<g>
							<path class="st24" d="M70.4,160.4l-8.6-4.9c-1-0.5-2.6-0.5-3.6,0.1l-8,4.6c-0.6,0.4-0.9,0.8-0.8,1.3l21.7,13l17.5,10.7
								l12.4-7.2L70.4,160.4z"/>
						</g>
						<path class="st628" d="M88.4,183.5v54.9v1.2v1.1c0.4,0,0.8-0.1,1.1-0.3c0.3-0.2,0.5-0.4,0.5-0.7l0,0v0v0v-55.3L88.4,183.5z"/>
						<polygon class="st24" points="104,177 104,176.3 103.8,176.3 103.7,176.8 						"/>
						<polygon class="st24" points="89.9,185.1 89.9,184.4 89.7,184.7 						"/>
						<g>
							<path class="st627" d="M87.1,185.1l-39.3-22.7c-2.3-1.3-2.3-3.5,0-4.8l8-4.6c2.3-1.3,6.1-1.3,8.4,0l39.3,22.7
								c0.6,0.4,0.6,1,0,1.3s-1.7,0.4-2.3,0l-39.3-22.7c-1-0.6-2.7-0.6-3.8,0l-8,4.6c-1,0.6-1,1.6,0,2.2l39.3,22.7
								c0.6,0.4,0.6,1,0,1.3C88.8,185.4,87.8,185.4,87.1,185.1z"/>
						</g>
						<polygon class="st24" points="76.9,211.2 56.5,199.4 56.5,178.9 76.9,190.7 						"/>
						<g>
							<path class="st24" d="M103.5,176.9c-0.6,0.4-1.7,0.4-2.3,0l-39.3-22.7c-1-0.6-2.7-0.6-3.8,0l-8,4.6c-0.7,0.4-0.9,1-0.7,1.5
								c0.1-0.3,0.3-0.5,0.7-0.7l8-4.6c1-0.6,2.7-0.6,3.8,0l39.3,22.7c0.6,0.4,1.7,0.4,2.3,0c0.5-0.3,0.6-0.7,0.3-1
								C103.8,176.7,103.7,176.8,103.5,176.9z"/>
							<path class="st24" d="M89.5,185.1c-0.6,0.4-1.7,0.4-2.3,0l-39.3-22.7c-1-0.6-1.6-1.3-1.7-2.1c-0.2,1,0.4,2,1.7,2.8l39.3,22.7
								c0.6,0.4,1.7,0.4,2.3,0c0.5-0.3,0.6-0.7,0.3-1C89.7,184.9,89.6,185,89.5,185.1z"/>
						</g>
					</g>
				</g>
			</g>
			<g>
				<path class="st623" d="M31,301.6c1.6-0.9,4.1-0.9,5.6,0l72.6,42c1.6,0.9,1.6,2.4,0,3.3c-1.6,0.9-4.1,0.9-5.6,0l-72.6-42
					C29.5,303.9,29.5,302.5,31,301.6z"/>
				<g>
					<g>
						<path class="st627" d="M18.6,278.9L18.6,278.9c0.1-0.1,0.2-0.2,0.3-0.1l4.4,1l-1.7,2.9l-3-3.4C18.6,279.1,18.5,279,18.6,278.9
							z"/>
						<g>
							<path class="st628" d="M20.3,281c0-0.6,0.5-1.4,1-1.7c0.3-0.1,0.5-0.2,0.7-0.1c5.1,0,10.1,1.3,14.4,3.9l0.3,0.2l-5.5,9.3
								l-1.6-1.1c-3.4-2.3-6.3-5.2-8.4-8.7l-0.7-1.1C20.4,281.5,20.3,281.3,20.3,281z"/>
							<path class="st627" d="M30.2,290.1c0-2.4,1.7-5.4,3.9-6.6c2.1-1.2,3.8-0.2,3.8,2.2c0,2.4-1.7,5.4-3.9,6.6
								C31.9,293.5,30.2,292.5,30.2,290.1z"/>
							<polygon class="st627" points="63.7,312.8 31.3,292.6 36.8,283.3 70.2,301.8 							"/>
							<path class="st627" d="M62.4,309.8c0-2.9,2.1-6.3,4.6-7.8c2.5-1.4,4.5-0.2,4.5,2.6c0,2.9-2.1,6.3-4.6,7.8
								C64.4,313.9,62.4,312.7,62.4,309.8z"/>
						</g>
						<g>
							<path class="st627" d="M64.3,310.9c0-2.9,2.1-6.3,4.6-7.8c2.5-1.4,4.5-0.2,4.5,2.6c0,2.9-2.1,6.3-4.6,7.8
								C66.3,315,64.2,313.8,64.3,310.9z"/>
							
								<rect x="83.9" y="296.1" transform="matrix(0.5067 -0.8621 0.8621 0.5067 -232.1912 236.0884)" class="st627" width="12.7" height="49.7"/>
							<path class="st627" d="M107.1,336.1c0-2.9,2.1-6.3,4.6-7.8c2.5-1.4,4.5-0.2,4.5,2.6c0,2.9-2.1,6.3-4.6,7.8
								C109.1,340.2,107.1,339,107.1,336.1z"/>
							<path class="st625" d="M108.7,335.2c0.1-1.7,1.5-3.8,3.1-4.7c1.6-0.9,2.8-0.3,2.7,1.4c-0.1,1.7-1.5,3.8-3.1,4.7
								C109.9,337.5,108.6,336.9,108.7,335.2z"/>
						</g>
						<g>
							<path class="st24" d="M62.1,309.6c0-2.9,2.1-6.3,4.6-7.8c1-0.6,1.9-0.7,2.7-0.5c-0.8-0.8-2.1-0.9-3.7-0.1
								c-2.5,1.4-4.5,4.9-4.6,7.8c0,1.7,0.7,2.8,1.8,3.1C62.4,311.6,62.1,310.8,62.1,309.6z"/>
							<path class="st628" d="M62.1,309.6c0-2.9,2.1-6.3,4.6-7.8c1.2-0.7,2.4-0.8,3.2-0.3l2.4,1.4l-1.2,2c-0.2,2.6-2,5.6-4.1,7
								l-1.2,2l-2.4-1.4l0,0C62.6,312.1,62.1,311.1,62.1,309.6z"/>
							<path class="st627" d="M64.5,311.1c0-2.9,2.1-6.3,4.6-7.8c2.5-1.4,4.5-0.2,4.5,2.6s-2.1,6.3-4.6,7.8
								C66.5,315.1,64.5,313.9,64.5,311.1z"/>
						</g>
						<g>
							<path class="st629" d="M110.8,336.5l2.8-4.7l9.1,5.3c1.3,0.8,1.7,2.5,1,3.8l0,0c-0.8,1.3-2.5,1.7-3.8,1L110.8,336.5z"/>
							<path class="st629" d="M110.2,335.2c0-1.2,0.9-2.7,2-3.3s1.9-0.1,1.9,1.1c0,1.2-0.9,2.7-2,3.3
								C111.1,337,110.2,336.4,110.2,335.2z"/>
						</g>
						<g>
							<path class="st628" d="M100.1,318.5l1.4-0.8c0.8-0.4,1.8-0.3,2.9,0.3l4.7,2.7c0.9,0.5,1.6,1.8,1.6,2.8l0,2.3
								c0,0.4,0.2,0.8,0.5,1.2l-0.2,1.1l1.2-0.7l0,0c0.2-0.1,0.3-0.3,0.3-0.6l0-2.3c0-2.1-1.5-4.7-3.3-5.8l-4.7-2.7
								c-1.6-0.9-3-1.1-4.1-0.4l-1.4,0.8c-0.8,0.4-1.8,0.3-2.9-0.3L77.2,305c-0.2-0.1-0.5-0.2-0.6-0.1l0,0l-1.2,0.7l1,0.4
								c0.1,0.4,0.4,0.8,0.8,1L96,318.1C97.5,319,99,319.1,100.1,318.5z"/>
							<path class="st628" d="M100.3,318.4c0.8-0.4,1.8-0.3,2.9,0.3l4.7,2.7c0.9,0.5,1.6,1.8,1.6,2.8l0,2.3c0,0.6,0.4,1.2,0.9,1.5
								c0.5,0.3,0.9,0.1,0.9-0.5l0-2.3c0-2.1-1.5-4.7-3.3-5.8l-4.7-2.7c-1.6-0.9-3-1.1-4.1-0.4l-1.4,0.8c-0.8,0.4-1.8,0.3-2.9-0.3
								L76,305.7c-0.5-0.3-0.9-0.1-0.9,0.5c0,0.6,0.4,1.2,0.9,1.5l18.8,11.1c1.6,0.9,3,1.1,4.1,0.4L100.3,318.4z"/>
							<g>
								<path class="st24" d="M109.5,324.6l0,2.3c0,0,0,0,0,0c0-0.1-0.1-0.3-0.1-0.4l0-2.3c0-0.1,0-0.1,0-0.2
									C109.5,324.2,109.5,324.4,109.5,324.6z"/>
							</g>
						</g>
					</g>
				</g>
			</g>
			<g>
				<g>
					<path class="st623" d="M115.4,284.8c5.8,3.3,15.1,3.3,20.9,0s5.8-8.7,0-12.1c-5.8-3.3-15.1-3.3-20.9,0
						C109.6,276.1,109.6,281.5,115.4,284.8z"/>
					<path class="st629" d="M109,271.5v-4.7h0.9c0.8-1.4,2.1-2.7,4-3.8c6.6-3.8,17.2-3.8,23.8,0c1.9,1.1,3.2,2.4,4,3.8h0.9v4.7h0
						c0,2.5-1.6,5-4.9,6.9c-6.6,3.8-17.2,3.8-23.8,0C110.7,276.4,109,274,109,271.5z"/>
					<path class="st629" d="M113.9,273.6c6.6,3.8,17.2,3.8,23.8,0c6.6-3.8,6.6-9.9,0-13.7c-6.6-3.8-17.2-3.8-23.8,0
						C107.4,263.7,107.4,269.8,113.9,273.6z"/>
					<path class="st24" d="M113.9,273.6c6.6,3.8,17.2,3.8,23.8,0c3.1-1.8,4.8-4.2,4.9-6.6c0.1,2.6-1.5,5.2-4.9,7.2
						c-6.6,3.8-17.2,3.8-23.8,0c-3.4-2-5-4.6-4.9-7.2C109.2,269.4,110.8,271.8,113.9,273.6z"/>
				</g>
				<g>
					<path class="st24" d="M133.9,270c0.3-0.2,0.4-0.4,0.4-0.6l0-6.3c0-0.5-0.7-0.9-1.5-0.9c-0.8,0-1.5,0.4-1.5,0.9l0,5.2l-15.2-1.9
						c-0.8-0.1-1.6,0.2-1.8,0.7c-0.2,0.5,0.3,0.9,1.2,1l17,2.1c0.4,0.1,0.9,0,1.3-0.2C133.8,270,133.9,270,133.9,270z"/>
				</g>
			</g>
			<g>
				<g>
					<polygon class="st623" points="212.7,217.8 225.2,210.5 212.7,203.3 200.2,210.5 					"/>
					<polygon class="st633" points="200.2,201.4 212.7,208.6 212.7,194.2 200.2,187 					"/>
					<polygon class="st629" points="212.7,194.2 225.2,187 212.7,179.8 200.2,187 					"/>
					<polygon class="st629" points="212.7,208.6 225.2,201.4 225.2,187 212.7,194.2 					"/>
				</g>
				<polygon class="st24" points="217.2,200.8 220.7,198.8 220.7,194.8 217.2,196.8 				"/>
			</g>
			<g>
				<g>
					<polygon class="st623" points="290.4,347 303.4,339.5 290.4,332 277.4,339.5 					"/>
					<polygon class="st624" points="277.4,330 290.4,337.5 290.4,322.5 277.4,315 					"/>
					<polygon class="st627" points="290.4,322.5 303.4,315 290.4,307.5 277.4,315 					"/>
					<polygon class="st628" points="290.4,337.5 303.4,330 303.4,315 290.4,322.5 					"/>
				</g>
				<polygon class="st24" points="295,329.4 298.7,327.3 298.7,323.1 295,325.2 				"/>
			</g>
			<path class="st623" d="M243.1,329.5l48.4-28c1.1-0.6,1.1-2.2,0-2.8l-46.1-26.6l-51.5,29.8c-1.1,0.6-1.1,2.2,0,2.8l43,24.8
				C238.8,330.6,241.2,330.6,243.1,329.5z"/>
			<g>
				<g>
					<path class="st629" d="M244.5,252.7c0-3.1,2.2-4.3,4.8-2.8l45.3,26.1c0.7,0.4,1.3,1.5,1.3,2.3c0,0.8-0.6,1.2-1.3,0.8L249.3,253
						c-1.2-0.7-2.2-0.1-2.2,1.3l0,5.1c-0.9-0.1-1.8-0.1-2.7,0L244.5,252.7z"/>
					<path class="st633" d="M294.6,288.2l-45.3-16.5c-2.7-1.5-4.8-5.3-4.8-8.4l0-4.1c0.9,0,1.8,0,2.7,0l0,5.5c0,1.4,1,3.1,2.2,3.8
						l45.3,16.5c0.7,0.4,1.3,1.5,1.3,2.3C296,288.3,295.4,288.6,294.6,288.2z"/>
				</g>
				<polygon class="st633" points="295.6,288.3 240.5,320.2 193.8,292.3 190.1,286.8 190.5,288.8 191.5,283.6 278.1,286.9 
					293.4,286 				"/>
				<polygon class="st634" points="293.8,278.6 293.8,285.4 240.5,316.2 239.1,309.8 				"/>
				<polygon class="st629" points="190.8,281.5 245.8,249.6 295.5,278.5 295.6,279.2 240.5,311.1 				"/>
				<g>
					<path class="st24" d="M208.4,297.8l-12.9-7.7c-1.1-0.8-1.9-2.3-1.9-3.6l0-1c0-0.8,0.3-1.4,0.9-1.5l25.5,14.2l20.7,11.2l0,6.9
						L208.4,297.8z"/>
				</g>
				<path class="st633" d="M238.7,310l54.7-31.6l1.2-0.7l1.1-0.6c0.2,0.4,0.4,0.8,0.4,1.2c0,0.4-0.1,0.7-0.4,0.8l0,0l0,0l0,0
					l-55.1,31.9L238.7,310z"/>
				<polygon class="st24" points="241.2,319.8 240.5,320.2 240.4,319.9 240.8,319.6 				"/>
				<polygon class="st24" points="241.2,310.7 240.5,311.1 240.6,310.7 				"/>
				<g>
					<path class="st629" d="M239.5,307.9l-45.3-26.1c-2.7-1.5-4.8-0.3-4.8,2.8l0,1c0,3.1,2.2,6.8,4.8,8.4l45.3,26.1
						c0.7,0.4,1.3,0.1,1.3-0.8c0-0.8-0.6-1.9-1.3-2.3l-45.3-26.1c-1.2-0.7-2.2-2.4-2.2-3.8l0-1c0-1.4,1-2,2.2-1.3l45.3,26.1
						c0.7,0.4,1.3,0.1,1.3-0.8C240.8,309.4,240.2,308.3,239.5,307.9z"/>
				</g>
				<g>
					<path class="st24" d="M240.9,319.3c0-0.8-0.6-1.9-1.3-2.3l-45.3-26.1c-1.2-0.7-2.2-2.4-2.2-3.8l0-1c0-0.9,0.4-1.5,1-1.5
						c-0.2,0.3-0.3,0.6-0.3,1.1l0,1c0,1.4,1,3.1,2.2,3.8l45.3,26.1c0.7,0.4,1.3,1.5,1.3,2.3c0,0.6-0.3,1-0.8,0.9
						C240.8,319.7,240.9,319.5,240.9,319.3z"/>
					<path class="st24" d="M240.8,310.2c0-0.8-0.6-1.9-1.3-2.3l-45.3-26.1c-1.1-0.7-2.2-0.8-3-0.5c0.9-0.8,2.2-0.8,3.8,0.1
						l45.3,26.1c0.7,0.4,1.3,1.5,1.3,2.3c0,0.6-0.3,1-0.8,0.9C240.8,310.6,240.8,310.4,240.8,310.2z"/>
				</g>
				<polygon class="st24" points="261.8,282.1 236.8,267.7 215.1,280.2 240.1,294.6 				"/>
			</g>
			<g>
				<path class="st623" d="M200,330.8c-10-5.8-26.2-5.8-36.2,0c-10,5.8-10,15.1,0,20.9c10,5.8,26.2,5.8,36.2,0
					C210,346,210,336.6,200,330.8z M190.2,346.1c-4.6,2.7-12.1,2.7-16.7,0c-4.6-2.7-4.6-7,0-9.6c4.6-2.7,12.1-2.7,16.7,0
					C194.8,339.1,194.8,343.4,190.2,346.1z"/>
				<g>
					<g>
						<path class="st633" d="M159.9,327.4l9.1,0.1c0.7-0.9,1.6-1.7,2.9-2.4c5-2.9,12.9-3.1,18.4-0.7l5.4-5.1l8.4,0.1
							c-0.4-0.3-0.8-0.5-1.3-0.8c-11.6-6.7-30.5-6.7-42.1,0c-2.1,1.2-3.9,2.6-5.2,4.1L159.9,327.4z"/>
						<polygon class="st633" points="204.2,306.2 204.2,319.5 195.8,319.3 195.8,306.1 						"/>
						<polygon class="st633" points="190.4,311.2 190.4,324.4 195.8,319.3 195.8,306.1 						"/>
						<path class="st633" d="M169.1,314.3v13.3l12-9.8l9.3,6.7v-13.3l-8.5-4.1c0,0-11.8,3.6-12.4,3.7
							C168.9,310.9,169.1,314.3,169.1,314.3z"/>
						<polygon class="st633" points="159.9,314.1 159.9,327.4 169.1,327.5 169.1,314.3 						"/>
						<polygon class="st633" points="155.6,309.5 155.6,322.7 159.9,327.4 159.9,314.1 						"/>
						<path class="st629" d="M159.9,314.1l9.1,0.1c0.7-0.9,1.6-1.7,2.9-2.4c5-2.9,12.9-3.1,18.4-0.7l5.4-5.1l8.4,0.1
							c-0.4-0.3-0.8-0.5-1.3-0.8c-11.6-6.7-30.5-6.7-42.1,0c-2.1,1.2-3.9,2.6-5.2,4.1L159.9,314.1z"/>
					</g>
					<g>
						<path class="st628" d="M193.1,312.8V325l7.9-1.9c0,0-0.5-7.1-0.6-7.3C200.2,315.6,193.1,312.8,193.1,312.8z"/>
						<g>
							<path class="st624" d="M187.1,325v13.3l0.9,0.9l5.6-3.2c0,0-0.9-10.1-1-10.3C192.5,325.4,187.1,325,187.1,325z"/>
							<path class="st625" d="M197.9,321.6l-4.8,4.5c4,3.2,3.5,7.6-1.4,10.4c-1.4,0.8-2.9,1.4-4.6,1.8l4.9,5.3l-4.4,4.1
								c5.6-0.6,10.9-2.2,15.2-4.7c10-5.8,11.4-14.6,4.2-21.3L197.9,321.6z"/>
							<polygon class="st625" points="187.7,334.4 187.7,347.7 198.6,343.5 211.6,331 211.6,316.9 197.8,327.9 							"/>
							<path class="st627" d="M197.9,308.3l-4.8,4.5c4,3.2,3.5,7.6-1.4,10.4c-1.4,0.8-2.9,1.4-4.6,1.8l4.9,5.3l-4.4,4.1
								c5.6-0.6,10.9-2.2,15.2-4.7c10-5.8,11.4-14.6,4.2-21.3L197.9,308.3z"/>
						</g>
					</g>
					<g>
						<path class="st625" d="M187.7,343.5l-4.4-4.6c-4,0.2-8.2-0.5-11.3-2.3c-3.2-1.8-4.5-4.4-4-6.8l-10.4-0.2l-4-4.3
							c-3.5,6-1.1,12.9,7.2,17.6c6.1,3.5,14.1,5.2,22.1,5L187.7,343.5z"/>
						<polygon class="st625" points="182.9,334.7 182.9,348 152.1,330.9 152.1,317.6 156.6,319.5 						"/>
						<polygon class="st624" points="187.7,330.2 187.7,343.5 182.9,348 182.9,334.7 						"/>
						<path class="st628" d="M187.7,330.2l-4.4-4.6c-4,0.2-8.2-0.5-11.3-2.3c-3.2-1.8-4.5-4.4-4-6.8l-10.4-0.2l-4-4.3
							c-3.5,6-1.1,12.9,7.2,17.6c6.1,3.5,14.1,5.2,22.1,5L187.7,330.2z"/>
					</g>
				</g>
			</g>
		</g>
		<g>
			
				<radialGradient id="SVGID_3_" cx="-728.0271" cy="611.8721" r="18.4025" gradientTransform="matrix(1.0458 -0.5507 -2.666581e-03 0.4251 796.105 -521.5031)" gradientUnits="userSpaceOnUse">
				<stop  offset="0.2664" style="stop-color:#777475"/>
				<stop  offset="1" style="stop-color:#FFFFFF;stop-opacity:0"/>
			</radialGradient>
			<path style="fill-rule:evenodd;clip-rule:evenodd;fill:url(#SVGID_3_);" d="M59.5,125.7c0-5-11.7-2.8-26.3,4.9
				S6.8,148.4,6.8,153.4c0,5,11.7,2.8,26.3-4.9S59.4,130.6,59.5,125.7z"/>
			
				<radialGradient id="SVGID_4_" cx="-661.4288" cy="611.8721" r="18.4025" gradientTransform="matrix(1.0458 -0.5507 -2.666581e-03 0.4251 796.105 -521.5031)" gradientUnits="userSpaceOnUse">
				<stop  offset="0.2664" style="stop-color:#777475"/>
				<stop  offset="1" style="stop-color:#FFFFFF;stop-opacity:0"/>
			</radialGradient>
			<path style="fill-rule:evenodd;clip-rule:evenodd;fill:url(#SVGID_4_);" d="M129.1,89c0-5-11.7-2.8-26.3,4.9
				s-26.3,17.9-26.4,22.8c0,5,11.7,2.8,26.3-4.9S129.1,94,129.1,89z"/>
			
				<radialGradient id="SVGID_5_" cx="-694.728" cy="611.8721" r="18.4025" gradientTransform="matrix(1.0458 -0.5507 -2.666581e-03 0.4251 796.105 -521.5031)" gradientUnits="userSpaceOnUse">
				<stop  offset="0.2664" style="stop-color:#777475"/>
				<stop  offset="1" style="stop-color:#FFFFFF;stop-opacity:0"/>
			</radialGradient>
			<path style="fill-rule:evenodd;clip-rule:evenodd;fill:url(#SVGID_5_);" d="M94.3,107.3c0-5-11.7-2.8-26.3,4.9
				s-26.3,17.9-26.4,22.8s11.7,2.8,26.3-4.9S94.2,112.3,94.3,107.3z"/>
			<g>
				<g class="st639">
					<g>
						<linearGradient id="SVGID_6_" gradientUnits="userSpaceOnUse" x1="36.5445" y1="23.732" x2="97.1255" y2="78.7669">
							<stop  offset="0" style="stop-color:#FE9100"/>
							<stop  offset="0.544" style="stop-color:#B95300"/>
						</linearGradient>
						<path class="st5" d="M89.5,41.5c2,1.9,2.9,6.1,2.7,12.1L91.4,104l3.6,3.3l0.8-50.4c0.2-6-0.7-10.2-2.7-12.1L89.5,41.5z"/>
						<linearGradient id="SVGID_7_" gradientUnits="userSpaceOnUse" x1="10.764" y1="52.1106" x2="71.345" y2="107.1454">
							<stop  offset="0" style="stop-color:#FE9100"/>
							<stop  offset="0.544" style="stop-color:#B95300"/>
						</linearGradient>
						<path class="st6" d="M55.1,62c2,1.9,2.8,6.1,2.7,12.1L57,124.5l3.6,3.3l0.8-50.4c0.1-6-0.7-10.2-2.7-12.1L55.1,62z"/>
						<linearGradient id="SVGID_8_" gradientUnits="userSpaceOnUse" x1="19.5433" y1="42.4465" x2="80.1243" y2="97.4814">
							<stop  offset="0" style="stop-color:#FE9100"/>
							<stop  offset="0.544" style="stop-color:#B95300"/>
						</linearGradient>
						<path class="st7" d="M98.6,21.1c0.6,0,1.2,0.1,1.7,0.1c0.1,0,0.2,0,0.3,0c0.5,0.1,1.1,0.1,1.5,0.2c0,0,0,0,0.1,0
							c0.5,0.1,0.9,0.2,1.3,0.3c0.1,0,0.2,0,0.2,0.1c0.4,0.1,0.8,0.2,1.1,0.4c0.1,0,0.1,0.1,0.2,0.1c0.2,0.1,0.5,0.2,0.7,0.3
							c0.2,0.1,0.4,0.2,0.5,0.3c0.2,0.1,0.4,0.2,0.5,0.3c0.2,0.1,0.3,0.2,0.4,0.3c0.3,0.2,0.5,0.4,0.7,0.6l-3.6-3.3
							c-0.2-0.2-0.4-0.3-0.6-0.5c-0.1,0-0.1-0.1-0.2-0.1c-0.1-0.1-0.3-0.2-0.4-0.3c-0.2-0.1-0.3-0.2-0.5-0.3
							c-0.2-0.1-0.3-0.2-0.5-0.3c-0.1-0.1-0.2-0.1-0.3-0.2c-0.1,0-0.2-0.1-0.4-0.1c-0.1,0-0.1-0.1-0.2-0.1c-0.4-0.1-0.7-0.3-1.1-0.4
							c-0.1,0-0.2,0-0.2-0.1c-0.4-0.1-0.9-0.2-1.3-0.3c0,0,0,0-0.1,0c-0.5-0.1-1-0.2-1.5-0.2c-0.1,0-0.2,0-0.3,0
							c-0.5-0.1-1.1-0.1-1.7-0.1c-0.1,0-0.2,0-0.3,0c-0.2,0-0.5,0-0.7,0c-0.4,0-0.8,0-1.3,0c-0.1,0-0.2,0.1-2.9,0.9
							c-0.1,0-0.2,0.1-1.3,0.5c-0.1,0-0.2,0.1-0.5,0.2c-0.1,0-0.2,0.1-1.3,0.6c0,0,0,0-0.1,0c0,0,0,0,0,0c-0.1,0-0.1,0.1-0.3,0.1
							c0,0,0,0,0,0c-0.1,0.1-0.3,0.2-0.7,0.3c-0.1,0.1-0.2,0.1-0.4,0.2c-0.1,0.1-0.3,0.1-0.4,0.2l-0.5,0.3c-1.1,0.7-2.2,1.5-3.2,2.3
							c-0.2,0.2-0.4,0.3-0.6,0.5c-0.2,0.1-0.4,0.3-0.6,0.4c-0.9,0.7-1.7,1.4-2.5,2.2c-0.1,0.1-0.2,0.2-0.3,0.3
							c-0.6,0.6-1.3,1.2-1.9,1.8c-0.2,0.2-0.4,0.5-0.7,0.7c-0.2,0.2-0.4,0.5-0.7,0.7c-0.9,1-1.7,2-2.6,3c-0.4,0.5-0.8,1.1-1.2,1.7
							c-0.2,0.3-0.4,0.6-0.6,0.9c-0.2,0.2-0.3,0.5-0.5,0.8c-0.6,0.9-1.2,1.8-1.7,2.7c-0.2-0.1-0.4-0.2-0.5-0.3c0,0,0,0-0.1,0
							c-0.1,0-0.1-0.1-0.2-0.1c-0.1,0-0.1,0-0.2-0.1c-0.2-0.1-0.3-0.1-0.5-0.2c0,0,0,0,0,0c-0.2-0.1-0.4-0.1-0.6-0.2
							c-0.1,0-0.1,0-0.2,0c-0.2,0-0.3-0.1-0.5-0.1c-0.1,0-0.2,0-0.3,0c-0.2,0-0.4-0.1-0.6-0.1c-0.1,0-0.2,0-0.4,0
							c-0.2,0-0.5,0-0.7-0.1c-0.1,0-0.2,0-0.3,0c-0.4,0-0.8-0.1-1.3-0.1c-0.1,0-0.3,0-0.6,0c-0.1,0-0.3,0-0.5,0.1
							c-0.1,0-0.3,0-0.6,0.1c-0.1,0-0.2,0-0.3,0.1c0,0-0.1,0-0.1,0c-0.2,0-0.3,0.1-0.6,0.1c-0.1,0-0.3,0.1-0.5,0.1
							c-0.2,0-0.3,0.1-0.6,0.2c-0.2,0-0.3,0.1-0.5,0.1c-0.2,0-0.3,0.1-0.6,0.2c-0.1,0-0.1,0-0.2,0.1c-0.1,0-0.2,0.1-0.3,0.1
							c-0.2,0.1-0.3,0.1-0.6,0.2c-0.2,0.1-0.3,0.1-0.5,0.2c-0.2,0.1-0.3,0.1-0.6,0.3c-0.2,0.1-0.3,0.2-0.5,0.2
							c-0.2,0.1-0.4,0.2-0.7,0.3c-0.1,0-0.2,0.1-0.3,0.1c-0.1,0-0.2,0.1-0.3,0.1c0.2,0.9,0.3,1.9,0.3,3c0,0.5,0,1.1-0.1,1.6
							c0,0.2,0,0.3-0.1,0.5c-0.1,0.4-0.1,0.7-0.2,1.1c0,0.2-0.1,0.4-0.1,0.6c-0.1,0.4-0.2,0.7-0.3,1.1c-0.1,0.2-0.1,0.4-0.2,0.6
							c-0.1,0.4-0.2,0.7-0.4,1.1c-0.1,0.2-0.1,0.4-0.2,0.6c-0.2,0.5-0.4,1-0.6,1.4c0,0.1-0.1,0.1-0.1,0.2c-0.3,0.5-0.5,1.1-0.8,1.6
							c-0.1,0.2-0.2,0.3-0.3,0.5c-0.2,0.4-0.4,0.7-0.6,1.1c-0.1,0.2-0.2,0.4-0.4,0.6c-0.2,0.3-0.4,0.7-0.7,1
							c-0.1,0.2-0.3,0.4-0.4,0.5c-0.3,0.4-0.6,0.8-0.9,1.2c-0.1,0.1-0.2,0.2-0.3,0.3c-0.4,0.5-0.8,1-1.3,1.4
							c-0.2,0.2-0.4,0.4-0.6,0.6c-0.2,0.2-0.3,0.3-0.5,0.5c-0.2,0.2-0.5,0.4-0.7,0.6c-0.2,0.1-0.3,0.3-0.5,0.4
							c-0.4,0.3-0.7,0.6-1.1,0.8c-0.1,0.1-0.2,0.1-0.3,0.2c-0.3,0.2-0.7,0.5-1,0.7c0,0,0,0,0,0c0,0,0,0,0,0c0,0,0,0,0,0
							c0,0,0,0-0.1,0c0,0-0.1,0-0.1,0c0,0,0,0,0,0c0,0-0.1,0-0.1,0c0,0,0,0-0.1,0c0,0-0.1,0-0.2,0c0,0,0,0-0.1,0c-0.1,0-0.2,0-0.2,0
							c0,0,0,0,0,0c-0.1,0-0.2,0-0.4,0c0,0-0.1,0-0.1,0c-0.1,0-0.2,0-0.4,0c-0.1,0-0.1,0-0.2,0c-0.1,0-0.3,0-0.4,0
							c-0.1,0-0.2,0-0.2,0c-0.2,0-0.3,0-0.5,0c-0.1,0-0.2,0-0.2,0c-0.5,0-1.1,0.1-1.8,0.1c-0.1,0-0.3,0-0.4,0c-0.2,0-0.5,0-0.8,0
							c-0.1,0-0.3,0-0.4,0c-0.3,0-0.6,0-0.9,0c-0.2,0-0.3,0-0.5,0c-0.5,0-1,0-1.5,0.1h0c-0.9,2-1.7,4-2.4,6.1
							c-2.2,6.5-3.4,13.5-3.5,20.8l-0.8,52.4l3.6,3.3l0.8-52.4c0.1-7.4,1.3-14.3,3.5-20.8c0.7-2.1,1.5-4.1,2.4-6.1
							c0.5,0,1,0,1.5-0.1c0.2,0,0.3,0,0.5,0c0.3,0,0.6,0,0.9,0c0.2,0,0.4,0,0.5,0c0.2,0,0.4,0,0.7,0c0.1,0,0.3,0,0.4,0
							c0.3,0,0.5,0,0.7,0c0.1,0,0.2,0,0.3,0c0.3,0,0.6,0,0.8,0c0.1,0,0.2,0,0.2,0c0.2,0,0.3,0,0.5,0c0.1,0,0.1,0,0.2,0
							c0.1,0,0.3,0,0.4,0c0.1,0,0.1,0,0.2,0c0.1,0,0.2,0,0.3,0c0,0,0.1,0,0.1,0c0.1,0,0.3,0,0.4,0c0,0,0.1,0,0.1,0
							c0.1,0,0.1,0,0.2,0c0,0,0.1,0,0.1,0c0.1,0,0.1,0,0.1,0c0,0,0,0,0.1,0c0,0,0.1,0,0.1,0c0,0,0,0,0,0c0,0,0.1,0,0.1,0
							c0,0,0,0,0,0c0,0,0.1,0,0.1,0c0,0,0,0,0,0c0,0,0,0,0,0c0,0,0,0,0,0l0,0c0,0,0,0,0,0c0.2-0.1,0.3-0.2,0.4-0.3
							c0.2-0.1,0.4-0.3,0.6-0.4c0.1-0.1,0.2-0.1,0.3-0.2c0.4-0.3,0.7-0.5,1.1-0.8c0,0,0,0,0.1,0c0.2-0.1,0.3-0.3,0.5-0.4
							c0.2-0.2,0.5-0.4,0.7-0.6c0.2-0.2,0.3-0.3,0.5-0.5c0.2-0.2,0.4-0.3,0.5-0.5c0,0,0.1-0.1,0.1-0.1c0.4-0.5,0.9-0.9,1.3-1.4
							c0.1-0.1,0.2-0.2,0.3-0.3c0.3-0.4,0.6-0.8,0.9-1.2c0.1-0.1,0.1-0.2,0.2-0.2c0.1-0.1,0.1-0.2,0.2-0.3c0.2-0.3,0.4-0.7,0.7-1
							c0.1-0.2,0.2-0.4,0.4-0.6c0.2-0.4,0.4-0.7,0.6-1.1c0.1-0.2,0.2-0.3,0.3-0.5c0.3-0.5,0.6-1.1,0.8-1.6c0-0.1,0.1-0.1,0.1-0.2
							c0.2-0.5,0.4-1,0.6-1.4c0.1-0.2,0.1-0.4,0.2-0.6c0.1-0.4,0.3-0.7,0.4-1.1c0.1-0.2,0.1-0.4,0.2-0.6c0.1-0.4,0.2-0.7,0.3-1.1
							c0-0.2,0.1-0.4,0.1-0.6c0.1-0.4,0.1-0.7,0.2-1.1c0-0.2,0.1-0.4,0.1-0.5c0.1-0.5,0.1-1.1,0.1-1.6c0-0.6,0-1.1-0.1-1.6
							s-0.1-1-0.2-1.4c0.2-0.1,0.4-0.2,0.5-0.3c0.3-0.1,0.5-0.2,0.7-0.3c0.2-0.1,0.4-0.2,0.5-0.2c0.3-0.1,0.5-0.2,0.6-0.3
							c0.2-0.1,0.3-0.1,0.5-0.2c0.3-0.1,0.5-0.2,0.6-0.2c0.2-0.1,0.3-0.1,0.5-0.2c0.3-0.1,0.5-0.1,0.6-0.2c0.2-0.1,0.3-0.1,0.5-0.1
							c0.3-0.1,0.4-0.1,0.6-0.2c0.2,0,0.3-0.1,0.5-0.1c0.3-0.1,0.4-0.1,0.6-0.1c0.2,0,0.3-0.1,0.5-0.1c0.3,0,0.4-0.1,0.6-0.1
							c0.2,0,0.3,0,0.5-0.1c0.3,0,0.4,0,0.6,0c0.5,0,0.9,0.1,1.3,0.1c0.1,0,0.2,0,0.4,0c0.3,0,0.5,0,0.7,0.1c0.1,0,0.2,0,0.4,0
							c0.2,0,0.4,0.1,0.6,0.1c0.1,0,0.2,0,0.3,0c0.2,0,0.4,0.1,0.5,0.1c0.1,0,0.2,0,0.2,0c0.2,0,0.4,0.1,0.6,0.2c0,0,0,0,0,0
							c0.2,0.1,0.4,0.1,0.5,0.2c0.1,0,0.1,0,0.2,0.1c0.1,0,0.2,0.1,0.3,0.1c0.2,0.1,0.4,0.2,0.5,0.3c0.5-0.9,1.1-1.8,1.7-2.7
							c0.2-0.3,0.3-0.5,0.5-0.8c0.6-0.9,1.2-1.7,1.8-2.5c0.8-1.1,1.7-2.1,2.6-3c0.2-0.2,0.4-0.5,0.7-0.7c0.8-0.9,1.7-1.7,2.5-2.5
							c0.1-0.1,0.2-0.2,0.3-0.3c1-0.9,2-1.8,3-2.6c0.2-0.2,0.4-0.3,0.6-0.5c1.1-0.8,2.1-1.6,3.2-2.3l0.5-0.3
							c0.1-0.1,0.3-0.2,0.4-0.2c0.1-0.1,0.3-0.1,0.4-0.2c0.4-0.2,0.6-0.3,0.8-0.4c0,0,0,0,0,0c0,0,0.1,0,0.1,0c0,0,0,0,0,0
							c0,0,0,0,0.1,0c0,0,0,0,0,0c0,0,0,0,0,0c0,0,0,0,0,0c1.1-0.5,1.2-0.6,1.3-0.6c0.2-0.1,0.3-0.1,0.5-0.2
							c1.1-0.4,1.2-0.5,1.3-0.5c2.6-0.8,2.8-0.8,2.9-0.9c0.7,0,1.3,0,2,0.1C98.4,21.1,98.5,21.1,98.6,21.1z"/>
					</g>
					<linearGradient id="SVGID_9_" gradientUnits="userSpaceOnUse" x1="27.0226" y1="84.4451" x2="113.3832" y2="84.4451">
						<stop  offset="0.6412" style="stop-color:#FE9100"/>
						<stop  offset="1" style="stop-color:#B95300"/>
					</linearGradient>
					<path class="st8" d="M113.4,41.7l-0.1-2.5l-0.2-2.4l-0.3-2.2c-0.1-0.7-0.3-1.4-0.4-2c-0.2-0.7-0.3-1.3-0.5-1.9
						c-0.2-0.6-0.4-1.2-0.6-1.7c-0.2-0.6-0.5-1.1-0.7-1.6c-2-4-5-6.3-14.1-6.4c0,0,0,0,0,0c0,0,0,0-0.1,0c0,0-0.1,0-0.1,0
						c-0.2,0.1-0.6,0.2-1.3,0.4l-0.5,0.1l-0.9,0.3c0,0,0,0,0,0c0,0,0,0-0.1,0c0,0,0,0-0.1,0c0,0-0.1,0-0.1,0c0,0-0.1,0-0.2,0.1
						c-0.1,0-0.1,0.1-0.2,0.1c-0.1,0-0.2,0.1-0.3,0.1c-0.1,0-0.2,0.1-0.4,0.1l0,0l0,0l0,0l-0.1,0l-0.1,0l-0.1,0l-0.1,0l-0.1,0
						c0,0,0,0,0,0l-0.1,0l-0.1,0l-0.1,0.1l-0.2,0.1l-0.2,0.1L90.8,23l-0.4,0.2c0,0,0,0-0.1,0s0,0-0.1,0c0,0-0.1,0-0.1,0
						c0,0-0.1,0-0.1,0.1c-0.1,0-0.2,0.1-0.4,0.2c-0.1,0-0.2,0.1-0.3,0.2s-0.2,0.1-0.4,0.2l-0.1,0l-0.1,0l-0.1,0l-0.1,0l-0.1,0
						l-0.1,0l-0.1,0l-0.1,0l-0.5,0.3l-1.8,1.2L84.5,27l-1.7,1.4l-1.7,1.5l-1.6,1.5L78,33l-1.5,1.7l-1.4,1.8l-0.6,0.7L74,37.9
						l-0.5,0.7L73,39.4l-0.5,0.8L72,40.9l-0.5,0.8L71,42.4c-0.1-0.1-0.3-0.2-0.5-0.2c-0.2-0.1-0.3-0.1-0.5-0.2l-0.6-0.2l-0.7-0.2
						c-0.2-0.1-0.5-0.1-0.8-0.1c-0.3,0-0.6-0.1-1-0.1c-0.3,0-0.7-0.1-1.1-0.1c-0.4,0-0.9-0.1-1.4-0.1l-0.1,0l-0.1,0l-0.1,0l-0.1,0
						l-0.1,0l-0.1,0l-0.1,0l-0.1,0l0,0l-0.1,0l-0.1,0l-0.1,0l-0.1,0l-0.1,0l-0.1,0l-0.1,0l-0.1,0l-0.1,0l-0.1,0l-0.1,0l-0.1,0
						l-0.1,0l-0.1,0l-0.1,0l-0.1,0l-0.1,0l-0.1,0l-0.1,0l-0.1,0l-0.1,0l-0.1,0l-0.1,0l-0.1,0l-0.1,0l-0.1,0l-0.1,0c0,0,0,0,0,0
						l-0.1,0l-0.1,0l-0.1,0l-0.1,0l-0.1,0l-0.1,0l-0.1,0l-0.1,0l-0.1,0l-0.1,0l-0.1,0l-0.1,0l-0.1,0l-0.1,0l-0.1,0l-0.1,0l-0.1,0
						l-0.1,0l-0.1,0l-0.1,0l-0.1,0l-0.1,0l-0.1,0l-0.1,0l-0.1,0l-0.1,0l-0.1,0l-0.1,0l-0.1,0l-0.1,0l-0.1,0l-0.1,0l-0.1,0l-0.1,0
						l-0.1,0l-0.1,0l-0.1,0l-0.1,0l-0.1,0l-0.1,0l-0.1,0l-0.1,0l-0.1,0l-0.1,0l-0.1,0l-0.1,0l-0.1,0l-0.1,0l-0.1,0l-0.1,0l-0.1,0
						l-0.1,0l-0.1,0l-0.1,0l-0.1,0l-0.1,0l-0.1,0l-0.1,0l-0.1,0l-0.1,0l-0.1,0l-0.1,0l-0.1,0l-0.1,0l-0.1,0l-0.1,0l-0.1,0l-0.1,0
						l-0.1,0l-0.1,0l-0.1,0l-0.1,0l-0.1,0l-0.1,0l-0.1,0l-0.1,0l-0.1,0l-0.1,0l-0.1,0l-0.1,0l-0.1,0l-0.1,0l-0.1,0l-0.1,0.1l-0.1,0
						l-0.1,0l-0.1,0l-0.1,0l-0.1,0l-0.1,0l-0.1,0l-0.1,0c0.2,0.9,0.3,1.9,0.3,3l-0.3,2.9l-0.8,3l-1.2,3l-1.5,2.9l-1.9,2.8L48.3,64
						l-2.3,2.2l-2.5,1.8l-0.1,0l-0.2,0l-0.4,0l-0.7,0.1l-1.2,0.1l-1.7,0.1l-2.4,0.1l-3.1,0.1l-0.3,0.7L33.1,70l-0.3,0.8l-0.3,0.8
						l-0.3,0.8L31.9,73l-0.3,0.8l-0.3,0.8c-0.3,0.8-0.5,1.6-0.8,2.5c-0.2,0.8-0.5,1.7-0.7,2.5l-0.6,2.5l-0.4,2.2c-0.2,1-0.3,2-0.5,3
						c-0.1,0.9-0.2,1.8-0.3,2.7c-0.1,0.9-0.1,1.8-0.2,2.7c0,0.9-0.1,1.8-0.1,2.7L27,147.9l17.1-10.2l0.8-50.4c0-0.7,0-1.5,0.1-2.2
						l0.2-2.1l0.3-2c0.1-0.7,0.2-1.3,0.4-2c0.1-0.6,0.3-1.3,0.5-1.9c0.2-0.6,0.3-1.2,0.5-1.8c0.4-1.2,0.9-2.3,1.4-3.4
						c0.1-0.1,0.1-0.2,0.3-0.4c0.1-0.1,0.1-0.2,0.2-0.4c0.1-0.1,0.1-0.2,0.3-0.4c0.1-0.1,0.1-0.2,0.2-0.3c0.1-0.1,0.1-0.2,0.3-0.4
						c0.1-0.1,0.1-0.2,0.2-0.3c0.1-0.1,0.1-0.2,0.3-0.4c0.1-0.1,0.1-0.2,0.2-0.3l0,0l0.1-0.1l0.2-0.2l0.4-0.3l0.7-0.5l1-0.7l1.5-1
						l1.9-1.3c0.9-0.1,1.9,0.1,2.9,0.6c0.3,0.2,0.5,0.5,0.7,0.8c0.2,0.3,0.4,0.7,0.6,1c0.2,0.4,0.3,0.8,0.5,1.2
						c0.1,0.4,0.3,0.9,0.4,1.4c0.1,0.5,0.2,1,0.3,1.6c0.1,0.6,0.1,1.2,0.2,1.8c0.1,1.3,0.1,2.6,0.1,4.1l-0.8,50.4l17.8-10.6
						l0.8-50.4c0-0.7,0-1.5,0.1-2.2c0-0.7,0.1-1.4,0.2-2.1c0.1-0.7,0.2-1.4,0.3-2c0.4-2.7,1.1-5.2,2-7.4c0.2-0.6,0.5-1.1,0.7-1.7
						c0-0.1,0.1-0.1,0.1-0.2l0,0l0,0c0-0.1,0.1-0.1,0.1-0.2c0.1-0.1,0.1-0.2,0.2-0.4c0.1-0.1,0.1-0.2,0.3-0.4
						c0.1-0.2,0.3-0.4,0.5-0.7c0.1-0.1,0.1-0.2,0.2-0.3l0,0c0,0,0,0,0,0l0.1-0.1c0,0,0,0,0,0l0.2-0.2c0,0,0,0,0,0l0.4-0.3
						c0,0,0,0,0,0l0.7-0.5c0,0,0.1,0,0.1-0.1l1.1-0.8l1.6-1.2l2.1-1.5c0.9-0.1,1.9,0.1,2.9,0.6c0.3,0.2,0.5,0.5,0.7,0.8
						c0.4,0.6,0.8,1.4,1.1,2.3c0.1,0.4,0.3,0.9,0.4,1.4c0.1,0.5,0.2,1,0.3,1.6c0.1,0.6,0.1,1.2,0.2,1.8c0,0.6,0.1,1.3,0.1,2
						c0,0.7,0,1.4,0,2.2l-0.8,50.4l17.4-10.4l0.8-52.4C113.4,43.5,113.4,42.6,113.4,41.7z"/>
				</g>
			</g>
			<path class="st578" d="M9.8,108.7c0.1-11.1,0.8-22.5-0.3-32.2c-0.2-2.1,2.6-2.8,0.7-6.8l-9.9,5.6l9.9-5.6c0,0,1-0.6,1-0.6
				l31.1-17.6L74.1,1L56.3,29.4c2.8,2.5,5.1,5.4,6.2,9.1c-5,10.2-9.8,20.6-13.7,31.8c-1.1,2.7-2.6,4.3-4.5,5
				c-5.5-0.3-11.8,0.4-19.5,2.9c-1-5.2-1.5-10.1,0.1-16.7l-13.6,7.7c0.2,0.8,1.4,3.1,1.2,4.1c-0.2,1.6-2,3.9-1.7,4.7
				c0.3,0.7,1.7,2.1,1.5,3.3c-0.5,4-1.4,13.8-1.1,17.8c0.5,7.4,3.2,19.3,1.5,27c-0.5,2.5-1.7,14.1-1.8,16.3
				C6.3,134.4,9.8,117.9,9.8,108.7z"/>
			<polygon class="st579" points="42,50.5 0,74.3 34.5,26.1 73.8,0 			"/>
		</g>
	</g>
</g>
</svg>
