<?xml version="1.0" encoding="utf-8"?>
<!-- Generator: Adobe Illustrator 21.0.2, SVG Export Plug-In . SVG Version: 6.00 Build 0)  -->
<svg version="1.1" xmlns="http://www.w3.org/2000/svg" xmlns:xlink="http://www.w3.org/1999/xlink" x="0px" y="0px"
	 viewBox="0 0 807.4 375.8" style="enable-background:new 0 0 807.4 375.8;" xml:space="preserve">
<style type="text/css">
	.st0{fill:url(#SVGID_1_);}
	.st1{fill:url(#SVGID_2_);}
	.st2{fill:url(#SVGID_3_);}
	.st3{fill:url(#SVGID_4_);}
	.st4{fill:url(#SVGID_5_);}
	.st5{fill:url(#SVGID_6_);}
	.st6{fill:url(#SVGID_7_);}
	.st7{fill:url(#SVGID_8_);}
	.st8{fill:url(#SVGID_9_);}
	.st9{fill:url(#SVGID_10_);}
	.st10{fill:url(#SVGID_11_);}
	.st11{fill:url(#SVGID_12_);}
	.st12{fill:url(#SVGID_13_);}
	.st13{fill:url(#SVGID_14_);}
	.st14{fill:url(#SVGID_15_);}
	.st15{fill:url(#SVGID_16_);}
	.st16{fill:url(#SVGID_17_);}
	.st17{fill:url(#SVGID_18_);}
	.st18{fill:url(#SVGID_19_);}
	.st19{fill:url(#SVGID_20_);}
	.st20{fill:url(#SVGID_21_);}
	.st21{fill:url(#SVGID_22_);}
	.st22{fill:url(#SVGID_23_);}
	.st23{fill:url(#SVGID_24_);}
	.st24{fill:#FFFFFF;}
	.st25{fill:url(#SVGID_25_);}
	.st26{fill:url(#SVGID_26_);}
	.st27{fill:url(#SVGID_27_);}
	.st28{fill:#470930;}
	.st29{opacity:0.64;}
	.st30{opacity:0.54;fill:#606161;}
	.st31{opacity:0.81;fill:#606161;}
	.st32{opacity:0.23;fill:#606161;}
	.st33{opacity:0.1;fill:#606161;}
	.st34{opacity:0.37;fill:#606161;}
	.st35{fill:#875A7B;}
	.st36{fill:#8E2775;}
	.st37{fill:#606161;}
	.st38{fill:none;}
	.st39{clip-path:url(#SVGID_32_);}
	.st40{fill:#D0D3D2;}
	.st41{clip-path:url(#SVGID_34_);}
	.st42{clip-path:url(#SVGID_36_);}
	.st43{clip-path:url(#SVGID_38_);}
	.st44{fill:url(#SVGID_39_);}
	.st45{fill:url(#SVGID_40_);}
	.st46{fill-rule:evenodd;clip-rule:evenodd;fill:#FFF8FF;}
	.st47{fill:#011E50;}
	.st48{fill:url(#SVGID_41_);}
	.st49{fill:none;stroke:#011E50;stroke-width:3;stroke-miterlimit:10;}
	.st50{clip-path:url(#SVGID_43_);}
	.st51{fill:#FFF8FF;}
	.st52{fill-rule:evenodd;clip-rule:evenodd;fill:url(#SVGID_44_);}
	.st53{fill-rule:evenodd;clip-rule:evenodd;fill:url(#SVGID_45_);}
	.st54{fill-rule:evenodd;clip-rule:evenodd;fill:url(#SVGID_46_);}
	.st55{fill-rule:evenodd;clip-rule:evenodd;fill:url(#SVGID_47_);}
	.st56{fill-rule:evenodd;clip-rule:evenodd;fill:url(#SVGID_48_);}
	.st57{fill-rule:evenodd;clip-rule:evenodd;fill:url(#SVGID_49_);}
	.st58{fill-rule:evenodd;clip-rule:evenodd;fill:url(#SVGID_50_);}
	.st59{fill-rule:evenodd;clip-rule:evenodd;fill:url(#SVGID_51_);}
	.st60{fill-rule:evenodd;clip-rule:evenodd;fill:url(#SVGID_52_);}
	.st61{fill-rule:evenodd;clip-rule:evenodd;fill:url(#SVGID_53_);}
	.st62{fill-rule:evenodd;clip-rule:evenodd;fill:url(#SVGID_54_);}
	.st63{fill-rule:evenodd;clip-rule:evenodd;fill:url(#SVGID_55_);}
	.st64{fill-rule:evenodd;clip-rule:evenodd;fill:url(#SVGID_56_);}
	.st65{fill-rule:evenodd;clip-rule:evenodd;fill:url(#SVGID_57_);}
	.st66{fill-rule:evenodd;clip-rule:evenodd;fill:url(#SVGID_58_);}
	.st67{fill-rule:evenodd;clip-rule:evenodd;fill:url(#SVGID_59_);}
	.st68{fill-rule:evenodd;clip-rule:evenodd;fill:url(#SVGID_60_);}
	.st69{fill-rule:evenodd;clip-rule:evenodd;fill:url(#SVGID_61_);}
	.st70{fill-rule:evenodd;clip-rule:evenodd;fill:url(#SVGID_62_);}
	.st71{fill-rule:evenodd;clip-rule:evenodd;fill:url(#SVGID_63_);}
	.st72{fill-rule:evenodd;clip-rule:evenodd;fill:url(#SVGID_64_);}
	.st73{fill-rule:evenodd;clip-rule:evenodd;fill:url(#SVGID_65_);}
	.st74{fill-rule:evenodd;clip-rule:evenodd;fill:url(#SVGID_66_);}
	.st75{fill-rule:evenodd;clip-rule:evenodd;fill:url(#SVGID_67_);}
	.st76{fill-rule:evenodd;clip-rule:evenodd;fill:url(#SVGID_68_);}
	.st77{fill-rule:evenodd;clip-rule:evenodd;fill:url(#SVGID_69_);}
	.st78{fill-rule:evenodd;clip-rule:evenodd;fill:url(#SVGID_70_);}
	.st79{fill-rule:evenodd;clip-rule:evenodd;fill:url(#SVGID_71_);}
	.st80{fill-rule:evenodd;clip-rule:evenodd;fill:url(#SVGID_72_);}
	.st81{fill-rule:evenodd;clip-rule:evenodd;fill:url(#SVGID_73_);}
	.st82{fill-rule:evenodd;clip-rule:evenodd;fill:url(#SVGID_74_);}
	.st83{fill-rule:evenodd;clip-rule:evenodd;fill:url(#SVGID_75_);}
	.st84{fill-rule:evenodd;clip-rule:evenodd;fill:url(#SVGID_76_);}
	.st85{fill-rule:evenodd;clip-rule:evenodd;fill:url(#SVGID_77_);}
	.st86{fill-rule:evenodd;clip-rule:evenodd;fill:url(#SVGID_78_);}
	.st87{fill-rule:evenodd;clip-rule:evenodd;fill:url(#SVGID_79_);}
	.st88{fill-rule:evenodd;clip-rule:evenodd;fill:url(#SVGID_80_);}
	.st89{fill-rule:evenodd;clip-rule:evenodd;fill:url(#SVGID_81_);}
	.st90{fill-rule:evenodd;clip-rule:evenodd;fill:url(#SVGID_82_);}
	.st91{fill-rule:evenodd;clip-rule:evenodd;fill:url(#SVGID_83_);}
	.st92{fill-rule:evenodd;clip-rule:evenodd;fill:url(#SVGID_84_);}
	.st93{fill-rule:evenodd;clip-rule:evenodd;fill:url(#SVGID_85_);}
	.st94{fill-rule:evenodd;clip-rule:evenodd;fill:url(#SVGID_86_);}
	.st95{fill-rule:evenodd;clip-rule:evenodd;fill:url(#SVGID_87_);}
	.st96{fill-rule:evenodd;clip-rule:evenodd;fill:url(#SVGID_88_);}
	.st97{fill-rule:evenodd;clip-rule:evenodd;fill:url(#SVGID_89_);}
	.st98{fill-rule:evenodd;clip-rule:evenodd;fill:url(#SVGID_90_);}
	.st99{fill-rule:evenodd;clip-rule:evenodd;fill:url(#SVGID_91_);}
	.st100{fill-rule:evenodd;clip-rule:evenodd;fill:url(#SVGID_92_);}
	.st101{fill-rule:evenodd;clip-rule:evenodd;fill:url(#SVGID_93_);}
	.st102{fill-rule:evenodd;clip-rule:evenodd;fill:url(#SVGID_94_);}
	.st103{fill-rule:evenodd;clip-rule:evenodd;fill:url(#SVGID_95_);}
	.st104{fill-rule:evenodd;clip-rule:evenodd;fill:url(#SVGID_96_);}
	.st105{fill-rule:evenodd;clip-rule:evenodd;fill:url(#SVGID_97_);}
	.st106{fill-rule:evenodd;clip-rule:evenodd;fill:url(#SVGID_98_);}
	.st107{fill-rule:evenodd;clip-rule:evenodd;fill:url(#SVGID_99_);}
	.st108{fill-rule:evenodd;clip-rule:evenodd;fill:url(#SVGID_100_);}
	.st109{fill-rule:evenodd;clip-rule:evenodd;fill:url(#SVGID_101_);}
	.st110{fill-rule:evenodd;clip-rule:evenodd;fill:url(#SVGID_102_);}
	.st111{fill-rule:evenodd;clip-rule:evenodd;fill:url(#SVGID_103_);}
	.st112{fill-rule:evenodd;clip-rule:evenodd;fill:url(#SVGID_104_);}
	.st113{fill-rule:evenodd;clip-rule:evenodd;fill:url(#SVGID_105_);}
	.st114{fill-rule:evenodd;clip-rule:evenodd;fill:url(#SVGID_106_);}
	.st115{fill-rule:evenodd;clip-rule:evenodd;fill:url(#SVGID_107_);}
	.st116{fill-rule:evenodd;clip-rule:evenodd;fill:url(#SVGID_108_);}
	.st117{fill-rule:evenodd;clip-rule:evenodd;fill:url(#SVGID_109_);}
	.st118{fill-rule:evenodd;clip-rule:evenodd;fill:url(#SVGID_110_);}
	.st119{fill-rule:evenodd;clip-rule:evenodd;fill:url(#SVGID_111_);}
	.st120{fill-rule:evenodd;clip-rule:evenodd;fill:url(#SVGID_112_);}
	.st121{fill-rule:evenodd;clip-rule:evenodd;fill:url(#SVGID_113_);}
	.st122{fill-rule:evenodd;clip-rule:evenodd;fill:url(#SVGID_114_);}
	.st123{fill-rule:evenodd;clip-rule:evenodd;fill:url(#SVGID_115_);}
	.st124{fill-rule:evenodd;clip-rule:evenodd;fill:url(#SVGID_116_);}
	.st125{fill-rule:evenodd;clip-rule:evenodd;fill:url(#SVGID_117_);}
	.st126{fill-rule:evenodd;clip-rule:evenodd;fill:url(#SVGID_118_);}
	.st127{fill-rule:evenodd;clip-rule:evenodd;fill:url(#SVGID_119_);}
	.st128{fill-rule:evenodd;clip-rule:evenodd;fill:url(#SVGID_120_);}
	.st129{fill-rule:evenodd;clip-rule:evenodd;fill:url(#SVGID_121_);}
	.st130{fill-rule:evenodd;clip-rule:evenodd;fill:url(#SVGID_122_);}
	.st131{fill-rule:evenodd;clip-rule:evenodd;fill:url(#SVGID_123_);}
	.st132{fill-rule:evenodd;clip-rule:evenodd;fill:url(#SVGID_124_);}
	.st133{fill-rule:evenodd;clip-rule:evenodd;fill:url(#SVGID_125_);}
	.st134{fill-rule:evenodd;clip-rule:evenodd;fill:url(#SVGID_126_);}
	.st135{fill-rule:evenodd;clip-rule:evenodd;fill:url(#SVGID_127_);}
	.st136{fill-rule:evenodd;clip-rule:evenodd;fill:url(#SVGID_128_);}
	.st137{fill-rule:evenodd;clip-rule:evenodd;fill:url(#SVGID_129_);}
	.st138{fill-rule:evenodd;clip-rule:evenodd;fill:url(#SVGID_130_);}
	.st139{fill-rule:evenodd;clip-rule:evenodd;fill:url(#SVGID_131_);}
	.st140{fill-rule:evenodd;clip-rule:evenodd;fill:url(#SVGID_132_);}
	.st141{fill-rule:evenodd;clip-rule:evenodd;fill:url(#SVGID_133_);}
	.st142{fill-rule:evenodd;clip-rule:evenodd;fill:url(#SVGID_134_);}
	.st143{fill-rule:evenodd;clip-rule:evenodd;fill:url(#SVGID_135_);}
	.st144{fill-rule:evenodd;clip-rule:evenodd;fill:url(#SVGID_136_);}
	.st145{fill-rule:evenodd;clip-rule:evenodd;fill:url(#SVGID_137_);}
	.st146{fill-rule:evenodd;clip-rule:evenodd;fill:url(#SVGID_138_);}
	.st147{fill-rule:evenodd;clip-rule:evenodd;fill:url(#SVGID_139_);}
	.st148{fill-rule:evenodd;clip-rule:evenodd;fill:url(#SVGID_140_);}
	.st149{fill-rule:evenodd;clip-rule:evenodd;fill:url(#SVGID_141_);}
	.st150{fill-rule:evenodd;clip-rule:evenodd;fill:url(#SVGID_142_);}
	.st151{fill-rule:evenodd;clip-rule:evenodd;fill:url(#SVGID_143_);}
	.st152{fill-rule:evenodd;clip-rule:evenodd;fill:url(#SVGID_144_);}
	.st153{fill-rule:evenodd;clip-rule:evenodd;fill:url(#SVGID_145_);}
	.st154{fill-rule:evenodd;clip-rule:evenodd;fill:url(#SVGID_146_);}
	.st155{fill-rule:evenodd;clip-rule:evenodd;fill:url(#SVGID_147_);}
	.st156{fill-rule:evenodd;clip-rule:evenodd;fill:url(#SVGID_148_);}
	.st157{fill-rule:evenodd;clip-rule:evenodd;fill:url(#SVGID_149_);}
	.st158{fill-rule:evenodd;clip-rule:evenodd;fill:url(#SVGID_150_);}
	.st159{fill-rule:evenodd;clip-rule:evenodd;fill:url(#SVGID_151_);}
	.st160{fill-rule:evenodd;clip-rule:evenodd;fill:url(#SVGID_152_);}
	.st161{fill-rule:evenodd;clip-rule:evenodd;fill:url(#SVGID_153_);}
	.st162{fill-rule:evenodd;clip-rule:evenodd;fill:url(#SVGID_154_);}
	.st163{fill-rule:evenodd;clip-rule:evenodd;fill:url(#SVGID_155_);}
	.st164{fill-rule:evenodd;clip-rule:evenodd;fill:url(#SVGID_156_);}
	.st165{fill-rule:evenodd;clip-rule:evenodd;fill:url(#SVGID_157_);}
	.st166{fill-rule:evenodd;clip-rule:evenodd;fill:url(#SVGID_158_);}
	.st167{fill-rule:evenodd;clip-rule:evenodd;fill:url(#SVGID_159_);}
	.st168{fill-rule:evenodd;clip-rule:evenodd;fill:url(#SVGID_160_);}
	.st169{fill-rule:evenodd;clip-rule:evenodd;fill:url(#SVGID_161_);}
	.st170{fill-rule:evenodd;clip-rule:evenodd;fill:url(#SVGID_162_);}
	.st171{fill-rule:evenodd;clip-rule:evenodd;fill:url(#SVGID_163_);}
	.st172{fill:url(#SVGID_164_);}
	.st173{opacity:0.39;}
	.st174{fill:url(#SVGID_165_);}
	.st175{fill:none;stroke:#FFF8FF;stroke-width:3.6156;stroke-linecap:round;stroke-miterlimit:10;stroke-dasharray:7.2726,7.2726;}
	.st176{fill:url(#SVGID_166_);}
	.st177{fill:url(#SVGID_167_);}
	.st178{fill:url(#SVGID_168_);}
	.st179{fill:url(#SVGID_169_);}
	.st180{fill:url(#SVGID_170_);}
	.st181{fill:url(#SVGID_171_);}
	.st182{fill:url(#SVGID_172_);}
	.st183{fill:url(#SVGID_173_);}
	.st184{fill:url(#SVGID_174_);}
	.st185{fill:url(#SVGID_175_);}
	.st186{fill:url(#SVGID_176_);}
	.st187{fill:url(#SVGID_177_);}
	.st188{fill:url(#SVGID_178_);}
	.st189{fill:url(#SVGID_179_);}
	.st190{fill:url(#SVGID_180_);}
	.st191{fill:url(#SVGID_181_);}
	.st192{fill:url(#SVGID_182_);}
	.st193{fill:url(#SVGID_183_);}
	.st194{fill:url(#SVGID_184_);}
	.st195{fill:url(#SVGID_185_);}
	.st196{fill:url(#SVGID_186_);}
	.st197{fill:url(#SVGID_187_);}
	.st198{fill:url(#SVGID_188_);}
	.st199{fill:url(#SVGID_189_);}
	.st200{fill:url(#SVGID_190_);}
	.st201{fill:url(#SVGID_191_);}
	.st202{fill:url(#SVGID_192_);}
	.st203{fill:url(#SVGID_193_);}
	.st204{fill:url(#SVGID_194_);}
	.st205{fill:url(#SVGID_195_);}
	.st206{fill:url(#SVGID_196_);}
	.st207{fill:url(#SVGID_197_);}
	.st208{fill:url(#SVGID_198_);}
	.st209{fill:url(#SVGID_199_);}
	.st210{fill:url(#SVGID_200_);}
	.st211{fill:url(#SVGID_201_);}
	.st212{fill:url(#SVGID_202_);}
	.st213{fill:url(#SVGID_203_);}
	.st214{fill:url(#SVGID_204_);}
	.st215{fill:url(#SVGID_205_);}
	.st216{fill:url(#SVGID_206_);}
	.st217{fill:url(#SVGID_207_);}
	.st218{fill:url(#SVGID_208_);}
	.st219{fill:url(#SVGID_209_);}
	.st220{fill:url(#SVGID_210_);}
	.st221{fill:url(#SVGID_211_);}
	.st222{fill:url(#SVGID_212_);}
	.st223{fill:url(#SVGID_213_);}
	.st224{fill:url(#SVGID_214_);}
	.st225{fill:url(#SVGID_215_);}
	.st226{fill:url(#SVGID_216_);}
	.st227{fill:url(#SVGID_217_);}
	.st228{fill:url(#SVGID_218_);}
	.st229{fill:url(#SVGID_219_);}
	.st230{fill:url(#SVGID_220_);}
	.st231{fill:url(#SVGID_221_);}
	.st232{fill:url(#SVGID_222_);}
	.st233{fill:url(#SVGID_223_);}
	.st234{fill:url(#SVGID_224_);}
	.st235{fill:url(#SVGID_225_);}
	.st236{fill:url(#SVGID_226_);}
	.st237{fill:url(#SVGID_227_);}
	.st238{fill:url(#SVGID_228_);}
	.st239{fill:url(#SVGID_229_);}
	.st240{fill:url(#SVGID_230_);}
	.st241{fill:url(#SVGID_231_);}
	.st242{fill:url(#SVGID_232_);}
	.st243{fill:url(#SVGID_233_);}
	.st244{fill:url(#SVGID_234_);}
	.st245{fill:url(#SVGID_235_);}
	.st246{fill:url(#SVGID_236_);}
	.st247{fill:url(#SVGID_237_);}
	.st248{fill:url(#SVGID_238_);}
	.st249{fill:url(#SVGID_239_);}
	.st250{fill:url(#SVGID_240_);}
	.st251{fill:url(#SVGID_241_);}
	.st252{fill:url(#SVGID_242_);}
	.st253{fill:url(#SVGID_243_);}
	.st254{fill:url(#SVGID_244_);}
	.st255{fill:url(#SVGID_245_);}
	.st256{fill:url(#SVGID_246_);}
	.st257{fill:url(#SVGID_247_);}
	.st258{fill:url(#SVGID_248_);}
	.st259{fill:url(#SVGID_249_);}
	.st260{fill:url(#SVGID_250_);}
	.st261{fill:url(#SVGID_251_);}
	.st262{fill:url(#SVGID_252_);}
	.st263{fill:url(#SVGID_253_);}
	.st264{fill:url(#SVGID_254_);}
	.st265{fill:url(#SVGID_255_);}
	.st266{fill:url(#SVGID_256_);}
	.st267{fill:url(#SVGID_257_);}
	.st268{fill:url(#SVGID_258_);}
	.st269{fill:url(#SVGID_259_);}
	.st270{fill:url(#SVGID_260_);}
	.st271{fill:url(#SVGID_261_);}
	.st272{fill:url(#SVGID_262_);}
	.st273{fill:url(#SVGID_263_);}
	.st274{fill:url(#SVGID_264_);}
	.st275{fill:url(#SVGID_265_);}
	.st276{fill:url(#SVGID_266_);}
	.st277{fill:url(#SVGID_267_);}
	.st278{fill:url(#SVGID_268_);}
	.st279{fill:url(#SVGID_269_);}
	.st280{fill:url(#SVGID_270_);}
	.st281{fill:url(#SVGID_271_);}
	.st282{fill:url(#SVGID_272_);}
	.st283{fill:url(#SVGID_273_);}
	.st284{fill:url(#SVGID_274_);}
	.st285{fill:url(#SVGID_275_);}
	.st286{fill:url(#SVGID_276_);}
	.st287{fill:url(#SVGID_277_);}
	.st288{fill:url(#SVGID_278_);}
	.st289{fill:url(#SVGID_279_);}
	.st290{fill:url(#SVGID_280_);}
	.st291{fill:url(#SVGID_281_);}
	.st292{fill:url(#SVGID_282_);}
	.st293{fill:url(#SVGID_283_);}
	.st294{fill:url(#SVGID_284_);}
	.st295{fill:url(#SVGID_285_);}
	.st296{fill:url(#SVGID_286_);}
	.st297{fill:url(#SVGID_287_);}
	.st298{fill:url(#SVGID_288_);}
	.st299{fill:url(#SVGID_289_);}
	.st300{fill:url(#SVGID_290_);}
	.st301{fill:url(#SVGID_291_);}
	.st302{fill:url(#SVGID_292_);}
	.st303{fill:url(#SVGID_293_);}
	.st304{fill:url(#SVGID_294_);}
	.st305{fill:url(#SVGID_295_);}
	.st306{fill:url(#SVGID_296_);}
	.st307{fill:url(#SVGID_297_);}
	.st308{fill:url(#SVGID_298_);}
	.st309{fill:url(#SVGID_299_);}
	.st310{fill:url(#SVGID_300_);}
	.st311{fill:url(#SVGID_301_);}
	.st312{fill:url(#SVGID_302_);}
	.st313{fill:url(#SVGID_303_);}
	.st314{fill:url(#SVGID_304_);}
	.st315{fill:url(#SVGID_305_);}
	.st316{fill:url(#SVGID_306_);}
	.st317{fill:url(#SVGID_307_);}
	.st318{fill:url(#SVGID_308_);}
	.st319{fill:url(#SVGID_309_);}
	.st320{fill:url(#SVGID_310_);}
	.st321{fill:url(#SVGID_311_);}
	.st322{fill:url(#SVGID_312_);}
	.st323{fill:url(#SVGID_313_);}
	.st324{fill:url(#SVGID_314_);}
	.st325{fill:url(#SVGID_315_);}
	.st326{fill:url(#SVGID_316_);}
	.st327{fill:url(#SVGID_317_);}
	.st328{fill:url(#SVGID_318_);}
	.st329{fill:url(#SVGID_319_);}
	.st330{fill:url(#SVGID_320_);}
	.st331{fill:url(#SVGID_321_);}
	.st332{fill:url(#SVGID_322_);}
	.st333{fill:url(#SVGID_323_);}
	.st334{fill:url(#SVGID_324_);}
	.st335{fill:url(#SVGID_325_);}
	.st336{fill:url(#SVGID_326_);}
	.st337{fill:url(#SVGID_327_);}
	.st338{fill:url(#SVGID_328_);}
	.st339{fill:url(#SVGID_329_);}
	.st340{fill:url(#SVGID_330_);}
	.st341{fill:url(#SVGID_331_);}
	.st342{fill:url(#SVGID_332_);}
	.st343{fill:url(#SVGID_333_);}
	.st344{fill:url(#SVGID_334_);}
	.st345{fill:url(#SVGID_335_);}
	.st346{fill:url(#SVGID_336_);}
	.st347{fill:url(#SVGID_337_);}
	.st348{fill:url(#SVGID_338_);}
	.st349{fill:url(#SVGID_339_);}
	.st350{fill:url(#SVGID_340_);}
	.st351{fill:url(#SVGID_341_);}
	.st352{fill:url(#SVGID_342_);}
	.st353{fill:url(#SVGID_343_);}
	.st354{fill:url(#SVGID_344_);}
	.st355{fill:url(#SVGID_345_);}
	.st356{fill:url(#SVGID_346_);}
	.st357{fill:url(#SVGID_347_);}
	.st358{fill:url(#SVGID_348_);}
	.st359{fill:url(#SVGID_349_);}
	.st360{fill:url(#SVGID_350_);}
	.st361{fill:url(#SVGID_351_);}
	.st362{fill:url(#SVGID_352_);}
	.st363{fill:url(#SVGID_353_);}
	.st364{fill:url(#SVGID_354_);}
	.st365{fill:url(#SVGID_355_);}
	.st366{fill:url(#SVGID_356_);}
	.st367{fill:url(#SVGID_357_);}
	.st368{fill:url(#SVGID_358_);}
	.st369{fill:url(#SVGID_359_);}
	.st370{fill:url(#SVGID_360_);}
	.st371{fill:url(#SVGID_361_);}
	.st372{fill:url(#SVGID_362_);}
	.st373{fill:url(#SVGID_363_);}
	.st374{fill:url(#SVGID_364_);}
	.st375{fill:url(#SVGID_365_);}
	.st376{fill:url(#SVGID_366_);}
	.st377{fill:url(#SVGID_367_);}
	.st378{fill:url(#SVGID_368_);}
	.st379{fill:url(#SVGID_369_);}
	.st380{fill:url(#SVGID_370_);}
	.st381{fill:url(#SVGID_371_);}
	.st382{fill:url(#SVGID_372_);}
	.st383{fill:url(#SVGID_373_);}
	.st384{fill:url(#SVGID_374_);}
	.st385{fill:url(#SVGID_375_);}
	.st386{fill:url(#SVGID_376_);}
	.st387{fill:url(#SVGID_377_);}
	.st388{fill:url(#SVGID_378_);}
	.st389{fill:url(#SVGID_379_);}
	.st390{fill:url(#SVGID_380_);}
	.st391{fill:url(#SVGID_381_);}
	.st392{fill:url(#SVGID_382_);}
	.st393{fill:url(#SVGID_383_);}
	.st394{fill:url(#SVGID_384_);}
	.st395{fill:url(#SVGID_385_);}
	.st396{fill:url(#SVGID_386_);}
	.st397{fill:url(#SVGID_387_);}
	.st398{fill:url(#SVGID_388_);}
	.st399{fill:url(#SVGID_389_);}
	.st400{fill:url(#SVGID_390_);}
	.st401{fill:url(#SVGID_391_);}
	.st402{fill:url(#SVGID_392_);}
	.st403{fill:url(#SVGID_393_);}
	.st404{fill:url(#SVGID_394_);}
	.st405{fill:url(#SVGID_395_);}
	.st406{fill:url(#SVGID_396_);}
	.st407{fill:url(#SVGID_397_);}
	.st408{fill:url(#SVGID_398_);}
	.st409{fill:url(#SVGID_399_);}
	.st410{fill:url(#SVGID_400_);}
	.st411{fill:url(#SVGID_401_);}
	.st412{fill:url(#SVGID_402_);}
	.st413{fill:url(#SVGID_403_);}
	.st414{fill:url(#SVGID_404_);}
	.st415{fill:url(#SVGID_405_);}
	.st416{fill:url(#SVGID_406_);}
	.st417{fill:url(#SVGID_407_);}
	.st418{fill:url(#SVGID_408_);}
	.st419{fill:url(#SVGID_409_);}
	.st420{fill:url(#SVGID_410_);}
	.st421{fill:url(#SVGID_411_);}
	.st422{fill:url(#SVGID_412_);}
	.st423{fill:url(#SVGID_413_);}
	.st424{fill:url(#SVGID_414_);}
	.st425{fill:url(#SVGID_415_);}
	.st426{fill:url(#SVGID_416_);}
	.st427{fill:url(#SVGID_417_);}
	.st428{fill:url(#SVGID_418_);}
	.st429{fill:url(#SVGID_419_);}
	.st430{fill:url(#SVGID_420_);}
	.st431{fill:url(#SVGID_421_);}
	.st432{fill:url(#SVGID_422_);}
	.st433{fill:url(#SVGID_423_);}
	.st434{fill:url(#SVGID_424_);}
	.st435{fill:url(#SVGID_425_);}
	.st436{fill:url(#SVGID_426_);}
	.st437{fill:url(#SVGID_427_);}
	.st438{fill:url(#SVGID_428_);}
	.st439{fill:url(#SVGID_429_);}
	.st440{fill:url(#SVGID_430_);}
	.st441{fill:url(#SVGID_431_);}
	.st442{fill:url(#SVGID_432_);}
	.st443{fill:url(#SVGID_433_);}
	.st444{fill:url(#SVGID_434_);}
	.st445{fill:url(#SVGID_435_);}
	.st446{fill:url(#SVGID_436_);}
	.st447{fill:url(#SVGID_437_);}
	.st448{fill:url(#SVGID_438_);}
	.st449{fill:url(#SVGID_439_);}
	.st450{fill:url(#SVGID_440_);}
	.st451{fill:url(#SVGID_441_);}
	.st452{fill:url(#SVGID_442_);}
	.st453{fill:url(#SVGID_443_);}
	.st454{fill:url(#SVGID_444_);}
	.st455{fill:url(#SVGID_445_);}
	.st456{fill:url(#SVGID_446_);}
	.st457{fill:url(#SVGID_447_);}
	.st458{fill:url(#SVGID_448_);}
	.st459{fill:url(#SVGID_449_);}
	.st460{fill:url(#SVGID_450_);}
	.st461{fill:url(#SVGID_451_);}
	.st462{fill:url(#SVGID_452_);}
	.st463{fill:url(#SVGID_453_);}
	.st464{fill:url(#SVGID_454_);}
	.st465{fill:url(#SVGID_455_);}
	.st466{fill:url(#SVGID_456_);}
	.st467{fill:url(#SVGID_457_);}
	.st468{fill:url(#SVGID_458_);}
	.st469{fill:url(#SVGID_459_);}
	.st470{fill:url(#SVGID_460_);}
	.st471{fill:url(#SVGID_461_);}
	.st472{fill:url(#SVGID_462_);}
	.st473{fill:url(#SVGID_463_);}
	.st474{fill:url(#SVGID_464_);}
	.st475{fill:url(#SVGID_465_);}
	.st476{fill:url(#SVGID_466_);}
	.st477{fill:url(#SVGID_467_);}
	.st478{fill:url(#SVGID_468_);}
	.st479{fill:url(#SVGID_469_);}
	.st480{fill:url(#SVGID_470_);}
	.st481{fill:url(#SVGID_471_);}
	.st482{fill:url(#SVGID_472_);}
	.st483{fill:url(#SVGID_473_);}
	.st484{fill:url(#SVGID_474_);}
	.st485{fill:url(#SVGID_475_);}
	.st486{fill:url(#SVGID_476_);}
	.st487{fill:url(#SVGID_477_);}
	.st488{fill:url(#SVGID_478_);}
	.st489{fill:url(#SVGID_479_);}
	.st490{fill:url(#SVGID_480_);}
	.st491{fill:url(#SVGID_481_);}
	.st492{fill:url(#SVGID_482_);}
	.st493{fill:url(#SVGID_483_);}
	.st494{fill:url(#SVGID_484_);}
	.st495{fill:url(#SVGID_485_);}
	.st496{fill:url(#SVGID_486_);}
	.st497{fill:url(#SVGID_487_);}
	.st498{fill:url(#SVGID_488_);}
	.st499{fill:url(#SVGID_489_);}
	.st500{fill:url(#SVGID_490_);}
	.st501{fill:url(#SVGID_491_);}
	.st502{fill:url(#SVGID_492_);}
	.st503{fill:url(#SVGID_493_);}
	.st504{fill:url(#SVGID_494_);}
	.st505{fill:url(#SVGID_495_);}
	.st506{fill:url(#SVGID_496_);}
	.st507{fill:url(#SVGID_497_);}
	.st508{fill:url(#SVGID_498_);}
	.st509{fill:url(#SVGID_499_);}
	.st510{fill:url(#SVGID_500_);}
	.st511{fill:url(#SVGID_501_);}
	.st512{fill:url(#SVGID_502_);}
	.st513{fill:url(#SVGID_503_);}
	.st514{fill:url(#SVGID_504_);}
	.st515{fill:url(#SVGID_505_);}
	.st516{fill:url(#SVGID_506_);}
	.st517{fill:url(#SVGID_507_);}
	.st518{fill:url(#SVGID_508_);}
	.st519{fill:url(#SVGID_509_);}
	.st520{fill:url(#SVGID_510_);}
	.st521{fill:url(#SVGID_511_);}
	.st522{fill:url(#SVGID_512_);}
	.st523{fill:url(#SVGID_513_);}
	.st524{fill:url(#SVGID_514_);}
	.st525{fill:url(#SVGID_515_);}
	.st526{fill:url(#SVGID_516_);}
	.st527{fill:url(#SVGID_517_);}
	.st528{fill:url(#SVGID_518_);}
	.st529{fill:url(#SVGID_519_);}
	.st530{fill:url(#SVGID_520_);}
	.st531{fill:url(#SVGID_521_);}
	.st532{fill:url(#SVGID_522_);}
	.st533{fill:url(#SVGID_523_);}
	.st534{fill:url(#SVGID_524_);}
	.st535{fill:url(#SVGID_525_);}
	.st536{fill:url(#SVGID_526_);}
	.st537{fill:url(#SVGID_527_);}
	.st538{fill:url(#SVGID_528_);}
	.st539{fill:url(#SVGID_529_);}
	.st540{fill:url(#SVGID_530_);}
	.st541{fill:url(#SVGID_531_);}
	.st542{fill:url(#SVGID_532_);}
	.st543{fill:url(#SVGID_533_);}
	.st544{fill:url(#SVGID_534_);}
	.st545{fill:url(#SVGID_535_);}
	.st546{fill:url(#SVGID_536_);}
	.st547{fill:url(#SVGID_537_);}
	.st548{fill:url(#SVGID_538_);}
	.st549{fill:url(#SVGID_539_);}
	.st550{fill:url(#SVGID_540_);}
	.st551{fill:url(#SVGID_541_);}
	.st552{fill:url(#SVGID_542_);}
	.st553{fill:url(#SVGID_543_);}
	.st554{fill:url(#SVGID_544_);}
	.st555{fill:url(#SVGID_545_);}
	.st556{fill:url(#SVGID_546_);}
	.st557{fill:url(#SVGID_547_);}
	.st558{fill:url(#SVGID_548_);}
	.st559{fill:url(#SVGID_549_);}
	.st560{fill:url(#SVGID_550_);}
	.st561{fill:url(#SVGID_551_);}
	.st562{fill:url(#SVGID_552_);}
	.st563{fill:url(#SVGID_553_);}
	.st564{clip-path:url(#SVGID_555_);}
	.st565{fill-rule:evenodd;clip-rule:evenodd;fill:#FFFFFF;}
	.st566{fill:url(#SVGID_556_);}
	.st567{fill:url(#SVGID_557_);}
	.st568{fill-rule:evenodd;clip-rule:evenodd;fill:url(#SVGID_558_);}
	.st569{fill-rule:evenodd;clip-rule:evenodd;fill:url(#SVGID_559_);}
	.st570{fill-rule:evenodd;clip-rule:evenodd;fill:url(#SVGID_560_);}
	.st571{fill-rule:evenodd;clip-rule:evenodd;fill:url(#SVGID_561_);}
	.st572{fill-rule:evenodd;clip-rule:evenodd;fill:url(#SVGID_562_);}
	.st573{fill-rule:evenodd;clip-rule:evenodd;fill:url(#SVGID_563_);}
	.st574{fill-rule:evenodd;clip-rule:evenodd;fill:url(#SVGID_564_);}
	.st575{fill-rule:evenodd;clip-rule:evenodd;fill:url(#SVGID_565_);}
	.st576{fill-rule:evenodd;clip-rule:evenodd;fill:url(#SVGID_566_);}
	.st577{fill-rule:evenodd;clip-rule:evenodd;fill:url(#SVGID_567_);}
	.st578{fill-rule:evenodd;clip-rule:evenodd;fill:url(#SVGID_568_);}
	.st579{fill-rule:evenodd;clip-rule:evenodd;}
	.st580{fill-rule:evenodd;clip-rule:evenodd;fill:#666666;}
	.st581{fill:url(#SVGID_569_);}
	.st582{fill:url(#SVGID_570_);}
	.st583{fill:url(#SVGID_571_);}
	.st584{fill:url(#SVGID_572_);}
	.st585{fill:url(#SVGID_573_);}
	.st586{fill:url(#SVGID_574_);}
	.st587{fill:url(#SVGID_575_);}
	.st588{fill:url(#SVGID_576_);}
	.st589{fill:url(#SVGID_577_);}
	.st590{fill:url(#SVGID_578_);}
	.st591{fill:url(#SVGID_579_);}
	.st592{fill:url(#SVGID_580_);}
	.st593{fill:url(#SVGID_581_);}
	.st594{fill:url(#SVGID_582_);}
	.st595{fill:url(#SVGID_583_);}
	.st596{fill:url(#SVGID_584_);}
	.st597{fill:url(#SVGID_585_);}
	.st598{fill:url(#SVGID_586_);}
	.st599{fill:url(#SVGID_587_);}
	.st600{fill:url(#SVGID_588_);}
	.st601{fill:url(#SVGID_589_);}
	.st602{fill:url(#SVGID_590_);}
	.st603{fill:url(#SVGID_591_);}
	.st604{fill:url(#SVGID_592_);}
	.st605{fill:url(#SVGID_593_);}
	.st606{fill:url(#SVGID_594_);}
	.st607{fill:url(#SVGID_595_);}
	.st608{fill:url(#SVGID_596_);}
	.st609{fill:url(#SVGID_597_);}
	.st610{fill:url(#SVGID_598_);}
	.st611{fill:url(#SVGID_599_);}
	.st612{fill:url(#SVGID_600_);}
	.st613{clip-path:url(#SVGID_602_);}
	.st614{clip-path:url(#SVGID_606_);}
	.st615{fill:url(#SVGID_607_);}
	.st616{fill:url(#SVGID_608_);}
	.st617{fill:#606060;}
	.st618{fill:#F68000;}
	
		.st619{fill-rule:evenodd;clip-rule:evenodd;fill:none;stroke:#000000;stroke-width:0.6448;stroke-miterlimit:10;stroke-dasharray:2.579;}
	.st620{fill:url(#SVGID_609_);}
	.st621{fill:url(#SVGID_610_);}
	.st622{fill:url(#SVGID_611_);}
	.st623{fill:url(#SVGID_612_);}
	.st624{opacity:0.5;fill:#383838;}
	.st625{fill:#383838;}
	.st626{fill:#646464;}
	.st627{fill:#494949;}
	.st628{fill:#E7E7E7;}
	.st629{fill:#878787;}
	.st630{fill:#FF8500;}
	.st631{opacity:0.3;}
	.st632{clip-path:url(#SVGID_614_);}
	.st633{fill:#A5A5A5;}
	.st634{fill:#FF5900;}
	.st635{fill:#FF9E00;}
	.st636{clip-path:url(#SVGID_616_);}
	.st637{fill-rule:evenodd;clip-rule:evenodd;fill:url(#SVGID_617_);}
	.st638{fill-rule:evenodd;clip-rule:evenodd;fill:url(#SVGID_618_);}
	.st639{fill-rule:evenodd;clip-rule:evenodd;fill:url(#SVGID_619_);}
	.st640{enable-background:new    ;}
	.st641{fill:url(#SVGID_620_);}
	.st642{fill:url(#SVGID_621_);}
	.st643{fill:url(#SVGID_622_);}
	.st644{fill:url(#SVGID_623_);}
</style>
<g id="Capa_1">
</g>
<g id="Capa_2">
	<g>
		<g>
			<path class="st28" d="M695.2,273.2c-18.6,16.5-42.5,27-68.9,28.5v74.1c46.8-1.7,89.2-20.4,121.3-50.2L695.2,273.2z"/>
			<g class="st29">
				<path class="st30" d="M534.2,263.6c-16.5-18.6-27-42.5-28.5-68.9h-74.1c1.7,46.8,20.4,89.2,50.2,121.3L534.2,263.6z"/>
				<path class="st31" d="M612.7,301.7c-26.4-1.5-50.3-12.1-68.9-28.5l-52.4,52.4c32,29.8,74.5,48.6,121.3,50.2V301.7z"/>
				<path class="st32" d="M325.1,0v74.1c26.4,1.5,50.3,12.1,68.9,28.5l52.4-52.4C414.4,20.4,371.9,1.7,325.1,0z"/>
				<path class="st33" d="M242.7,102.6c18.6-16.5,42.5-27,68.9-28.5V0c-46.8,1.7-89.2,20.4-121.3,50.2L242.7,102.6z"/>
				<path class="st33" d="M204.5,181.1c1.5-26.4,12.1-50.3,28.5-68.9l-52.4-52.4c-29.8,32-48.6,74.5-50.2,121.3H204.5z"/>
				<path class="st34" d="M403.6,112.2c16.5,18.6,27,42.5,28.5,68.9h74.1c-1.7-46.8-20.4-89.2-50.2-121.3L403.6,112.2z"/>
				<path class="st33" d="M233.1,263.6c-16.5-18.6-27-42.5-28.5-68.9h-74.1c1.7,46.8,20.4,89.2,50.2,121.3L233.1,263.6z"/>
			</g>
			<g>
				<g>
					<g>
						<path class="st35" d="M311.6,301.7c-26.4-1.5-50.3-12.1-68.9-28.5l-52.4,52.4c32,29.8,74.5,48.6,121.3,50.2V301.7z"/>
						<path class="st35" d="M432.2,194.7c-1.5,26.4-12.1,50.3-28.5,68.9l52.4,52.4c29.8-32,48.6-74.5,50.2-121.3H432.2z"/>
						<path class="st35" d="M394,273.2c-18.6,16.5-42.5,27-68.9,28.5v74.1c46.8-1.7,89.2-20.4,121.3-50.2L394,273.2z"/>
					</g>
				</g>
				<path class="st28" d="M626.3,0v74.1c26.4,1.5,50.3,12.1,68.9,28.5l52.4-52.4C715.5,20.4,673.1,1.7,626.3,0z"/>
				<path class="st28" d="M757.1,315.9l-52.4-52.4c17.6-19.7,27.1-44.1,28.5-68.9l74.1,0C805.8,238.4,789.1,281.7,757.1,315.9z"/>
				<path class="st36" d="M543.8,102.6c18.6-16.5,42.5-27,68.9-28.5V0c-46.8,1.7-89.2,20.4-121.3,50.2L543.8,102.6z"/>
				<path class="st36" d="M505.7,181.1c1.5-26.4,12.1-50.3,28.5-68.9l-52.4-52.4c-29.8,32-48.6,74.5-50.2,121.3H505.7z"/>
				<path class="st28" d="M704.8,112.2c16.5,18.6,27,42.5,28.5,68.9h74.1c-1.7-46.8-20.4-89.2-50.2-121.3L704.8,112.2z"/>
			</g>
			<g>
				<g>
					<path class="st35" d="M47.3,135.2C21.2,135.2,0,156.3,0,182.4s21.2,47.3,47.3,47.3s47.3-21.2,47.3-47.3S73.4,135.2,47.3,135.2z
						 M47.3,211.3c-15.9,0-28.9-12.9-28.9-28.9c0-15.9,12.9-28.9,28.9-28.9s28.9,12.9,28.9,28.9C76.1,198.4,63.2,211.3,47.3,211.3z"
						/>
					<path class="st37" d="M246,135.2c-26.1,0-47.3,21.2-47.3,47.3s21.2,47.3,47.3,47.3s47.3-21.2,47.3-47.3S272.1,135.2,246,135.2z
						 M246,211.3c-15.9,0-28.9-12.9-28.9-28.9c0-15.9,12.9-28.9,28.9-28.9s28.9,12.9,28.9,28.9C274.8,198.4,261.9,211.3,246,211.3z"
						/>
					<path class="st37" d="M346.3,135.2c-26.1,0-47.3,21.2-47.3,47.3s21.2,47.3,47.3,47.3c26.1,0,47.3-21.2,47.3-47.3
						S372.4,135.2,346.3,135.2z M346.3,211.3c-15.9,0-28.9-12.9-28.9-28.9c0-15.9,12.9-28.9,28.9-28.9c15.9,0,28.9,12.9,28.9,28.9
						C375.1,198.4,362.2,211.3,346.3,211.3z"/>
					<path class="st37" d="M195,110.5c0-5.5-4.5-9.9-9.9-9.9h0c-5.5,0-9.9,4.5-9.9,9.9V144c-7.8-5.6-17.3-8.9-27.5-8.9
						c-26.1,0-47.3,21.2-47.3,47.3s21.2,47.3,47.3,47.3c24.5,0,44.7-18.7,47-42.6c0.3-0.3,0.4-0.9,0.4-1.8V110.5z M147.6,211.3
						c-15.9,0-28.9-12.9-28.9-28.9c0-15.9,12.9-28.9,28.9-28.9s28.9,12.9,28.9,28.9C176.4,198.4,163.5,211.3,147.6,211.3z"/>
				</g>
			</g>
			<path id="SVGID_x5F_1_x5F_" class="st38" d="M198.7,317.1c0,0,48.8,46.4,118.9,46.4s123.2-44.1,140.1-69.5s34.5-55.9,35.6-99.4"
				/>
			<text>			<textPath  xlink:href="#SVGID_x5F_1_x5F_" startOffset="0.7813%">
<tspan  class="st24" style="font-family:'Titillium-Bold'; font-size:19.1105px;">        CRM                        MKT                   MAILING</tspan>			</textPath>
</text>
			<path id="SVGID_x5F_2_x5F_" class="st38" d="M450.1,180.6c0,0,12.7-119.9,111.5-151.7s211.8,28.7,226.9,151.7"/>
			<text>			<textPath  xlink:href="#SVGID_x5F_2_x5F_" startOffset="0.6835%">
<tspan  class="st24" style="font-family:'Titillium-Bold'; font-size:19.1105px;">  INVENTARIO              MRP                  COMPRAS           FACTURAS</tspan>			</textPath>
</text>
			<path id="SVGID_x5F_3_x5F_" class="st38" d="M626.3,366.6C790.7,341.1,792.7,201,792.7,201"/>
			<text>			<textPath  xlink:href="#SVGID_x5F_3_x5F_" startOffset="0.439%">
<tspan  class="st24" style="font-family:'Titillium-Bold'; font-size:18.6937px;"> ecommerce</tspan><tspan  class="st24" style="font-family:'Titillium-Bold'; font-size:18.6937px;">         CONTABLE</tspan>			</textPath>
</text>
		</g>
		<path class="st24" d="M269.8,313.7c1.9-0.9,3.4-2.5,4.3-4.5c2.1-4.6,0-10.1-4.7-12.2c-4.6-2.1-10.1,0-12.2,4.7
			c-0.9,2-1,4.2-0.5,6.2c-3.1,0.2-5.9,2-7.2,5l-3,6.6c-0.9,1.9,0,4.2,2,5.1l7.1,3.2l7.1,3.2c1.9,0.9,4.2,0,5.1-2l3-6.6
			C272.2,319.4,271.7,316.1,269.8,313.7z M268.2,299.9L268.2,299.9L268.2,299.9c3,1.4,4.4,4.9,3,8c-1.4,3-4.9,4.4-8,3l0,0l0,0
			c-3-1.4-4.4-4.9-3-8C261.6,299.9,265.2,298.5,268.2,299.9z M265,327.7c-0.2,0.3-0.6,0.5-0.9,0.3l-7.1-3.2l-7.1-3.2
			c-0.3-0.2-0.5-0.6-0.3-0.9l3-6.6c1.1-2.3,3.6-3.6,6-2.9c0.9,1.1,2,2,3.4,2.6c1.4,0.6,2.8,0.9,4.2,0.8c2.1,1.4,2.9,4.1,1.8,6.5
			L265,327.7z"/>
		<path class="st24" d="M441.5,221.8l-11.8,23c-0.9,1.7-0.2,3.8,1.5,4.7l15.4,7.9c1.7,0.9,3.8,0.2,4.7-1.5l11.8-23
			c0.9-1.7,0.2-3.8-1.5-4.7l-15.4-7.9C444.5,219.4,442.4,220.1,441.5,221.8z M443,226.3l1.6,11.6l-10.4,5.4L443,226.3z M460.1,231.3
			l-11.8,23c0,0.1-0.1,0.1-0.2,0.1l-14.1-7.2l14.1-7.4l-2.2-15.8l14.1,7.2C460.1,231.2,460.1,231.3,460.1,231.3z"/>
		<g>
			<path class="st24" d="M377.5,330.8c-1.6,0.8-3.7,0.2-4.5-1.4l-2.2-4.1c-0.9,0.3-1.5,0.5-1.5,0.5l-0.6,0.2c-0.8,0.3-1.7,0-2.1-0.8
				l-3.9-7.5c-0.4-0.8-0.1-1.7,0.6-2.1l0.6-0.4c0,0,3.4-2.3,6.7-5.9c1.6-1.8,3.7-4.6,4.7-6c0.2-0.9,0.8-1.7,1.7-2.2
				c1.6-0.8,3.6-0.2,4.5,1.5l8.4,16.4c0.8,1.6,0.2,3.7-1.4,4.5c-0.9,0.4-1.9,0.5-2.7,0.1c-1.5,0-4.2,0-6.4,0.2l1,1.9
				c0.8,1.6,0.2,3.7-1.4,4.5L377.5,330.8C377.5,330.8,377.5,330.8,377.5,330.8z M368.9,322.4c0.5-0.2,1.3-0.4,2.3-0.7
				c0.8-0.2,1.5,0.1,1.9,0.8l3.6,6.8l-0.8-1.5l1.4-0.7l-2.1-4.1c-0.2-0.5-0.3-1,0-1.5c0.2-0.5,0.7-0.8,1.2-0.9
				c0.4-0.1,0.8-0.1,1.2-0.2c2.7-0.3,6.4-0.3,8.4-0.3c0.3,0,0.6,0.1,0.9,0.2l-8.5-16.4c0,0.3-0.1,0.5-0.3,0.8
				c-1.2,1.6-3.4,4.6-5.2,6.6c-2.7,3-5.4,5.1-6.6,6L368.9,322.4z"/>
			<path class="st24" d="M364.3,328.1l-3.6,1.8c-0.8,0.4-1.8,0.1-2.2-0.7l-3.5-6.9c-0.4-0.8-0.1-1.8,0.7-2.2l3.6-1.8
				c0.8-0.4,1.8-0.1,2.2,0.7l3.5,6.9C365.4,326.6,365.1,327.6,364.3,328.1z M360.7,326.2l0.6-0.3l-2-3.9l-0.6,0.3L360.7,326.2z"/>
		</g>
		<g>
			<path class="st24" d="M656.2,304.8L656.2,304.8C656.2,304.8,656.1,304.8,656.2,304.8L656.2,304.8L656.2,304.8L656.2,304.8z"/>
			<path class="st24" d="M667.9,325.2l17.3-8.2c2.7-1.3,3.9-4.6,2.6-7.3l-3.5-7.3l-0.2-0.3l-0.4-0.4c0,0,0,0,0,0l-0.4-0.3
				c0,0,0,0,0,0l-0.3-0.1c-0.1,0-0.1-0.1-0.2-0.1l-0.2-0.1l-1,0l-22.3,7.1l-0.9-1.8c0,0-0.1-0.1-0.1-0.2l-0.1-0.3l-0.3-0.2
				c-0.1-0.1-0.1-0.1-0.2-0.2l-0.2-0.2l-0.8-0.4l-0.5-0.1l-5.9,0.3c-0.7,0-1.3,0.3-1.7,0.8c-0.5,0.5-0.7,1.1-0.7,1.8
				c0.1,1.4,1.2,2.5,2.6,2.4l4-0.2l8.6,18.1c0.9,1.9,2.8,3.1,4.8,3.1c0.1,0.3,0.2,0.7,0.4,1c1.3,2.7,4.5,3.9,7.3,2.6
				c2.7-1.3,3.9-4.5,2.6-7.3c-0.1-0.1-0.1-0.2-0.2-0.4l4.1-1.9c0,0.1,0.1,0.3,0.2,0.4c1.3,2.7,4.5,3.9,7.3,2.6
				c2.7-1.3,3.9-4.5,2.6-7.3s-4.5-3.9-7.3-2.6l-16.4,7.8c-0.2,0.1-0.5,0-0.6-0.2l-0.2-0.5C667.6,325.3,667.7,325.2,667.9,325.2z
				 M683.9,301.8L683.9,301.8L683.9,301.8C683.9,301.8,683.9,301.8,683.9,301.8z M684.7,322.9l0.1-1.4l1.2-0.6
				c1.2-0.6,2.6-0.1,3.1,1.1s0.1,2.6-1.1,3.1s-2.6,0.1-3.1-1.1C684.8,323.8,684.7,323.3,684.7,322.9z M670.8,329.5l0.1-1.3l2.4-1.1
				l1.1,0.8c0.3,0.2,0.6,0.5,0.8,0.9c0.6,1.2,0.1,2.6-1.1,3.1c-1.2,0.6-2.6,0.1-3.1-1.1C670.9,330.4,670.8,329.9,670.8,329.5z
				 M665.3,322.6l-1.3-0.1l-5.3-11l23-7.3l3.2,6.8c0.6,1.2,0.1,2.6-1.1,3.2l-17.3,8.2C666.1,322.6,665.7,322.6,665.3,322.6z"/>
		</g>
		<g>
			<g>
				<g>
					<path class="st24" d="M573.8,41.6c-0.3-0.3-0.7-0.4-1-0.3c-0.4,0.1-0.7,0.3-0.8,0.7l-2.2,5.6c-0.3,0.9-1,1.5-1.8,1.9
						c-0.8,0.4-1.8,0.4-2.6,0.1c-0.9-0.3-1.5-1-1.9-1.8c-0.4-0.8-0.4-1.8-0.1-2.6l2.2-5.6c0.1-0.4,0.1-0.8-0.1-1.1
						c-0.2-0.3-0.6-0.5-1-0.5c-1.2,0-2.5,0.3-3.6,0.8c-2.1,0.9-3.7,2.6-4.5,4.6l-0.7,1.8c-1.2,3.2-0.5,6.8,1.9,9.2l-5.9,15.2
						c-0.5,1.4-0.5,2.8,0.1,4.2s1.7,2.4,3,2.9c1.4,0.5,2.8,0.5,4.2-0.1c1.3-0.6,2.4-1.7,2.9-3l5.9-15.2c1.1,0,2.1-0.3,3.1-0.7
						c2.1-0.9,3.7-2.6,4.5-4.7l0.7-1.8C577.4,47.8,576.4,44,573.8,41.6z M569.9,55.5c-0.9,0.4-1.9,0.6-2.9,0.5c-0.5,0-1,0.3-1.2,0.9
						l-6.1,15.8c-0.3,0.8-0.9,1.4-1.7,1.7c-0.8,0.3-1.6,0.4-2.4,0.1c-0.8-0.3-1.4-0.9-1.7-1.7c-0.3-0.8-0.4-1.6-0.1-2.4l6.2-15.8
						c0.2-0.5,0.1-1.1-0.3-1.4c-2.1-1.7-2.9-4.6-1.9-7.1l0.7-1.8c0.6-1.5,1.7-2.7,3.3-3.4c0.3-0.1,0.6-0.2,0.9-0.3l-1.5,3.8
						c-0.6,1.4-0.5,3,0.1,4.4c0.6,1.4,1.7,2.5,3.2,3c1.4,0.6,3,0.5,4.4-0.1c1.4-0.6,2.5-1.7,3-3.2l1.5-3.8c1,1.7,1.3,3.7,0.6,5.5
						l-0.7,1.8C572.6,53.6,571.4,54.9,569.9,55.5z"/>
					<path class="st24" d="M559.1,76.8C559.1,76.8,559.1,76.8,559.1,76.8c-1.4,0.6-3,0.7-4.4,0.1c-1.4-0.6-2.5-1.6-3.2-3
						c-0.6-1.4-0.7-3-0.1-4.4l5.8-15c-2.4-2.5-3.1-6.1-1.9-9.3l0.7-1.9c0.8-2.1,2.4-3.8,4.6-4.8c0,0,0.1,0,0.1,0
						c1.2-0.5,2.4-0.8,3.7-0.8c0.5,0,0.9,0.2,1.2,0.6c0.3,0.4,0.3,0.9,0.2,1.3l-2.2,5.6c-0.3,0.8-0.3,1.6,0.1,2.4
						c0.3,0.8,1,1.4,1.7,1.7c0.8,0.3,1.6,0.3,2.4-0.1c0.8-0.3,1.4-1,1.7-1.7l2.2-5.6c0.2-0.4,0.6-0.8,1-0.9c0.5-0.1,0.9,0,1.3,0.3
						l0,0c2.7,2.5,3.7,6.4,2.4,9.7l-0.7,1.8c-0.8,2.2-2.5,3.9-4.6,4.8c0,0,0,0-0.1,0c-1,0.4-2,0.7-3,0.7l-5.8,15
						C561.6,75.1,560.5,76.2,559.1,76.8z M560.9,39.1c-2,0.9-3.5,2.5-4.3,4.5l-0.7,1.9c-1.2,3.1-0.5,6.5,1.9,8.9l0.1,0.1l-6,15.4
						c-0.5,1.3-0.5,2.7,0.1,4c0.6,1.3,1.6,2.2,2.9,2.7c1.3,0.5,2.7,0.5,4-0.1c0,0,0,0,0,0c1.2-0.6,2.2-1.6,2.7-2.8l6-15.4l0.2,0
						c1,0,2-0.3,3-0.7c2-0.9,3.6-2.5,4.4-4.6l0.7-1.8c1.2-3.1,0.3-6.8-2.2-9.1c-0.2-0.2-0.5-0.3-0.8-0.2c-0.3,0.1-0.5,0.3-0.6,0.5
						l-2.2,5.6c-0.4,0.9-1.1,1.6-2,2c-0.9,0.4-1.9,0.4-2.8,0.1c-0.9-0.4-1.6-1.1-2-2c-0.4-0.9-0.4-1.9-0.1-2.8l2.2-5.6
						c0.1-0.3,0.1-0.6-0.1-0.8c-0.2-0.2-0.4-0.4-0.7-0.4C563.3,38.3,562.1,38.5,560.9,39.1C561,39,561,39,560.9,39.1z M558.2,74.7
						C558.2,74.7,558.2,74.7,558.2,74.7c-0.9,0.4-1.8,0.4-2.6,0.1c-0.9-0.3-1.5-1-1.9-1.8c-0.4-0.8-0.4-1.8-0.1-2.6l6.2-15.8
						c0.2-0.4,0.1-0.9-0.2-1.1c-2.2-1.8-3-4.8-2-7.4l0.7-1.8c0.6-1.5,1.8-2.8,3.4-3.5c0,0,0,0,0.1,0c0.3-0.1,0.6-0.2,0.9-0.3
						l0.5-0.2l-1.7,4.3c-0.5,1.4-0.5,2.8,0.1,4.2c0.6,1.3,1.7,2.4,3,2.9c1.4,0.5,2.8,0.5,4.2-0.1c0,0,0,0,0,0c1.3-0.6,2.3-1.7,2.8-3
						l1.7-4.3l0.3,0.5c1.1,1.8,1.3,3.9,0.6,5.8l-0.7,1.8c-0.6,1.6-1.9,2.9-3.4,3.6l0,0c-1,0.4-2,0.6-3,0.5c-0.4,0-0.8,0.2-0.9,0.7
						L560,72.8C559.6,73.7,559,74.3,558.2,74.7z M561.9,41.2c-1.4,0.7-2.5,1.8-3.1,3.2l-0.7,1.8c-0.9,2.4-0.2,5.2,1.8,6.8
						c0.5,0.4,0.7,1.1,0.4,1.8l-6.2,15.8c-0.3,0.7-0.3,1.5,0,2.2c0.3,0.7,0.9,1.2,1.6,1.5c0.7,0.3,1.5,0.3,2.2,0c0,0,0,0,0,0
						c0.7-0.3,1.2-0.9,1.5-1.6l6.1-15.8c0.2-0.7,0.8-1.1,1.5-1c0.9,0.1,1.9-0.1,2.8-0.5c0,0,0,0,0,0c1.4-0.6,2.5-1.8,3.1-3.3
						l0.7-1.8c0.6-1.5,0.5-3.3-0.3-4.8l-1.3,3.2c-0.6,1.5-1.7,2.6-3.1,3.3c0,0,0,0,0,0c-1.5,0.6-3.1,0.7-4.6,0.1
						c-1.5-0.6-2.7-1.7-3.3-3.2c-0.6-1.5-0.7-3.1-0.1-4.6l1.3-3.2C562.1,41.1,562,41.1,561.9,41.2z"/>
				</g>
				<g>
					<path class="st24" d="M556.5,70.2c-0.3,0.1-0.5,0.3-0.6,0.6c-0.1,0.3-0.1,0.6,0,0.8c0.1,0.3,0.3,0.5,0.6,0.6
						c0.3,0.1,0.6,0.1,0.9,0c0.3-0.1,0.5-0.3,0.6-0.6c0.1-0.3,0.1-0.6,0-0.8c-0.1-0.3-0.3-0.5-0.6-0.6
						C557.1,70.1,556.8,70.1,556.5,70.2z"/>
					<path class="st24" d="M557.5,72.5C557.5,72.5,557.5,72.5,557.5,72.5c-0.4,0.2-0.7,0.2-1.1,0.1c-0.4-0.1-0.6-0.4-0.8-0.7
						c-0.1-0.3-0.1-0.7,0-1.1c0.1-0.3,0.4-0.6,0.8-0.8c0.4-0.2,0.7-0.2,1.1-0.1c0.4,0.1,0.6,0.4,0.8,0.7c0.1,0.3,0.1,0.7,0,1.1
						C558.1,72.1,557.8,72.3,557.5,72.5z M556.6,70.5c-0.2,0.1-0.4,0.3-0.5,0.5c-0.1,0.2-0.1,0.4,0,0.6c0.1,0.2,0.2,0.3,0.5,0.4
						c0.2,0.1,0.5,0.1,0.7,0c0,0,0,0,0,0c0.2-0.1,0.4-0.3,0.5-0.5c0.1-0.2,0.1-0.4,0-0.6c-0.1-0.2-0.2-0.3-0.5-0.4
						C557.1,70.4,556.8,70.4,556.6,70.5L556.6,70.5z"/>
				</g>
			</g>
		</g>
		<g>
			<g>
				<path class="st24" d="M505.8,131.4l-1.9,0.3c-0.4-0.8-1.2-1.2-2-1l-2,0.4l-0.9-5c0-0.2-0.2-0.3-0.3-0.4l-15.9-5.7
					c-0.2-0.1-0.4,0-0.5,0.1l-12.8,10.9c-0.1,0.1-0.2,0.3-0.2,0.5l3,16.6c0,0.2,0.2,0.3,0.4,0.4l15.9,5.7c0.1,0,0.2,0,0.3,0
					c0.1,0,0.2-0.1,0.3-0.1l6.8-5.7l0.6,3.2c0.2,1.3,1.4,2.1,2.7,1.9c0,0,0,0,0,0l10.5-1.9c1.3-0.2,2.1-1.4,1.9-2.7c0,0,0,0,0,0
					l-2.8-15.5C508.2,132,507,131.2,505.8,131.4z M502,131.8c0.4-0.1,0.8,0.2,0.9,0.6l0,0l0,0.1c0.1,0.4-0.2,0.8-0.6,0.9l0,0
					l-3.1,0.6c-0.4,0.1-0.8-0.2-0.9-0.6l0,0l0-0.1c-0.1-0.4,0.2-0.8,0.6-0.9l0,0L502,131.8z M482.6,121.2l6.6,2.4l-11.9,10.1
					l-6.6-2.4L482.6,121.2z M487.9,152.9l-14.7-5.2l-2.8-15.3l14.7,5.2L487.9,152.9z M485.4,136.5l-6.9-2.5l11.9-10.1l6.9,2.5
					L485.4,136.5z M493.4,136.1l2,11.1l-6.5,5.5l-2.8-15.3l11.8-10.1l0.7,4.1l0,0c-0.8,0.2-1.5,0.9-1.5,1.7l-1.9,0.3
					C494,133.6,493.2,134.8,493.4,136.1z M510.3,149c0.1,0.7-0.3,1.3-1,1.4c0,0,0,0,0,0l-10.5,1.9c-0.7,0.1-1.3-0.3-1.4-1
					c0,0,0,0,0,0l-2.8-15.5c-0.1-0.7,0.3-1.3,1-1.5l0,0l1.9-0.4c0.4,0.7,1.2,1.1,2,1l3.1-0.6c0.8-0.1,1.4-0.8,1.5-1.6l1.9-0.4
					c0.7-0.1,1.3,0.3,1.5,1L510.3,149z"/>
				<path class="st24" d="M509.6,152C509.6,152,509.5,152,509.6,152L499,154c-0.8,0.1-1.5,0-2.2-0.5c-0.6-0.4-1-1.1-1.2-1.8
					l-0.4-2.2l-6,5.1c-0.3,0.3-0.7,0.3-1.1,0.2l-15.9-5.7c-0.4-0.1-0.6-0.5-0.7-0.8l-3-16.6c-0.1-0.4,0.1-0.8,0.4-1l12.8-10.9
					c0.3-0.3,0.7-0.3,1.1-0.2l15.9,5.7c0.4,0.1,0.6,0.5,0.7,0.9l0.8,4.4l1.5-0.3c0.9-0.2,1.9,0.2,2.4,1l1.5-0.3
					c1.6-0.3,3.1,0.8,3.4,2.3l2.9,15.5C512.1,150.3,511.1,151.7,509.6,152z M495.6,135c-0.2,0-0.3,0.1-0.4,0.3
					c-0.1,0.2-0.1,0.3-0.1,0.5l2.8,15.5c0.1,0.4,0.4,0.6,0.8,0.5l10.5-1.9l0,0c0.4-0.1,0.6-0.4,0.6-0.8l-2.8-15.5
					c-0.1-0.4-0.4-0.6-0.8-0.6l-1.6,0.3c-0.3,0.9-1,1.5-1.9,1.7c0,0,0,0,0,0l-3.1,0.6c-0.8,0.2-1.8-0.2-2.4-0.9L495.6,135z
					 M473.6,147.3l13.5,4.8l-2.6-14.1l-13.5-4.8L473.6,147.3z M486.7,137.6l2.6,14.1l5.5-4.7l-2-10.8c-0.3-1.6,0.7-3.1,2.3-3.4
					l1.5-0.3c0.2-0.7,0.7-1.3,1.4-1.6l-0.5-2.6L486.7,137.6z M499,132.9c-0.1,0-0.2,0.1-0.2,0.3c0,0.2,0.2,0.3,0.3,0.2l3.1-0.6
					c0.1,0,0.2-0.1,0.2-0.3c0-0.2-0.2-0.3-0.3-0.2L499,132.9z M497.7,133.5L497.7,133.5l0.1,0.2
					C497.8,133.6,497.7,133.5,497.7,133.5c0-0.1,0-0.2,0-0.2L497.7,133.5z M479.6,133.9l5.7,2l10.9-9.3l-5.7-2L479.6,133.9z
					 M503.5,132.3C503.5,132.3,503.5,132.3,503.5,132.3c0,0.1,0,0.2,0,0.2l0-0.1L503.5,132.3z M498.8,131.8l0.5-0.1l-0.1-0.5
					l-0.5,0.1L498.8,131.8z M471.8,131.1l5.4,1.9l10.9-9.3l-5.4-1.9L471.8,131.1z"/>
			</g>
			<g>
				<path class="st24" d="M499.8,137.5l-1.3,1.9l-0.6-0.4c-0.2-0.2-0.6-0.1-0.8,0.1c-0.2,0.2-0.1,0.6,0.1,0.8l1,0.7
					c0.2,0.2,0.6,0.1,0.8-0.1l0,0l1.6-2.3c0.2-0.2,0.1-0.6-0.1-0.8C500.3,137.2,500,137.2,499.8,137.5L499.8,137.5z"/>
				<path class="st24" d="M498.9,141.2c-0.3,0.1-0.6,0-0.8-0.2l-1-0.7c-0.2-0.2-0.4-0.4-0.5-0.7c-0.1-0.3,0-0.6,0.2-0.8
					c0.3-0.5,1-0.6,1.5-0.3l0.1,0.1l1-1.4c0.3-0.5,1-0.6,1.5-0.3c0.2,0.2,0.4,0.4,0.5,0.7c0.1,0.3,0,0.6-0.2,0.8l-1.6,2.3
					C499.4,141,499.1,141.1,498.9,141.2z"/>
			</g>
			<g>
				<path class="st24" d="M501.4,147.4l-1.3,1.9l-0.6-0.4c-0.2-0.2-0.6-0.1-0.8,0.1c-0.2,0.2-0.1,0.6,0.1,0.8l1,0.7
					c0.2,0.2,0.6,0.1,0.8-0.1l0,0l1.6-2.3c0.2-0.2,0.1-0.6-0.1-0.8C501.9,147.1,501.6,147.2,501.4,147.4L501.4,147.4z"/>
				<path class="st24" d="M500.4,151.1c-0.3,0.1-0.6,0-0.8-0.2l-1-0.7c-0.2-0.2-0.4-0.4-0.5-0.7c-0.1-0.3,0-0.6,0.2-0.8
					c0.2-0.2,0.4-0.4,0.7-0.5l0,0c0.3-0.1,0.6,0,0.8,0.2l0.1,0.1l1-1.4c0.3-0.5,1-0.6,1.5-0.3c0.5,0.3,0.6,1,0.3,1.5l-1.6,2.3
					C501,150.9,500.7,151.1,500.4,151.1z M501.4,147.4l0.4,0.3l0,0L501.4,147.4z"/>
			</g>
			<g>
				<path class="st24" d="M506.1,137l-3.4,0.6c-0.3,0.1-0.5,0.3-0.4,0.6c0.1,0.3,0.3,0.5,0.6,0.4l3.4-0.6c0.3-0.1,0.5-0.3,0.4-0.6
					C506.7,137.1,506.4,136.9,506.1,137z"/>
				<path class="st24" d="M506.4,138.6l-3.4,0.6c-0.6,0.1-1.2-0.3-1.3-0.9c-0.1-0.6,0.3-1.2,0.9-1.3l3.4-0.6
					c0.6-0.1,1.2,0.3,1.3,0.9C507.4,137.9,507,138.5,506.4,138.6z"/>
			</g>
			<g>
				<path class="st24" d="M507,141.9l-3.4,0.6c-0.3,0.1-0.5,0.3-0.4,0.6s0.3,0.5,0.6,0.4l3.4-0.6c0.3-0.1,0.5-0.3,0.4-0.6
					C507.6,142,507.3,141.8,507,141.9z"/>
				<path class="st24" d="M507.3,143.5l-3.4,0.6c-0.6,0.1-1.2-0.3-1.3-0.9c-0.1-0.6,0.3-1.2,0.9-1.3l3.4-0.6
					c0.6-0.1,1.2,0.3,1.3,0.9C508.3,142.8,507.9,143.4,507.3,143.5z"/>
			</g>
			<g>
				<path class="st24" d="M507.9,146.8l-3.4,0.6c-0.3,0.1-0.5,0.3-0.4,0.6s0.3,0.5,0.6,0.4l3.4-0.6c0.3-0.1,0.5-0.3,0.4-0.6
					C508.5,146.9,508.2,146.7,507.9,146.8z"/>
				<path class="st24" d="M508.2,148.4l-3.4,0.6c-0.6,0.1-1.2-0.3-1.3-0.9c-0.1-0.6,0.3-1.2,0.9-1.3l3.4-0.6
					c0.6-0.1,1.2,0.3,1.3,0.9C509.2,147.7,508.8,148.3,508.2,148.4z"/>
			</g>
		</g>
		<g>
			<g>
				<g>
					<g>
						<path class="st24" d="M754.9,118.3l-12.7-4.4c-0.2-0.1-0.5-0.1-0.7,0l-9.7,4.7c-1.9,0.9-2.7,3.2-1.8,5.1l12.6,25.9
							c0.9,1.9,3.2,2.7,5.1,1.8l15.7-7.7c1.9-0.9,2.7-3.2,1.8-5.1l-9.7-19.9C755.3,118.6,755.1,118.4,754.9,118.3z M743.7,116.5
							l8.4,2.9l-3.9,1.9c-0.9,0.5-2.1,0.1-2.5-0.9L743.7,116.5z M763.4,139.6c0.5,0.9,0.1,2.1-0.9,2.5l-15.7,7.7
							c-0.9,0.5-2.1,0.1-2.5-0.9L731.7,123c-0.5-0.9-0.1-2.1,0.9-2.5l8.9-4.3l2.5,5.1c0.9,1.9,3.2,2.7,5.1,1.8l5.1-2.5L763.4,139.6z
							"/>
						<path class="st24" d="M763.6,144.2l-15.7,7.7c-2.1,1-4.6,0.1-5.6-1.9L729.6,124c-1-2.1-0.1-4.6,1.9-5.6l9.7-4.7
							c0.3-0.2,0.7-0.2,1-0.1l12.7,4.4c0.3,0.1,0.6,0.4,0.8,0.7l9.7,19.9C766.5,140.6,765.6,143.2,763.6,144.2z M731.9,119.1
							c-1.7,0.8-2.4,2.8-1.6,4.5l12.6,25.9c0.8,1.7,2.8,2.4,4.5,1.6l15.7-7.7c1.7-0.8,2.4-2.8,1.6-4.5l-9.7-19.9
							c-0.1-0.1-0.2-0.2-0.3-0.3l0,0l-12.7-4.4c-0.1,0-0.3,0-0.4,0L731.9,119.1z M762.7,142.5l-15.7,7.7c-1.1,0.6-2.5,0.1-3.1-1.1
							l-12.6-25.9c-0.6-1.1-0.1-2.5,1.1-3.1l9.3-4.5l2.7,5.5c0.8,1.7,2.8,2.4,4.5,1.6l5.5-2.7l9.5,19.4
							C764.3,140.5,763.9,141.9,762.7,142.5z M732.7,120.8c-0.7,0.4-1,1.2-0.7,2l12.6,25.9c0.4,0.7,1.2,1,2,0.7l15.7-7.7
							c0.7-0.4,1-1.2,0.7-2l-9.1-18.7l-4.7,2.3c-2.1,1-4.6,0.1-5.6-1.9l-2.3-4.7L732.7,120.8z M753.2,119.3l-4.8,2.3
							c-1.1,0.6-2.5,0.1-3.1-1.1l-2.3-4.8L753.2,119.3z M744.5,117.2l1.5,3c0.4,0.7,1.2,1,2,0.7l3-1.5L744.5,117.2z"/>
					</g>
					<g>
						<path class="st24" d="M756.5,136.2l-10.6,5.2c-0.5,0.2-0.7,0.8-0.4,1.3c0.2,0.5,0.8,0.7,1.3,0.4l10.6-5.2
							c0.5-0.2,0.7-0.8,0.4-1.3C757.6,136.2,757,136,756.5,136.2z"/>
						<path class="st24" d="M757.5,138.3l-10.6,5.2c-0.7,0.3-1.5,0-1.8-0.6c-0.3-0.7,0-1.5,0.6-1.8l10.6-5.2c0.7-0.3,1.5,0,1.8,0.6
							C758.5,137.2,758.2,138,757.5,138.3z M746.1,141.8c-0.3,0.1-0.4,0.4-0.2,0.7c0.1,0.3,0.4,0.4,0.7,0.2l10.6-5.2
							c0.3-0.1,0.4-0.4,0.2-0.7s-0.4-0.4-0.7-0.2L746.1,141.8z"/>
					</g>
					<g>
						<path class="st24" d="M754,131.1l-10.6,5.2c-0.5,0.2-0.7,0.8-0.4,1.3c0.2,0.5,0.8,0.7,1.3,0.4l10.6-5.2
							c0.5-0.2,0.7-0.8,0.4-1.3C755.1,131.1,754.5,130.9,754,131.1z"/>
						<path class="st24" d="M755,133.2l-10.6,5.2c-0.7,0.3-1.5,0-1.8-0.6c-0.3-0.7,0-1.5,0.6-1.8l10.6-5.2c0.7-0.3,1.5,0,1.8,0.6
							C756,132.1,755.7,132.9,755,133.2z M743.6,136.7c-0.3,0.1-0.4,0.4-0.2,0.7c0.1,0.3,0.4,0.4,0.7,0.2l10.6-5.2
							c0.3-0.1,0.4-0.4,0.2-0.7s-0.4-0.4-0.7-0.2L743.6,136.7z"/>
					</g>
					<g>
						<path class="st24" d="M749,128.3c0.2,0.5,0.8,0.7,1.3,0.4l2.1-1c0.5-0.2,0.7-0.8,0.4-1.3c-0.2-0.5-0.8-0.7-1.3-0.4l-2.1,1
							C749,127.2,748.8,127.8,749,128.3z"/>
						<path class="st24" d="M752.5,128.1l-2.1,1c-0.7,0.3-1.5,0-1.8-0.6c-0.3-0.7,0-1.5,0.6-1.8l2.1-1c0.7-0.3,1.5,0,1.8,0.6
							S753.2,127.8,752.5,128.1z M749.7,127.4c-0.3,0.1-0.4,0.5-0.2,0.7c0.1,0.3,0.4,0.4,0.7,0.2l2.1-1c0.3-0.1,0.4-0.4,0.2-0.7
							c-0.1-0.3-0.4-0.4-0.7-0.2L749.7,127.4z"/>
					</g>
					<g>
						<path class="st24" d="M742.6,130.3l-1.7,0.8c-0.5,0.2-0.7,0.8-0.4,1.3c0.2,0.5,0.8,0.7,1.3,0.4l0.9-0.4
							c0.2,0.5,0.8,0.7,1.3,0.4s0.7-0.8,0.4-1.3l-0.1-0.2c0.8-0.8,1.1-2.1,0.5-3.2c-0.7-1.4-2.4-2-3.8-1.3c-0.5,0.2-1,0-1.3-0.4
							c-0.2-0.5,0-1,0.4-1.3l1.7-0.8c0.5-0.2,0.7-0.8,0.4-1.3c-0.2-0.5-0.8-0.7-1.3-0.4l-0.9,0.4c-0.2-0.5-0.8-0.7-1.3-0.4
							c-0.5,0.2-0.7,0.8-0.4,1.3l0.1,0.2c-0.8,0.8-1.1,2.1-0.5,3.2c0.7,1.4,2.4,2,3.8,1.3c0.5-0.2,1,0,1.3,0.4
							S743.1,130.1,742.6,130.3z"/>
						<path class="st24" d="M744.1,133.3c-0.5,0.3-1.2,0.1-1.6-0.3l-0.5,0.3c-0.7,0.3-1.5,0-1.8-0.6c-0.3-0.7,0-1.5,0.6-1.8l1.7-0.8
							c0.3-0.1,0.4-0.4,0.2-0.7c-0.1-0.3-0.4-0.4-0.7-0.2c-1.6,0.8-3.6,0.1-4.4-1.5c-0.6-1.1-0.4-2.5,0.4-3.5
							c-0.3-0.7,0-1.4,0.7-1.7c0.5-0.3,1.2-0.1,1.6,0.3l0.5-0.3c0.7-0.3,1.5,0,1.8,0.6c0.3,0.7,0,1.5-0.6,1.8l-1.7,0.8
							c-0.3,0.1-0.4,0.4-0.2,0.7c0.1,0.3,0.4,0.4,0.7,0.2c1.6-0.8,3.6-0.1,4.4,1.5c0.6,1.1,0.4,2.5-0.4,3.5
							C745,132.2,744.7,132.9,744.1,133.3z M741.1,131.5c-0.3,0.1-0.4,0.4-0.2,0.7c0.1,0.3,0.4,0.4,0.7,0.2l1.2-0.6l0.2,0.4
							c0.1,0.3,0.4,0.4,0.7,0.2c0.3-0.1,0.4-0.4,0.2-0.7l-0.2-0.4l0.2-0.2c0.7-0.7,0.9-1.8,0.5-2.8c-0.6-1.2-2-1.7-3.3-1.1
							c-0.7,0.3-1.5,0-1.8-0.6c-0.3-0.7,0-1.5,0.6-1.8l1.7-0.8c0.3-0.1,0.4-0.4,0.2-0.7c-0.1-0.3-0.4-0.4-0.7-0.2l-1.2,0.6l-0.2-0.4
							c-0.1-0.3-0.4-0.4-0.7-0.2c-0.3,0.1-0.4,0.4-0.2,0.7l0.2,0.4l-0.2,0.2c-0.7,0.7-0.9,1.8-0.5,2.8c0.6,1.2,2,1.7,3.3,1.1
							c0.7-0.3,1.5,0,1.8,0.6c0.3,0.7,0,1.5-0.6,1.8L741.1,131.5z"/>
					</g>
				</g>
			</g>
		</g>
		<g>
			<g>
				<path class="st24" d="M673.7,49.4c-0.6-0.1-1.3-0.1-1.9-0.2l-0.5,3.8c3.3,1,4.2,2,4.2,4.6c0,3.4-2.3,5-5.4,5h0l-0.3,2
					c-0.1,0.5-0.5,0.8-0.9,0.8c0,0,0,0,0,0c-0.5,0-0.9-0.5-0.8-1l0.2-1.9c-0.8-0.1-1.6-0.2-2.2-0.3c-0.7-0.1-1.1-0.8-1-1.4l0,0
					c0.1-0.7,0.7-1.2,1.4-1.1c0.6,0.1,1.5,0.2,2.2,0.2l0.5-4.1c-3.3-1-4.5-2.2-4.5-4.6c0-3.3,2.2-4.7,5.3-4.7h0.3l0.3-2.5
					c0.1-0.4,0.4-0.8,0.9-0.8h0c0.5,0,0.9,0.5,0.9,1l-0.3,2.4c0.7,0.1,1.4,0.2,1.9,0.3c0.7,0.1,1.1,0.7,1.1,1.4l0,0
					C675.1,49,674.4,49.5,673.7,49.4z M669.6,52.5l0.4-3.3c-1.4,0.1-2.1,0.7-2.1,1.6C667.9,51.6,668.3,52,669.6,52.5z M670.9,56.2
					l-0.5,3.6c1.3-0.1,1.9-0.9,1.9-2C672.4,57.1,672.1,56.6,670.9,56.2z"/>
			</g>
			<path class="st24" d="M670.2,70.8c-9.1,0-16.5-7.4-16.5-16.5c0-9.1,7.4-16.5,16.5-16.5c9.1,0,16.5,7.4,16.5,16.5
				C686.7,63.4,679.3,70.8,670.2,70.8z M670.2,41.1c-7.3,0-13.2,5.9-13.2,13.2s5.9,13.2,13.2,13.2s13.2-5.9,13.2-13.2
				S677.4,41.1,670.2,41.1z"/>
		</g>
		<g>
			<path class="st24" d="M745.8,234.7l16.8,7.5l3.4-7.6l-16.8-7.5L745.8,234.7z M750.1,229.3l13.7,6.2l-2.1,4.6l-13.7-6.2
				L750.1,229.3z"/>
			<path class="st24" d="M749.8,258.5l4.6,2.1l2.1-4.6l-4.6-2.1L749.8,258.5z"/>
			<path class="st24" d="M743.7,255.7l4.6,2.1l2.1-4.6l-4.6-2.1L743.7,255.7z"/>
			<path class="st24" d="M737.6,253l4.6,2.1l2.1-4.6l-4.6-2.1L737.6,253z"/>
			<path class="st24" d="M752.5,252.4l4.6,2.1l2.1-4.6l-4.6-2.1L752.5,252.4z"/>
			<path class="st24" d="M746.4,249.7l4.6,2.1l2.1-4.6l-4.6-2.1L746.4,249.7z"/>
			<path class="st24" d="M740.3,246.9l4.6,2.1l2.1-4.6l-4.6-2.1L740.3,246.9z"/>
			<path class="st24" d="M755.2,246.3l4.6,2.1l2.1-4.6l-4.6-2.1L755.2,246.3z"/>
			<path class="st24" d="M749.2,243.6l4.6,2.1l2.1-4.6l-4.6-2.1L749.2,243.6z"/>
			<path class="st24" d="M743.1,240.8l4.6,2.1l2.1-4.6l-4.6-2.1L743.1,240.8z"/>
			<path class="st24" d="M768.1,231.9l-0.8-0.3l-1.5-0.7l-0.8-0.3l-15-6.7c0.3-4.2-2-8.2-5.9-10c-5-2.3-11,0-13.2,5
				c-2.3,5,0,11,5,13.2c2.3,1,4.8,1.1,7.1,0.4l-4.5,10L738,244l-3.8,8.4c-0.6,1.3,0,2.7,1.3,3.3l18.3,8.2c1.3,0.6,2.7,0,3.3-1.3
				l12.3-27.4C769.9,234,769.4,232.5,768.1,231.9z M735.9,230.2c-3.7-2.1-5.2-6.7-3.4-10.7c1.8-3.9,6.2-5.8,10.3-4.5L735.9,230.2z
				 M744.1,230.3c-2.1,1.1-4.5,1.4-6.7,0.6l3.1-6.8l5.3,2.4L744.1,230.3z M755.5,262c-0.2,0.4-0.7,0.6-1.1,0.4l-18.3-8.2
				c-0.4-0.2-0.6-0.7-0.4-1.1l12.3-27.4c0.2-0.4,0.7-0.6,1.1-0.4l18.3,8.2c0.4,0.2,0.6,0.7,0.4,1.1L755.5,262z"/>
		</g>
	</g>
</g>
</svg>
