<?xml version="1.0" encoding="utf-8"?>
<!-- Generator: Adobe Illustrator 21.0.2, SVG Export Plug-In . SVG Version: 6.00 Build 0)  -->
<svg version="1.1" xmlns="http://www.w3.org/2000/svg" xmlns:xlink="http://www.w3.org/1999/xlink" x="0px" y="0px"
	 viewBox="0 0 71.7 153.9" style="enable-background:new 0 0 71.7 153.9;" xml:space="preserve">
<style type="text/css">
	.st0{fill:url(#SVGID_1_);}
	.st1{fill:url(#SVGID_2_);}
	.st2{fill:url(#SVGID_3_);}
	.st3{fill:url(#SVGID_4_);}
	.st4{fill:url(#SVGID_5_);}
	.st5{fill:url(#SVGID_6_);}
	.st6{fill:url(#SVGID_7_);}
	.st7{fill:url(#SVGID_8_);}
	.st8{fill:url(#SVGID_9_);}
	.st9{fill:url(#SVGID_10_);}
	.st10{fill:url(#SVGID_11_);}
	.st11{fill:url(#SVGID_12_);}
	.st12{fill:url(#SVGID_13_);}
	.st13{fill:url(#SVGID_14_);}
	.st14{fill:url(#SVGID_15_);}
	.st15{fill:url(#SVGID_16_);}
	.st16{fill:url(#SVGID_17_);}
	.st17{fill:url(#SVGID_18_);}
	.st18{fill:url(#SVGID_19_);}
	.st19{fill:url(#SVGID_20_);}
	.st20{fill:url(#SVGID_21_);}
	.st21{fill:url(#SVGID_22_);}
	.st22{fill:url(#SVGID_23_);}
	.st23{fill:url(#SVGID_24_);}
	.st24{fill:#FFFFFF;}
	.st25{fill:url(#SVGID_25_);}
	.st26{fill:url(#SVGID_26_);}
	.st27{fill:url(#SVGID_27_);}
	.st28{fill:#470930;}
	.st29{opacity:0.64;}
	.st30{opacity:0.54;fill:#606161;}
	.st31{opacity:0.81;fill:#606161;}
	.st32{opacity:0.23;fill:#606161;}
	.st33{opacity:0.1;fill:#606161;}
	.st34{opacity:0.37;fill:#606161;}
	.st35{fill:#875A7B;}
	.st36{fill:#8E2775;}
	.st37{fill:#606161;}
	.st38{clip-path:url(#SVGID_28_);}
	.st39{fill:#D0D3D2;}
	.st40{clip-path:url(#SVGID_29_);}
	.st41{clip-path:url(#SVGID_30_);}
	.st42{clip-path:url(#SVGID_32_);}
	.st43{fill:url(#SVGID_34_);}
	.st44{fill:url(#SVGID_36_);}
	.st45{fill-rule:evenodd;clip-rule:evenodd;fill:#FFF8FF;}
	.st46{fill:#011E50;}
	.st47{fill:url(#SVGID_38_);}
	.st48{fill:none;stroke:#011E50;stroke-width:3;stroke-miterlimit:10;}
	.st49{clip-path:url(#SVGID_39_);}
	.st50{fill:#FFF8FF;}
	.st51{fill-rule:evenodd;clip-rule:evenodd;fill:url(#SVGID_40_);}
	.st52{fill-rule:evenodd;clip-rule:evenodd;fill:url(#SVGID_41_);}
	.st53{fill-rule:evenodd;clip-rule:evenodd;fill:url(#SVGID_43_);}
	.st54{fill-rule:evenodd;clip-rule:evenodd;fill:url(#SVGID_44_);}
	.st55{fill-rule:evenodd;clip-rule:evenodd;fill:url(#SVGID_45_);}
	.st56{fill-rule:evenodd;clip-rule:evenodd;fill:url(#SVGID_46_);}
	.st57{fill-rule:evenodd;clip-rule:evenodd;fill:url(#SVGID_47_);}
	.st58{fill-rule:evenodd;clip-rule:evenodd;fill:url(#SVGID_48_);}
	.st59{fill-rule:evenodd;clip-rule:evenodd;fill:url(#SVGID_49_);}
	.st60{fill-rule:evenodd;clip-rule:evenodd;fill:url(#SVGID_50_);}
	.st61{fill-rule:evenodd;clip-rule:evenodd;fill:url(#SVGID_51_);}
	.st62{fill-rule:evenodd;clip-rule:evenodd;fill:url(#SVGID_52_);}
	.st63{fill-rule:evenodd;clip-rule:evenodd;fill:url(#SVGID_53_);}
	.st64{fill-rule:evenodd;clip-rule:evenodd;fill:url(#SVGID_54_);}
	.st65{fill-rule:evenodd;clip-rule:evenodd;fill:url(#SVGID_55_);}
	.st66{fill-rule:evenodd;clip-rule:evenodd;fill:url(#SVGID_56_);}
	.st67{fill-rule:evenodd;clip-rule:evenodd;fill:url(#SVGID_57_);}
	.st68{fill-rule:evenodd;clip-rule:evenodd;fill:url(#SVGID_58_);}
	.st69{fill-rule:evenodd;clip-rule:evenodd;fill:url(#SVGID_59_);}
	.st70{fill-rule:evenodd;clip-rule:evenodd;fill:url(#SVGID_60_);}
	.st71{fill-rule:evenodd;clip-rule:evenodd;fill:url(#SVGID_61_);}
	.st72{fill-rule:evenodd;clip-rule:evenodd;fill:url(#SVGID_62_);}
	.st73{fill-rule:evenodd;clip-rule:evenodd;fill:url(#SVGID_63_);}
	.st74{fill-rule:evenodd;clip-rule:evenodd;fill:url(#SVGID_64_);}
	.st75{fill-rule:evenodd;clip-rule:evenodd;fill:url(#SVGID_65_);}
	.st76{fill-rule:evenodd;clip-rule:evenodd;fill:url(#SVGID_66_);}
	.st77{fill-rule:evenodd;clip-rule:evenodd;fill:url(#SVGID_67_);}
	.st78{fill-rule:evenodd;clip-rule:evenodd;fill:url(#SVGID_68_);}
	.st79{fill-rule:evenodd;clip-rule:evenodd;fill:url(#SVGID_69_);}
	.st80{fill-rule:evenodd;clip-rule:evenodd;fill:url(#SVGID_70_);}
	.st81{fill-rule:evenodd;clip-rule:evenodd;fill:url(#SVGID_71_);}
	.st82{fill-rule:evenodd;clip-rule:evenodd;fill:url(#SVGID_72_);}
	.st83{fill-rule:evenodd;clip-rule:evenodd;fill:url(#SVGID_73_);}
	.st84{fill-rule:evenodd;clip-rule:evenodd;fill:url(#SVGID_74_);}
	.st85{fill-rule:evenodd;clip-rule:evenodd;fill:url(#SVGID_75_);}
	.st86{fill-rule:evenodd;clip-rule:evenodd;fill:url(#SVGID_76_);}
	.st87{fill-rule:evenodd;clip-rule:evenodd;fill:url(#SVGID_77_);}
	.st88{fill-rule:evenodd;clip-rule:evenodd;fill:url(#SVGID_78_);}
	.st89{fill-rule:evenodd;clip-rule:evenodd;fill:url(#SVGID_79_);}
	.st90{fill-rule:evenodd;clip-rule:evenodd;fill:url(#SVGID_80_);}
	.st91{fill-rule:evenodd;clip-rule:evenodd;fill:url(#SVGID_81_);}
	.st92{fill-rule:evenodd;clip-rule:evenodd;fill:url(#SVGID_82_);}
	.st93{fill-rule:evenodd;clip-rule:evenodd;fill:url(#SVGID_83_);}
	.st94{fill-rule:evenodd;clip-rule:evenodd;fill:url(#SVGID_84_);}
	.st95{fill-rule:evenodd;clip-rule:evenodd;fill:url(#SVGID_85_);}
	.st96{fill-rule:evenodd;clip-rule:evenodd;fill:url(#SVGID_86_);}
	.st97{fill-rule:evenodd;clip-rule:evenodd;fill:url(#SVGID_87_);}
	.st98{fill-rule:evenodd;clip-rule:evenodd;fill:url(#SVGID_88_);}
	.st99{fill-rule:evenodd;clip-rule:evenodd;fill:url(#SVGID_89_);}
	.st100{fill-rule:evenodd;clip-rule:evenodd;fill:url(#SVGID_90_);}
	.st101{fill-rule:evenodd;clip-rule:evenodd;fill:url(#SVGID_91_);}
	.st102{fill-rule:evenodd;clip-rule:evenodd;fill:url(#SVGID_92_);}
	.st103{fill-rule:evenodd;clip-rule:evenodd;fill:url(#SVGID_93_);}
	.st104{fill-rule:evenodd;clip-rule:evenodd;fill:url(#SVGID_94_);}
	.st105{fill-rule:evenodd;clip-rule:evenodd;fill:url(#SVGID_95_);}
	.st106{fill-rule:evenodd;clip-rule:evenodd;fill:url(#SVGID_96_);}
	.st107{fill-rule:evenodd;clip-rule:evenodd;fill:url(#SVGID_97_);}
	.st108{fill-rule:evenodd;clip-rule:evenodd;fill:url(#SVGID_98_);}
	.st109{fill-rule:evenodd;clip-rule:evenodd;fill:url(#SVGID_99_);}
	.st110{fill-rule:evenodd;clip-rule:evenodd;fill:url(#SVGID_100_);}
	.st111{fill-rule:evenodd;clip-rule:evenodd;fill:url(#SVGID_101_);}
	.st112{fill-rule:evenodd;clip-rule:evenodd;fill:url(#SVGID_102_);}
	.st113{fill-rule:evenodd;clip-rule:evenodd;fill:url(#SVGID_103_);}
	.st114{fill-rule:evenodd;clip-rule:evenodd;fill:url(#SVGID_104_);}
	.st115{fill-rule:evenodd;clip-rule:evenodd;fill:url(#SVGID_105_);}
	.st116{fill-rule:evenodd;clip-rule:evenodd;fill:url(#SVGID_106_);}
	.st117{fill-rule:evenodd;clip-rule:evenodd;fill:url(#SVGID_107_);}
	.st118{fill-rule:evenodd;clip-rule:evenodd;fill:url(#SVGID_108_);}
	.st119{fill-rule:evenodd;clip-rule:evenodd;fill:url(#SVGID_109_);}
	.st120{fill-rule:evenodd;clip-rule:evenodd;fill:url(#SVGID_110_);}
	.st121{fill-rule:evenodd;clip-rule:evenodd;fill:url(#SVGID_111_);}
	.st122{fill-rule:evenodd;clip-rule:evenodd;fill:url(#SVGID_112_);}
	.st123{fill-rule:evenodd;clip-rule:evenodd;fill:url(#SVGID_113_);}
	.st124{fill-rule:evenodd;clip-rule:evenodd;fill:url(#SVGID_114_);}
	.st125{fill-rule:evenodd;clip-rule:evenodd;fill:url(#SVGID_115_);}
	.st126{fill-rule:evenodd;clip-rule:evenodd;fill:url(#SVGID_116_);}
	.st127{fill-rule:evenodd;clip-rule:evenodd;fill:url(#SVGID_117_);}
	.st128{fill-rule:evenodd;clip-rule:evenodd;fill:url(#SVGID_118_);}
	.st129{fill-rule:evenodd;clip-rule:evenodd;fill:url(#SVGID_119_);}
	.st130{fill-rule:evenodd;clip-rule:evenodd;fill:url(#SVGID_120_);}
	.st131{fill-rule:evenodd;clip-rule:evenodd;fill:url(#SVGID_121_);}
	.st132{fill-rule:evenodd;clip-rule:evenodd;fill:url(#SVGID_122_);}
	.st133{fill-rule:evenodd;clip-rule:evenodd;fill:url(#SVGID_123_);}
	.st134{fill-rule:evenodd;clip-rule:evenodd;fill:url(#SVGID_124_);}
	.st135{fill-rule:evenodd;clip-rule:evenodd;fill:url(#SVGID_125_);}
	.st136{fill-rule:evenodd;clip-rule:evenodd;fill:url(#SVGID_126_);}
	.st137{fill-rule:evenodd;clip-rule:evenodd;fill:url(#SVGID_127_);}
	.st138{fill-rule:evenodd;clip-rule:evenodd;fill:url(#SVGID_128_);}
	.st139{fill-rule:evenodd;clip-rule:evenodd;fill:url(#SVGID_129_);}
	.st140{fill-rule:evenodd;clip-rule:evenodd;fill:url(#SVGID_130_);}
	.st141{fill-rule:evenodd;clip-rule:evenodd;fill:url(#SVGID_131_);}
	.st142{fill-rule:evenodd;clip-rule:evenodd;fill:url(#SVGID_132_);}
	.st143{fill-rule:evenodd;clip-rule:evenodd;fill:url(#SVGID_133_);}
	.st144{fill-rule:evenodd;clip-rule:evenodd;fill:url(#SVGID_134_);}
	.st145{fill-rule:evenodd;clip-rule:evenodd;fill:url(#SVGID_135_);}
	.st146{fill-rule:evenodd;clip-rule:evenodd;fill:url(#SVGID_136_);}
	.st147{fill-rule:evenodd;clip-rule:evenodd;fill:url(#SVGID_137_);}
	.st148{fill-rule:evenodd;clip-rule:evenodd;fill:url(#SVGID_138_);}
	.st149{fill-rule:evenodd;clip-rule:evenodd;fill:url(#SVGID_139_);}
	.st150{fill-rule:evenodd;clip-rule:evenodd;fill:url(#SVGID_140_);}
	.st151{fill-rule:evenodd;clip-rule:evenodd;fill:url(#SVGID_141_);}
	.st152{fill-rule:evenodd;clip-rule:evenodd;fill:url(#SVGID_142_);}
	.st153{fill-rule:evenodd;clip-rule:evenodd;fill:url(#SVGID_143_);}
	.st154{fill-rule:evenodd;clip-rule:evenodd;fill:url(#SVGID_144_);}
	.st155{fill-rule:evenodd;clip-rule:evenodd;fill:url(#SVGID_145_);}
	.st156{fill-rule:evenodd;clip-rule:evenodd;fill:url(#SVGID_146_);}
	.st157{fill-rule:evenodd;clip-rule:evenodd;fill:url(#SVGID_147_);}
	.st158{fill-rule:evenodd;clip-rule:evenodd;fill:url(#SVGID_148_);}
	.st159{fill-rule:evenodd;clip-rule:evenodd;fill:url(#SVGID_149_);}
	.st160{fill-rule:evenodd;clip-rule:evenodd;fill:url(#SVGID_150_);}
	.st161{fill-rule:evenodd;clip-rule:evenodd;fill:url(#SVGID_151_);}
	.st162{fill-rule:evenodd;clip-rule:evenodd;fill:url(#SVGID_152_);}
	.st163{fill-rule:evenodd;clip-rule:evenodd;fill:url(#SVGID_153_);}
	.st164{fill-rule:evenodd;clip-rule:evenodd;fill:url(#SVGID_154_);}
	.st165{fill-rule:evenodd;clip-rule:evenodd;fill:url(#SVGID_155_);}
	.st166{fill-rule:evenodd;clip-rule:evenodd;fill:url(#SVGID_156_);}
	.st167{fill-rule:evenodd;clip-rule:evenodd;fill:url(#SVGID_157_);}
	.st168{fill-rule:evenodd;clip-rule:evenodd;fill:url(#SVGID_158_);}
	.st169{fill-rule:evenodd;clip-rule:evenodd;fill:url(#SVGID_159_);}
	.st170{fill-rule:evenodd;clip-rule:evenodd;fill:url(#SVGID_160_);}
	.st171{fill:url(#SVGID_161_);}
	.st172{opacity:0.39;}
	.st173{fill:url(#SVGID_162_);}
	.st174{fill:none;stroke:#FFF8FF;stroke-width:3.6156;stroke-linecap:round;stroke-miterlimit:10;stroke-dasharray:7.2726,7.2726;}
	.st175{fill:url(#SVGID_163_);}
	.st176{fill:url(#SVGID_164_);}
	.st177{fill:url(#SVGID_165_);}
	.st178{fill:url(#SVGID_166_);}
	.st179{fill:url(#SVGID_167_);}
	.st180{fill:url(#SVGID_168_);}
	.st181{fill:url(#SVGID_169_);}
	.st182{fill:url(#SVGID_170_);}
	.st183{fill:url(#SVGID_171_);}
	.st184{fill:url(#SVGID_172_);}
	.st185{fill:url(#SVGID_173_);}
	.st186{fill:url(#SVGID_174_);}
	.st187{fill:url(#SVGID_175_);}
	.st188{fill:url(#SVGID_176_);}
	.st189{fill:url(#SVGID_177_);}
	.st190{fill:url(#SVGID_178_);}
	.st191{fill:url(#SVGID_179_);}
	.st192{fill:url(#SVGID_180_);}
	.st193{fill:url(#SVGID_181_);}
	.st194{fill:url(#SVGID_182_);}
	.st195{fill:url(#SVGID_183_);}
	.st196{fill:url(#SVGID_184_);}
	.st197{fill:url(#SVGID_185_);}
	.st198{fill:url(#SVGID_186_);}
	.st199{fill:url(#SVGID_187_);}
	.st200{fill:url(#SVGID_188_);}
	.st201{fill:url(#SVGID_189_);}
	.st202{fill:url(#SVGID_190_);}
	.st203{fill:url(#SVGID_191_);}
	.st204{fill:url(#SVGID_192_);}
	.st205{fill:url(#SVGID_193_);}
	.st206{fill:url(#SVGID_194_);}
	.st207{fill:url(#SVGID_195_);}
	.st208{fill:url(#SVGID_196_);}
	.st209{fill:url(#SVGID_197_);}
	.st210{fill:url(#SVGID_198_);}
	.st211{fill:url(#SVGID_199_);}
	.st212{fill:url(#SVGID_200_);}
	.st213{fill:url(#SVGID_201_);}
	.st214{fill:url(#SVGID_202_);}
	.st215{fill:url(#SVGID_203_);}
	.st216{fill:url(#SVGID_204_);}
	.st217{fill:url(#SVGID_205_);}
	.st218{fill:url(#SVGID_206_);}
	.st219{fill:url(#SVGID_207_);}
	.st220{fill:url(#SVGID_208_);}
	.st221{fill:url(#SVGID_209_);}
	.st222{fill:url(#SVGID_210_);}
	.st223{fill:url(#SVGID_211_);}
	.st224{fill:url(#SVGID_212_);}
	.st225{fill:url(#SVGID_213_);}
	.st226{fill:url(#SVGID_214_);}
	.st227{fill:url(#SVGID_215_);}
	.st228{fill:url(#SVGID_216_);}
	.st229{fill:url(#SVGID_217_);}
	.st230{fill:url(#SVGID_218_);}
	.st231{fill:url(#SVGID_219_);}
	.st232{fill:url(#SVGID_220_);}
	.st233{fill:url(#SVGID_221_);}
	.st234{fill:url(#SVGID_222_);}
	.st235{fill:url(#SVGID_223_);}
	.st236{fill:url(#SVGID_224_);}
	.st237{fill:url(#SVGID_225_);}
	.st238{fill:url(#SVGID_226_);}
	.st239{fill:url(#SVGID_227_);}
	.st240{fill:url(#SVGID_228_);}
	.st241{fill:url(#SVGID_229_);}
	.st242{fill:url(#SVGID_230_);}
	.st243{fill:url(#SVGID_231_);}
	.st244{fill:url(#SVGID_232_);}
	.st245{fill:url(#SVGID_233_);}
	.st246{fill:url(#SVGID_234_);}
	.st247{fill:url(#SVGID_235_);}
	.st248{fill:url(#SVGID_236_);}
	.st249{fill:url(#SVGID_237_);}
	.st250{fill:url(#SVGID_238_);}
	.st251{fill:url(#SVGID_239_);}
	.st252{fill:url(#SVGID_240_);}
	.st253{fill:url(#SVGID_241_);}
	.st254{fill:url(#SVGID_242_);}
	.st255{fill:url(#SVGID_243_);}
	.st256{fill:url(#SVGID_244_);}
	.st257{fill:url(#SVGID_245_);}
	.st258{fill:url(#SVGID_246_);}
	.st259{fill:url(#SVGID_247_);}
	.st260{fill:url(#SVGID_248_);}
	.st261{fill:url(#SVGID_249_);}
	.st262{fill:url(#SVGID_250_);}
	.st263{fill:url(#SVGID_251_);}
	.st264{fill:url(#SVGID_252_);}
	.st265{fill:url(#SVGID_253_);}
	.st266{fill:url(#SVGID_254_);}
	.st267{fill:url(#SVGID_255_);}
	.st268{fill:url(#SVGID_256_);}
	.st269{fill:url(#SVGID_257_);}
	.st270{fill:url(#SVGID_258_);}
	.st271{fill:url(#SVGID_259_);}
	.st272{fill:url(#SVGID_260_);}
	.st273{fill:url(#SVGID_261_);}
	.st274{fill:url(#SVGID_262_);}
	.st275{fill:url(#SVGID_263_);}
	.st276{fill:url(#SVGID_264_);}
	.st277{fill:url(#SVGID_265_);}
	.st278{fill:url(#SVGID_266_);}
	.st279{fill:url(#SVGID_267_);}
	.st280{fill:url(#SVGID_268_);}
	.st281{fill:url(#SVGID_269_);}
	.st282{fill:url(#SVGID_270_);}
	.st283{fill:url(#SVGID_271_);}
	.st284{fill:url(#SVGID_272_);}
	.st285{fill:url(#SVGID_273_);}
	.st286{fill:url(#SVGID_274_);}
	.st287{fill:url(#SVGID_275_);}
	.st288{fill:url(#SVGID_276_);}
	.st289{fill:url(#SVGID_277_);}
	.st290{fill:url(#SVGID_278_);}
	.st291{fill:url(#SVGID_279_);}
	.st292{fill:url(#SVGID_280_);}
	.st293{fill:url(#SVGID_281_);}
	.st294{fill:url(#SVGID_282_);}
	.st295{fill:url(#SVGID_283_);}
	.st296{fill:url(#SVGID_284_);}
	.st297{fill:url(#SVGID_285_);}
	.st298{fill:url(#SVGID_286_);}
	.st299{fill:url(#SVGID_287_);}
	.st300{fill:url(#SVGID_288_);}
	.st301{fill:url(#SVGID_289_);}
	.st302{fill:url(#SVGID_290_);}
	.st303{fill:url(#SVGID_291_);}
	.st304{fill:url(#SVGID_292_);}
	.st305{fill:url(#SVGID_293_);}
	.st306{fill:url(#SVGID_294_);}
	.st307{fill:url(#SVGID_295_);}
	.st308{fill:url(#SVGID_296_);}
	.st309{fill:url(#SVGID_297_);}
	.st310{fill:url(#SVGID_298_);}
	.st311{fill:url(#SVGID_299_);}
	.st312{fill:url(#SVGID_300_);}
	.st313{fill:url(#SVGID_301_);}
	.st314{fill:url(#SVGID_302_);}
	.st315{fill:url(#SVGID_303_);}
	.st316{fill:url(#SVGID_304_);}
	.st317{fill:url(#SVGID_305_);}
	.st318{fill:url(#SVGID_306_);}
	.st319{fill:url(#SVGID_307_);}
	.st320{fill:url(#SVGID_308_);}
	.st321{fill:url(#SVGID_309_);}
	.st322{fill:url(#SVGID_310_);}
	.st323{fill:url(#SVGID_311_);}
	.st324{fill:url(#SVGID_312_);}
	.st325{fill:url(#SVGID_313_);}
	.st326{fill:url(#SVGID_314_);}
	.st327{fill:url(#SVGID_315_);}
	.st328{fill:url(#SVGID_316_);}
	.st329{fill:url(#SVGID_317_);}
	.st330{fill:url(#SVGID_318_);}
	.st331{fill:url(#SVGID_319_);}
	.st332{fill:url(#SVGID_320_);}
	.st333{fill:url(#SVGID_321_);}
	.st334{fill:url(#SVGID_322_);}
	.st335{fill:url(#SVGID_323_);}
	.st336{fill:url(#SVGID_324_);}
	.st337{fill:url(#SVGID_325_);}
	.st338{fill:url(#SVGID_326_);}
	.st339{fill:url(#SVGID_327_);}
	.st340{fill:url(#SVGID_328_);}
	.st341{fill:url(#SVGID_329_);}
	.st342{fill:url(#SVGID_330_);}
	.st343{fill:url(#SVGID_331_);}
	.st344{fill:url(#SVGID_332_);}
	.st345{fill:url(#SVGID_333_);}
	.st346{fill:url(#SVGID_334_);}
	.st347{fill:url(#SVGID_335_);}
	.st348{fill:url(#SVGID_336_);}
	.st349{fill:url(#SVGID_337_);}
	.st350{fill:url(#SVGID_338_);}
	.st351{fill:url(#SVGID_339_);}
	.st352{fill:url(#SVGID_340_);}
	.st353{fill:url(#SVGID_341_);}
	.st354{fill:url(#SVGID_342_);}
	.st355{fill:url(#SVGID_343_);}
	.st356{fill:url(#SVGID_344_);}
	.st357{fill:url(#SVGID_345_);}
	.st358{fill:url(#SVGID_346_);}
	.st359{fill:url(#SVGID_347_);}
	.st360{fill:url(#SVGID_348_);}
	.st361{fill:url(#SVGID_349_);}
	.st362{fill:url(#SVGID_350_);}
	.st363{fill:url(#SVGID_351_);}
	.st364{fill:url(#SVGID_352_);}
	.st365{fill:url(#SVGID_353_);}
	.st366{fill:url(#SVGID_354_);}
	.st367{fill:url(#SVGID_355_);}
	.st368{fill:url(#SVGID_356_);}
	.st369{fill:url(#SVGID_357_);}
	.st370{fill:url(#SVGID_358_);}
	.st371{fill:url(#SVGID_359_);}
	.st372{fill:url(#SVGID_360_);}
	.st373{fill:url(#SVGID_361_);}
	.st374{fill:url(#SVGID_362_);}
	.st375{fill:url(#SVGID_363_);}
	.st376{fill:url(#SVGID_364_);}
	.st377{fill:url(#SVGID_365_);}
	.st378{fill:url(#SVGID_366_);}
	.st379{fill:url(#SVGID_367_);}
	.st380{fill:url(#SVGID_368_);}
	.st381{fill:url(#SVGID_369_);}
	.st382{fill:url(#SVGID_370_);}
	.st383{fill:url(#SVGID_371_);}
	.st384{fill:url(#SVGID_372_);}
	.st385{fill:url(#SVGID_373_);}
	.st386{fill:url(#SVGID_374_);}
	.st387{fill:url(#SVGID_375_);}
	.st388{fill:url(#SVGID_376_);}
	.st389{fill:url(#SVGID_377_);}
	.st390{fill:url(#SVGID_378_);}
	.st391{fill:url(#SVGID_379_);}
	.st392{fill:url(#SVGID_380_);}
	.st393{fill:url(#SVGID_381_);}
	.st394{fill:url(#SVGID_382_);}
	.st395{fill:url(#SVGID_383_);}
	.st396{fill:url(#SVGID_384_);}
	.st397{fill:url(#SVGID_385_);}
	.st398{fill:url(#SVGID_386_);}
	.st399{fill:url(#SVGID_387_);}
	.st400{fill:url(#SVGID_388_);}
	.st401{fill:url(#SVGID_389_);}
	.st402{fill:url(#SVGID_390_);}
	.st403{fill:url(#SVGID_391_);}
	.st404{fill:url(#SVGID_392_);}
	.st405{fill:url(#SVGID_393_);}
	.st406{fill:url(#SVGID_394_);}
	.st407{fill:url(#SVGID_395_);}
	.st408{fill:url(#SVGID_396_);}
	.st409{fill:url(#SVGID_397_);}
	.st410{fill:url(#SVGID_398_);}
	.st411{fill:url(#SVGID_399_);}
	.st412{fill:url(#SVGID_400_);}
	.st413{fill:url(#SVGID_401_);}
	.st414{fill:url(#SVGID_402_);}
	.st415{fill:url(#SVGID_403_);}
	.st416{fill:url(#SVGID_404_);}
	.st417{fill:url(#SVGID_405_);}
	.st418{fill:url(#SVGID_406_);}
	.st419{fill:url(#SVGID_407_);}
	.st420{fill:url(#SVGID_408_);}
	.st421{fill:url(#SVGID_409_);}
	.st422{fill:url(#SVGID_410_);}
	.st423{fill:url(#SVGID_411_);}
	.st424{fill:url(#SVGID_412_);}
	.st425{fill:url(#SVGID_413_);}
	.st426{fill:url(#SVGID_414_);}
	.st427{fill:url(#SVGID_415_);}
	.st428{fill:url(#SVGID_416_);}
	.st429{fill:url(#SVGID_417_);}
	.st430{fill:url(#SVGID_418_);}
	.st431{fill:url(#SVGID_419_);}
	.st432{fill:url(#SVGID_420_);}
	.st433{fill:url(#SVGID_421_);}
	.st434{fill:url(#SVGID_422_);}
	.st435{fill:url(#SVGID_423_);}
	.st436{fill:url(#SVGID_424_);}
	.st437{fill:url(#SVGID_425_);}
	.st438{fill:url(#SVGID_426_);}
	.st439{fill:url(#SVGID_427_);}
	.st440{fill:url(#SVGID_428_);}
	.st441{fill:url(#SVGID_429_);}
	.st442{fill:url(#SVGID_430_);}
	.st443{fill:url(#SVGID_431_);}
	.st444{fill:url(#SVGID_432_);}
	.st445{fill:url(#SVGID_433_);}
	.st446{fill:url(#SVGID_434_);}
	.st447{fill:url(#SVGID_435_);}
	.st448{fill:url(#SVGID_436_);}
	.st449{fill:url(#SVGID_437_);}
	.st450{fill:url(#SVGID_438_);}
	.st451{fill:url(#SVGID_439_);}
	.st452{fill:url(#SVGID_440_);}
	.st453{fill:url(#SVGID_441_);}
	.st454{fill:url(#SVGID_442_);}
	.st455{fill:url(#SVGID_443_);}
	.st456{fill:url(#SVGID_444_);}
	.st457{fill:url(#SVGID_445_);}
	.st458{fill:url(#SVGID_446_);}
	.st459{fill:url(#SVGID_447_);}
	.st460{fill:url(#SVGID_448_);}
	.st461{fill:url(#SVGID_449_);}
	.st462{fill:url(#SVGID_450_);}
	.st463{fill:url(#SVGID_451_);}
	.st464{fill:url(#SVGID_452_);}
	.st465{fill:url(#SVGID_453_);}
	.st466{fill:url(#SVGID_454_);}
	.st467{fill:url(#SVGID_455_);}
	.st468{fill:url(#SVGID_456_);}
	.st469{fill:url(#SVGID_457_);}
	.st470{fill:url(#SVGID_458_);}
	.st471{fill:url(#SVGID_459_);}
	.st472{fill:url(#SVGID_460_);}
	.st473{fill:url(#SVGID_461_);}
	.st474{fill:url(#SVGID_462_);}
	.st475{fill:url(#SVGID_463_);}
	.st476{fill:url(#SVGID_464_);}
	.st477{fill:url(#SVGID_465_);}
	.st478{fill:url(#SVGID_466_);}
	.st479{fill:url(#SVGID_467_);}
	.st480{fill:url(#SVGID_468_);}
	.st481{fill:url(#SVGID_469_);}
	.st482{fill:url(#SVGID_470_);}
	.st483{fill:url(#SVGID_471_);}
	.st484{fill:url(#SVGID_472_);}
	.st485{fill:url(#SVGID_473_);}
	.st486{fill:url(#SVGID_474_);}
	.st487{fill:url(#SVGID_475_);}
	.st488{fill:url(#SVGID_476_);}
	.st489{fill:url(#SVGID_477_);}
	.st490{fill:url(#SVGID_478_);}
	.st491{fill:url(#SVGID_479_);}
	.st492{fill:url(#SVGID_480_);}
	.st493{fill:url(#SVGID_481_);}
	.st494{fill:url(#SVGID_482_);}
	.st495{fill:url(#SVGID_483_);}
	.st496{fill:url(#SVGID_484_);}
	.st497{fill:url(#SVGID_485_);}
	.st498{fill:url(#SVGID_486_);}
	.st499{fill:url(#SVGID_487_);}
	.st500{fill:url(#SVGID_488_);}
	.st501{fill:url(#SVGID_489_);}
	.st502{fill:url(#SVGID_490_);}
	.st503{fill:url(#SVGID_491_);}
	.st504{fill:url(#SVGID_492_);}
	.st505{fill:url(#SVGID_493_);}
	.st506{fill:url(#SVGID_494_);}
	.st507{fill:url(#SVGID_495_);}
	.st508{fill:url(#SVGID_496_);}
	.st509{fill:url(#SVGID_497_);}
	.st510{fill:url(#SVGID_498_);}
	.st511{fill:url(#SVGID_499_);}
	.st512{fill:url(#SVGID_500_);}
	.st513{fill:url(#SVGID_501_);}
	.st514{fill:url(#SVGID_502_);}
	.st515{fill:url(#SVGID_503_);}
	.st516{fill:url(#SVGID_504_);}
	.st517{fill:url(#SVGID_505_);}
	.st518{fill:url(#SVGID_506_);}
	.st519{fill:url(#SVGID_507_);}
	.st520{fill:url(#SVGID_508_);}
	.st521{fill:url(#SVGID_509_);}
	.st522{fill:url(#SVGID_510_);}
	.st523{fill:url(#SVGID_511_);}
	.st524{fill:url(#SVGID_512_);}
	.st525{fill:url(#SVGID_513_);}
	.st526{fill:url(#SVGID_514_);}
	.st527{fill:url(#SVGID_515_);}
	.st528{fill:url(#SVGID_516_);}
	.st529{fill:url(#SVGID_517_);}
	.st530{fill:url(#SVGID_518_);}
	.st531{fill:url(#SVGID_519_);}
	.st532{fill:url(#SVGID_520_);}
	.st533{fill:url(#SVGID_521_);}
	.st534{fill:url(#SVGID_522_);}
	.st535{fill:url(#SVGID_523_);}
	.st536{fill:url(#SVGID_524_);}
	.st537{fill:url(#SVGID_525_);}
	.st538{fill:url(#SVGID_526_);}
	.st539{fill:url(#SVGID_527_);}
	.st540{fill:url(#SVGID_528_);}
	.st541{fill:url(#SVGID_529_);}
	.st542{fill:url(#SVGID_530_);}
	.st543{fill:url(#SVGID_531_);}
	.st544{fill:url(#SVGID_532_);}
	.st545{fill:url(#SVGID_533_);}
	.st546{fill:url(#SVGID_534_);}
	.st547{fill:url(#SVGID_535_);}
	.st548{fill:url(#SVGID_536_);}
	.st549{fill:url(#SVGID_537_);}
	.st550{fill:url(#SVGID_538_);}
	.st551{fill:url(#SVGID_539_);}
	.st552{fill:url(#SVGID_540_);}
	.st553{fill:url(#SVGID_541_);}
	.st554{fill:url(#SVGID_542_);}
	.st555{fill:url(#SVGID_543_);}
	.st556{fill:url(#SVGID_544_);}
	.st557{fill:url(#SVGID_545_);}
	.st558{fill:url(#SVGID_546_);}
	.st559{fill:url(#SVGID_547_);}
	.st560{fill:url(#SVGID_548_);}
	.st561{fill:url(#SVGID_549_);}
	.st562{fill:url(#SVGID_550_);}
	.st563{clip-path:url(#SVGID_551_);}
	.st564{fill-rule:evenodd;clip-rule:evenodd;fill:#FFFFFF;}
	.st565{fill:url(#SVGID_552_);}
	.st566{fill:url(#SVGID_553_);}
	.st567{fill-rule:evenodd;clip-rule:evenodd;fill:url(#SVGID_555_);}
	.st568{fill-rule:evenodd;clip-rule:evenodd;fill:url(#SVGID_556_);}
	.st569{fill-rule:evenodd;clip-rule:evenodd;fill:url(#SVGID_557_);}
	.st570{fill-rule:evenodd;clip-rule:evenodd;fill:url(#SVGID_558_);}
	.st571{fill-rule:evenodd;clip-rule:evenodd;fill:url(#SVGID_559_);}
	.st572{fill-rule:evenodd;clip-rule:evenodd;fill:url(#SVGID_560_);}
	.st573{fill-rule:evenodd;clip-rule:evenodd;fill:url(#SVGID_561_);}
	.st574{fill-rule:evenodd;clip-rule:evenodd;fill:url(#SVGID_562_);}
	.st575{fill-rule:evenodd;clip-rule:evenodd;fill:url(#SVGID_563_);}
	.st576{fill-rule:evenodd;clip-rule:evenodd;fill:url(#SVGID_564_);}
	.st577{fill-rule:evenodd;clip-rule:evenodd;fill:url(#SVGID_565_);}
	.st578{fill-rule:evenodd;clip-rule:evenodd;}
	.st579{fill-rule:evenodd;clip-rule:evenodd;fill:#666666;}
	.st580{fill:url(#SVGID_566_);}
	.st581{fill:url(#SVGID_567_);}
	.st582{fill:url(#SVGID_568_);}
	.st583{fill:url(#SVGID_569_);}
	.st584{fill:url(#SVGID_570_);}
	.st585{fill:url(#SVGID_571_);}
	.st586{fill:url(#SVGID_572_);}
	.st587{fill:url(#SVGID_573_);}
	.st588{fill:url(#SVGID_574_);}
	.st589{fill:url(#SVGID_575_);}
	.st590{fill:url(#SVGID_576_);}
	.st591{fill:url(#SVGID_577_);}
	.st592{fill:url(#SVGID_578_);}
	.st593{fill:url(#SVGID_579_);}
	.st594{fill:url(#SVGID_580_);}
	.st595{fill:url(#SVGID_581_);}
	.st596{fill:url(#SVGID_582_);}
	.st597{fill:url(#SVGID_583_);}
	.st598{fill:url(#SVGID_584_);}
	.st599{fill:url(#SVGID_585_);}
	.st600{fill:url(#SVGID_586_);}
	.st601{fill:url(#SVGID_587_);}
	.st602{fill:url(#SVGID_588_);}
	.st603{fill:url(#SVGID_589_);}
	.st604{fill:url(#SVGID_590_);}
	.st605{fill:url(#SVGID_591_);}
	.st606{fill:url(#SVGID_592_);}
	.st607{fill:url(#SVGID_593_);}
	.st608{fill:url(#SVGID_594_);}
	.st609{fill:url(#SVGID_595_);}
	.st610{fill:url(#SVGID_596_);}
	.st611{fill:url(#SVGID_597_);}
	.st612{clip-path:url(#SVGID_598_);}
	.st613{clip-path:url(#SVGID_600_);}
	.st614{fill:url(#SVGID_602_);}
	.st615{fill:url(#SVGID_604_);}
	.st616{fill:#606060;}
	.st617{fill:#F68000;}
	
		.st618{fill-rule:evenodd;clip-rule:evenodd;fill:none;stroke:#000000;stroke-width:0.6448;stroke-miterlimit:10;stroke-dasharray:2.579;}
	.st619{fill:url(#SVGID_606_);}
	.st620{fill:url(#SVGID_607_);}
	.st621{fill:url(#SVGID_608_);}
	.st622{fill:url(#SVGID_609_);}
	.st623{opacity:0.5;fill:#383838;}
	.st624{fill:#383838;}
	.st625{fill:#646464;}
	.st626{fill:#494949;}
	.st627{fill:#E7E7E7;}
	.st628{fill:#878787;}
	.st629{fill:#FF8500;}
	.st630{opacity:0.3;}
	.st631{clip-path:url(#SVGID_610_);}
	.st632{fill:#A5A5A5;}
	.st633{fill:#FF5900;}
	.st634{fill:#FF9E00;}
	.st635{clip-path:url(#SVGID_611_);}
	.st636{fill-rule:evenodd;clip-rule:evenodd;fill:url(#SVGID_612_);}
	.st637{fill-rule:evenodd;clip-rule:evenodd;fill:url(#SVGID_614_);}
	.st638{fill-rule:evenodd;clip-rule:evenodd;fill:url(#SVGID_616_);}
	.st639{enable-background:new    ;}
	.st640{fill:url(#SVGID_617_);}
	.st641{fill:url(#SVGID_618_);}
	.st642{fill:url(#SVGID_619_);}
	.st643{fill:url(#SVGID_620_);}
</style>
<g id="Capa_1">
</g>
<g id="Capa_2">
	<g>
		<radialGradient id="SVGID_1_" cx="35.8551" cy="76.941" r="60.0229" gradientUnits="userSpaceOnUse">
			<stop  offset="0.2228" style="stop-color:#8E2D76"/>
			<stop  offset="1" style="stop-color:#61164A"/>
		</radialGradient>
		<polyline class="st0" points="71.7,0 71.7,144 0,153.9 0,0 		"/>
	</g>
	<g>
		<g>
			<path class="st24" d="M40.7,95.5h12.4c1.4,0,2.6-1.1,2.6-2.6v-5.2c0,0,0,0,0,0c0,0,0,0,0,0c0,0,0,0,0,0c0,0,0,0,0,0c0,0,0,0,0,0
				c0,0,0,0,0,0c0,0,0,0,0,0c0,0,0,0,0,0c0,0,0,0,0,0c0,0,0,0,0,0c0,0,0,0,0,0s0,0,0,0s0,0,0,0c0,0,0,0,0,0c0,0,0,0,0,0c0,0,0,0,0,0
				c0,0,0,0,0,0c0,0,0,0,0,0c0,0,0,0,0,0s0,0,0,0c0,0,0,0,0,0s0,0,0,0c0,0,0,0,0,0c0,0,0,0,0,0c0,0,0,0,0,0c0,0,0,0,0,0s0,0,0,0
				c0,0,0,0,0,0c0,0,0,0,0,0c0,0,0,0,0,0l-15.7-2.2v-2.2c0,0,0,0,0-0.1c0,0,0,0,0,0c0,0,0,0,0,0c0,0,0,0,0,0c0,0,0,0,0,0
				c0,0,0,0,0,0c0,0,0,0,0,0c0,0,0,0,0,0c0,0,0,0,0,0c0,0,0,0,0,0c0,0,0,0,0,0c0,0,0,0,0,0s0,0,0,0c0,0,0,0,0,0c0,0,0,0,0,0
				c0,0,0,0,0,0c0,0,0,0,0,0c0,0,0,0,0,0c0,0,0,0,0,0c0,0,0,0,0,0c0,0,0,0,0,0c0,0,0,0-0.1,0l-3.4-1.4c-0.3-0.1-0.7,0-0.8,0.3
				s0,0.7,0.3,0.8l3,1.3V86v0.4v3.4v3.1v3.9c0,1.3,1,2.4,2.2,2.5c-0.2,0.4-0.4,0.8-0.4,1.3c0,1.4,1.1,2.5,2.5,2.5s2.5-1.1,2.5-2.5
				c0-0.5-0.1-0.9-0.3-1.3h5.6c-0.2,0.4-0.3,0.8-0.3,1.3c0,1.4,1.1,2.5,2.5,2.5c1.4,0,2.5-1.1,2.5-2.5c0-1.4-1.1-2.5-2.5-2.5H40.7
				c-0.7,0-1.3-0.6-1.3-1.3v-1.7C39.8,95.3,40.2,95.5,40.7,95.5z M43.8,100.6c0,0.7-0.6,1.3-1.3,1.3s-1.3-0.6-1.3-1.3
				c0-0.7,0.6-1.3,1.3-1.3S43.8,99.9,43.8,100.6z M53.8,100.6c0,0.7-0.6,1.3-1.3,1.3s-1.3-0.6-1.3-1.3c0-0.7,0.6-1.3,1.3-1.3
				S53.8,99.9,53.8,100.6z M53.1,94.2H40.7c-0.7,0-1.3-0.6-1.3-1.3v-3.1v-3.4v-0.2l15,2.1v4.7C54.4,93.6,53.8,94.2,53.1,94.2z"/>
			<path class="st24" d="M27.2,88.7h-0.6c-1.7,0-3.1-1.4-3.1-3.1v0c0-1.7,1.4-3.1,3.1-3.1h0.6c1.7,0,3.1,1.4,3.1,3.1v0
				C30.3,87.3,28.9,88.7,27.2,88.7z"/>
			<path class="st24" d="M28.7,92.6h-3.7c-0.8,0-1.5-0.7-1.5-1.5l0,0c0-0.8,0.7-1.5,1.5-1.5h3.7c0.8,0,1.5,0.7,1.5,1.5l0,0
				C30.3,91.9,29.6,92.6,28.7,92.6z"/>
			<path class="st24" d="M28.7,96.5h-3.7c-0.8,0-1.5-0.7-1.5-1.5l0,0c0-0.8,0.7-1.5,1.5-1.5h3.7c0.8,0,1.5,0.7,1.5,1.5l0,0
				C30.3,95.8,29.6,96.5,28.7,96.5z"/>
			<path class="st24" d="M57.1,78.8h-3.7h-1.9H38.4c0,0.5-0.1,0.9-0.3,1.3l0.1,0.1H52h1.2h3.8c0.2,0,0.4,0.2,0.4,0.4v17.6h-1.8
				c0.3,0.4,0.5,0.9,0.7,1.3h1.1v3.5c0,0.2-0.2,0.4-0.4,0.4h-1.7c-0.7,0.8-1.8,1.3-2.9,1.3c-1.1,0-2.2-0.5-2.9-1.3h-4.1
				c-0.7,0.8-1.8,1.3-2.9,1.3c-1.1,0-2.2-0.5-2.9-1.3H21.9c-0.2,0-0.4-0.2-0.4-0.4v-3.5h16.1c-0.3-0.4-0.6-0.9-0.8-1.3H21.5V80.5
				c0-0.2,0.2-0.4,0.4-0.4h10.6c-0.2-0.4-0.3-0.9-0.3-1.3H21.9c-1,0-1.8,0.8-1.8,1.8V103c0,1,0.8,1.8,1.8,1.8h13.5v1.3
				c0,1.2-1,2.1-2.1,2.1h-1.9c-0.4,0-0.7,0.3-0.7,0.7c0,0.4,0.3,0.7,0.7,0.7h16.3c0.4,0,0.7-0.3,0.7-0.7c0-0.4-0.3-0.7-0.7-0.7h-1.9
				c-1.2,0-2.1-1-2.1-2.1v-1.3h13.5c1,0,1.8-0.8,1.8-1.8V80.5C58.8,79.6,58,78.8,57.1,78.8z M36.1,108.2c0.5-0.6,0.7-1.3,0.7-2.1
				v-1.3h5.4v1.3c0,0.8,0.3,1.5,0.7,2.1H36.1z"/>
			<circle class="st24" cx="55" cy="65.7" r="1.6"/>
		</g>
		<path class="st24" d="M54.2,63.8c1-0.4,2.2,0,2.6,1c0.4,1,0,2.2-1,2.6c-1,0.4-2.2,0-2.6-1C52.8,65.4,53.2,64.2,54.2,63.8
			L54.2,63.8z M56.2,68.3c1.5-0.7,2.2-2.4,1.5-3.9s-2.4-2.2-3.9-1.5c-1.5,0.7-2.2,2.4-1.5,3.9S54.7,69,56.2,68.3L56.2,68.3z"/>
		<path class="st24" d="M46.6,67.3l1.5,3.5l2.4-0.5c0.1,0.1,0.2,0.2,0.3,0.3l0.7-0.8c-0.2-0.1-0.3-0.3-0.4-0.4l-0.2-0.2l-2.2,0.5
			l-0.9-2l1.8-1.3l0-0.3c0-0.2,0-0.4,0-0.6l0-0.3l-1.9-1.2l0.8-2l2.2,0.4l0.2-0.2c0.1-0.2,0.3-0.3,0.4-0.4l0.2-0.2l-0.5-2.2l2-0.9
			l1.3,1.8l0.3,0c0.2,0,0.4,0,0.6,0l0.3,0l1.2-1.9l2.4,0.9l0.3-0.9l-3.1-1.2L55,59.2c-0.1,0-0.1,0-0.2,0l-1.4-2l-3.5,1.5l0.5,2.4
			c-0.1,0-0.1,0.1-0.1,0.1l-2.4-0.4l-1.4,3.5l2.1,1.4c0,0.1,0,0.1,0,0.2L46.6,67.3L46.6,67.3z"/>
		<path class="st24" d="M63.5,66.9l-2.1-1.4c0-0.1,0-0.1,0-0.2l2-1.4l-1.5-3.5l-2.4,0.5c-0.1-0.1-0.2-0.2-0.3-0.3l-0.6,0.8
			c0.2,0.1,0.3,0.3,0.4,0.4l0.2,0.2l2.2-0.5l0.9,2L60.4,65l0,0.3c0,0.2,0,0.4,0,0.6l0,0.3l1.9,1.2l-0.8,2L59.3,69l-0.2,0.2
			c-0.1,0.2-0.3,0.3-0.4,0.4l-0.2,0.2L59,72l-2,0.9l-1.3-1.8l-0.3,0c-0.2,0-0.4,0-0.6,0l-0.3,0L53.3,73l-2.4-0.9l-0.3,0.9l3.1,1.2
			l1.4-2.1c0.1,0,0.1,0,0.2,0l1.4,2l3.5-1.5l-0.5-2.4c0.1,0,0.1-0.1,0.1-0.1l2.4,0.4L63.5,66.9L63.5,66.9z"/>
		<g>
			<path class="st24" d="M49.3,72l-1.6,0.3l-2.5,2.5l-3-3.5c-0.1-0.1-0.2-0.2-0.4-0.2c-0.1,0-0.3,0.1-0.4,0.2l-6.6,7
				c-0.2,0.2-0.2,0.6,0,0.8c0.1,0.1,0.2,0.1,0.4,0.1c0.1,0,0.3-0.1,0.4-0.2l6.1-6.6l3,3.5c0.1,0.1,0.2,0.2,0.4,0.2
				c0.2,0,0.3-0.1,0.4-0.2l3.5-3.6L49.3,72z"/>
		</g>
		<circle class="st24" cx="35.3" cy="78.7" r="1.6"/>
		<path class="st24" d="M12.1,73.6h6.4c0.4,0,0.7-0.1,0.9-0.3c0.3,0.2,0.6,0.3,0.9,0.3h6.4c0.4,0,0.7-0.1,0.9-0.3
			c0.3,0.2,0.6,0.3,0.9,0.3h6.4c0.9,0,1.6-0.7,1.6-1.6v-3c0-1.3-0.8-2.5-1.9-3.1c0.5-0.7,0.9-1.5,0.9-2.4c0-2.1-1.7-3.8-3.8-3.8
			s-3.8,1.7-3.8,3.8c0,0.9,0.3,1.8,0.9,2.4c-0.5,0.3-0.9,0.6-1.2,1.1c-0.3-0.4-0.7-0.8-1.2-1.1c0.5-0.7,0.9-1.5,0.9-2.4
			c0-2.1-1.7-3.8-3.8-3.8s-3.8,1.7-3.8,3.8c0,0.9,0.3,1.8,0.9,2.4c-0.5,0.3-0.9,0.6-1.2,1.1c-0.3-0.4-0.7-0.8-1.2-1.1
			c0.5-0.7,0.9-1.5,0.9-2.4c0-2.1-1.7-3.8-3.8-3.8c-2.1,0-3.8,1.7-3.8,3.8c0,0.9,0.3,1.8,0.9,2.4c-1.1,0.6-1.9,1.8-1.9,3.1v3
			C10.5,72.9,11.3,73.6,12.1,73.6z M32,61c1.4,0,2.5,1.1,2.5,2.5c0,1.4-1.1,2.5-2.5,2.5c-1.4,0-2.5-1.1-2.5-2.5
			C29.5,62.1,30.6,61,32,61z M30.3,66.9c0.5,0.3,1.1,0.4,1.7,0.4c0.6,0,1.2-0.1,1.7-0.4c1,0.2,1.8,1.1,1.8,2.1v3
			c0,0.2-0.1,0.3-0.3,0.3h-6.4c-0.2,0-0.3-0.1-0.3-0.3v-3C28.5,67.9,29.3,67,30.3,66.9z M23.7,61c1.4,0,2.5,1.1,2.5,2.5
			c0,1.4-1.1,2.5-2.5,2.5c-1.4,0-2.5-1.1-2.5-2.5S22.3,61,23.7,61z M22,66.9c0.5,0.3,1.1,0.4,1.7,0.4c0.6,0,1.2-0.1,1.7-0.4
			c1,0.2,1.8,1.1,1.8,2.1v3c0,0.2-0.1,0.3-0.3,0.3h-6.4c-0.2,0-0.3-0.1-0.3-0.3v-3C20.2,67.9,20.9,67,22,66.9z M15.4,61
			c1.4,0,2.5,1.1,2.5,2.5c0,1.4-1.1,2.5-2.5,2.5s-2.5-1.1-2.5-2.5C12.9,62.1,14,61,15.4,61z M11.9,69c0-1.1,0.8-1.9,1.8-2.1
			c0.5,0.3,1.1,0.4,1.7,0.4c0.6,0,1.2-0.1,1.7-0.4c1,0.2,1.8,1.1,1.8,2.1v3c0,0.2-0.1,0.3-0.3,0.3h-6.4c-0.2,0-0.3-0.1-0.3-0.3V69z"
			/>
	</g>
</g>
</svg>
