<?xml version="1.0" encoding="utf-8"?>
<!-- Generator: Adobe Illustrator 21.1.0, SVG Export Plug-In . SVG Version: 6.00 Build 0)  -->
<svg version="1.1" id="Capa_1" xmlns="http://www.w3.org/2000/svg" xmlns:xlink="http://www.w3.org/1999/xlink" x="0px" y="0px"
	 viewBox="0 0 530.7 549" style="enable-background:new 0 0 530.7 549;" xml:space="preserve">
<style type="text/css">
	.st0{fill:#FFFFFF;}
	.st1{opacity:0.5;}
	.st2{fill:none;stroke:#FFFFFF;stroke-width:1.1528;stroke-miterlimit:10;stroke-dasharray:4.6114;}
	.st3{fill:none;stroke:#FFFFFF;stroke-width:1.1528;stroke-miterlimit:10;}
	.st4{fill:none;stroke:#FFFFFF;stroke-width:1.1528;stroke-miterlimit:10;stroke-dasharray:4.4832,4.4832;}
	.st5{fill:none;stroke:#FFFFFF;stroke-width:1.1528;stroke-miterlimit:10;stroke-dasharray:4.9197,4.9197;}
	.st6{fill:none;stroke:#FFFFFF;stroke-width:1.1528;stroke-miterlimit:10;stroke-dasharray:4.5918,4.5918;}
	.st7{fill:none;stroke:#FFFFFF;stroke-width:1.1528;stroke-miterlimit:10;stroke-dasharray:4.6139,4.6139;}
	.st8{fill:none;stroke:#FFFFFF;stroke-width:1.1528;stroke-miterlimit:10;stroke-dasharray:4.846,4.846;}
</style>
<g>
	<g>
		<g>
			<path class="st0" d="M27.4,160.2c-0.3-0.4-0.4-1.1-0.4-2l0-1.4c0-0.2,0-0.4,0-0.5c0-0.1-0.1-0.2-0.2-0.2c-0.3,0-0.8,0.4-1.7,1.1
				c-0.9,0.7-1.8,1.5-2.7,2.5c-0.1,0.1-0.2,0.3-0.4,0.4c-0.2,0.2-0.3,0.3-0.5,0.4c-0.1,0.1-0.3,0.1-0.4,0.1c-0.2,0-0.4-0.1-0.5-0.2
				l-0.3-0.3c-0.1-0.1-0.2-0.3-0.2-0.4l0.1-0.3l0.7-2c0.5-1.1,0.7-1.7,0.8-2c0.1-0.3,0.1-0.4,0-0.4c-0.2,0-0.4,0.1-0.8,0.3
				c-0.3,0.2-0.5,0.3-0.6,0.5c0,0-0.2,0.1-0.4,0.3c-0.2,0.2-0.4,0.4-0.6,0.5c-0.2,0.3-0.6,0.8-1.4,1.5l-0.7,0.7
				c-0.3,0.2-0.7,0.8-1.3,1.5c-0.3,0.4-0.5,0.6-0.5,0.6c-0.6,0-1-0.3-1.2-0.9c-0.1-0.1-0.1-0.3-0.1-0.6c0-0.3,0.1-1,0.4-2
				c0.2-0.7,0.3-1.1,0.3-1.3l0.2-0.6c0-0.3,0.1-0.6,0.3-1c0.1-0.4,0.4-1,0.7-1.8c0.2-0.6,0.3-1,0.3-1.3c0-0.3,0.1-0.5,0.3-0.6
				c0.2-0.2,0.4-0.2,0.6-0.2c0.3,0,0.5,0.1,0.7,0.3c0.2,0.2,0.3,0.5,0.3,0.9c0,0.4-0.1,0.7-0.2,1.1l-0.3,0.8
				c-0.2,0.3-0.4,0.9-0.6,1.6c-0.3,0.7-0.4,1.1-0.4,1.2c0,0.1,0.1,0,0.2,0c0.1-0.1,0.3-0.2,0.4-0.4c0.2-0.2,0.4-0.4,0.7-0.6
				c0.6-0.6,1.4-1.1,2.2-1.7c0.9-0.5,1.5-0.9,2-1c0.3,0,0.5,0,0.6,0.1c0.1,0.1,0.3,0.2,0.5,0.4c0.2,0.2,0.3,0.3,0.4,0.4
				c0.2,0.2,0.3,0.5,0.3,0.8c0,0.1,0,0.2-0.1,0.4c-0.1,0.3-0.2,0.6-0.3,1.1c-0.1,0.4-0.2,0.7-0.3,0.9c0.1-0.1,0.4-0.3,0.8-0.7
				c0.4-0.3,0.7-0.6,1-0.9c1-0.8,1.8-1.2,2.4-1.2c0.4,0,0.8,0.2,1.1,0.7c0.2,0.2,0.3,0.4,0.3,0.6c0,0.2,0.1,0.5,0.1,0.8s0,0.6,0,0.8
				c0,0.1,0,0.4,0,0.7c0,0.2,0,0.5,0.1,1c0,0.5,0.1,0.7,0.1,0.8c0.1,0.1,0.5,0.2,1.1,0.3c0.4,0.1,0.6,0.2,0.6,0.5
				c0,0.2-0.1,0.4-0.4,0.6c-0.3,0.2-0.6,0.2-1,0.2c-0.4,0-0.7-0.1-1-0.2C28,160.9,27.7,160.6,27.4,160.2z"/>
			<path class="st0" d="M31.6,160c0-0.3,0.1-0.5,0.2-0.7c0-0.1,0-0.2,0.1-0.4c0-0.1,0.1-0.2,0.1-0.3c0-0.1,0.1-0.5,0.2-1
				c0.4-0.8,0.9-2.3,1.5-4.4c0-0.1,0-0.2,0.1-0.3c0.1-0.1,0.2-0.1,0.4-0.1c0.2,0,0.3-0.1,0.3-0.1c0.1,0,0.2,0,0.3,0.1
				c0.1,0.1,0.2,0.3,0.4,0.5c0.1,0.1,0.2,0.3,0.2,0.6c0,0.4-0.1,0.9-0.4,1.4c-0.3,0.6-0.4,1.1-0.5,1.6c-0.2,0.6-0.4,1.1-0.6,1.5
				c0,0.1-0.1,0.4-0.2,0.7c-0.1,0.4-0.2,0.7-0.3,0.9c-0.1,0.6-0.2,1-0.3,1.2c-0.1,0.2-0.2,0.3-0.3,0.3c-0.1,0-0.3-0.1-0.6-0.4
				C31.7,161,31.6,160.6,31.6,160z M34.6,147.9c-0.1-0.4-0.1-0.5,0-0.5c0.2,0,0.4-0.2,0.6-0.5c0.2-0.3,0.3-0.6,0.3-0.9
				c0-0.1,0-0.2,0.1-0.2c0.1-0.1,0.1-0.1,0.2-0.1c0.2-0.1,0.3-0.2,0.4-0.2c0.3,0,0.7,0.2,1,0.7c0.1,0.3,0.2,0.5,0.2,0.7
				c0,0.2-0.1,0.4-0.2,0.6c-0.1,0.2-0.3,0.4-0.6,0.8c-0.4,0.5-0.7,0.7-1,0.7c-0.2,0-0.4-0.1-0.7-0.3
				C34.8,148.5,34.7,148.3,34.6,147.9z"/>
			<path class="st0" d="M38.3,161.7c-0.4-0.3-0.6-0.5-0.7-0.7c0,0,0-0.1,0-0.2c0-0.1,0-0.2,0.1-0.2c0.1,0,0.2,0,0.3,0
				c0.4,0,0.9,0,1.7,0.1c0.5,0,1-0.1,1.6-0.2c0.6-0.1,0.9-0.2,1-0.4c0.1,0,0.1,0,0.1,0c0,0-0.1-0.1-0.2-0.3c0,0-0.1,0-0.3-0.1
				c-0.1-0.1-0.2-0.1-0.3-0.1c0-0.1-0.1-0.2-0.3-0.3c-0.2-0.1-0.4-0.3-0.6-0.4c-0.6-0.5-1-0.9-1.3-1.1c-0.2-0.2-0.3-0.4-0.3-0.5
				v-0.2c-0.1,0-0.3-0.2-0.5-0.6s-0.3-0.8-0.3-1.1c0-0.4,0.2-0.9,0.5-1.6c0.3-0.7,0.7-1.2,1.1-1.6c0.6-0.5,1.3-1.1,2.2-1.7
				c0.9-0.6,1.6-1,2.2-1.1c0.4-0.1,0.7-0.2,1.1-0.2c0.3,0,0.6,0.1,0.8,0.2c0.3,0.2,0.5,0.4,0.8,0.7s0.4,0.6,0.5,0.8
				c0,0.5,0,0.9-0.1,1.3c-0.1,0.4-0.2,0.6-0.4,0.6c0,0-0.1,0-0.1,0c0,0-0.1,0.1-0.1,0.2c0,0.1,0,0.2-0.1,0.3
				c-0.1,0.1-0.2,0.3-0.3,0.4c-0.5,0.3-0.8,0.5-1.1,0.5c-0.2,0-0.4-0.1-0.4-0.3c0,0-0.1-0.1-0.1-0.2s-0.1-0.1-0.2-0.1
				c0,0-0.1,0-0.1-0.1c-0.1-0.1-0.1-0.2-0.1-0.3c0-0.1,0-0.1,0.1-0.2c0.1-0.1,0.1-0.1,0.1-0.1c0.1,0,0.3-0.2,0.6-0.7
				c0.3-0.5,0.4-0.8,0.4-1c0-0.1,0-0.2,0-0.2c0,0-0.1,0-0.3,0c-1.6,0.7-2.6,1.3-3,1.6c-0.1,0.1-0.1,0.2-0.1,0.2c0,0-0.1,0.1-0.2,0.1
				c0-0.2-0.5,0.5-1.6,2.1c0,0-0.1,0.2-0.1,0.4c-0.1,0.2-0.1,0.4-0.1,0.5c0,0.2-0.1,0.3-0.1,0.3c0,0.1,0,0.2,0.1,0.2
				s0.2,0.2,0.3,0.3c0.1,0.1,0.2,0.2,0.4,0.3c1.1,0.8,1.8,1.4,2.2,1.8c0.4,0.4,0.7,0.7,0.8,1c0.3,0.4,0.4,0.8,0.4,1.1
				c0,0.2-0.1,0.5-0.3,0.7s-0.5,0.4-0.8,0.5c-0.2,0.1-0.6,0.2-1.1,0.3c-0.5,0.1-1.1,0.1-1.6,0.1c-0.3,0-0.6,0-0.9-0.1
				C39,162.2,38.6,162,38.3,161.7z"/>
			<path class="st0" d="M47.9,160c0-0.3,0.1-0.5,0.2-0.7c0-0.1,0-0.2,0.1-0.4c0-0.1,0.1-0.2,0.1-0.3c0-0.1,0.1-0.5,0.2-1
				c0.4-0.8,0.9-2.3,1.5-4.4c0-0.1,0-0.2,0.1-0.3c0.1-0.1,0.2-0.1,0.4-0.1c0.2,0,0.3-0.1,0.3-0.1c0.1,0,0.2,0,0.3,0.1
				c0.1,0.1,0.2,0.3,0.4,0.5c0.1,0.1,0.2,0.3,0.2,0.6c0,0.4-0.1,0.9-0.4,1.4c-0.3,0.6-0.4,1.1-0.5,1.6c-0.2,0.6-0.4,1.1-0.6,1.5
				c0,0.1-0.1,0.4-0.2,0.7c-0.1,0.4-0.2,0.7-0.3,0.9c-0.1,0.6-0.2,1-0.3,1.2c-0.1,0.2-0.2,0.3-0.3,0.3c-0.1,0-0.3-0.1-0.6-0.4
				C48.1,161,47.9,160.6,47.9,160z M51,147.9c-0.1-0.4-0.1-0.5,0-0.5c0.2,0,0.4-0.2,0.6-0.5c0.2-0.3,0.3-0.6,0.3-0.9
				c0-0.1,0-0.2,0.1-0.2c0.1-0.1,0.1-0.1,0.2-0.1c0.2-0.1,0.3-0.2,0.4-0.2c0.3,0,0.7,0.2,1,0.7c0.1,0.3,0.2,0.5,0.2,0.7
				c0,0.2-0.1,0.4-0.2,0.6c-0.1,0.2-0.3,0.4-0.6,0.8c-0.4,0.5-0.7,0.7-1,0.7c-0.2,0-0.4-0.1-0.7-0.3C51.2,148.5,51.1,148.3,51,147.9
				z"/>
			<path class="st0" d="M55.4,161.7c-0.1-0.1-0.4-0.2-0.6-0.5c-0.7-0.7-1-1.4-1-2c0-0.1,0-0.2,0-0.3c0.1-0.1,0.1-0.3,0.1-0.4
				c0-0.1,0-0.2,0-0.3c-0.1-0.1-0.1-0.1-0.1-0.2c0,0,0-0.1,0.1-0.1c0,0,0.1-0.1,0.1-0.1c0.1,0,0.2-0.1,0.1-0.3c0-0.2,0-0.5,0.2-1.1
				c0.2-0.6,0.5-1.1,0.8-1.6c0.2-0.4,0.6-0.8,1-1.4c0.4-0.6,0.8-1,1.2-1.3c0.5-0.4,0.9-0.8,1.3-1s0.8-0.4,1.3-0.5
				c0.4-0.1,0.7-0.2,0.8-0.2s0.3,0,0.4,0.1c0.1,0.1,0.3,0.2,0.4,0.4c0.6,0.2,0.9,0.6,1.2,0.9c0.2,0.4,0.3,1,0.3,1.8
				c0,1.3-0.5,2.8-1.6,4.4c-0.5,0.7-0.9,1.2-1.3,1.6c-0.4,0.4-1,0.7-1.6,1.2c-0.4,0.3-0.8,0.5-1.2,0.7c-0.4,0.1-0.8,0.2-1.2,0.2
				C55.7,161.8,55.5,161.8,55.4,161.7z M60.1,156.9c0.3-0.5,0.6-1.1,0.9-1.9c0.1-0.4,0.2-0.8,0.2-1.3c0-0.6-0.1-1-0.2-1.1
				c-0.2-0.1-0.4-0.2-0.6-0.2c-0.5,0-0.9,0.2-1.4,0.6c-0.6,0.5-1.1,1.2-1.6,1.9c-0.5,0.8-1,1.7-1.5,2.8c-0.2,0.4-0.3,0.9-0.3,1.3
				c0,0.3,0.1,0.6,0.2,0.7c0.2,0.2,0.4,0.3,0.6,0.3c0.7,0,1.6-0.6,2.6-1.7C59.4,158,59.8,157.4,60.1,156.9z M61.1,147.9
				c-0.1-0.3-0.1-0.5-0.1-0.6c0-0.2,0.5-0.7,1.3-1.6c0.8-0.9,1.4-1.4,1.7-1.5c0.1-0.1,0.2-0.1,0.3-0.1c0.3,0,0.6,0.3,1,1
				c0.1,0.2,0,0.4-0.3,0.7c-0.3,0.3-0.7,0.7-1.3,1.2c-0.7,0.6-1.1,1-1.3,1.2c-0.1,0.2-0.2,0.3-0.3,0.4s-0.2,0.2-0.3,0.2
				s-0.2-0.1-0.4-0.2C61.3,148.4,61.2,148.2,61.1,147.9z"/>
			<path class="st0" d="M74.7,160.6c-0.3-0.2-0.5-0.5-0.7-0.9c-0.2-0.7-0.3-1.3-0.3-2c0-0.3,0-0.5,0.1-0.7c0.1-0.1,0.1-0.3,0.1-0.5
				s0-0.5,0-0.6c0-0.5-0.2-0.7-0.4-0.7c-0.2,0-0.4,0.1-0.6,0.2c-1.2,0.7-2.1,1.3-2.9,1.9c-0.8,0.5-1.5,1.1-2.3,1.7
				c-0.3,0.3-0.5,0.6-0.7,0.9c-0.1,0.2-0.2,0.4-0.3,0.5s-0.1,0.1-0.2,0.1c-0.1,0-0.2,0.1-0.2,0.1c-0.1,0-0.2-0.1-0.4-0.2
				c-0.1-0.1-0.2-0.2-0.3-0.2c-0.1-0.1-0.2-0.2-0.4-0.4c-0.2-0.2-0.3-0.3-0.3-0.4c0-0.2,0.1-0.5,0.2-1.1c0.1-0.6,0.2-1,0.3-1.1
				c0.1,0,0.2-0.1,0.3-0.4c0.1-0.3,0.2-0.5,0.3-0.6c0.1-0.3,0.3-1,0.8-2.1c0.3-0.5,0.5-0.9,0.6-1.2c0.1-0.3,0.2-0.7,0.2-1.2v-0.1
				c0-0.1,0-0.1,0.1-0.2c0.1-0.1,0.1-0.1,0.2-0.1c0.1-0.1,0.3-0.2,0.4-0.2c0.3,0,0.5,0.2,0.8,0.5c0.3,0.4,0.5,0.8,0.5,1.2
				c0,0.5-0.3,1.4-1,2.5c-0.1,0.1-0.2,0.4-0.3,0.6c-0.1,0.3-0.2,0.5-0.2,0.6l1.7-1.2c0.2-0.2,0.6-0.5,1.3-1s1.2-0.7,1.5-0.8
				c0.5-0.2,0.8-0.3,0.9-0.3c0.2,0,0.6,0.2,1,0.6s0.7,0.7,0.8,0.9c0,0.2,0,0.4,0.1,0.5c0.1,0.4,0.2,0.9,0.2,1.5c0,0.4,0,0.7-0.1,1
				c-0.1,0.3-0.1,0.5-0.2,0.5c0,0,0,0.1,0,0.1c0,0,0.1,0.1,0.1,0.1v0.2c-0.2,0-0.2,0.2-0.1,0.5c0.1,0.4,0.3,0.6,0.5,0.8
				c0.2,0.2,0.3,0.4,0.3,0.6c0,0.2-0.2,0.4-0.6,0.5C75.3,160.8,75,160.7,74.7,160.6z"/>
		</g>
	</g>
	<g>
		<g>
			<path class="st0" d="M158.4,112.3c-0.3-1.2-0.6-2.4-0.8-3.5c-0.1-0.4-0.2-1-0.5-1.8c-0.1-0.3-0.1-0.6-0.1-0.7
				c0-0.4,0.2-0.7,0.5-0.8c0.1-0.1,0.2-0.1,0.4-0.1c0.2,0,0.3,0,0.4,0c0.5,0.2,0.9,1.4,1.2,3.8c0.1,0.6,0.2,1.1,0.3,1.6
				c0.1,0.5,0.2,0.8,0.2,0.8c0.1,0.1,0.1,0.3,0.2,0.4c0.1,0.1,0.2,0.2,0.3,0.2c0.1,0,0.1,0,0.2-0.1c0.4-0.4,0.8-0.9,1.3-1.5
				c0.5-0.7,0.8-1.1,1-1.4c0.2-0.4,0.5-0.8,0.9-1.2c0.1-0.1,0.2-0.3,0.4-0.6c0.2-0.3,0.4-0.6,0.7-0.8c0.2-0.2,0.4-0.3,0.5-0.4
				c0.1,0,0.2,0,0.3,0c0.3,0,0.5,0.1,0.5,0.4c0,0.3-0.2,0.7-0.6,1.2c-0.1,0.2-0.3,0.4-0.4,0.7c-0.1,0.3-0.2,0.4-0.3,0.5
				c-0.2,0.5-0.6,1.1-1.3,1.9c-0.6,0.8-1,1.3-1.2,1.5c0,0-0.2,0.2-0.5,0.4c-0.3,0.2-0.6,0.5-0.8,0.9c-0.7,0.6-1.1,0.9-1.4,0.9
				c-0.2,0-0.4-0.1-0.6-0.3C159.1,114.2,158.8,113.5,158.4,112.3z"/>
			<path class="st0" d="M167.2,114c0-0.3,0.1-0.5,0.2-0.7c0-0.1,0-0.2,0.1-0.4c0-0.1,0.1-0.2,0.1-0.3c0-0.1,0.1-0.5,0.2-1
				c0.4-0.8,0.9-2.3,1.5-4.4c0-0.1,0-0.2,0.1-0.3c0.1-0.1,0.2-0.1,0.4-0.1c0.2,0,0.3-0.1,0.3-0.1c0.1,0,0.2,0,0.3,0.1
				c0.1,0.1,0.2,0.3,0.4,0.5c0.1,0.1,0.2,0.3,0.2,0.6c0,0.4-0.1,0.9-0.4,1.4c-0.3,0.6-0.4,1.1-0.5,1.6c-0.2,0.6-0.4,1.1-0.6,1.5
				c0,0.1-0.1,0.4-0.2,0.7c-0.1,0.4-0.2,0.7-0.3,0.9c-0.1,0.6-0.2,1-0.3,1.2c-0.1,0.2-0.2,0.3-0.3,0.3c-0.1,0-0.3-0.1-0.6-0.4
				C167.3,115,167.2,114.6,167.2,114z M170.3,101.9c-0.1-0.4-0.1-0.5,0-0.5c0.2,0,0.4-0.2,0.6-0.5c0.2-0.3,0.3-0.6,0.3-0.9
				c0-0.1,0-0.2,0.1-0.2c0.1-0.1,0.1-0.1,0.2-0.1c0.2-0.1,0.3-0.2,0.4-0.2c0.4,0,0.7,0.2,1,0.7c0.1,0.3,0.2,0.5,0.2,0.7
				c0,0.2-0.1,0.4-0.2,0.6c-0.1,0.2-0.3,0.4-0.6,0.8c-0.4,0.5-0.7,0.7-1,0.7c-0.2,0-0.4-0.1-0.7-0.3
				C170.5,102.5,170.4,102.3,170.3,101.9z"/>
			<path class="st0" d="M173.9,115.7c-0.4-0.3-0.6-0.5-0.7-0.7c0,0,0-0.1,0-0.2c0-0.1,0-0.2,0.1-0.2c0.1,0,0.2,0,0.3,0
				c0.4,0,0.9,0,1.7,0.1c0.5,0,1-0.1,1.5-0.2c0.6-0.1,0.9-0.2,1-0.4c0.1,0,0.1,0,0.1,0c0,0-0.1-0.1-0.2-0.3c0,0-0.1,0-0.3-0.1
				c-0.1-0.1-0.2-0.1-0.3-0.1c0-0.1-0.1-0.2-0.3-0.3c-0.2-0.1-0.4-0.3-0.6-0.4c-0.6-0.5-1-0.9-1.3-1.1c-0.2-0.2-0.3-0.4-0.3-0.5
				v-0.2c-0.1,0-0.3-0.2-0.5-0.6c-0.2-0.4-0.3-0.8-0.3-1.1c0-0.4,0.2-0.9,0.5-1.6c0.3-0.7,0.7-1.2,1.1-1.6c0.6-0.5,1.3-1.1,2.2-1.7
				c0.9-0.6,1.6-1,2.2-1.1c0.4-0.1,0.7-0.2,1.1-0.2c0.3,0,0.6,0.1,0.8,0.2c0.3,0.2,0.5,0.4,0.8,0.7c0.3,0.3,0.4,0.6,0.5,0.8
				c0,0.5,0,0.9-0.1,1.3c-0.1,0.4-0.2,0.6-0.4,0.6c0,0-0.1,0-0.1,0s-0.1,0.1-0.1,0.2c0,0.1,0,0.2-0.1,0.3s-0.2,0.3-0.3,0.4
				c-0.5,0.3-0.8,0.5-1.1,0.5c-0.2,0-0.4-0.1-0.4-0.3c0,0-0.1-0.1-0.1-0.2s-0.1-0.1-0.2-0.1c0,0-0.1,0-0.1-0.1
				c-0.1-0.1-0.1-0.2-0.1-0.3c0-0.1,0-0.1,0.1-0.2c0.1-0.1,0.1-0.1,0.1-0.1c0.1,0,0.3-0.2,0.6-0.7c0.3-0.5,0.4-0.8,0.4-1
				c0-0.1,0-0.2,0-0.2c0,0-0.1,0-0.3,0c-1.6,0.7-2.6,1.3-3,1.6c-0.1,0.1-0.1,0.2-0.1,0.2c0,0-0.1,0.1-0.2,0.1c0-0.2-0.5,0.5-1.6,2.1
				c0,0-0.1,0.2-0.1,0.4c-0.1,0.2-0.1,0.4-0.1,0.5c0,0.2-0.1,0.3-0.1,0.3c0,0.1,0,0.2,0.1,0.2s0.2,0.2,0.3,0.3
				c0.1,0.1,0.2,0.2,0.4,0.3c1.1,0.8,1.8,1.4,2.2,1.8c0.4,0.4,0.7,0.7,0.8,1c0.3,0.4,0.4,0.8,0.4,1.1c0,0.2-0.1,0.5-0.3,0.7
				c-0.2,0.2-0.5,0.4-0.8,0.5c-0.2,0.1-0.6,0.2-1.1,0.3c-0.5,0.1-1.1,0.1-1.6,0.1c-0.3,0-0.6,0-0.9-0.1
				C174.6,116.2,174.3,116,173.9,115.7z"/>
			<path class="st0" d="M183.6,114c0-0.3,0.1-0.5,0.2-0.7c0-0.1,0-0.2,0.1-0.4c0-0.1,0.1-0.2,0.1-0.3c0-0.1,0.1-0.5,0.2-1
				c0.4-0.8,0.9-2.3,1.5-4.4c0-0.1,0-0.2,0.1-0.3c0.1-0.1,0.2-0.1,0.4-0.1c0.2,0,0.3-0.1,0.3-0.1c0.1,0,0.2,0,0.3,0.1
				c0.1,0.1,0.2,0.3,0.4,0.5c0.1,0.1,0.2,0.3,0.2,0.6c0,0.4-0.1,0.9-0.4,1.4c-0.3,0.6-0.4,1.1-0.5,1.6c-0.2,0.6-0.4,1.1-0.6,1.5
				c0,0.1-0.1,0.4-0.2,0.7c-0.1,0.4-0.2,0.7-0.3,0.9c-0.1,0.6-0.2,1-0.3,1.2c-0.1,0.2-0.2,0.3-0.3,0.3c-0.1,0-0.3-0.1-0.6-0.4
				C183.7,115,183.6,114.6,183.6,114z M186.6,101.9c-0.1-0.4-0.1-0.5,0-0.5c0.2,0,0.4-0.2,0.6-0.5c0.2-0.3,0.3-0.6,0.3-0.9
				c0-0.1,0-0.2,0.1-0.2c0.1-0.1,0.1-0.1,0.2-0.1c0.2-0.1,0.3-0.2,0.4-0.2c0.3,0,0.7,0.2,1,0.7c0.1,0.3,0.2,0.5,0.2,0.7
				c0,0.2-0.1,0.4-0.2,0.6c-0.1,0.2-0.3,0.4-0.6,0.8c-0.4,0.5-0.7,0.7-1,0.7c-0.2,0-0.4-0.1-0.7-0.3
				C186.9,102.5,186.7,102.3,186.6,101.9z"/>
			<path class="st0" d="M191,115.7c-0.1-0.1-0.4-0.2-0.6-0.5c-0.7-0.7-1-1.4-1-2c0-0.1,0-0.2,0-0.3c0.1-0.1,0.1-0.3,0.1-0.4
				c0-0.1,0-0.2,0-0.3c-0.1-0.1-0.1-0.1-0.1-0.2c0,0,0-0.1,0.1-0.1c0,0,0.1-0.1,0.1-0.1c0.1,0,0.2-0.1,0.1-0.3c0-0.2,0-0.5,0.2-1.1
				c0.2-0.6,0.5-1.1,0.8-1.6c0.2-0.4,0.6-0.8,1-1.4c0.4-0.6,0.8-1,1.2-1.3c0.5-0.4,0.9-0.8,1.3-1s0.8-0.4,1.3-0.5
				c0.4-0.1,0.7-0.2,0.8-0.2s0.3,0,0.4,0.1c0.1,0.1,0.3,0.2,0.4,0.4c0.6,0.2,0.9,0.6,1.2,0.9c0.2,0.4,0.3,1,0.3,1.8
				c0,1.3-0.5,2.8-1.6,4.4c-0.5,0.7-0.9,1.2-1.3,1.6c-0.4,0.4-1,0.7-1.6,1.2c-0.4,0.3-0.8,0.5-1.2,0.7c-0.4,0.1-0.8,0.2-1.2,0.2
				C191.4,115.8,191.2,115.8,191,115.7z M195.8,110.9c0.3-0.5,0.6-1.1,0.9-1.9c0.1-0.4,0.2-0.8,0.2-1.3c0-0.6-0.1-1-0.2-1.1
				c-0.2-0.1-0.4-0.2-0.6-0.2c-0.5,0-0.9,0.2-1.4,0.6c-0.6,0.5-1.1,1.2-1.6,1.9c-0.5,0.8-1,1.7-1.5,2.8c-0.2,0.4-0.3,0.9-0.3,1.3
				c0,0.3,0.1,0.6,0.2,0.7c0.2,0.2,0.4,0.3,0.6,0.3c0.7,0,1.6-0.6,2.6-1.7C195.1,112,195.5,111.4,195.8,110.9z M196.8,101.9
				c-0.1-0.3-0.1-0.5-0.1-0.6c0-0.2,0.5-0.7,1.3-1.6c0.8-0.9,1.4-1.4,1.7-1.5c0.1-0.1,0.2-0.1,0.3-0.1c0.3,0,0.6,0.3,1,1
				c0.1,0.2,0,0.4-0.3,0.7c-0.3,0.3-0.7,0.7-1.3,1.2c-0.7,0.6-1.1,1-1.3,1.2c-0.1,0.2-0.2,0.3-0.3,0.4s-0.2,0.2-0.3,0.2
				s-0.2-0.1-0.4-0.2C196.9,102.4,196.8,102.2,196.8,101.9z"/>
			<path class="st0" d="M210.4,114.6c-0.3-0.2-0.5-0.5-0.7-0.9c-0.2-0.7-0.3-1.3-0.3-2c0-0.3,0-0.5,0.1-0.7c0.1-0.1,0.1-0.3,0.1-0.5
				s0-0.5,0-0.6c0-0.5-0.2-0.7-0.4-0.7c-0.2,0-0.4,0.1-0.6,0.2c-1.2,0.7-2.1,1.3-2.9,1.9c-0.8,0.5-1.5,1.1-2.3,1.7
				c-0.3,0.3-0.5,0.6-0.7,0.9c-0.1,0.2-0.2,0.4-0.3,0.5s-0.1,0.1-0.2,0.1c-0.1,0-0.2,0.1-0.2,0.1c-0.1,0-0.2-0.1-0.4-0.2
				c-0.1-0.1-0.2-0.2-0.3-0.2c-0.1-0.1-0.2-0.2-0.4-0.4c-0.2-0.2-0.3-0.3-0.3-0.4c0-0.2,0.1-0.5,0.2-1.1c0.1-0.6,0.2-1,0.3-1.1
				c0.1,0,0.2-0.1,0.3-0.4c0.1-0.3,0.2-0.5,0.3-0.6c0.1-0.3,0.3-1,0.8-2.1c0.3-0.5,0.5-0.9,0.6-1.2c0.1-0.3,0.2-0.7,0.2-1.2v-0.1
				c0-0.1,0-0.1,0.1-0.2c0.1-0.1,0.1-0.1,0.2-0.1c0.1-0.1,0.3-0.2,0.4-0.2c0.3,0,0.5,0.2,0.8,0.5c0.3,0.4,0.5,0.8,0.5,1.2
				c0,0.5-0.3,1.4-1,2.5c-0.1,0.1-0.2,0.4-0.3,0.6c-0.1,0.3-0.2,0.5-0.2,0.6l1.7-1.2c0.2-0.2,0.6-0.5,1.3-1s1.2-0.7,1.5-0.8
				c0.5-0.2,0.8-0.3,0.9-0.3c0.2,0,0.6,0.2,1,0.6s0.7,0.7,0.8,0.9c0,0.2,0,0.4,0.1,0.5c0.1,0.4,0.2,0.9,0.2,1.5c0,0.4,0,0.7-0.1,1
				c-0.1,0.3-0.1,0.5-0.2,0.5c0,0,0,0.1,0,0.1c0,0,0.1,0.1,0.1,0.1v0.2c-0.2,0-0.2,0.2-0.1,0.5c0.1,0.4,0.3,0.6,0.5,0.8
				c0.2,0.2,0.3,0.4,0.3,0.6c0,0.2-0.2,0.4-0.6,0.5C211,114.8,210.6,114.7,210.4,114.6z"/>
		</g>
	</g>
	<g>
		<g>
			<path class="st0" d="M289.6,124c-0.1-0.1-0.4-0.2-0.6-0.5c-0.7-0.7-1-1.4-1-2c0-0.1,0-0.2,0-0.3c0.1-0.1,0.1-0.3,0.1-0.4
				c0-0.1,0-0.2,0-0.3c-0.1-0.1-0.1-0.1-0.1-0.2c0,0,0-0.1,0.1-0.1c0,0,0.1-0.1,0.1-0.1c0.1,0,0.2-0.1,0.1-0.3c0-0.2,0-0.5,0.2-1.1
				c0.2-0.6,0.5-1.1,0.8-1.6c0.2-0.4,0.6-0.8,1-1.4s0.8-1,1.2-1.3c0.5-0.4,0.9-0.8,1.3-1s0.8-0.4,1.3-0.5c0.4-0.1,0.7-0.2,0.8-0.2
				s0.3,0,0.4,0.1c0.1,0.1,0.3,0.2,0.4,0.4c0.6,0.2,0.9,0.6,1.2,0.9c0.2,0.4,0.3,1,0.3,1.8c0,1.3-0.5,2.8-1.6,4.4
				c-0.5,0.7-0.9,1.2-1.3,1.6c-0.4,0.4-1,0.7-1.6,1.2c-0.4,0.3-0.8,0.5-1.2,0.7c-0.4,0.1-0.8,0.2-1.2,0.2
				C289.9,124.1,289.7,124,289.6,124z M294.3,119.2c0.3-0.5,0.6-1.1,0.9-1.9c0.1-0.4,0.2-0.8,0.2-1.3c0-0.6-0.1-1-0.2-1.1
				c-0.2-0.1-0.4-0.2-0.6-0.2c-0.5,0-0.9,0.2-1.4,0.6c-0.6,0.5-1.1,1.2-1.6,1.9s-1,1.7-1.5,2.8c-0.2,0.4-0.3,0.9-0.3,1.3
				c0,0.3,0.1,0.6,0.2,0.7s0.4,0.3,0.6,0.3c0.7,0,1.5-0.6,2.6-1.7C293.6,120.2,294,119.7,294.3,119.2z"/>
			<path class="st0" d="M301.6,123.9c-0.1-0.1-0.2-0.2-0.3-0.5c-0.2-0.2-0.3-0.3-0.3-0.4c0-0.1,0-0.2,0-0.3c0.2,0,0.4,0,0.4-0.1
				c0-0.1,0-0.1,0.1-0.1c0.1,0,0.1,0,0.2,0c0.6,0,1.4-0.2,2.4-0.9c1.1-0.6,2.1-1.4,3.2-2.4c0.6-0.8,1-1.4,1.3-1.8
				c0.2-0.4,0.4-0.8,0.4-1.1c0-0.2,0-0.3-0.1-0.5c-0.1-0.1-0.3-0.2-0.7-0.2c-0.6,0-1.3,0.2-2,0.7c-0.9,0.6-1.6,1.1-2.1,1.5
				c-0.5,0.5-1,1-1.5,1.6c-0.2,0.3-0.4,0.6-0.6,1c-0.2,0.4-0.3,0.7-0.4,0.8c0,0.1-0.1,0.2-0.4,0.3c-0.2,0.1-0.4,0.2-0.6,0.2
				c-0.1,0-0.2-0.1-0.4-0.2c-0.1-0.1-0.2-0.3-0.2-0.4c0,0-0.1-0.1-0.2-0.2s-0.2-0.1-0.2-0.2c0-0.1,0-0.1,0-0.2
				c0-0.1,0.1-0.4,0.2-0.8c0.1-0.4,0.2-0.7,0.3-0.9c0.2-0.8,0.4-1.6,0.6-2.4c0.3-0.8,0.4-1.3,0.5-1.4c0,0,0.1-0.2,0.1-0.3
				c0.1-0.2,0.1-0.4,0.1-0.6c0-0.2,0.1-0.4,0.2-0.6c0.1-0.2,0.1-0.4,0.1-0.4c0.1-0.1,0.4-0.9,1-2.4c0-0.1,0.2-0.6,0.7-1.6
				c0.7-1.6,1.1-2.5,1.2-3c0.2-0.3,0.4-0.5,0.5-0.8c0.2-0.4,0.4-0.6,0.5-0.7c0.2,0,0.4,0,0.6,0.1c0.3,0.1,0.5,0.3,0.6,0.5
				c0.1,0.1,0.2,0.2,0.2,0.3c0,0.1-0.1,0.3-0.2,0.6c-0.1,0.3-0.2,0.6-0.4,0.9c-0.1,0.3-0.2,0.5-0.3,0.7l-0.8,1.6
				c-0.6,1.2-1,2.2-1.4,3.1s-0.7,2-1.1,3.1l-0.6,1.5l-0.2,0.7l0.8-0.7c0.2-0.2,0.7-0.6,1.4-1.1c0.1-0.1,0.3-0.2,0.4-0.3
				c0.1-0.1,0.2-0.2,0.3-0.2c0.2-0.2,0.6-0.4,1.1-0.6c0.5-0.2,0.8-0.3,1-0.4c0.4-0.1,0.9-0.2,1.4-0.2c0.4,0,0.8,0.1,1.1,0.3
				c0.3,0.2,0.6,0.5,0.8,1c0.2,0.4,0.3,0.8,0.3,1.2c0,0.6-0.2,1.2-0.5,1.8c-0.1,0.1-0.2,0.2-0.3,0.3c-0.1,0.1-0.2,0.2-0.2,0.3
				c0,0.1-0.2,0.4-0.5,0.8c-0.3,0.4-0.7,0.9-1.1,1.3c-0.5,0.6-1.2,1.1-2.1,1.7c-0.9,0.6-1.6,0.9-2.2,1.1c-0.1,0-0.4,0.1-0.7,0.1
				c-0.3,0.1-0.6,0.1-0.7,0.1C302,124,301.7,123.9,301.6,123.9z"/>
			<path class="st0" d="M309.4,131.2c-0.7,0-1.4-0.3-1.9-0.8c-0.2-0.4-0.4-0.7-0.6-1.2s-0.2-0.8-0.2-1.2c0-0.4,0.1-0.6,0.3-0.6
				c0.1,0,0.3,0.1,0.4,0.2s0.2,0.3,0.2,0.6c0,0.3,0.1,0.6,0.2,0.9c0.2,0.2,0.4,0.4,0.6,0.4c0.2,0.1,0.5,0,0.9-0.2
				c0.4-0.2,0.7-0.5,0.9-0.9c0.3-0.4,0.7-1.1,1.2-2.1s0.9-1.9,1.1-2.5c0.2-0.9,0.6-2.4,1.1-4.7l0.2-0.7c0.1-0.5,0.1-0.9,0.3-1.4
				c0.1-0.4,0.2-0.7,0.2-0.8c0-0.5,0.1-0.9,0.2-1.2c0-0.3,0-0.5,0.1-0.8c0.1-0.3,0.1-0.4,0.1-0.5c0,0,0.1-0.1,0.2-0.1
				c0.1,0,0.3,0,0.4,0.1c0.2,0.1,0.3,0.2,0.4,0.3c0.2,0.2,0.3,0.3,0.3,0.4c0,0.1,0.1,0.2,0.1,0.4c0,0.3,0,0.7-0.1,1.2l-0.1,1
				c0,0.2-0.1,0.9-0.3,1.9c-0.2,1-0.4,1.9-0.6,2.6c-0.1,0.4-0.2,0.7-0.2,0.8c-0.1,0.4-0.2,0.8-0.2,1c0,0.2-0.2,0.6-0.4,1.3
				c-0.2,0.6-0.4,1-0.4,1.3c-0.1,0.4-0.3,1.1-0.7,2c-0.2,0.4-0.5,0.9-0.9,1.5s-0.8,1-1,1.3C310.6,131,310.1,131.2,309.4,131.2z
				 M315.7,108.7c0-0.5,0.2-1.1,0.7-1.6c0.3-0.4,0.6-0.5,1-0.5c0.2,0,0.5,0.1,0.7,0.3c0.2,0.4,0.3,0.6,0.3,0.9
				c0,0.2-0.1,0.5-0.3,0.8c-0.4,0.4-0.7,0.7-0.9,0.9c-0.2,0.2-0.5,0.3-0.7,0.3c-0.2,0-0.4-0.1-0.5-0.2
				C315.8,109.3,315.7,109,315.7,108.7z"/>
			<path class="st0" d="M322.2,124.1c-0.5,0-1-0.1-1.5-0.4s-0.9-0.6-1.2-1c-0.3-0.3-0.5-0.7-0.6-1.1c-0.1-0.4-0.2-0.9-0.2-1.5
				c0-0.2,0-0.6,0.1-1.2c0.1-0.8,0.3-1.6,0.8-2.4c0.4-0.8,1-1.6,1.7-2.2c0.7-0.7,1.3-1.1,2-1.3c0.3-0.2,0.6-0.3,0.9-0.3
				c0.1,0,0.3,0,0.4,0s0.3,0,0.5,0.1c0.5,0.1,0.8,0.1,1,0.3c0.2,0.1,0.4,0.3,0.6,0.5c0.5,0.5,0.8,1.1,0.8,1.8
				c-0.1,0.5-0.4,1.1-1,1.7c-0.6,0.6-1.2,1.2-2,1.5c-0.4,0.1-0.8,0.2-1.3,0.2c-0.6,0-1.2-0.1-1.6-0.4c-0.2-0.1-0.3-0.1-0.4-0.1
				c-0.2,0-0.3,0.1-0.4,0.4c-0.1,0.2-0.2,0.7-0.3,1.4c0,0.1,0,0.4,0,0.6c0,1.1,0.4,1.6,1.1,1.7c0.5,0.1,0.8,0.2,1,0.2
				c0.2,0,0.5-0.1,0.8-0.2l0.6-0.3c0.1-0.1,0.2-0.1,0.3-0.2c0.1-0.1,0.2-0.2,0.3-0.3c0,0,0.1-0.1,0.2-0.2c0.1-0.1,0.2-0.2,0.2-0.2
				c0.1,0,0.1,0,0.2,0c0.1,0,0.2,0,0.3,0.1c0.1,0.1,0.2,0.2,0.2,0.2c0.2,0,0.2,0.1,0.1,0.4c-0.1,0.3-0.3,0.6-0.7,0.9
				s-0.7,0.6-1.2,0.9C323.6,123.9,322.9,124.1,322.2,124.1z M325.1,116.1c0.4-0.4,0.5-0.7,0.5-0.9s-0.1-0.5-0.3-0.6
				c-0.2-0.2-0.4-0.2-0.8-0.2c-0.2,0-0.4,0-0.6,0.1c-0.3,0.1-0.6,0.3-1,0.7c-0.4,0.4-0.7,0.7-1,1.1c-0.3,0.4-0.4,0.6-0.3,0.7
				c0.1,0.2,0.5,0.3,1.2,0.3c0.5,0,0.9-0.1,1.2-0.2C324.4,116.7,324.7,116.5,325.1,116.1z"/>
			<path class="st0" d="M330.1,123.7c-0.3-0.4-0.6-0.7-0.7-1.1c0,0,0-0.1-0.1-0.1c0-0.1-0.1-0.1-0.1-0.1c-0.1-0.1-0.1-0.4-0.1-1
				c0-0.5,0-1,0.1-1.5c0.1-0.5,0.1-1,0.2-1.3l0.6-1.6l0.4-1.2l0.8-1.8l-1.2-0.3c-0.1,0-0.3-0.1-0.4-0.2s-0.1-0.2-0.1-0.3
				c0-0.2,0.1-0.4,0.3-0.6c0.2-0.2,0.3-0.4,0.4-0.4c0.1,0,0.2,0,0.5,0c0.6,0,1.1,0,1.4-0.1c0.2-0.1,0.4-0.2,0.4-0.5
				c0.1-0.2,0.2-0.4,0.3-0.6c0.1-0.2,0.2-0.5,0.3-0.7c0.1-0.1,0.2-0.3,0.3-0.6c0.1-0.3,0.3-0.6,0.5-0.9c0-0.1,0.1-0.2,0.3-0.4
				c0.1-0.2,0.3-0.4,0.5-0.6c0.1-0.1,0.3-0.2,0.5-0.2c0.2,0,0.5,0.1,0.8,0.4c0,0.1,0.1,0.1,0.2,0.2c0.1,0.1,0.1,0.2,0.1,0.3
				s-0.1,0.3-0.2,0.5c-0.1,0.2-0.2,0.5-0.4,0.7c-0.1,0.2-0.2,0.4-0.3,0.5c-0.2,0.4-0.4,0.7-0.5,0.9c-0.2,0.3-0.3,0.5-0.3,0.6
				c0,0.1,0.1,0.2,0.4,0.2c0.3,0,0.8-0.1,1.5-0.2c0.3,0,0.5-0.1,0.6-0.1c0.7,0,1.1,0.3,1.2,0.9c0,0.1,0,0.3,0,0.4
				c0,0.3-0.1,0.5-0.3,0.5s-0.6,0.1-1.3,0.1c-0.7,0.1-1.3,0.2-2,0.2c-0.1,0-0.3,0-0.4,0c-0.2,0-0.3,0-0.5,0.1
				c-0.2,0-0.3,0.1-0.4,0.2c-0.1,0.1-0.1,0.2-0.2,0.4c-0.1,0.1-0.2,0.3-0.4,0.7c-0.3,0.6-0.5,1-0.6,1.1c-0.6,1.7-1,3.3-1.2,5.1
				c0,0.3-0.1,0.5-0.1,0.6c0,0.3,0.1,0.5,0.3,0.7c0.2,0.1,0.6,0.2,1.1,0.2c0.7,0,1.3-0.1,1.8-0.2c0.6-0.3,1.1-0.5,1.4-0.7
				c0.2-0.1,0.4-0.2,0.5-0.3c0.2-0.1,0.3-0.2,0.3-0.2c0.1-0.1,0.1-0.2,0.2-0.2c0.2,0,0.3,0.2,0.4,0.5c0,0.3-0.1,0.6-0.2,0.9
				s-0.5,0.5-1.1,0.9c-1.2,0.8-2.4,1.1-3.6,1.1c-0.3,0-0.6,0-0.9-0.1C330.8,124.3,330.5,124,330.1,123.7z"/>
			<path class="st0" d="M339,122.3c0-0.3,0.1-0.5,0.2-0.7c0-0.1,0-0.2,0.1-0.4c0-0.1,0.1-0.2,0.1-0.3c0-0.1,0.1-0.5,0.2-1
				c0.4-0.8,0.9-2.3,1.5-4.4c0-0.1,0-0.2,0.1-0.3c0.1-0.1,0.2-0.1,0.4-0.1c0.2,0,0.3-0.1,0.3-0.1c0.1,0,0.2,0,0.3,0.1
				c0.1,0.1,0.2,0.3,0.4,0.5c0.1,0.1,0.2,0.3,0.2,0.6c0,0.4-0.1,0.9-0.4,1.4c-0.3,0.6-0.4,1.1-0.5,1.6c-0.2,0.6-0.4,1.1-0.6,1.5
				c0,0.1-0.1,0.4-0.2,0.7s-0.2,0.7-0.3,0.9c-0.1,0.6-0.2,1-0.3,1.2c-0.1,0.2-0.2,0.3-0.3,0.3c-0.1,0-0.3-0.1-0.6-0.4
				C339.2,123.3,339,122.9,339,122.3z M342.1,110.2c-0.1-0.4-0.1-0.5,0-0.5c0.2,0,0.4-0.2,0.6-0.5c0.2-0.3,0.3-0.6,0.3-0.9
				c0-0.1,0-0.2,0.1-0.2c0.1-0.1,0.1-0.1,0.2-0.1c0.2-0.1,0.3-0.2,0.4-0.2c0.4,0,0.7,0.2,1,0.7c0.1,0.3,0.2,0.5,0.2,0.7
				c0,0.2-0.1,0.4-0.2,0.6c-0.1,0.2-0.3,0.4-0.6,0.8c-0.4,0.5-0.7,0.7-1,0.7c-0.2,0-0.4-0.1-0.7-0.3
				C342.3,110.8,342.2,110.6,342.1,110.2z"/>
			<path class="st0" d="M346.9,120.6c-0.3-1.2-0.6-2.4-0.8-3.5c-0.1-0.4-0.2-1-0.5-1.8c-0.1-0.3-0.1-0.6-0.1-0.7
				c0-0.4,0.2-0.7,0.5-0.8c0.1-0.1,0.2-0.1,0.4-0.1c0.2,0,0.3,0,0.4,0c0.5,0.2,0.9,1.4,1.2,3.8c0.1,0.6,0.2,1.1,0.3,1.6
				s0.2,0.8,0.2,0.8c0.1,0.1,0.1,0.3,0.2,0.4c0.1,0.1,0.2,0.2,0.3,0.2c0.1,0,0.1,0,0.2-0.1c0.4-0.4,0.8-0.9,1.3-1.5
				c0.5-0.7,0.8-1.1,1-1.4c0.2-0.4,0.5-0.8,0.9-1.2c0.1-0.1,0.2-0.3,0.4-0.6c0.2-0.3,0.4-0.6,0.7-0.8c0.2-0.2,0.4-0.3,0.5-0.4
				c0.1,0,0.2,0,0.3,0c0.4,0,0.5,0.1,0.5,0.4c0,0.3-0.2,0.7-0.6,1.2c-0.1,0.2-0.3,0.4-0.4,0.7c-0.1,0.3-0.2,0.4-0.3,0.5
				c-0.2,0.5-0.6,1.1-1.3,1.9c-0.6,0.8-1,1.3-1.2,1.5c0,0-0.2,0.2-0.5,0.4s-0.6,0.5-0.8,0.9c-0.7,0.6-1.1,0.9-1.4,0.9
				c-0.2,0-0.4-0.1-0.6-0.3C347.6,122.5,347.3,121.8,346.9,120.6z"/>
			<path class="st0" d="M357,124c-0.1-0.1-0.4-0.2-0.6-0.5c-0.7-0.7-1-1.4-1-2c0-0.1,0-0.2,0-0.3c0.1-0.1,0.1-0.3,0.1-0.4
				c0-0.1,0-0.2,0-0.3c-0.1-0.1-0.1-0.1-0.1-0.2c0,0,0-0.1,0.1-0.1c0,0,0.1-0.1,0.1-0.1c0.1,0,0.2-0.1,0.1-0.3c0-0.2,0-0.5,0.2-1.1
				c0.2-0.6,0.5-1.1,0.8-1.6c0.2-0.4,0.6-0.8,1-1.4s0.8-1,1.2-1.3c0.5-0.4,0.9-0.8,1.3-1s0.8-0.4,1.3-0.5c0.4-0.1,0.7-0.2,0.8-0.2
				s0.3,0,0.4,0.1c0.1,0.1,0.3,0.2,0.4,0.4c0.6,0.2,0.9,0.6,1.2,0.9c0.2,0.4,0.3,1,0.3,1.8c0,1.3-0.5,2.8-1.6,4.4
				c-0.5,0.7-0.9,1.2-1.3,1.6c-0.4,0.4-1,0.7-1.6,1.2c-0.4,0.3-0.8,0.5-1.2,0.7c-0.4,0.1-0.8,0.2-1.2,0.2
				C357.4,124.1,357.2,124,357,124z M361.8,119.2c0.3-0.5,0.6-1.1,0.9-1.9c0.1-0.4,0.2-0.8,0.2-1.3c0-0.6-0.1-1-0.2-1.1
				c-0.2-0.1-0.4-0.2-0.6-0.2c-0.5,0-0.9,0.2-1.4,0.6c-0.6,0.5-1.1,1.2-1.6,1.9s-1,1.7-1.5,2.8c-0.2,0.4-0.3,0.9-0.3,1.3
				c0,0.3,0.1,0.6,0.2,0.7s0.4,0.3,0.6,0.3c0.7,0,1.5-0.6,2.6-1.7C361.1,120.2,361.5,119.7,361.8,119.2z"/>
			<path class="st0" d="M367.2,124c-0.4-0.3-0.6-0.5-0.7-0.7c0,0,0-0.1,0-0.2c0-0.1,0-0.2,0.1-0.2c0.1,0,0.2,0,0.3,0
				c0.4,0,0.9,0,1.7,0.1c0.5,0,1-0.1,1.5-0.2c0.6-0.1,0.9-0.2,1-0.4c0.1,0,0.1,0,0.1,0c0,0-0.1-0.1-0.2-0.3c0,0-0.1,0-0.3-0.1
				c-0.1-0.1-0.2-0.1-0.3-0.1c0-0.1-0.1-0.2-0.3-0.3c-0.2-0.1-0.4-0.3-0.6-0.4c-0.6-0.5-1-0.9-1.3-1.1c-0.2-0.2-0.3-0.4-0.3-0.5
				v-0.2c-0.1,0-0.3-0.2-0.5-0.6c-0.2-0.4-0.3-0.8-0.3-1.1c0-0.4,0.2-0.9,0.5-1.6c0.3-0.7,0.7-1.2,1.1-1.6c0.6-0.5,1.3-1.1,2.2-1.7
				c0.9-0.6,1.6-1,2.2-1.1c0.4-0.1,0.7-0.2,1.1-0.2c0.3,0,0.6,0.1,0.8,0.2c0.3,0.2,0.5,0.4,0.8,0.7c0.3,0.3,0.4,0.6,0.5,0.8
				c0,0.5,0,0.9-0.1,1.3c-0.1,0.4-0.2,0.6-0.4,0.6c0,0-0.1,0-0.1,0c0,0-0.1,0.1-0.1,0.2c0,0.1,0,0.2-0.1,0.3
				c-0.1,0.1-0.2,0.3-0.3,0.4c-0.5,0.3-0.8,0.5-1.1,0.5c-0.2,0-0.4-0.1-0.4-0.3c0,0-0.1-0.1-0.1-0.2s-0.1-0.1-0.2-0.1
				c0,0-0.1,0-0.1-0.1s-0.1-0.2-0.1-0.3c0-0.1,0-0.1,0.1-0.2c0.1-0.1,0.1-0.1,0.1-0.1c0.1,0,0.3-0.2,0.6-0.7c0.3-0.5,0.4-0.8,0.4-1
				c0-0.1,0-0.2,0-0.2c0,0-0.1,0-0.3,0c-1.6,0.7-2.6,1.3-3,1.6c-0.1,0.1-0.1,0.2-0.1,0.2c0,0-0.1,0.1-0.2,0.1c0-0.2-0.5,0.5-1.6,2.1
				c0,0-0.1,0.2-0.1,0.4c-0.1,0.2-0.1,0.4-0.1,0.5c0,0.2-0.1,0.3-0.1,0.3c0,0.1,0,0.2,0.1,0.2s0.2,0.2,0.3,0.3
				c0.1,0.1,0.2,0.2,0.4,0.3c1.1,0.8,1.8,1.4,2.2,1.8c0.4,0.4,0.7,0.7,0.8,1c0.3,0.4,0.4,0.8,0.4,1.1c0,0.2-0.1,0.5-0.3,0.7
				c-0.2,0.2-0.5,0.4-0.8,0.5c-0.2,0.1-0.6,0.2-1.1,0.3c-0.5,0.1-1.1,0.1-1.6,0.1c-0.3,0-0.6,0-0.9-0.1
				C367.9,124.5,367.6,124.3,367.2,124z"/>
		</g>
	</g>
	<g>
		<g>
			<path class="st0" d="M424.3,234.5c-0.3-1.2-0.6-2.4-0.8-3.5c-0.1-0.4-0.2-1-0.5-1.8c-0.1-0.3-0.1-0.6-0.1-0.7
				c0-0.4,0.2-0.7,0.5-0.8c0.1-0.1,0.2-0.1,0.4-0.1c0.2,0,0.3,0,0.4,0c0.5,0.2,0.9,1.4,1.2,3.8c0.1,0.6,0.2,1.1,0.3,1.6
				s0.2,0.8,0.2,0.8c0.1,0.1,0.1,0.3,0.2,0.4c0.1,0.1,0.2,0.2,0.3,0.2c0.1,0,0.1,0,0.2-0.1c0.4-0.4,0.8-0.9,1.3-1.5
				c0.5-0.7,0.8-1.1,1-1.4c0.2-0.4,0.5-0.8,0.9-1.2c0.1-0.1,0.2-0.3,0.4-0.6c0.2-0.3,0.4-0.6,0.7-0.8c0.2-0.2,0.4-0.3,0.5-0.4
				c0.1,0,0.2,0,0.3,0c0.4,0,0.5,0.1,0.5,0.4c0,0.3-0.2,0.7-0.6,1.2c-0.1,0.2-0.3,0.4-0.4,0.7c-0.1,0.3-0.2,0.4-0.3,0.5
				c-0.2,0.5-0.6,1.1-1.3,1.9c-0.6,0.8-1,1.3-1.2,1.5c0,0-0.2,0.2-0.5,0.4s-0.6,0.5-0.8,0.9c-0.7,0.6-1.1,0.9-1.4,0.9
				c-0.2,0-0.4-0.1-0.6-0.3C424.9,236.4,424.6,235.7,424.3,234.5z"/>
			<path class="st0" d="M432.4,237c-0.1-0.1-0.2-0.2-0.2-0.3c0-0.2-0.1-0.4-0.2-0.5c0,0-0.1-0.1-0.1-0.3c0-0.3,0.2-0.9,0.5-1.7
				c0.3-0.8,0.7-1.7,1.3-2.6c0.1-0.1,0.3-0.3,0.5-0.7s0.3-0.5,0.4-0.5c0-0.1,0-0.2,0.1-0.2c0.1-0.1,0.1-0.1,0.2-0.1v-0.2
				c0-0.2,0.3-0.6,1-1.3c0.7-0.7,1.2-1.2,1.7-1.5c0.5-0.4,1-0.5,1.6-0.5c0.4,0,0.7,0.1,1,0.3c0.1,0.1,0.6,0.6,1.4,1.3l1.1,1
				l-0.6,1.5c-0.2,0.6-0.3,1.1-0.3,1.5c0,0.8,0.2,1.5,0.7,2.3c0.1,0.2,0.3,0.4,0.6,0.7c0.3,0.2,0.6,0.3,0.9,0.4
				c0.5,0.1,0.7,0.3,0.7,0.7c0,0.4-0.2,0.7-0.6,0.7c-0.1,0-0.2,0-0.4,0c-1.2,0-2.3-0.9-3.2-2.6c-0.1-0.1-0.2-0.4-0.3-0.7
				c-0.1-0.3-0.2-0.6-0.2-0.7c-0.1,0.2-0.3,0.4-0.5,0.6c-0.2,0.2-0.4,0.4-0.5,0.6c-2.3,2.3-4,3.4-5.3,3.4c-0.4,0-0.8-0.1-1.1-0.3
				C432.7,237.2,432.6,237.1,432.4,237z M434.2,235.7c0.2,0,0.5-0.1,0.8-0.3s0.6-0.4,1-0.7c1.8-1.5,3.1-2.9,3.8-4l0.7-1.1
				c-0.2-0.4-0.4-0.7-0.7-0.9s-0.4-0.3-0.6-0.3c-0.4,0-1.1,0.5-2,1.6c-0.9,1.1-1.8,2.4-2.5,3.8c-0.2,0.4-0.4,0.7-0.5,1.1
				c-0.1,0.4-0.2,0.6-0.3,0.7C433.8,235.7,433.9,235.8,434.2,235.7z"/>
			<path class="st0" d="M446.7,238.5c-0.3,0-0.6-0.2-0.8-0.5c-0.2-0.3-0.3-0.8-0.3-1.4c0-0.5,0.1-1,0.2-1.6c0.2-0.6,0.3-1,0.3-1.3
				c0.1-0.4,0.3-1.1,0.6-2.1s0.6-1.6,0.7-1.8c0.1,0,0.2-0.1,0.2-0.2c0.1-0.1,0.1-0.3,0.1-0.4c0-0.2,0-0.4,0.1-0.6s0.1-0.3,0.2-0.4
				c0-0.1,0-0.2,0.1-0.3c0.1-0.2,0.1-0.3,0.1-0.3c0,0,0-0.1,0.1-0.2s0.1-0.2,0.1-0.3c0.3-0.6,0.9-2.1,1.7-4.3
				c0.8-2.2,1.2-3.5,1.2-3.7c0-0.3,0.2-0.5,0.5-0.5c0.1-0.1,0.3-0.2,0.5-0.2l0.5,0.5c0.1,0.1,0.2,0.3,0.3,0.4c0,0.2,0.1,0.4,0.1,0.7
				s0,0.6-0.1,0.8c-0.1,0.2-0.3,0.7-0.6,1.4c-0.1,0.1-0.1,0.3-0.2,0.5c-0.1,0.2-0.2,0.4-0.3,0.7c0,0.1-0.2,0.5-0.5,1.1
				c-0.2,0.4-0.3,0.7-0.3,0.7s0,0.2-0.1,0.4c-0.1,0.2-0.2,0.4-0.2,0.6c-0.2,0.3-0.4,0.9-0.8,1.8c-0.4,0.8-0.5,1.3-0.5,1.4
				c0,0.2-0.1,0.4-0.2,0.5c-0.1,0-0.1,0-0.1,0.1c0,0.1,0,0.2,0,0.2c0,0.2-0.2,0.8-0.5,1.6l-0.3,0.9c-0.4,1.3-0.7,2.3-0.8,2.9
				c-0.2,0.6-0.2,1.1-0.2,1.6c0,0.5,0,0.8,0,1c0,0.1-0.1,0.3-0.3,0.3C446.9,238.5,446.8,238.5,446.7,238.5z"/>
			<path class="st0" d="M452.8,237.9c-0.1-0.1-0.4-0.2-0.6-0.5c-0.7-0.7-1-1.4-1-2c0-0.1,0-0.2,0-0.3c0.1-0.1,0.1-0.3,0.1-0.4
				c0-0.1,0-0.2,0-0.3c-0.1-0.1-0.1-0.1-0.1-0.2c0,0,0-0.1,0.1-0.1c0,0,0.1-0.1,0.1-0.1c0.1,0,0.2-0.1,0.1-0.3c0-0.2,0-0.5,0.2-1.1
				c0.2-0.6,0.5-1.1,0.8-1.6c0.2-0.4,0.6-0.8,1-1.4s0.8-1,1.2-1.3c0.5-0.4,0.9-0.8,1.3-1s0.8-0.4,1.3-0.5c0.4-0.1,0.7-0.2,0.8-0.2
				s0.3,0,0.4,0.1c0.1,0.1,0.3,0.2,0.4,0.4c0.6,0.2,0.9,0.6,1.2,0.9c0.2,0.4,0.3,1,0.3,1.8c0,1.3-0.5,2.8-1.6,4.4
				c-0.5,0.7-0.9,1.2-1.3,1.6s-1,0.7-1.6,1.2c-0.4,0.3-0.8,0.5-1.2,0.7c-0.4,0.1-0.8,0.2-1.2,0.2C453.2,238,453,238,452.8,237.9z
				 M457.6,233.2c0.3-0.5,0.6-1.1,0.9-1.9c0.1-0.4,0.2-0.8,0.2-1.3c0-0.6-0.1-1-0.2-1.1c-0.2-0.1-0.4-0.2-0.6-0.2
				c-0.5,0-0.9,0.2-1.4,0.6c-0.6,0.5-1.1,1.2-1.6,1.9s-1,1.7-1.5,2.8c-0.2,0.4-0.3,0.9-0.3,1.3c0,0.3,0.1,0.6,0.2,0.7
				c0.2,0.2,0.4,0.3,0.6,0.3c0.7,0,1.5-0.6,2.6-1.7C456.9,234.2,457.3,233.7,457.6,233.2z"/>
			<path class="st0" d="M462.5,237.1c-0.1-0.1-0.1-0.3-0.1-0.5c0-0.2,0-0.3,0-0.5c0.1-0.7,0.2-1.5,0.5-2.4l0.2-0.6
				c0.1-0.5,0.4-1.6,1.1-3.3c0.7-1.7,1.2-2.8,1.6-3.4c0.2-0.1,0.3-0.2,0.5-0.2c0.3,0,0.5,0.1,0.7,0.3c0.1,0.1,0.2,0.2,0.2,0.5
				c0,0.2-0.1,0.5-0.2,0.9c-0.2,0.4-0.4,1-0.8,1.8c-0.1,0.2-0.2,0.5-0.4,0.9c-0.2,0.5-0.3,0.7-0.3,0.8c0,0,0,0.1,0,0.1
				c0,0,0.1,0,0.1,0c0,0,0.1-0.1,0.1-0.1c0.2-0.4,0.8-0.9,1.7-1.6c0.9-0.7,1.5-1.1,1.8-1.3c0.1-0.1,0.3-0.2,0.6-0.2
				c0.2-0.1,0.4-0.1,0.5-0.2c0.3-0.2,0.7-0.2,1.2-0.2c0.3,0,0.5,0,0.8,0.1c0.2,0.1,0.4,0.2,0.4,0.4c0,0.1,0.1,0.3,0.2,0.3
				c0.1,0.1,0.2,0.1,0.2,0.2c0.1,0,0.1,0,0.1,0.1c0,0.1,0,0.1,0,0.1c0,0.1-0.1,0.2-0.2,0.3c-0.2,0-0.5,0.1-0.9,0.1
				c-0.2,0-0.5,0.1-0.7,0.2c-0.2,0.1-0.5,0.2-0.7,0.3c-1.2,0.7-2,1.2-2.6,1.6c-0.6,0.4-1.1,0.9-1.7,1.5c-0.2,0.2-0.5,0.7-0.9,1.3
				c-0.1,0.1-0.3,0.5-0.4,1.1c-0.2,0.6-0.2,1-0.2,1.1c0,0.1-0.1,0.2-0.1,0.4c-0.1,0.2-0.2,0.3-0.3,0.5c-0.2,0.3-0.5,0.5-0.6,0.5
				c-0.2,0-0.4-0.2-0.7-0.5C462.7,237.3,462.5,237.2,462.5,237.1z"/>
			<path class="st0" d="M477,238.1c-0.5,0-1-0.1-1.5-0.4s-0.9-0.6-1.2-1c-0.3-0.3-0.5-0.7-0.6-1.1s-0.2-0.9-0.2-1.5
				c0-0.2,0-0.6,0.1-1.2c0.1-0.8,0.3-1.6,0.8-2.4c0.4-0.8,1-1.6,1.7-2.2c0.7-0.7,1.3-1.1,2-1.3c0.3-0.2,0.6-0.3,0.9-0.3
				c0.1,0,0.3,0,0.4,0s0.3,0,0.5,0.1c0.5,0.1,0.8,0.1,1,0.3c0.2,0.1,0.4,0.3,0.6,0.5c0.5,0.5,0.8,1.1,0.8,1.8
				c-0.1,0.5-0.4,1.1-1,1.7c-0.6,0.6-1.2,1.2-2,1.5c-0.4,0.1-0.8,0.2-1.3,0.2c-0.6,0-1.2-0.1-1.6-0.4c-0.2-0.1-0.3-0.1-0.4-0.1
				c-0.2,0-0.3,0.1-0.4,0.4c-0.1,0.2-0.2,0.7-0.3,1.4c0,0.1,0,0.4,0,0.6c0,1.1,0.4,1.6,1.1,1.7c0.5,0.1,0.8,0.2,1,0.2
				c0.2,0,0.5-0.1,0.8-0.2l0.6-0.3c0.1-0.1,0.2-0.1,0.3-0.2c0.1-0.1,0.2-0.2,0.3-0.3c0,0,0.1-0.1,0.2-0.2c0.1-0.1,0.2-0.2,0.2-0.2
				c0.1,0,0.1,0,0.2,0c0.1,0,0.2,0,0.3,0.1c0.1,0.1,0.2,0.2,0.2,0.2c0.2,0,0.2,0.1,0.1,0.4c-0.1,0.3-0.3,0.6-0.7,0.9
				c-0.3,0.3-0.7,0.6-1.2,0.9C478.3,237.9,477.7,238.1,477,238.1z M479.9,230.1c0.4-0.4,0.5-0.7,0.5-0.9s-0.1-0.5-0.3-0.6
				c-0.2-0.2-0.4-0.2-0.8-0.2c-0.2,0-0.4,0-0.6,0.1c-0.3,0.1-0.6,0.3-1,0.7c-0.4,0.4-0.7,0.7-1,1.1c-0.3,0.4-0.4,0.6-0.3,0.7
				c0.1,0.2,0.5,0.3,1.2,0.3c0.5,0,0.9-0.1,1.2-0.2C479.2,230.7,479.5,230.4,479.9,230.1z"/>
			<path class="st0" d="M484.3,238c-0.4-0.3-0.6-0.5-0.7-0.7c0,0,0-0.1,0-0.2s0-0.2,0.1-0.2c0.1,0,0.2,0,0.3,0c0.4,0,0.9,0,1.7,0.1
				c0.5,0,1-0.1,1.5-0.2c0.6-0.1,0.9-0.2,1-0.4c0.1,0,0.1,0,0.1,0c0,0-0.1-0.1-0.2-0.3c0,0-0.1,0-0.3-0.1c-0.1-0.1-0.2-0.1-0.3-0.1
				c0-0.1-0.1-0.2-0.3-0.3c-0.2-0.1-0.4-0.3-0.6-0.4c-0.6-0.5-1-0.9-1.3-1.1c-0.2-0.2-0.3-0.4-0.3-0.5v-0.2c-0.1,0-0.3-0.2-0.5-0.6
				c-0.2-0.4-0.3-0.8-0.3-1.1c0-0.4,0.2-0.9,0.5-1.6c0.3-0.7,0.7-1.2,1.1-1.6c0.6-0.5,1.3-1.1,2.2-1.7c0.9-0.6,1.6-1,2.2-1.1
				c0.4-0.1,0.7-0.2,1.1-0.2c0.3,0,0.6,0.1,0.8,0.2c0.3,0.2,0.5,0.4,0.8,0.7c0.3,0.3,0.4,0.6,0.5,0.8c0,0.5,0,0.9-0.1,1.3
				c-0.1,0.4-0.2,0.6-0.4,0.6c0,0-0.1,0-0.1,0c0,0-0.1,0.1-0.1,0.2c0,0.1,0,0.2-0.1,0.3c-0.1,0.1-0.2,0.3-0.3,0.4
				c-0.5,0.3-0.8,0.5-1.1,0.5c-0.2,0-0.4-0.1-0.4-0.3c0,0-0.1-0.1-0.1-0.2s-0.1-0.1-0.2-0.1c0,0-0.1,0-0.1-0.1s-0.1-0.2-0.1-0.3
				c0-0.1,0-0.1,0.1-0.2c0.1-0.1,0.1-0.1,0.1-0.1c0.1,0,0.3-0.2,0.6-0.7c0.3-0.5,0.4-0.8,0.4-1c0-0.1,0-0.2,0-0.2c0,0-0.1,0-0.3,0
				c-1.6,0.7-2.6,1.3-3,1.6c-0.1,0.1-0.1,0.2-0.1,0.2c0,0-0.1,0.1-0.2,0.1c0-0.2-0.5,0.5-1.6,2.1c0,0-0.1,0.2-0.1,0.4
				c-0.1,0.2-0.1,0.4-0.1,0.5c0,0.2-0.1,0.3-0.1,0.3c0,0.1,0,0.2,0.1,0.2s0.2,0.2,0.3,0.3c0.1,0.1,0.2,0.2,0.4,0.3
				c1.1,0.8,1.8,1.4,2.2,1.8c0.4,0.4,0.7,0.7,0.8,1c0.3,0.4,0.4,0.8,0.4,1.1c0,0.2-0.1,0.5-0.3,0.7c-0.2,0.2-0.5,0.4-0.8,0.5
				c-0.2,0.1-0.6,0.2-1.1,0.3c-0.5,0.1-1.1,0.1-1.6,0.1c-0.3,0-0.6,0-0.9-0.1C485,238.5,484.6,238.3,484.3,238z"/>
		</g>
	</g>
	<g>
		<g>
			<path class="st0" d="M428.7,396.1c-0.5,0-1-0.1-1.5-0.4s-0.9-0.6-1.2-1c-0.3-0.3-0.5-0.7-0.6-1.1c-0.1-0.4-0.2-0.9-0.2-1.5
				c0-0.2,0-0.6,0.1-1.2c0.1-0.8,0.3-1.6,0.8-2.4c0.4-0.8,1-1.6,1.7-2.2c0.7-0.7,1.3-1.1,2-1.3c0.3-0.2,0.6-0.3,0.9-0.3
				c0.1,0,0.3,0,0.4,0c0.1,0,0.3,0,0.5,0.1c0.5,0.1,0.8,0.2,1,0.3s0.4,0.3,0.6,0.5c0.5,0.5,0.8,1.1,0.8,1.8c-0.1,0.5-0.4,1.1-1,1.7
				c-0.6,0.6-1.2,1.2-2,1.6c-0.4,0.1-0.8,0.2-1.3,0.2c-0.6,0-1.2-0.1-1.6-0.4c-0.2-0.1-0.3-0.1-0.4-0.1c-0.2,0-0.3,0.1-0.4,0.4
				s-0.2,0.7-0.3,1.4c0,0.1,0,0.4,0,0.6c0,1.1,0.4,1.6,1.1,1.7c0.5,0.1,0.8,0.2,1,0.2c0.2,0,0.5-0.1,0.8-0.2l0.6-0.3
				c0.1-0.1,0.2-0.1,0.3-0.2s0.2-0.2,0.3-0.3c0,0,0.1-0.1,0.2-0.2c0.1-0.1,0.2-0.2,0.2-0.2c0.1,0,0.1,0,0.2,0c0.1,0,0.2,0,0.3,0.1
				s0.2,0.2,0.2,0.2c0.2,0,0.2,0.1,0.1,0.4c-0.1,0.3-0.3,0.6-0.7,0.9c-0.3,0.3-0.7,0.6-1.2,0.9C430.1,395.9,429.5,396.1,428.7,396.1
				z M431.6,388.1c0.4-0.4,0.5-0.7,0.5-0.9s-0.1-0.5-0.3-0.6c-0.2-0.2-0.4-0.2-0.8-0.2c-0.2,0-0.4,0-0.6,0.1c-0.3,0.1-0.6,0.3-1,0.7
				c-0.4,0.4-0.7,0.7-1,1.1s-0.4,0.6-0.3,0.7c0.1,0.2,0.5,0.3,1.2,0.3c0.5,0,0.9-0.1,1.2-0.2C430.9,388.7,431.3,388.5,431.6,388.1z"
				/>
			<path class="st0" d="M436,396c-0.4-0.3-0.6-0.5-0.7-0.7c0,0,0-0.1,0-0.2s0-0.2,0.1-0.2c0.1,0,0.2,0,0.3,0c0.4,0,0.9,0,1.7,0.1
				c0.5,0,1-0.1,1.6-0.2c0.6-0.1,0.9-0.2,1-0.4c0.1,0,0.1,0,0.1,0c0,0-0.1-0.1-0.2-0.3c0,0-0.1,0-0.3-0.1c-0.1-0.1-0.2-0.1-0.3-0.1
				c0-0.1-0.1-0.2-0.3-0.3c-0.2-0.1-0.4-0.3-0.6-0.4c-0.6-0.5-1-0.9-1.3-1.1c-0.2-0.2-0.3-0.4-0.3-0.5v-0.2c-0.1,0-0.3-0.2-0.5-0.6
				c-0.2-0.4-0.3-0.8-0.3-1.1c0-0.4,0.2-0.9,0.5-1.5s0.7-1.2,1.1-1.6c0.6-0.5,1.3-1.1,2.2-1.7s1.6-1,2.2-1.1
				c0.4-0.1,0.7-0.2,1.1-0.2c0.3,0,0.6,0.1,0.8,0.2c0.3,0.2,0.5,0.4,0.8,0.7c0.3,0.3,0.4,0.6,0.5,0.8c0,0.5,0,0.9-0.1,1.3
				c-0.1,0.4-0.2,0.6-0.4,0.6c0,0-0.1,0-0.1,0c0,0-0.1,0.1-0.1,0.2c0,0.1,0,0.2-0.1,0.3c-0.1,0.1-0.2,0.3-0.3,0.4
				c-0.5,0.3-0.8,0.5-1.1,0.5c-0.2,0-0.4-0.1-0.4-0.3c0,0-0.1-0.1-0.1-0.2c0-0.1-0.1-0.1-0.2-0.1c0,0-0.1,0-0.1-0.1
				c-0.1-0.1-0.1-0.2-0.1-0.3c0-0.1,0-0.1,0.1-0.2c0.1-0.1,0.1-0.1,0.1-0.1c0.1,0,0.3-0.2,0.6-0.7s0.4-0.8,0.4-1c0-0.1,0-0.2,0-0.2
				c0,0-0.1,0-0.3,0c-1.6,0.7-2.6,1.3-3,1.6c-0.1,0.1-0.1,0.2-0.1,0.2c0,0-0.1,0.1-0.2,0.1c0-0.2-0.5,0.5-1.6,2.1
				c0,0-0.1,0.2-0.1,0.4c-0.1,0.2-0.1,0.4-0.1,0.5c0,0.2-0.1,0.3-0.1,0.3c0,0.1,0,0.2,0.1,0.2c0.1,0.1,0.2,0.2,0.3,0.3
				c0.1,0.1,0.2,0.2,0.4,0.3c1.1,0.8,1.8,1.4,2.2,1.8c0.4,0.4,0.7,0.7,0.8,1c0.3,0.4,0.4,0.8,0.4,1.1c0,0.2-0.1,0.5-0.3,0.7
				c-0.2,0.2-0.5,0.4-0.8,0.5c-0.2,0.1-0.6,0.2-1.1,0.3s-1.1,0.1-1.6,0.1c-0.3,0-0.6,0-0.9-0.1C436.7,396.5,436.4,396.3,436,396z"/>
			<path class="st0" d="M447.5,395.6c-0.3-0.4-0.6-0.7-0.7-1.1c0,0,0-0.1-0.1-0.1c0-0.1-0.1-0.1-0.1-0.1c-0.1-0.1-0.1-0.4-0.1-1
				c0-0.5,0-1,0.1-1.6c0.1-0.5,0.1-1,0.2-1.3l0.6-1.6l0.4-1.2l0.8-1.8l-1.2-0.3c-0.1,0-0.3-0.1-0.4-0.2c-0.1-0.1-0.1-0.2-0.1-0.3
				c0-0.2,0.1-0.4,0.3-0.6c0.2-0.2,0.3-0.4,0.4-0.4c0.1,0,0.2,0,0.5,0c0.6,0,1.1,0,1.4-0.1c0.2-0.1,0.4-0.2,0.4-0.5
				c0.1-0.2,0.2-0.4,0.3-0.6c0.1-0.2,0.2-0.5,0.3-0.7c0.1-0.1,0.2-0.3,0.3-0.6c0.1-0.3,0.3-0.6,0.5-0.9c0-0.1,0.1-0.2,0.3-0.5
				c0.1-0.2,0.3-0.4,0.5-0.6c0.1-0.1,0.3-0.2,0.5-0.2c0.2,0,0.5,0.1,0.8,0.4c0,0.1,0.1,0.1,0.2,0.2c0.1,0.1,0.1,0.2,0.1,0.3
				c0,0.1-0.1,0.3-0.2,0.5c-0.1,0.2-0.2,0.5-0.4,0.7c-0.1,0.2-0.2,0.4-0.3,0.5c-0.2,0.4-0.4,0.7-0.5,0.9c-0.2,0.3-0.3,0.5-0.3,0.6
				s0.1,0.2,0.4,0.2c0.3,0,0.8-0.1,1.5-0.2c0.3,0,0.5-0.1,0.6-0.1c0.7,0,1.1,0.3,1.2,0.9c0,0.1,0,0.3,0,0.4c0,0.3-0.1,0.5-0.3,0.5
				c-0.2,0.1-0.6,0.1-1.3,0.1c-0.7,0.1-1.3,0.2-2,0.2c-0.1,0-0.3,0-0.4,0c-0.2,0-0.3,0-0.5,0.1c-0.2,0-0.3,0.1-0.4,0.2
				c-0.1,0.1-0.1,0.2-0.2,0.4c-0.1,0.1-0.2,0.3-0.4,0.7c-0.3,0.6-0.5,1-0.6,1.1c-0.6,1.7-1,3.3-1.2,5.1c0,0.3-0.1,0.5-0.1,0.6
				c0,0.3,0.1,0.5,0.3,0.7c0.2,0.1,0.6,0.2,1.1,0.2c0.7,0,1.3-0.1,1.8-0.2c0.6-0.3,1.1-0.5,1.4-0.7c0.2-0.1,0.4-0.2,0.5-0.3
				c0.2-0.1,0.3-0.2,0.3-0.2c0.1-0.1,0.1-0.2,0.2-0.2c0.2,0,0.3,0.2,0.4,0.5c0,0.3-0.1,0.6-0.2,0.9s-0.5,0.5-1.1,0.9
				c-1.2,0.8-2.4,1.1-3.6,1.1c-0.3,0-0.6,0-0.9-0.1C448.2,396.3,447.9,396,447.5,395.6z"/>
			<path class="st0" d="M456.6,395.1c-0.1-0.1-0.1-0.3-0.1-0.5c0-0.2,0-0.3,0-0.5c0.1-0.7,0.2-1.5,0.5-2.4l0.2-0.6
				c0.1-0.5,0.4-1.6,1.1-3.3c0.7-1.7,1.2-2.8,1.6-3.4c0.2-0.1,0.3-0.2,0.5-0.2c0.3,0,0.5,0.1,0.7,0.3c0.1,0.1,0.2,0.2,0.2,0.5
				c0,0.2-0.1,0.5-0.2,0.9c-0.2,0.4-0.4,1-0.8,1.8c-0.1,0.2-0.2,0.5-0.4,0.9c-0.2,0.5-0.3,0.7-0.3,0.8c0,0,0,0.1,0,0.1
				c0,0,0.1,0,0.1,0c0,0,0.1-0.1,0.1-0.1c0.2-0.4,0.8-0.9,1.7-1.6c0.9-0.7,1.5-1.1,1.8-1.3c0.1-0.1,0.3-0.2,0.6-0.2
				c0.2-0.1,0.4-0.1,0.5-0.2c0.3-0.2,0.7-0.2,1.2-0.2c0.3,0,0.5,0,0.8,0.1s0.4,0.2,0.4,0.4c0,0.1,0.1,0.3,0.2,0.3
				c0.1,0.1,0.2,0.1,0.2,0.2c0.1,0,0.1,0,0.1,0.1c0,0.1,0,0.1,0,0.1c0,0.1-0.1,0.2-0.2,0.3c-0.2,0-0.5,0.1-0.9,0.1
				c-0.2,0-0.5,0.1-0.7,0.2s-0.5,0.2-0.7,0.3c-1.2,0.7-2,1.2-2.6,1.5s-1.1,0.9-1.7,1.5c-0.2,0.2-0.5,0.7-0.9,1.3
				c-0.1,0.1-0.3,0.5-0.4,1.1c-0.2,0.6-0.2,1-0.2,1.1c0,0.1-0.1,0.2-0.1,0.4c-0.1,0.2-0.2,0.3-0.3,0.5c-0.2,0.3-0.5,0.5-0.6,0.5
				c-0.2,0-0.4-0.2-0.7-0.5C456.8,395.3,456.7,395.2,456.6,395.1z"/>
			<path class="st0" d="M467.3,395c-0.1-0.1-0.2-0.2-0.2-0.3c0-0.2-0.1-0.4-0.2-0.5c0,0-0.1-0.1-0.1-0.3c0-0.3,0.2-0.9,0.5-1.7
				c0.3-0.8,0.7-1.7,1.3-2.6c0.1-0.1,0.3-0.3,0.5-0.7c0.2-0.3,0.3-0.5,0.4-0.5c0-0.1,0-0.2,0.1-0.2c0.1-0.1,0.1-0.1,0.2-0.1V388
				c0-0.2,0.3-0.6,1-1.3s1.2-1.2,1.7-1.5c0.5-0.4,1-0.5,1.6-0.5c0.4,0,0.7,0.1,1,0.3c0.1,0.1,0.6,0.6,1.4,1.3l1.1,1l-0.6,1.5
				c-0.2,0.6-0.3,1.1-0.3,1.5c0,0.8,0.2,1.5,0.7,2.3c0.1,0.2,0.3,0.4,0.6,0.7c0.3,0.2,0.6,0.3,0.9,0.4c0.5,0.1,0.7,0.3,0.7,0.7
				c0,0.4-0.2,0.7-0.6,0.7c-0.1,0-0.2,0-0.4,0c-1.2,0-2.3-0.9-3.2-2.6c-0.1-0.1-0.2-0.4-0.3-0.7c-0.1-0.3-0.2-0.6-0.2-0.7
				c-0.1,0.2-0.3,0.4-0.5,0.6c-0.2,0.2-0.4,0.4-0.5,0.6c-2.3,2.3-4,3.4-5.3,3.4c-0.4,0-0.8-0.1-1.1-0.3
				C467.5,395.3,467.4,395.2,467.3,395z M469,393.8c0.2,0,0.5-0.1,0.8-0.3c0.3-0.2,0.6-0.4,1-0.7c1.8-1.5,3.1-2.9,3.8-4l0.7-1.1
				c-0.2-0.4-0.4-0.7-0.7-0.9c-0.2-0.2-0.4-0.3-0.6-0.3c-0.4,0-1.1,0.5-2,1.6s-1.8,2.4-2.5,3.8c-0.2,0.4-0.4,0.7-0.5,1.1
				c-0.1,0.4-0.2,0.6-0.3,0.7C468.7,393.8,468.8,393.8,469,393.8z"/>
			<path class="st0" d="M482.4,395.6c-0.3-0.4-0.6-0.7-0.7-1.1c0,0,0-0.1-0.1-0.1c0-0.1-0.1-0.1-0.1-0.1c-0.1-0.1-0.1-0.4-0.1-1
				c0-0.5,0-1,0.1-1.6c0.1-0.5,0.1-1,0.2-1.3l0.6-1.6l0.4-1.2l0.8-1.8l-1.2-0.3c-0.1,0-0.3-0.1-0.4-0.2c-0.1-0.1-0.1-0.2-0.1-0.3
				c0-0.2,0.1-0.4,0.3-0.6c0.2-0.2,0.3-0.4,0.4-0.4c0.1,0,0.2,0,0.5,0c0.6,0,1.1,0,1.4-0.1c0.2-0.1,0.4-0.2,0.4-0.5
				c0.1-0.2,0.2-0.4,0.3-0.6c0.1-0.2,0.2-0.5,0.3-0.7c0.1-0.1,0.2-0.3,0.3-0.6c0.1-0.3,0.3-0.6,0.5-0.9c0-0.1,0.1-0.2,0.3-0.5
				c0.1-0.2,0.3-0.4,0.5-0.6c0.1-0.1,0.3-0.2,0.5-0.2c0.2,0,0.5,0.1,0.8,0.4c0,0.1,0.1,0.1,0.2,0.2c0.1,0.1,0.1,0.2,0.1,0.3
				c0,0.1-0.1,0.3-0.2,0.5c-0.1,0.2-0.2,0.5-0.4,0.7c-0.1,0.2-0.2,0.4-0.3,0.5c-0.2,0.4-0.4,0.7-0.5,0.9c-0.2,0.3-0.3,0.5-0.3,0.6
				s0.1,0.2,0.4,0.2c0.3,0,0.8-0.1,1.5-0.2c0.3,0,0.5-0.1,0.6-0.1c0.7,0,1.1,0.3,1.2,0.9c0,0.1,0,0.3,0,0.4c0,0.3-0.1,0.5-0.3,0.5
				c-0.2,0.1-0.6,0.1-1.3,0.1c-0.7,0.1-1.3,0.2-2,0.2c-0.1,0-0.3,0-0.4,0c-0.2,0-0.3,0-0.5,0.1c-0.2,0-0.3,0.1-0.4,0.2
				c-0.1,0.1-0.1,0.2-0.2,0.4c-0.1,0.1-0.2,0.3-0.4,0.7c-0.3,0.6-0.5,1-0.6,1.1c-0.6,1.7-1,3.3-1.2,5.1c0,0.3-0.1,0.5-0.1,0.6
				c0,0.3,0.1,0.5,0.3,0.7c0.2,0.1,0.6,0.2,1.1,0.2c0.7,0,1.3-0.1,1.8-0.2c0.6-0.3,1.1-0.5,1.4-0.7c0.2-0.1,0.4-0.2,0.5-0.3
				c0.2-0.1,0.3-0.2,0.3-0.2c0.1-0.1,0.1-0.2,0.2-0.2c0.2,0,0.3,0.2,0.4,0.5c0,0.3-0.1,0.6-0.2,0.9s-0.5,0.5-1.1,0.9
				c-1.2,0.8-2.4,1.1-3.6,1.1c-0.3,0-0.6,0-0.9-0.1C483,396.3,482.7,396,482.4,395.6z"/>
			<path class="st0" d="M494.8,396.1c-0.5,0-1-0.1-1.5-0.4s-0.9-0.6-1.2-1c-0.3-0.3-0.5-0.7-0.6-1.1c-0.1-0.4-0.2-0.9-0.2-1.5
				c0-0.2,0-0.6,0.1-1.2c0.1-0.8,0.3-1.6,0.8-2.4c0.4-0.8,1-1.6,1.7-2.2c0.7-0.7,1.3-1.1,2-1.3c0.3-0.2,0.6-0.3,0.9-0.3
				c0.1,0,0.3,0,0.4,0c0.1,0,0.3,0,0.5,0.1c0.5,0.1,0.8,0.2,1,0.3c0.2,0.1,0.4,0.3,0.6,0.5c0.5,0.5,0.8,1.1,0.8,1.8
				c-0.1,0.5-0.4,1.1-1,1.7c-0.6,0.6-1.2,1.2-2,1.6c-0.4,0.1-0.8,0.2-1.3,0.2c-0.6,0-1.2-0.1-1.6-0.4c-0.2-0.1-0.3-0.1-0.4-0.1
				c-0.2,0-0.3,0.1-0.4,0.4c-0.1,0.2-0.2,0.7-0.3,1.4c0,0.1,0,0.4,0,0.6c0,1.1,0.3,1.6,1.1,1.7c0.5,0.1,0.8,0.2,1,0.2
				c0.2,0,0.5-0.1,0.8-0.2l0.6-0.3c0.1-0.1,0.2-0.1,0.3-0.2s0.2-0.2,0.3-0.3c0,0,0.1-0.1,0.2-0.2c0.1-0.1,0.2-0.2,0.2-0.2
				c0.1,0,0.1,0,0.2,0c0.1,0,0.2,0,0.3,0.1s0.2,0.2,0.2,0.2c0.2,0,0.2,0.1,0.1,0.4c-0.1,0.3-0.3,0.6-0.7,0.9
				c-0.3,0.3-0.7,0.6-1.2,0.9C496.1,395.9,495.5,396.1,494.8,396.1z M497.7,388.1c0.4-0.4,0.5-0.7,0.5-0.9s-0.1-0.5-0.3-0.6
				c-0.2-0.2-0.4-0.2-0.8-0.2c-0.2,0-0.4,0-0.6,0.1c-0.3,0.1-0.6,0.3-1,0.7c-0.4,0.4-0.7,0.7-1,1.1c-0.3,0.4-0.4,0.6-0.3,0.7
				c0.1,0.2,0.5,0.3,1.2,0.3c0.5,0,0.9-0.1,1.2-0.2C497,388.7,497.3,388.5,497.7,388.1z"/>
			<path class="st0" d="M510.3,387.9c0,0.3-0.1,0.6-0.4,0.9c-0.1,0.1-0.2,0.3-0.3,0.5c-0.2,0.2-0.3,0.4-0.4,0.7
				c-0.1,0.2-0.2,0.5-0.3,0.8c-0.1,0.5-0.3,1.5-0.7,3l-0.3,1.2l-0.5,1.9c-0.9,3.2-1.9,5.1-2.8,5.5c-0.3,0.1-0.5,0.2-0.8,0.2
				c-0.5,0-0.9-0.2-1.4-0.4c-0.5-0.3-0.9-0.7-1.3-1.2c-0.2-0.3-0.4-0.8-0.6-1.4c-0.2-0.6-0.2-1-0.1-1.1c0,0,0.1-0.1,0.2-0.1
				c0.1,0,0.3,0,0.5,0.1c0.2,0.1,0.3,0.2,0.3,0.3c0.1,0.2,0.3,0.5,0.5,0.9c0.3,0.4,0.5,0.6,0.6,0.6c0.3,0.2,0.6,0.2,0.8,0.2
				c0.2,0,0.4-0.1,0.5-0.2c0.3-0.3,0.6-0.6,0.9-1c0.2-0.4,0.5-1.1,0.8-2l0.2-0.9c0.5-1.8,0.9-3,1.1-3.5c0.1-0.3,0.2-0.6,0.3-0.8
				l-0.6,0.5c-0.2,0.2-0.5,0.4-0.8,0.7c-0.3,0.2-0.5,0.4-0.8,0.5c-0.1,0.2-0.5,0.3-1.1,0.3c-0.4,0-0.8-0.1-1.2-0.2
				c-0.4-0.2-0.7-0.4-0.8-0.5c-0.1-0.1-0.2-0.4-0.4-0.9c-0.1-0.2-0.1-0.4-0.1-0.8c0-0.9,0.2-1.8,0.6-2.9c0.4-0.8,1-1.7,1.9-2.6
				c0.8-0.9,1.6-1.5,2.2-1.6c0.2-0.1,0.5-0.2,0.7-0.2c0.2,0,0.5,0,0.7,0.1c0.3,0,0.6,0.1,0.8,0.2c0.2,0.1,0.5,0.3,0.9,0.7
				c0.5,0.5,0.9,1,1.1,1.6C510.2,387.4,510.3,387.7,510.3,387.9z M507.4,388.7c0.1-0.5,0.2-1.1,0.2-1.6c0-0.3-0.1-0.5-0.1-0.6
				c-0.1-0.1-0.2-0.2-0.3-0.2c-0.4,0-0.8,0.2-1.4,0.6c-0.5,0.4-1,0.9-1.5,1.5c-0.3,0.4-0.6,0.9-0.8,1.5c-0.2,0.7-0.4,1.4-0.4,2
				c0,0.5,0.1,0.7,0.2,0.8c0.6,0,1.2-0.2,1.8-0.6s1-0.9,1.6-1.7C507.1,389.8,507.3,389.3,507.4,388.7z"/>
			<path class="st0" d="M512.5,394.3c0-0.3,0.1-0.5,0.2-0.7c0-0.1,0-0.2,0.1-0.4c0-0.1,0.1-0.2,0.1-0.3c0-0.1,0.1-0.5,0.2-1
				c0.4-0.8,0.9-2.3,1.5-4.4c0-0.1,0-0.2,0.1-0.3c0.1-0.1,0.2-0.1,0.4-0.1c0.2,0,0.3-0.1,0.3-0.1c0.1,0,0.2,0,0.3,0.1
				c0.1,0.1,0.2,0.3,0.4,0.5c0.1,0.1,0.2,0.3,0.2,0.6c0,0.4-0.1,0.9-0.4,1.4c-0.3,0.6-0.4,1.1-0.5,1.5c-0.2,0.6-0.4,1.1-0.6,1.5
				c0,0.1-0.1,0.4-0.2,0.7c-0.1,0.4-0.2,0.7-0.3,0.9c-0.1,0.6-0.2,1-0.3,1.2c-0.1,0.2-0.2,0.3-0.3,0.3c-0.1,0-0.3-0.1-0.6-0.4
				C512.6,395.2,512.5,394.8,512.5,394.3z M515.5,382.2c-0.1-0.4-0.1-0.5,0-0.5c0.2,0,0.4-0.2,0.6-0.5s0.3-0.6,0.3-0.9
				c0-0.1,0-0.2,0.1-0.2c0.1-0.1,0.1-0.1,0.2-0.1c0.2-0.1,0.3-0.2,0.4-0.2c0.4,0,0.7,0.2,1,0.7c0.1,0.3,0.2,0.5,0.2,0.7
				c0,0.2-0.1,0.4-0.2,0.6s-0.3,0.4-0.6,0.8c-0.4,0.5-0.7,0.7-1,0.7c-0.2,0-0.4-0.1-0.7-0.3C515.8,382.8,515.6,382.6,515.5,382.2z"
				/>
			<path class="st0" d="M518.3,395c-0.1-0.1-0.2-0.2-0.2-0.3c0-0.2-0.1-0.4-0.2-0.5c0,0-0.1-0.1-0.1-0.3c0-0.3,0.2-0.9,0.5-1.7
				c0.3-0.8,0.7-1.7,1.3-2.6c0.1-0.1,0.3-0.3,0.5-0.7c0.2-0.3,0.3-0.5,0.4-0.5c0-0.1,0-0.2,0.1-0.2c0.1-0.1,0.1-0.1,0.2-0.1V388
				c0-0.2,0.3-0.6,1-1.3s1.2-1.2,1.7-1.5c0.5-0.4,1-0.5,1.6-0.5c0.4,0,0.7,0.1,1,0.3c0.1,0.1,0.6,0.6,1.4,1.3l1.1,1l-0.6,1.5
				c-0.2,0.6-0.3,1.1-0.3,1.5c0,0.8,0.2,1.5,0.7,2.3c0.1,0.2,0.3,0.4,0.6,0.7c0.3,0.2,0.6,0.3,0.9,0.4c0.5,0.1,0.7,0.3,0.7,0.7
				c0,0.4-0.2,0.7-0.6,0.7c-0.1,0-0.2,0-0.4,0c-1.2,0-2.3-0.9-3.2-2.6c-0.1-0.1-0.2-0.4-0.3-0.7c-0.1-0.3-0.2-0.6-0.2-0.7
				c-0.1,0.2-0.3,0.4-0.5,0.6c-0.2,0.2-0.4,0.4-0.5,0.6c-2.3,2.3-4,3.4-5.3,3.4c-0.4,0-0.8-0.1-1.1-0.3
				C518.5,395.3,518.4,395.2,518.3,395z M520,393.8c0.2,0,0.5-0.1,0.8-0.3c0.3-0.2,0.6-0.4,1-0.7c1.8-1.5,3.1-2.9,3.8-4l0.7-1.1
				c-0.2-0.4-0.4-0.7-0.7-0.9c-0.2-0.2-0.4-0.3-0.6-0.3c-0.4,0-1.1,0.5-2,1.6s-1.8,2.4-2.5,3.8c-0.2,0.4-0.4,0.7-0.5,1.1
				c-0.1,0.4-0.2,0.6-0.3,0.7C519.7,393.8,519.8,393.8,520,393.8z"/>
		</g>
	</g>
	<g>
		<g>
			<path class="st0" d="M315.3,549c-0.3,0-0.6-0.2-0.8-0.5c-0.2-0.3-0.3-0.8-0.3-1.4c0-0.5,0.1-1,0.2-1.6c0.2-0.6,0.3-1,0.3-1.3
				c0.1-0.4,0.3-1.1,0.6-2.1s0.6-1.6,0.7-1.8c0.1,0,0.2-0.1,0.2-0.2c0.1-0.1,0.1-0.3,0.1-0.4c0-0.2,0-0.4,0.1-0.6
				c0.1-0.2,0.1-0.3,0.2-0.4c0-0.1,0-0.2,0.1-0.3c0.1-0.2,0.1-0.3,0.1-0.3c0,0,0-0.1,0.1-0.2s0.1-0.2,0.1-0.3
				c0.3-0.6,0.9-2.1,1.7-4.3c0.8-2.2,1.2-3.5,1.2-3.7c0-0.3,0.2-0.5,0.5-0.5c0.1-0.1,0.3-0.2,0.5-0.2l0.5,0.5
				c0.1,0.1,0.2,0.3,0.3,0.4c0,0.2,0.1,0.4,0.1,0.7s0,0.6-0.1,0.8c-0.1,0.2-0.3,0.7-0.6,1.4c-0.1,0.1-0.1,0.3-0.2,0.5
				c-0.1,0.2-0.2,0.4-0.3,0.7c0,0.1-0.2,0.5-0.5,1.1c-0.2,0.4-0.3,0.7-0.3,0.7c0,0.1,0,0.2-0.1,0.4c-0.1,0.2-0.2,0.4-0.2,0.6
				c-0.2,0.3-0.4,0.9-0.8,1.8c-0.4,0.8-0.5,1.3-0.5,1.4c0,0.2-0.1,0.4-0.2,0.5c-0.1,0-0.1,0-0.1,0.1c0,0.1,0,0.2,0,0.2
				c0,0.2-0.2,0.8-0.5,1.6l-0.3,0.9c-0.4,1.3-0.7,2.3-0.8,2.9c-0.2,0.6-0.2,1.1-0.2,1.6c0,0.5,0,0.8,0,1c0,0.1-0.1,0.3-0.3,0.3
				C315.6,549,315.4,549,315.3,549z"/>
			<path class="st0" d="M319.8,547.5c-0.1-0.1-0.2-0.2-0.2-0.3c0-0.2-0.1-0.4-0.2-0.5c0,0-0.1-0.1-0.1-0.3c0-0.3,0.2-0.9,0.5-1.7
				c0.3-0.8,0.7-1.7,1.3-2.6c0.1-0.1,0.3-0.3,0.5-0.7c0.2-0.3,0.3-0.5,0.4-0.5c0-0.1,0-0.2,0.1-0.2c0.1-0.1,0.1-0.1,0.2-0.1v-0.2
				c0-0.2,0.3-0.6,1-1.3s1.2-1.2,1.7-1.5c0.5-0.4,1-0.5,1.6-0.5c0.4,0,0.7,0.1,1,0.3c0.1,0.1,0.6,0.6,1.4,1.3l1.1,1l-0.6,1.6
				c-0.2,0.6-0.3,1.1-0.3,1.5c0,0.8,0.2,1.5,0.7,2.3c0.1,0.2,0.3,0.4,0.6,0.7c0.3,0.2,0.6,0.3,0.9,0.4c0.5,0.1,0.7,0.3,0.7,0.7
				c0,0.4-0.2,0.7-0.6,0.7c-0.1,0-0.2,0-0.4,0c-1.2,0-2.3-0.9-3.2-2.6c-0.1-0.1-0.2-0.4-0.3-0.7c-0.1-0.3-0.2-0.6-0.2-0.7
				c-0.1,0.2-0.3,0.4-0.5,0.6c-0.2,0.2-0.4,0.4-0.5,0.6c-2.3,2.3-4,3.4-5.3,3.4c-0.4,0-0.8-0.1-1.1-0.3
				C320.1,547.8,320,547.6,319.8,547.5z M321.6,546.2c0.2,0,0.5-0.1,0.8-0.3s0.6-0.4,1-0.7c1.8-1.5,3.1-2.9,3.8-4l0.7-1.1
				c-0.2-0.4-0.4-0.8-0.7-0.9c-0.2-0.2-0.4-0.3-0.6-0.3c-0.4,0-1.1,0.5-2,1.6c-0.9,1.1-1.8,2.4-2.5,3.8c-0.2,0.4-0.4,0.7-0.5,1.1
				s-0.2,0.6-0.3,0.7C321.3,546.3,321.4,546.3,321.6,546.2z"/>
			<path class="st0" d="M354.1,546.9c-0.3-0.4-0.4-1.1-0.4-2l0-1.4c0-0.2,0-0.4,0-0.5s-0.1-0.2-0.2-0.2c-0.3,0-0.8,0.4-1.7,1.1
				c-0.9,0.7-1.8,1.5-2.7,2.5c-0.1,0.1-0.2,0.3-0.4,0.4c-0.2,0.2-0.3,0.3-0.5,0.4c-0.1,0.1-0.3,0.1-0.4,0.1c-0.2,0-0.4-0.1-0.5-0.2
				L347,547c-0.1-0.1-0.2-0.3-0.2-0.4l0.1-0.3l0.7-2c0.5-1.1,0.7-1.7,0.8-2s0.1-0.4,0-0.4c-0.2,0-0.4,0.1-0.8,0.3
				c-0.3,0.2-0.5,0.3-0.6,0.5c0,0-0.2,0.1-0.4,0.3s-0.4,0.4-0.6,0.5c-0.2,0.3-0.6,0.8-1.4,1.5l-0.7,0.7c-0.3,0.2-0.7,0.8-1.3,1.5
				c-0.3,0.4-0.5,0.6-0.5,0.6c-0.6,0-1-0.3-1.2-0.9c-0.1-0.1-0.1-0.3-0.1-0.6c0-0.3,0.1-1,0.4-2c0.2-0.7,0.3-1.1,0.3-1.3l0.2-0.6
				c0-0.3,0.1-0.6,0.3-1c0.1-0.4,0.4-1,0.7-1.8c0.2-0.6,0.3-1,0.3-1.3c0-0.3,0.1-0.5,0.3-0.6c0.2-0.2,0.4-0.2,0.6-0.2
				c0.3,0,0.5,0.1,0.7,0.3c0.2,0.2,0.3,0.5,0.3,0.9c0,0.4-0.1,0.7-0.2,1.1l-0.3,0.8c-0.2,0.3-0.4,0.9-0.6,1.6
				c-0.3,0.7-0.4,1.1-0.4,1.2c0,0.1,0.1,0,0.2,0c0.1-0.1,0.3-0.2,0.4-0.4c0.2-0.2,0.4-0.4,0.7-0.6c0.6-0.6,1.4-1.1,2.2-1.7
				c0.9-0.5,1.5-0.9,2-1c0.3,0,0.5,0,0.6,0.1c0.1,0.1,0.3,0.2,0.5,0.4c0.2,0.2,0.3,0.3,0.4,0.4c0.2,0.2,0.3,0.5,0.3,0.8
				c0,0.1,0,0.2-0.1,0.4c-0.1,0.3-0.2,0.6-0.3,1.1c-0.1,0.4-0.2,0.7-0.3,0.9c0.1-0.1,0.4-0.3,0.8-0.7c0.4-0.3,0.7-0.6,1-0.9
				c1-0.8,1.8-1.2,2.4-1.2c0.4,0,0.8,0.2,1.1,0.7c0.2,0.2,0.3,0.4,0.3,0.6c0,0.2,0.1,0.5,0.1,0.8c0,0.3,0,0.6,0,0.8
				c0,0.1,0,0.4,0,0.7c0,0.2,0,0.5,0.1,1c0,0.5,0.1,0.7,0.1,0.8c0.1,0.1,0.5,0.2,1.1,0.3c0.4,0.1,0.6,0.2,0.6,0.5
				c0,0.2-0.1,0.4-0.4,0.6c-0.3,0.2-0.6,0.2-1,0.2c-0.4,0-0.7-0.1-1-0.2C354.7,547.6,354.4,547.3,354.1,546.9z"/>
			<path class="st0" d="M358.3,547.5c-0.1-0.1-0.2-0.2-0.2-0.3c0-0.2-0.1-0.4-0.2-0.5c0,0-0.1-0.1-0.1-0.3c0-0.3,0.2-0.9,0.5-1.7
				c0.3-0.8,0.7-1.7,1.3-2.6c0.1-0.1,0.3-0.3,0.5-0.7c0.2-0.3,0.3-0.5,0.4-0.5c0-0.1,0-0.2,0.1-0.2c0.1-0.1,0.1-0.1,0.2-0.1v-0.2
				c0-0.2,0.3-0.6,1-1.3s1.2-1.2,1.7-1.5c0.5-0.4,1-0.5,1.6-0.5c0.4,0,0.7,0.1,1,0.3c0.1,0.1,0.6,0.6,1.4,1.3l1.1,1l-0.6,1.6
				c-0.2,0.6-0.3,1.1-0.3,1.5c0,0.8,0.2,1.5,0.7,2.3c0.1,0.2,0.3,0.4,0.6,0.7c0.3,0.2,0.6,0.3,0.9,0.4c0.5,0.1,0.7,0.3,0.7,0.7
				c0,0.4-0.2,0.7-0.6,0.7c-0.1,0-0.2,0-0.4,0c-1.2,0-2.3-0.9-3.2-2.6c-0.1-0.1-0.2-0.4-0.3-0.7c-0.1-0.3-0.2-0.6-0.2-0.7
				c-0.1,0.2-0.3,0.4-0.5,0.6c-0.2,0.2-0.4,0.4-0.5,0.6c-2.3,2.3-4,3.4-5.3,3.4c-0.4,0-0.8-0.1-1.1-0.3
				C358.5,547.8,358.4,547.6,358.3,547.5z M360,546.2c0.2,0,0.5-0.1,0.8-0.3s0.6-0.4,1-0.7c1.8-1.5,3.1-2.9,3.8-4l0.7-1.1
				c-0.2-0.4-0.4-0.8-0.7-0.9c-0.2-0.2-0.4-0.3-0.6-0.3c-0.4,0-1.1,0.5-2,1.6c-0.9,1.1-1.8,2.4-2.5,3.8c-0.2,0.4-0.4,0.7-0.5,1.1
				s-0.2,0.6-0.3,0.7C359.7,546.3,359.8,546.3,360,546.2z"/>
			<path class="st0" d="M372.1,547.6c-0.1-0.1-0.1-0.3-0.1-0.5c0-0.2,0-0.3,0-0.5c0.1-0.7,0.2-1.5,0.5-2.4l0.2-0.6
				c0.1-0.5,0.4-1.6,1.1-3.3c0.7-1.7,1.2-2.8,1.6-3.4c0.2-0.1,0.3-0.2,0.5-0.2c0.3,0,0.5,0.1,0.7,0.3c0.1,0.1,0.2,0.2,0.2,0.5
				c0,0.2-0.1,0.5-0.2,0.9c-0.2,0.4-0.4,1-0.8,1.8c-0.1,0.2-0.2,0.5-0.4,0.9c-0.2,0.5-0.3,0.7-0.3,0.8c0,0,0,0.1,0,0.1
				c0,0,0.1,0,0.1,0c0,0,0.1-0.1,0.1-0.1c0.2-0.4,0.8-0.9,1.7-1.6c0.9-0.7,1.5-1.1,1.8-1.3c0.1-0.1,0.3-0.2,0.6-0.2
				c0.2-0.1,0.4-0.1,0.5-0.2c0.3-0.2,0.7-0.2,1.2-0.2c0.3,0,0.5,0,0.8,0.1c0.2,0.1,0.4,0.2,0.4,0.4c0,0.1,0.1,0.3,0.2,0.3
				c0.1,0.1,0.2,0.1,0.2,0.2c0.1,0,0.1,0,0.1,0.1c0,0.1,0,0.1,0,0.1c0,0.1-0.1,0.2-0.2,0.3c-0.2,0-0.5,0.1-0.9,0.1
				c-0.2,0-0.5,0.1-0.7,0.2c-0.2,0.1-0.5,0.2-0.7,0.3c-1.2,0.7-2,1.2-2.6,1.5c-0.6,0.4-1.1,0.9-1.7,1.5c-0.2,0.2-0.5,0.7-0.9,1.3
				c-0.1,0.1-0.3,0.5-0.4,1.1s-0.2,1-0.2,1.1c0,0.1-0.1,0.2-0.1,0.4c-0.1,0.2-0.2,0.3-0.3,0.5c-0.2,0.3-0.5,0.5-0.6,0.5
				c-0.2,0-0.4-0.2-0.7-0.5C372.3,547.8,372.2,547.7,372.1,547.6z"/>
			<path class="st0" d="M385.8,548.7c-0.8,0-1.4-0.2-1.9-0.7c-0.5-0.5-0.7-1.1-0.7-2c-0.1-0.9,0.1-2,0.6-3.4
				c0.5-1.3,1.1-2.5,1.8-3.4c0.5-0.6,1-1.1,1.3-1.5c0.4-0.4,0.7-0.6,1-0.7c0.4-0.2,0.9-0.3,1.5-0.3c0.4,0.1,0.7,0.2,1.1,0.5
				c0.4,0.2,0.5,0.5,0.5,0.7l0.2,0.2c0.1,0,0.2,0.2,0.3,0.4c0.1,0.3,0.2,0.6,0.2,1c0,0.3-0.1,0.5-0.2,0.7c-0.1,0.4-0.2,0.7-0.4,1
				c-0.2,0.3-0.4,0.4-0.6,0.4c-0.2,0-0.3,0.1-0.3,0.2c0,0.1,0,0.1-0.1,0.1c-0.1,0-0.2-0.1-0.4-0.2c-0.1-0.1-0.2-0.3-0.3-0.4
				c0-0.1,0-0.2,0.1-0.5c0.1-0.3,0.2-0.6,0.2-1c0.1-0.2,0.1-0.5,0.1-0.7c0-0.4-0.2-0.6-0.5-0.6c-0.2,0-0.3,0-0.5,0.1
				c-0.8,0.5-1.6,1.2-2.2,2.2c-0.6,1-1.2,2.4-1.6,4.1c-0.1,0.5-0.2,0.8-0.2,1.1c0,0.2,0,0.4,0,0.5c0,0.1,0.1,0.2,0.1,0.2
				c0.1,0,0.3,0.1,0.7,0.1c0.8,0,1.3-0.1,1.6-0.3c0.7-0.4,1.4-0.8,2.2-1.4c0.1-0.1,0.2-0.2,0.4-0.3c0.2-0.2,0.3-0.3,0.5-0.3
				c0.1-0.2,0.3-0.4,0.4-0.4c0.1-0.1,0.3-0.1,0.6-0.1c0.3,0.1,0.5,0.2,0.7,0.3c0.2,0.1,0.2,0.2,0,0.3c-0.1,0-0.1,0-0.1,0.1
				s0,0.1,0,0.1c0,0.1-0.1,0.4-0.5,0.8c-0.4,0.4-0.8,0.8-1.2,1.2c-0.5,0.4-0.8,0.5-0.9,0.5c-0.1,0-0.2,0-0.2,0
				c-0.1,0-0.1,0.1-0.1,0.2c0,0.1-0.3,0.3-0.9,0.6c-0.6,0.3-1.1,0.5-1.5,0.6C386.1,548.7,385.9,548.7,385.8,548.7z"/>
			<path class="st0" d="M394,547.5c-0.1-0.1-0.2-0.2-0.2-0.3c0-0.2-0.1-0.4-0.2-0.5c0,0-0.1-0.1-0.1-0.3c0-0.3,0.2-0.9,0.5-1.7
				c0.3-0.8,0.7-1.7,1.3-2.6c0.1-0.1,0.3-0.3,0.5-0.7c0.2-0.3,0.3-0.5,0.4-0.5c0-0.1,0-0.2,0.1-0.2c0.1-0.1,0.1-0.1,0.2-0.1v-0.2
				c0-0.2,0.3-0.6,1-1.3s1.2-1.2,1.7-1.5c0.5-0.4,1-0.5,1.6-0.5c0.4,0,0.7,0.1,1,0.3c0.1,0.1,0.6,0.6,1.4,1.3l1.1,1l-0.6,1.6
				c-0.2,0.6-0.3,1.1-0.3,1.5c0,0.8,0.2,1.5,0.7,2.3c0.1,0.2,0.3,0.4,0.6,0.7c0.3,0.2,0.6,0.3,0.9,0.4c0.5,0.1,0.7,0.3,0.7,0.7
				c0,0.4-0.2,0.7-0.6,0.7c-0.1,0-0.2,0-0.4,0c-1.2,0-2.3-0.9-3.2-2.6c-0.1-0.1-0.2-0.4-0.3-0.7c-0.1-0.3-0.2-0.6-0.2-0.7
				c-0.1,0.2-0.3,0.4-0.5,0.6c-0.2,0.2-0.4,0.4-0.5,0.6c-2.3,2.3-4,3.4-5.3,3.4c-0.4,0-0.8-0.1-1.1-0.3
				C394.2,547.8,394.1,547.6,394,547.5z M395.7,546.2c0.2,0,0.5-0.1,0.8-0.3s0.6-0.4,1-0.7c1.8-1.5,3.1-2.9,3.8-4l0.7-1.1
				c-0.2-0.4-0.4-0.8-0.7-0.9c-0.2-0.2-0.4-0.3-0.6-0.3c-0.4,0-1.1,0.5-2,1.6c-0.9,1.1-1.8,2.4-2.5,3.8c-0.2,0.4-0.4,0.7-0.5,1.1
				s-0.2,0.6-0.3,0.7C395.4,546.3,395.5,546.3,395.7,546.2z"/>
		</g>
	</g>
	<g>
		<g>
			<g>
				<path class="st0" d="M335,81.5c-12.5,0-22.7-10.2-22.7-22.7c0-12.5,10.2-22.7,22.6-22.7c3.4,0,6.7,0.7,9.8,2.2
					c0,0.1,0.2,3.2,0.2,3.2l-1,1c-2.7-1.5-5.9-2.3-9-2.3c-10.3,0-18.6,8.4-18.6,18.6c0,10.3,8.4,18.6,18.6,18.6
					c10.3,0,18.6-8.4,18.6-18.6c0-3.2-0.8-6.3-2.3-9l1.2-1.2l2.5,0.2c0.1,0,0.2,0,0.4,0c1.5,3.1,2.3,6.5,2.3,10
					C357.6,71.3,347.5,81.5,335,81.5z"/>
				<path class="st0" d="M335,69.4c-5.8,0-10.6-4.7-10.6-10.6c0-5.8,4.7-10.6,10.6-10.6c1,0,2,0.1,2.9,0.4l-2.9,2.9c0,0,0,0,0,0
					c-4,0-7.3,3.3-7.3,7.3c0,4,3.3,7.3,7.3,7.3c4,0,7.3-3.3,7.3-7.3c0,0,0,0,0,0l2.9-2.9c0.3,0.9,0.4,1.9,0.4,2.9
					C345.6,64.6,340.8,69.4,335,69.4z"/>
				<path class="st0" d="M336.5,57.6c-0.1,0-0.2-0.1-0.2-0.1c0,0-0.1-0.1-0.1-0.2l0.1-1.4c0-0.1,0-0.1,0.1-0.2L349.1,43l-0.4-4.7
					c0-0.5,0.1-1,0.5-1.3l5.5-5.5l0.4,5.5l3.4-3.4c0.1-0.1,0.2-0.2,0.4-0.2c0.1,0,0.2,0,0.4,0.2l1,1c0.2,0.2,0.2,0.5,0,0.7l-3.2,3.2
					l5.1,0.4l-5.5,5.5c-0.3,0.3-0.7,0.5-1.2,0.5l-0.3,0l-4.1-0.3l-12.9,12.9c-0.1,0-0.1,0.1-0.2,0.1L336.5,57.6L336.5,57.6z"/>
			</g>
		</g>
		<g>
			<path class="st0" d="M181.4,46L181.4,46c0.4,0,0.8-0.2,1.1-0.5c0.3-0.3,0.5-0.7,0.5-1.1c0-0.4-0.2-0.8-0.5-1.1
				c-0.3-0.3-0.7-0.5-1.1-0.5h0c-0.4,0-0.8,0.2-1.1,0.5c-0.3,0.3-0.5,0.7-0.5,1.1s0.2,0.8,0.5,1.1C180.6,45.8,181,46,181.4,46z"/>
			<path class="st0" d="M190.8,48.4c0-1.9-1.6-3.5-3.5-3.5s-3.5,1.6-3.5,3.5c0,1.9,1.6,3.5,3.5,3.5S190.8,50.3,190.8,48.4z"/>
			<path class="st0" d="M187.3,56.8c4.6,0,8.4-3.8,8.4-8.4c0-4.6-3.8-8.4-8.4-8.4c-1.2,0-2.3,0.2-3.4,0.7c-0.8,0.3-1.1,1.3-0.8,2.1
				c0.3,0.8,1.3,1.1,2.1,0.8c0.7-0.3,1.4-0.4,2.1-0.4c2.9,0,5.3,2.4,5.3,5.3c0,2.9-2.4,5.3-5.3,5.3c-2.9,0-5.3-2.4-5.3-5.4
				c0-0.4-0.1-0.8-0.4-1.1c-0.3-0.3-0.7-0.5-1.1-0.5c-0.4,0-0.8,0.1-1.1,0.4c-0.3,0.3-0.5,0.7-0.5,1.1l0,0.2
				C178.9,53,182.6,56.8,187.3,56.8z"/>
			<path class="st0" d="M187.3,34.3c0.9,0,1.6-0.7,1.6-1.6v-5.9c0-0.9-0.7-1.6-1.6-1.6c-0.9,0-1.6,0.7-1.6,1.6v5.9
				C185.7,33.6,186.4,34.3,187.3,34.3z"/>
			<path class="st0" d="M174.5,34.9c0.3,0.3,0.7,0.5,1.1,0.5c0.4,0,0.8-0.2,1.1-0.5c0.6-0.6,0.6-1.6,0-2.2h0l-4.2-4.2
				c-0.6-0.6-1.6-0.6-2.2,0c-0.6,0.6-0.6,1.6,0,2.2L174.5,34.9z"/>
			<path class="st0" d="M198.9,35.4c0.4,0,0.8-0.2,1.1-0.5l4.2-4.2c0.6-0.6,0.6-1.6,0-2.2c0,0,0,0,0,0c-0.6-0.6-1.6-0.6-2.2,0
				l-4.2,4.2c-0.3,0.3-0.5,0.7-0.5,1.1s0.2,0.8,0.5,1.1C198.1,35.2,198.5,35.4,198.9,35.4z"/>
			<path class="st0" d="M212.5,48.2c-7.2-8.2-16.7-13.1-25.3-13.1c-8.6,0-18,4.9-25.3,13.1c-0.6,0.6-0.5,1.6,0.1,2.2
				c0.3,0.3,0.7,0.4,1.1,0.4c0.4,0,0.8-0.2,1.1-0.5c0-0.1,0.1-0.1,0.1-0.2c5.1,7.2,13.7,11.6,22.8,11.6c9.1,0,17.7-4.4,22.8-11.6
				c0,0.1,0.1,0.1,0.1,0.2c0.3,0.3,0.7,0.5,1.1,0.5c0.4,0,0.8-0.1,1.1-0.4c0.3-0.3,0.5-0.7,0.5-1.1S212.8,48.5,212.5,48.2z
				 M207.9,47.8c-4.4,6.6-12.4,10.8-20.6,10.8c-8.2,0-16.2-4.2-20.6-10.8c3.9-3.7,11.5-9.6,20.6-9.6C196.4,38.2,204,44,207.9,47.8z"
				/>
		</g>
		<g>
			<path class="st0" d="M67.3,108.5l-16-27.6v-7.3h10.2c0.8,0,1.5-0.7,1.5-1.5v-7.2c0-0.8-0.7-1.5-1.5-1.5H49.8
				c-0.8,0-1.5,0.7-1.5,1.5v16l-6.7,10.7l-5.5-4.3c-0.3-0.3-0.7-0.4-1.1-0.3c-0.4,0.1-0.8,0.3-1,0.7l-13.5,20.7
				c-0.3,0.5-0.3,1-0.1,1.5s0.8,0.8,1.3,0.8H66c0.5,0,1-0.3,1.3-0.7C67.5,109.5,67.5,108.9,67.3,108.5z M24.3,107.7l11.2-17.1
				l4.5,3.5l-2.6,4.5c-0.2,0.3-0.2,0.7-0.1,1.1c0.1,0.4,0.4,0.7,0.7,0.9c0.7,0.4,1.6,0.1,2-0.6l3.2-5.6c0,0,0,0,6.5-10.4l13.7,23.6
				H24.3z"/>
			<path class="st0" d="M37.7,101.2c-0.7-0.4-1.6-0.1-2,0.6c-0.4,0.7-0.2,1.6,0.6,2c0.2,0.1,0.5,0.2,0.7,0.2c0.5,0,1-0.3,1.3-0.7
				c0.2-0.3,0.2-0.7,0.1-1.1C38.3,101.8,38,101.4,37.7,101.2z"/>
		</g>
		<g>
			<path class="st0" d="M463.4,157.7c-0.5-0.8-1.5-1.3-2.5-1.3h-25.5c-1,0-1.9,0.5-2.4,1.3l-5.8,8.9c-0.7,1.1-0.6,2.6,0.3,3.5
				l18.5,20.8c0.6,0.6,1.3,1,2.2,1c0.8,0,1.6-0.4,2.2-1l18.5-20.8c0.9-1,1-2.4,0.3-3.5L463.4,157.7z M465.6,166.8h-7.9l3.9-6.1
				L465.6,166.8z M465,169.9l-13.7,15.3l4.7-15.3H465z M451,159.5h7.9l-3.9,6.1L451,159.5z M452.8,169.9l-4.6,15l-4.6-15H452.8z
				 M444.3,166.8l3.9-6l3.9,6H444.3z M440.3,169.9l4.7,15.3l-13.7-15.3H440.3z M437.6,159.5h7.8l-3.9,6.1L437.6,159.5z M438.7,166.8
				h-7.9l4-6.1L438.7,166.8z"/>
			<path class="st0" d="M423.1,166.8H421c-0.8,0-1.5,0.7-1.5,1.5c0,0.8,0.7,1.5,1.5,1.5h2.1c0.8,0,1.5-0.7,1.5-1.5
				C424.6,167.5,423.9,166.8,423.1,166.8z"/>
			<path class="st0" d="M474.8,166.8h-2.1c-0.8,0-1.5,0.7-1.5,1.5c0,0.8,0.7,1.5,1.5,1.5h2.1c0.8,0,1.5-0.7,1.5-1.5
				C476.4,167.5,475.7,166.8,474.8,166.8z"/>
			<path class="st0" d="M462.8,155.3c0.4,0,0.8-0.2,1.1-0.5l3.4-3.4c0.6-0.6,0.6-1.6,0-2.2h0c-0.6-0.6-1.6-0.6-2.2,0l-3.4,3.4
				c-0.6,0.6-0.6,1.6,0,2.2C462,155.2,462.4,155.3,462.8,155.3z"/>
			<path class="st0" d="M432.6,154.9c0.3,0.3,0.7,0.5,1.1,0.5c0.4,0,0.8-0.2,1.1-0.5c0.3-0.3,0.5-0.7,0.5-1.1c0-0.4-0.2-0.8-0.5-1.1
				l-3.4-3.4c-0.6-0.6-1.6-0.6-2.2,0c-0.3,0.3-0.5,0.7-0.5,1.1c0,0.4,0.2,0.8,0.5,1.1L432.6,154.9z"/>
			<path class="st0" d="M448.2,151.2c0.8,0,1.5-0.7,1.5-1.5v-6.8c0-0.8-0.7-1.5-1.5-1.5s-1.5,0.7-1.5,1.5v6.8
				C446.7,150.5,447.4,151.2,448.2,151.2z"/>
		</g>
		<g>
			<g>
				<path class="st0" d="M475.9,311c3.1,0,5.6-2.5,5.6-5.6s-2.5-5.6-5.6-5.6s-5.6,2.5-5.6,5.6C470.2,308.4,472.8,311,475.9,311z
					 M475.9,302.6c1.5,0,2.7,1.2,2.7,2.7c0,1.5-1.2,2.7-2.7,2.7s-2.7-1.2-2.7-2.7C473.2,303.8,474.4,302.6,475.9,302.6z"/>
				<path class="st0" d="M442.8,347.3c-3.1,0-5.6,2.5-5.6,5.6c0,3.1,2.5,5.6,5.6,5.6s5.6-2.5,5.6-5.6
					C448.4,349.8,445.9,347.3,442.8,347.3z M442.8,355.7c-1.5,0-2.7-1.2-2.7-2.7c0-1.5,1.2-2.7,2.7-2.7s2.7,1.2,2.7,2.7
					C445.5,354.5,444.3,355.7,442.8,355.7z"/>
				<path class="st0" d="M456.6,324.7c0.3,0.3,0.7,0.4,1,0.4s0.7-0.1,1-0.4c0.6-0.6,0.6-1.5,0-2.1l-3-3l3-3c0.6-0.6,0.6-1.5,0-2.1
					s-1.5-0.6-2.1,0l-3,3l-3-3c-0.6-0.6-1.5-0.6-2.1,0s-0.6,1.5,0,2.1l3,3l-3,3c-0.6,0.6-0.6,1.5,0,2.1c0.3,0.3,0.7,0.4,1,0.4
					s0.7-0.1,1-0.4l3-3L456.6,324.7z"/>
				<path class="st0" d="M480.9,337.8c-0.6-0.6-1.5-0.6-2.1,0l-3,3l-3-3c-0.6-0.6-1.5-0.6-2.1,0c-0.6,0.6-0.6,1.5,0,2.1l3,3l-3,3
					c-0.6,0.6-0.6,1.5,0,2.1c0.3,0.3,0.7,0.4,1,0.4s0.7-0.1,1-0.4l3-3l3,3c0.3,0.3,0.7,0.4,1,0.4c0.4,0,0.7-0.1,1-0.4
					c0.6-0.6,0.6-1.5,0-2.1l-3-3l3-3C481.5,339.3,481.5,338.4,480.9,337.8z"/>
				<path class="st0" d="M463.7,345.3c-0.6-0.6-1.5-0.6-2.1,0l-3,3l-3-3c-0.6-0.6-1.5-0.6-2.1,0s-0.6,1.5,0,2.1l3,3l-3,3
					c-0.6,0.6-0.6,1.5,0,2.1c0.3,0.3,0.7,0.4,1,0.4c0.4,0,0.7-0.1,1-0.4l3-3l3,3c0.3,0.3,0.7,0.4,1,0.4s0.7-0.1,1-0.4
					c0.6-0.6,0.6-1.5,0-2.1l-3-3l3-3C464.3,346.8,464.3,345.9,463.7,345.3z"/>
				<path class="st0" d="M454.4,334.4c0.8,0,1.5-0.7,1.5-1.5s-0.7-1.5-1.5-1.5s-1.5,0.7-1.5,1.5S453.5,334.4,454.4,334.4z"/>
				<path class="st0" d="M443.6,338.7c0.2,0.2,0.5,0.2,0.8,0.2c0.5,0,0.9-0.2,1.2-0.7c0.4-0.7,0.3-1.6-0.4-2s-1.6-0.3-2,0.4
					C442.7,337.3,442.9,338.2,443.6,338.7z"/>
				<path class="st0" d="M448.1,332.5c-0.7,0.3-1.1,1.2-0.7,1.9c0.2,0.5,0.8,0.9,1.3,0.9c0.2,0,0.4,0,0.6-0.1
					c0.7-0.3,1.1-1.2,0.7-1.9C449.7,332.5,448.9,332.1,448.1,332.5z"/>
				<circle class="st0" cx="460.1" cy="332.9" r="1.5"/>
				<path class="st0" d="M442.8,344.3c0.4,0,0.8-0.2,1-0.4c0.3-0.3,0.4-0.6,0.4-1c0-0.4-0.2-0.8-0.4-1c-0.3-0.3-0.6-0.4-1-0.4
					s-0.8,0.2-1,0.4c-0.3,0.3-0.4,0.6-0.4,1c0,0.4,0.2,0.8,0.4,1C442,344.2,442.4,344.3,442.8,344.3z"/>
				<path class="st0" d="M482.9,319.9l-5.6-5.6c-0.8-0.8-2.1-0.8-2.9,0l-5.6,5.6c-0.8,0.8-0.8,2.1,0,2.9c0.8,0.8,2.1,0.8,2.9,0
					l2.1-2.1v2.4c0,4.4-3.6,7.9-8,7.9c-1.1,0-2,0.9-2,2s0.9,2,2,2c6.6,0,12.1-5.4,12.1-12v-2.4l2.1,2.1c0.7,0.7,2.1,0.8,2.9,0
					c0.4-0.4,0.6-0.9,0.6-1.4C483.5,320.8,483.3,320.3,482.9,319.9z"/>
			</g>
		</g>
		<g class="st1">
			<circle class="st2" cx="43.8" cy="88.8" r="43.2"/>
			<circle class="st2" cx="185.6" cy="43.8" r="43.2"/>
			<circle class="st2" cx="336.6" cy="56.5" r="43.2"/>
			<circle class="st2" cx="444.5" cy="167.8" r="43.2"/>
			<circle class="st2" cx="461.2" cy="329.2" r="43.2"/>
			<circle class="st2" cx="349.1" cy="478.3" r="43.2"/>
			<g>
				<g>
					<path class="st3" d="M426.8,405.8c-0.4,0.6-0.9,1.3-1.3,1.9"/>
					<path class="st4" d="M422.9,411.3c-10,14-21.4,27-34.1,38.6"/>
					<path class="st3" d="M387.2,451.4c-0.6,0.5-1.1,1-1.7,1.5"/>
				</g>
			</g>
			<g>
				<g>
					<path class="st3" d="M467,247.4c0.1,0.8,0.1,1.5,0.2,2.3"/>
					<path class="st5" d="M467.5,254.6c0.3,5,0.5,10.1,0.5,15.2c0,4-0.1,7.9-0.3,11.8"/>
					<path class="st3" d="M467.6,284.1c0,0.8-0.1,1.5-0.1,2.3"/>
				</g>
			</g>
			<g>
				<g>
					<path class="st3" d="M374.5,77.4c0.6,0.5,1.2,1,1.8,1.4"/>
					<path class="st6" d="M379.8,81.8C395.7,95,409.9,110.2,422,127"/>
					<path class="st3" d="M423.3,128.8c0.4,0.6,0.9,1.3,1.3,1.9"/>
				</g>
			</g>
			<g>
				<g>
					<path class="st3" d="M223.5,25.3c0.8,0,1.5,0,2.3,0"/>
					<path class="st7" d="M230.4,25.4c21.2,0.6,41.8,3.9,61.4,9.6"/>
					<path class="st3" d="M294,35.6c0.7,0.2,1.5,0.4,2.2,0.7"/>
				</g>
			</g>
			<g>
				<g>
					<path class="st3" d="M82.7,69.8c0.6-0.4,1.3-0.9,1.9-1.3"/>
					<path class="st8" d="M88.6,65.8c15.4-10.2,32-18.7,49.6-25.2"/>
					<path class="st3" d="M140.5,39.7c0.7-0.3,1.4-0.5,2.2-0.8"/>
				</g>
			</g>
		</g>
		<g>
			<path class="st0" d="M352,480c0.6-0.5,0.7-1.4,0.2-2c-0.5-0.7-1.5-0.8-2.2-0.3c-0.7,0.5-1.2,1.7-1.7,3.5c0,0.1-0.1,0.3-0.2,0.6
				c-1.8,7.1-5.5,11.1-10.7,11.5c-6.3,0.3-10.8-5.6-12.7-8.2l-0.2-0.3c-0.6-0.7-1.2-1.3-1.6-1.6c-0.9-0.7-1.3-0.8-1.9-0.7
				c-0.6,0.1-1,0.6-1.2,1.2c-0.1,0.6,0.1,1.2,0.6,1.6c0.1,0.1,0.2,0.1,0.3,0.2c0.3,0.1,0.9,0.6,1.4,1.2l0.2,0.3
				c2.1,2.8,7.1,9.4,14.6,9.4c0.2,0,0.4,0,0.7,0l0.1,0c4.3-0.3,7.8-2.5,10.3-6.4c2-3,2.8-6.2,3.1-7.4l0.1-0.2c0-0.1,0.1-0.2,0.1-0.3
				C351.6,481.1,351.9,480.3,352,480z"/>
			<path class="st0" d="M321,475.6c2.9,0.8,5.6,2.4,5.6,2.4c3.6,2.2,7,5.7,7.4,6.1c2.2,2.5,4.6,3.9,6.8,3.9c0.5,0,1-0.1,1.5-0.2
				c1.7-0.5,3-1.6,3.7-3c0.8-1.6,0.8-3.7,0-5.6c-1.5-3.8-6.1-7.3-9.6-9.5c-2.4-1.5-8.3-5.2-12.5-7c-0.8-0.3-1.7,0.1-2,0.8
				c-0.3,0.8,0,1.7,0.8,2c4,1.7,9.8,5.3,12.1,6.8c4.5,2.9,7.5,5.7,8.4,8.1c0.5,1.2,0.5,2.3,0.1,3.1c-0.3,0.7-0.9,1.1-1.8,1.4
				c-1.5,0.5-3.7-1.2-5.1-2.8c0,0-3.9-4.1-8.1-6.7c-0.1-0.1-3.1-1.9-6.4-2.8c-0.4-0.1-0.8-0.1-1.2,0.1c-0.4,0.2-0.6,0.5-0.7,0.9
				C319.7,474.5,320.2,475.3,321,475.6z"/>
			<path class="st0" d="M338.2,489c-0.8-0.2-1.5-0.4-2.1-0.7c-0.7-0.4-1.4-0.8-2-1.3l-0.4-0.4c-0.1-0.1-0.3-0.2-0.4-0.4
				c-0.3-0.2-0.5-0.5-0.8-0.7c-0.5-0.5-0.9-1-1.3-1.5c-1.2-1.5-2.4-2.7-3.7-3.6c-0.6-0.5-1.2-0.8-1.9-1.2l-0.4-0.2
				c-0.9-0.5-1.8-1-2.9-1.4c-0.4-0.1-0.8-0.1-1.2,0.1c-0.4,0.2-0.6,0.5-0.7,0.9c-0.2,0.8,0.3,1.7,1.1,1.9c0.3,0.1,0.5,0.2,0.8,0.3
				c0.8,0.4,1.6,0.9,2.5,1.3c0.7,0.4,1.2,0.8,1.8,1.4c0.6,0.6,1.2,1.2,1.7,1.8c0.2,0.2,0.3,0.4,0.5,0.6c0.3,0.3,0.5,0.6,0.8,0.9
				c2.9,3.2,5.9,4.9,9.1,5.3c0,0,0.1,0,0.1,0c0.3,0,0.7-0.1,0.9-0.4c0.3-0.3,0.5-0.7,0.5-1.2c0-0.8-0.6-1.4-1.5-1.5
				C338.5,489.1,338.5,489.1,338.2,489z"/>
			<path class="st0" d="M321.6,470.4c2,0.7,12.1,4.5,17.7,12.3c0.3,0.4,0.8,0.6,1.3,0.6c0.3,0,0.6-0.1,0.9-0.3
				c0.7-0.5,0.8-1.5,0.4-2.2c-6.1-8.6-17.1-12.7-19.2-13.4l0,0c-0.8-0.3-1.7,0.2-2,0.9c-0.1,0.4-0.1,0.8,0,1.2
				C320.8,470,321.1,470.3,321.6,470.4z"/>
			<path class="st0" d="M325.1,460.9c1.1,0.3,3.9,2.1,6.2,3.6c3.7,2.5,5.6,3.6,6.9,3.9c0.2,0,0.3,0,0.5,0c1.7,0,3.6-1.4,5.8-2.9
				c1.5-1,3.1-2.2,4.4-2.7c0.8-0.3,1.2-1.1,1-1.9l0,0c-0.3-0.8-1.1-1.2-2-1c-1.7,0.6-3.5,1.8-5.2,3.1c-1.1,0.8-3.4,2.4-4,2.3
				c-0.8-0.1-3.8-2.1-5.7-3.4c-2.8-1.9-5.5-3.6-7.1-4c-0.8-0.2-1.7,0.3-1.9,1.1C323.8,459.8,324.2,460.7,325.1,460.9z"/>
			<path class="st0" d="M329.3,457.3c4.4,3.2,6.8,4.9,8.2,5.1c0.1,0,0.3,0,0.4,0c1.3,0,2.9-0.9,5.4-2.5c1.1-0.7,2.4-1.5,3.2-1.8
				c0.4-0.1,0.7-0.4,0.9-0.8c0.2-0.4,0.2-0.8,0.1-1.2l0,0c-0.1-0.4-0.4-0.7-0.8-0.9c-0.4-0.2-0.8-0.2-1.2-0.1c-1,0.4-2.3,1.2-3.7,2
				l0.3,0.5l-0.4-0.4c-0.9,0.5-3.2,2-3.6,2c-0.4-0.1-1.9-0.9-6.8-4.5l-0.4-0.3c-0.4-0.3-0.7-0.5-0.9-0.7c-0.7-0.5-1.7-0.3-2.1,0.4
				c-0.5,0.7-0.3,1.7,0.4,2.2C328.4,456.6,328.8,456.9,329.3,457.3z"/>
			<path class="st0" d="M336.9,456.3c0.2,0,0.4,0.1,0.6,0.1c1.5,0,2.9-1,4.3-2l0.2-0.1c0.4-0.3,0.9-0.6,1.4-0.9
				c0.7-0.5,0.9-1.4,0.4-2.1l0,0c-0.5-0.7-1.4-0.9-2.1-0.4c-0.6,0.4-1.1,0.8-1.6,1.1c-0.9,0.7-2.1,1.5-2.6,1.4
				c-0.4-0.1-2.1-1.3-3.5-2.8c-0.6-0.6-1.6-0.6-2.2,0c-0.6,0.6-0.6,1.6,0,2.2C332.7,453.6,335.2,456,336.9,456.3z"/>
			<path class="st0" d="M345.5,475.7c-0.1,0.6,0.1,1.1,0.6,1.5c0.3,0.3,0.7,0.4,1.1,0.4c0.2,0,0.4,0,0.5-0.1
				c0.5-0.2,0.8-0.6,0.9-1.1c0.2-0.9,0.5-1.6,1-2c0.6-0.5,1.5-0.9,2.2-1.2c0.3-0.1,0.6-0.4,0.7-0.8c0.1-0.4,0.1-0.9-0.1-1.3l0,0
				c-0.4-0.7-1.2-0.9-2-0.6C348.5,471.3,346,472.7,345.5,475.7z"/>
			<path class="st0" d="M348.9,465.3L348.9,465.3c-3.3,1-5.9,3.3-7.1,6.2c-0.1,0.4-0.1,0.8,0.1,1.1c0.2,0.4,0.6,0.7,1,0.8
				c0.1,0,0.3,0.1,0.4,0.1c0.6,0,1.2-0.4,1.5-1.1c0.7-1.6,2-2.7,3.1-3.3c0.7-0.4,1.2-0.7,1.9-0.9c1-0.3,1.2-1.2,1-2
				C350.6,465.6,349.9,465,348.9,465.3z"/>
			<path class="st0" d="M377.5,466.5c-0.5-0.3-1.1-0.3-1.6,0l-17.2,10.8l-0.1,0.1l-0.5,0.6l0.5,0.2l0,0l-0.6-0.1l-1.5,9.7
				c-1.1,0.1-2.1,0.8-2.7,1.8c-0.5,0.8-0.6,1.8-0.3,2.7c0.1,0.4,0.3,0.7,0.5,1l-2.4,4.3c-0.2,0.4-0.3,0.8-0.1,1.2
				c0.1,0.4,0.4,0.7,0.7,0.9l10.2,5.7c0.2,0.1,0.5,0.2,0.8,0.2c0.5,0,1.1-0.3,1.4-0.8l2.4-4.3c1.3,0.1,2.6-0.6,3.2-1.8
				c0.5-0.8,0.6-1.8,0.3-2.7c-0.1-0.2-0.1-0.4-0.2-0.6l7.3-6.1l0.2-0.3l-0.5-0.3h0l0.6,0.2l0.2-0.4c0,0,0-0.1,0-0.2l0.2-20.5
				C378.3,467.3,378,466.7,377.5,466.5z M359.5,488.7l1.2-7.7l1.4,0.8c0.7,0.4,1.7,0.2,2.1-0.6c0.2-0.4,0.3-0.8,0.1-1.2
				c-0.1-0.4-0.4-0.7-0.7-0.9l-1.1-0.6l9.9-6.2l-4.2,7.5c-1.3-0.1-2.6,0.6-3.2,1.8c-0.5,0.8-0.6,1.8-0.3,2.7
				c0.3,0.9,0.8,1.7,1.7,2.1c0.8,0.5,1.8,0.6,2.7,0.3c0.9-0.3,1.7-0.8,2.1-1.7c0.7-1.2,0.6-2.6-0.2-3.7l4.2-7.5l-0.1,11.7l-1.1-0.6
				c-0.7-0.4-1.7-0.2-2.1,0.6c-0.4,0.7-0.2,1.7,0.6,2.1l1.4,0.8l-5.9,5L359.5,488.7z M367.5,496.9c0,0.1,0,0.2,0,0.3
				c-0.1,0.1-0.1,0.2-0.2,0.2c-0.1,0-0.2,0-0.3,0l-10.2-5.7c-0.1-0.1-0.2-0.1-0.2-0.2l0,0c0-0.1,0-0.2,0-0.3
				c0.1-0.1,0.2-0.2,0.3-0.2c0.1,0,0.1,0,0.2,0.1l10.2,5.7C367.4,496.7,367.5,496.8,367.5,496.9z M364,499.3l-1.5,2.7l-7.5-4.2
				l1.5-2.7L364,499.3z M358.7,478.1L358.7,478.1L358.7,478.1L358.7,478.1z"/>
		</g>
	</g>
</g>
</svg>
