<?xml version="1.0" encoding="utf-8"?>
<!-- Generator: Adobe Illustrator 21.0.2, SVG Export Plug-In . SVG Version: 6.00 Build 0)  -->
<svg version="1.1" id="Layer_1" xmlns="http://www.w3.org/2000/svg" xmlns:xlink="http://www.w3.org/1999/xlink" x="0px" y="0px"
	 viewBox="0 0 178.6 129.5" style="enable-background:new 0 0 178.6 129.5;" xml:space="preserve">
<style type="text/css">
	.st0{fill:#FFFFFF;}
</style>
<g>
	<g>
		<circle class="st0" cx="89.9" cy="101" r="2.6"/>
		<path class="st0" d="M159.4,30.7c-0.9-0.9-2.4-0.9-3.4,0l-47.4,49.5c-0.9,0.9-0.9,2.4,0,3.4c0.5,0.5,1.1,0.7,1.7,0.7
			c0.6,0,1.2-0.2,1.7-0.7L159.4,34C160.3,33.1,160.3,31.6,159.4,30.7z"/>
		<path class="st0" d="M166,40.4l-37.3,39.4c-0.9,0.9-0.9,2.4,0,3.4c0.5,0.5,1.1,0.7,1.7,0.7c0.6,0,1.2-0.2,1.7-0.7l37.3-39.4
			c0.9-0.9,0.9-2.4,0-3.4C168.4,39.5,166.9,39.5,166,40.4z"/>
		<path class="st0" d="M75,65.3c-0.3,0.2-0.7,0.4-1.1,0.6c-1,0.4-2,0.7-3,0.7l1.5,3.2L39.8,84.6L19,38.6l32.5-14.7l8.2,18.1
			c1.3,0.8,2.3,2,2.9,3.3c0.6,1.4,0.8,2.9,0.6,4.4l0.7,1.5l2.3,1.5c0.4-0.3,0.9-0.6,1.4-0.8c0.4-0.2,0.8-0.3,1.2-0.4L53.8,18.6
			c-1.3-2.9-4.7-4.1-7.5-2.8L16.3,29.3c-2.9,1.3-4.1,4.7-2.8,7.5L41,97.6c1.3,2.9,4.7,4.1,7.5,2.8l29.9-13.6
			c2.9-1.3,4.1-4.7,2.8-7.5L75,65.3z M25.3,29l14.8-6.7c0.4-0.2,0.9,0.3,1.2,0.9c0.3,0.7,0.3,1.4-0.1,1.6l-14.8,6.7
			c-0.4,0.2-0.9-0.3-1.2-0.9C24.9,29.9,24.9,29.2,25.3,29z M61.2,88.5c-1.8,0.8-4,0-4.8-1.8c-0.8-1.8,0-4,1.8-4.8
			c1.8-0.8,4,0,4.8,1.8C63.8,85.6,63,87.7,61.2,88.5z"/>
		<polygon class="st0" points="48.6,56.4 36.7,61.8 37.5,63.5 49.4,58 		"/>
		<polygon class="st0" points="38.2,65 38.9,66.6 47.6,62.6 46.9,61 		"/>
		<path class="st0" d="M66.2,54.7l-5.2-3.5c0.8-1.6,0.9-3.5,0.1-5.2c-0.7-1.6-2-2.6-3.5-3.3l-1-0.4l-0.4-0.8l-4.3-9.5l-27,12.3
			l12.2,26.9l10.1-4.6c-0.1,0.9,0.1,1.8,0.5,2.6c1.4,3,5,4.5,8.1,3c3.1-1.4,4.5-5,3-8.1c-0.4-0.9-0.9-1.6-1.6-2.1L64,59l-2.3-5.2
			l3.5,2.3c-0.8,1.6-0.9,3.5-0.1,5.2c1.4,3,5,4.5,8.1,3c3-1.4,4.5-5,3-8.1c-1.4-3.1-5-4.5-8.1-3C67.4,53.7,66.8,54.2,66.2,54.7z
			 M59.5,46.6c1,2.2,0.1,4.8-2.2,5.8c-2.1,1-4.8,0.1-5.8-2.2c-1-2.2-0.1-4.8,2.2-5.8C55.8,43.5,58.5,44.4,59.5,46.6z M49.9,51
			c0.1,0.3,0.2,0.5,0.5,0.7l-13.5,6.2l-5-11l17.4-7.9l2.3,5l0,0C49.6,45.6,48.8,48.5,49.9,51z M47.6,64.5L38,68.9L27.2,45.2L51,34.4
			l3.7,8.2c-0.6,0-1.2,0.3-1.7,0.5l-2.9-6.3l-20.6,9.4L36,60.4l15.6-7.1c0.4,0.3,0.7,0.6,1.2,0.9l-0.4,6.6c-0.5,0.1-1.1,0.2-1.6,0.5
			l-0.7-1.6l-1.6,0.7l0.7,1.6l1.6-0.7C49.3,61.8,48.2,63,47.6,64.5z M57.3,64.9c1,2.2,0.1,4.8-2.2,5.8c-2.1,1-4.8,0.1-5.8-2.2
			c-1-2.2,0-4.8,2.2-5.8S56.3,62.7,57.3,64.9z M61.7,58.1L55.4,61c-0.4-0.2-0.8-0.2-1.3-0.3l0.5-6.2c1.1,0.2,2.4,0.1,3.5-0.4
			c0.6-0.3,1-0.6,1.5-0.9L61.7,58.1z M74.8,57c1,2.2,0.1,4.8-2.2,5.8c-2.2,1-4.8,0.1-5.8-2.2c-1-2.2-0.1-4.8,2.2-5.8
			C71.1,53.8,73.8,54.8,74.8,57z"/>
		<path class="st0" d="M172.4,0H6.2C2.8,0,0,2.8,0,6.2v100.3c0,3.4,2.8,6.2,6.2,6.2h68.9v4.5c0,4.1-3.4,7.5-7.5,7.5h-6.8
			c-1.3,0-2.4,1.1-2.4,2.4c0,1.3,1.1,2.4,2.4,2.4h57.1c1.3,0,2.4-1.1,2.4-2.4c0-1.3-1.1-2.4-2.4-2.4H111c-4.1,0-7.5-3.4-7.5-7.5
			v-4.5h68.9c3.4,0,6.2-2.8,6.2-6.2V6.2C178.6,2.8,175.8,0,172.4,0z M77.2,124.7c1.6-2.1,2.6-4.7,2.6-7.5v-4.5h19v4.5
			c0,2.8,1,5.4,2.6,7.5H77.2z M173.8,89.3L173.8,89.3H84.6c-1,1.2-2.3,2.1-3.8,2.7l-4.4,2h97.4v12.5c0,0.8-0.7,1.5-1.5,1.5H6.2
			c-0.8,0-1.5-0.7-1.5-1.5V94.1h28.4L31,89.3H4.7V6.2c0-0.8,0.7-1.5,1.5-1.5h166.2c0.8,0,1.5,0.7,1.5,1.5V89.3z"/>
	</g>
</g>
</svg>
