<?xml version="1.0" encoding="utf-8"?>
<!-- Generator: Adobe Illustrator 21.0.2, SVG Export Plug-In . SVG Version: 6.00 Build 0)  -->
<svg version="1.1" id="Layer_1" xmlns="http://www.w3.org/2000/svg" xmlns:xlink="http://www.w3.org/1999/xlink" x="0px" y="0px"
	 viewBox="0 0 198.4 156.3" style="enable-background:new 0 0 198.4 156.3;" xml:space="preserve">
<style type="text/css">
	.st0{fill:#FFFFFF;}
</style>
<g>
	<path class="st0" d="M111.2,113.5c-0.2-0.8-0.1-1.6,0.3-2.4c0.8-1.5,2.7-2,4.2-1.2c0,0,0,0,0,0c0,0,0,0,0,0l32.4,18.2
		c0.7,0.4,1.2,1.1,1.5,1.9c0.2,0.8,0.1,1.6-0.3,2.4c-0.8,1.5-2.7,2-4.2,1.2l-32.4-18.2C111.9,114.9,111.4,114.3,111.2,113.5
		L111.2,113.5z M132.8,149l-27-15.1l6.5-11.6l27,15.1L132.8,149L132.8,149z M150.9,85c1.5,0.8,2,2.7,1.2,4.2c-0.8,1.5-2.7,2-4.2,1.2
		s-2-2.7-1.2-4.2C147.6,84.7,149.4,84.2,150.9,85L150.9,85z M131.7,81.3c1.5,0.8,3.4,0.3,4.2-1.2c0.8-1.5,0.3-3.4-1.2-4.2l-6.2-3.5
		l40-25L151,78.6c-3.8-0.6-7.7,1.1-9.7,4.6c-2.5,4.5-0.9,10.1,3.6,12.6c4.5,2.5,10.1,0.9,12.6-3.6c2-3.5,1.4-7.8-1.1-10.7l17.5-31.2
		l-0.5,47.2l-6.2-3.5c-1.5-0.8-3.4-0.3-4.2,1.2c-0.8,1.5-0.3,3.4,1.2,4.2l6.9,3.9l-21.8,18.3l-28.6-16.1l4.3-28.1L131.7,81.3
		L131.7,81.3z M119.8,71C119.8,71,119.8,71,119.8,71c-0.1,0.1-0.1,0.1-0.1,0.2c0,0,0,0.1-0.1,0.1c0,0.1-0.1,0.1-0.1,0.2
		c0,0,0,0.1,0,0.1c0,0.1,0,0.1-0.1,0.2c0,0,0,0.1,0,0.1c0,0.1,0,0.1,0,0.2c0,0,0,0,0,0.1l-4.7,31.3c-3.4-0.2-6.8,1.5-8.6,4.7
		c-1.2,2.2-1.5,4.7-0.8,7.1c0.4,1.4,1.1,2.6,2,3.6l-8.3,14.8c-0.8,1.5-0.3,3.4,1.2,4.2l32.4,18.2c1.5,0.8,3.4,0.3,4.2-1.2l8.3-14.8
		c3.8,0.6,7.7-1.1,9.7-4.6c1.2-2.2,1.5-4.7,0.8-7.1c-0.3-1-0.7-1.9-1.3-2.7l24.2-20.3c0,0,0,0,0,0c0.1,0,0.1-0.1,0.2-0.1
		c0,0,0.1-0.1,0.1-0.1c0,0,0.1-0.1,0.1-0.2c0,0,0.1-0.1,0.1-0.1c0,0,0.1-0.1,0.1-0.2c0,0,0.1-0.1,0.1-0.1c0,0,0,0,0-0.1
		c0,0,0-0.1,0.1-0.1c0,0,0-0.1,0.1-0.1c0-0.1,0.1-0.1,0.1-0.2c0,0,0-0.1,0-0.1c0-0.1,0-0.1,0.1-0.2c0,0,0-0.1,0-0.1
		c0-0.1,0-0.2,0-0.3c0,0,0,0,0,0c0-0.1,0-0.2,0-0.3l0.7-64.5c0-1.1-0.6-2.2-1.6-2.7c-1-0.6-2.2-0.5-3.2,0.1L120.8,70
		c-0.1,0.1-0.2,0.1-0.3,0.2c0,0,0,0,0,0c-0.1,0.1-0.1,0.1-0.2,0.2c0,0,0,0-0.1,0.1c-0.1,0.1-0.1,0.1-0.2,0.2c0,0,0,0.1-0.1,0.1
		c0,0.1-0.1,0.1-0.1,0.2C119.8,70.9,119.8,70.9,119.8,71L119.8,71z"/>
	<g>
		<path class="st0" d="M86.2,21.7c-27.4,20.1-39.1,53.8-32.4,85.1c-12.1-4.5-26.1-3.2-37.4,4.8C14.2,77.1,29,42.1,59.1,20.2
			c37.1-27.1,86-26.3,121.7-1.4C152.5,0.7,114.9,0.7,86.2,21.7z"/>
	</g>
	<path class="st0" d="M67,125.2H51.6c-1.1,0-2-0.9-2-2v-15.4c0-1.1,0.9-2,2-2H67c1.1,0,2,0.9,2,2v15.4C69,124.3,68.1,125.2,67,125.2
		z M53.6,121.1h11.3v-11.3H53.6V121.1z"/>
	<path class="st0" d="M196.4,30H181c-1.1,0-2-0.9-2-2V12.5c0-1.1,0.9-2,2-2h15.4c1.1,0,2,0.9,2,2V28C198.4,29.1,197.5,30,196.4,30z
		 M183,25.9h11.3V14.6H183V25.9z"/>
	<path class="st0" d="M17.5,129.1H2c-1.1,0-2-0.9-2-2v-15.4c0-1.1,0.9-2,2-2h15.4c1.1,0,2,0.9,2,2v15.4
		C19.5,128.2,18.6,129.1,17.5,129.1z M4.1,125h11.3v-11.3H4.1V125z"/>
</g>
</svg>
