<?xml version="1.0" encoding="utf-8"?>
<!-- Generator: Adobe Illustrator 21.0.2, SVG Export Plug-In . SVG Version: 6.00 Build 0)  -->
<svg version="1.1" id="Layer_1" xmlns="http://www.w3.org/2000/svg" xmlns:xlink="http://www.w3.org/1999/xlink" x="0px" y="0px"
	 viewBox="0 0 175.7 148.2" style="enable-background:new 0 0 175.7 148.2;" xml:space="preserve">
<style type="text/css">
	.st0{fill:#FFFFFF;}
</style>
<g>
	<path class="st0" d="M101.5,45.5C101.5,45.5,101.5,45.5,101.5,45.5c0-0.1,0-0.2,0-0.2c0-0.1,0-0.1,0-0.1c0,0,0-0.1,0-0.1
		c0-0.1,0-0.1-0.1-0.2c0,0,0-0.1,0-0.1c0-0.1,0-0.1-0.1-0.1c0,0,0-0.1,0-0.1c0,0,0-0.1-0.1-0.1c0,0,0-0.1-0.1-0.1c0,0,0-0.1-0.1-0.1
		c0,0-0.1-0.1-0.1-0.1c0,0,0,0-0.1-0.1c0,0-0.1-0.1-0.1-0.1c0,0,0,0-0.1-0.1c0,0-0.1-0.1-0.1-0.1c0,0-0.1,0-0.1-0.1
		c0,0-0.1-0.1-0.1-0.1c-0.1,0-0.1-0.1-0.1-0.1c0,0,0,0-0.1,0c-0.1,0-0.2-0.1-0.2-0.1l-13-5.5c-1.2-0.5-2.6,0.1-3.1,1.3
		c-0.5,1.2,0.1,2.6,1.3,3.1l11.5,4.9v10.8v1.7V73v11.7v14.8c0,4.9,3.7,9,8.5,9.7c-0.9,1.4-1.4,3.1-1.4,4.9c0,5.3,4.3,9.6,9.6,9.6
		c5.3,0,9.6-4.3,9.6-9.6c0-1.8-0.5-3.4-1.3-4.9h21.4c-0.8,1.4-1.3,3.1-1.3,4.9c0,5.3,4.3,9.6,9.6,9.6s9.6-4.3,9.6-9.6
		c0-5.3-4.3-9.6-9.6-9.6h-45c-2.8,0-5-2.2-5-5V93c1.4,0.8,3.2,1.3,5,1.3h47.3c5.4,0,9.7-4.4,9.7-9.7V64.7c0,0,0-0.1,0-0.1
		c0-0.1,0-0.1,0-0.1c0,0,0-0.1,0-0.1c0,0,0-0.1,0-0.1c0,0,0-0.1,0-0.1c0,0,0-0.1,0-0.1c0,0,0-0.1,0-0.1c0,0,0-0.1,0-0.1
		c0,0,0-0.1-0.1-0.1c0,0,0-0.1-0.1-0.1c0,0,0-0.1-0.1-0.1c0,0,0-0.1-0.1-0.1c0,0-0.1-0.1-0.1-0.1c0,0,0-0.1-0.1-0.1
		c0,0-0.1-0.1-0.1-0.1c0,0-0.1-0.1-0.1-0.1c0,0-0.1-0.1-0.1-0.1c0,0-0.1-0.1-0.1-0.1c0,0-0.1-0.1-0.1-0.1c0,0-0.1-0.1-0.1-0.1
		c0,0-0.1,0-0.1-0.1c0,0-0.1,0-0.1-0.1c0,0-0.1,0-0.1-0.1c0,0-0.1,0-0.1-0.1c0,0-0.1,0-0.1-0.1c0,0-0.1,0-0.1,0c0,0-0.1,0-0.1,0
		c0,0-0.1,0-0.1,0c-0.1,0-0.1,0-0.1,0c0,0,0,0-0.1,0l-60-8.3v-8.4C101.6,45.7,101.6,45.6,101.5,45.5z M151.5,109.2
		c2.7,0,4.9,2.2,4.9,4.9s-2.2,4.9-4.9,4.9c-2.7,0-4.9-2.2-4.9-4.9S148.9,109.2,151.5,109.2z M113.5,109.2c2.7,0,4.9,2.2,4.9,4.9
		s-2.2,4.9-4.9,4.9s-4.9-2.2-4.9-4.9S110.9,109.2,113.5,109.2z M158.8,66.8v17.8c0,2.8-2.2,5-5,5h-47.3c-2.8,0-5-2.2-5-5V72.9V59.8
		v-0.9L158.8,66.8z"/>
	<path class="st0" d="M66.8,75.7c0-2.2-1.8-4-4-4H45c-2.2,0-4,1.8-4,4v3.8c0,2.2,1.8,4,4,4h17.8c2.2,0,4-1.8,4-4V75.7z"/>
	<path class="st0" d="M62.8,86.6H45c-2.2,0-4,1.8-4,4v3.8c0,2.2,1.8,4,4,4h17.8c2.2,0,4-1.8,4-4v-3.8C66.8,88.3,65,86.6,62.8,86.6z"
		/>
	<g>
		<circle class="st0" cx="32.5" cy="32.4" r="6"/>
		<path class="st0" d="M28,21.8c-5.7,2.5-8.4,9.3-5.9,15c2.5,5.7,9.3,8.4,15,5.9c5.7-2.5,8.4-9.3,5.9-15C40.5,22,33.7,19.3,28,21.8z
			 M35.5,39.1c-3.7,1.6-8.3-0.1-9.9-3.9c-1.6-3.7,0.1-8.3,3.9-9.9s8.3,0.1,9.9,3.9C41,33,39.3,37.5,35.5,39.1z"/>
		<path class="st0" d="M8,33.3l-7.6,5.2l5.7,13.2l9.2-1.9c0.5,0.5,0.8,0.8,1.3,1.3l2.6-3.2c-0.7-0.4-1.2-1.1-1.6-1.6l-0.8-0.8
			l-8.4,1.8l-3.3-7.5l7-4.9l0-1.2C12,33,12.1,32,12,31.3l0.1-1l-7.2-4.6l3-7.6l8.4,1.5l0.6-0.7c0.4-0.7,1.1-1.2,1.6-1.6l0.8-0.8
			l-1.8-8.4L25,4.8l4.9,7l1.2,0c0.7-0.1,1.6,0,2.3-0.1l1.2,0l4.6-7.2l9,3.6l1.3-3.4L37.7,0l-5.2,7.9C32.3,8,32,7.9,31.8,8l-5.5-7.7
			L13.1,6l1.9,9.2c-0.2,0.1-0.3,0.4-0.5,0.5l-9.3-1.5L0,27.4l7.9,5.2C8,32.9,7.9,33.1,8,33.3z"/>
		<path class="st0" d="M169,30.7h-14h-7.1h-38.2H97.7H69.5l-1.4,1l4.7,3.1l-0.4,1.1h24.6H111h38.7h4.8H169c0.9,0,1.6,0.7,1.6,1.6
			v67.1h-6.9c1.2,1.5,2.1,3.3,2.7,5.1h4.2v13.5c0,0.9-0.7,1.6-1.6,1.6h-6.3c-2.8,2.9-6.8,4.8-11.2,4.8c-4.4,0-8.3-1.8-11.2-4.8
			h-15.7c-2.8,2.9-6.8,4.8-11.2,4.8c-4.4,0-8.3-1.8-11.2-4.8H34.8c-0.9,0-1.6-0.7-1.6-1.6v-13.5h61.5c-1.3-1.5-2.3-3.2-3-5.1H33.2
			V67.9L30,72.7l-2-0.8v51.3c0,3.7,3,6.7,6.7,6.7h51.7v4.9c0,4.5-3.7,8.2-8.2,8.2h-7.4c-1.4,0-2.6,1.2-2.6,2.6
			c0,1.4,1.2,2.6,2.6,2.6h62c1.4,0,2.6-1.2,2.6-2.6c0-1.4-1.2-2.6-2.6-2.6h-7.4c-4.5,0-8.2-3.7-8.2-8.2V130H169c3.7,0,6.7-3,6.7-6.7
			V37.4C175.7,33.7,172.7,30.7,169,30.7z M88.8,143c1.8-2.3,2.8-5.1,2.8-8.2V130h20.6v4.9c0,3.1,1,5.9,2.8,8.2H88.8z"/>
		<path class="st0" d="M50.7,49.1l9.3,1.5l4.9-13.4L57,32.1c-0.1-0.2,0-0.5-0.1-0.7l7.8-5.3L59,12.9l-9.2,1.9
			c-0.5-0.5-0.8-0.8-1.2-1.1l-2.5,2.9c0.7,0.4,1.2,1.1,1.6,1.6l0.8,0.8l8.4-1.8l3.3,7.5l-7,4.9l0,1.2c0.1,0.7,0,1.6,0.1,2.3l0,1.2
			l7.2,4.6l-3,7.6l-8.4-1.5l-0.8,0.8c-0.4,0.7-1.1,1.2-1.6,1.6l-0.8,0.8l1.8,8.4L40.2,60l-4.9-7l-1.2,0c-0.7,0.1-1.6,0-2.3,0.1
			l-1.2,0l-4.6,7.2l-9-3.6l-1.3,3.4l11.9,4.7l5.2-7.9c0.2-0.1,0.5,0,0.7-0.1l5.5,7.7l13.2-5.7l-1.9-9.2
			C50.4,49.5,50.5,49.2,50.7,49.1z"/>
	</g>
</g>
</svg>
