<?xml version="1.0" encoding="utf-8"?>
<!-- Generator: Adobe Illustrator 21.0.2, SVG Export Plug-In . SVG Version: 6.00 Build 0)  -->
<svg version="1.1" id="Layer_1" xmlns="http://www.w3.org/2000/svg" xmlns:xlink="http://www.w3.org/1999/xlink" x="0px" y="0px"
	 viewBox="0 0 427.9 136.1" style="enable-background:new 0 0 427.9 136.1;" xml:space="preserve">
<style type="text/css">
	.st0{fill:#FFFFFF;}
</style>
<g>
	<g>
		<g>
			<path class="st0" d="M63.3,32.3c0.9,0.1,1.8,0.2,2.7,0.2c3.4,0,6.6-1.1,9.4-3.1c3.5-2.5,5.9-6.3,6.6-10.6
				c1.5-8.9-4.5-17.2-13.4-18.7C64.3-0.5,60,0.5,56.5,3.1c-3.5,2.5-5.9,6.3-6.6,10.6c-0.7,4.3,0.3,8.6,2.8,12.1
				C55.2,29.3,59,31.6,63.3,32.3z M65.9,3.9c0.7,0,1.3,0.1,2,0.2c6.7,1.1,11.3,7.5,10.2,14.3c-0.5,3.3-2.3,6.1-5,8.1
				c-2.7,1.9-6,2.7-9.2,2.2c-3.3-0.5-6.1-2.3-8-5c-1.9-2.7-2.7-6-2.1-9.3C54.7,8.2,59.9,3.9,65.9,3.9z"/>
			<path class="st0" d="M79.1,110.3c-2.5-3.5-6.3-5.9-10.5-6.6c-4.3-0.7-8.6,0.3-12.1,2.8c-3.5,2.5-5.9,6.3-6.6,10.6
				c-0.7,4.3,0.3,8.6,2.8,12.1c2.5,3.5,6.3,5.9,10.5,6.6c0.9,0.1,1.8,0.2,2.7,0.2c3.4,0,6.6-1.1,9.4-3.1c3.5-2.5,5.9-6.3,6.6-10.6
				C82.6,118.2,81.6,113.9,79.1,110.3z M53.7,117.8c1-6,6.1-10.4,12.2-10.4c0.7,0,1.3,0.1,2,0.2c3.3,0.5,6.1,2.3,8,5
				c1.9,2.7,2.7,6,2.1,9.3s-2.3,6.1-5,8.1c-2.7,1.9-6,2.7-9.2,2.2c-3.3-0.5-6.1-2.3-8-5C53.9,124.3,53.2,121.1,53.7,117.8z"/>
			<path class="st0" d="M48.5,105.7l1.7-2.1l-2.5-0.9c-14.3-5.3-24-19.1-24-34.4c0-11.9,5.8-23,15.4-29.9c2.9-1.6,6-2.9,9.3-3.9
				l2.9-0.9l-2-2.2c-0.6-0.6-1.1-1.3-1.6-2c-3.5-4.9-4.9-10.8-3.9-16.7c0.1-0.8,0.3-1.5,0.5-2.3l1-3.7L41.7,8
				C16.4,18.1,0,42.3,0,69.7c0,23.1,12.2,44.7,31.9,56.7c3.5,2.5,7.4,4.6,11.6,6.3l4.7,1.8l-2.3-4.5c-2.2-4.3-2.9-9.1-2.1-13.8
				C44.4,112.3,46.1,108.7,48.5,105.7z M40.7,127.2c-1.5-0.8-3-1.6-4.4-2.5l0-0.1l-0.8-0.5C21.5,114.8,13,99.1,13,82.3
				c0-4.7,0.7-9.2,1.9-13.5c1.7-6,4.5-11.7,8.2-16.7c0,0,0,0,0.1-0.1c-2.2,5.1-3.4,10.6-3.4,16.2c0,15.9,9.7,30.7,24.2,37.1
				c-2,3.1-3.4,6.6-4,10.2C39.3,119.4,39.6,123.4,40.7,127.2z M39.8,13c-0.8,6.6,0.8,13.2,4.7,18.6c0,0,0,0,0,0
				c-2.1,0.8-4,1.7-6,2.6l-0.1-0.1l-0.8,0.4C20.1,44,9.1,62.3,9.1,82.3c0,0.8,0.1,1.7,0.1,2.5c0,0,0,0.1,0,0.1
				c0.3,5.9,1.5,11.6,3.5,16.8C7,92.1,3.9,81,3.9,69.7C3.9,45.3,17.9,23.3,39.8,13z"/>
		</g>
		<g>
			<g>
				<g>
					<path class="st0" d="M365.7,75.2c-6.4,6.4-14.1,9.7-23.2,9.7c-9.1,0-16.8-3.2-23.2-9.7c-6.3-6.4-9.5-14.1-9.5-23.2
						c0-9.1,3.2-16.9,9.5-23.2c6.5-6.4,14.3-9.7,23.2-9.7c9,0,16.8,3.2,23.2,9.7c6.4,6.4,9.6,14.2,9.6,23.2
						C375.3,61,372.1,68.8,365.7,75.2z M357.6,36.8c-4.2-4.2-9.2-6.3-15.1-6.3c-5.9,0-10.9,2.1-15.1,6.3c-4.2,4.3-6.4,9.3-6.4,15.1
						c0,5.9,2.1,10.9,6.4,15.1c4.2,4.3,9.2,6.4,15.1,6.4c5.8,0,10.8-2.1,15.1-6.4c4.2-4.1,6.3-9.2,6.3-15.1
						C363.8,46.1,361.7,41,357.6,36.8z"/>
					<g>
						<path class="st0" d="M416.2,49.3c-1.6-0.3-3.1-0.6-4.5-0.9c-1.5-0.3-3-0.6-4.5-1c-1.6-0.3-3.1-0.7-4.6-1c-1.5-0.3-3-0.6-4.5-1
							c-5.5-1.2-8.3-3.6-8.3-7.2c0-2.5,1.3-4.4,4-5.9c2.5-1.2,5.3-1.8,8.5-1.8c3.4,0,6.3,0.6,8.6,1.9c2.7,1.5,4,4.1,4,7.9
							c0,0,4.9,0,5,0c3.1,0,5.6-2.5,5.7-5.5c0-0.5-0.2-1.2-0.4-2.1c-1.3-3.8-3.6-6.8-6.9-9c-4.6-3.1-9.9-4.7-15.9-4.7
							c-5.9,0-11.2,1.6-15.8,4.7c-5.5,3.6-8.2,8.5-8.2,14.5c0,8.1,3.8,13.5,11.3,16.4c1.5,0.3,3.1,0.7,4.7,1.1
							c1.6,0.4,3.2,0.7,4.8,1l-0.1-0.1c1.6,0.3,3.1,0.7,4.6,1c1.5,0.3,3.1,0.6,4.6,0.9v-0.1c5.5,1.3,8.2,3.6,8.2,7
							c0,2.7-1.5,4.8-4.5,6.2c-2.5,1.2-5.7,1.8-9.5,1.8c-3.7,0-6.9-0.6-9.5-1.8l0.1,0.1c-1.9-0.9-3.2-2.2-3.9-4.1
							c0-0.1-0.1-0.3-0.1-0.3c0-0.1,0-0.1-0.1-0.2c-0.8-2.1-2.8-3.6-5.2-3.7c0,0,0,0,0,0h-6.6c0,7.7,3,13.4,8.9,17
							c4.7,3,10.2,4.4,16.6,4.4c6.3,0,11.8-1.5,16.6-4.4c5.9-3.7,8.9-8.8,8.9-15C427.9,57.6,424,52.2,416.2,49.3z"/>
						<path class="st0" d="M425.7,34.7c0,0,0,0.1,0,0.2c0,0,0,0.1,0,0.2V34.7z"/>
					</g>
					<path class="st0" d="M253.4,20.6c-0.1,0-0.1,0-0.1,0l0,0h-5.6v41.1l-27.3-38.5c-0.1-0.1-0.1-0.2-0.2-0.3l-0.2-0.2l0,0
						c-1-1.3-2.6-2.1-4.4-2.1c0,0,0,0,0,0l0,0h-7.4v17.2v33.9v6.1c0,3.1,2.5,5.6,5.6,5.7l0,0h5.8v-5.7c0,0,0,0,0,0V42.3l27.1,38.2v0
						c1,1.7,2.8,2.9,4.9,2.9c0.1,0,0.1,0,0.2,0l0,0h7.4V66.2V29.4v-3.2C259.1,23.1,256.6,20.6,253.4,20.6z"/>
					<path class="st0" d="M202.6,26.3c0-3.2-2.5-5.7-5.7-5.7h-29.7h-9.7v30.2v25.9v1c0,3.2,2.5,5.7,5.7,5.7c0,0,0,0,0,0v0h39.4v-5.3
						l0,0c0-0.2,0-0.3,0-0.5c0-3.1-2.5-5.7-5.7-5.7l-28,0V57.7h1.3h0h19.3c0,0,0,0,0,0h5.7V52c0,0,0-0.1,0-0.1
						c0-3.1-2.5-5.7-5.7-5.7h-1.4h-19.2V32h33.7V26.3L202.6,26.3C202.6,26.3,202.6,26.3,202.6,26.3z"/>
					<path class="st0" d="M309.8,26.3c0-3.2-2.6-5.7-5.7-5.7h-29.7h-9.6v30.2v25.9v1c0,3.2,2.5,5.7,5.7,5.7l0,0v0h39.4v-5.3l-0.1,0
						c0-0.2,0.1-0.3,0.1-0.5c0-3.1-2.6-5.7-5.7-5.7l-28,0V57.7h1.3h0h19.3c0,0,0,0,0,0h5.7V52c0,0,0-0.1,0-0.1
						c0-3.1-2.6-5.7-5.7-5.7h-1.4h-19.3V32h33.7V26.3L309.8,26.3C309.8,26.3,309.8,26.3,309.8,26.3z"/>
					<path class="st0" d="M146.4,46.2l-20.4,0c0,0,0,5.7,0,5.7c0,3.1,2.5,5.7,5.7,5.7h8.9v8.2c-4.2,5-9.8,7.5-16.5,7.5
						c-5.9,0-11-2.1-15.3-6.4c-4.3-4.2-6.4-9.2-6.4-15.1c0-5.8,2.1-10.8,6.4-15.1c4.2-4.2,9.3-6.3,15.3-6.3c3.4,0,6.7,0.9,10,2.6
						c1.8,1,3.4,2.1,5,3.5c0.1,0.1,0.2,0.1,0.3,0.2l0.6,0.5c1.8,1.5,4.1,1.7,6.1,0.8c0.1,0,0.1,0,0.1,0l0.9-0.6c0,0,0.1-0.1,0.1-0.1
						l5-3.4c-3.6-4.8-7.8-8.5-12.8-11.1c-4.9-2.6-10-4-15.3-4c-9.2,0-17,3.2-23.6,9.7c-6.4,6.4-9.7,14.1-9.7,23.2
						c0,9.1,3.2,16.9,9.7,23.2c6.5,6.4,14.4,9.7,23.6,9.7c2.8,0,5.5-0.3,8.2-1c2.7-0.7,5.2-1.7,7.6-2.9c2.4-1.3,4.6-2.9,6.7-4.7
						c1.9-1.8,3.6-3.7,5.1-5.9c0.1-0.1,0.6-1.4,0.6-1.4s0-16.8,0-17C152.1,48.8,149.5,46.2,146.4,46.2z"/>
				</g>
				<g>
					<g>
						<path class="st0" d="M109.6,111.1c-1,0.2-2.5,0.4-3.8,0.4c-4.2,0-5.1-2.5-5.1-7.1c0-4.7,0.9-7.2,5.1-7.2c1.4,0,3,0.3,3.8,0.4
							l-0.1,1.3c-0.9-0.2-2.5-0.4-3.6-0.4c-3.1,0-3.6,1.9-3.6,5.8c0,3.9,0.5,5.7,3.7,5.7c1.1,0,2.6-0.2,3.6-0.4L109.6,111.1z"/>
						<path class="st0" d="M111.9,104.4c0-4.6,1.2-7.2,5.5-7.2c4.3,0,5.5,2.6,5.5,7.2c0,4.8-1.2,7.1-5.5,7.1
							C113.1,111.5,111.9,109,111.9,104.4z M121.3,104.4c0-3.8-0.7-5.9-3.9-5.9c-3.2,0-3.9,2.1-3.9,5.9c0,3.8,0.7,5.7,3.9,5.7
							C120.7,110.1,121.3,108.3,121.3,104.4z"/>
						<path class="st0" d="M125.8,104.4c0-4.6,1.2-7.2,5.5-7.2c4.3,0,5.5,2.6,5.5,7.2c0,4.8-1.2,7.1-5.5,7.1
							C127,111.5,125.8,109,125.8,104.4z M135.2,104.4c0-3.8-0.7-5.9-3.9-5.9c-3.2,0-3.9,2.1-3.9,5.9c0,3.8,0.7,5.7,3.9,5.7
							C134.5,110.1,135.2,108.3,135.2,104.4z"/>
						<path class="st0" d="M141.8,106.6v4.7h-1.5V97.3h5.1c3,0,4.4,1.5,4.4,4.5c0,3-1.4,4.8-4.4,4.8H141.8z M145.3,105.2
							c2,0,2.9-1.2,2.9-3.4c0-2.1-0.8-3.1-2.9-3.1h-3.5v6.5H145.3z"/>
						<path class="st0" d="M152.8,97.3h8.5v1.4h-6.9v4.8h5.7v1.3h-5.7v5h6.9v1.4h-8.5V97.3z"/>
						<path class="st0" d="M166,105.9v5.3h-1.5V97.3h5.1c2.9,0,4.4,1.3,4.4,4.2c0,2.1-0.8,3.5-2.6,4.1l2.7,5.7h-1.7l-2.5-5.3H166z
							 M169.6,98.7H166v5.9h3.6c2.1,0,2.8-1.2,2.8-3C172.5,99.7,171.6,98.7,169.6,98.7z"/>
						<path class="st0" d="M179.9,97.3h3.4l3.8,13.9h-1.5l-1-3.6h-5.9l-1,3.6h-1.5L179.9,97.3z M179,106.3h5.3l-2.1-7.6h-1
							L179,106.3z"/>
						<path class="st0" d="M187.5,97.3h10v1.4h-4.2v12.6h-1.5V98.7h-4.3V97.3z"/>
						<path class="st0" d="M200.1,97.3h1.5v13.9h-1.5V97.3z"/>
						<path class="st0" d="M215.2,97.3l-3.6,13.9h-3.5l-3.6-13.9h1.6l3.2,12.6h1.1l3.2-12.6H215.2z"/>
						<path class="st0" d="M220,97.3h3.4l3.8,13.9h-1.5l-1-3.6h-5.9l-1,3.6h-1.5L220,97.3z M219.1,106.3h5.3l-2.1-7.6h-1
							L219.1,106.3z"/>
						<path class="st0" d="M235,111.3V97.3h5c4,0,5.1,2.8,5.1,6.8c0,4-1,7.2-5.1,7.2H235z M240,98.7h-3.4v11.2h3.4
							c2.9,0,3.6-2.8,3.6-5.8S242.9,98.7,240,98.7z"/>
						<path class="st0" d="M248.6,97.3h8.5v1.4h-6.9v4.8h5.7v1.3h-5.7v5h6.9v1.4h-8.5V97.3z"/>
						<path class="st0" d="M273.1,98.8c0,0-2.8-0.3-4-0.3c-2,0-3,0.7-3,2.3c0,1.8,1,2.1,3.4,2.7c2.8,0.6,4,1.3,4,3.7
							c0,3.1-1.7,4.3-4.4,4.3c-1.6,0-4.4-0.4-4.4-0.4l0.2-1.3c0,0,2.7,0.4,4.2,0.4c2,0,3-0.9,3-2.8c0-1.6-0.8-2-3.1-2.5
							c-2.9-0.6-4.3-1.3-4.3-4c0-2.7,1.8-3.7,4.5-3.7c1.6,0,4.2,0.4,4.2,0.4L273.1,98.8z"/>
						<path class="st0" d="M276.2,104.4c0-4.6,1.2-7.2,5.5-7.2s5.5,2.6,5.5,7.2c0,4.8-1.2,7.1-5.5,7.1
							C277.4,111.5,276.2,109,276.2,104.4z M285.6,104.4c0-3.8-0.7-5.9-3.9-5.9c-3.2,0-3.9,2.1-3.9,5.9c0,3.8,0.7,5.7,3.9,5.7
							C285,110.1,285.6,108.3,285.6,104.4z"/>
						<path class="st0" d="M290.7,97.3h8.3v1.4h-6.8v5.4h5.7v1.4h-5.7v5.8h-1.5V97.3z"/>
						<path class="st0" d="M300.4,97.3h10v1.4h-4.2v12.6h-1.5V98.7h-4.3V97.3z"/>
						<path class="st0" d="M313.5,97.3l2.4,12.6h0.6l2.8-12.5h1.8l2.8,12.5h0.6l2.4-12.6h1.6l-2.8,13.9h-2.8l-2.6-11.9l-2.6,11.9
							h-2.8l-2.8-13.9H313.5z"/>
						<path class="st0" d="M333.6,97.3h3.4l3.8,13.9h-1.5l-1-3.6h-5.9l-1,3.6h-1.5L333.6,97.3z M332.6,106.3h5.3l-2.1-7.6h-1
							L332.6,106.3z"/>
						<path class="st0" d="M345.1,105.9v5.3h-1.5V97.3h5.1c2.9,0,4.4,1.3,4.4,4.2c0,2.1-0.8,3.5-2.6,4.1l2.7,5.7h-1.7l-2.5-5.3
							H345.1z M348.7,98.7h-3.6v5.9h3.6c2.1,0,2.8-1.2,2.8-3C351.6,99.7,350.7,98.7,348.7,98.7z"/>
						<path class="st0" d="M356.5,97.3h8.5v1.4h-6.9v4.8h5.7v1.3h-5.7v5h6.9v1.4h-8.5V97.3z"/>
						<path class="st0" d="M373.3,111.3V97.3h1.5v12.6h6.1v1.4H373.3z"/>
						<path class="st0" d="M383.5,97.3h1.5v13.9h-1.5V97.3z"/>
						<path class="st0" d="M394.1,97.3c2.7,0,4.1,1.1,4.1,3.5c0,1.8-0.7,2.7-1.8,3.2c1.2,0.4,2.2,1.3,2.2,3.3c0,2.9-1.7,3.9-4.3,3.9
							h-5.3V97.3H394.1z M390.6,98.7v4.8h3.6c1.7,0,2.5-0.8,2.5-2.5c0-1.6-0.8-2.3-2.6-2.3H390.6z M390.6,104.9v5h3.7
							c1.7,0,2.8-0.5,2.8-2.6c0-2.2-1.8-2.4-2.9-2.4H390.6z"/>
						<path class="st0" d="M403.6,105.9v5.3H402V97.3h5.1c2.9,0,4.4,1.3,4.4,4.2c0,2.1-0.8,3.5-2.6,4.1l2.7,5.7H410l-2.5-5.3H403.6z
							 M407.2,98.7h-3.6v5.9h3.6c2.1,0,2.8-1.2,2.8-3C410,99.7,409.1,98.7,407.2,98.7z"/>
						<path class="st0" d="M415,97.3h8.5v1.4h-6.9v4.8h5.7v1.3h-5.7v5h6.9v1.4H415V97.3z"/>
					</g>
				</g>
			</g>
		</g>
	</g>
</g>
</svg>
